<?xml version="1.0" encoding="UTF-8"?>
<svg width="96px" height="96px" viewBox="0 0 96 96" version="1.1" xmlns="http://www.w3.org/2000/svg" xmlns:xlink="http://www.w3.org/1999/xlink">
    <!-- Generator: Sketch 49.3 (51167) - http://www.bohemiancoding.com/sketch -->
    <title>99.999</title>
    <desc>Created with Sketch.</desc>
    <defs></defs>
    <g id="99.999" stroke="none" stroke-width="1" fill="none" fill-rule="evenodd">
        <g transform="translate(9.000000, 8.000000)" fill="#FFFFFF" fill-rule="nonzero">
            <path d="M8.1,63.8 L8.1,59.2 C8.1,58.6 7.7,58.2 7.1,58.2 C6.5,58.2 6.1,58.6 6.1,59.2 L6.1,63.9 C6.1,65.1 5.5,65.6 4.3,65.6 C3.1,65.6 2.5,65.1 2.5,63.9 L2.5,59.2 C2.5,58.6 2.1,58.2 1.5,58.2 C0.9,58.2 0.5,58.6 0.5,59.2 L0.5,63.8 C0.5,66.2 2,67.2 4.3,67.2 C6.6,67.2 8.1,66.1 8.1,63.8 Z" id="Shape"></path>
            <path d="M17,61.1 C17,59.2 15.7,58.4 14,58.4 L11,58.4 C10.3,58.4 9.8,58.7 9.8,59.6 L9.8,66.2 C9.8,66.8 10.2,67.2 10.8,67.2 C11.4,67.2 11.8,66.8 11.8,66.2 L11.8,63.9 L14,63.9 C16,63.8 17,62.7 17,61.1 Z M11.9,62.3 L11.9,59.9 L13.5,59.9 C14.5,59.9 15.1,60.3 15.1,61.1 C15.1,61.8 14.5,62.3 13.7,62.3 L11.9,62.3 Z" id="Shape"></path>
            <path d="M20.5,66.2 C20.5,66.8 20.9,67.2 21.5,67.2 C22.1,67.2 22.5,66.8 22.5,66.2 L22.5,60 L24.3,60 C24.9,60 25.3,59.7 25.3,59.2 C25.3,58.7 24.8,58.4 24.3,58.4 L18.6,58.4 C18,58.4 17.6,58.7 17.6,59.2 C17.6,59.7 18.1,60 18.6,60 L20.5,60 L20.5,66.2 Z" id="Shape"></path>
            <path d="M27.3,58.2 C26.7,58.2 26.3,58.6 26.3,59.2 L26.3,66.2 C26.3,66.8 26.7,67.2 27.3,67.2 C27.9,67.2 28.3,66.8 28.3,66.2 L28.3,59.2 C28.3,58.6 28,58.2 27.3,58.2 Z" id="Shape"></path>
            <path d="M39,66.2 L39,59.2 C39,58.4 38.5,58.2 37.9,58.2 L37.3,58.2 C36.7,58.2 36.4,58.4 36.2,59.1 L34.5,64.6 L32.8,59.1 C32.6,58.4 32.3,58.2 31.7,58.2 L31.1,58.2 C30.6,58.2 30,58.4 30,59.2 L30,66.2 C30,66.7 30.2,67.2 30.9,67.2 C31.5,67.2 31.8,66.7 31.8,66.2 L31.8,60.8 L33.6,66.5 C33.7,66.9 34,67.1 34.4,67.1 C34.8,67.1 35.1,66.9 35.2,66.5 L37,60.8 L37,66.2 C37,66.7 37.2,67.2 37.9,67.2 C38.8,67.2 39,66.7 39,66.2 Z" id="Shape"></path>
            <path d="M46.6,60 C47.2,60 47.6,59.8 47.6,59.2 C47.6,58.6 47.2,58.4 46.6,58.4 L42,58.4 C41.3,58.4 40.8,58.7 40.8,59.6 L40.8,65.9 C40.8,66.8 41.3,67.1 42,67.1 L46.7,67.1 C47.3,67.1 47.7,66.9 47.7,66.3 C47.7,65.7 47.3,65.5 46.7,65.5 L42.8,65.5 L42.8,63.4 L46.1,63.4 C46.6,63.4 47,63.3 47,62.6 C47,62 46.6,61.8 46.1,61.8 L42.8,61.8 L42.8,60 L46.6,60 Z" id="Shape"></path>
            <path d="M54.7,66.2 L54.7,63.5 L57.7,63.5 C58.2,63.5 58.6,63.4 58.6,62.7 C58.6,62.1 58.2,61.9 57.7,61.9 L54.7,61.9 L54.7,59.9 L58.2,59.9 C58.8,59.9 59.2,59.7 59.2,59.1 C59.2,58.5 58.8,58.3 58.2,58.3 L53.9,58.3 C53.2,58.3 52.8,58.6 52.8,59.5 L52.8,66.1 C52.8,66.7 53.2,67.1 53.8,67.1 C54.3,67.2 54.7,66.8 54.7,66.2 Z" id="Shape"></path>
            <path d="M64.2,58.2 C61.4,58.2 59.8,60.1 59.8,62.6 C59.8,65.2 61.1,67.2 64.2,67.2 C67.2,67.2 68.6,65 68.6,62.6 C68.6,60 67.1,58.2 64.2,58.2 Z M64.2,65.6 C62.4,65.6 61.8,64.2 61.8,62.6 C61.8,60.9 62.6,59.8 64.2,59.8 C65.8,59.8 66.6,61 66.6,62.6 C66.6,64.2 66,65.6 64.2,65.6 Z" id="Shape"></path>
            <path d="M76,62.9 C76.9,62.7 77.5,61.7 77.5,60.8 C77.5,59.7 76.9,58.4 74.5,58.4 L71.2,58.4 C70.5,58.4 70,58.7 70,59.6 L70,66.2 C70,66.8 70.4,67.2 71,67.2 C71.6,67.2 72,66.8 72,66.2 L72,63.7 L74,63.7 C75.1,63.7 75.4,64.3 75.4,65.8 C75.4,66.1 75.5,67.2 76.6,67.2 C77.1,67.2 77.5,66.9 77.5,66.4 C77.5,66 77.2,65.6 77.2,64.6 C77.1,63.7 77,63 76,62.9 Z M74,62.2 L72,62.2 L72,59.9 L74,59.9 C74.9,59.9 75.4,60.1 75.4,61.1 C75.5,62 74.7,62.2 74,62.2 Z" id="Shape"></path>
            <path d="M10.2,73.5 C9.2,73.5 9.5,74.9 8.2,75.2 L7.7,75.3 C7.1,75.4 6.8,75.5 6.8,76 C6.8,76.5 7,76.6 7.4,76.6 L8.9,76.6 L8.9,81.2 C8.9,81.8 9.1,82.3 9.8,82.3 C10.5,82.3 10.7,81.9 10.7,81.2 L10.7,74.4 C10.9,73.6 10.6,73.5 10.2,73.5 Z" id="Shape"></path>
            <path d="M15.6,76.4 C15,76.4 14.4,76.6 13.9,77 L14.2,75.2 L17.3,75.2 C17.7,75.2 18.1,75 18.1,74.4 C18.1,73.9 17.8,73.6 17.3,73.6 L13.7,73.6 C13.3,73.6 13,73.9 12.9,74.4 L12.5,77 C12.5,77.2 12.4,77.4 12.4,77.6 C12.4,78.2 12.8,78.4 13.2,78.4 C13.8,78.4 14.1,77.8 15,77.8 C15.9,77.8 16.6,78.2 16.6,79.3 C16.6,80.1 16,80.8 15.1,80.8 C13.8,80.8 13.8,79.6 13.1,79.6 C12.6,79.6 12.2,79.9 12.2,80.4 C12.2,81 13,82.1 15,82.1 C16.9,82.1 18.3,81 18.3,79.1 C18.5,77.3 17.1,76.4 15.6,76.4 Z" id="Shape"></path>
            <path d="M25.2,77.9 L23.4,77.9 L23.4,76 C23.4,75.5 23.1,75.2 22.7,75.2 C22.2,75.2 22,75.5 22,76 L22,77.8 L20.2,77.8 C19.7,77.8 19.4,78.1 19.4,78.5 C19.4,78.9 19.7,79.2 20.2,79.2 L22,79.2 L22,81 C22,81.5 22.3,81.8 22.7,81.8 C23.1,81.8 23.4,81.5 23.4,81 L23.4,79.2 L25.2,79.2 C25.7,79.2 26,78.9 26,78.5 C26.1,78.2 25.7,77.9 25.2,77.9 Z" id="Shape"></path>
            <path d="M36.2,73.2 C35.8,73.2 35.6,73.3 35.3,73.8 L33.6,77 L31.9,73.8 C31.7,73.4 31.5,73.2 31,73.2 C30.6,73.2 30,73.4 30,74.1 C30,74.3 30.1,74.5 30.2,74.6 L32.6,78.6 L32.6,81.1 C32.6,81.7 33,82.1 33.6,82.1 C34.2,82.1 34.6,81.7 34.6,81.1 L34.6,78.6 L37,74.6 C37.1,74.4 37.2,74.3 37.2,74.1 C37.2,73.4 36.6,73.2 36.2,73.2 Z" id="Shape"></path>
            <path d="M44.1,80.4 L40.2,80.4 L40.2,78.3 L43.5,78.3 C44,78.3 44.4,78.2 44.4,77.5 C44.4,76.9 44,76.7 43.5,76.7 L40.2,76.7 L40.2,75 L44,75 C44.6,75 45,74.8 45,74.2 C45,73.6 44.6,73.4 44,73.4 L39.4,73.4 C38.7,73.4 38.2,73.7 38.2,74.6 L38.2,80.9 C38.2,81.8 38.7,82.1 39.4,82.1 L44.1,82.1 C44.7,82.1 45.1,81.9 45.1,81.3 C45.1,80.7 44.7,80.4 44.1,80.4 Z" id="Shape"></path>
            <path d="M50.8,73.9 C50.6,73.3 50.2,73.2 49.7,73.2 L49.2,73.2 C48.7,73.2 48.4,73.4 48.2,73.8 L45.7,80.5 C45.6,80.7 45.5,81 45.5,81.3 C45.5,81.8 45.9,82.2 46.4,82.2 C46.9,82.2 47.2,82 47.3,81.7 L47.8,80.3 L51,80.3 L51.5,81.7 C51.6,82.1 52,82.2 52.4,82.2 C52.9,82.2 53.3,81.8 53.3,81.3 C53.3,81.1 53.2,80.7 53.1,80.5 L50.8,73.9 Z M48.3,78.8 L49.5,75.3 L50.6,78.8 L48.3,78.8 Z" id="Shape"></path>
            <path d="M61.8,75.8 C61.8,74.7 61.2,73.4 58.8,73.4 L55.5,73.4 C54.8,73.4 54.3,73.7 54.3,74.6 L54.3,81.2 C54.3,81.8 54.7,82.2 55.3,82.2 C55.9,82.2 56.3,81.8 56.3,81.2 L56.3,78.7 L58.2,78.7 C59.3,78.7 59.5,79.3 59.5,80.8 C59.5,81.1 59.6,82.2 60.7,82.2 C61.2,82.2 61.6,81.9 61.6,81.4 C61.6,81 61.3,80.6 61.3,79.6 C61.3,78.7 61.1,78 60.1,77.8 C61.2,77.6 61.8,76.7 61.8,75.8 Z M58.3,77.2 L56.3,77.2 L56.3,74.9 L58.3,74.9 C59.2,74.9 59.7,75.1 59.7,76.1 C59.8,77 59.1,77.2 58.3,77.2 Z" id="Shape"></path>
            <path d="M67.8,77 L66.2,76.6 C65.6,76.4 64.9,76.3 64.9,75.7 C64.9,75.1 65.4,74.7 66.3,74.7 C68.1,74.7 68,76 68.9,76 C69.4,76 69.8,75.7 69.8,75.2 C69.8,74 68,73.2 66.5,73.2 C64.8,73.2 63.1,73.9 63.1,75.8 C63.1,76.7 63.4,77.7 65.2,78.2 L67.4,78.8 C68.1,79 68.2,79.4 68.2,79.7 C68.2,80.3 67.6,80.8 66.6,80.8 C64.6,80.8 64.9,79.2 63.8,79.2 C63.3,79.2 63,79.5 63,80 C63,80.9 64.1,82.2 66.6,82.2 C69,82.2 70.1,81 70.1,79.5 C70.1,78.5 69.6,77.4 67.8,77 Z" id="Shape"></path>
            <path d="M9.3,39.3 L10.9,39.3 L23.4,39.3 L24.8,39.3 L36.4,48.1 C37.1,48.6 38,48.9 38.8,48.9 C39,48.9 39.2,48.9 39.4,48.8 C39.6,48.8 39.8,48.7 40,48.6 C40.1,48.6 40.2,48.5 40.3,48.5 C40.5,48.4 40.6,48.4 40.8,48.3 C40.9,48.2 41.1,48.1 41.2,48.1 L52.8,39.3 L54.2,39.3 L66.7,39.3 L68.3,39.3 C70.1,39.3 71.6,37.8 71.6,36 L71.6,34.4 L71.6,26.3 L71.6,24.7 C71.6,22.9 70.1,21.4 68.3,21.4 L66.7,21.4 L63.3,21.4 L63.3,21 L63.3,19.4 C63.3,17.8 62.2,16.4 60.6,16.1 L60.6,10 C60.6,9.9 60.6,9.8 60.6,9.6 C60.6,9.1 60.4,8.6 60.2,8.1 C60.1,7.9 60,7.8 59.9,7.6 C59.8,7.5 59.8,7.4 59.7,7.4 C59.6,7.4 59.6,7.2 59.5,7.2 C59.4,7.1 59.2,7 59.1,6.8 C59,6.7 58.9,6.6 58.8,6.6 C58.8,6.6 58.7,6.6 58.7,6.5 C58.7,6.5 58.7,6.5 58.6,6.5 C58.5,6.5 58.4,6.4 58.3,6.4 C58.3,6.4 58.3,6.4 58.3,6.4 C58.2,6.3 58,6.3 57.9,6.2 L39.6,0.4 C38.8,0.2 37.9,0.2 37.1,0.4 L19.6,6.1 C17.9,6.6 16.8,8.2 16.8,9.9 L16.8,16 C15.1,16.2 13.8,17.6 13.8,19.3 L13.8,20.9 L13.8,21.3 L10.7,21.3 L9.1,21.3 C7.3,21.3 5.8,22.8 5.8,24.6 L5.8,26.2 L5.8,34.3 L5.8,36 C5.9,37.8 7.4,39.3 9.3,39.3 Z M17.1,21.3 L17.1,20.9 C17.1,19.9 17.9,19.2 18.8,19.2 L20.1,19.2 L22.9,19.2 L26.1,19.2 L51.4,19.2 L54.6,19.2 L57.4,19.2 L58.3,19.2 C59.3,19.2 60,20 60,20.9 L60,21.3 L60,24.5 L60,30 C60,31 59.2,31.7 58.3,31.7 L57.3,31.7 L53.3,31.7 L52.5,31.7 L49.3,31.7 L48,31.7 L29.5,31.7 L28.3,31.7 L25,31.7 L24.2,31.7 L20.2,31.7 L18.8,31.7 C17.8,31.7 17.1,30.9 17.1,30 L17.1,24.5 L17.1,21.3 Z M51.4,16 L26.1,16 L26.1,13.8 L38.5,9.7 L51.4,13.8 L51.4,16 Z M43.9,35 L38.8,39 L33.6,35 L43.9,35 Z M39.2,45.6 C38.9,45.8 38.5,45.8 38.2,45.6 L27.7,37.6 L27.2,37.2 L24.7,35.3 C24.8,35.2 24.8,35.1 24.9,35 L28.2,35 L28.3,35 L38.7,43 L49.1,35 L49.2,35 L52.5,35 L53.1,35 L52.7,35.3 L50.2,37.2 L49.7,37.6 L39.2,45.6 Z M66.6,24.5 C67.6,24.5 68.3,25.3 68.3,26.2 L68.3,34.3 C68.3,35.3 67.5,36 66.6,36 L58,36 L59.9,34.9 L61.2,34.1 C61.4,33.9 61.6,33.7 61.8,33.5 C61.8,33.5 61.8,33.5 61.8,33.5 C62.7,32.6 63.3,31.4 63.3,30 L63.3,24.5 L66.6,24.5 Z M20.1,9.9 C20.1,9.6 20.3,9.2 20.6,9.1 L38.1,3.4 C38.2,3.4 38.3,3.4 38.3,3.4 C38.4,3.4 38.5,3.4 38.5,3.4 L56.7,9.2 C57,9.3 57.3,9.6 57.3,10 L57.3,16 L54.5,16 L54.5,11.5 L38.4,6.3 L22.8,11.5 L22.8,16 L20,16 L20,9.9 L20.1,9.9 Z M13.9,24.5 L13.9,30 L13.9,31.6 C13.9,33.2 15,34.5 16.5,34.8 L18.7,36 L10.8,36 C9.8,36 9.1,35.2 9.1,34.3 L9.1,26.2 C9.1,25.2 9.9,24.5 10.8,24.5 L13.9,24.5 Z" id="Shape"></path>
            <path d="M24.4,26.7 C24.6,26.7 24.8,26.7 25,26.6 C25.3,26.5 25.6,26.3 25.8,26.1 L25.8,26.3 C25.8,27 25.6,27.7 25,28 C24.9,28.1 24.7,28.1 24.5,28.1 C23.7,28.1 23.7,27.3 23.1,27.3 C23,27.3 22.9,27.3 22.9,27.3 C22.7,27.4 22.5,27.6 22.5,27.9 C22.5,28.1 22.6,28.4 22.9,28.6 C23.2,28.9 23.8,29.1 24.4,29.1 C24.6,29.1 24.8,29.1 25,29.1 C25.4,29 25.8,28.9 26.1,28.7 C26.8,28.2 27.2,27.1 27.2,25.5 C27.2,24.5 26.9,23.4 26.1,22.9 C25.7,22.7 25.3,22.5 24.6,22.5 C23.9,22.5 23.3,22.7 22.8,23.1 C22.4,23.5 22.2,24 22.1,24.7 C22.1,24.7 22.1,24.8 22.1,24.8 C22.1,25.4 22.3,26 22.8,26.3 C23.3,26.5 23.8,26.7 24.4,26.7 Z M24.7,23.4 C25.4,23.4 25.8,23.8 25.8,24.6 C25.8,25.2 25.4,25.6 25,25.7 C24.9,25.7 24.8,25.7 24.8,25.7 C24.2,25.7 23.7,25.4 23.7,24.6 C23.7,24.6 23.7,24.6 23.7,24.6 C23.6,23.8 24,23.4 24.7,23.4 Z" id="Shape"></path>
            <path d="M30.4,26.7 C31,26.7 31.5,26.5 31.9,26.1 L31.9,26.3 C31.9,27.2 31.5,28.1 30.6,28.1 C29.8,28.1 29.8,27.3 29.2,27.3 C28.9,27.3 28.6,27.6 28.6,27.9 C28.6,28.5 29.4,29.1 30.5,29.1 C32.2,29.1 33.3,28.1 33.3,25.4 C33.3,23.9 32.7,22.4 30.7,22.4 C29.5,22.4 28.5,23.1 28.3,24.3 C28.3,24.4 28.3,24.5 28.3,24.7 C28.3,24.9 28.3,25 28.3,25.2 C28.4,26 29.2,26.7 30.4,26.7 Z M30.6,23.4 C31.3,23.4 31.7,23.8 31.7,24.6 C31.7,25.3 31.2,25.7 30.6,25.7 C30,25.7 29.5,25.4 29.5,24.6 C29.6,23.9 30,23.4 30.6,23.4 Z" id="Shape"></path>
            <circle id="Oval" cx="35.2" cy="28.3" r="1"></circle>
            <path d="M39.4,26.7 C40,26.7 40.5,26.5 40.9,26.1 L40.9,26.3 C40.9,27.2 40.5,28.1 39.6,28.1 C38.8,28.1 38.8,27.3 38.2,27.3 C37.9,27.3 37.6,27.6 37.6,27.9 C37.6,28.5 38.4,29.1 39.5,29.1 C41.2,29.1 42.3,28.1 42.3,25.4 C42.3,23.9 41.7,22.4 39.7,22.4 C38.3,22.4 37.3,23.2 37.3,24.7 C37.2,25.8 38,26.7 39.4,26.7 Z M39.7,23.4 C40.4,23.4 40.8,23.8 40.8,24.6 C40.8,25.3 40.3,25.7 39.7,25.7 C39.1,25.7 38.6,25.4 38.6,24.6 C38.6,23.9 39,23.4 39.7,23.4 Z" id="Shape"></path>
            <path d="M45.4,26.7 C46,26.7 46.5,26.5 46.9,26.1 L46.9,26.3 C46.9,27.2 46.5,28.1 45.6,28.1 C44.8,28.1 44.8,27.3 44.2,27.3 C43.9,27.3 43.6,27.6 43.6,27.9 C43.6,28.5 44.4,29.1 45.5,29.1 C47.2,29.1 48.3,28.1 48.3,25.4 C48.3,23.9 47.7,22.4 45.7,22.4 C44.3,22.4 43.3,23.2 43.3,24.7 C43.2,25.8 44,26.7 45.4,26.7 Z M45.6,23.4 C46.3,23.4 46.7,23.8 46.7,24.6 C46.7,25.3 46.2,25.7 45.6,25.7 C45,25.7 44.5,25.4 44.5,24.6 C44.6,23.9 45,23.4 45.6,23.4 Z" id="Shape"></path>
            <path d="M49.3,25.5 C49.6,26.2 50.3,26.7 51.3,26.7 C51.7,26.7 52.1,26.6 52.4,26.4 C52.5,26.3 52.6,26.2 52.7,26.1 L52.7,26.3 C52.7,26.8 52.6,27.2 52.4,27.6 C52.2,27.9 51.9,28.1 51.4,28.1 C51.4,28.1 51.4,28.1 51.3,28.1 C50.6,28.1 50.6,27.3 50,27.3 C49.7,27.3 49.4,27.6 49.4,27.9 C49.4,28.5 50.2,29.1 51.3,29.1 C51.7,29.1 52.1,29 52.4,28.9 C53.5,28.5 54.1,27.4 54.1,25.3 C54.1,25 54.1,24.7 54,24.5 C53.8,23.3 53.1,22.3 51.5,22.3 C51.4,22.3 51.4,22.3 51.3,22.3 L51.3,22.1 C51.2,22.2 51.1,22.2 51,22.3 C50.3,22.4 49.8,22.7 49.4,23.2 C49.4,23.2 49.4,23.2 49.4,23.2 C49.2,23.5 49,24 49,24.5 C49,24.7 49,24.9 49.1,25.1 C49.3,25.4 49.3,25.4 49.3,25.5 Z M51.4,23.4 C51.5,23.4 51.5,23.4 51.6,23.4 C52.3,23.4 52.7,23.8 52.7,24.6 C52.7,25.3 52.2,25.7 51.6,25.7 C51.5,25.7 51.4,25.7 51.4,25.7 C50.9,25.6 50.5,25.3 50.5,24.6 C50.5,24 50.8,23.5 51.4,23.4 Z" id="Shape"></path>
        </g>
    </g>
</svg>