<?xml version="1.0" encoding="UTF-8"?>
<svg width="96px" height="83px" viewBox="0 0 96 83" version="1.1" xmlns="http://www.w3.org/2000/svg" xmlns:xlink="http://www.w3.org/1999/xlink">
    <!-- Generator: Sketch 49.3 (51167) - http://www.bohemiancoding.com/sketch -->
    <title>ACD Loyalty</title>
    <desc>Created with Sketch.</desc>
    <defs></defs>
    <g id="Page-1" stroke="none" stroke-width="1" fill="none" fill-rule="evenodd">
        <g id="ACD-Loyalty" transform="translate(4.000000, 4.000000)" fill="#0B82C5" fill-rule="nonzero">
            <path d="M60.0769487,3.97392104 C54.558593,5.18821425 50.3266432,8.18989539 46.9074657,13.2626093 C45.5478613,15.2797272 42.59599,15.3289973 41.1698257,13.3583771 C41.0136968,13.142644 40.8594242,12.9300725 40.5981499,12.5701851 C40.3947637,12.2897924 40.2570828,12.0989861 40.1197824,11.9067269 C34.8173453,4.48615598 24.8935844,1.53952563 16.378263,4.84866927 C7.78082461,8.18980194 2.55030871,16.8777349 3.64379602,25.9304261 C4.19579297,30.4984164 5.6554035,34.7909507 8.01352421,38.8341797 C15.0932958,50.9711358 25.4118064,60.8327547 39.7576435,70.0163389 C42.9265864,72.0450763 45.189087,71.9922048 48.5214092,69.8641301 C59.2353225,63.0215247 67.9355614,55.4108244 74.8600068,46.5442409 C80.3741848,39.4842597 83.4929481,32.9603036 84.3558322,25.8117921 C85.9853843,12.3137867 73.4679775,1.02711647 60.0769487,3.97392104 Z M91.3053791,26.6507193 C90.2713893,35.2167449 86.6141952,42.8670125 80.3768372,50.8529045 C72.9327953,60.3848187 63.6384384,68.5152351 52.2890945,75.763668 C46.7097209,79.326746 41.5077067,79.4483099 35.9835347,75.9117696 C20.7716868,66.1738028 9.66626474,55.5601159 1.96691917,42.361015 C-0.868013349,37.5002455 -2.63805982,32.2947574 -3.30566892,26.7700313 C-4.78333404,14.5368341 2.26982462,2.82147547 13.8426912,-1.6759668 C24.4427124,-5.79524676 36.5898175,-2.75383201 44.0257382,5.59518564 C47.9608825,1.23586485 52.772096,-1.58613784 58.5725567,-2.86251112 C76.6611171,-6.84303211 93.5143578,8.35317134 91.3053791,26.6507193 Z" id="Fill-1"></path>
        </g>
    </g>
</svg>