<?xml version="1.0" encoding="UTF-8"?>
<svg width="87px" height="96px" viewBox="0 0 87 96" version="1.1" xmlns="http://www.w3.org/2000/svg" xmlns:xlink="http://www.w3.org/1999/xlink">
    <!-- Generator: Sketch 49.3 (51167) - http://www.bohemiancoding.com/sketch -->
    <title>ACD Round Robin</title>
    <desc>Created with Sketch.</desc>
    <defs></defs>
    <g id="Page-1" stroke="none" stroke-width="1" fill="none" fill-rule="evenodd">
        <g id="ACD-Round-Robin" transform="translate(0.000000, -1.000000)" fill="#0B82C5" fill-rule="nonzero">
            <path d="M43.5473794,92.1462219 L43.5473794,92.6462219 C19.7463999,92.6462219 0.38660958,73.0216914 0.38660958,48.9017961 C0.38660958,41.5285698 2.23704552,34.2320199 5.7380248,27.8001767 C6.54987661,26.307711 8.40824644,25.7641994 9.88442184,26.5893404 C11.3558952,27.4127345 11.8891233,29.2854202 11.079127,30.7744745 C8.0727555,36.2963464 6.4835627,42.564799 6.4835627,48.9017961 C6.4835627,69.6228348 23.1126058,86.4794475 43.5473794,86.4794475 C49.7948923,86.4794475 55.9756754,84.8692082 61.4211027,81.8226745 C62.897179,80.9984734 64.7553561,81.5422021 65.5671605,83.0345806 C66.3769908,84.5242097 65.8437475,86.3969489 64.3722073,87.2194989 C58.0241011,90.7698031 50.8239078,92.6462219 43.5473794,92.6462219 L43.5473794,92.1462219 Z" id="Fill-1"></path>
            <path d="M78.8145628,70.6649362 L78.8145628,71.1649362 C78.3032224,71.1649362 77.7980594,71.0361954 77.341149,70.7838715 C75.8638079,69.9697195 75.3272531,68.1117499 76.141825,66.6336469 C79.1546271,61.1747432 80.7473508,54.9770752 80.7473508,48.7129109 C80.7473508,28.2263037 64.0791686,11.5583445 43.5927844,11.5583445 C37.327807,11.5583445 31.1301703,13.1511077 25.6732304,16.1636205 C24.1977548,16.9799339 22.3379833,16.4430926 21.5218841,14.9653856 C20.707464,13.4884309 21.2437863,11.6297923 22.7203175,10.8147331 C29.0817049,7.30426347 36.2983246,5.44897864 43.5927844,5.44897864 C67.4491295,5.44897864 86.8567167,24.8567945 86.8567167,48.7129109 C86.8567167,56.0061768 85.001304,63.2234834 81.4911989,69.5849485 C80.9487231,70.5702617 79.9192094,71.1649362 78.8145628,71.1649362 L78.8145628,70.6649362 Z" id="Fill-4"></path>
            <path d="M32.7293557,17.5253873 C34.3684786,18.1219792 35.2136169,19.9343842 34.617025,21.5735071 C34.020433,23.2126301 32.208028,24.0577684 30.5689051,23.4611765 L18.577006,19.0964821 C16.9378831,18.4998902 16.0927447,16.6874852 16.6893367,15.0483622 L21.0564908,3.04970485 C21.6530828,1.41058193 23.4654878,0.565443591 25.1046107,1.16203554 C26.7437336,1.7586275 27.588872,3.57103251 26.99228,5.21015543 L23.7053511,14.2409182 L32.7293557,17.5253873 Z" id="Path-11-Copy"></path>
            <path d="M55.373445,80.3955112 C53.7343221,79.7989192 52.8891837,77.9865142 53.4857757,76.3473913 C54.0823676,74.7082684 55.8947726,73.86313 57.5338956,74.459722 L69.5257947,78.8244163 C71.1649176,79.4210083 72.0100559,81.2334133 71.413464,82.8725362 L67.0463098,94.8711936 C66.4497179,96.5103165 64.6373129,97.3554548 62.99819,96.7588629 C61.359067,96.1622709 60.5139287,94.3498659 61.1105207,92.710743 L64.3974495,83.6799802 L55.373445,80.3955112 Z" id="Path-11-Copy-2"></path>
            <path d="M33.4981776,32.5838818 L38.4030231,37.4909551 C39.5706608,38.6591233 39.5838091,40.5484411 38.4325428,41.732747 C37.2789562,42.9194399 37.285475,44.8105636 38.4472154,45.9892754 L46.9086211,54.57429 C48.051874,55.7342442 49.9189922,55.7477832 51.0789464,54.6045303 C51.0953458,54.5883671 51.1115553,54.5720123 51.1275716,54.5554694 C52.274622,53.3707031 54.1649328,53.3401283 55.3496991,54.4871786 C55.3575481,54.4947778 55.3653554,54.50242 55.3731206,54.5101049 L60.3732715,59.4585493 C61.4916973,60.5654114 61.5648653,62.3483212 60.5408955,63.5431039 C57.5325411,67.0532957 53.0656441,67.8080342 47.1402044,65.8073197 C35.6907079,61.9414167 29.5753804,51.3174869 28.0443043,47.9632911 C24.8075451,40.8723803 25.3000581,35.6668181 29.5218432,32.3466045 L29.5218444,32.3466061 C30.7161357,31.4073583 32.4240572,31.5092734 33.4981776,32.5838818 Z" id="Path-9-Copy"></path>
        </g>
    </g>
</svg>