<?xml version="1.0" encoding="UTF-8"?>
<svg width="96px" height="96px" viewBox="0 0 96 96" version="1.1" xmlns="http://www.w3.org/2000/svg" xmlns:xlink="http://www.w3.org/1999/xlink">
    <!-- Generator: Sketch 49.3 (51167) - http://www.bohemiancoding.com/sketch -->
    <title>ACD Skills</title>
    <desc>Created with Sketch.</desc>
    <defs></defs>
    <g id="ACD-Skills" stroke="none" stroke-width="1" fill="none" fill-rule="evenodd">
        <g transform="translate(0.000000, 1.000000)" fill-rule="nonzero">
            <g id="Path-29" transform="translate(37.000000, 65.000000)" fill="#0B84C7">
                <path d="M55,7 L3.8,7 C1.9,7 0.3,5.4 0.3,3.5 C0.3,1.6 1.9,0 3.8,0 L55,0 C56.9,0 58.5,1.6 58.5,3.5 C58.5,5.4 56.9,7 55,7 Z" id="Shape"></path>
            </g>
            <g id="Path-29-Copy" transform="translate(37.000000, 76.000000)" fill="#0B84C7">
                <path d="M55,7 L3.8,7 C1.9,7 0.3,5.4 0.3,3.5 C0.3,1.6 1.9,0 3.8,0 L55,0 C56.9,0 58.5,1.6 58.5,3.5 C58.5,5.4 56.9,7 55,7 Z" id="Shape"></path>
            </g>
            <g id="Path-29-Copy-2" transform="translate(37.000000, 86.000000)" fill="#0B84C7">
                <path d="M55,7 L3.8,7 C1.9,7 0.3,5.4 0.3,3.5 C0.3,1.6 1.9,0 3.8,0 L55,0 C56.9,0 58.5,1.6 58.5,3.5 C58.5,5.4 56.9,7 55,7 Z" id="Shape"></path>
            </g>
            <g id="Path-27-Copy-2" transform="translate(15.000000, 51.000000)" fill="#0B84C7">
                <path d="M24.2,5.6 L10.5,19.3 C9.3,20.5 7.4,20.5 6.3,19.3 L1.4,14.4 C0.8,13.8 0.5,13.1 0.5,12.3 C0.5,11.5 0.8,10.7 1.4,10.2 C2,9.6 2.7,9.3 3.5,9.3 C4.3,9.3 5,9.6 5.6,10.2 L8.4,13 L20,1.4 C21.2,0.2 23.1,0.2 24.2,1.4 C25.4,2.5 25.4,4.5 24.2,5.6 Z" id="Shape"></path>
            </g>
            <g id="Group" fill="#0B82C5">
                <g id="Combined-Shape-Copy-6" transform="translate(13.000000, 0.000000)">
                    <path d="M14,28 C6.3,28 0,21.7 0,14 C0,6.3 6.3,0 14,0 C21.7,0 28,6.3 28,14 C28,21.7 21.7,28 14,28 Z M14,7 C10.1,7 7,10.1 7,14 C7,17.9 10.1,21 14,21 C17.9,21 21,17.9 21,14 C21,10.1 17.9,7 14,7 Z" id="Shape"></path>
                </g>
                <g id="Oval-5" transform="translate(0.000000, 31.000000)">
                    <path d="M50.6,25.7 C49.1,25.7 47.8,24.8 47.3,23.3 C43.4,12.2 37.4,7.5 27,7.5 C16.7,7.5 10.8,12 6.9,23 C6.2,24.8 4.2,25.8 2.4,25.1 C0.6,24.4 -0.4,22.4 0.3,20.6 C3.4,12 9.5,0.5 27,0.5 C40.3,0.5 49.1,7.2 53.9,21 C54.5,22.8 53.6,24.8 51.7,25.5 C51.3,25.6 51,25.7 50.6,25.7 Z" id="Shape"></path>
                </g>
            </g>
        </g>
    </g>
</svg>