<?xml version="1.0" encoding="UTF-8"?>
<svg width="96px" height="96px" viewBox="0 0 96 96" version="1.1" xmlns="http://www.w3.org/2000/svg" xmlns:xlink="http://www.w3.org/1999/xlink">
    <!-- Generator: Sketch 49.3 (51167) - http://www.bohemiancoding.com/sketch -->
    <title>ACD Load Balance</title>
    <desc>Created with Sketch.</desc>
    <defs></defs>
    <g id="ACD-Load-Balance" stroke="none" stroke-width="1" fill="none" fill-rule="evenodd">
        <g transform="translate(0.000000, -1.000000)" fill-rule="nonzero">
            <g id="Path-21" transform="translate(43.500000, 12.500000)" fill="#0C83C6">
                <path d="M0.5,1.5 L0.5,2.1 L0.1,2.2 C0.2,2 0.3,1.7 0.5,1.5 Z" id="Shape"></path>
                <path d="M8.2,1.1 L7.5,1.2 L7.5,0.5 C7.7,0.7 8,0.9 8.2,1.1 Z" id="Shape"></path>
            </g>
            <g id="Oval-11" transform="translate(43.500000, 12.500000)" fill="#FFFFFF">
                <path d="M7.5,0.5 L7.5,1.2 L8.2,1.1 C8,0.9 7.7,0.7 7.5,0.5 Z M0.1,2.2 L0.5,2.1 L0.5,1.5 C0.3,1.7 0.2,2 0.1,2.2 Z" id="Shape"></path>
            </g>
            <g id="Path-22" transform="translate(0.500000, 0.500000)" fill="#0B82C5">
                <path d="M92.5,7.5 C94.4,7.2 95.8,5.5 95.5,3.6 C95.2,1.7 93.5,0.3 91.6,0.6 L52.9,5.8 C52.1,5.4 51.3,5.1 50.5,4.9 L50.5,4 C50.5,2.1 48.9,0.5 47,0.5 C45.1,0.5 43.5,2.1 43.5,4 L43.5,5.2 C42,5.7 40.6,6.6 39.4,7.7 L3.5,12.5 C1.6,12.8 0.2,14.5 0.5,16.4 C0.7,18.2 2.2,19.4 4,19.4 C4.2,19.4 4.3,19.4 4.5,19.4 L13,18.3 C4.2,30.5 0,39 0,45 C0,55.5 8.5,64 19,64 C29.5,64 38,55.5 38,45 C38,38.8 33.5,29.8 23.9,16.8 L35.6,15.2 C35.6,15.6 35.5,16 35.5,16.5 C35.5,21.7 38.8,26.2 43.5,27.8 L43.5,73.5 C36,75.2 30.2,81.6 29.2,89.5 L20,89.5 C18.1,89.5 16.5,91.1 16.5,93 C16.5,94.9 18.1,96.5 20,96.5 L75,96.5 C76.9,96.5 78.5,94.9 78.5,93 C78.5,91.1 76.9,89.5 75,89.5 L65.8,89.5 C64.7,81.2 58.4,74.6 50.5,73.3 L50.5,28.1 C55.7,26.8 59.5,22.1 59.5,16.5 C59.5,14.9 59.2,13.5 58.7,12.1 L70.7,10.5 C61.4,23.1 57,31.9 57,38 C57,48.5 65.5,57 76,57 C86.5,57 95,48.5 95,38 C95,31.7 90.3,22.5 80.3,9.1 L92.5,7.5 Z M30,45 C30,51.1 25.1,56 19,56 C12.9,56 8,51.1 8,45 C8,42.7 9.5,36.9 19,23.7 C28.5,36.9 30,42.7 30,45 Z M57.7,89.5 L37.3,89.5 C38.4,84.6 42.6,81 47.5,81 C52.4,81 56.6,84.6 57.7,89.5 Z M50.5,20.5 C49.7,21.1 48.6,21.5 47.5,21.5 C45.9,21.5 44.4,20.7 43.5,19.5 C42.9,18.7 42.5,17.6 42.5,16.5 C42.5,15.7 42.7,14.9 43.1,14.2 C43.2,14 43.4,13.7 43.5,13.5 C44.4,12.3 45.9,11.5 47.5,11.5 C48.6,11.5 49.7,11.9 50.5,12.5 C50.7,12.7 51,12.9 51.2,13.1 C52,14 52.5,15.2 52.5,16.5 C52.5,18.1 51.7,19.6 50.5,20.5 Z M87,38 C87,44.1 82.1,49 76,49 C69.9,49 65,44.1 65,38 C65,35.7 66.5,29.9 76,16.7 C85.5,29.9 87,35.7 87,38 Z" id="Shape"></path>
            </g>
        </g>
    </g>
</svg>