<?xml version="1.0" encoding="UTF-8"?>
<svg width="87px" height="96px" viewBox="0 0 87 96" version="1.1" xmlns="http://www.w3.org/2000/svg" xmlns:xlink="http://www.w3.org/1999/xlink">
    <!-- Generator: Sketch 49.3 (51167) - http://www.bohemiancoding.com/sketch -->
    <title>ACD Historical</title>
    <desc>Created with Sketch.</desc>
    <defs></defs>
    <g id="Page-1" stroke="none" stroke-width="1" fill="none" fill-rule="evenodd">
        <g id="ACD-Historical" transform="translate(-24.000000, -15.000000)" fill="#0B82C5" fill-rule="nonzero">
            <path d="M64.4508757,110.910225 C62.517879,110.910225 60.9508757,109.343221 60.9508757,107.410225 C60.9508757,105.477228 62.517879,103.910225 64.4508757,103.910225 C86.2661232,103.910225 103.950876,86.2254721 103.950876,64.4102246 C103.950876,42.594977 86.2661232,24.9102246 64.4508757,24.9102246 C42.6356281,24.9102246 24.9508757,42.594977 24.9508757,64.4102246 C24.9508757,66.3432212 23.3838723,67.9102246 21.4508757,67.9102246 C19.517879,67.9102246 17.9508757,66.3432212 17.9508757,64.4102246 C17.9508757,38.7289837 38.7696348,17.9102246 64.4508757,17.9102246 C90.1321165,17.9102246 110.950876,38.7289837 110.950876,64.4102246 C110.950876,90.0914654 90.1321165,110.910225 64.4508757,110.910225 Z" id="Oval-10" transform="translate(64.450876, 64.410225) rotate(57.000000) translate(-64.450876, -64.410225) "></path>
            <path d="M33.5301596,22.4805963 C32.0892735,21.1920611 31.9657686,18.9794278 33.2543039,17.5385417 C34.5428391,16.0976556 36.7554723,15.9741507 38.1963585,17.262686 L48.1963585,26.2053442 C49.7522259,27.5967033 49.7522259,30.0318955 48.1963585,31.4232545 L38.3166122,40.2583741 C36.875726,41.5469093 34.6630928,41.4234045 33.3745576,39.9825184 C32.0860223,38.5416322 32.2095272,36.328999 33.6504133,35.0404638 L40.6127327,28.8142994 L33.5301596,22.4805963 Z" id="Path-18-Copy-2" transform="translate(40.863242, 28.760530) rotate(-213.000000) translate(-40.863242, -28.760530) "></path>
            <path d="M85.0109076,65.5 C86.9439042,65.5 88.5109076,67.0670034 88.5109076,69 C88.5109076,70.9329966 86.9439042,72.5 85.0109076,72.5 L63.0109076,72.5 C61.077911,72.5 59.5109076,70.9329966 59.5109076,69 L59.5109076,44 C59.5109076,42.0670034 61.077911,40.5 63.0109076,40.5 C64.9439042,40.5 66.5109076,42.0670034 66.5109076,44 L66.5109076,65.5 L85.0109076,65.5 Z" id="Path-19"></path>
        </g>
    </g>
</svg>