<?xml version="1.0" encoding="UTF-8"?>
<svg width="96px" height="96px" viewBox="0 0 96 96" version="1.1" xmlns="http://www.w3.org/2000/svg" xmlns:xlink="http://www.w3.org/1999/xlink">
    <!-- Generator: Sketch 49.3 (51167) - http://www.bohemiancoding.com/sketch -->
    <title>ACD workflow</title>
    <desc>Created with Sketch.</desc>
    <defs></defs>
    <g id="ACD-workflow" stroke="none" stroke-width="1" fill="none" fill-rule="evenodd">
        <g fill="#0080C8" fill-rule="nonzero">
            <g id="Path-2-Copy" transform="translate(6.000000, 4.000000)">
                <g id="path-1">
                    <path d="M23,3.9 C23,4.6 22.8,5.3 22.4,5.8 L18.9,10.3 L13.2,17.8 C12.7,18.5 12,18.9 11.1,19 C11,19 10.9,19 10.8,19 C10.1,19 9.4,18.7 8.8,18.3 L1.9,12.3 C0.7,11.2 0.5,9.3 1.6,8.1 C2.7,6.9 4.6,6.7 5.8,7.8 L10.3,11.7 L15.7,4.5 L17.4,2.2 C18.2,1.1 19.6,0.7 20.9,1.2 C21.2,1.3 21.4,1.4 21.6,1.6 C22.6,2.2 23,3 23,3.9 Z" id="Shape"></path>
                </g>
            </g>
            <g id="Oval-5-Copy-8_1_">
                <path d="M96,80.5 C96,89 89,96 80.5,96 C73.3,96 67.2,91.1 65.5,84.4 C65.2,84.5 64.9,84.5 64.6,84.5 L10.5,84.5 C4.7,84.5 0,79.8 0,74 L0,55 C0,49.2 4.7,44.5 10.5,44.5 L32.5,44.5 C34.3,37.9 40.3,33 47.5,33 C51.5,33 55.1,34.5 57.9,37 C56.7,37 55.6,37.6 54.8,38.6 L53.1,40.8 C51.5,39.6 49.6,39 47.5,39 C43.7,39 40.4,41.3 38.9,44.5 C38.9,44.5 38.9,44.5 38.9,44.5 C38.5,45.3 38.2,46.3 38.1,47.3 C38.1,47.4 38.1,47.5 38.1,47.6 C38.1,47.6 38.1,47.6 38.1,47.6 C38.1,47.9 38.1,48.2 38.1,48.5 C38.1,48.7 38.1,48.8 38.1,49 C38.1,49 38.1,49 38.1,49 C38.4,54 42.5,58 47.6,58 C52.7,58 56.9,54 57.1,48.9 L57.6,48.3 L60.4,44.6 L61.3,43.5 C61.5,43.2 61.7,42.8 61.9,42.5 C62.2,43.2 62.4,43.9 62.6,44.6 L85.3,44.6 C87.2,44.6 88.8,43 88.8,41.1 L88.8,24 C88.8,22.1 87.2,20.5 85.3,20.5 L30.3,20.5 C28.1,26.6 22.3,31 15.5,31 C7,31 0,24 0,15.5 C0,7 7,0 15.5,0 C19.5,0 23.1,1.5 25.9,4 C24.7,4 23.6,4.6 22.8,5.6 L21.1,7.8 C19.5,6.7 17.6,6 15.5,6 C11.7,6 8.4,8.3 6.9,11.5 C6.5,12.4 6.2,13.5 6.1,14.6 C6.1,14.9 6.1,15.2 6.1,15.5 C6.1,20.7 10.4,25 15.6,25 C20.7,25 24.9,21 25.1,15.9 L29.3,10.4 C29.5,10.1 29.7,9.7 29.9,9.4 C30.5,10.7 30.8,12.1 31,13.5 L85.2,13.5 C91,13.5 95.7,18.2 95.7,24 L95.7,41 C95.7,46.8 91,51.5 85.2,51.5 L62.7,51.5 C61.3,58.6 55,64 47.5,64 C40,64 33.7,58.6 32.3,51.5 L10.5,51.5 C8.6,51.5 7,53.1 7,55 L7,74 C7,75.9 8.6,77.5 10.5,77.5 L64.6,77.5 C64.8,77.5 65.1,77.5 65.3,77.6 C66.7,70.4 73,65 80.5,65 C84.5,65 88.1,66.5 90.9,69 C89.7,69 88.6,69.6 87.8,70.6 L86.1,72.9 C85.9,72.7 85.7,72.6 85.4,72.4 C84,71.5 82.3,71 80.5,71 C77.2,71 74.3,72.7 72.6,75.3 C72.3,75.7 72.1,76.1 71.9,76.5 C71.8,76.7 71.7,77 71.6,77.2 C71.3,77.9 71.1,78.7 71.1,79.5 C71.1,79.5 71.1,79.5 71.1,79.5 C71.1,79.5 71.1,79.5 71.1,79.5 C71.1,79.8 71.1,80.1 71.1,80.4 C71.1,80.8 71.1,81.2 71.2,81.6 C71.8,86.3 75.8,89.9 80.6,89.9 C85.7,89.9 89.9,85.9 90.1,80.8 L94.3,75.3 C94.5,75 94.7,74.6 94.9,74.3 C95.5,76.3 96,78.3 96,80.5 Z" id="Shape"></path>
            </g>
            <g id="Path-2-Copy_1_" transform="translate(38.000000, 37.000000)">
                <g id="path-2_1_">
                    <path d="M23,3.9 C23,4.6 22.8,5.2 22.4,5.8 L18.9,10.3 L13.2,17.8 C12.7,18.5 12,18.9 11.1,19 C11,19 10.9,19 10.8,19 C10.1,19 9.4,18.7 8.8,18.3 L1.9,12.3 C0.7,11.2 0.5,9.3 1.6,8.1 C2.7,6.9 4.6,6.7 5.8,7.8 L10.3,11.7 L15.7,4.5 L17.4,2.2 C18.2,1.1 19.6,0.7 20.9,1.2 C21.2,1.3 21.4,1.4 21.6,1.6 C22.6,2.2 23,3 23,3.9 C23,3.9 23,3.9 23,3.9 Z" id="Shape"></path>
                </g>
            </g>
            <g id="Path-2-Copy_2_" transform="translate(71.000000, 70.000000)">
                <g id="path-3_1_">
                    <path d="M23,2.9 C23,2.9 23,2.9 23,2.9 C23,3.6 22.8,4.3 22.4,4.8 L18.9,9.3 L13.2,16.8 C12.7,17.5 12,17.9 11.1,18 C11,18 10.9,18 10.8,18 C10.1,18 9.4,17.7 8.8,17.3 L1.9,11.3 C0.7,10.2 0.5,8.3 1.6,7.1 C2.7,5.9 4.6,5.7 5.8,6.8 L10.3,10.7 L15.8,3.5 L17.5,1.2 C18.3,0.1 19.7,-0.2 20.9,0.2 C21.2,0.3 21.4,0.4 21.7,0.6 C22.6,1.2 23,2 23,2.9 Z" id="Shape"></path>
                </g>
            </g>
        </g>
    </g>
</svg>