<?xml version="1.0" encoding="UTF-8"?>
<svg width="96px" height="96px" viewBox="0 0 96 96" version="1.1" xmlns="http://www.w3.org/2000/svg" xmlns:xlink="http://www.w3.org/1999/xlink">
    <!-- Generator: Sketch 49.3 (51167) - http://www.bohemiancoding.com/sketch -->
    <title>ACD PBX Extensions</title>
    <desc>Created with Sketch.</desc>
    <defs></defs>
    <g id="Page-1" stroke="none" stroke-width="1" fill="none" fill-rule="evenodd">
        <g id="ACD-PBX-Extensions" fill="#0B82C5">
            <path d="M85.42,82.41 C85.36,82.34 85.31,82.25 85.25,82.17 C82.41,78.42 77.99,76 73.02,76 L70.11,76 C65.42,76 61.22,78.15 58.38,81.53 C58.3,81.63 58.23,81.74 58.15,81.84 C56.17,79.06 55,75.67 55,72 C55,71.66 55.03,71.33 55.05,71 C55.57,62.08 62.95,55 72,55 C81.05,55 88.43,62.08 88.95,71 C88.97,71.33 89,71.66 89,72 C89,75.93 87.65,79.54 85.42,82.41 M72,89 C68.77,89 65.76,88.08 63.19,86.52 C63.22,86.48 63.25,86.43 63.28,86.39 C64.88,84.32 67.34,83 70.11,83 L73.02,83 C75.96,83 78.56,84.5 80.14,86.8 C80.16,86.83 80.18,86.86 80.2,86.89 C77.77,88.23 74.97,89 72,89 M72,48 C58.75,48 48,58.75 48,72 C48,75.41 48.72,78.66 50,81.59 C53.7,90.07 62.16,96 72,96 C81.27,96 89.3,90.75 93.3,83.06 C95.02,79.75 96,75.99 96,72 C96,58.75 85.25,48 72,48" id="Page-1"></path>
            <path d="M72,64 C70.8954305,64 70,64.8954305 70,66 C70,67.1045695 70.8954305,68 72,68 C73.1045695,68 74,67.1045695 74,66 C74,64.8954305 73.1045695,64 72,64 Z M72,57 C76.9705627,57 81,61.0294373 81,66 C81,70.9705627 76.9705627,75 72,75 C67.0294373,75 63,70.9705627 63,66 C63,61.0294373 67.0294373,57 72,57 Z" id="Combined-Shape-Copy-2" fill-rule="nonzero"></path>
            <path d="M31.49,52 C31.06,53.49 30.35,54.86 29.43,56.07 C27.06,53.57 23.72,52 20,52 L18,52 C14.57,52 11.47,53.34 9.14,55.5 C8.43,54.44 7.87,53.26 7.51,52 C7.18,50.89 7,49.72 7,48.5 C7,41.6 12.6,36 19.5,36 C26.4,36 32,41.6 32,48.5 C32,49.72 31.82,50.89 31.49,52 M19.5,61 C17.78,61 16.14,60.65 14.65,60.02 C15.61,59.38 16.76,59 18,59 L20,59 C21.39,59 22.66,59.48 23.68,60.27 C22.37,60.73 20.97,61 19.5,61 M19.5,29 C8.73,29 0,37.73 0,48.5 C0,53.5 1.9,58.05 5,61.51 C5.13,61.65 5.25,61.79 5.38,61.93 C7.29,63.93 9.61,65.53 12.22,66.58 C14.47,67.49 16.92,68 19.5,68 C21.65,68 23.72,67.64 25.65,66.99 C28.34,66.1 30.77,64.63 32.79,62.74 C32.86,62.68 32.93,62.62 33,62.55 C36.69,59 39,54.03 39,48.5 C39,37.73 30.27,29 19.5,29" id="Fill-1"></path>
            <path d="M25,45.5 C25,48.54 22.54,51 19.5,51 C16.46,51 14,48.54 14,45.5 C14,42.46 16.46,40 19.5,40 C22.54,40 25,42.46 25,45.5" id="Fill-3"></path>
            <path d="M79.49,23 C79.06,24.49 78.35,25.86 77.43,27.07 C75.06,24.57 71.72,23 68,23 L66,23 C62.57,23 59.47,24.34 57.14,26.5 C56.43,25.44 55.87,24.26 55.51,23 C55.18,21.89 55,20.72 55,19.5 C55,12.6 60.6,7 67.5,7 C74.4,7 80,12.6 80,19.5 C80,20.72 79.82,21.89 79.49,23 M67.5,32 C65.78,32 64.14,31.65 62.65,31.02 C63.61,30.38 64.76,30 66,30 L68,30 C69.39,30 70.66,30.48 71.68,31.27 C70.37,31.73 68.97,32 67.5,32 M67.5,0 C56.73,0 48,8.73 48,19.5 C48,24.5 49.9,29.05 53,32.51 C53.13,32.65 53.25,32.79 53.38,32.93 C55.29,34.93 57.61,36.53 60.22,37.58 C62.47,38.49 64.92,39 67.5,39 C69.65,39 71.72,38.64 73.65,37.99 C76.34,37.1 78.77,35.63 80.79,33.74 C80.86,33.68 80.93,33.62 81,33.55 C84.69,30 87,25.03 87,19.5 C87,8.73 78.27,0 67.5,0" id="Fill-1"></path>
            <path d="M73,16.5 C73,19.54 70.54,22 67.5,22 C64.46,22 62,19.54 62,16.5 C62,13.46 64.46,11 67.5,11 C70.54,11 73,13.46 73,16.5" id="Fill-3"></path>
            <polygon id="Path-24" fill-rule="nonzero" points="54.3501692 63.2430402 51.0861386 69.4354632 33.3679847 60.0962115 36.6320153 53.9037885"></polygon>
            <polygon id="Path-24-Copy" fill-rule="nonzero" transform="translate(41.859077, 31.669626) scale(-1, 1) rotate(-180.000000) translate(-41.859077, -31.669626) " points="52.3501693 33.2430405 49.0861387 39.4354635 31.3679848 30.0962118 34.6320154 23.9037888"></polygon>
        </g>
    </g>
</svg>