<?xml version="1.0" encoding="UTF-8"?>
<svg width="96px" height="96px" viewBox="0 0 96 96" version="1.1" xmlns="http://www.w3.org/2000/svg" xmlns:xlink="http://www.w3.org/1999/xlink">
    <!-- Generator: Sketch 49.3 (51167) - http://www.bohemiancoding.com/sketch -->
    <title>ACD IVR</title>
    <desc>Created with Sketch.</desc>
    <defs></defs>
    <g id="Page-1" stroke="none" stroke-width="1" fill="none" fill-rule="evenodd">
        <g id="ACD-IVR" transform="translate(3.000000, 4.000000)" fill="#0B82C5" fill-rule="nonzero">
            <path d="M29.8825798,14.3726461 C32.96263,17.4540953 32.997313,22.4378273 29.9604531,25.5618407 C26.9096381,28.7002097 26.9267786,33.6726611 29.9814163,36.7719226 L52.3190494,59.4358765 C55.334776,62.4956585 60.259949,62.5313725 63.3197312,59.5156459 C66.4737409,56.2609978 71.4600923,56.1803462 74.589921,59.2105477 C74.6173051,59.2372949 79.013809,63.5881526 87.7794326,72.2631206 C90.7702482,75.2230133 90.9569199,79.9938445 88.2065214,83.1783768 C80.2119845,92.4348029 68.4065944,94.2925635 52.9299307,89.0668946 C39.805754,84.6355387 28.0493481,76.4493386 17.9326657,65.0258054 C11.4397661,57.6941673 5.84973579,49.2087267 2.55786036,41.9970704 C-5.89096462,23.4878574 -4.78772915,9.70799088 6.37329189,0.867425239 C9.55766296,-1.6548974 14.1268709,-1.39021953 16.9987023,1.48291637 L29.8825798,14.3726461 Z M10.7196527,6.35460553 C2.50270917,12.8631883 1.67472548,23.2050464 8.92581065,39.090318 C11.9236754,45.6578722 17.1308212,53.5621096 23.1730799,60.384894 C32.5127989,70.9310973 43.2573073,78.4126948 55.1692641,82.4347466 C68.1807618,86.8280566 77.0042449,85.4395451 82.9088596,78.6029228 C83.2526576,78.2048584 83.2293237,77.6085076 82.8554722,77.2385215 L69.7276994,64.2464639 C69.3685638,63.898598 68.8137875,63.9075712 68.4771462,64.2552815 C68.3968786,64.3381884 68.3156434,64.4201517 68.2334572,64.5011545 C62.4202547,70.2306571 53.0630434,70.162805 47.3335408,64.3496026 L24.9959077,41.6856488 C19.2684621,35.8745334 19.2363237,26.5511869 24.9235659,20.7007292 C25.3106635,20.3025223 25.3064438,19.696175 24.9317086,19.3212695 L12.0478311,6.4315398 C11.6888517,6.07239738 11.1177022,6.03931273 10.7196527,6.35460553 Z" id="Path-9"></path>
            <path d="M70,46 C70,48.209139 68.209139,50 66,50 C63.790861,50 62,48.209139 62,46 C62,35.5455708 53.0828826,27 42,27 C39.790861,27 38,25.209139 38,23 C38,20.790861 39.790861,19 42,19 C57.4267854,19 70,31.0493307 70,46 Z" id="Oval-Copy-2"></path>
            <path d="M82,46 C82,48.209139 80.209139,50 78,50 C75.790861,50 74,48.209139 74,46 C74,29.4841961 59.7226159,16 42,16 C39.790861,16 38,14.209139 38,12 C38,9.790861 39.790861,8 42,8 C64.0418861,8 82,24.9604409 82,46 Z" id="Oval-Copy-3"></path>
            <path d="M93,45 C93,47.209139 91.209139,49 89,49 C86.790861,49 85,47.209139 85,45 C85,22.3961728 65.7862195,4 42,4 C39.790861,4 38,2.209139 38,0 C38,-2.209139 39.790861,-4 42,-4 C70.1285469,-4 93,17.8981998 93,45 Z" id="Oval-Copy-4"></path>
        </g>
    </g>
</svg>