<?xml version="1.0" encoding="UTF-8"?>
<svg width="96px" height="96px" viewBox="0 0 96 96" version="1.1" xmlns="http://www.w3.org/2000/svg" xmlns:xlink="http://www.w3.org/1999/xlink">
    <!-- Generator: Sketch 49.3 (51167) - http://www.bohemiancoding.com/sketch -->
    <title>agility</title>
    <desc>Created with Sketch.</desc>
    <defs></defs>
    <g id="agility" stroke="none" stroke-width="1" fill="none" fill-rule="evenodd">
        <g fill="#0B82C5" fill-rule="nonzero" id="Shape">
            <path d="M65.5,34.2 L64.8,34.2 L67.1,41.3 C79,42 88.5,52 88.5,64.2 C88.5,76.9 78.2,87.3 65.5,87.3 L5,87.3 C3.1,87.3 1.5,88.9 1.5,90.8 C1.5,92.7 3.1,94.3 5,94.3 L65.5,94.3 C82.1,94.3 95.5,80.8 95.5,64.2 C95.5,47.7 82,34.2 65.5,34.2 Z"></path>
            <path d="M27.6,63.3 L25.5,63.3 C25,63.3 24.5,63.4 24,63.5 C21.1,64.2 19,66.7 19,69.8 C19,73.4 21.9,76.3 25.5,76.3 L71.5,76.3 C75.1,76.3 78,73.4 78,69.8 C78,67.1 76.3,64.8 74,63.8 C73.2,63.5 72.4,63.3 71.5,63.3 L70.4,63.3 C70.3,62.9 70.3,62.5 70.1,62 L63.3,41.1 L61,34.1 L56.1,19 C55.4,16.7 53.6,14.9 51.3,14.2 C49.4,13.6 47.4,13.7 45.6,14.7 C43.8,15.6 42.5,17.2 41.9,19.1 L37.1,33.8 L34.9,40.5 L27.9,62.1 C27.7,62.5 27.6,62.9 27.6,63.3 Z M44.3,34.2 L48.5,21.2 C48.5,21 48.7,21 48.7,20.9 C48.7,20.9 48.8,20.9 48.9,20.9 C48.9,20.9 49,20.9 49.1,20.9 C49.2,21 49.4,21.1 49.4,21.2 L53.6,34.2 L55.6,40.4 L42.3,40.4 L44.3,34.2 Z M38.1,53.3 L60,53.3 L63.2,63.3 L34.8,63.3 L38.1,53.3 Z"></path>
            <path d="M6.5,16.7 L10.6,12.6 C10.6,12.6 10.6,12.6 10.6,12.6 C11.6,25.1 20.1,35.6 31.5,39.5 L33.7,32.8 C25.2,29.9 18.8,22.2 17.7,13 C17.7,13 17.7,13 17.7,13 L21.3,16.6 C22,17.3 22.9,17.6 23.8,17.6 C24.7,17.6 25.6,17.3 26.3,16.6 C27.7,15.2 27.7,13 26.3,11.6 L16.4,1.7 C15,0.3 12.8,0.3 11.4,1.7 L1.5,11.6 C0.1,13 0.1,15.2 1.5,16.6 C2.9,18.1 5.1,18.1 6.5,16.7 Z"></path>
        </g>
    </g>
</svg>