<?xml version="1.0" encoding="UTF-8"?>
<svg width="96px" height="96px" viewBox="0 0 96 96" version="1.1" xmlns="http://www.w3.org/2000/svg" xmlns:xlink="http://www.w3.org/1999/xlink">
    <!-- Generator: Sketch 49.3 (51167) - http://www.bohemiancoding.com/sketch -->
    <title>alleviate customer frustration</title>
    <desc>Created with Sketch.</desc>
    <defs></defs>
    <g id="alleviate-customer-frustration" stroke="none" stroke-width="1" fill="none" fill-rule="evenodd">
        <g id="Alleviate-Customer-Frustration">
            <ellipse id="Oval-4" stroke="#0B82C5" stroke-width="6" cx="26.5789474" cy="56.0135334" rx="11.5789474" ry="11.0135334"></ellipse>
            <path d="M51.3075429,91.8553779 C51.9397003,93.6820834 50.9713277,95.6753856 49.1446221,96.3075429 C47.3179166,96.9397003 45.3246144,95.9713277 44.6924571,94.1446221 C41.2261321,84.1281998 35.832522,79.5 25.9380058,79.5 C16.0743172,79.5 10.8681292,83.9230259 7.29238072,93.8366435 C6.63652563,95.6549752 4.63080096,96.5973486 2.8124693,95.9414935 C0.994137633,95.2856384 0.0517641792,93.2799138 0.707619276,91.4615821 C5.21045596,78.97765 12.8350696,72.5 25.9380058,72.5 C39.1004962,72.5 46.9361767,79.2237147 51.3075429,91.8553779 Z" id="Oval-5" fill="#0B82C5" fill-rule="nonzero"></path>
            <path d="M68.6762329,21.0822337 C68.5312415,21.2319408 68.3908199,21.3528738 68.2370191,21.4619679 C68.0998567,21.5592602 67.957325,21.6433972 67.8109247,21.7146341 C67.4175405,21.9050041 66.9868247,22.0072953 66.5510752,22.0149072 C66.1244683,22.0215955 65.6996763,21.9374312 65.3071921,21.7675998 C64.9739522,21.6198945 64.6863837,21.4301712 64.4341593,21.1899106 C64.2844522,21.0449191 64.1635192,20.9044975 64.0544251,20.7506968 C64.0413729,20.7323528 64.0289222,20.7148535 64.0170271,20.6981336 C63.3566276,19.7225375 63.3085126,18.4054789 63.9982537,17.3614119 C64.707697,16.2875215 65.543201,15.3992059 66.5035403,14.7085655 C67.3343531,15.3006304 68.0758144,16.0382355 68.6851294,16.9082496 C68.734117,16.9782394 68.7891828,17.0556946 68.9482903,17.2793738 C69.6738642,18.3022866 69.667782,19.6238187 69.0358898,20.621548 C69.0253987,20.63712 69.014923,20.6528233 69.0044617,20.6686587 C68.9055497,20.8183827 68.7955204,20.956352 68.6761861,21.0821963 C68.4095582,21.3586043 68.1219063,21.564141 67.8109247,21.7146341 C67.4097326,21.90985 66.9794888,22.0081905 66.5510752,22.0149072 C66.1314986,22.0222365 65.7072549,21.9417842 65.3071775,21.7676577 C65.1332869,21.6902006 64.9880454,21.6108329 64.8477342,21.5181393 C64.6980103,21.4192273 64.560041,21.3091981 64.4341967,21.1898637 C64.2644438,21.0261797 64.1315319,20.8672894 64.0170271,20.6981336 C63.8917434,20.5220335 63.8280943,20.4323986 63.7725205,20.3530008 C62.9385859,19.1622577 61.374859,18.6885245 60.0550895,19.211807 C58.6889992,19.7534681 57.8466286,21.1810424 58.0233675,22.6739046 C58.1349963,23.6164197 58.4284613,24.4969751 58.9086778,25.3370596 C60.5741725,28.2501728 63.0293427,30.6483266 66.5053718,32.9236986 C69.1480448,31.2016788 71.2466,29.3286803 72.9044745,27.1627399 C74.1379694,25.5514127 74.7993649,24.139807 74.9765087,22.6424948 C75.2367818,20.4428411 73.2426409,18.6082855 71.1625043,19.0753242 C70.2813176,19.2731602 69.6336606,19.7342711 69.0358898,20.621548 C68.9325784,20.7846721 68.8125386,20.9391408 68.6762329,21.0822337 Z M69.8481228,13.2210607 C75.9956419,11.8408008 81.6779237,17.068346 80.9349483,23.3474748 C80.6163141,26.0407393 79.5067207,28.4089264 77.6688594,30.8097437 C75.5712658,33.5501579 72.9666881,35.8747906 69.8118577,37.9305532 C67.6738279,39.3236366 65.4141752,39.377513 63.2574699,37.9687892 C59.0257194,35.2048408 55.8917797,32.1488968 53.6997744,28.314865 C52.8227885,26.7806773 52.2721386,25.1284267 52.0649953,23.3794546 C51.5697399,19.1961759 53.937875,15.1828725 57.8435845,13.6342408 C60.7698894,12.4739743 64.0320619,12.9473076 66.5035403,14.7085655 C67.4877282,14.0007742 68.6030286,13.5005978 69.8481228,13.2210607 Z" id="Fill-1" fill="#0B82C5" fill-rule="nonzero"></path>
            <path d="M88.8288396,49.6112083 C88.9103183,50.3847877 88.7644763,51.1653399 88.4091681,51.857308 C87.4000831,53.822516 84.9889423,54.5976069 83.0237342,53.588522 L75.2974594,49.621274 C72.4354288,50.4037443 69.4476924,50.8012346 66.411241,50.8012346 C50.248402,50.8012346 36.9999999,39.5015123 36.9999999,25.4006173 C36.9999999,11.2997222 50.248402,0 66.411241,0 C82.57408,0 95.822482,11.2997222 95.822482,25.4006173 C95.822482,31.8131485 93.0569201,37.8916314 88.087119,42.5691223 L88.8288396,49.6112083 Z M81.8084979,40.2389316 L83.9749163,38.199936 C87.7688571,34.6291445 89.822482,30.1154419 89.822482,25.4006173 C89.822482,14.8439644 79.4533425,6 66.411241,6 C53.3691395,6 42.9999999,14.8439645 42.9999999,25.4006173 C42.9999999,35.9572701 53.3691396,44.8012346 66.411241,44.8012346 C68.915496,44.8012346 71.3710425,44.4745472 73.7151479,43.833676 L75.9640882,43.2188226 L82.4744587,46.5617343 L81.8084979,40.2389316 Z" id="Combined-Shape-Copy" fill="#0B82C5" fill-rule="nonzero" transform="translate(66.411241, 27.015520) scale(-1, 1) translate(-66.411241, -27.015520) "></path>
        </g>
    </g>
</svg>