<?xml version="1.0" encoding="UTF-8"?>
<svg width="82px" height="96px" viewBox="0 0 82 96" version="1.1" xmlns="http://www.w3.org/2000/svg" xmlns:xlink="http://www.w3.org/1999/xlink">
    <!-- Generator: Sketch 49.3 (51167) - http://www.bohemiancoding.com/sketch -->
    <title>automated allert</title>
    <desc>Created with Sketch.</desc>
    <defs>
        <polygon id="path-1" points="0 0 81.55 0 81.55 95.9999 0 95.9999"></polygon>
    </defs>
    <g id="Page-1" stroke="none" stroke-width="1" fill="none" fill-rule="evenodd">
        <g id="automated-allert" transform="translate(-7.000000, 0.000000)">
            <g transform="translate(7.000000, 0.000000)" id="Page-1">
                <g>
                    <mask id="mask-2" fill="white">
                        <use xlink:href="#path-1"></use>
                    </mask>
                    <g id="Clip-2"></g>
                    <path d="M73.55,77.0099 L8,77.0099 C7.45,77.0099 7,76.5699 7.01,75.8699 L12.41,38.0499 C14.37,24.2499 26.19,13.9999 40.13,13.9999 L41.45,13.9999 C55.4,13.9999 67.22,24.2599 69.18,38.0699 L74.54,75.8699 C74.61,76.4199 74.23,76.9299 73.55,77.0099 M40.78,88.9999 C37.61,88.9999 34.94,86.8999 34.08,84.0099 C34.07,84.0099 34.07,83.9999 34.07,83.9999 L47.49,83.9999 C47.49,83.9999 47.49,84.0099 47.48,84.0099 C46.62,86.8999 43.95,88.9999 40.78,88.9999 M81.47,74.8899 L76.11,37.0899 C73.86,21.2699 61.26,9.1799 45.75,7.2699 C45.76,7.1799 45.78,7.0899 45.78,6.9999 L45.78,4.9999 C45.78,2.2399 43.54,-0.0001 40.78,-0.0001 C38.02,-0.0001 35.78,2.2399 35.78,4.9999 L35.78,6.9999 C35.78,7.0899 35.8,7.1799 35.81,7.2699 C20.32,9.1899 7.73,21.2599 5.48,37.0599 L0.08,74.8799 C0.03,75.2599 0,75.6399 0,76.0099 C0,80.4299 3.58,84.0099 8,84.0099 L26.94,84.0099 C27.92,90.7899 33.73,95.9999 40.78,95.9999 C47.83,95.9999 53.64,90.7899 54.62,84.0099 L73.55,84.0099 C73.92,84.0099 74.3,83.9899 74.67,83.9399 C79.04,83.3099 82.09,79.2699 81.47,74.8899" id="Fill-1" fill="#0B82C5" mask="url(#mask-2)"></path>
                </g>
            </g>
        </g>
    </g>
</svg>