<?xml version="1.0" encoding="UTF-8"?>
<svg width="95px" height="96px" viewBox="0 0 95 96" version="1.1" xmlns="http://www.w3.org/2000/svg" xmlns:xlink="http://www.w3.org/1999/xlink">
    <!-- Generator: Sketch 49.3 (51167) - http://www.bohemiancoding.com/sketch -->
    <title>Autonomy to Solve the Problem for the Customer</title>
    <desc>Created with Sketch.</desc>
    <defs></defs>
    <g id="Page-1" stroke="none" stroke-width="1" fill="none" fill-rule="evenodd">
        <g id="Autonomy-to-Solve-the-Problem-for-the-Customer" fill="#0B82C5" fill-rule="nonzero">
            <path d="M69.5514267,34.0626577 L42.5467286,30.5620488 C42.3962546,30.5425429 42.2446794,30.5327595 42.092946,30.5327595 C40.143437,30.5327595 38.5630477,32.1131488 38.5630477,34.0626578 C38.5630477,34.2143911 38.5728311,34.3659664 38.592337,34.5164403 C38.8429543,36.4497734 40.6133957,37.813884 42.5467286,37.5632667 L69.5514267,34.0626577 Z M88.5212846,29.463145 C90.8329452,29.7628049 92.5630477,31.7316557 92.5630477,34.0626578 C92.5630477,36.3936599 90.8329451,38.3625107 88.5212843,38.6621706 L43.4466069,44.5051843 C37.6793588,45.2527906 32.3980258,41.1835668 31.6504194,35.4163186 C31.5922322,34.9674452 31.5630477,34.5152869 31.5630477,34.0626578 C31.5630477,28.2471555 36.2774438,23.5327595 42.092946,23.5327595 C42.5455752,23.5327595 42.9977334,23.5619439 43.4466068,23.6201312 L88.5212846,29.463145 Z" id="Rectangle" transform="translate(62.063048, 34.063242) rotate(-45.000000) translate(-62.063048, -34.063242) "></path>
            <path d="M86.2424737,81.4539154 C90.726661,81.4539154 94.423913,84.9850491 94.423913,89.420088 L94.423913,92 C94.423913,93.890975 92.890975,95.423913 91,95.423913 C89.109025,95.423913 87.576087,93.890975 87.576087,92 L87.576087,89.420088 C87.576087,88.839207 87.0133369,88.3017414 86.2424737,88.3017414 L81.6726842,88.3017414 C80.1347365,88.3017414 78.7854951,87.2762868 78.3737553,85.7944792 C77.6535136,83.202406 76.572738,80.7066213 75.1452553,78.3641497 C74.3076802,76.9897052 74.5405038,75.2174381 75.7046556,74.1059614 L78.9396819,71.0173123 C79.384011,70.593088 79.384011,69.9706589 78.9396818,69.5459106 L72.853496,63.7351091 C72.317448,63.2239462 71.3858665,63.2239462 70.8520024,63.7336543 L67.6192655,66.8201176 C66.5353962,67.8549443 64.9045218,68.0646988 63.5940709,67.3378168 C61.1356037,65.9741521 58.4871915,64.9313317 55.7254155,64.2336459 C54.2051985,63.8496055 53.1401133,62.4819959 53.1401133,60.9140206 L53.1401133,56.5422596 C53.1401133,55.961237 52.5771374,55.423913 51.8065,55.423913 L43.1957895,55.423913 C42.4238945,55.423913 41.8621762,55.9602149 41.8621762,56.5422596 L41.8621762,60.9052771 C41.8621762,62.4726874 40.7978429,63.8399558 39.2783439,64.2245308 C36.5310298,64.9198574 33.8905255,65.9623728 31.412365,67.3389719 C30.1020702,68.0668305 28.4706676,67.8578155 27.3861886,66.8231388 L24.1479977,63.7336543 C23.6143874,63.2241887 22.6839284,63.2241887 22.1503182,63.7336543 L16.0626075,69.5459106 C15.616497,69.9718357 15.616497,70.5919108 16.0634837,71.0181491 L19.2939311,74.1046123 C20.4561667,75.2150459 20.689458,76.9844754 19.8547471,78.3581974 C18.438166,80.68953 17.356556,83.1922993 16.6360224,85.7922456 C16.2250562,87.2751607 14.8752818,88.3017414 13.3364737,88.3017414 L8.75752632,88.3017414 C7.98792085,88.3017414 7.42391304,88.8402292 7.42391304,89.420088 L7.42391304,91.8185548 C7.42391304,93.7095298 5.89097496,95.2424678 4,95.2424678 C2.10902504,95.2424678 0.576086955,93.7095298 0.576086955,91.8185548 L0.576086955,89.420088 C0.576086955,84.985537 4.27507915,81.4539154 8.75752632,81.4539154 L10.8319889,81.4539154 C11.3474159,80.0116768 11.9549668,78.6004644 12.6514526,77.229123 L11.335338,75.971668 C8.06181876,72.8501166 8.06181876,67.7169543 11.3338134,64.5930096 L17.4215241,58.7807533 C20.60144,55.7447209 25.6968758,55.7447209 28.8759166,58.779918 L30.3524212,60.1886174 C31.8665776,59.4714614 33.4233011,58.8524223 35.0143502,58.3333956 L35.0143502,56.5422596 C35.0143502,52.1055227 38.7110528,48.576087 43.1957895,48.576087 L51.8065,48.576087 C56.2894969,48.576087 59.9879393,52.1060102 59.9879393,56.5422596 L59.9879393,58.3401213 C61.5822336,58.8584112 63.1396011,59.4753883 64.6493393,60.1879332 L66.1232083,58.7807533 C69.3028703,55.7449634 74.3971836,55.7449634 77.5807655,58.7807533 L83.6699997,64.5944653 C86.9376732,67.7181311 86.9376732,72.8489394 83.6684759,75.9702133 L82.349537,77.2294734 C83.0496067,78.6029842 83.6587676,80.0135328 84.175059,81.4539154 L86.2424737,81.4539154 Z" id="Stroke-1" transform="translate(47.500000, 72.000000) rotate(180.000000) translate(-47.500000, -72.000000) "></path>
            <path d="M60.3226588,71.1867216 C58.6684381,72.1028766 56.5847368,71.5045561 55.6685818,69.8503354 C54.7524267,68.1961147 55.3507472,66.1124134 57.0049679,65.1962584 C62.8810983,61.9418883 66.4627392,55.8536942 66.5734759,49.2654523 C66.6275526,46.0481711 65.843703,42.8673112 64.2437354,39.9848741 C59.2727659,31.0241763 47.9669029,27.7861627 38.99475,32.755199 C32.910984,36.1226082 29.2965161,42.5258916 29.4273052,49.3483915 C29.484688,52.3417073 30.2676176,55.2834694 31.7563103,57.9654378 C32.6740412,59.6187848 32.0777066,61.7030553 30.4243597,62.6207863 C28.7710127,63.5385172 26.6867423,62.9421826 25.7690113,61.2888357 C23.7342333,57.6230621 22.6594307,53.5846232 22.5807371,49.4796421 C22.4017617,40.1435525 27.3529369,31.3721984 35.677796,26.7643278 C47.9551103,19.9647979 63.4266584,24.3958691 70.2314436,36.6622137 C72.4181974,40.601781 73.4944794,44.9693303 73.4203349,49.3805358 C73.2688358,58.39392 68.3623684,66.7340991 60.3226588,71.1867216 Z" id="Stroke-3" transform="translate(47.999982, 47.595736) rotate(-152.000000) translate(-47.999982, -47.595736) "></path>
            <path d="M94.4965959,43.7982984 C94.5818286,45.729415 93.0854441,47.3639891 91.1543275,47.4492218 C89.2232109,47.5344545 87.5886368,46.03807 87.5034041,44.1069534 C87.2450788,38.2540803 85.5782629,32.5172986 82.5418063,27.2656994 C71.8404235,8.74674453 47.4155416,2.03116848 28.0382866,12.3336917 C15.7147148,18.8821014 8.08672239,30.96498 7.49650192,44.1564426 C7.41010105,46.0875073 5.77462207,47.5829028 3.84355738,47.4965019 C1.91249269,47.4101011 0.417097202,45.7746221 0.503498076,43.8435574 C1.20438575,28.178676 10.2416791,13.8634391 24.7528649,6.15259117 C47.4289384,-5.90385213 75.9982509,1.95122745 88.6022026,23.7626157 C92.2033898,29.990925 94.1887825,36.8241716 94.4965959,43.7982984 Z" id="Stroke-3-Copy"></path>
        </g>
    </g>
</svg>