<?xml version="1.0" encoding="UTF-8"?>
<svg width="96px" height="96px" viewBox="0 0 96 96" version="1.1" xmlns="http://www.w3.org/2000/svg" xmlns:xlink="http://www.w3.org/1999/xlink">
    <!-- Generator: Sketch 49.3 (51167) - http://www.bohemiancoding.com/sketch -->
    <title>automated i800 dialler</title>
    <desc>Created with Sketch.</desc>
    <defs></defs>
    <g id="automated-i800-dialler" stroke="none" stroke-width="1" fill="none" fill-rule="evenodd">
        <path d="M18.6800753,5.81880586 C17.0687222,4.20672088 14.5065023,4.05400941 12.7150724,5.46328466 C2.92532622,13.1646423 1.77742621,25.3068732 9.80005845,42.8824069 C12.7383389,49.3194272 18.0193833,57.6602222 24.7721589,65.2853065 C34.2806928,76.0221318 45.5868317,84.1767636 58.6355072,88.5826266 C73.1836781,93.4947916 83.5891702,91.7375127 90.5749788,83.5889155 C92.1113814,81.7967785 92.0018211,79.122045 90.3239954,77.4615668 L76.9985419,64.273891 C76.9811169,64.2567091 76.9811169,64.2567091 76.9635666,64.2396552 C75.1943559,62.5267658 72.371556,62.5724231 70.6586666,64.3416338 C70.5969662,64.4053629 70.5345215,64.4683672 70.4713454,64.5306337 C66.0027995,68.9348405 58.8100122,68.8826833 54.4058055,64.4141374 L31.7765849,41.4543365 C27.3855433,36.999148 27.3609038,29.8512491 31.7211266,25.3658942 L31.8325967,25.251225 C33.5473434,23.4872677 33.5277598,20.6732346 31.7886288,18.9333137 L18.6800753,5.81880586 Z" id="Path-9-Copy" stroke="#0B82C5" stroke-width="7"></path>
        <g id="Group" transform="translate(43.000000, 3.000000)" stroke="#0B82C5" stroke-width="7">
            <circle id="Oval-Copy-8" cx="14" cy="14" r="10.5"></circle>
            <circle id="Oval-Copy-9" cx="41" cy="17" r="7.5"></circle>
            <path d="M14.5,24.5 L40.5,24.5" id="Line-Copy-4"></path>
        </g>
    </g>
</svg>