<?xml version="1.0" encoding="UTF-8"?>
<svg width="96px" height="96px" viewBox="0 0 96 96" version="1.1" xmlns="http://www.w3.org/2000/svg" xmlns:xlink="http://www.w3.org/1999/xlink">
    <!-- Generator: Sketch 49.3 (51167) - http://www.bohemiancoding.com/sketch -->
    <title>best practice audit</title>
    <desc>Created with Sketch.</desc>
    <defs></defs>
    <g id="best-practice-audit" stroke="none" stroke-width="1" fill="none" fill-rule="evenodd">
        <g fill="#0B82C5" fill-rule="nonzero" id="Shape">
            <path d="M52.6,26 L38.5,43.2 C37.9,43.9 37,44.4 36.1,44.5 C36,44.5 35.9,44.5 35.8,44.5 C35,44.5 34.1,44.2 33.5,43.6 L23.7,35 C22.2,33.7 22.1,31.5 23.4,30.1 C24.7,28.7 26.9,28.5 28.3,29.8 L35.3,36 L47.1,21.6 C48.3,20.1 50.5,19.9 52,21.1 C53.6,22.3 53.8,24.5 52.6,26 Z"></path>
            <path d="M95,72.4 C95,72 95,71.6 94.9,71.2 C94.9,70.9 94.8,70.6 94.8,70.4 L94.8,70.3 C94.8,70.2 94.8,70 94.7,69.9 C94.7,69.7 94.6,69.4 94.6,69.1 C94.6,69.1 94.6,69 94.6,68.9 C94.5,68.6 94.5,68.3 94.4,67.9 C94.4,67.8 94.4,67.8 94.4,67.7 L94.4,67.6 C94.3,67.3 94.2,67 94.2,66.7 C94.1,66.4 94,66.1 93.9,65.8 L93.9,65.7 C93.8,65.4 93.7,65 93.5,64.7 C93.5,64.6 93.4,64.5 93.4,64.4 C93.3,64.2 93.2,63.9 93.1,63.7 C92.8,63 92.4,62.4 92.1,61.8 C92,61.6 91.8,61.3 91.7,61.1 C91.6,60.9 91.4,60.6 91.2,60.4 C91,60.2 90.9,60 90.7,59.8 C90.5,59.6 90.4,59.4 90.2,59.2 C90,58.9 89.7,58.6 89.5,58.4 C89.4,58.3 89.3,58.1 89.1,58 C89,57.9 88.9,57.7 88.7,57.6 C88.5,57.4 88.2,57.1 87.9,56.9 C86.8,55.9 85.7,55.1 84.4,54.3 C84.1,54.1 83.8,53.9 83.5,53.8 C83.2,53.6 82.8,53.4 82.5,53.3 C82.1,53.1 81.8,53 81.4,52.8 C81.1,52.7 80.8,52.6 80.6,52.5 L80.5,52.5 C80.2,52.4 79.9,52.3 79.6,52.2 C79.3,52.1 79,52 78.7,51.9 C78.2,51.8 77.7,51.7 77.2,51.6 C77,51.6 76.8,51.5 76.5,51.5 C76.3,51.5 76.2,51.5 76,51.4 C75.7,51.4 75.4,51.3 75.1,51.3 C74.7,51.3 74.3,51.2 73.9,51.2 C73.5,51.2 73.2,51.2 72.8,51.2 C72.4,51.2 72.1,51.2 71.7,51.2 L71.6,51.2 C71.5,51.2 71.4,51.2 71.4,51.2 C71.1,51.2 70.9,51.2 70.6,51.3 C70.6,51.3 70.6,51.3 70.5,51.3 C70.1,51.3 69.8,51.4 69.4,51.4 L69.3,51.4 C68.9,51.4 68.6,51.5 68.3,51.6 C67.9,51.7 67.6,51.8 67.2,51.8 C66.9,51.9 66.6,52 66.3,52 C66.2,52 66.1,52.1 66,52.1 C65.7,52.2 65.4,52.3 65.1,52.4 L65,52.4 C64.8,52.5 64.5,52.6 64.3,52.7 C64.2,52.7 64.2,52.7 64.1,52.8 C63.8,52.9 63.5,53 63.3,53.2 C63,53.3 62.7,53.5 62.5,53.6 C62.3,53.7 62.1,53.8 61.9,53.9 L61.2,52.7 C62.7,51 64.1,49.2 65.3,47.2 C65.7,46.5 66,45.9 66.4,45.2 C66.8,44.3 67.2,43.3 67.6,42.4 C67.9,41.4 68.3,40.4 68.5,39.4 C69.1,36.9 69.5,34.2 69.5,31.5 C69.5,28.8 69.2,26.2 68.5,23.6 C68.2,22.6 67.9,21.6 67.6,20.6 C67.4,20.2 67.3,19.7 67.1,19.3 C66.7,18.5 66.3,17.6 65.9,16.8 C65.4,15.9 64.9,15 64.4,14.2 C64.1,13.8 63.8,13.4 63.6,13 C62.7,11.8 61.7,10.6 60.7,9.6 C60,8.9 59.3,8.2 58.5,7.5 C58.1,7.1 57.6,6.8 57.2,6.4 C56.1,5.6 55,4.8 53.8,4.1 C53.4,3.9 52.9,3.6 52.5,3.4 C51.8,3 51.1,2.7 50.4,2.4 C49.9,2.2 49.4,2 49,1.8 C48.8,1.7 48.5,1.6 48.3,1.6 C44.4,0.6 41,0 37.5,0 C34,0 30.6,0.6 27.4,1.7 C27.2,1.8 26.9,1.9 26.7,1.9 C26.2,2.1 25.7,2.3 25.3,2.5 C24.6,2.8 23.9,3.1 23.2,3.5 C22.8,3.7 22.3,4 21.9,4.2 C21.2,4.6 20.4,5.1 19.7,5.6 C19.6,5.7 19.4,5.8 19.3,5.9 C18.7,6.3 18.1,6.8 17.5,7.2 C17.1,7.6 16.6,7.9 16.2,8.3 C16,8.5 15.7,8.8 15.5,9 C15,9.5 14.6,10 14.1,10.4 C13.9,10.6 13.7,10.9 13.4,11.2 C12.9,11.8 12.3,12.5 11.9,13.2 C11,14.5 10.2,15.8 9.4,17.2 C9.3,17.5 9.1,17.8 9,18.1 C8.9,18.3 8.8,18.5 8.7,18.8 C8.6,19 8.5,19.3 8.4,19.5 C8.2,19.9 8.1,20.3 7.9,20.7 C7.6,21.7 7.2,22.7 7,23.7 C6.4,26.2 6,28.9 6,31.6 C6,34.3 6.3,36.9 7,39.5 C7.3,40.5 7.6,41.5 7.9,42.5 C8.1,43 8.3,43.5 8.5,44 C9.9,47.4 11.9,50.4 14.4,53.1 L0.9,77.1 C0.2,78.3 0.3,79.7 1.1,80.8 C1.9,81.9 3.2,82.5 4.5,82.2 L16.9,80.2 L21.3,92.3 C21.8,93.6 23,94.5 24.3,94.6 C24.4,94.6 24.5,94.6 24.6,94.6 C25.9,94.6 27.1,93.9 27.7,92.8 L37.8,74.3 L47.7,92.5 C48.3,93.6 49.5,94.3 50.8,94.3 C50.9,94.3 51,94.3 51.1,94.3 C52.5,94.2 53.6,93.3 54.1,92 L55.5,88.2 C55.4,88.1 55.3,87.9 55.2,87.8 C55.3,87.9 55.4,88.1 55.5,88.2 C55.6,88.3 55.7,88.5 55.9,88.6 C56,88.7 56.1,88.9 56.3,89 C56.4,89.1 56.5,89.3 56.7,89.4 C56.9,89.6 57.2,89.9 57.5,90.1 C58.6,91.1 59.7,91.9 61,92.7 C61.3,92.9 61.6,93.1 61.9,93.2 C62.2,93.4 62.6,93.6 62.9,93.7 C63.3,93.9 63.6,94 64,94.2 C64.3,94.3 64.6,94.4 64.8,94.5 L64.9,94.5 C65.2,94.6 65.5,94.7 65.8,94.8 C66.1,94.9 66.4,95 66.7,95.1 C67.2,95.2 67.7,95.3 68.2,95.4 C68.4,95.4 68.6,95.5 68.9,95.5 C69.1,95.5 69.2,95.5 69.4,95.6 C69.9,95.7 70.4,95.7 71,95.8 C71.2,95.8 71.3,95.8 71.5,95.8 C71.9,95.8 72.2,95.8 72.6,95.8 C73,95.8 73.3,95.8 73.7,95.8 C73.9,95.8 74,95.8 74.2,95.8 C74.7,95.8 75.2,95.7 75.8,95.6 C76,95.6 76.1,95.6 76.3,95.5 C76.5,95.5 76.8,95.4 77,95.4 C77.5,95.3 78,95.2 78.5,95.1 C78.8,95 79.1,94.9 79.4,94.8 C79.7,94.7 80,94.6 80.3,94.5 L80.4,94.5 C80.7,94.4 81,94.3 81.2,94.2 C81.6,94.1 81.9,93.9 82.3,93.7 C82.7,93.5 83,93.4 83.3,93.2 C83.6,93 83.9,92.9 84.2,92.7 C85.4,91.9 86.6,91.1 87.7,90.1 C88,89.9 88.2,89.6 88.5,89.4 C88.6,89.3 88.8,89.1 88.9,89 C89,88.9 89.1,88.7 89.3,88.6 C89.5,88.3 89.8,88.1 90,87.8 C90.2,87.6 90.3,87.4 90.5,87.2 C90.7,87 90.8,86.8 91,86.6 C91.2,86.4 91.3,86.2 91.5,85.9 C91.7,85.7 91.8,85.5 91.9,85.2 C92.3,84.6 92.6,83.9 92.9,83.3 C93,83 93.2,82.7 93.3,82.4 C93.3,82.4 93.3,82.3 93.4,82.2 C93.5,81.9 93.7,81.5 93.8,81.2 L93.8,81.1 C93.9,80.8 94,80.5 94.1,80.2 C94.2,79.9 94.3,79.6 94.3,79.3 L94.3,79.2 C94.3,79.1 94.3,79.1 94.3,79 C94.4,78.7 94.5,78.4 94.5,78 C94.5,77.9 94.5,77.9 94.5,77.8 C94.5,77.6 94.6,77.3 94.6,77 C94.6,76.9 94.6,76.8 94.7,76.6 L94.7,76.5 C94.8,76 94.8,75.5 94.9,75 C94.9,74.8 94.9,74.7 94.9,74.5 C94.9,74.1 94.9,73.8 94.9,73.4 C94.9,73 95,72.8 95,72.4 Z M25.3,82.7 L22.6,75.2 C22.1,73.8 20.8,72.9 19.3,72.9 C19.1,72.9 18.9,72.9 18.7,72.9 L10.5,74.2 L19.7,57.6 C20.4,58.1 21,58.5 21.7,58.9 C22.1,59.1 22.6,59.4 23,59.6 C23.7,60 24.4,60.3 25.1,60.6 C25.6,60.8 26.1,61 26.5,61.2 C26.7,61.3 27,61.4 27.2,61.4 C29.9,62.3 32.8,62.9 35.8,63 L25.3,82.7 Z M55.8,58.4 C55.6,58.7 55.3,58.9 55.1,59.2 C54.9,59.4 54.8,59.6 54.6,59.8 C54.4,60 54.3,60.2 54.1,60.4 C53.9,60.6 53.8,60.8 53.6,61.1 C53.4,61.3 53.3,61.5 53.2,61.8 C52.8,62.4 52.5,63.1 52.2,63.7 C52.1,63.9 52,64.2 51.9,64.4 C51.9,64.5 51.8,64.6 51.8,64.7 C51.7,65 51.5,65.4 51.4,65.7 L51.4,65.8 C51.3,66.1 51.2,66.4 51.1,66.7 C51,67 50.9,67.3 50.9,67.6 L50.9,67.7 C50.9,67.8 50.9,67.8 50.9,67.9 C50.8,68.2 50.7,68.5 50.7,68.9 C50.7,69 50.7,69 50.7,69.1 C50.7,69.3 50.6,69.6 50.6,69.9 C50.6,70 50.6,70.1 50.5,70.3 L50.5,70.4 C50.5,70.7 50.4,71 50.4,71.2 C50.4,71.6 50.3,72 50.3,72.4 C50.3,72.8 50.3,73.1 50.3,73.5 C50.3,73.8 50.3,74.2 50.3,74.5 C50.3,74.6 50.3,74.7 50.3,74.8 C50.3,75.1 50.3,75.5 50.4,75.8 C50.4,76.2 50.5,76.5 50.5,76.9 C50.5,76.9 50.5,76.9 50.5,77 C50.6,77.3 50.6,77.7 50.7,78 L50.7,78.1 L50.7,78.2 C50.8,78.5 50.8,78.8 50.9,79.1 C51,79.4 51.1,79.7 51.1,80 C51.1,80 51.1,80 51.1,80.1 L50.3,82.4 L41.8,67 L44.4,62.2 C45.5,62 46.6,61.7 47.6,61.3 C47.8,61.2 48.1,61.1 48.3,61.1 C48.8,60.9 49.3,60.7 49.7,60.5 C50.4,60.2 51.1,59.9 51.8,59.5 C52.2,59.3 52.7,59 53.1,58.8 C53.8,58.4 54.6,57.9 55.3,57.4 L55.8,58.4 C55.9,58.4 55.9,58.4 55.8,58.4 Z M46.5,54.3 C43.7,55.4 40.7,56 37.5,56 C29.6,56 22.5,52.2 18,46.3 C14.9,42.2 13,37 13,31.5 C13,18 24,7 37.5,7 C51,7 62,18 62,31.5 C62,41.8 55.6,50.7 46.5,54.3 Z M72.5,89 C66.3,89 60.9,85.3 58.4,80 C57.5,78 57,75.8 57,73.5 C57,73.2 57,72.9 57,72.6 C57.2,69.8 58.1,67.1 59.6,64.9 C60.9,62.9 62.8,61.2 64.9,60 C67.1,58.7 69.7,58 72.5,58 C81,58 88,65 88,73.5 C88,82 81,89 72.5,89 Z"></path>
            <path d="M76,64.5 C76,65.5 75.6,66.3 75,67 C74.4,67.6 73.5,68 72.5,68 C71.5,68 70.7,67.6 70,67 C69.4,66.4 69,65.5 69,64.5 C69,63.5 69.4,62.7 70,62 C70.6,61.4 71.5,61 72.5,61 C74.4,61 76,62.6 76,64.5 Z"></path>
            <path d="M77,74 L77,83 C77,85.2 75.2,87 73,87 C70.8,87 69,85.2 69,83 L69,74 C69,72.5 69.8,71.3 71,70.6 C71.6,70.2 72.3,70 73,70 C75.2,70 77,71.8 77,74 Z"></path>
        </g>
    </g>
</svg>