<?xml version="1.0" encoding="UTF-8"?>
<svg width="96px" height="96px" viewBox="0 0 96 96" version="1.1" xmlns="http://www.w3.org/2000/svg" xmlns:xlink="http://www.w3.org/1999/xlink">
    <!-- Generator: Sketch 49.3 (51167) - http://www.bohemiancoding.com/sketch -->
    <title>Billing-Connections</title>
    <desc>Created with Sketch.</desc>
    <defs>
        <polygon id="path-1" points="0.822820947 0.638 40.518 0.638 40.518 88.2424 0.822820947 88.2424"></polygon>
        <polygon id="path-3" points="0.000216733849 0.982059619 40.57108 0.982059619 40.57108 89 0.000216733849 89"></polygon>
        <polygon id="path-5" points="0 96.3624 84.518 96.3624 84.518 1.0004 0 1.0004"></polygon>
    </defs>
    <g id="Billing-Connections" stroke="none" stroke-width="1" fill="none" fill-rule="evenodd">
        <g id="Page-1" transform="translate(5.000000, -1.000000)">
            <g id="Group-3" transform="translate(44.000000, 0.362400)">
                <mask id="mask-2" fill="white">
                    <use xlink:href="#path-1"></use>
                </mask>
                <g id="Clip-2"></g>
                <path d="M28.7428,77.1524 C23.8228,82.2524 17.6528,86.0424 10.9128,88.1124 C10.6228,88.2024 10.3228,88.2424 10.0328,88.2424 C9.2728,88.2424 8.5228,87.9524 7.9628,87.4124 C7.6028,87.0614 7.3328,86.6224 7.1828,86.1414 C6.7028,84.5724 7.5828,82.9024 9.1528,82.4224 C14.9428,80.6314 20.2328,77.3814 24.4528,73.0114 C30.8528,66.3914 34.4028,57.7524 34.5428,48.5614 C34.5528,48.1524 34.5628,47.7424 34.5528,47.3324 C34.5528,47.0724 34.5328,46.8224 34.5228,46.5614 C34.1628,37.2124 30.3028,28.5214 23.5628,22.0214 C19.5828,18.1724 14.7328,15.3014 9.4928,13.6224 L12.0828,18.9314 C12.8228,20.4524 12.1928,22.2924 10.6628,23.0324 C10.5428,23.0914 10.4228,23.1314 10.2928,23.1724 C8.8528,23.6524 7.2528,23.0214 6.5628,21.6224 L4.6728,17.7424 L1.1328,10.4814 C0.3928,8.9624 1.0228,7.1224 2.5428,6.3814 L13.6928,0.9524 C15.2128,0.2024 17.0428,0.8414 17.7928,2.3624 C18.5328,3.8814 17.9028,5.7214 16.3728,6.4624 L12.5128,8.3514 C18.1628,10.3414 23.3728,13.5424 27.7028,17.7314 C44.3728,33.8324 44.8428,60.4814 28.7428,77.1524" id="Fill-1" fill="#0B82C5" mask="url(#mask-2)"></path>
            </g>
            <g id="Group-6" transform="translate(0.000000, 7.362400)">
                <mask id="mask-4" fill="white">
                    <use xlink:href="#path-3"></use>
                </mask>
                <g id="Clip-5"></g>
                <path d="M40.5431,80.922 C40.4031,81.902 39.7931,82.792 38.8431,83.252 L37.7931,83.772 L27.7031,88.693 C26.1831,89.432 24.3431,88.792 23.6031,87.272 C22.8531,85.752 23.4831,83.912 25.0131,83.172 L28.4531,81.492 C22.5631,79.542 17.1431,76.272 12.6731,71.952 C4.6231,64.182 0.1231,53.682 0.0031,42.392 C-0.1269,31.102 4.1431,20.402 12.0131,12.252 C16.9831,7.102 23.2031,3.252 29.9931,1.122 C30.7631,0.882 31.5731,0.952 32.2831,1.322 C32.9831,1.702 33.4931,2.322 33.7231,3.082 C34.2031,4.652 33.3031,6.332 31.7231,6.832 C25.9031,8.662 20.5631,11.962 16.2931,16.382 C9.8531,23.052 6.2331,31.712 6.0031,40.892 L5.4931,41.422 L5.3031,41.612 L5.4831,41.782 L5.9831,42.262 C6.0831,51.952 9.9531,60.962 16.8531,67.622 C21.1031,71.732 26.3531,74.722 32.0431,76.302 L29.3031,70.702 C28.5631,69.172 29.1931,67.342 30.7131,66.602 C30.8231,66.542 30.9431,66.512 31.0531,66.472 C32.5031,65.972 34.1331,66.602 34.8231,68.012 L36.7531,71.982 L40.2531,79.152 C40.5331,79.722 40.6231,80.342 40.5431,80.922" id="Fill-4" fill="#0B82C5" mask="url(#mask-4)"></path>
            </g>
            <path d="M6.0031,48.2541 C5.9831,48.7141 5.9731,49.1641 5.9831,49.6241 L5.4831,49.1451 C5.4831,49.0251 5.4931,48.9041 5.4931,48.7841 L6.0031,48.2541 Z" id="Fill-7" fill="#0B82C5"></path>
            <path d="M5.4928,48.7844 C5.4928,48.9044 5.4828,49.0244 5.4828,49.1444 L5.3028,48.9744 L5.4928,48.7844 Z" id="Fill-9" fill="#0B82C5"></path>
            <mask id="mask-6" fill="white">
                <use xlink:href="#path-5"></use>
            </mask>
            <g id="Clip-12"></g>
            <path d="M27.053,67.2144 L56.053,67.2144 L56.053,31.2144 L27.053,31.2144 L27.053,67.2144 Z M58.053,25.2144 L25.053,25.2144 C22.843,25.2144 21.053,27.0044 21.053,29.2144 L21.053,69.2144 C21.053,71.4244 22.843,73.2144 25.053,73.2144 L58.053,73.2144 C60.263,73.2144 62.053,71.4244 62.053,69.2144 L62.053,29.2144 C62.053,27.0044 60.263,25.2144 58.053,25.2144 Z" id="Fill-11" fill="#0B82C5" mask="url(#mask-6)"></path>
            <path d="M45.5529,56.9348 L45.5529,52.9138 C46.4429,53.2448 46.8829,53.8548 47.0529,54.7938 C47.0129,55.9238 46.6129,56.5938 45.5529,56.9348 Z M40.0529,46.2848 C38.5829,45.9048 38.1829,45.1548 38.3229,44.0838 C38.3929,43.5148 39.0429,42.9348 40.0529,42.5748 L40.0529,46.2848 Z M53.0229,54.1948 C52.4629,50.0038 49.7529,47.4748 45.5529,46.7748 L45.5529,42.9048 C46.0529,43.2138 46.3629,43.6148 46.5229,44.1238 C47.0229,45.7048 48.7129,46.5838 50.2929,46.0748 C51.8729,45.5748 52.7429,43.8838 52.2429,42.3148 C51.2629,39.2448 48.9029,37.3548 45.5529,36.5938 L45.5529,35.4638 C45.5529,33.9448 44.3229,32.7138 42.8029,32.7138 C41.2829,32.7138 40.0529,33.9448 40.0529,35.4638 L40.0529,36.4048 C36.0429,37.0938 32.8329,39.5938 32.3629,43.3338 C31.7829,48.0038 34.6429,51.4238 40.0529,52.3248 L40.0529,56.9238 C38.7629,56.6048 38.1529,56.0248 37.9829,55.2348 C37.6329,53.6148 36.0329,52.5838 34.4129,52.9448 C32.7929,53.2938 31.7729,54.8948 32.1229,56.5148 C32.9429,60.2538 35.7929,62.3838 40.1029,63.0148 C40.3629,64.2748 41.4729,65.2248 42.8029,65.2248 C44.1329,65.2248 45.2429,64.2848 45.4929,63.0248 C50.2329,62.2938 53.0529,59.3738 53.0529,54.5938 L53.0529,54.3948 L53.0229,54.1948 Z" id="Fill-13" fill="#0B82C5" mask="url(#mask-6)"></path>
        </g>
    </g>
</svg>