<?xml version="1.0" encoding="UTF-8"?>
<svg width="96px" height="96px" viewBox="0 0 96 96" version="1.1" xmlns="http://www.w3.org/2000/svg" xmlns:xlink="http://www.w3.org/1999/xlink">
    <!-- Generator: Sketch 49.3 (51167) - http://www.bohemiancoding.com/sketch -->
    <title>Billing Monthly</title>
    <desc>Created with Sketch.</desc>
    <defs>
        <polygon id="path-1" points="0.0001 0 93.58 0 93.58 95.9996 0.0001 95.9996"></polygon>
    </defs>
    <g id="Billing-Monthly" stroke="none" stroke-width="1" fill="none" fill-rule="evenodd">
        <g id="Page-1">
            <path d="M72.5497,76.8004 C72.4697,77.7894 72.0707,78.4004 71.0797,78.7204 L71.0797,74.6994 C71.9697,75.0294 72.4097,75.6404 72.5797,76.5794 C72.5707,76.6594 72.5607,76.7204 72.5497,76.8004 Z M65.5797,68.0704 C64.2897,67.7394 63.8207,67.1194 63.8207,66.2494 C63.8207,66.1294 63.8297,65.9994 63.8497,65.8694 C63.9197,65.3004 64.5707,64.7204 65.5797,64.3604 L65.5797,68.0704 Z M76.7997,71.6504 C75.4897,70.0104 73.5397,68.9704 71.0797,68.5604 L71.0797,64.6904 C71.5797,64.9994 71.8897,65.4004 72.0497,65.9094 C72.5497,67.4894 74.2397,68.3694 75.8207,67.8604 C76.2797,67.7204 76.6697,67.4594 76.9997,67.1404 C77.7797,66.3694 78.1197,65.2094 77.7707,64.1004 C77.5707,63.4804 77.2997,62.9304 76.9997,62.4094 C75.7897,60.3294 73.7497,58.9804 71.0797,58.3794 L71.0797,57.2494 C71.0797,56.3604 70.6507,55.5704 69.9997,55.0704 C69.5297,54.7204 68.9597,54.4994 68.3297,54.4994 C66.8107,54.4994 65.5797,55.7304 65.5797,57.2494 L65.5797,58.1904 C62.1797,58.7794 59.3497,60.6694 58.2897,63.5294 C58.0997,64.0294 57.9697,64.5604 57.8897,65.1194 C57.7197,66.5294 57.8607,67.8294 58.2897,68.9804 C58.4807,69.4994 58.7307,69.9994 59.0497,70.4594 C60.3207,72.3204 62.5497,73.6104 65.5797,74.1104 L65.5797,78.7094 C64.5397,78.4594 63.9497,78.0294 63.6597,77.4594 C63.5997,77.3204 63.5397,77.1694 63.5097,77.0204 C63.1597,75.4004 61.5607,74.3694 59.9407,74.7304 C59.2597,74.8694 58.6997,75.2494 58.2897,75.7394 C57.8897,76.2204 57.6397,76.8204 57.5997,77.4594 C57.5797,77.7304 57.5897,78.0104 57.6507,78.3004 C57.7497,78.7704 57.9007,79.2204 58.0707,79.6404 C59.2097,82.5394 61.8497,84.2304 65.5797,84.7894 C65.5997,84.8004 65.6107,84.8004 65.6297,84.8004 C65.6507,84.9194 65.6907,85.0294 65.7307,85.1404 C66.0997,86.2304 67.1197,87.0104 68.3297,87.0104 C69.5397,87.0104 70.5707,86.2304 70.9297,85.1404 C70.9697,85.0294 70.9997,84.9194 71.0207,84.8104 C71.0397,84.8104 71.0497,84.8004 71.0707,84.8004 C73.4197,84.4404 75.2897,83.5204 76.5797,82.1104 C77.8797,80.6904 78.5797,78.7704 78.5797,76.3794 L78.5797,76.1804 L78.5497,75.9804 C78.3207,74.2494 77.7197,72.8104 76.7997,71.6504 Z" id="Fill-1" fill="#0B82C5"></path>
            <g id="Group-5">
                <mask id="mask-2" fill="white">
                    <use xlink:href="#path-1"></use>
                </mask>
                <g id="Clip-4"></g>
                <path d="M68.1201,88.9996 C61.1301,88.9996 55.0401,85.2096 51.9101,79.6406 C51.5201,78.9396 51.1901,78.2096 50.8901,77.4596 C50.5301,76.5506 50.2301,75.6096 50.0301,74.6296 C49.7901,73.4796 49.6601,72.3006 49.6601,71.0796 C49.6601,70.8696 49.6901,70.6696 49.7001,70.4596 C49.8301,66.7206 51.1401,63.2796 53.2901,60.4596 C53.9801,59.5606 54.7501,58.7206 55.5991,57.9596 C56.4301,57.2096 57.3301,56.5396 58.2901,55.9496 C61.1401,54.1996 64.5101,53.1696 68.1201,53.1696 C68.7501,53.1696 69.3801,53.1996 70.0001,53.2606 C72.5101,53.5106 74.8801,54.2496 77.0001,55.3796 C78.0601,55.9496 79.0501,56.6196 79.9801,57.3696 C84.0101,60.6596 86.5801,65.5796 86.5801,71.0796 C86.5801,80.9596 78.3001,88.9996 68.1201,88.9996 Z M30.2901,46.2496 L46.5801,46.2496 L46.5801,27.9596 L30.2901,27.9596 L30.2901,46.2496 Z M46.5801,57.8106 C46.5501,57.8596 46.5101,57.9096 46.4801,57.9596 C44.1701,61.6006 42.8001,65.8796 42.6801,70.4596 L30.2901,70.4596 L30.2901,52.9596 L46.5801,52.9596 L46.5801,57.8106 Z M7.0001,46.2496 L23.5801,46.2496 L23.5801,27.9596 L7.0001,27.9596 L7.0001,46.2496 Z M23.5801,70.4596 L7.5001,70.4596 C7.2201,70.4596 7.0001,70.2296 7.0001,69.9596 L7.0001,52.9596 L23.5801,52.9596 L23.5801,70.4596 Z M53.2901,46.2496 L70.0001,46.2496 L70.0001,27.9596 L53.2901,27.9596 L53.2901,46.2496 Z M7.0001,11.9596 C7.0001,11.6806 7.2201,11.4596 7.5001,11.4596 L69.5001,11.4596 C69.7701,11.4596 70.0001,11.6806 70.0001,11.9596 L70.0001,21.2496 L7.0001,21.2496 L7.0001,11.9596 Z M79.9801,49.0296 C79.0201,48.5396 78.0201,48.1006 77.0001,47.7296 L77.0001,11.9596 C77.0001,7.8196 73.6301,4.4596 69.5001,4.4596 L61.5801,4.4596 L61.5801,2.9996 C61.5801,1.3406 60.2401,-0.0004 58.5801,-0.0004 L57.5801,-0.0004 C55.9201,-0.0004 54.5801,1.3406 54.5801,2.9996 L54.5801,4.4596 L23.5801,4.4596 L23.5801,2.9996 C23.5801,1.3406 22.2401,-0.0004 20.5801,-0.0004 L19.5801,-0.0004 C17.9201,-0.0004 16.5801,1.3406 16.5801,2.9996 L16.5801,4.4596 L7.5001,4.4596 C3.3601,4.4596 0.0001,7.8196 0.0001,11.9596 L0.0001,69.9596 C0.0001,74.0906 3.3601,77.4596 7.5001,77.4596 L43.5101,77.4596 C43.7101,78.1996 43.9401,78.9306 44.2001,79.6406 C47.7701,89.1896 57.1301,95.9996 68.1201,95.9996 C82.1801,95.9996 93.5801,84.8406 93.5801,71.0796 C93.5801,61.5106 88.0601,53.2096 79.9801,49.0296 Z" id="Fill-3" fill="#0B82C5" mask="url(#mask-2)"></path>
            </g>
        </g>
    </g>
</svg>