<?xml version="1.0" encoding="UTF-8"?>
<svg width="96px" height="96px" viewBox="0 0 96 96" version="1.1" xmlns="http://www.w3.org/2000/svg" xmlns:xlink="http://www.w3.org/1999/xlink">
    <!-- Generator: Sketch 49.3 (51167) - http://www.bohemiancoding.com/sketch -->
    <title>Boost Online Sales</title>
    <desc>Created with Sketch.</desc>
    <defs></defs>
    <g id="Boost-Online-Sales" stroke="none" stroke-width="1" fill="none" fill-rule="evenodd">
        <g transform="translate(0.000000, 2.000000)" fill="#0B82C5">
            <circle id="Oval" fill-rule="nonzero" cx="51.5" cy="86.5" r="4.5"></circle>
            <circle id="Oval-Copy" fill-rule="nonzero" cx="71.5" cy="86.5" r="4.5"></circle>
            <path d="M78.4,55.9699 L42.33,55.9699 L33.95,25.8999 L87.13,25.8999 L78.4,55.9699 Z M94.579979,20.2999746 C93.9199792,19.4199757 92.8899795,18.8999764 91.7899797,18.8999764 L31.9999944,18.8999764 L27.4499955,2.5599968 C27.0299956,1.04999869 25.6499959,0 24.0799963,0 L12.4999991,0 C10.5699996,0 9,1.56999804 9,3.49999563 C9,5.42999322 10.5699996,6.99999126 12.4999991,6.99999126 L21.419997,6.99999126 L41.0599921,77.5099032 C41.479992,79.0199013 42.8599917,80.0699 44.4299913,80.0699 L77.2799833,80.0699 C79.2099828,80.0699 80.7799824,78.499902 80.7799824,76.5699044 C80.7799824,74.6299068 79.2099828,73.0699087 77.2799833,73.0699087 L47.0899907,73.0699087 L44.2799914,62.9699214 L81.0299824,62.9699214 C82.589982,62.9699214 83.9599816,61.9399226 84.3899815,60.4399245 L95.1499789,23.3699708 C95.4499788,22.3199721 95.2499789,21.1799735 94.579979,20.2999746 Z" id="Page-1"></path>
            <path d="M20.3115281,19.5 C22.2445247,19.5 23.8115281,21.0670034 23.8115281,23 C23.8115281,24.9329966 22.2445247,26.5 20.3115281,26.5 L4,26.5 C2.06700338,26.5 0.5,24.9329966 0.5,23 C0.5,21.0670034 2.06700338,19.5 4,19.5 L20.3115281,19.5 Z" id="Path-5-Copy" fill-rule="nonzero"></path>
            <path d="M28.3115281,56.5 C30.2445247,56.5 31.8115281,58.0670034 31.8115281,60 C31.8115281,61.9329966 30.2445247,63.5 28.3115281,63.5 L12,63.5 C10.0670034,63.5 8.5,61.9329966 8.5,60 C8.5,58.0670034 10.0670034,56.5 12,56.5 L28.3115281,56.5 Z" id="Path-5-Copy-2" fill-rule="nonzero"></path>
            <path d="M24.3115281,38 C26.2445247,38 27.8115281,39.5670034 27.8115281,41.5 C27.8115281,43.4329966 26.2445247,45 24.3115281,45 L8,45 C6.06700338,45 4.5,43.4329966 4.5,41.5 C4.5,39.5670034 6.06700338,38 8,38 L24.3115281,38 Z" id="Path-5-Copy-3" fill-rule="nonzero"></path>
        </g>
    </g>
</svg>