<?xml version="1.0" encoding="UTF-8"?>
<svg width="96px" height="96px" viewBox="0 0 96 96" version="1.1" xmlns="http://www.w3.org/2000/svg" xmlns:xlink="http://www.w3.org/1999/xlink">
    <!-- Generator: Sketch 49.3 (51167) - http://www.bohemiancoding.com/sketch -->
    <title>Configuration</title>
    <desc>Created with Sketch.</desc>
    <defs>
        <polygon id="path-1" points="0.000238554217 0.547 90.6446251 0.547 90.6446251 90.9996 0.000238554217 90.9996"></polygon>
    </defs>
    <g id="Configuration" stroke="none" stroke-width="1" fill="none" fill-rule="evenodd">
        <g id="Page-1" transform="translate(0.000000, 4.000000)">
            <path d="M77.0029,46.4732 L77.0029,46.7332 C77.0029,46.6432 76.9929,46.5532 76.9929,46.4622 L77.0029,46.4732 Z" id="Fill-1" fill="#FFFFFF"></path>
            <path d="M71.1728,47.9429 C71.1428,48.5129 70.9628,49.0429 70.6928,49.5029 C70.0628,50.6029 68.8528,51.3129 67.4928,51.2529 C66.5428,51.2029 65.7128,50.7829 65.1128,50.1429 C64.9328,49.9429 64.7828,49.7329 64.6428,49.5029 C64.3228,48.9329 64.1428,48.2729 64.1828,47.5729 C64.7228,37.3329 56.8228,28.5629 46.5828,28.0329 C41.6228,27.7729 36.8528,29.4529 33.1628,32.7829 C29.4628,36.1029 27.2928,40.6719 27.0328,45.6319 C26.4928,55.8729 34.3928,64.6429 44.6328,65.1829 C45.4628,65.2229 46.2028,65.5629 46.7728,66.0829 C47.5328,66.7629 48.0028,67.7629 47.9428,68.8629 C47.8428,70.7229 46.3028,72.1719 44.4528,72.1719 L44.2628,72.1719 C42.9328,72.1029 41.6228,71.9329 40.3528,71.6629 C28.2128,69.1319 19.3728,58.0329 20.0428,45.2629 C20.3928,38.4329 23.3928,32.1529 28.4728,27.5829 C33.5528,23.0029 40.1128,20.6829 46.9428,21.0429 C60.0128,21.7229 70.3028,32.1529 71.1428,44.9029 C71.2128,45.9029 71.2228,46.9129 71.1728,47.9429" id="Fill-3" fill="#0B82C5"></path>
            <path d="M46.7328,83.523 C46.2928,84.063 45.7028,84.453 45.0328,84.663 C45.3828,84.513 45.7228,84.313 46.0128,84.053 L46.6728,83.453 L46.7328,83.523 Z" id="Fill-5" fill="#0B82C5"></path>
            <path d="M39.413,77.6831 C39.363,77.7031 39.303,77.7121 39.253,77.7331 C39.153,77.7521 39.053,77.7831 38.953,77.8231 C39.103,77.7631 39.263,77.7231 39.413,77.6831" id="Fill-7" fill="#0B82C5"></path>
            <path d="M41.7226,77.7632 C41.3826,77.7232 41.0336,77.6832 40.6826,77.6322 C40.3826,77.5932 40.0826,77.5932 39.7926,77.6222 L39.7836,77.6222 C39.6926,77.6322 39.5926,77.6432 39.5026,77.6722 C39.4726,77.6722 39.4426,77.6722 39.4126,77.6832 C39.7726,77.5932 40.1526,77.5232 40.5426,77.5532 L41.6126,77.6322 L41.7226,77.7632 Z" id="Fill-9" fill="#0B82C5"></path>
            <path d="M40.683,77.6324 C40.383,77.5934 40.083,77.5934 39.793,77.6224 C40.083,77.5824 40.383,77.5824 40.683,77.6324" id="Fill-11" fill="#0B82C5"></path>
            <path d="M42.603,77.7124 L42.443,77.8534 C42.203,77.8324 41.963,77.7924 41.723,77.7634 L41.613,77.6324 L42.603,77.7124 Z" id="Fill-13" fill="#0B82C5"></path>
            <path d="M46.9726,83.1929 C46.8926,83.3129 46.8226,83.4219 46.7326,83.5229 L46.6726,83.4529 L46.9726,83.1929 Z" id="Fill-15" fill="#0B82C5"></path>
            <g id="Group-19" transform="translate(0.000000, 0.452800)">
                <mask id="mask-2" fill="white">
                    <use xlink:href="#path-1"></use>
                </mask>
                <g id="Clip-18"></g>
                <path d="M89.9931,38.6796 C89.1431,40.6906 87.5631,42.2406 85.5431,43.0496 L83.9331,43.7006 C83.9531,44.0206 83.9531,44.3396 83.9631,44.6596 C83.9831,45.2496 83.9931,45.8396 83.9931,46.4406 L84.0031,46.4506 L84.0031,49.0496 C84.0031,50.3396 83.2931,51.4596 82.2531,52.0606 C81.7331,52.3606 81.1431,52.5496 80.5031,52.5496 C78.5731,52.5496 77.0031,50.9806 77.0031,49.0496 L77.0031,46.0206 L76.9931,46.0096 C76.9931,44.5896 76.9031,43.1696 76.7131,41.7806 C76.5731,40.7496 76.9131,39.7596 77.5531,39.0306 C78.0731,38.4196 78.7931,37.9806 79.6531,37.8506 C79.7431,37.8396 79.8231,37.8106 79.9131,37.7806 L82.9231,36.5606 C83.3031,36.4096 83.4721,36.1106 83.5431,35.9506 C83.6131,35.7806 83.7131,35.4506 83.5531,35.0706 L80.3231,27.0796 C80.0931,26.4906 79.4131,26.2096 78.8331,26.4396 L75.8231,27.6596 C75.7331,27.7006 75.6431,27.7406 75.5631,27.8006 C74.0231,28.9596 71.8331,28.6506 70.6731,27.1106 C68.9131,24.7696 66.8431,22.7006 64.5131,20.9296 C63.7631,20.3606 63.2731,19.5106 63.1631,18.5796 C63.0431,17.6396 63.3131,16.7006 63.9031,15.9596 C63.9631,15.8796 64.0231,15.7896 64.0631,15.6896 L65.3231,12.7006 C65.4931,12.3206 65.4031,11.9906 65.3331,11.8206 C65.2731,11.6596 65.1031,11.3606 64.7221,11.2006 L56.7831,7.8296 C56.2031,7.5796 55.5331,7.8606 55.2831,8.4396 L54.0131,11.4196 C53.9631,11.5306 53.9431,11.6396 53.9231,11.7606 C53.8331,12.7006 53.3531,13.5706 52.6031,14.1596 C51.8531,14.7406 50.8931,14.9996 49.9531,14.8606 C49.0331,14.7296 48.0831,14.6396 47.1531,14.5906 C45.1831,14.4906 43.2031,14.5706 41.2731,14.8296 C40.3131,14.9596 39.3431,14.6896 38.5931,14.0796 C37.8531,13.4706 37.3831,12.5796 37.3131,11.6196 C37.3031,11.4996 37.2731,11.3896 37.2331,11.2806 L36.0131,8.2696 C35.8631,7.8896 35.5631,7.7096 35.4031,7.6396 C35.2331,7.5706 34.9031,7.4796 34.5231,7.6296 L26.5331,10.8606 C25.9431,11.0996 25.6631,11.7696 25.8931,12.3606 L27.1131,15.3696 C27.1631,15.4796 27.2221,15.5906 27.3031,15.6796 C27.9331,16.4196 28.2221,17.3796 28.1131,18.3496 C28.0031,19.3096 27.5031,20.1796 26.7221,20.7606 C24.3931,22.4906 22.3131,24.5396 20.5431,26.8406 C19.9431,27.5996 19.0631,28.0906 18.1031,28.1796 C17.1331,28.2696 16.1731,27.9596 15.4531,27.3206 C15.3631,27.2406 15.2531,27.1796 15.1431,27.1296 L12.1531,25.8606 C11.7731,25.7006 11.4431,25.7896 11.2731,25.8496 C11.1131,25.9196 10.8131,26.0906 10.6531,26.4706 L7.2831,34.4006 C7.1231,34.7806 7.2031,35.1196 7.2731,35.2806 C7.3431,35.4506 7.5131,35.7496 7.8931,35.9096 L10.8731,37.1796 C10.9931,37.2196 11.1031,37.2496 11.2221,37.2596 C12.1831,37.3506 13.0631,37.8296 13.6631,38.5896 C14.2531,39.3506 14.5131,40.3206 14.3631,41.2706 C14.2131,42.2996 14.1031,43.3606 14.0431,44.4006 C13.9531,46.2596 14.0131,48.1296 14.2431,49.9596 C14.3631,50.9006 14.0831,51.8606 13.4831,52.6006 C12.8831,53.3296 12.0131,53.7996 11.0631,53.8796 C10.9531,53.8906 10.8431,53.9096 10.7331,53.9596 L7.7221,55.1696 C7.3431,55.3296 7.1631,55.6196 7.0931,55.7896 C7.0231,55.9506 6.9331,56.2806 7.0831,56.6696 L10.3131,64.6596 C10.5531,65.2406 11.2221,65.5306 11.8131,65.2896 L14.8231,64.0796 C14.9231,64.0396 15.0131,63.9806 15.0931,63.9196 C15.7131,63.4406 16.4631,63.1906 17.2331,63.1906 C17.4031,63.1906 17.5631,63.2006 17.7221,63.2196 C18.6631,63.3606 19.5031,63.8606 20.0631,64.6196 C21.7831,66.9806 23.8231,69.0896 26.1231,70.8906 C27.6431,72.0706 27.9131,74.2706 26.7331,75.7896 C26.6731,75.8696 26.6231,75.9506 26.5831,76.0496 L25.3131,79.0306 C25.0631,79.6196 25.3431,80.2896 25.9231,80.5396 L33.8531,83.9096 C34.2431,84.0706 34.5731,83.9806 34.7331,83.9096 C34.9031,83.8506 35.2031,83.6796 35.3631,83.2996 L36.5631,80.4806 L36.6331,80.3106 L36.9831,79.4696 L37.1331,79.1006 C37.5031,78.3206 38.1531,77.7006 38.9531,77.3696 C39.0531,77.3296 39.1531,77.2996 39.2531,77.2806 C39.3331,77.2496 39.4131,77.2306 39.5031,77.2196 C39.5931,77.1906 39.6931,77.1796 39.7831,77.1696 L39.7931,77.1696 C40.0831,77.1406 40.3831,77.1406 40.6831,77.1796 C41.0331,77.2306 41.3831,77.2706 41.7221,77.3106 C41.9631,77.3396 42.2031,77.3796 42.4431,77.4006 L42.6031,77.2596 L44.2831,77.3796 C46.2131,77.5206 47.6631,79.2006 47.5231,81.1196 C47.4721,81.7196 47.2731,82.2706 46.9721,82.7406 L46.6731,82.9996 L46.0131,83.6006 C45.7221,83.8606 45.3831,84.0606 45.0331,84.2096 C44.5531,84.4096 44.0231,84.5206 43.4831,84.4996 C43.1531,84.4806 42.8231,84.4596 42.4831,84.4296 L42.0931,85.3506 L41.8031,86.0306 C40.9531,88.0396 39.3731,89.5896 37.3531,90.4006 C36.3731,90.7996 35.3331,90.9996 34.3031,90.9996 C33.2221,90.9996 32.1431,90.7806 31.1231,90.3506 L23.1831,86.9806 C19.0531,85.2306 17.1131,80.4296 18.8731,76.2996 L19.6131,74.5496 C18.4131,73.4596 17.2831,72.2896 16.2331,71.0606 L14.4331,71.7806 C10.2631,73.4596 5.5131,71.4506 3.8231,67.2806 L0.5931,59.2896 C-0.2169,57.2706 -0.1969,55.0606 0.6531,53.0496 C1.5031,51.0496 3.0831,49.4996 5.1031,48.6796 L7.0431,47.9006 C6.9831,46.6106 6.9931,45.3206 7.0531,44.0306 C7.0731,43.7496 7.0931,43.4696 7.1131,43.1796 L5.1531,42.3506 C3.1531,41.4996 1.6031,39.9196 0.7831,37.9006 C-0.0279,35.8906 -0.0169,33.6696 0.8431,31.6696 L4.2031,23.7296 C5.0531,21.7296 6.6331,20.1796 8.6531,19.3606 C10.6731,18.5506 12.8831,18.5706 14.8931,19.4196 L16.9031,20.2696 C17.9431,19.1196 19.0531,18.0306 20.2221,17.0106 L19.4031,14.9796 C17.7221,10.8096 19.7431,6.0596 23.9131,4.3696 L31.9031,1.1396 C33.9131,0.3296 36.1331,0.3496 38.1331,1.2006 C40.1431,2.0506 41.6931,3.6296 42.5031,5.6506 L43.3031,7.6106 C44.7031,7.5306 46.1131,7.5306 47.5131,7.5996 C47.6831,7.6106 47.8531,7.6196 48.0131,7.6296 L48.8331,5.7006 C50.5931,1.5706 55.3831,-0.3704 59.5231,1.3896 L67.4531,4.7496 C69.4631,5.5996 71.0131,7.1796 71.8231,9.2006 C72.6431,11.2206 72.6231,13.4296 71.7731,15.4396 L71.0131,17.2206 C72.2331,18.2896 73.3731,19.4396 74.4431,20.6596 L76.2131,19.9506 C80.3731,18.2696 85.1331,20.2896 86.8131,24.4506 L90.0431,32.4506 C90.8631,34.4596 90.8431,36.6796 89.9931,38.6796" id="Fill-17" fill="#0B82C5" mask="url(#mask-2)"></path>
            </g>
            <path d="M84.0029,45.5025 L84.0029,46.9025 L83.9929,46.8935 C83.9929,46.2925 83.9829,45.7025 83.9629,45.1125 C83.9829,45.2425 84.0029,45.3725 84.0029,45.5025" id="Fill-20" fill="#0B82C5"></path>
            <path d="M96.2226,78.5025 C96.2226,79.7825 95.5336,80.8935 94.5026,81.5025 C93.9826,81.8135 93.3726,82.0025 92.7226,82.0025 L88.5626,82.0025 C87.3526,84.0935 85.0926,85.5025 82.5026,85.5025 C79.9126,85.5025 77.6526,84.0935 76.4426,82.0025 L54.5026,82.0025 C52.8926,82.0025 51.5526,80.9125 51.1426,79.4335 C51.0626,79.1325 51.0026,78.8225 51.0026,78.5025 C51.0026,76.5725 52.5726,75.0025 54.5026,75.0025 L76.4426,75.0025 C76.7626,74.4525 77.1526,73.9425 77.6126,73.5025 C78.4126,72.7125 79.4026,72.1225 80.5026,71.7925 C81.1326,71.6035 81.8026,71.5025 82.5026,71.5025 C85.0926,71.5025 87.3426,72.9125 88.5626,75.0025 L92.7226,75.0025 C93.3726,75.0025 93.9826,75.1925 94.5026,75.5025 C95.5336,76.1125 96.2226,77.2235 96.2226,78.5025" id="Fill-22" fill="#0B82C5"></path>
            <polygon id="Fill-24" fill="#0B82C5" points="80.5029 53.0025 80.5029 52.9995 80.4999 53.0025"></polygon>
            <path d="M96.2226,61.5025 C96.2226,63.4335 94.6526,65.0025 92.7226,65.0025 L74.5626,65.0025 C74.2436,65.5535 73.8526,66.0635 73.3926,66.5025 C72.5926,67.2825 71.6026,67.8825 70.5026,68.2125 C69.8726,68.3935 69.2026,68.5025 68.5026,68.5025 C67.0626,68.5025 65.7126,68.0635 64.6026,67.3135 C63.7226,66.7235 62.9826,65.9225 62.4426,65.0025 L54.5026,65.0025 C52.8526,65.0025 51.4726,63.8535 51.1026,62.3135 C51.0426,62.0535 51.0026,61.7825 51.0026,61.5025 C51.0026,59.5725 52.5726,58.0025 54.5026,58.0025 L62.4426,58.0025 C63.5226,56.1435 65.4226,54.8325 67.6526,54.5635 C67.8826,54.5325 68.1226,54.5135 68.3626,54.5135 C68.4126,54.5135 68.4526,54.5025 68.5026,54.5025 C71.0926,54.5025 73.3426,55.9125 74.5626,58.0025 C74.6026,58.0825 74.6526,58.1525 74.6926,58.2325 L74.9426,58.0025 L92.7226,58.0025 C94.6526,58.0025 96.2226,59.5725 96.2226,61.5025" id="Fill-26" fill="#0B82C5"></path>
            <path d="M74.9428,58.0025 L74.6928,58.2325 C74.6528,58.1525 74.6028,58.0825 74.5628,58.0025 L74.9428,58.0025 Z" id="Fill-28" fill="#0B82C5"></path>
        </g>
    </g>
</svg>