<?xml version="1.0" encoding="UTF-8"?>
<svg width="96px" height="96px" viewBox="0 0 96 96" version="1.1" xmlns="http://www.w3.org/2000/svg" xmlns:xlink="http://www.w3.org/1999/xlink">
    <!-- Generator: Sketch 49.3 (51167) - http://www.bohemiancoding.com/sketch -->
    <title>connection treatment</title>
    <desc>Created with Sketch.</desc>
    <defs></defs>
    <g id="connection-treatment" stroke="none" stroke-width="1" fill="none" fill-rule="evenodd">
        <g transform="translate(-18.000000, 7.000000)" fill="#0B82C5" fill-rule="nonzero">
            <path d="M118.895378,29.4295077 C120.750116,28.2541983 122.952814,27.8773218 125.088848,28.3699608 C127.245721,28.867974 129.075214,30.187922 130.237651,32.0844193 C132.584832,35.9140838 131.44114,40.9721291 127.69513,43.3878172 L100.319107,62.542018 C99.8614599,62.8621814 99.3237861,63.0503264 98.7642355,63.0865616 C98.5619425,63.0994287 98.3659556,63.1027459 98.1513776,63.0992033 L80.8540786,63.350584 C80.4344034,63.4017472 79.6290542,63.5817137 78.6642739,63.8888465 C77.1831823,64.3603445 75.5758596,65.0478133 73.892183,65.9869809 C73.1885275,66.3794853 72.7540841,66.5994848 71.9192287,66.9932291 C68.4629455,67.0350827 67.5219288,62.7596602 70.3274806,61.0707241 L70.7909738,60.7916306 C73.0925506,59.4288462 75.3597192,58.49084 77.5046613,57.9028513 C78.8560798,57.5323896 79.9368603,57.3576831 80.6073764,57.3151221 L97.5879202,57.0654974 C116.633312,43.7412505 124.325895,38.3602073 124.357764,38.3402636 C125.387032,37.6884853 125.699224,36.2904406 125.047155,35.2272111 C124.619442,34.5293526 123.88079,34.1459535 123.056473,34.2066741 C122.753514,34.2290181 122.440975,34.3465295 122.117975,34.5516292 C120.910611,35.3160484 117.747846,37.2706832 112.601,40.4386582 C111.070294,41.3808246 106.38408,44.2634289 106.116776,44.4279083 C104.0098,45.724389 102.930584,46.3900319 102.616148,46.5878553 L82.9678454,46.6551306 C81.0711179,46.6551306 80.1134714,44.2000429 81.0318481,42.36099 C81.5371403,41.3490582 82.6331866,40.7292906 83.8164257,40.7292906 L92.5266342,40.7292906 C93.720797,40.7292906 94.6997149,39.7110491 94.6997149,38.4513713 C94.6997149,37.1925104 93.7208797,36.1749278 92.5266342,36.1749278 C81.2756602,36.1749278 74.9901222,36.1989585 73.79804,36.2453252 L65.3304983,44.9712169 C63.1484286,47.2197862 59.5807463,46.1684147 59.5807463,43.0935393 C59.5807463,42.4914639 59.7362501,42.0100266 60.0654411,41.6708095 C60.2648753,41.465301 60.3262726,41.4021884 60.3936546,41.33323 C63.3862898,38.2573263 63.3862898,38.2573263 69.5050108,31.9682221 C69.589166,31.8762263 69.6786382,31.7852218 69.778569,31.6893949 C70.8351553,30.6865906 72.2157955,30.1339856 73.6646708,30.1339856 L92.5266342,30.1339856 C97.0769552,30.1339856 100.77727,33.8659095 100.77727,38.4513713 C100.77727,39.3985755 100.619207,40.3236175 100.316089,41.1960104 L118.895378,29.4295077 Z" id="Fill-1-path" transform="translate(95.519087, 47.576258) rotate(-55.000000) translate(-95.519087, -47.576258) "></path>
            <path d="M59.8953784,29.4295077 C61.7501161,28.2541983 63.9528143,27.8773218 66.0888478,28.3699608 C68.245721,28.867974 70.0752136,30.187922 71.2376508,32.0844193 C73.5848319,35.9140838 72.4411398,40.9721291 68.6951302,43.3878172 L41.3191069,62.542018 C40.8614599,62.8621814 40.3237861,63.0503264 39.7642355,63.0865616 C39.5619425,63.0994287 39.3659556,63.1027459 39.1513776,63.0992033 L21.8540786,63.350584 C21.4344034,63.4017472 20.6290542,63.5817137 19.6642739,63.8888465 C18.1831823,64.3603445 16.5758596,65.0478133 14.892183,65.9869809 C14.1885275,66.3794853 13.7540841,66.5994848 12.9192287,66.9932291 C9.4629455,67.0350827 8.52192883,62.7596602 11.3274806,61.0707241 L11.7909738,60.7916306 C14.0925506,59.4288462 16.3597192,58.49084 18.5046613,57.9028513 C19.8560798,57.5323896 20.9368603,57.3576831 21.6073764,57.3151221 L38.5879202,57.0654974 C57.6333123,43.7412505 65.3258945,38.3602073 65.3577643,38.3402636 C66.3870321,37.6884853 66.6992244,36.2904406 66.047155,35.2272111 C65.6194416,34.5293526 64.8807904,34.1459535 64.0564732,34.2066741 C63.753514,34.2290181 63.4409749,34.3465295 63.1179745,34.5516292 C61.9106114,35.3160484 58.7478457,37.2706832 53.6009998,40.4386582 C52.070294,41.3808246 47.3840798,44.2634289 47.1167759,44.4279083 C45.0097999,45.724389 43.9305841,46.3900319 43.6161477,46.5878553 L23.9678454,46.6551306 C22.0711179,46.6551306 21.1134714,44.2000429 22.0318481,42.36099 C22.5371403,41.3490582 23.6331866,40.7292906 24.8164257,40.7292906 L33.5266342,40.7292906 C34.720797,40.7292906 35.6997149,39.7110491 35.6997149,38.4513713 C35.6997149,37.1925104 34.7208797,36.1749278 33.5266342,36.1749278 C22.2756602,36.1749278 15.9901222,36.1989585 14.79804,36.2453252 L6.3304983,44.9712169 C4.14842862,47.2197862 0.580746271,46.1684147 0.580746271,43.0935393 C0.580746271,42.4914639 0.736250053,42.0100266 1.06544106,41.6708095 C1.26487534,41.465301 1.32627258,41.4021884 1.39365458,41.33323 C4.38628981,38.2573263 4.38628981,38.2573263 10.5050108,31.9682221 C10.589166,31.8762263 10.6786382,31.7852218 10.778569,31.6893949 C11.8351553,30.6865906 13.2157955,30.1339856 14.6646708,30.1339856 L33.5266342,30.1339856 C38.0769552,30.1339856 41.7772702,33.8659095 41.7772702,38.4513713 C41.7772702,39.3985755 41.6192068,40.3236175 41.3160894,41.1960104 L59.8953784,29.4295077 Z" id="Fill-1-path-Copy" transform="translate(36.519087, 47.576258) scale(-1, 1) rotate(-55.000000) translate(-36.519087, -47.576258) "></path>
            <path d="M64.4073586,21.0211401 L80.3803258,1.76542547 C81.6144472,0.277668692 83.8209654,0.0720566194 85.3087222,1.30617805 C86.796479,2.54029949 87.0020911,4.74681775 85.7679696,6.23457453 L68.1689776,27.450493 C66.493113,29.3973271 63.6517436,29.608993 61.7686887,27.9870412 L49.7899672,17.6692811 C48.3253689,16.407763 48.1607399,14.1978091 49.4222579,12.7332108 C50.683776,11.2686125 52.8937299,11.1039835 54.3583282,12.3655015 L64.4073586,21.0211401 Z" id="Path-2"></path>
        </g>
    </g>
</svg>