<?xml version="1.0" encoding="UTF-8"?>
<svg width="96px" height="96px" viewBox="0 0 96 96" version="1.1" xmlns="http://www.w3.org/2000/svg" xmlns:xlink="http://www.w3.org/1999/xlink">
    <!-- Generator: Sketch 49.3 (51167) - http://www.bohemiancoding.com/sketch -->
    <title>connection cotent</title>
    <desc>Created with Sketch.</desc>
    <defs></defs>
    <g id="connection-cotent" stroke="none" stroke-width="1" fill="none" fill-rule="evenodd">
        <g transform="translate(12.000000, 2.000000)" fill="#0B82C5">
            <circle id="Oval" fill-rule="nonzero" cx="51" cy="72" r="4"></circle>
            <circle id="Oval-Copy" fill-rule="nonzero" cx="28" cy="72" r="4"></circle>
            <g id="Page-1">
                <path d="M64,79 C64,82.58 61.08,85.5 57.5,85.5 L13.5,85.5 C9.92,85.5 7,82.58 7,79 L7,23 C7,19.42 9.92,16.5 13.5,16.5 L57.5,16.5 C61.08,16.5 64,19.42 64,23 L64,79 Z M57.5,9.5 L49.47,9.5 C49.22,6.42 46.64,4 43.5,4 L42.5,4 C42.5,1.79 40.71,0 38.5,0 L32.5,0 C30.29,0 28.5,1.79 28.5,4 L27.5,4 C24.36,4 21.78,6.42 21.53,9.5 L13.5,9.5 C6.06,9.5 0,15.56 0,23 L0,79 C0,86.44 6.06,92.5 13.5,92.5 L57.5,92.5 C64.94,92.5 71,86.44 71,79 L71,23 C71,15.56 64.94,9.5 57.5,9.5 Z" id="Fill-1"></path>
                <path d="M50.5,25.4996 C48.567,25.4996 47,27.0666 47,28.9996 L47,60.9996 C47,62.9326 48.567,64.4996 50.5,64.4996 C52.433,64.4996 54,62.9326 54,60.9996 L54,28.9996 C54,27.0666 52.433,25.4996 50.5,25.4996" id="Fill-3"></path>
                <path d="M28,25.4996 C19.178,25.4996 12,32.7526 12,41.6686 C12,43.6016 13.567,45.1686 15.5,45.1686 C17.433,45.1686 19,43.6016 19,41.6686 C19,36.6126 23.037,32.4996 28,32.4996 C32.963,32.4996 37,36.6126 37,41.6686 C37,44.5356 35.414,45.8756 32.375,48.1866 C29.153,50.6386 24.74,53.9946 24.502,60.8786 C24.436,62.8106 25.947,64.4306 27.879,64.4976 C27.92,64.4986 27.961,64.4996 28.002,64.4996 C29.879,64.4996 31.433,63.0116 31.498,61.1206 C31.615,57.7216 33.425,56.1846 36.613,53.7596 C39.904,51.2556 44,48.1406 44,41.6686 C44,32.7526 36.822,25.4996 28,25.4996" id="Fill-5"></path>
            </g>
        </g>
    </g>
</svg>