<?xml version="1.0" encoding="UTF-8"?>
<svg width="96px" height="96px" viewBox="0 0 96 96" version="1.1" xmlns="http://www.w3.org/2000/svg" xmlns:xlink="http://www.w3.org/1999/xlink">
    <!-- Generator: Sketch 49.3 (51167) - http://www.bohemiancoding.com/sketch -->
    <title>connection tracking</title>
    <desc>Created with Sketch.</desc>
    <defs>
        <polygon id="path-1" points="0 0.568 95.0587663 0.568 95.0587663 74.7132 0 74.7132"></polygon>
    </defs>
    <g id="connection-tracking" stroke="none" stroke-width="1" fill="none" fill-rule="evenodd">
        <g transform="translate(0.000000, 1.000000)" id="Page-1">
            <g>
                <g id="Group-3" transform="translate(0.000000, 0.432200)">
                    <mask id="mask-2" fill="white">
                        <use xlink:href="#path-1"></use>
                    </mask>
                    <g id="Clip-2"></g>
                    <path d="M76.1499,10.1582 C55.2879,-5.5618 25.6429,-1.5328 10.0659,19.1382 C-2.5321,35.8562 -3.3521,55.8322 7.8719,72.5742 C8.9479,74.1782 11.1209,74.6082 12.7279,73.5322 C14.3339,72.4562 14.7619,70.2812 13.6859,68.6762 C4.0559,54.3122 4.7739,37.7922 15.6559,23.3512 C28.9099,5.7622 54.1579,2.3522 71.9369,15.7482 C88.6539,28.3452 93.0529,51.8832 81.9519,69.3342 C80.9149,70.9652 81.3949,73.1292 83.0259,74.1662 C83.6089,74.5362 84.2589,74.7132 84.9019,74.7132 C86.0579,74.7132 87.1909,74.1392 87.8579,73.0922 C100.9059,52.5812 95.7619,24.9372 76.1499,10.1582" id="Fill-1" fill="#0B82C5" mask="url(#mask-2)"></path>
                </g>
                <path d="M50.6548,31.2271 C49.2878,29.8601 47.0728,29.8601 45.7058,31.2271 L32.9778,43.9551 C31.6108,45.3211 31.6108,47.5381 32.9778,48.9041 C34.3448,50.2711 36.5598,50.2711 37.9268,48.9041 L44.6798,42.1511 L44.6798,90.9321 C44.6798,92.8651 46.2478,94.4321 48.1798,94.4321 C50.1128,94.4321 51.6798,92.8651 51.6798,90.9321 L51.6798,42.1511 L58.4328,48.9041 C59.1168,49.5871 60.0118,49.9291 60.9078,49.9291 C61.8028,49.9291 62.6988,49.5871 63.3828,48.9041 C64.7498,47.5381 64.7498,45.3211 63.3828,43.9551 L50.6548,31.2271 Z" id="Fill-4" fill="#0B82C5"></path>
            </g>
        </g>
    </g>
</svg>