<?xml version="1.0" encoding="UTF-8"?>
<svg width="96px" height="96px" viewBox="0 0 96 96" version="1.1" xmlns="http://www.w3.org/2000/svg" xmlns:xlink="http://www.w3.org/1999/xlink">
    <!-- Generator: Sketch 49.3 (51167) - http://www.bohemiancoding.com/sketch -->
    <title>connection latency</title>
    <desc>Created with Sketch.</desc>
    <defs></defs>
    <g id="connection-latency" stroke="none" stroke-width="1" fill="none" fill-rule="evenodd">
        <g transform="translate(6.000000, 0.000000)" fill="#0B82C5" id="Page-1">
            <g>
                <path d="M41,48.5 L41,60.5 C41,62.43 39.43,64 37.5,64 L25.5,64 C23.57,64 22,62.43 22,60.5 C22,58.57 23.57,57 25.5,57 L34,57 L34,48.5 C34,46.57 35.57,45 37.5,45 C39.43,45 41,46.57 41,48.5" id="Fill-1"></path>
                <path d="M76.92,26.62 C76.9,26.83 76.87,27.03 76.85,27.23 C76.81,27.55 76.76,27.86 76.7,28.17 C76.66,28.43 76.61,28.68 76.55,28.93 C76.5,29.15 76.44,29.37 76.39,29.59 C76.2,30.29 75.98,30.98 75.71,31.65 L75.71,31.66 C75.56,32.02 75.4,32.37 75.24,32.72 C75.19,32.81 75.15,32.91 75.1,33 C74.93,33.34 74.75,33.68 74.56,34.01 C74.52,34.08 74.47,34.16 74.42,34.24 C73.85,35.19 73.19,36.09 72.45,36.92 C72.29,37.1 72.12,37.29 71.95,37.47 C71.79,37.64 71.62,37.81 71.45,37.97 C71.21,38.2 70.96,38.43 70.7,38.65 C70.58,38.76 70.45,38.87 70.32,38.97 C69.49,39.65 68.59,40.26 67.64,40.79 C67.57,40.82 67.5,40.85 67.44,40.89 C67.02,41.11 66.59,41.32 66.15,41.51 C66.05,41.55 65.96,41.59 65.86,41.63 C63.74,42.51 61.43,43 59,43 C58.4,43 57.81,42.97 57.22,42.91 C57.08,42.9 56.93,42.88 56.79,42.86 C56.61,42.84 56.43,42.82 56.26,42.79 C55.96,42.75 55.67,42.69 55.38,42.63 C55.09,42.57 54.8,42.51 54.51,42.43 C54,42.3 53.49,42.15 53,41.97 C52.81,41.9 52.63,41.84 52.45,41.76 C52.27,41.69 52.1,41.62 51.92,41.54 C51.68,41.45 51.44,41.34 51.21,41.22 C50.41,40.84 49.64,40.39 48.91,39.89 C48.7,39.76 48.5,39.61 48.3,39.46 C48.24,39.42 48.19,39.38 48.14,39.34 C47.94,39.19 47.75,39.04 47.56,38.88 C47.37,38.73 47.19,38.57 47.01,38.41 C45.67,37.21 44.5,35.81 43.57,34.25 C43.45,34.06 43.34,33.87 43.24,33.67 C43.07,33.38 42.92,33.09 42.78,32.79 C42.65,32.53 42.53,32.27 42.42,32 C42.35,31.85 42.29,31.7 42.24,31.54 C42.16,31.37 42.1,31.2 42.04,31.02 C41.46,29.42 41.11,27.7 41.02,25.92 L41,25 C41,15.07 49.08,7 59,7 C68.92,7 77,15.07 77,25 C77,25.55 76.97,26.09 76.92,26.62 M36.5,88 C20.23,88 7,74.77 7,58.5 C7,42.96 19.08,30.2 34.34,29.09 C36.3,40.93 46.61,50 59,50 C60.91,50 62.77,49.78 64.56,49.37 C65.52,52.3 66,55.36 66,58.5 C66,74.77 52.77,88 36.5,88 M59,0 C58.25,0 57.5,0.04 56.77,0.1 C56.7,0.11 56.63,0.11 56.57,0.12 C55.87,0.19 55.18,0.29 54.5,0.41 C54.4,0.43 54.3,0.45 54.21,0.47 C53.55,0.59 52.9,0.75 52.25,0.93 C52.15,0.96 52.04,0.99 51.94,1.02 C51.3,1.21 50.68,1.42 50.07,1.65 C49.97,1.69 49.86,1.74 49.76,1.78 C49.15,2.02 48.55,2.29 47.96,2.58 C47.88,2.62 47.79,2.66 47.71,2.71 C47.11,3.01 46.52,3.33 45.96,3.68 C45.9,3.72 45.85,3.75 45.79,3.79 C45.2,4.16 44.63,4.54 44.08,4.96 C44.07,4.96 44.06,4.97 44.05,4.97 C43.49,5.39 42.96,5.83 42.44,6.29 C42.39,6.34 42.34,6.38 42.28,6.43 C41.79,6.87 41.33,7.33 40.87,7.81 C40.8,7.88 40.73,7.96 40.66,8.03 C40.23,8.5 39.81,8.99 39.41,9.5 C39.34,9.58 39.27,9.67 39.2,9.76 C38.81,10.27 38.44,10.79 38.09,11.33 C38.02,11.42 37.96,11.52 37.9,11.61 C37.56,12.16 37.23,12.72 36.92,13.29 C36.87,13.38 36.83,13.47 36.78,13.56 C36.48,14.15 36.19,14.75 35.93,15.37 C35.9,15.43 35.88,15.5 35.86,15.56 C35.59,16.2 35.35,16.86 35.14,17.52 C35.14,17.54 35.13,17.56 35.13,17.57 C34.92,18.25 34.74,18.93 34.59,19.63 C34.57,19.7 34.55,19.78 34.54,19.85 C34.4,20.52 34.29,21.2 34.2,21.88 C34.19,21.95 34.18,22.01 34.17,22.07 C15.12,23.28 0,39.16 0,58.5 C0,78.63 16.37,95 36.5,95 C56.63,95 73,78.63 73,58.5 C73,54.5 72.37,50.6 71.11,46.87 C71.26,46.79 71.4,46.7 71.55,46.61 C71.77,46.48 72,46.34 72.22,46.2 C72.41,46.09 72.59,45.97 72.77,45.85 C73.1,45.63 73.43,45.4 73.74,45.17 C73.81,45.13 73.87,45.08 73.94,45.03 C74.35,44.73 74.75,44.4 75.14,44.07 C75.19,44.03 75.24,43.98 75.3,43.93 C75.89,43.42 76.45,42.89 76.99,42.33 C77.73,41.55 78.43,40.72 79.08,39.85 C79.3,39.54 79.53,39.21 79.76,38.89 C80.46,37.84 81.08,36.74 81.62,35.6 C81.8,35.22 81.97,34.83 82.13,34.44 C82.34,33.92 82.54,33.39 82.72,32.85 C82.84,32.48 82.95,32.12 83.06,31.76 C83.26,31.04 83.43,30.31 83.58,29.57 C83.64,29.19 83.71,28.8 83.76,28.42 C83.77,28.38 83.77,28.34 83.78,28.3 C83.84,27.84 83.88,27.37 83.92,26.9 C83.93,26.79 83.94,26.68 83.95,26.57 C83.98,26.05 84,25.52 84,25 C84,11.21 72.79,0 59,0" id="Fill-3"></path>
                <path d="M68.99,26.7599 L61.99,37.1699 C61.41,38.0299 60.46,38.4999 59.5,38.4999 C58.92,38.4999 58.34,38.3299 57.83,37.9899 C56.45,37.0699 56.09,35.1999 57.01,33.8299 L60.87,28.0799 L52.5,28.0799 C51.38,28.0799 50.36,27.4599 49.84,26.4799 C49.33,25.4899 49.4,24.2999 50.03,23.3799 L57.33,12.7999 C58.28,11.4299 60.14,11.0899 61.51,12.0299 C62.87,12.9699 63.21,14.8399 62.27,16.1999 L58.22,22.0799 L66.5,22.0799 C67.61,22.0799 68.63,22.6899 69.15,23.6699 C69.67,24.6499 69.61,25.8399 68.99,26.7599" id="Fill-5"></path>
            </g>
        </g>
    </g>
</svg>