<?xml version="1.0" encoding="UTF-8"?>
<svg width="96px" height="96px" viewBox="0 0 96 96" version="1.1" xmlns="http://www.w3.org/2000/svg" xmlns:xlink="http://www.w3.org/1999/xlink">
    <!-- Generator: Sketch 49.3 (51167) - http://www.bohemiancoding.com/sketch -->
    <title>connection routing</title>
    <desc>Created with Sketch.</desc>
    <defs>
        <polygon id="path-1" points="0 0.00015 95.09175 0.00015 95.09175 74.0914 0 74.0914"></polygon>
    </defs>
    <g id="connection-routing" stroke="none" stroke-width="1" fill="none" fill-rule="evenodd">
        <g transform="translate(0.000000, 11.000000)" id="Page-1">
            <g>
                <mask id="mask-2" fill="white">
                    <use xlink:href="#path-1"></use>
                </mask>
                <g id="Clip-2"></g>
                <path d="M84.8745,49.0254 C83.5075,47.6584 81.2915,47.6584 79.9245,49.0254 C78.5575,50.3914 78.5575,52.6084 79.9245,53.9744 L82.9495,57.0004 L59.9455,57.0004 C58.0715,57.0004 56.3755,55.8194 55.7255,54.0624 L48.2325,33.8184 L53.7405,18.9384 C54.3905,17.1804 56.0855,16.0004 57.9595,16.0004 L83.3345,16.0004 L79.2175,20.1174 C77.8505,21.4834 77.8505,23.7004 79.2175,25.0664 C79.9005,25.7504 80.7965,26.0914 81.6925,26.0914 C82.5875,26.0914 83.4835,25.7504 84.1675,25.0664 L94.0665,15.1674 C95.4335,13.8004 95.4335,11.5844 94.0665,10.2174 L84.8745,1.0254 C83.5075,-0.3416 81.2915,-0.3416 79.9245,1.0254 C78.5575,2.3914 78.5575,4.6084 79.9245,5.9744 L82.9495,9.0004 L57.9595,9.0004 C53.1705,9.0004 48.8365,12.0174 47.1755,16.5084 L44.5005,23.7364 L41.8255,16.5084 C40.1635,12.0174 35.8295,9.0004 31.0405,9.0004 L3.4995,9.0004 C1.5665,9.0004 -0.0005,10.5674 -0.0005,12.5004 C-0.0005,14.4324 1.5665,16.0004 3.4995,16.0004 L31.0405,16.0004 C32.9145,16.0004 34.6095,17.1804 35.2605,18.9384 L40.7685,33.8184 L33.2745,54.0624 C32.6245,55.8194 30.9285,57.0004 29.0545,57.0004 L3.4995,57.0004 C1.5665,57.0004 -0.0005,58.5674 -0.0005,60.5004 C-0.0005,62.4324 1.5665,64.0004 3.4995,64.0004 L29.0545,64.0004 C33.8435,64.0004 38.1775,60.9824 39.8395,56.4924 L44.5005,43.9014 L49.1605,56.4924 C50.8225,60.9824 55.1565,64.0004 59.9455,64.0004 L83.3345,64.0004 L79.2175,68.1174 C77.8505,69.4834 77.8505,71.7004 79.2175,73.0664 C79.9005,73.7504 80.7965,74.0914 81.6925,74.0914 C82.5875,74.0914 83.4835,73.7504 84.1675,73.0664 L94.0665,63.1674 C95.4335,61.8004 95.4335,59.5844 94.0665,58.2174 L84.8745,49.0254 Z" id="Fill-1" fill="#0B82C5" mask="url(#mask-2)"></path>
            </g>
        </g>
    </g>
</svg>