<?xml version="1.0" encoding="UTF-8"?>
<svg width="96px" height="96px" viewBox="0 0 96 96" version="1.1" xmlns="http://www.w3.org/2000/svg" xmlns:xlink="http://www.w3.org/1999/xlink">
    <!-- Generator: Sketch 49.3 (51167) - http://www.bohemiancoding.com/sketch -->
    <title>Cookie Policy</title>
    <desc>Created with Sketch.</desc>
    <defs>
        <polygon id="path-1" points="0 0.263026804 55 0.263026804 55 55.6551093 0 55.6551093"></polygon>
    </defs>
    <g id="Cookie-Policy" stroke="none" stroke-width="1" fill="none" fill-rule="evenodd">
        <g id="Group-3" transform="translate(21.000000, 5.000000)">
            <g id="Group">
                <mask id="mask-2" fill="white">
                    <use xlink:href="#path-1"></use>
                </mask>
                <g id="Clip-2"></g>
                <path d="M28.6173021,0.263026804 C28.2706875,0.263026804 28.0048542,0.580552577 28.0552708,0.930408247 C28.0879271,1.15844948 28.1148542,1.39976907 28.1148542,1.57931546 C28.1148542,3.56587216 27.0079792,5.29148041 25.3826146,6.16611959 C25.1505833,6.2902433 25.0623542,6.57255258 25.1402708,6.82541856 C25.3344896,7.45527423 25.441625,8.12265567 25.441625,8.81659381 C25.441625,12.1338722 23.0743333,14.8899959 19.9502187,15.4748206 C19.7101667,15.5192742 19.5262604,15.7017072 19.4798542,15.9436041 C18.7980833,19.4900784 15.7077708,22.1705732 11.9889687,22.1705732 C10.1384479,22.1705732 8.446625,21.5020371 7.12547917,20.3976247 C7.01719792,20.3069856 6.88542708,20.2613773 6.7519375,20.2613773 C6.666,20.2613773 6.57948958,20.2798515 6.49698958,20.3179546 C5.84329167,20.6210474 5.11683333,20.7902021 4.35027083,20.7902021 C3.44391667,20.7902021 2.59428125,20.5517691 1.85521875,20.1366763 C1.7606875,20.0841402 1.65928125,20.0593155 1.56016667,20.0593155 C1.31495833,20.0593155 1.08407292,20.2111505 1.01245833,20.4692124 C0.231,23.286532 -0.120197917,26.2851299 0.0362083333,29.3882227 C0.7535,43.6081814 12.3086562,55.0939546 26.4281875,55.6349031 C26.7868333,55.6481814 27.1443333,55.6551093 27.5001146,55.6551093 C42.6881354,55.6551093 55.0001146,43.2485113 55.0001146,27.9437691 C55.0001146,13.0246763 43.2988646,0.866903093 28.6407917,0.263604124 C28.6327708,0.263026804 28.6253229,0.263026804 28.6173021,0.263026804 M8.17105208,23.9902845 L8.17391667,23.9902845 L8.17105208,23.9902845 M4.8750625,21.5568825 L4.87735417,21.5568825 L4.8750625,21.5568825 M23.4169375,16.7120165 L23.4198021,16.7120165 L23.4169375,16.7120165 M31.6102187,4.63910928 C42.6990208,6.59044948 50.9896979,16.2813361 50.9896979,27.9437691 C50.9896979,40.995233 40.4520417,51.6138722 27.5001146,51.6138722 C27.1953229,51.6138722 26.8859479,51.6075216 26.5800104,51.5965526 C14.5521979,51.1358515 4.65219792,41.2908206 4.04146875,29.1826969 C3.96813542,27.7186144 4.02485417,26.2631918 4.211625,24.8302845 C4.25745833,24.8308619 4.30386458,24.8314392 4.35027083,24.8314392 C4.97417708,24.8314392 5.58891667,24.7690887 6.18933333,24.6455423 C7.94646875,25.6645113 9.94938542,26.2118103 11.9889687,26.2118103 C16.8146458,26.2118103 21.0702708,23.2068619 22.8044896,18.8180784 C26.7587604,17.1802227 29.4520417,13.2677278 29.4520417,8.81659381 C29.4520417,8.58566598 29.4440208,8.35473814 29.4296979,8.12438763 C30.4093854,7.14178969 31.1541771,5.95020206 31.6102187,4.63910928" id="Fill-1" fill="#FFFFFF" mask="url(#mask-2)"></path>
                <path d="M14.6881783,38.4057198 C14.3414035,39.2126635 13.1973209,39.2126067 12.8506263,38.4056285 L10.7577617,33.5342059 C10.5397563,33.0267691 10.7743868,32.438682 11.2818236,32.2206766 C11.7892604,32.0026712 12.3773475,32.2373017 12.5953529,32.7447385 L13.7695476,35.477834 L14.944103,32.7446472 C15.2908777,31.9377035 16.4349603,31.9377603 16.7816549,32.7447385 L17.955724,35.4775414 L19.129793,32.7447385 C19.3477984,32.2373017 19.9358855,32.0026712 20.4433222,32.2206766 C20.950759,32.438682 21.1853895,33.0267691 20.9673841,33.5342059 L18.8745195,38.4056285 C18.5278062,39.2126503 17.3836417,39.2126503 17.0369284,38.4056285 L15.8627336,35.672533 L14.6881783,38.4057198 Z" id="Stroke-4" fill="#FFFFFF" fill-rule="nonzero" mask="url(#mask-2)"></path>
                <path d="M26.325548,38.4057198 C25.9787733,39.2126635 24.8346907,39.2126067 24.4879961,38.4056285 L22.3951315,33.5342059 C22.1771261,33.0267691 22.4117566,32.438682 22.9191934,32.2206766 C23.4266302,32.0026712 24.0147173,32.2373017 24.2327227,32.7447385 L25.4069174,35.477834 L26.5814728,32.7446472 C26.9282475,31.9377035 28.0723301,31.9377603 28.4190247,32.7447385 L29.5930937,35.4775414 L30.7671628,32.7447385 C30.9851682,32.2373017 31.5732553,32.0026712 32.080692,32.2206766 C32.5881288,32.438682 32.8227593,33.0267691 32.6047539,33.5342059 L30.5118893,38.4056285 C30.165176,39.2126503 29.0210115,39.2126503 28.6742982,38.4056285 L27.5001034,35.672533 L26.325548,38.4057198 Z" id="Stroke-6" fill="#FFFFFF" fill-rule="nonzero" mask="url(#mask-2)"></path>
                <path d="M37.9629178,38.4057198 C37.6161431,39.2126635 36.4720605,39.2126067 36.1253659,38.4056285 L34.0325013,33.5342059 C33.8144959,33.0267691 34.0491264,32.438682 34.5565632,32.2206766 C35.064,32.0026712 35.652087,32.2373017 35.8700924,32.7447385 L37.0442872,35.477834 L38.2188426,32.7446472 C38.5656173,31.9377035 39.7096999,31.9377603 40.0563945,32.7447385 L41.2304635,35.4775414 L42.4045326,32.7447385 C42.622538,32.2373017 43.210625,32.0026712 43.7180618,32.2206766 C44.2254986,32.438682 44.4601291,33.0267691 44.2421237,33.5342059 L42.1492591,38.4056285 C41.8025458,39.2126503 40.6583813,39.2126503 40.311668,38.4056285 L39.1374732,35.672533 L37.9629178,38.4057198 Z" id="Stroke-8" fill="#FFFFFF" fill-rule="nonzero" mask="url(#mask-2)"></path>
                <path d="M37.9277708,26.1110103 C37.9277708,27.4018969 38.9658958,28.4485773 40.2475104,28.4485773 C41.5285521,28.4485773 42.56725,27.4018969 42.56725,26.1110103 C42.56725,24.8201237 41.5285521,23.7734433 40.2475104,23.7734433 C38.9658958,23.7734433 37.9277708,24.8201237 37.9277708,26.1110103" id="Fill-10" fill="#FFFFFF" mask="url(#mask-2)"></path>
                <path d="M28.4343698,21.4355299 C28.4343698,22.2062515 29.0548385,22.8314887 29.8196823,22.8314887 C30.585099,22.8314887 31.2055677,22.2062515 31.2055677,21.4355299 C31.2055677,20.6648082 30.585099,20.0395711 29.8196823,20.0395711 C29.0548385,20.0395711 28.4343698,20.6648082 28.4343698,21.4355299" id="Fill-12" fill="#FFFFFF" mask="url(#mask-2)"></path>
                <path d="M32.56,44.0972866 C32.56,44.8685856 33.1798958,45.4938227 33.9453125,45.4938227 C34.7107292,45.4938227 35.330625,44.8685856 35.330625,44.0972866 C35.330625,43.3265649 34.7107292,42.7013278 33.9453125,42.7013278 C33.1798958,42.7013278 32.56,43.3265649 32.56,44.0972866" id="Fill-14" fill="#FFFFFF" mask="url(#mask-2)"></path>
                <path d="M36.0405833,13.1441814 C36.0405833,13.6689649 36.4628229,14.0944495 36.9836042,14.0944495 C37.5055312,14.0944495 37.9277708,13.6689649 37.9277708,13.1441814 C37.9277708,12.6193979 37.5055312,12.1939134 36.9836042,12.1939134 C36.4628229,12.1939134 36.0405833,12.6193979 36.0405833,13.1441814" id="Fill-16" fill="#FFFFFF" mask="url(#mask-2)"></path>
                <path d="M22.3703333,48.5827711 C22.3703333,49.1075546 22.7925729,49.5330392 23.3139271,49.5330392 C23.8347083,49.5330392 24.2569479,49.1075546 24.2569479,48.5827711 C24.2569479,48.0579876 23.8347083,47.6325031 23.3139271,47.6325031 C22.7925729,47.6325031 22.3703333,48.0579876 22.3703333,48.5827711" id="Fill-18" fill="#FFFFFF" mask="url(#mask-2)"></path>
                <path d="M14.9193229,43.2008825 C14.9193229,43.725666 15.3415625,44.1511505 15.8623437,44.1511505 C16.3836979,44.1511505 16.8059375,43.725666 16.8059375,43.2008825 C16.8059375,42.676099 16.3836979,42.2506144 15.8623437,42.2506144 C15.3415625,42.2506144 14.9193229,42.676099 14.9193229,43.2008825" id="Fill-20" fill="#FFFFFF" mask="url(#mask-2)"></path>
                <path d="M18.1621458,27.9492536 C18.1621458,28.4740371 18.5843854,28.8995216 19.1051667,28.8995216 C19.6265208,28.8995216 20.0487604,28.4740371 20.0487604,27.9492536 C20.0487604,27.4238928 19.6265208,26.9989856 19.1051667,26.9989856 C18.5843854,26.9989856 18.1621458,27.4238928 18.1621458,27.9492536" id="Fill-22" fill="#FFFFFF" mask="url(#mask-2)"></path>
            </g>
        </g>
        <path d="M1.6095,73.86 C1.6095,71.5255 2.9895,69.5245 5.6575,69.5245 C7.8195,69.5245 9.004,70.8815 9.004,71.6865 C9.004,72.2155 8.7165,72.5375 8.153,72.5375 C7.0605,72.5375 7.3825,71.0425 5.6575,71.0425 C4.473,71.0425 3.4955,72.066 3.4955,73.86 C3.4955,75.3665 4.0935,76.6775 5.7265,76.6775 C7.21,76.6775 7.1755,75.0905 8.084,75.0905 C8.544,75.0905 9.004,75.355 9.004,75.815 C9.004,77.011 7.555,78.1955 5.7265,78.1955 C3.139,78.1955 1.6095,76.712 1.6095,73.86 Z M9.809,73.7565 C9.809,71.33 11.281,69.5245 13.995,69.5245 C16.709,69.5245 18.181,71.33 18.181,73.7565 C18.181,76.091 16.824,78.1955 13.995,78.1955 C11.028,78.1955 9.809,76.2635 9.809,73.7565 Z M11.695,73.7565 C11.695,75.3435 12.224,76.6775 13.995,76.6775 C15.7085,76.6775 16.295,75.3435 16.295,73.7565 C16.295,72.1695 15.536,71.0425 13.995,71.0425 C12.454,71.0425 11.695,72.1695 11.695,73.7565 Z M19.193,73.7565 C19.193,71.33 20.665,69.5245 23.379,69.5245 C26.093,69.5245 27.565,71.33 27.565,73.7565 C27.565,76.091 26.208,78.1955 23.379,78.1955 C20.412,78.1955 19.193,76.2635 19.193,73.7565 Z M21.079,73.7565 C21.079,75.3435 21.608,76.6775 23.379,76.6775 C25.0925,76.6775 25.679,75.3435 25.679,73.7565 C25.679,72.1695 24.92,71.0425 23.379,71.0425 C21.838,71.0425 21.079,72.1695 21.079,73.7565 Z M28.945,77.2065 L28.945,70.5135 C28.945,69.95 29.313,69.5705 29.888,69.5705 C30.463,69.5705 30.831,69.95 30.831,70.5135 L30.831,73.2505 L33.798,69.9845 C34.0165,69.7545 34.212,69.5705 34.5455,69.5705 C34.994,69.5705 35.4425,69.8465 35.4425,70.3295 C35.4425,70.617 35.293,70.8125 35.132,70.9735 L33.2,73.009 L35.4885,76.4935 C35.661,76.758 35.845,76.9995 35.845,77.241 C35.845,77.9425 35.3275,78.1495 34.879,78.1495 C34.4995,78.1495 34.2925,78.0575 34.0395,77.655 L31.866,74.297 L30.831,75.332 L30.831,77.2065 C30.831,77.77 30.463,78.1495 29.888,78.1495 C29.313,78.1495 28.945,77.77 28.945,77.2065 Z M36.8225,77.2065 L36.8225,70.5135 C36.8225,69.95 37.1905,69.5705 37.7655,69.5705 C38.3405,69.5705 38.7085,69.95 38.7085,70.5135 L38.7085,77.2065 C38.7085,77.77 38.3405,78.1495 37.7655,78.1495 C37.1905,78.1495 36.8225,77.77 36.8225,77.2065 Z M40.5025,76.896 L40.5025,70.824 C40.5025,69.9845 40.9395,69.72 41.6065,69.72 L46.034,69.72 C46.586,69.72 46.9885,69.881 46.9885,70.479 C46.9885,71.077 46.586,71.238 46.034,71.238 L42.3885,71.238 L42.3885,73.032 L45.5855,73.032 C46.08,73.032 46.471,73.17 46.471,73.7565 C46.471,74.343 46.08,74.481 45.5855,74.481 L42.3885,74.481 L42.3885,76.482 L46.126,76.482 C46.678,76.482 47.0805,76.643 47.0805,77.241 C47.0805,77.839 46.678,78 46.126,78 L41.6065,78 C40.9395,78 40.5025,77.7355 40.5025,76.896 Z M51.853,77.2065 L51.853,70.824 C51.853,69.9845 52.29,69.72 52.957,69.72 L55.8435,69.72 C57.4305,69.72 58.707,70.502 58.707,72.342 C58.707,73.8485 57.6605,74.964 55.832,74.964 L53.739,74.964 L53.739,77.2065 C53.739,77.77 53.371,78.1495 52.796,78.1495 C52.221,78.1495 51.853,77.77 51.853,77.2065 Z M53.739,71.169 L53.739,73.515 L55.4985,73.515 C56.2575,73.515 56.821,73.055 56.821,72.342 C56.821,71.514 56.2345,71.169 55.303,71.169 L53.739,71.169 Z M59.581,73.7565 C59.581,71.33 61.053,69.5245 63.767,69.5245 C66.481,69.5245 67.953,71.33 67.953,73.7565 C67.953,76.091 66.596,78.1955 63.767,78.1955 C60.8,78.1955 59.581,76.2635 59.581,73.7565 Z M61.467,73.7565 C61.467,75.3435 61.996,76.6775 63.767,76.6775 C65.4805,76.6775 66.067,75.3435 66.067,73.7565 C66.067,72.1695 65.308,71.0425 63.767,71.0425 C62.226,71.0425 61.467,72.1695 61.467,73.7565 Z M69.333,76.896 L69.333,70.5135 C69.333,69.95 69.701,69.5705 70.276,69.5705 C70.851,69.5705 71.219,69.95 71.219,70.5135 L71.219,76.413 L74.37,76.413 C74.9105,76.413 75.3475,76.689 75.3475,77.2065 C75.3475,77.724 74.9105,78 74.37,78 L70.437,78 C69.77,78 69.333,77.7355 69.333,76.896 Z M76.3595,77.2065 L76.3595,70.5135 C76.3595,69.95 76.7275,69.5705 77.3025,69.5705 C77.8775,69.5705 78.2455,69.95 78.2455,70.5135 L78.2455,77.2065 C78.2455,77.77 77.8775,78.1495 77.3025,78.1495 C76.7275,78.1495 76.3595,77.77 76.3595,77.2065 Z M79.729,73.86 C79.729,71.5255 81.109,69.5245 83.777,69.5245 C85.939,69.5245 87.1235,70.8815 87.1235,71.6865 C87.1235,72.2155 86.836,72.5375 86.2725,72.5375 C85.18,72.5375 85.502,71.0425 83.777,71.0425 C82.5925,71.0425 81.615,72.066 81.615,73.86 C81.615,75.3665 82.213,76.6775 83.846,76.6775 C85.3295,76.6775 85.295,75.0905 86.2035,75.0905 C86.6635,75.0905 87.1235,75.355 87.1235,75.815 C87.1235,77.011 85.6745,78.1955 83.846,78.1955 C81.2585,78.1955 79.729,76.712 79.729,73.86 Z M89.9985,77.2065 L89.9985,74.7685 L87.687,70.9275 C87.595,70.778 87.526,70.6055 87.526,70.433 C87.526,69.789 88.1125,69.5705 88.4805,69.5705 C88.929,69.5705 89.136,69.7545 89.3315,70.1225 L90.976,73.147 L92.609,70.1225 C92.8275,69.7085 93.0345,69.5705 93.4255,69.5705 C93.7705,69.5705 94.357,69.789 94.357,70.433 C94.357,70.6055 94.288,70.778 94.196,70.9275 L91.8845,74.7685 L91.8845,77.2065 C91.8845,77.77 91.5165,78.1495 90.9415,78.1495 C90.3665,78.1495 89.9985,77.77 89.9985,77.2065 Z" id="COOKIE-POLICY" fill="#FFFFFF"></path>
    </g>
</svg>