<?xml version="1.0" encoding="UTF-8"?>
<svg width="96px" height="96px" viewBox="0 0 96 96" version="1.1" xmlns="http://www.w3.org/2000/svg" xmlns:xlink="http://www.w3.org/1999/xlink">
    <!-- Generator: Sketch 49.3 (51167) - http://www.bohemiancoding.com/sketch -->
    <title>Cookie Policy</title>
    <desc>Created with Sketch.</desc>
    <defs>
        <polygon id="path-1" points="0 0.263026804 55 0.263026804 55 55.6551093 0 55.6551093"></polygon>
    </defs>
    <g id="Cookie-Policy" stroke="none" stroke-width="1" fill="none" fill-rule="evenodd">
        <g id="Group-3" transform="translate(21.000000, 5.000000)">
            <g fill="#53afe5" id="Group">
                <mask id="mask-2" fill="white">
                    <use xlink:href="#path-1"></use>
                </mask>
                <g id="Clip-2"></g>
                <path d="M28.6173021,0.263026804 C28.2706875,0.263026804 28.0048542,0.580552577 28.0552708,0.930408247 C28.0879271,1.15844948 28.1148542,1.39976907 28.1148542,1.57931546 C28.1148542,3.56587216 27.0079792,5.29148041 25.3826146,6.16611959 C25.1505833,6.2902433 25.0623542,6.57255258 25.1402708,6.82541856 C25.3344896,7.45527423 25.441625,8.12265567 25.441625,8.81659381 C25.441625,12.1338722 23.0743333,14.8899959 19.9502187,15.4748206 C19.7101667,15.5192742 19.5262604,15.7017072 19.4798542,15.9436041 C18.7980833,19.4900784 15.7077708,22.1705732 11.9889687,22.1705732 C10.1384479,22.1705732 8.446625,21.5020371 7.12547917,20.3976247 C7.01719792,20.3069856 6.88542708,20.2613773 6.7519375,20.2613773 C6.666,20.2613773 6.57948958,20.2798515 6.49698958,20.3179546 C5.84329167,20.6210474 5.11683333,20.7902021 4.35027083,20.7902021 C3.44391667,20.7902021 2.59428125,20.5517691 1.85521875,20.1366763 C1.7606875,20.0841402 1.65928125,20.0593155 1.56016667,20.0593155 C1.31495833,20.0593155 1.08407292,20.2111505 1.01245833,20.4692124 C0.231,23.286532 -0.120197917,26.2851299 0.0362083333,29.3882227 C0.7535,43.6081814 12.3086562,55.0939546 26.4281875,55.6349031 C26.7868333,55.6481814 27.1443333,55.6551093 27.5001146,55.6551093 C42.6881354,55.6551093 55.0001146,43.2485113 55.0001146,27.9437691 C55.0001146,13.0246763 43.2988646,0.866903093 28.6407917,0.263604124 C28.6327708,0.263026804 28.6253229,0.263026804 28.6173021,0.263026804 M8.17105208,23.9902845 L8.17391667,23.9902845 L8.17105208,23.9902845 M4.8750625,21.5568825 L4.87735417,21.5568825 L4.8750625,21.5568825 M23.4169375,16.7120165 L23.4198021,16.7120165 L23.4169375,16.7120165 M31.6102187,4.63910928 C42.6990208,6.59044948 50.9896979,16.2813361 50.9896979,27.9437691 C50.9896979,40.995233 40.4520417,51.6138722 27.5001146,51.6138722 C27.1953229,51.6138722 26.8859479,51.6075216 26.5800104,51.5965526 C14.5521979,51.1358515 4.65219792,41.2908206 4.04146875,29.1826969 C3.96813542,27.7186144 4.02485417,26.2631918 4.211625,24.8302845 C4.25745833,24.8308619 4.30386458,24.8314392 4.35027083,24.8314392 C4.97417708,24.8314392 5.58891667,24.7690887 6.18933333,24.6455423 C7.94646875,25.6645113 9.94938542,26.2118103 11.9889687,26.2118103 C16.8146458,26.2118103 21.0702708,23.2068619 22.8044896,18.8180784 C26.7587604,17.1802227 29.4520417,13.2677278 29.4520417,8.81659381 C29.4520417,8.58566598 29.4440208,8.35473814 29.4296979,8.12438763 C30.4093854,7.14178969 31.1541771,5.95020206 31.6102187,4.63910928" id="Fill-1" fill="#53afe5" mask="url(#mask-2)"></path>
                <path d="M14.6881783,38.4057198 C14.3414035,39.2126635 13.1973209,39.2126067 12.8506263,38.4056285 L10.7577617,33.5342059 C10.5397563,33.0267691 10.7743868,32.438682 11.2818236,32.2206766 C11.7892604,32.0026712 12.3773475,32.2373017 12.5953529,32.7447385 L13.7695476,35.477834 L14.944103,32.7446472 C15.2908777,31.9377035 16.4349603,31.9377603 16.7816549,32.7447385 L17.955724,35.4775414 L19.129793,32.7447385 C19.3477984,32.2373017 19.9358855,32.0026712 20.4433222,32.2206766 C20.950759,32.438682 21.1853895,33.0267691 20.9673841,33.5342059 L18.8745195,38.4056285 C18.5278062,39.2126503 17.3836417,39.2126503 17.0369284,38.4056285 L15.8627336,35.672533 L14.6881783,38.4057198 Z" id="Stroke-4" fill="#53afe5" fill-rule="nonzero" mask="url(#mask-2)"></path>
                <path d="M26.325548,38.4057198 C25.9787733,39.2126635 24.8346907,39.2126067 24.4879961,38.4056285 L22.3951315,33.5342059 C22.1771261,33.0267691 22.4117566,32.438682 22.9191934,32.2206766 C23.4266302,32.0026712 24.0147173,32.2373017 24.2327227,32.7447385 L25.4069174,35.477834 L26.5814728,32.7446472 C26.9282475,31.9377035 28.0723301,31.9377603 28.4190247,32.7447385 L29.5930937,35.4775414 L30.7671628,32.7447385 C30.9851682,32.2373017 31.5732553,32.0026712 32.080692,32.2206766 C32.5881288,32.438682 32.8227593,33.0267691 32.6047539,33.5342059 L30.5118893,38.4056285 C30.165176,39.2126503 29.0210115,39.2126503 28.6742982,38.4056285 L27.5001034,35.672533 L26.325548,38.4057198 Z" id="Stroke-6" fill="#53afe5" fill-rule="nonzero" mask="url(#mask-2)"></path>
                <path d="M37.9629178,38.4057198 C37.6161431,39.2126635 36.4720605,39.2126067 36.1253659,38.4056285 L34.0325013,33.5342059 C33.8144959,33.0267691 34.0491264,32.438682 34.5565632,32.2206766 C35.064,32.0026712 35.652087,32.2373017 35.8700924,32.7447385 L37.0442872,35.477834 L38.2188426,32.7446472 C38.5656173,31.9377035 39.7096999,31.9377603 40.0563945,32.7447385 L41.2304635,35.4775414 L42.4045326,32.7447385 C42.622538,32.2373017 43.210625,32.0026712 43.7180618,32.2206766 C44.2254986,32.438682 44.4601291,33.0267691 44.2421237,33.5342059 L42.1492591,38.4056285 C41.8025458,39.2126503 40.6583813,39.2126503 40.311668,38.4056285 L39.1374732,35.672533 L37.9629178,38.4057198 Z" id="Stroke-8" fill="#53afe5" fill-rule="nonzero" mask="url(#mask-2)"></path>
                <path d="M37.9277708,26.1110103 C37.9277708,27.4018969 38.9658958,28.4485773 40.2475104,28.4485773 C41.5285521,28.4485773 42.56725,27.4018969 42.56725,26.1110103 C42.56725,24.8201237 41.5285521,23.7734433 40.2475104,23.7734433 C38.9658958,23.7734433 37.9277708,24.8201237 37.9277708,26.1110103" id="Fill-10" fill="#53afe5" mask="url(#mask-2)"></path>
                <path d="M28.4343698,21.4355299 C28.4343698,22.2062515 29.0548385,22.8314887 29.8196823,22.8314887 C30.585099,22.8314887 31.2055677,22.2062515 31.2055677,21.4355299 C31.2055677,20.6648082 30.585099,20.0395711 29.8196823,20.0395711 C29.0548385,20.0395711 28.4343698,20.6648082 28.4343698,21.4355299" id="Fill-12" fill="#53afe5" mask="url(#mask-2)"></path>
                <path d="M32.56,44.0972866 C32.56,44.8685856 33.1798958,45.4938227 33.9453125,45.4938227 C34.7107292,45.4938227 35.330625,44.8685856 35.330625,44.0972866 C35.330625,43.3265649 34.7107292,42.7013278 33.9453125,42.7013278 C33.1798958,42.7013278 32.56,43.3265649 32.56,44.0972866" id="Fill-14" fill="#53afe5" mask="url(#mask-2)"></path>
                <path d="M36.0405833,13.1441814 C36.0405833,13.6689649 36.4628229,14.0944495 36.9836042,14.0944495 C37.5055312,14.0944495 37.9277708,13.6689649 37.9277708,13.1441814 C37.9277708,12.6193979 37.5055312,12.1939134 36.9836042,12.1939134 C36.4628229,12.1939134 36.0405833,12.6193979 36.0405833,13.1441814" id="Fill-16" fill="#53afe5" mask="url(#mask-2)"></path>
                <path d="M22.3703333,48.5827711 C22.3703333,49.1075546 22.7925729,49.5330392 23.3139271,49.5330392 C23.8347083,49.5330392 24.2569479,49.1075546 24.2569479,48.5827711 C24.2569479,48.0579876 23.8347083,47.6325031 23.3139271,47.6325031 C22.7925729,47.6325031 22.3703333,48.0579876 22.3703333,48.5827711" id="Fill-18" fill="#53afe5" mask="url(#mask-2)"></path>
                <path d="M14.9193229,43.2008825 C14.9193229,43.725666 15.3415625,44.1511505 15.8623437,44.1511505 C16.3836979,44.1511505 16.8059375,43.725666 16.8059375,43.2008825 C16.8059375,42.676099 16.3836979,42.2506144 15.8623437,42.2506144 C15.3415625,42.2506144 14.9193229,42.676099 14.9193229,43.2008825" id="Fill-20" fill="#53afe5" mask="url(#mask-2)"></path>
                <path d="M18.1621458,27.9492536 C18.1621458,28.4740371 18.5843854,28.8995216 19.1051667,28.8995216 C19.6265208,28.8995216 20.0487604,28.4740371 20.0487604,27.9492536 C20.0487604,27.4238928 19.6265208,26.9989856 19.1051667,26.9989856 C18.5843854,26.9989856 18.1621458,27.4238928 18.1621458,27.9492536" id="Fill-22" fill="#53afe5" mask="url(#mask-2)"></path>
            </g>
        </g>
    </g>
</svg>