<?xml version="1.0" encoding="UTF-8"?>
<svg width="96px" height="96px" viewBox="0 0 96 96" version="1.1" xmlns="http://www.w3.org/2000/svg" xmlns:xlink="http://www.w3.org/1999/xlink">
    <!-- Generator: Sketch 49.3 (51167) - http://www.bohemiancoding.com/sketch -->
    <title>customize</title>
    <desc>Created with Sketch.</desc>
    <defs></defs>
    <g id="customize" stroke="none" stroke-width="1" fill="none" fill-rule="evenodd">
        <g fill="#0B82C5" fill-rule="nonzero">
            <path d="M6,4 C6,1.790861 7.790861,0 10,0 C12.209139,0 14,1.790861 14,4 L14,44.046875 C14,46.256014 12.209139,48.046875 10,48.046875 C7.790861,48.046875 6,46.256014 6,44.046875 L6,4 Z" id="Line"></path>
            <path d="M6,75 C6,72.790861 7.790861,71 10,71 C12.209139,71 14,72.790861 14,75 L14,91.507574 C14,93.716713 12.209139,95.507574 10,95.507574 C7.790861,95.507574 6,93.716713 6,91.507574 L6,75 Z" id="Line-Copy"></path>
            <path d="M10,70 C4.4771525,70 0,65.5228475 0,60 C0,54.4771525 4.4771525,50 10,50 C15.5228475,50 20,54.4771525 20,60 C20,65.5228475 15.5228475,70 10,70 Z M10,63 C11.6568542,63 13,61.6568542 13,60 C13,58.3431458 11.6568542,57 10,57 C8.34314575,57 7,58.3431458 7,60 C7,61.6568542 8.34314575,63 10,63 Z" id="Oval"></path>
            <path d="M56.666667,4 C56.666667,1.790861 58.457528,0 60.666667,0 C62.875806,0 64.666667,1.790861 64.666667,4 L64.666667,44.046875 C64.666667,46.256014 62.875806,48.046875 60.666667,48.046875 C58.457528,48.046875 56.666667,46.256014 56.666667,44.046875 L56.666667,4 Z" id="Line-Copy-4"></path>
            <path d="M56.666667,75 C56.666667,72.790861 58.457528,71 60.666667,71 C62.875806,71 64.666667,72.790861 64.666667,75 L64.666667,91.507574 C64.666667,93.716713 62.875806,95.507574 60.666667,95.507574 C58.457528,95.507574 56.666667,93.716713 56.666667,91.507574 L56.666667,75 Z" id="Line-Copy-5"></path>
            <path d="M60.666667,70 C55.1438195,70 50.666667,65.5228475 50.666667,60 C50.666667,54.4771525 55.1438195,50 60.666667,50 C66.1895145,50 70.666667,54.4771525 70.666667,60 C70.666667,65.5228475 66.1895145,70 60.666667,70 Z M60.666667,63 C62.3235212,63 63.666667,61.6568542 63.666667,60 C63.666667,58.3431458 62.3235212,57 60.666667,57 C59.0098128,57 57.666667,58.3431458 57.666667,60 C57.666667,61.6568542 59.0098128,63 60.666667,63 Z" id="Oval-Copy-2"></path>
            <path d="M31.333333,51.953125 C31.333333,49.743986 33.124194,47.953125 35.333333,47.953125 C37.542472,47.953125 39.333333,49.743986 39.333333,51.953125 L39.333333,92 C39.333333,94.209139 37.542472,96 35.333333,96 C33.124194,96 31.333333,94.209139 31.333333,92 L31.333333,51.953125 Z" id="Line-Copy-2"></path>
            <path d="M31.333333,4.492426 C31.333333,2.283287 33.124194,0.492426 35.333333,0.492426 C37.542472,0.492426 39.333333,2.283287 39.333333,4.492426 L39.333333,21 C39.333333,23.209139 37.542472,25 35.333333,25 C33.124194,25 31.333333,23.209139 31.333333,21 L31.333333,4.492426 Z" id="Line-Copy-3"></path>
            <path d="M35.333333,47 C29.8104855,47 25.333333,42.5228475 25.333333,37 C25.333333,31.4771525 29.8104855,27 35.333333,27 C40.8561805,27 45.333333,31.4771525 45.333333,37 C45.333333,42.5228475 40.8561805,47 35.333333,47 Z M35.333333,40 C36.9901872,40 38.333333,38.6568542 38.333333,37 C38.333333,35.3431458 36.9901872,34 35.333333,34 C33.6764788,34 32.333333,35.3431458 32.333333,37 C32.333333,38.6568542 33.6764788,40 35.333333,40 Z" id="Oval-Copy"></path>
            <path d="M82,51.953125 C82,49.743986 83.790861,47.953125 86,47.953125 C88.209139,47.953125 90,49.743986 90,51.953125 L90,92 C90,94.209139 88.209139,96 86,96 C83.790861,96 82,94.209139 82,92 L82,51.953125 Z" id="Line-Copy-2"></path>
            <path d="M82,4.492426 C82,2.283287 83.790861,0.492426 86,0.492426 C88.209139,0.492426 90,2.283287 90,4.492426 L90,21 C90,23.209139 88.209139,25 86,25 C83.790861,25 82,23.209139 82,21 L82,4.492426 Z" id="Line-Copy-3"></path>
            <path d="M86,47 C80.4771525,47 76,42.5228475 76,37 C76,31.4771525 80.4771525,27 86,27 C91.5228475,27 96,31.4771525 96,37 C96,42.5228475 91.5228475,47 86,47 Z M86,40 C87.6568542,40 89,38.6568542 89,37 C89,35.3431458 87.6568542,34 86,34 C84.3431458,34 83,35.3431458 83,37 C83,38.6568542 84.3431458,40 86,40 Z" id="Oval-Copy"></path>
        </g>
    </g>
</svg>