<?xml version="1.0" encoding="UTF-8"?>
<svg width="96px" height="96px" viewBox="0 0 96 96" version="1.1" xmlns="http://www.w3.org/2000/svg" xmlns:xlink="http://www.w3.org/1999/xlink">
    <!-- Generator: Sketch 49.3 (51167) - http://www.bohemiancoding.com/sketch -->
    <title>Artboard Copy 5</title>
    <desc>Created with Sketch.</desc>
    <defs></defs>
    <g id="Artboard-Copy-5" stroke="none" stroke-width="1" fill="none" fill-rule="evenodd">
        <g id="Customer-email-management" fill="#0B82C5" fill-rule="nonzero">
            <g id="Group" transform="translate(16.000000, 0.000000)">
                <g id="Oval-4">
                    <path d="M20.1,0 C9.2,0 0.2,8.7 0.2,19.4 C0.2,30.1 9.1,38.8 20,38.8 C31,38.7 40,30 40,19.4 C40,8.8 31,0 20.1,0 Z M20.1,31.7 C13,31.7 7.2,26.2 7.2,19.4 C7.2,12.6 13,7 20.1,7 C27.2,7 33,12.5 33,19.4 C33,26.3 27.2,31.7 20.1,31.7 Z" id="Shape"></path>
                </g>
            </g>
            <g id="Path-13" transform="translate(0.000000, 42.000000)">
                <path d="M92.5,14 L64.7,14 C58.1,5.9 47.7,0.6 36,0.6 C16.2,0.6 0,15.8 0,34.5 C0,36.4 1.6,38 3.5,38 C5.4,38 7,36.4 7,34.5 C7,19.7 20,7.6 36,7.6 C43.2,7.6 49.7,10 54.8,14 L46.5,14 C44.6,14 43,15.6 43,17.5 L43,50.5 C43,52.4 44.6,54 46.5,54 L92.5,54 C94.4,54 96,52.4 96,50.5 L96,17.5 C96,15.6 94.4,14 92.5,14 Z M84.3,21 L71.5,29.3 L68.5,31.2 L64.1,28.2 L53.5,21 L84.3,21 Z M89,47 L50,47 L50,27.1 L66.6,38.4 C67.2,38.8 67.9,39 68.6,39 C69.3,39 69.9,38.8 70.5,38.4 L89,26.3 L89,47 Z" id="Shape"></path>
            </g>
        </g>
    </g>
</svg>