<?xml version="1.0" encoding="UTF-8"?>
<svg width="96px" height="96px" viewBox="0 0 96 96" version="1.1" xmlns="http://www.w3.org/2000/svg" xmlns:xlink="http://www.w3.org/1999/xlink">
    <!-- Generator: Sketch 49.3 (51167) - http://www.bohemiancoding.com/sketch -->
    <title>customer lead</title>
    <desc>Created with Sketch.</desc>
    <defs></defs>
    <g id="customer-lead" stroke="none" stroke-width="1" fill="none" fill-rule="evenodd">
        <g fill="#0B82C5" fill-rule="nonzero">
            <path d="M18.5,84 C18.2329966,84 18,84.2329966 18,84.5 L18,88.5 C18,88.7670034 18.2329966,89 18.5,89 L28.5,89 C28.7670034,89 29,88.7670034 29,88.5 L29,84.5 C29,84.2329966 28.7670034,84 28.5,84 L18.5,84 Z M18.5,77 L28.5,77 C32.6329966,77 36,80.3670034 36,84.5 L36,88.5 C36,92.6329966 32.6329966,96 28.5,96 L18.5,96 C14.3670034,96 11,92.6329966 11,88.5 L11,84.5 C11,80.3670034 14.3670034,77 18.5,77 Z" id="Rectangle-4"></path>
            <path d="M48.5,71 C48.2329966,71 48,71.2329966 48,71.5 L48,88.5 C48,88.7670034 48.2329966,89 48.5,89 L58.5,89 C58.7670034,89 59,88.7670034 59,88.5 L59,71.5 C59,71.2329966 58.7670034,71 58.5,71 L48.5,71 Z M48.5,64 L58.5,64 C62.6329966,64 66,67.3670034 66,71.5 L66,88.5 C66,92.6329966 62.6329966,96 58.5,96 L48.5,96 C44.3670034,96 41,92.6329966 41,88.5 L41,71.5 C41,67.3670034 44.3670034,64 48.5,64 Z" id="Rectangle-4-Copy"></path>
            <path d="M78.5,51 C78.2329966,51 78,51.2329966 78,51.5 L78,88.5 C78,88.7670034 78.2329966,89 78.5,89 L88.5,89 C88.7670034,89 89,88.7670034 89,88.5 L89,51.5 C89,51.2329966 88.7670034,51 88.5,51 L78.5,51 Z M78.5,44 L88.5,44 C92.6329966,44 96,47.3670034 96,51.5 L96,88.5 C96,92.6329966 92.6329966,96 88.5,96 L78.5,96 C74.3670034,96 71,92.6329966 71,88.5 L71,51.5 C71,47.3670034 74.3670034,44 78.5,44 Z" id="Rectangle-4-Copy-2"></path>
            <path d="M62.8749777,56.9270722 C63.6884533,58.680564 62.9264196,60.7615022 61.1729278,61.5749777 C59.419436,62.3884533 57.3384978,61.6264196 56.5250223,59.8729278 C52.5008205,51.1985375 43.397962,45.5 33,45.5 C18.8779809,45.5 7.5,56.0923584 7.5,69 C7.5,70.9329966 5.93299662,72.5 4,72.5 C2.06700338,72.5 0.5,70.9329966 0.5,69 C0.5,52.1100225 15.1194616,38.5 33,38.5 C46.0994406,38.5 57.6934743,45.7580536 62.8749777,56.9270722 Z" id="Oval-2"></path>
            <path d="M32.5,35.5 C22.585823,35.5 14.5,27.6929985 14.5,18 C14.5,8.30700152 22.585823,0.5 32.5,0.5 C42.414177,0.5 50.5,8.30700152 50.5,18 C50.5,27.6929985 42.414177,35.5 32.5,35.5 Z M32.5,28.5 C38.6020807,28.5 43.5,23.7709745 43.5,18 C43.5,12.2290255 38.6020807,7.5 32.5,7.5 C26.3979193,7.5 21.5,12.2290255 21.5,18 C21.5,23.7709745 26.3979193,28.5 32.5,28.5 Z" id="Oval-4"></path>
        </g>
    </g>
</svg>