<?xml version="1.0" encoding="UTF-8"?>
<svg width="96px" height="96px" viewBox="0 0 96 96" version="1.1" xmlns="http://www.w3.org/2000/svg" xmlns:xlink="http://www.w3.org/1999/xlink">
    <!-- Generator: Sketch 49.3 (51167) - http://www.bohemiancoding.com/sketch -->
    <title>Artboard Copy 6</title>
    <desc>Created with Sketch.</desc>
    <defs></defs>
    <g id="Artboard-Copy-6" stroke="none" stroke-width="1" fill="none" fill-rule="evenodd">
        <g id="Custom-training" transform="translate(-1.000000, 0.000000)" fill-rule="nonzero">
            <g id="Path-8" fill="#0B82C5">
                <path d="M91.4,59.1 C91.2,58.8 90.9,58.5 90.7,58.3 C90.5,58.1 90.2,57.8 90,57.6 C89.7,57.3 89.5,57.1 89.2,56.8 C89.5,57 89.7,57.3 90,57.6 L90,34.1 L94,32.1 C95,31.6 95.9,30.7 96.4,29.6 C97.7,26.9 96.6,23.6 94,22.2 L52.3,1.2 C50.2,0.2 47.7,0.2 45.7,1.2 L4,22.2 C3,22.7 2.1,23.6 1.6,24.7 C0.9,26 0.8,27.5 1.3,28.9 C1.8,30.3 2.7,31.4 4,32.1 L7.9,34.1 L7.9,62 C7.9,65.1 9.7,67.8 12.5,68.9 C15.3,70.1 18.1,71.1 20.9,72 L18.8,81.1 C18.6,82.1 18.8,83.2 19.5,84.1 C20.2,84.9 21.2,85.4 22.2,85.4 L31.1,85.4 C32.2,85.4 33.2,84.9 33.9,84 C34.6,83.1 34.8,82 34.4,80.9 L32.7,75 C38.4,76.1 43.9,76.7 49.4,76.7 C50.3,76.7 51.2,76.7 52.1,76.6 C52.1,76.7 52.1,76.7 52.1,76.8 C52.6,79.8 53.6,82.6 55.1,85 C55.7,85.9 56.3,86.8 57,87.6 C57.2,87.9 57.5,88.2 57.7,88.4 C57.8,88.5 57.9,88.7 58.1,88.8 C58.2,88.9 58.3,89.1 58.5,89.2 C58.7,89.4 59,89.7 59.3,89.9 C59.3,89.9 59.3,89.9 59.3,89.9 C60.3,90.9 61.5,91.7 62.7,92.5 C66.1,94.6 70,95.8 74.2,95.8 C78.4,95.8 82.4,94.6 85.7,92.5 C86.9,91.7 88.1,90.9 89.1,89.9 C89.1,89.9 89.1,89.9 89.1,89.9 C89.4,89.7 89.6,89.4 89.9,89.2 C90,89.1 90.2,88.9 90.3,88.8 C90.4,88.7 90.5,88.5 90.7,88.4 C90.9,88.1 91.2,87.9 91.4,87.6 C92.1,86.8 92.7,85.9 93.3,85 C95.3,81.6 96.5,77.6 96.5,73.3 C96.5,69 95.3,65 93.3,61.6 C92.7,60.8 92.1,59.9 91.4,59.1 Z M22.8,64 C22.8,64 22.8,64.1 22.8,64 L22.6,65.1 C20.1,64.3 17.7,63.4 15.2,62.4 C15,62.3 14.9,62.1 14.9,61.9 L14.9,37.5 L22.8,41.5 L22.8,64 Z M9.8,27.1 L48.8,7.4 C48.9,7.3 49.1,7.3 49.2,7.4 L88.2,27.1 L49.2,46.8 C49.1,46.9 48.9,46.9 48.8,46.8 L33.1,39 L50.7,28.8 C52.4,27.8 52.9,25.7 52,24 C51,22.3 48.9,21.8 47.3,22.7 L25.7,35.2 L9.8,27.1 Z M58.1,57.9 C58,58 57.9,58.2 57.7,58.3 C57.5,58.6 57.2,58.8 57,59.1 C56.3,59.9 55.7,60.8 55.1,61.7 C53.7,64.1 52.7,66.7 52.2,69.6 C51.3,69.6 50.3,69.7 49.4,69.7 C43.2,69.7 36.9,68.9 30.4,67.4 L29.6,64.8 L29.6,45 L45.6,53.1 C46.6,53.6 47.8,53.9 48.9,53.9 C50,53.9 51.2,53.6 52.2,53.1 L83,37.6 L83,52.7 C80.3,51.5 77.3,50.9 74.2,50.9 C70,50.9 66,52.1 62.7,54.2 C61.5,55 60.3,55.8 59.3,56.8 C59.3,56.8 59.3,56.8 59.3,56.8 C59,57 58.8,57.3 58.5,57.5 C58.3,57.6 58.2,57.7 58.1,57.9 Z M74.2,88.9 C66.6,88.9 60.4,83.4 59.1,76.1 C58.9,75.2 58.9,74.3 58.9,73.4 C58.9,71.9 59.1,70.4 59.5,69 C61.4,62.6 67.3,57.9 74.2,57.9 C77.5,57.9 80.5,58.9 83,60.7 C85.2,62.3 87,64.4 88.1,66.9 C89,68.9 89.5,71.1 89.5,73.4 C89.6,81.9 82.7,88.9 74.2,88.9 Z" id="Shape"></path>
                <path d="M90,57.5 C89.7,57.3 89.5,57 89.2,56.7 C89.5,57 89.7,57.2 90,57.5 Z" id="Shape"></path>
            </g>
            <g id="Combined-Shape-Copy-2" transform="translate(52.000000, 54.000000)" fill="#FFFFFF">
                <path d="M3.2,31 C3.8,31.9 4.4,32.8 5.1,33.6 C4.4,32.8 3.7,32 3.2,31 Z M3.2,7.7 C3.8,6.8 4.4,5.9 5.1,5.1 C4.3,5.9 3.7,6.8 3.2,7.7 Z M6.1,34.9 C6.2,35 6.3,35.2 6.5,35.3 C6.3,35.2 6.2,35 6.1,34.9 Z M6.5,3.5 C6.4,3.6 6.3,3.8 6.1,3.9 C6.2,3.7 6.3,3.6 6.5,3.5 Z M0.2,22.6 C0.2,22.7 0.2,22.7 0.2,22.8 C0.2,22.7 0.2,22.7 0.2,22.6 Z M7.2,36 C8.2,37 9.4,37.8 10.6,38.6 C9.4,37.9 8.3,37 7.2,36 Z M7.2,2.7 C8.2,1.7 9.4,0.9 10.6,0.1 C9.4,0.9 8.3,1.7 7.2,2.7 Z M33.8,38.6 C35,37.8 36.2,37 37.2,36 C36.1,37 35,37.9 33.8,38.6 Z M38,3.5 C37.7,3.2 37.5,3 37.2,2.7 C37.5,3 37.7,3.2 38,3.5 C38.2,3.8 38.5,4 38.7,4.3 C38.5,4 38.2,3.7 38,3.5 Z M37.9,35.3 C38,35.2 38.2,35 38.3,34.9 C38.2,35 38.1,35.2 37.9,35.3 Z M39.4,33.7 C40.1,32.9 40.7,32 41.3,31.1 C40.7,32 40.1,32.8 39.4,33.7 Z M39.4,5.1 C40.1,5.9 40.7,6.8 41.3,7.7 C40.7,6.8 40.1,5.9 39.4,5.1 Z" id="Shape"></path>
            </g>
            <path d="M77.7,64.4 C77.7,65.4 77.3,66.3 76.7,66.9 C76.1,67.5 75.2,67.9 74.3,67.9 C73.3,67.9 72.5,67.5 71.9,66.9 C71.8,66.8 71.7,66.7 71.6,66.5 C71.2,65.9 70.9,65.2 70.9,64.4 C70.9,63.4 71.3,62.6 71.9,61.9 C72.5,61.3 73.4,60.9 74.3,60.9 C76.1,60.9 77.7,62.4 77.7,64.4 Z" id="Shape" fill="#0B82C5"></path>
            <g id="Rectangle-Copy-2" transform="translate(70.000000, 69.000000)" fill="#0B82C5">
                <path d="M8.7,4.9 L8.7,13.9 C8.7,16.1 6.9,17.9 4.7,17.9 C2.5,17.9 0.7,16.1 0.7,13.9 L0.7,4.9 C0.7,2.7 2.5,0.9 4.7,0.9 C6.1,0.9 7.3,1.6 8,2.7 C8.4,3.3 8.7,4.1 8.7,4.9 Z" id="Shape"></path>
            </g>
        </g>
    </g>
</svg>