<?xml version="1.0" encoding="UTF-8"?>
<svg width="96px" height="96px" viewBox="0 0 96 96" version="1.1" xmlns="http://www.w3.org/2000/svg" xmlns:xlink="http://www.w3.org/1999/xlink">
    <!-- Generator: Sketch 49.3 (51167) - http://www.bohemiancoding.com/sketch -->
    <title>customer loyalty copy</title>
    <desc>Created with Sketch.</desc>
    <defs>
        <polygon id="path-1" points="0.0018 0.5 45.9498 0.5 45.9498 46.2216 0.0018 46.2216"></polygon>
        <polygon id="path-3" points="0 0 95.502 0 95.502 47 0 47"></polygon>
    </defs>
    <g id="Page-1" stroke="none" stroke-width="1" fill="none" fill-rule="evenodd">
        <g id="customer-loyalty-copy">
            <g transform="translate(0.000000, -1.000000)" id="Page-1">
                <g>
                    <g id="Group-3" transform="translate(18.000000, 0.500400)">
                        <mask id="mask-2" fill="white">
                            <use xlink:href="#path-1"></use>
                        </mask>
                        <g id="Clip-2"></g>
                        <path d="M22.9758,7.4996 C31.7838,7.4996 38.9498,14.6146 38.9498,23.3596 C38.9498,32.1056 31.7838,39.2216 22.9758,39.2216 C14.1678,39.2216 7.0018,32.1056 7.0018,23.3596 C7.0018,14.6146 14.1678,7.4996 22.9758,7.4996 M22.9758,46.2216 C35.6438,46.2216 45.9498,35.9656 45.9498,23.3596 C45.9498,10.7546 35.6438,0.4996 22.9758,0.4996 C10.3078,0.4996 0.0018,10.7546 0.0018,23.3596 C0.0018,35.9656 10.3078,46.2216 22.9758,46.2216" id="Fill-1" fill="#0B82C5" mask="url(#mask-2)"></path>
                    </g>
                    <path d="M40.7638,35.7686 C44.1078,35.7686 47.4518,34.2966 50.7028,31.3536 C51.7268,30.4266 51.8058,28.8456 50.8788,27.8226 C49.9518,26.7996 48.3718,26.7206 47.3478,27.6466 C42.7948,31.7696 38.7328,31.7696 34.1798,27.6466 C33.1548,26.7196 31.5758,26.7986 30.6488,27.8226 C29.7218,28.8456 29.8008,30.4266 30.8248,31.3536 C34.0758,34.2966 37.4198,35.7686 40.7638,35.7686" id="Fill-4" fill="#0B82C5"></path>
                    <g id="Group-8" transform="translate(0.000000, 49.500400)">
                        <mask id="mask-4" fill="white">
                            <use xlink:href="#path-3"></use>
                        </mask>
                        <g id="Clip-7"></g>
                        <path d="M72.0021,40 C62.9021,40 55.5021,32.6 55.5021,23.5 C55.5021,14.4 62.9021,7 72.0021,7 C81.1021,7 88.5021,14.4 88.5021,23.5 C88.5021,32.6 81.1021,40 72.0021,40 M72.0021,0 C66.1021,0 60.7121,2.19 56.5821,5.78 C53.1221,3.5 47.7821,2.41 40.4021,2.5 C20.6821,2.5 7.5321,12.88 0.1921,34.24 C-0.4379,36.07 0.5321,38.06 2.3621,38.69 C2.7421,38.82 3.1221,38.88 3.5021,38.88 C4.9521,38.88 6.3121,37.97 6.8121,36.52 C13.2321,17.83 23.5921,9.5 40.4321,9.5 C46.8321,9.41 50.2121,10.31 51.9921,11.2 C49.7821,14.78 48.5021,18.99 48.5021,23.5 C48.5021,36.46 59.0421,47 72.0021,47 C84.9621,47 95.5021,36.46 95.5021,23.5 C95.5021,10.54 84.9621,0 72.0021,0" id="Fill-6" fill="#0B82C5" mask="url(#mask-4)"></path>
                    </g>
                    <path d="M78.8136,65.2588 L70.1676,75.6328 L64.6796,71.2708 C63.1676,70.0678 60.9646,70.3188 59.7616,71.8328 C58.5596,73.3458 58.8106,75.5478 60.3246,76.7508 L68.4886,83.2398 C69.1316,83.7508 69.9006,83.9998 70.6646,83.9998 C71.6676,83.9998 72.6636,83.5708 73.3546,82.7408 L84.1906,69.7408 C85.4276,68.2558 85.2276,66.0488 83.7436,64.8118 C82.2586,63.5718 80.0516,63.7748 78.8136,65.2588" id="Fill-9" fill="#0B82C5"></path>
                </g>
            </g>
        </g>
    </g>
</svg>