<?xml version="1.0" encoding="UTF-8"?>
<svg width="96px" height="96px" viewBox="0 0 96 96" version="1.1" xmlns="http://www.w3.org/2000/svg" xmlns:xlink="http://www.w3.org/1999/xlink">
    <!-- Generator: Sketch 49.3 (51167) - http://www.bohemiancoding.com/sketch -->
    <title>Cut operating cost</title>
    <desc>Created with Sketch.</desc>
    <defs></defs>
    <g id="Cut-operating-cost" stroke="none" stroke-width="1" fill="none" fill-rule="evenodd">
        <g id="Cut-Operating-Cost" transform="translate(4.000000, 0.000000)" fill="#0B82C5" fill-rule="nonzero">
            <path d="M55.6951136,45.2955776 C45.7678974,45.2955776 40.5379578,40.6821887 41.453895,33.8135434 C42.2275243,28.0120708 48.6800925,24.594524 55.8795076,25.037872 C62.065305,25.4188003 66.2801634,27.9056787 67.8568708,32.5704604 C68.3874053,34.140078 67.5450621,35.8425875 65.9754446,36.373122 C64.405827,36.9036565 62.7033175,36.0613133 62.172783,34.4916958 C61.4827787,32.4502776 59.4844949,31.2712371 55.5107195,31.0265276 C51.0797128,30.7536612 47.6745438,32.5571795 47.401249,34.6066261 C47.0189331,37.4736269 49.0843762,39.2955776 55.6951136,39.2955776 C63.2724708,39.2955776 68.078344,42.5308879 68.9701988,48.811015 L69,49.0208645 L69,49.2328195 C69,56.2818427 64.0670403,60 55.6951136,60 C47.5916257,60 42.3875088,57.3314559 41.0775018,51.6805297 C40.7033297,50.0664784 41.7084504,48.4547051 43.3225016,48.0805331 C44.9365529,47.706361 46.5483262,48.7114817 46.9224982,50.3255329 C47.4661274,52.6705649 50.058753,54 55.6951136,54 C60.9456507,54 62.913645,52.6031911 62.9972056,49.4471382 C62.5091761,46.6203212 60.4296727,45.2955776 55.6951136,45.2955776 Z" id="Path-8-Copy"></path>
            <path d="M52,23.3663093 C52,21.7094551 53.3431458,20.3663093 55,20.3663093 C56.6568542,20.3663093 58,21.7094551 58,23.3663093 L58,63.6203704 C58,65.2772246 56.6568542,66.6203704 55,66.6203704 C53.3431458,66.6203704 52,65.2772246 52,63.6203704 L52,23.3663093 Z" id="Line-2"></path>
            <path d="M30.8545356,21.8797109 C30.8545356,23.8127075 29.2875322,25.3797109 27.3545356,25.3797109 C25.421539,25.3797109 23.8545356,23.8127075 23.8545356,21.8797109 L23.8545356,8.5454523 C23.8545356,4.43469273 27.1635815,1.08996786 31.2741047,1.04588359 L78.1119265,0.54356027 C82.2538239,0.49913951 85.6475053,3.82080062 85.6919263,7.96270924 C85.6921657,7.98951006 85.6923095,31.3578221 85.6923574,78.0676454 C85.6923574,82.209781 82.334493,85.5676454 78.1923574,85.5676454 L54.9273835,85.5676454 C52.9943869,85.5676454 51.4273835,84.000642 51.4273835,82.0676454 C51.4273835,80.1346488 52.9943869,78.5676454 54.9273835,78.5676454 L78.1923574,78.5676454 C78.4684998,78.5676454 78.6923574,78.3437878 78.6923574,78.0676454 L78.6923574,8.04312898 C78.6893673,7.76164043 78.4631218,7.54019635 78.1869953,7.54315773 L31.3491735,8.04548105 C31.0751387,8.04842 30.8545356,8.27140166 30.8545356,8.5454523 L30.8545356,21.8797109 Z" id="Path-6-Copy"></path>
            <path d="M11.5,95.5 C5.41366771,95.5 0.5,90.516137 0.5,84.3928571 C0.5,78.2695772 5.41366771,73.2857142 11.5,73.2857142 C17.5863323,73.2857142 22.5,78.2695772 22.5,84.3928571 C22.5,90.516137 17.5863323,95.5 11.5,95.5 Z M11.5,88.5 C13.697939,88.5 15.5,86.6721952 15.5,84.3928571 C15.5,82.113519 13.697939,80.2857142 11.5,80.2857142 C9.30206104,80.2857142 7.5,82.113519 7.5,84.3928571 C7.5,86.6721952 9.30206104,88.5 11.5,88.5 Z" id="Oval-3"></path>
            <path d="M20.7857521,58.1051632 L8.2018895,22.6786662 C7.554875,20.8571701 8.5069805,18.8560468 10.3284766,18.2090323 C12.1499728,17.5620178 14.151096,18.5141233 14.7981105,20.3356195 L24.5,47.6486925 L34.2018895,20.3356195 C34.848904,18.5141233 36.8500272,17.5620178 38.6715234,18.2090323 C40.4930195,18.8560468 41.445125,20.8571701 40.7981105,22.6786662 L28.2142479,58.1051632 L35.2981105,78.0478823 C35.945125,79.8693785 34.9930195,81.8705017 33.1715234,82.5175162 C31.3500272,83.1645307 29.348904,82.2124252 28.7018895,80.3909291 L24.5,68.5616339 L20.2981105,80.3909291 C19.651096,82.2124252 17.6499728,83.1645307 15.8284766,82.5175162 C14.0069805,81.8705017 13.054875,79.8693785 13.7018895,78.0478823 L20.7857521,58.1051632 Z" id="Combined-Shape"></path>
            <path d="M37.5,95.5 C31.4136677,95.5 26.5,90.516137 26.5,84.3928571 C26.5,78.2695772 31.4136677,73.2857142 37.5,73.2857142 C43.5863323,73.2857142 48.5,78.2695772 48.5,84.3928571 C48.5,90.516137 43.5863323,95.5 37.5,95.5 Z M37.5,88.5 C39.697939,88.5 41.5,86.6721952 41.5,84.3928571 C41.5,82.113519 39.697939,80.2857142 37.5,80.2857142 C35.302061,80.2857142 33.5,82.113519 33.5,84.3928571 C33.5,86.6721952 35.302061,88.5 37.5,88.5 Z" id="Oval-3" transform="translate(37.500000, 84.392857) scale(-1, 1) translate(-37.500000, -84.392857) "></path>
        </g>
    </g>
</svg>