<?xml version="1.0" encoding="UTF-8"?>
<svg width="96px" height="96px" viewBox="0 0 96 96" version="1.1" xmlns="http://www.w3.org/2000/svg" xmlns:xlink="http://www.w3.org/1999/xlink">
    <!-- Generator: Sketch 49.3 (51167) - http://www.bohemiancoding.com/sketch -->
    <title>Dashboard</title>
    <desc>Created with Sketch.</desc>
    <defs>
        <polygon id="path-1" points="0 0.518064286 96 0.518064286 96 87 0 87"></polygon>
    </defs>
    <g id="Dashboard" stroke="none" stroke-width="1" fill="none" fill-rule="evenodd">
        <g id="Page-1" transform="translate(0.000000, 4.000000)">
            <g id="Group-3">
                <mask id="mask-2" fill="white">
                    <use xlink:href="#path-1"></use>
                </mask>
                <g id="Clip-2"></g>
                <path d="M88.7741935,63.6966357 L67.6129032,63.6966357 L45.9354839,63.6966357 L33.5483871,63.6966357 L11.8709677,63.6966357 L7.22580645,63.6966357 L7.22580645,7.76806429 L88.7741935,7.76806429 L88.7741935,63.6966357 Z M89.2903226,0.518064286 L6.70967742,0.518064286 C3.00387097,0.518064286 0,3.53199286 0,7.25020714 L0,64.2144929 C0,67.9327071 3.00387097,70.9466357 6.70967742,70.9466357 L42.8387097,70.9466357 L42.8387097,79.7502071 L27.3548387,79.7502071 C25.3594839,79.7502071 23.7419355,81.3721357 23.7419355,83.3752071 C23.7419355,85.3772429 25.3594839,87.0002071 27.3548387,87.0002071 L64.4129032,87.0002071 C66.4082581,87.0002071 68.0258065,85.3772429 68.0258065,83.3752071 C68.0258065,81.3721357 66.4082581,79.7502071 64.4129032,79.7502071 L50.0645161,79.7502071 L50.0645161,70.9466357 L89.2903226,70.9466357 C92.996129,70.9466357 96,67.9327071 96,64.2144929 L96,7.25020714 C96,3.53199286 92.996129,0.518064286 89.2903226,0.518064286 Z" id="Fill-1" fill="#0B82C5" mask="url(#mask-2)"></path>
            </g>
            <path d="M18.0876868,32.1408992 L21.4770609,33.6880249 L30.1984991,37.6721265 C31.2215114,38.1382866 32.3891921,38.0978389 33.3708705,37.6114549 C33.5878731,37.5002237 33.7945423,37.3798917 33.990878,37.2272015 L44.334669,29.1184424 L53.6761146,33.6880249 L57.0034879,35.3170573 C58.3158371,35.9632099 59.8865226,35.7609712 60.9932359,34.8205614 L62.335552,33.6880249 L63.3378974,32.8295218 L69.4553043,27.6208651 L75.8103807,22.2119922 L75.3453751,26.5591122 C75.3040413,26.9231417 75.3453751,27.2770594 75.4280427,27.6208651 C75.7380465,28.8545209 76.7920591,29.8252665 78.1560755,29.9678448 C79.7577615,30.1296357 81.1837786,29.0972073 81.5557831,27.6208651 C81.5867834,27.4803093 81.6281173,27.3488541 81.6384507,27.2062759 L82.9818002,14.7382625 C83.1678024,13.0394577 81.9071206,11.513567 80.1607663,11.330541 L67.4299466,10.0159897 C65.6835923,9.84408689 64.1335737,11.0777427 63.9475714,12.7775587 C63.7615692,14.4854641 65.022251,16.012366 66.7686053,16.1842689 L71.3359936,16.6595297 C71.2843263,16.6898655 71.2429924,16.7100894 71.2016586,16.7505371 L58.0781675,27.9242231 L45.5023497,21.7660559 C44.2313344,21.149228 42.7226496,21.3110189 41.618003,22.1715444 L31.2215114,30.3308632 L21.1463903,25.7198217 C19.3380352,24.9007551 17.188676,25.6591501 16.3413325,27.4287384 C15.493989,29.1983267 16.2793318,31.3127319 18.0876868,32.1408992" id="Fill-4" fill="#0B82C5"></path>
            <path d="M22.5,39 C19.46,39 17,41.46 17,44.5 L17,52.5 C17,55.54 19.46,58 22.5,58 C25.54,58 28,55.54 28,52.5 L28,44.5 C28,41.46 25.54,39 22.5,39" id="Fill-6" fill="#0B82C5"></path>
            <path d="M39.5,47 C36.46,47 34,49.46 34,52.5 L34,53.5 C34,56.54 36.46,59 39.5,59 C42.54,59 45,56.54 45,53.5 L45,52.5 C45,49.46 42.54,47 39.5,47" id="Fill-8" fill="#0B82C5"></path>
            <path d="M51,44.5 L51,52.5 C51,55.54 53.46,58 56.5,58 C59.54,58 62,55.54 62,52.5 L62,44.5 C62,41.46 59.54,39 56.5,39 C53.46,39 51,41.46 51,44.5 Z" id="Fill-10" fill="#0B82C5"></path>
            <path d="M74.5,33 C71.46,33 69,35.5625 69,38.7291667 L69,52.2708333 C69,55.4375 71.46,58 74.5,58 C77.54,58 80,55.4375 80,52.2708333 L80,38.7291667 C80,35.5625 77.54,33 74.5,33" id="Fill-12" fill="#0B82C5"></path>
        </g>
    </g>
</svg>