<?xml version="1.0" encoding="UTF-8"?>
<svg width="96px" height="96px" viewBox="0 0 96 96" version="1.1" xmlns="http://www.w3.org/2000/svg" xmlns:xlink="http://www.w3.org/1999/xlink">
    <!-- Generator: Sketch 49.3 (51167) - http://www.bohemiancoding.com/sketch -->
    <title>Development credit</title>
    <desc>Created with Sketch.</desc>
    <defs></defs>
    <g id="Development-credit" stroke="none" stroke-width="1" fill="none" fill-rule="evenodd">
        <g id="Development-Credit" transform="translate(0.000000, 7.000000)" fill="#FFFFFF" fill-rule="nonzero">
            <path d="M4.5,59.4 L2.1,59.4 C1.4,59.4 0.9,59.7 0.9,60.6 L0.9,66.9 C0.9,67.8 1.4,68.1 2.1,68.1 L4.5,68.1 C7.1,68.1 8.6,66.5 8.6,63.8 C8.6,60.3 6.7,59.4 4.5,59.4 Z M4.6,66.4 L2.9,66.4 L2.9,60.9 L4.5,60.9 C5.9,60.9 6.6,61.9 6.6,63.6 C6.7,65 6.2,66.4 4.6,66.4 Z" id="Shape"></path>
            <path d="M16,66.4 L12.1,66.4 L12.1,64.3 L15.4,64.3 C15.9,64.3 16.3,64.2 16.3,63.5 C16.3,62.9 15.9,62.7 15.4,62.7 L12.1,62.7 L12.1,60.8 L15.9,60.8 C16.5,60.8 16.9,60.6 16.9,60 C16.9,59.4 16.5,59.2 15.9,59.2 L11.3,59.2 C10.6,59.2 10.1,59.5 10.1,60.4 L10.1,66.7 C10.1,67.6 10.6,67.9 11.3,67.9 L16,67.9 C16.6,67.9 17,67.7 17,67.1 C17,66.6 16.6,66.4 16,66.4 Z" id="Shape"></path>
            <path d="M25,60.1 C25,59.4 24.5,59.2 24,59.2 C23.5,59.2 23.3,59.5 23.1,60.1 L21.3,66 L19.5,60.1 C19.3,59.5 19,59.2 18.5,59.2 C18,59.2 17.5,59.4 17.5,60.1 C17.5,60.3 17.5,60.4 17.6,60.7 L20,67.5 C20.2,68.1 20.6,68.2 21.2,68.2 C21.8,68.2 22.2,68.1 22.4,67.5 L24.9,60.7 C25,60.4 25,60.2 25,60.1 Z" id="Shape"></path>
            <path d="M32,66.4 L28.1,66.4 L28.1,64.3 L31.4,64.3 C31.9,64.3 32.3,64.2 32.3,63.5 C32.3,62.9 31.9,62.7 31.4,62.7 L28.1,62.7 L28.1,60.8 L31.9,60.8 C32.5,60.8 32.9,60.6 32.9,60 C32.9,59.4 32.5,59.2 31.9,59.2 L27.3,59.2 C26.6,59.2 26.1,59.5 26.1,60.4 L26.1,66.7 C26.1,67.6 26.6,67.9 27.3,67.9 L32,67.9 C32.6,67.9 33,67.7 33,67.1 C33,66.6 32.6,66.4 32,66.4 Z" id="Shape"></path>
            <path d="M35.3,59.2 C34.7,59.2 34.3,59.6 34.3,60.2 L34.3,66.9 C34.3,67.8 34.8,68.1 35.5,68.1 L39.6,68.1 C40.2,68.1 40.6,67.8 40.6,67.3 C40.6,66.8 40.1,66.5 39.6,66.5 L36.3,66.5 L36.3,60.3 C36.3,59.6 35.9,59.2 35.3,59.2 Z" id="Shape"></path>
            <path d="M45.6,59.2 C42.8,59.2 41.2,61.1 41.2,63.6 C41.2,66.2 42.5,68.2 45.6,68.2 C48.6,68.2 50,66 50,63.6 C50,61 48.4,59.2 45.6,59.2 Z M45.6,66.6 C43.8,66.6 43.2,65.2 43.2,63.6 C43.2,62 44,60.8 45.6,60.8 C47.2,60.8 48,62 48,63.6 C48,65.2 47.4,66.6 45.6,66.6 Z" id="Shape"></path>
            <path d="M52.6,59.4 C51.9,59.4 51.4,59.7 51.4,60.6 L51.4,67.3 C51.4,67.9 51.8,68.3 52.4,68.3 C53,68.3 53.4,67.9 53.4,67.3 L53.4,65 L55.6,65 C57.5,65 58.6,63.8 58.6,62.3 C58.6,60.4 57.3,59.6 55.6,59.6 L52.6,59.6 L52.6,59.4 Z M56.6,62.1 C56.6,62.8 56,63.3 55.2,63.3 L53.4,63.3 L53.4,60.9 L55,60.9 C56,60.9 56.6,61.2 56.6,62.1 Z" id="Shape"></path>
            <path d="M61.6,67.2 L61.6,61.9 L63.4,67.6 C63.5,68 63.8,68.2 64.2,68.2 C64.6,68.2 64.9,68 65,67.6 L66.8,61.9 L66.8,67.2 C66.8,67.7 67,68.2 67.7,68.2 C68.3,68.2 68.6,67.7 68.6,67.2 L68.6,60.2 C68.6,59.4 68.1,59.2 67.5,59.2 L66.9,59.2 C66.3,59.2 66,59.4 65.8,60.1 L64.1,65.6 L62.4,60.1 C62.2,59.4 61.9,59.2 61.3,59.2 L60.7,59.2 C60.2,59.2 59.6,59.4 59.6,60.2 L59.6,67.2 C59.6,67.7 59.8,68.2 60.5,68.2 C61.2,68.2 61.6,67.7 61.6,67.2 Z" id="Shape"></path>
            <path d="M76.4,66.4 L72.5,66.4 L72.5,64.3 L75.8,64.3 C76.3,64.3 76.7,64.2 76.7,63.5 C76.7,62.9 76.3,62.7 75.8,62.7 L72.5,62.7 L72.5,60.8 L76.3,60.8 C76.9,60.8 77.3,60.6 77.3,60 C77.3,59.4 76.9,59.2 76.3,59.2 L71.7,59.2 C71,59.2 70.5,59.5 70.5,60.4 L70.5,66.7 C70.5,67.6 71,67.9 71.7,67.9 L76.4,67.9 C77,67.9 77.4,67.7 77.4,67.1 C77.4,66.6 77,66.4 76.4,66.4 Z" id="Shape"></path>
            <path d="M85.3,59.2 C84.7,59.2 84.4,59.5 84.4,60.1 L84.4,65.2 L81,59.6 C80.8,59.2 80.4,59.1 80,59.1 C79.2,59.1 78.8,59.4 78.8,60.3 L78.8,67.1 C78.8,67.7 79.2,68 79.7,68 C80.3,68 80.6,67.7 80.6,67.1 L80.6,62.1 L84,67.5 C84.3,67.9 84.5,68 85.1,68 C85.9,68 86.3,67.6 86.3,66.8 L86.3,60 C86.3,59.5 85.9,59.2 85.3,59.2 Z" id="Shape"></path>
            <path d="M94,59.4 L88.3,59.4 C87.7,59.4 87.3,59.7 87.3,60.2 C87.3,60.7 87.8,61 88.3,61 L90.2,61 L90.2,67.2 C90.2,67.8 90.6,68.2 91.2,68.2 C91.8,68.2 92.2,67.8 92.2,67.2 L92.2,61 L94,61 C94.6,61 95,60.7 95,60.2 C95,59.7 94.6,59.4 94,59.4 Z" id="Shape"></path>
            <path d="M29.1,75.7 C30.9,75.7 30.6,77.3 31.7,77.3 C32.3,77.3 32.6,77 32.6,76.4 C32.6,75.6 31.4,74.1 29.1,74.1 C26.3,74.1 24.9,76.2 24.9,78.6 C24.9,81.6 26.5,83.1 29.2,83.1 C31.1,83.1 32.6,81.9 32.6,80.6 C32.6,80.1 32.1,79.8 31.6,79.8 C30.7,79.8 30.7,81.5 29.1,81.5 C27.4,81.5 26.8,80.1 26.8,78.6 C26.9,76.8 27.9,75.7 29.1,75.7 Z" id="Shape"></path>
            <path d="M41.2,76.8 C41.2,75.7 40.6,74.4 38.2,74.4 L35,74.4 C34.3,74.4 33.8,74.7 33.8,75.6 L33.8,82.3 C33.8,82.9 34.2,83.3 34.8,83.3 C35.4,83.3 35.8,82.9 35.8,82.3 L35.8,79.8 L37.7,79.8 C38.8,79.8 39.1,80.4 39.1,81.9 C39.1,82.2 39.2,83.3 40.3,83.3 C40.8,83.3 41.2,83 41.2,82.5 C41.2,82.1 40.9,81.7 40.9,80.7 C40.9,79.8 40.7,79.1 39.7,78.9 C40.7,78.6 41.2,77.7 41.2,76.8 Z M37.8,78.2 L35.8,78.2 L35.8,75.9 L37.8,75.9 C38.7,75.9 39.2,76.1 39.2,77.1 C39.3,78 38.5,78.2 37.8,78.2 Z" id="Shape"></path>
            <path d="M48.7,81.4 L44.8,81.4 L44.8,79.3 L48.1,79.3 C48.6,79.3 49,79.2 49,78.5 C49,77.9 48.6,77.7 48.1,77.7 L44.8,77.7 L44.8,75.8 L48.6,75.8 C49.2,75.8 49.6,75.6 49.6,75 C49.6,74.4 49.2,74.2 48.6,74.2 L44,74.2 C43.3,74.2 42.8,74.5 42.8,75.4 L42.8,81.7 C42.8,82.6 43.3,82.9 44,82.9 L48.7,82.9 C49.3,82.9 49.7,82.7 49.7,82.1 C49.6,81.6 49.2,81.4 48.7,81.4 Z" id="Shape"></path>
            <path d="M54.5,74.4 L52.1,74.4 C51.4,74.4 50.9,74.7 50.9,75.6 L50.9,81.9 C50.9,82.8 51.4,83.1 52.1,83.1 L54.5,83.1 C57.1,83.1 58.6,81.5 58.6,78.8 C58.6,75.3 56.7,74.4 54.5,74.4 Z M54.6,81.4 L52.9,81.4 L52.9,75.9 L54.5,75.9 C55.9,75.9 56.6,76.9 56.6,78.6 C56.7,80 56.2,81.4 54.6,81.4 Z" id="Shape"></path>
            <path d="M61.1,74.2 C60.5,74.2 60.1,74.6 60.1,75.2 L60.1,82.2 C60.1,82.8 60.5,83.2 61.1,83.2 C61.7,83.2 62.1,82.8 62.1,82.2 L62.1,75.2 C62,74.6 61.7,74.2 61.1,74.2 Z" id="Shape"></path>
            <path d="M69.8,74.4 L64.1,74.4 C63.5,74.4 63.1,74.7 63.1,75.2 C63.1,75.7 63.6,76 64.1,76 L66,76 L66,82.2 C66,82.8 66.4,83.2 67,83.2 C67.6,83.2 68,82.8 68,82.2 L68,76 L69.9,76 C70.5,76 70.9,75.7 70.9,75.2 C70.9,74.7 70.4,74.4 69.8,74.4 Z" id="Shape"></path>
            <path d="M28.7,26.3 L29.5,26.3 C29.7,26.8 29.9,27.3 30.1,27.8 C30.4,28.4 30.9,28.7 31.5,28.7 C31.7,28.7 31.9,28.7 32.1,28.6 C33,28.2 33.3,27.3 33,26.5 C32.7,25.8 32.4,25.1 32.2,24.4 C32,23.7 31.4,23.2 30.7,23.2 L28.7,23.2 C28.4,23.2 28.2,23 28.2,22.7 L28.2,18.9 C28.2,18.6 28.4,18.4 28.7,18.4 L30.7,18.4 C31.4,18.4 32,17.9 32.2,17.2 C32.5,16 33,14.9 33.6,13.8 C34,13.2 33.9,12.5 33.4,12 L31.9,10.6 C31.8,10.4 31.8,10.3 31.8,10.2 C31.8,10.1 31.8,10 32,9.8 L34.7,7.1 C34.9,6.9 35.2,6.9 35.4,7.1 L36.8,8.5 C37.3,9 38.1,9.1 38.7,8.7 C39.8,8.1 40.9,7.6 42.1,7.3 C42.8,7.1 43.3,6.5 43.3,5.8 L43.3,3.8 C43.3,3.5 43.5,3.3 43.8,3.3 L47.6,3.3 C47.9,3.3 48.1,3.5 48.1,3.8 L48.1,5.8 C48.1,6.5 48.6,7.1 49.3,7.3 C50.5,7.6 51.6,8.1 52.7,8.7 C53.3,9.1 54.1,9 54.6,8.5 L56,7.1 C56,7 56.2,7 56.3,7 C56.4,7 56.5,7 56.7,7.2 L59.4,9.9 C59.5,10 59.6,10.2 59.6,10.3 C59.6,10.4 59.6,10.5 59.4,10.7 L57.9,12 C57.4,12.5 57.3,13.3 57.7,13.9 C58.3,15 58.8,16.1 59.1,17.3 C59.3,18 59.9,18.5 60.6,18.5 L62.6,18.5 C62.9,18.5 63.1,18.7 63.1,19 L63.1,22.8 C63.1,23.1 62.9,23.3 62.6,23.3 L60.6,23.3 C59.7,23.3 59.1,24 59.1,24.8 C59.1,25.6 59.8,26.3 60.6,26.3 L62.6,26.3 C64.6,26.3 66.2,24.7 66.2,22.7 L66.2,18.9 C66.2,16.9 64.6,15.3 62.6,15.3 L61.8,15.3 C61.6,14.6 61.3,14 61,13.3 L61.6,12.7 C62.3,12 62.7,11.1 62.7,10.1 C62.7,9.1 62.3,8.2 61.6,7.5 L58.8,5 C57.4,3.6 55,3.6 53.7,5 L53.1,5.6 C52.5,5.3 51.8,5 51.1,4.8 L51.1,3.9 C51.1,1.9 49.5,0.3 47.5,0.3 L43.7,0.3 C41.7,0.3 40.1,1.9 40.1,3.9 L40.1,4.7 C39.4,4.9 38.8,5.2 38.1,5.5 L37.5,5 C36.1,3.6 33.8,3.6 32.4,5 L29.8,7.6 C29.1,8.3 28.7,9.2 28.7,10.2 C28.7,11.2 29.1,12.1 29.8,12.8 L30.4,13.4 C30.1,14 29.8,14.7 29.6,15.4 L28.7,15.4 C26.7,15.4 25.1,17 25.1,19 L25.1,22.8 C25.1,24.7 26.7,26.3 28.7,26.3 Z" id="Shape"></path>
            <path d="M50.5,31.3 C50.8,31.3 51,31.2 51.3,31.1 C56.9,28 58.9,20.9 55.8,15.3 C54.3,12.6 51.8,10.6 48.9,9.8 C45.9,8.9 42.8,9.3 40.1,10.8 C37.4,12.3 35.4,14.8 34.6,17.7 C33.7,20.7 34.1,23.8 35.6,26.5 C36,27.3 37,27.6 37.8,27.1 C38.6,26.7 38.9,25.7 38.4,24.9 C37.3,22.9 37.1,20.7 37.7,18.5 C38.3,16.3 39.7,14.6 41.7,13.5 C43.7,12.4 45.9,12.2 48.1,12.8 C50.3,13.4 52,14.8 53.1,16.8 C55.3,20.9 53.9,26 49.8,28.2 C49,28.6 48.7,29.6 49.2,30.4 C49.4,31 49.9,31.3 50.5,31.3 Z" id="Shape"></path>
            <path d="M63.7,36.6 L48.3,47.7 C48,47.9 47.7,48 47.4,48 C47.3,48 47.2,48 47.1,48 L37.3,48.2 C37.3,48.2 35.7,48.4 33.4,49.7 C33,49.9 32.7,50 32.3,50.2 C32.3,50.2 32.2,50.2 32.2,50.2 C31.4,50.2 30.8,49.7 30.5,49 C30.3,48.3 30.5,47.3 31.4,46.8 L31.7,46.6 C34.7,44.8 37.1,44.6 37.2,44.6 L46.8,44.5 C50.4,41.9 61.8,33.7 61.9,33.7 C62.5,33.3 62.7,32.5 62.3,31.9 C62.1,31.5 61.6,31.3 61.2,31.3 C61,31.3 60.9,31.4 60.7,31.5 C59.7,32.2 55.8,34.6 53,36.4 C51.3,37.4 50,38.3 49.8,38.5 C49.8,38.5 49.7,38.5 49.7,38.5 L38.5,38.5 C38.1,38.5 37.7,38.3 37.5,37.9 C37.2,37.4 37.1,36.6 37.4,36 C37.7,35.4 38.3,35.1 39,35.1 L43.9,35.1 C44.6,35.1 45.1,34.5 45.1,33.8 C45.1,33.1 44.5,32.5 43.9,32.5 C36.2,32.5 33.9,32.5 33.4,32.5 L28.6,37.6 C28,38.1 27.2,38.3 26.4,38 C25.8,37.7 25.4,37.1 25.4,36.3 C25.4,35.9 25.5,35.7 25.7,35.5 L31,30 C31,30 31.1,29.9 31.1,29.8 C31.7,29.2 32.5,28.9 33.3,28.9 L43.9,28.9 C46.5,28.9 48.6,31.1 48.6,33.7 C48.6,34.2 48.5,34.8 48.3,35.3 L58.8,28.5 C59.8,27.8 61.1,27.6 62.3,27.9 C63.5,28.2 64.5,29 65.2,30.1 C66.5,32.2 65.9,35.2 63.7,36.6 Z" id="Shape"></path>
            <path d="M43.1,24.1 C43,23.5 42.3,23.1 41.7,23.2 C41.1,23.3 40.7,24 40.8,24.6 C41.1,25.8 42,27.2 44.6,27.5 C44.6,28.1 45.1,28.6 45.7,28.6 C46.3,28.6 46.8,28.1 46.8,27.5 C50,27.1 50.4,24.8 50.4,23.7 L50.4,23.5 C50.2,22.4 49.6,20.5 46.9,20.2 L46.9,17.7 C47.7,18 47.8,18.4 47.9,18.6 C48.1,19.2 48.7,19.5 49.3,19.3 C49.9,19.1 50.2,18.5 50,17.9 C49.7,16.9 48.9,15.7 46.8,15.3 C46.8,14.7 46.3,14.2 45.7,14.2 C45.1,14.2 44.6,14.7 44.6,15.3 C42.6,15.6 41.1,16.8 40.9,18.4 C40.8,19.4 41,20.4 41.7,21.1 C42.3,21.8 43.3,22.3 44.6,22.5 L44.6,25.3 C43.3,24.9 43.1,24.3 43.1,24.1 Z M46.9,22.6 C47.9,22.8 48.1,23.4 48.1,23.8 C48.1,24.3 48,24.9 46.9,25.2 L46.9,22.6 Z M43.4,19.5 C43.3,19.4 43.1,19.2 43.2,18.6 C43.3,18.1 43.8,17.7 44.6,17.5 L44.6,20 C43.9,19.9 43.6,19.7 43.4,19.5 Z" id="Shape"></path>
        </g>
    </g>
</svg>