<?xml version="1.0" encoding="UTF-8"?>
<svg width="96px" height="96px" viewBox="0 0 96 96" version="1.1" xmlns="http://www.w3.org/2000/svg" xmlns:xlink="http://www.w3.org/1999/xlink">
    <!-- Generator: Sketch 49.3 (51167) - http://www.bohemiancoding.com/sketch -->
    <title>Artboard Copy 9</title>
    <desc>Created with Sketch.</desc>
    <defs></defs>
    <g id="Artboard-Copy-9" stroke="none" stroke-width="1" fill="none" fill-rule="evenodd">
        <g id="FAQ-creator" fill="#0B82C5" fill-rule="nonzero">
            <g id="iKnowledge-FAQ" transform="translate(22.000000, 14.000000)">
                <g id="Group" transform="translate(0.468750, 0.447917)">
                    <g id="Oval-2">
                        <path d="M31.6,16.1 C31.6,22.4 27.6,25.4 24.4,27.8 C21.4,30.1 19.7,31.5 19.6,34.7 C19.5,36.5 17.9,38 16,38 L15.9,38 C14,37.9 12.4,36.3 12.5,34.4 C12.7,27.7 17,24.5 20.2,22.2 C23.2,20 24.6,18.8 24.6,16.1 C24.6,11.4 20.8,7.5 16.1,7.5 C11.4,7.5 7.6,11.3 7.6,16.1 C7.6,18 6,19.6 4.1,19.6 C2.2,19.6 0.6,18 0.6,16.1 C0.6,7.5 7.6,0.5 16.1,0.5 C24.6,0.5 31.6,7.5 31.6,16.1 Z" id="Shape"></path>
                    </g>
                    <path d="M19.2,45.7 C19.2,47.5 17.8,48.9 16,48.9 C14.2,48.9 12.8,47.5 12.8,45.7 C12.8,43.9 14.2,42.5 16,42.5 C17.8,42.5 19.2,43.9 19.2,45.7 Z" id="Shape"></path>
                </g>
            </g>
            <g id="iIntegrate-Services-overview">
                <g id="Combined-Shape-Copy-3">
                    <path d="M94.4,66.9 L90.7,67 C90.3,65.3 89.6,63.6 88.7,62.1 L91.4,59.5 C92,59 92,58.1 91.4,57.6 L86.3,52.5 C85.8,52 84.9,52 84.4,52.5 L81.8,55.2 C80.3,54.3 78.6,53.6 76.9,53.2 L77,49.5 C77,48.9 76.6,48.3 76,48.2 C76.8,45.2 77.2,42 77.2,38.7 C77,17.3 59.7,0 38.5,0 C17.3,0 0,17.3 0,38.5 C0,59.7 17.3,77 38.5,77 C41.8,77 45,76.6 48,75.8 C48.2,76.4 48.7,76.8 49.3,76.8 L53,76.7 C53.4,78.4 54.1,80.1 55,81.6 L52.3,84.2 C51.8,84.7 51.8,85.6 52.3,86.1 L57.4,91.2 C57.9,91.7 58.8,91.7 59.3,91.2 L61.9,88.5 C63.4,89.4 65.1,90.1 66.8,90.5 L66.7,94.2 C66.7,95 67.3,95.6 68.1,95.6 L75.3,95.6 C76.1,95.6 76.7,95 76.7,94.2 L76.6,90.5 C78.3,90.1 80,89.4 81.5,88.5 L84.1,91.2 C84.6,91.8 85.5,91.8 86,91.2 L91.1,86.1 C91.6,85.6 91.6,84.7 91.1,84.2 L88.4,81.6 C89.3,80.1 90,78.4 90.4,76.7 L94.1,76.8 C94.9,76.8 95.5,76.2 95.5,75.4 L95.5,68.2 C95.8,67.5 95.1,66.9 94.4,66.9 Z M57.5,52.4 L52.4,57.5 C51.9,58 51.9,58.9 52.4,59.4 L55.1,62 C54.3,63.4 53.7,64.8 53.2,66.4 C53.1,66.6 53.1,66.8 53,67 L52,67 L49.2,67 C48.4,67 47.8,67.6 47.8,68.4 L47.8,68.7 C44.8,69.6 41.7,70.1 38.4,70.1 C21.1,70 7,55.9 7,38.5 C7,21.1 21.1,7 38.5,7 C55.9,7 70,21.1 70,38.5 C70,41.8 69.5,44.9 68.6,47.9 L68.3,47.9 C67.5,47.9 66.9,48.5 66.9,49.3 L66.9,52.1 L66.9,53.1 C66.7,53.1 66.5,53.2 66.3,53.3 C64.8,53.8 63.3,54.4 61.9,55.2 L59.3,52.5 C58.9,51.8 58,51.8 57.5,52.4 Z M71.7,81.6 C66.3,81.6 61.9,77.2 61.9,71.8 C61.9,70.7 62.1,69.7 62.4,68.7 C63.4,65.8 65.7,63.4 68.7,62.5 C69.7,62.2 70.7,62 71.8,62 C77.2,62 81.6,66.4 81.6,71.8 C81.6,77.2 77.2,81.6 71.7,81.6 Z" id="Shape"></path>
                </g>
            </g>
        </g>
    </g>
</svg>