<?xml version="1.0" encoding="UTF-8"?>
<svg width="120px" height="120px" viewBox="0 0 120 120" version="1.1" xmlns="http://www.w3.org/2000/svg" xmlns:xlink="http://www.w3.org/1999/xlink">
    <!-- Generator: Sketch 49.3 (51167) - http://www.bohemiancoding.com/sketch -->
    <title>GDPR Policy</title>
    <desc>Created with Sketch.</desc>
    <defs></defs>
    <g id="GDPR-Policy" stroke="none" stroke-width="1" fill="none" fill-rule="evenodd">
        <g id="Page-1" transform="translate(12.000000, 12.000000)" fill="#0B82C5">
            <path d="M40.504,89.1514268 L88.454,89.1514268 L88.454,57.9179338 L40.504,57.9179338 L40.504,89.1514268 Z M35.674,51.5692564 C34.464,52.2391169 33.654,53.5188502 33.654,54.9885441 L33.654,65.9062695 L9.844,46.4903145 L15.744,39.1818371 L23.384,45.4105395 C24.474,46.3003541 25.804,46.7802541 27.194,46.7802541 C27.404,46.7802541 27.624,46.7702562 27.834,46.7402624 C28.384,46.6902729 28.924,46.5602999 29.424,46.3503437 C30.394,45.9804207 31.254,45.350552 31.924,44.5207248 L32.564,43.7308894 L35.374,40.2416163 L38.184,36.7623412 L45.144,42.4311602 C44.214,44.7906686 43.704,47.3601333 43.704,50.0395751 L43.704,51.0793585 L37.564,51.0793585 C36.874,51.0793585 36.234,51.259321 35.674,51.5692564 Z M28.994,34.732764 L32.474,34.2628619 L31.134,35.9125182 L31.124,35.9125182 L30.004,37.2822329 L27.194,40.7415122 L27.174,40.761508 L21.984,36.5323891 L21.074,35.7925432 L25.024,35.2626536 L28.994,34.732764 Z M35.614,15.3967923 L39.244,24.5548844 C39.844,26.0645699 40.994,27.2443241 42.484,27.8841908 C43.254,28.2141221 44.064,28.3740887 44.874,28.3740887 C45.474,28.3740887 46.094,28.2841075 46.684,28.0941471 C46.834,28.0541554 46.984,27.9941679 47.134,27.9341804 L50.574,26.5444699 L54.464,24.9747969 L56.384,24.2049573 L58.704,30.0437409 C57.214,30.4636534 55.784,31.0535305 54.454,31.8033743 C53.044,32.5732139 51.734,33.5130181 50.554,34.6027911 C50.124,34.9827119 49.714,35.3826286 49.324,35.8125391 C48.414,35.0626953 47.524,34.3428452 46.674,33.642991 C44.034,31.4934389 41.754,29.6338263 40.434,28.5540512 C39.724,27.974172 38.834,27.6642366 37.914,27.6642366 C37.824,27.6642366 37.734,27.6642366 37.644,27.6742345 L30.574,28.1541346 L26.904,18.9060612 L35.614,15.3967923 Z M46.714,16.9164757 L50.594,18.4461571 L52.624,19.2459904 L50.644,20.0358259 L50.634,20.0358259 L50.594,20.0458238 L50.594,20.0558217 L46.704,21.5955009 L44.824,22.3453447 L42.354,16.1166424 L42.344,16.1166424 L41.924,15.0368673 L46.714,16.9164757 Z M54.474,21.7454697 L54.474,21.8454489 L54.364,21.7854614 L54.474,21.7454697 Z M78.144,50.0395751 L78.144,51.0793585 L50.704,51.0793585 L50.704,49.9995834 C50.704,49.8196209 50.704,49.6296605 50.724,49.449698 C50.744,48.6798584 50.844,47.9400125 50.994,47.2101645 C51.274,45.8404499 51.764,44.5507186 52.414,43.3609665 C52.964,42.3511768 53.644,41.4213705 54.424,40.5915434 L54.424,39.9716726 C54.534,40.0516559 54.644,40.1416372 54.754,40.2416163 C56.534,38.471985 58.784,37.1722558 61.304,36.5923766 C62.304,36.3524266 63.354,36.2224537 64.424,36.2224537 C64.734,36.2224537 65.044,36.2324516 65.344,36.2624453 C66.994,36.3624245 68.564,36.7723391 70.004,37.4222037 C73.434,38.9618829 76.134,41.8912727 77.374,45.4905228 L77.384,45.4905228 C77.804,46.7202666 78.064,48.0199958 78.124,49.3797126 C78.134,49.5996667 78.144,49.8196209 78.144,50.0395751 Z M54.514,7.81837117 L63.914,7.78837742 L63.884,17.6463237 C63.874,19.2659863 64.504,20.7956676 65.654,21.945428 C66.804,23.0851906 68.324,23.7150594 69.934,23.7150594 L69.954,23.7150594 L79.934,23.6850656 L79.894,36.2024578 C76.584,32.4832327 71.984,29.9537596 66.804,29.3638825 C64.954,24.7048532 63.224,20.3257655 62.354,18.1362216 C61.984,17.1964174 61.264,16.4365757 60.344,16.0066653 L54.504,13.2472402 L54.514,7.81837117 Z M69.904,10.9577171 L69.904,9.80795668 L78.274,17.6763174 L76.144,17.6763174 L69.884,17.6563216 L69.904,10.9577171 Z M91.384,51.0793585 L87.594,51.0793585 C87.624,50.9293897 87.634,50.769423 87.634,50.6094564 C87.634,50.6094564 87.704,26.6944387 87.724,20.265778 C87.724,19.2459904 87.344,18.2761925 86.654,17.5363466 L71.514,1.26973547 C70.754,0.459904187 69.694,0 68.584,0 L68.574,0 L49.384,0.0499895855 C47.934,0.0499895855 46.754,1.2297438 46.754,2.6894397 L46.734,9.57800458 L40.254,6.51864195 C39.714,6.26869402 39.124,6.1387211 38.544,6.1387211 C38.034,6.1387211 37.524,6.23870027 37.044,6.4286607 L19.254,13.5971673 C17.904,14.1470527 17.244,15.676734 17.784,17.0264528 L22.414,28.70402 L15.474,29.1739221 C14.364,29.2539054 13.334,29.793793 12.634,30.6536138 L0.584,45.5805041 C-0.326,46.7202666 -0.156,48.3699229 0.974,49.2897313 L33.654,75.9541762 L33.654,92.0808165 C33.654,94.2403666 35.404,96 37.564,96 L91.384,96 C93.544,96 95.294,94.2403666 95.294,92.0808165 L95.294,54.9885441 C95.294,52.828994 93.544,51.0793585 91.384,51.0793585 Z" id="Fill-1"></path>
            <path d="M70.9944,70.95 C70.9944,72.64 70.3344,74.26 69.1844,75.47 L69.1844,77.98 C69.1844,80.58 67.0744,82.7 64.4744,82.7 C61.8844,82.7 59.7644,80.58 59.7644,77.98 L59.7644,75.47 C58.6144,74.26 57.9544,72.64 57.9544,70.95 C57.9544,67.34 60.8844,64.41 64.4744,64.41 C68.0744,64.41 70.9944,67.34 70.9944,70.95" id="Fill-3"></path>
        </g>
    </g>
</svg>