<?xml version="1.0" encoding="UTF-8"?>
<svg width="96px" height="96px" viewBox="0 0 96 96" version="1.1" xmlns="http://www.w3.org/2000/svg" xmlns:xlink="http://www.w3.org/1999/xlink">
    <!-- Generator: Sketch 49.3 (51167) - http://www.bohemiancoding.com/sketch -->
    <title>GDPR Policy Copy</title>
    <desc>Created with Sketch.</desc>
    <defs></defs>
    <g id="GDPR-Policy-Copy" stroke="none" stroke-width="1" fill="none" fill-rule="evenodd">
        <g id="Page-1" transform="translate(14.000000, 5.000000)" fill="#FFFFFF">
            <g id="Icon">
                <path d="M21.8856622,46.3258 L46.8019445,46.3258 L46.8019445,30.0959246 L21.8856622,30.0959246 L21.8856622,46.3258 Z M19.375847,26.7969582 C18.7470941,27.1450381 18.3261934,27.8100266 18.3261934,28.5737244 L18.3261934,34.2469075 L5.95379127,24.1577851 L9.01961119,20.3600774 L12.9895882,23.5967011 C13.5559854,24.0590759 14.247094,24.3084466 14.9693804,24.3084466 C15.0785028,24.3084466 15.1928215,24.3032514 15.3019439,24.2876657 C15.5877406,24.2616896 15.8683411,24.1941517 16.1281564,24.085052 C16.6321979,23.8928288 17.0790802,23.5655298 17.4272326,23.1343263 L17.7597961,22.7239037 L19.2199578,20.910771 L20.6801195,19.1028335 L24.2967477,22.0485248 C23.8134914,23.2745973 23.5484798,24.6097695 23.5484798,26.0020892 L23.5484798,26.5423923 L20.3579486,26.5423923 C19.9994036,26.5423923 19.66684,26.6359063 19.375847,26.7969582 Z M15.9047153,18.0482033 L17.7130294,17.8040279 L17.0167245,18.6612396 L17.0115282,18.6612396 L16.4295421,19.3729851 L14.9693804,21.1705321 L14.9589878,21.1809226 L12.2621055,18.9833434 L11.7892417,18.5988969 L13.8417822,18.3235501 L15.9047153,18.0482033 Z M19.3446691,8.00064282 L21.2309278,12.7594667 C21.5427061,13.5439453 22.1402812,14.1569816 22.9145306,14.4894759 C23.3146461,14.6609182 23.7355468,14.7440418 24.1564475,14.7440418 C24.4682258,14.7440418 24.7903967,14.6972848 25.0969787,14.5985755 C25.1749233,14.5777946 25.2528679,14.5466233 25.3308124,14.515452 L27.1183413,13.793316 L29.139704,12.9776661 L30.1373945,12.5776339 L31.3429373,15.6116439 C30.5686878,15.8298433 29.8256162,16.1363614 29.1345077,16.5260031 C28.4018287,16.9260353 27.7211127,17.4143862 27.1079487,17.9806655 C26.8845076,18.1780839 26.6714591,18.3858928 26.4688032,18.6092874 C25.9959395,18.2196457 25.5334683,17.8455897 25.0917824,17.4819241 C23.7199579,16.3649512 22.5352004,15.3986398 21.8492881,14.8375558 C21.4803505,14.5362329 21.0178793,14.375181 20.5398193,14.375181 C20.4930525,14.375181 20.4462858,14.375181 20.399519,14.3803762 L16.7257314,14.6297469 L14.8186875,9.82416596 L19.3446691,8.00064282 Z M25.1125676,8.79031666 L27.1287339,9.58518572 L28.1835838,10.0008035 L27.1547155,10.4112261 L27.1495192,10.4112261 L27.1287339,10.4164213 L27.1287339,10.4216166 L25.1073713,11.2216808 L24.130466,11.6113225 L22.8469787,8.37469885 L22.8417824,8.37469885 L22.6235376,7.81361481 L25.1125676,8.79031666 Z M29.1449003,11.2996092 L29.1449003,11.3515614 L29.0877409,11.3203901 L29.1449003,11.2996092 Z M41.4445541,26.0020892 L41.4445541,26.5423923 L27.1858933,26.5423923 L27.1858933,25.9813083 C27.1858933,25.8877943 27.1858933,25.789085 27.1962859,25.695571 C27.2066785,25.2955389 27.2586416,24.9110924 27.3365861,24.5318412 C27.4820827,23.8200957 27.7367016,23.149912 28.0744614,22.5316805 C28.3602582,22.006963 28.713607,21.5238073 29.1189187,21.0926038 L29.1189187,20.7705 C29.1760781,20.8120618 29.2332374,20.8588188 29.2903968,20.910771 C30.2153391,19.9912166 31.3845077,19.3158377 32.6939765,19.0145148 C33.213607,18.8898294 33.7592191,18.8222915 34.3152237,18.8222915 C34.4763091,18.8222915 34.6373946,18.8274867 34.7932837,18.8430724 C35.6506741,18.8950246 36.4664939,19.1080288 37.2147618,19.4457182 C38.9970944,20.2457825 40.4000968,21.7679827 41.0444386,23.6382629 L41.0496349,23.6382629 C41.2678797,24.2772753 41.4029836,24.9526542 41.4341615,25.6592045 C41.4393578,25.7734994 41.4445541,25.8877943 41.4445541,26.0020892 Z M29.1656855,4.06266408 L34.0502121,4.04707841 L34.0346232,9.16956791 C34.0294269,10.011194 34.3567941,10.806063 34.9543692,11.4035136 C35.5519443,11.995769 36.3417826,12.323068 37.1783877,12.323068 L37.1887803,12.323068 L42.3746927,12.3074824 L42.3539074,18.8119011 C40.6339305,16.8792783 38.2436302,15.5648869 35.5519443,15.2583688 C34.5906278,12.8373951 33.6916671,10.5618876 33.2395886,9.42413382 C33.0473253,8.93578289 32.6731913,8.54094597 32.1951313,8.3175514 L29.1604892,6.88366996 L29.1656855,4.06266408 Z M37.1627988,5.69396398 L37.1627988,5.09651338 L41.512106,9.18515358 L40.4052931,9.18515358 L37.1524062,9.17476313 L37.1627988,5.69396398 Z M48.3244618,26.5423923 L46.3550623,26.5423923 C46.3706512,26.464464 46.3758475,26.3813404 46.3758475,26.2982169 C46.3758475,26.2982169 46.4122216,13.8712444 46.4226142,10.5307162 C46.4226142,10.0008035 46.2251546,9.49686693 45.8666096,9.11242046 L37.9994039,0.659793272 C37.6044847,0.23898024 37.0536764,0 36.4768865,0 L36.4716902,0 L26.499981,0.0259761131 C25.7465168,0.0259761131 25.1333528,0.639012381 25.1333528,1.39751488 L25.1229602,4.97702326 L21.7557546,3.38728514 C21.4751542,3.25740458 21.1685722,3.18986668 20.8671865,3.18986668 C20.6021749,3.18986668 20.3371634,3.24181891 20.0877407,3.34052814 L10.8435142,7.06550275 C10.1420131,7.35123999 9.79905694,8.14610905 10.0796574,8.84746411 L12.4855466,14.9154841 L8.87931096,15.1596596 C8.30252111,15.2012214 7.7673017,15.4817634 7.40356036,15.9285525 L1.14201289,23.6850199 C0.669149142,24.2772753 0.757486326,25.134487 1.34466879,25.6124475 L18.3261934,39.4681062 L18.3261934,47.8480002 C18.3261934,48.9701683 19.2355467,49.8845275 20.3579486,49.8845275 L48.3244618,49.8845275 C49.4468637,49.8845275 50.3562171,48.9701683 50.3562171,47.8480002 L50.3562171,28.5737244 C50.3562171,27.4515563 49.4468637,26.5423923 48.3244618,26.5423923 Z" id="Fill-1"></path>
                <path d="M37.9166033,36.2979875 C37.9166033,37.176163 37.5736472,38.0179644 36.9760721,38.6467173 L36.9760721,39.9509899 C36.9760721,41.3020292 35.8796518,42.4036458 34.5286125,42.4036458 C33.1827695,42.4036458 32.0811529,41.3020292 32.0811529,39.9509899 L32.0811529,38.6467173 C31.4835778,38.0179644 31.1406217,37.176163 31.1406217,36.2979875 C31.1406217,34.4221214 32.663139,32.8996041 34.5286125,32.8996041 C36.3992823,32.8996041 37.9166033,34.4221214 37.9166033,36.2979875" id="Fill-3"></path>
            </g>
        </g>
        <path d="M20.024,74.244 L20.024,77.496 C20.024,77.856 19.748,78.156 19.352,78.156 C18.788,78.156 18.632,77.808 18.512,77.04 C17.948,77.748 17.168,78.204 15.944,78.204 C12.896,78.204 11.732,76.104 11.732,73.68 C11.732,70.764 13.556,69.156 16.232,69.156 C18.416,69.156 19.58,70.464 19.58,71.232 C19.58,71.916 19.076,72.096 18.656,72.096 C17.684,72.096 18.044,70.74 16.124,70.74 C14.768,70.74 13.7,71.628 13.7,73.812 C13.7,75.516 14.54,76.692 16.148,76.692 C17.192,76.692 18.104,75.984 18.2,74.928 L16.916,74.928 C16.496,74.928 16.028,74.772 16.028,74.172 C16.028,73.692 16.304,73.416 16.796,73.416 L19.22,73.416 C19.796,73.416 20.024,73.704 20.024,74.244 Z M21.788,76.848 L21.788,70.512 C21.788,69.636 22.244,69.36 22.94,69.36 L25.34,69.36 C27.488,69.36 29.456,70.296 29.456,73.68 C29.456,76.416 27.932,78 25.304,78 L22.94,78 C22.244,78 21.788,77.724 21.788,76.848 Z M23.756,70.944 L23.756,76.416 L25.412,76.416 C26.984,76.416 27.488,75.012 27.488,73.68 C27.488,71.976 26.84,70.944 25.4,70.944 L23.756,70.944 Z M30.896,77.172 L30.896,70.512 C30.896,69.636 31.352,69.36 32.048,69.36 L35.06,69.36 C36.716,69.36 38.048,70.176 38.048,72.096 C38.048,73.668 36.956,74.832 35.048,74.832 L32.864,74.832 L32.864,77.172 C32.864,77.76 32.48,78.156 31.88,78.156 C31.28,78.156 30.896,77.76 30.896,77.172 Z M32.864,70.872 L32.864,73.32 L34.7,73.32 C35.492,73.32 36.08,72.84 36.08,72.096 C36.08,71.232 35.468,70.872 34.496,70.872 L32.864,70.872 Z M39.344,77.172 L39.344,70.512 C39.344,69.636 39.8,69.36 40.496,69.36 L43.772,69.36 C46.112,69.36 46.736,70.644 46.736,71.76 C46.736,72.696 46.184,73.62 45.248,73.836 L45.248,73.86 C46.256,74.004 46.436,74.736 46.436,75.612 C46.436,76.608 46.7,76.98 46.7,77.388 C46.7,77.844 46.232,78.156 45.776,78.156 C44.696,78.156 44.612,77.112 44.612,76.764 C44.612,75.252 44.336,74.64 43.256,74.64 L41.312,74.64 L41.312,77.172 C41.312,77.76 40.928,78.156 40.328,78.156 C39.728,78.156 39.344,77.76 39.344,77.172 Z M41.312,70.872 L41.312,73.2 L43.28,73.2 C44.024,73.2 44.768,73.008 44.768,72.036 C44.768,71.112 44.204,70.872 43.34,70.872 L41.312,70.872 Z M51.908,77.172 L51.908,70.512 C51.908,69.636 52.364,69.36 53.06,69.36 L56.072,69.36 C57.728,69.36 59.06,70.176 59.06,72.096 C59.06,73.668 57.968,74.832 56.06,74.832 L53.876,74.832 L53.876,77.172 C53.876,77.76 53.492,78.156 52.892,78.156 C52.292,78.156 51.908,77.76 51.908,77.172 Z M53.876,70.872 L53.876,73.32 L55.712,73.32 C56.504,73.32 57.092,72.84 57.092,72.096 C57.092,71.232 56.48,70.872 55.508,70.872 L53.876,70.872 Z M61.628,74.856 C61.628,75.924 62.072,76.86 63.116,76.86 C64.16,76.86 64.604,75.924 64.604,74.856 C64.604,73.716 64.136,72.864 63.116,72.864 C62.096,72.864 61.628,73.716 61.628,74.856 Z M59.876,74.856 C59.876,73.008 61.004,71.568 63.116,71.568 C65.228,71.568 66.356,73.008 66.356,74.856 C66.356,76.608 65.504,78.156 63.116,78.156 C60.728,78.156 59.876,76.608 59.876,74.856 Z M67.58,77.28 L67.58,70.08 C67.58,69.504 67.928,69.204 68.456,69.204 C68.984,69.204 69.332,69.504 69.332,70.08 L69.332,77.28 C69.332,77.856 68.984,78.156 68.456,78.156 C67.928,78.156 67.58,77.856 67.58,77.28 Z M70.916,77.28 L70.916,72.444 C70.916,71.976 71.108,71.568 71.792,71.568 C72.476,71.568 72.668,71.976 72.668,72.444 L72.668,77.28 C72.668,77.748 72.476,78.156 71.792,78.156 C71.108,78.156 70.916,77.748 70.916,77.28 Z M70.88,70.068 C70.88,69.564 71.288,69.156 71.792,69.156 C72.296,69.156 72.704,69.564 72.704,70.068 C72.704,70.572 72.296,70.98 71.792,70.98 C71.288,70.98 70.88,70.572 70.88,70.068 Z M73.82,74.988 C73.82,72.972 74.96,71.568 77.108,71.568 C78.572,71.568 79.664,72.396 79.664,73.212 C79.664,73.716 79.292,73.968 78.848,73.968 C78.02,73.968 78.32,72.936 77.06,72.936 C76.376,72.936 75.572,73.404 75.572,74.988 C75.572,76.08 76.088,76.788 77.048,76.788 C78.272,76.788 78.008,75.66 78.932,75.66 C79.376,75.66 79.664,75.984 79.664,76.332 C79.664,77.1 78.8,78.156 77,78.156 C74.84,78.156 73.82,76.824 73.82,74.988 Z M81.8,72.228 L82.928,76.32 L82.952,76.32 L84.02,72.348 C84.14,71.904 84.38,71.568 84.86,71.568 C85.556,71.568 85.76,72.144 85.76,72.36 C85.76,72.504 85.712,72.684 85.628,72.912 L83.6,78.66 C83.18,79.86 82.7,80.484 81.596,80.484 C80.816,80.484 80.492,80.1 80.492,79.68 C80.492,79.212 80.828,78.972 81.296,78.972 L81.476,78.972 C81.704,78.972 81.956,78.96 82.088,78.42 L80.264,73.224 C80.12,72.804 80.048,72.612 80.048,72.408 C80.048,71.928 80.432,71.568 80.9,71.568 C81.368,71.568 81.692,71.832 81.8,72.228 Z" id="GDPR-Policy" fill="#FFFFFF"></path>
    </g>
</svg>