<?xml version="1.0" encoding="UTF-8"?>
<svg width="96px" height="96px" viewBox="0 0 96 96" version="1.1" xmlns="http://www.w3.org/2000/svg" xmlns:xlink="http://www.w3.org/1999/xlink">
    <!-- Generator: Sketch 49.3 (51167) - http://www.bohemiancoding.com/sketch -->
    <title>Geo Controls</title>
    <desc>Created with Sketch.</desc>
    <defs>
        <polygon id="path-1" points="0 0.0742268041 94.9257812 0.0742268041 94.9257812 96 0 96"></polygon>
    </defs>
    <g id="Geo-Controls" stroke="none" stroke-width="1" fill="none" fill-rule="evenodd">
        <g id="Page-1">
            <path d="M51.87,35.0524055 C51.849,35.152033 51.849,35.2496876 51.84,35.3591791 C51.67,39.0976736 47.05,46.0508789 37.97,55.5805875 C32.08,49.5033145 28.09,44.4440167 26.03,40.4776614 L25.95,40.3198358 C24.68,38.1595976 24,35.6846945 24,33.1002998 C24,29.6873207 25.19,26.5604004 27.17,24.1131168 C28.68,22.249788 30.65,20.7889146 32.9,19.8912813 C34.48,19.2599788 36.2,18.9048712 38,18.9048712 C39.8,18.9048712 41.519,19.2599788 43.099,19.8912813 C45.349,20.7889146 47.32,22.249788 48.83,24.1131168 C50.809,26.5604004 52,29.6873207 52,33.1002998 C52,33.7602082 51.96,34.4122253 51.87,35.0524055 M38,12 C26.38,12 17,21.4606599 17,33.1002998 C17,36.8674002 17.99,40.5072538 19.84,43.7042091 C22.59,48.9509248 27.809,55.3428626 35.519,62.9786637 C36.9,64.3487874 39.14,64.3389233 40.51,62.9579491 C43.45,59.9799768 46.03,57.1973137 48.26,54.603055 C48.75,53.3009936 49.51,52.077845 50.57,51.0322502 C51.07,50.5390451 51.62,50.1050247 52.19,49.7410393 C56.37,44.1668355 58.599,39.5800282 58.83,35.8218055 C58.94,34.9241722 59,34.0166749 59,33.1002998 C59,21.4606599 49.62,12 38,12" id="Fill-1" fill="#0B82C5"></path>
            <g id="Group-5">
                <mask id="mask-2" fill="white">
                    <use xlink:href="#path-1"></use>
                </mask>
                <g id="Clip-4"></g>
                <path d="M87.1326146,88.2065814 C85.9748021,89.3645196 84.0955833,89.3645196 82.9367813,88.2065814 L62.32475,67.5913237 C63.8477187,66.3245196 65.2727187,64.9488495 66.5888646,63.4643134 L87.1326146,84.0003959 C88.2904271,85.1682309 88.2904271,87.0476536 87.1326146,88.2065814 M51.3393854,66.4036948 C47.3226667,68.2940041 42.8289688,69.3519835 38.0987604,69.3519835 C20.8800104,69.3519835 6.92688542,55.398334 6.92688542,38.1767258 C6.92688542,20.9570969 20.8800104,7.00146804 38.0987604,7.00146804 C55.3185,7.00146804 69.2706354,20.9570969 69.2706354,38.1767258 C69.2706354,43.4329732 67.9643854,48.3913237 65.6586562,52.7350763 C64.5513125,54.8243134 63.2143854,56.7730144 61.6805313,58.5554474 C60.3841771,60.0498804 58.9502708,61.4245608 57.3857396,62.652767 C55.5263125,64.1274062 53.5075625,65.3833237 51.3393854,66.4036948 M92.0310521,79.1113237 L70.7451146,57.8230763 C74.2086562,52.0828701 76.1977188,45.3628701 76.1977188,38.1767258 C76.1977188,17.135901 59.1373021,0.0736329897 38.0987604,0.0736329897 C17.0602188,0.0736329897 -0.000197916667,17.135901 -0.000197916667,38.1767258 C-0.000197916667,59.2185402 17.0602188,76.2798186 38.0987604,76.2798186 C44.7685521,76.2798186 51.0336042,74.5587464 56.4852188,71.5500866 L78.0393333,93.1045608 C81.8977187,96.9653443 88.1617813,96.9653443 92.0310521,93.1045608 C95.8914167,89.2358598 95.8914167,82.9711175 92.0310521,79.1113237" id="Fill-3" fill="#0B82C5" mask="url(#mask-2)"></path>
            </g>
            <path d="M52,50 C50.8196388,51.5912779 49.4968201,53.2555781 48,55 C48.4996184,53.6602434 49.271941,52.4026369 50.3515645,51.3286004 C50.8603409,50.821501 51.4199949,50.3742394 52,50" id="Fill-6" fill="#0B82C5"></path>
            <path d="M38,25 C34.6861063,25 32,27.69 32,31 C32,34.311 34.6861063,37 38,37 C41.3138937,37 44,34.311 44,31 C44,27.69 41.3138937,25 38,25" id="Fill-8" fill="#0B82C5"></path>
            <path d="M44,31 C44,34.311 41.3138937,37 38,37 C34.6861063,37 32,34.311 32,31 C32,27.69 34.6861063,25 38,25 C41.3138937,25 44,27.69 44,31" id="Fill-10" fill="#0B82C5"></path>
        </g>
    </g>
</svg>