<?xml version="1.0" encoding="UTF-8"?>
<svg width="96px" height="96px" viewBox="0 0 96 96" version="1.1" xmlns="http://www.w3.org/2000/svg" xmlns:xlink="http://www.w3.org/1999/xlink">
    <!-- Generator: Sketch 49.3 (51167) - http://www.bohemiancoding.com/sketch -->
    <title>Help and FAQ</title>
    <desc>Created with Sketch.</desc>
    <defs>
        <polygon id="path-1" points="0.0005 0.98 96 0.98 96 96.9999 0.0005 96.9999"></polygon>
    </defs>
    <g id="Help-and-FAQ" stroke="none" stroke-width="1" fill="none" fill-rule="evenodd">
        <g id="Page-1" transform="translate(0.000000, -1.000000)">
            <g id="Group-3" transform="translate(0.000000, 0.020000)">
                <mask id="mask-2" fill="white">
                    <use xlink:href="#path-1"></use>
                </mask>
                <g id="Clip-2"></g>
                <path d="M80.7305,74.5099 C78.9105,75.7499 77.8205,77.8099 77.8205,80.0099 L77.8205,86.1399 L71.2095,80.8999 C70.0305,79.9599 68.5705,79.4599 67.0805,79.4599 C66.8605,79.4599 66.6505,79.4699 66.4295,79.4899 C65.2995,79.5999 64.1505,79.6499 63.0005,79.6499 C48.4695,79.6499 36.6505,70.8999 36.6505,60.1399 C36.6505,58.9699 36.7995,57.8209 37.0705,56.6999 C37.6505,54.2999 38.8205,52.0499 40.4805,50.0309 C42.7195,47.2999 45.8605,44.9999 49.5805,43.3599 C51.2695,42.6199 53.0895,42.0099 55.0005,41.5599 C56.7095,41.1499 58.4905,40.8699 60.3305,40.7299 C61.2095,40.6699 62.0995,40.6299 63.0005,40.6299 C64.3605,40.6299 65.7005,40.7099 67.0005,40.8599 C68.0195,40.9699 69.0195,41.1399 70.0005,41.3399 C71.2595,41.5999 72.4905,41.9199 73.6695,42.3099 C82.8895,45.3499 89.3495,52.1999 89.3495,60.1399 C89.3495,65.5499 86.2095,70.7899 80.7305,74.5099 Z M28.9805,43.3599 C28.9695,43.3599 28.9505,43.3699 28.9405,43.3699 C27.5305,43.3799 26.1695,43.7999 25.0005,44.5499 C24.4695,44.8899 23.9805,45.2899 23.5495,45.7699 L18.5305,51.2809 L18.5305,50.8399 C18.5305,46.7899 15.2305,43.4899 11.1795,43.4899 L6.6695,43.4899 L6.6695,7.6499 L60.3305,7.6499 L60.3305,34.0709 C52.4505,34.5709 45.3495,37.2699 40.0005,41.3899 C39.1905,42.0199 38.4105,42.6699 37.6795,43.3599 L28.9805,43.3599 Z M73.6695,35.3899 C71.5305,34.8099 69.2995,34.3999 67.0005,34.1799 L67.0005,6.4299 C67.0005,3.4199 64.5595,0.9799 61.5495,0.9799 L5.4505,0.9799 C2.4405,0.9799 0.0005,3.4199 0.0005,6.4299 L0.0005,44.7099 C0.0005,47.7199 2.4405,50.1599 5.4505,50.1599 L11.1795,50.1599 C11.5495,50.1599 11.8605,50.4599 11.8605,50.8399 L11.8605,61.4699 C11.8605,62.2399 12.1795,62.9699 12.7505,63.4799 C13.8605,64.4999 15.5805,64.4199 16.5995,63.2999 L23.7595,55.4399 L28.4805,50.2499 C28.6105,50.1099 28.7905,50.0309 28.9805,50.0309 L32.5595,50.0309 C31.1795,52.6299 30.3305,55.4499 30.0805,58.3999 C30.0305,58.9799 30.0005,59.5599 30.0005,60.1399 C30.0005,74.5899 44.7695,86.3099 63.0005,86.3099 C64.3795,86.3099 65.7405,86.2399 67.0805,86.1099 L80.0595,96.4099 C80.5405,96.7899 81.1395,96.9999 81.7505,96.9999 C83.2595,96.9999 84.4805,95.7809 84.4805,94.2699 L84.4805,80.0099 C91.5305,75.2099 96.0005,68.0899 96.0005,60.1399 C96.0005,48.6499 86.6605,38.8999 73.6695,35.3899 Z" id="Fill-1" fill="#0B82C5" mask="url(#mask-2)"></path>
            </g>
            <path d="M43,20.9196 C43,14.8996 38.29,9.9996 32.5,9.9996 C26.71,9.9996 22,14.8996 22,20.9196 C22,22.5696 23.34,23.9196 25,23.9196 C26.66,23.9196 28,22.5696 28,20.9196 C28,18.2096 30.02,15.9996 32.5,15.9996 C34.98,15.9996 37,18.2096 37,20.9196 C37,22.3106 36.4,22.8996 34.53,24.3796 C32.61,25.8996 30.03,27.9496 29.57,31.9996 C29.54,32.2896 29.51,32.5906 29.5,32.8996 C29.45,34.5606 30.75,35.9406 32.4,35.9996 L32.5,35.9996 C34.11,35.9996 35.44,34.7206 35.5,33.1006 C35.51,32.6806 35.57,32.3296 35.68,31.9996 C36.02,30.9096 36.86,30.1906 38.26,29.0796 C40.26,27.4996 43,25.3296 43,20.9196" id="Fill-4" fill="#0B82C5"></path>
            <path d="M32.5,36.9997 C31.12,36.9997 30,38.1197 30,39.4997 C30,40.1597 30.26,40.7497 30.67,41.1897 C31.13,41.6897 31.78,41.9997 32.5,41.9997 C33.88,41.9997 35,40.8797 35,39.4997 C35,38.7707 34.68,38.1197 34.18,37.6597 C33.73,37.2497 33.15,36.9997 32.5,36.9997" id="Fill-6" fill="#0B82C5"></path>
            <path d="M62.6729,50.0524 C62.7229,50.0524 62.7629,50.0624 62.8129,50.0624 C63.4119,50.0624 63.9429,49.8424 64.3719,49.5024 C64.9429,49.0424 65.3129,48.3524 65.3129,47.5624 C65.3129,46.1824 64.1929,45.0624 62.8129,45.0624 C61.4329,45.0624 60.3129,46.1824 60.3129,47.5624 C60.3129,48.8924 61.3619,49.9724 62.6729,50.0524" id="Fill-8" fill="#0B82C5"></path>
            <path d="M62.9199,51.4899 C61.2599,51.4899 59.9199,52.8299 59.9199,54.4899 L59.9199,73.2399 C59.9199,74.8899 61.2599,76.2399 62.9199,76.2399 C64.5799,76.2399 65.9199,74.8899 65.9199,73.2399 L65.9199,54.4899 C65.9199,52.8299 64.5799,51.4899 62.9199,51.4899" id="Fill-10" fill="#0B82C5"></path>
        </g>
    </g>
</svg>