<?xml version="1.0" encoding="UTF-8"?>
<svg width="96px" height="96px" viewBox="0 0 96 96" version="1.1" xmlns="http://www.w3.org/2000/svg" xmlns:xlink="http://www.w3.org/1999/xlink">
    <!-- Generator: Sketch 49.3 (51167) - http://www.bohemiancoding.com/sketch -->
    <title>i800 clic to call</title>
    <desc>Created with Sketch.</desc>
    <defs></defs>
    <g id="i800-clic-to-call" stroke="none" stroke-width="1" fill="none" fill-rule="evenodd">
        <path d="M38,60 C50.1502645,60 60,50.1502645 60,38 C60,25.8497355 50.1502645,16 38,16 C25.8497355,16 16,25.8497355 16,38" id="Oval" stroke="#0B82C5" stroke-width="7" stroke-linecap="round" transform="translate(38.000000, 38.000000) rotate(-90.000000) translate(-38.000000, -38.000000) "></path>
        <path d="M38,72 C56.7776815,72 72,56.7776815 72,38 C72,19.2223185 56.7776815,4 38,4 C19.2223185,4 4,19.2223185 4,38" id="Oval-Copy" stroke="#0B82C5" stroke-width="7" stroke-linecap="round" transform="translate(38.000000, 38.000000) rotate(-90.000000) translate(-38.000000, -38.000000) "></path>
        <path d="M62.2548615,88.8572083 L67.2499943,83.8427702 C68.7533943,82.3335598 71.1955975,82.3288496 72.7048079,83.8322496 C72.7069574,83.8343908 72.7091044,83.8365346 72.7112489,83.838681 L79.742437,90.8795929 C80.9135046,92.0516707 82.8129994,92.0524897 83.9850773,90.881422 C83.9856873,90.8808126 83.986297,90.8802029 83.9869064,90.8795929 L90.8777637,83.9754714 C92.0481174,82.8041081 92.0481174,80.9060235 90.8777637,79.7346602 L83.7943357,72.6367525 C82.2895952,71.130714 82.2895952,68.6903196 83.7943357,67.1842811 L88.7257204,62.2439346 C89.8967881,61.0718567 89.8959691,59.172362 88.7238912,58.0012943 C88.4221279,57.6997911 88.0595356,57.4661085 87.6603063,57.3158378 L45.1903992,41.3300788 C43.6397541,40.7464128 41.9095532,41.5303043 41.3258873,43.0809493 C41.0697726,43.7613778 41.0694664,44.5116615 41.3250257,45.1922988 L57.3209009,87.794512 C57.9033011,89.3456329 59.6328616,90.1309362 61.1839825,89.5485361 C61.5863417,89.3974621 61.9515434,89.1616986 62.2548615,88.8572083 Z" id="Path-11" stroke="#0B82C5" stroke-width="7" stroke-linejoin="round"></path>
    </g>
</svg>