<?xml version="1.0" encoding="UTF-8"?>
<svg width="96px" height="96px" viewBox="0 0 96 96" version="1.1" xmlns="http://www.w3.org/2000/svg" xmlns:xlink="http://www.w3.org/1999/xlink">
    <!-- Generator: Sketch 49.3 (51167) - http://www.bohemiancoding.com/sketch -->
    <title>i800 click to call</title>
    <desc>Created with Sketch.</desc>
    <defs></defs>
    <g id="i800-click-to-call" stroke="none" stroke-width="1" fill="none" fill-rule="evenodd">
        <path d="M38,63.5 C36.0670034,63.5 34.5,61.9329966 34.5,60 C34.5,58.0670034 36.0670034,56.5 38,56.5 C48.2172679,56.5 56.5,48.2172679 56.5,38 C56.5,27.7827321 48.2172679,19.5 38,19.5 C27.7827321,19.5 19.5,27.7827321 19.5,38 C19.5,39.9329966 17.9329966,41.5 16,41.5 C14.0670034,41.5 12.5,39.9329966 12.5,38 C12.5,23.9167389 23.9167389,12.5 38,12.5 C52.0832611,12.5 63.5,23.9167389 63.5,38 C63.5,52.0832611 52.0832611,63.5 38,63.5 Z" id="Oval" fill="#0B82C5" fill-rule="nonzero" transform="translate(38.000000, 38.000000) scale(-1, 1) translate(-38.000000, -38.000000) "></path>
        <path d="M38,75.5 C36.0670034,75.5 34.5,73.9329966 34.5,72 C34.5,70.0670034 36.0670034,68.5 38,68.5 C54.8446849,68.5 68.5,54.8446849 68.5,38 C68.5,21.1553151 54.8446849,7.5 38,7.5 C21.1553151,7.5 7.5,21.1553151 7.5,38 C7.5,39.9329966 5.93299662,41.5 4,41.5 C2.06700338,41.5 0.5,39.9329966 0.5,38 C0.5,17.2893219 17.2893219,0.5 38,0.5 C58.7106781,0.5 75.5,17.2893219 75.5,38 C75.5,58.7106781 58.7106781,75.5 38,75.5 Z" id="Oval-Copy" fill="#0B82C5" fill-rule="nonzero" transform="translate(38.000000, 38.000000) scale(-1, 1) translate(-38.000000, -38.000000) "></path>
        <path d="M64.7345039,91.3273042 C64.0773146,91.9870333 63.2860443,92.497854 62.4142661,92.825181 C59.0535042,94.0870481 55.306123,92.3855576 54.0442559,89.0247956 L38.0483807,46.4225824 C37.494669,44.9478683 37.4953324,43.3222537 38.0502475,41.8479919 C39.314857,38.488261 43.0636257,36.7898295 46.4233566,38.054439 L88.8932638,54.040198 C89.7582606,54.3657846 90.5438772,54.8720968 91.1976977,55.5253538 C93.7371998,58.062667 93.7389742,62.178239 91.2028399,64.7165606 L86.2702762,69.6580876 C86.1309484,69.7975356 86.1309484,70.023498 86.271735,70.164407 L93.3537042,77.2608537 C95.8894705,79.7988076 95.8894705,83.911324 93.3550159,86.4479643 L86.462847,93.3533994 C83.9193817,95.8946758 79.8038097,95.8929014 77.2658537,93.3527559 L70.2353084,86.3124875 C70.0949703,86.1726883 69.8688404,86.1731244 69.7296366,86.3128661 L64.7345039,91.3273042 Z M64.7703519,81.3726743 C67.6379482,78.4939953 72.2962247,78.4850109 75.1749038,81.3526072 C75.1790022,81.3566931 77.4088928,83.5896558 81.8645757,88.0514953 L88.0491218,81.8550452 L81.3183951,75.110559 C78.448242,72.23793 78.448242,67.5831036 81.3172162,64.7116551 L85.7023255,60.3185773 L44.9891749,44.994065 L60.3241428,85.8360672 L64.7703519,81.3726743 Z" id="Path-11" fill="#0B82C5" fill-rule="nonzero"></path>
    </g>
</svg>