<?xml version="1.0" encoding="UTF-8"?>
<svg width="96px" height="96px" viewBox="0 0 96 96" version="1.1" xmlns="http://www.w3.org/2000/svg" xmlns:xlink="http://www.w3.org/1999/xlink">
    <!-- Generator: Sketch 49.3 (51167) - http://www.bohemiancoding.com/sketch -->
    <title>i800 call conversions</title>
    <desc>Created with Sketch.</desc>
    <defs></defs>
    <g id="i800-call-conversions" stroke="none" stroke-width="1" fill="none" fill-rule="evenodd">
        <path d="M55.017622,91.5803629 L39.95619,80.2097956 C39.2052257,79.6428581 38.76376,78.7564304 38.76376,77.8154918 L38.76376,50.1038922 C38.76376,49.4399717 38.5435233,48.794806 38.137553,48.2694694 L7.66288498,8.83442286 C6.64976121,7.52341324 6.89124541,5.63933086 8.20225504,4.62620709 C8.72759162,4.22023678 9.3727574,4 10.0366779,4 L85.9381714,4 C87.5950256,4 88.9381714,5.34314575 88.9381714,7 C88.9381714,7.64757055 88.7286343,8.27775744 88.3408699,8.79639637 L58.8199702,48.2809015 C58.4322057,48.7995404 58.2226687,49.4297273 58.2226687,50.0772978 L58.2226687,89.9841604 C58.2226687,91.0887299 57.3272382,91.9841604 56.2226687,91.9841604 C55.7877673,91.9841604 55.3647174,91.8424012 55.017622,91.5803629 Z" id="Path-7-Copy" stroke="#0B82C5" stroke-width="7"></path>
    </g>
</svg>