<?xml version="1.0" encoding="UTF-8"?>
<svg width="96px" height="96px" viewBox="0 0 96 96" version="1.1" xmlns="http://www.w3.org/2000/svg" xmlns:xlink="http://www.w3.org/1999/xlink">
    <!-- Generator: Sketch 49.3 (51167) - http://www.bohemiancoding.com/sketch -->
    <title>iAccount</title>
    <desc>Created with Sketch.</desc>
    <defs>
        <polygon id="path-1" points="0 0 95 0 95 89.9996 0 89.9996"></polygon>
    </defs>
    <g id="iAccount" stroke="none" stroke-width="1" fill="none" fill-rule="evenodd">
        <g id="Page-1">
            <g id="Group-3">
                <mask id="mask-2" fill="white">
                    <use xlink:href="#path-1"></use>
                </mask>
                <g id="Clip-2"></g>
                <path d="M88,81.9996 C88,82.5506 87.55,82.9996 87,82.9996 L8,82.9996 C7.45,82.9996 7,82.5506 7,81.9996 L7,24.9996 C7,24.4496 7.45,23.9996 8,23.9996 L87,23.9996 C87.55,23.9996 88,24.4496 88,24.9996 L88,81.9996 Z M46,7.9996 C46,7.4496 46.45,6.9996 47,6.9996 L52,6.9996 C52.55,6.9996 53,7.4496 53,7.9996 L53,15.9996 C53,16.5506 52.55,16.9996 52,16.9996 L47,16.9996 C46.45,16.9996 46,16.5506 46,15.9996 L46,7.9996 Z M87,16.9996 L59.93,16.9996 C59.97,16.6696 60,16.3406 60,15.9996 L60,7.9996 C60,3.5796 56.42,-0.0004 52,-0.0004 L47,-0.0004 C42.58,-0.0004 39,3.5796 39,7.9996 L39,15.9996 C39,16.3406 39.03,16.6696 39.07,16.9996 L8,16.9996 C3.58,16.9996 0,20.5796 0,24.9996 L0,81.9996 C0,86.4196 3.58,89.9996 8,89.9996 L87,89.9996 C91.42,89.9996 95,86.4196 95,81.9996 L95,24.9996 C95,20.5796 91.42,16.9996 87,16.9996 Z" id="Fill-1" fill="#0B82C5" mask="url(#mask-2)"></path>
            </g>
            <path d="M32.5,39.9996 C34.43,39.9996 36,41.5696 36,43.4996 C36,45.4306 34.43,46.9996 32.5,46.9996 C30.57,46.9996 29,45.4306 29,43.4996 C29,41.5696 30.57,39.9996 32.5,39.9996 M32.5,53.9996 C38.3,53.9996 43,49.3006 43,43.4996 C43,37.6996 38.3,32.9996 32.5,32.9996 C26.7,32.9996 22,37.6996 22,43.4996 C22,49.3006 26.7,53.9996 32.5,53.9996" id="Fill-4" fill="#0B82C5"></path>
            <path d="M41.8198,58.2897 C39.0898,57.1007 35.9798,56.4997 32.4498,56.4997 C28.7098,56.4997 25.6598,57.1697 23.1198,58.2497 C16.4798,61.0797 13.4698,66.8407 11.7198,71.4997 C11.0398,73.3107 11.9598,75.3297 13.7698,76.0107 C15.5798,76.6807 17.5998,75.7697 18.2798,73.9597 C21.0998,66.4307 25.0798,63.4997 32.4498,63.4997 C39.8398,63.4997 43.9698,66.6007 46.7098,74.1897 C47.2198,75.6097 48.5698,76.4997 49.9998,76.4997 C50.3898,76.4997 50.7898,76.4307 51.1898,76.2897 C52.9998,75.6407 53.9498,73.6297 53.2898,71.8107 C50.8498,65.0397 47.0598,60.5607 41.8198,58.2897" id="Fill-6" fill="#0B82C5"></path>
            <path d="M80.0898,33.4996 L56.9998,33.4996 C55.0698,33.4996 53.4998,35.0696 53.4998,36.9996 C53.4998,38.9306 55.0698,40.4996 56.9998,40.4996 L80.0898,40.4996 C82.0198,40.4996 83.5898,38.9306 83.5898,36.9996 C83.5898,35.0696 82.0198,33.4996 80.0898,33.4996" id="Fill-8" fill="#0B82C5"></path>
            <path d="M80.0898,44.4996 L56.9998,44.4996 C55.0698,44.4996 53.4998,46.0696 53.4998,47.9996 C53.4998,49.9306 55.0698,51.4996 56.9998,51.4996 L80.0898,51.4996 C82.0198,51.4996 83.5898,49.9306 83.5898,47.9996 C83.5898,46.0696 82.0198,44.4996 80.0898,44.4996" id="Fill-10" fill="#0B82C5"></path>
            <path d="M70.2598,55.4996 L56.9998,55.4996 C55.0698,55.4996 53.4998,57.0696 53.4998,58.9996 C53.4998,60.9306 55.0698,62.4996 56.9998,62.4996 L70.2598,62.4996 C72.1898,62.4996 73.7598,60.9306 73.7598,58.9996 C73.7598,57.0696 72.1898,55.4996 70.2598,55.4996" id="Fill-12" fill="#0B82C5"></path>
        </g>
    </g>
</svg>