<?xml version="1.0" encoding="UTF-8"?>
<svg width="96px" height="96px" viewBox="0 0 96 96" version="1.1" xmlns="http://www.w3.org/2000/svg" xmlns:xlink="http://www.w3.org/1999/xlink">
    <!-- Generator: Sketch 49.3 (51167) - http://www.bohemiancoding.com/sketch -->
    <title>iACD Call Recovery</title>
    <desc>Created with Sketch.</desc>
    <defs>
        <polygon id="path-1" points="0.0001 0.494100485 96.164 0.494100485 96.164 95.9999 0.0001 95.9999"></polygon>
    </defs>
    <g id="iACD-Call-Recovery" stroke="none" stroke-width="1" fill="none" fill-rule="evenodd">
        <g transform="translate(0.000000, -1.000000)" id="Page-1">
            <g>
                <g id="Group-3" transform="translate(0.000000, 0.505900)">
                    <mask id="mask-2" fill="white">
                        <use xlink:href="#path-1"></use>
                    </mask>
                    <g id="Clip-2"></g>
                    <path d="M84.6641,10.8779 L62.0161,10.8779 L66.4611,6.4819 C67.8351,5.1239 67.8481,2.9069 66.4891,1.5329 C65.1301,0.1579 62.9141,0.1469 61.5391,1.5059 L51.5391,11.3949 C50.8741,12.0519 50.5001,12.9469 50.5001,13.8829 C50.5001,14.8169 50.8741,15.7139 51.5391,16.3709 L61.5441,26.2659 C62.2271,26.9399 63.1161,27.2769 64.0051,27.2769 C64.9071,27.2769 65.8101,26.9309 66.4941,26.2379 C67.8531,24.8639 67.8411,22.6479 66.4661,21.2889 L63.0171,17.8779 L84.6641,17.8779 C87.1451,17.8779 89.1641,19.8569 89.1641,22.2889 L89.1641,84.5889 C89.1641,87.0219 87.1451,88.9999 84.6641,88.9999 L11.5001,88.9999 C9.0181,88.9999 7.0001,87.0219 7.0001,84.5889 L7.0001,22.2889 C7.0001,19.8569 9.0181,17.8779 11.5001,17.8779 L41.3771,17.8779 C43.3101,17.8779 44.8771,16.3109 44.8771,14.3779 C44.8771,12.4449 43.3101,10.8779 41.3771,10.8779 L11.5001,10.8779 C5.1591,10.8779 0.0001,15.9969 0.0001,22.2889 L0.0001,84.5889 C0.0001,90.8809 5.1591,95.9999 11.5001,95.9999 L84.6641,95.9999 C91.0051,95.9999 96.1641,90.8809 96.1641,84.5889 L96.1641,22.2889 C96.1641,15.9969 91.0051,10.8779 84.6641,10.8779" id="Fill-1" fill="#0B82C5" mask="url(#mask-2)"></path>
                </g>
                <path d="M48.12,49.9504 L47.88,49.9504 C44.09,49.9504 41,46.8604 41,43.0704 C41,39.2704 44.09,36.1804 47.88,36.1804 L48.12,36.1804 C51.91,36.1804 55,39.2704 55,43.0704 C55,46.8604 51.91,49.9504 48.12,49.9504 M48.12,29.1804 L47.88,29.1804 C40.23,29.1804 34,35.4104 34,43.0704 C34,50.7204 40.23,56.9504 47.88,56.9504 L48.12,56.9504 C55.77,56.9504 62,50.7204 62,43.0704 C62,35.4104 55.77,29.1804 48.12,29.1804" id="Fill-4" fill="#0B82C5"></path>
                <path d="M71.5801,85.3164 C70.1341,85.3164 68.7801,84.4134 68.2761,82.9704 C64.4441,72.0104 58.3821,67.3344 48.0041,67.3344 C37.6511,67.3344 31.8121,71.7694 27.8501,82.6424 C27.1881,84.4584 25.1811,85.3954 23.3631,84.7324 C21.5471,84.0714 20.6111,82.0624 21.2731,80.2464 C24.3881,71.6984 30.5471,60.3344 48.0041,60.3344 C61.3101,60.3344 70.1021,66.9824 74.8841,80.6604 C75.5211,82.4854 74.5591,84.4814 72.7351,85.1194 C72.3521,85.2534 71.9631,85.3164 71.5801,85.3164" id="Fill-6" fill="#0B82C5"></path>
            </g>
        </g>
    </g>
</svg>