<?xml version="1.0" encoding="UTF-8"?>
<svg width="96px" height="96px" viewBox="0 0 96 96" version="1.1" xmlns="http://www.w3.org/2000/svg" xmlns:xlink="http://www.w3.org/1999/xlink">
    <!-- Generator: Sketch 49.3 (51167) - http://www.bohemiancoding.com/sketch -->
    <title>iACD Communication channel preference</title>
    <desc>Created with Sketch.</desc>
    <defs></defs>
    <g id="iACD-Communication-channel-preference" stroke="none" stroke-width="1" fill="none" fill-rule="evenodd">
        <g transform="translate(0.000000, 14.000000)" fill="#0B82C5" id="Page-1">
            <path d="M87.5,57 L8.5,57 C7.67,57 7,56.33 7,55.5 C7,54.67 7.67,54 8.5,54 L87.5,54 C88.33,54 89,54.67 89,55.5 C89,56.33 88.33,57 87.5,57 M48,14.5 C66.137,14.5 80.943,28.99 81.475,47 L14.525,47 C15.057,28.99 29.863,14.5 48,14.5 M88.49,47.06 C88.485,47.059 88.481,47.06 88.476,47.059 C88.011,26.818 72.632,10.208 52.918,7.809 C52.962,7.544 53,7.277 53,7 L53,5 C53,2.24 50.76,0 48,0 C45.24,0 43,2.24 43,5 L43,7 C43,7.277 43.038,7.544 43.082,7.809 C23.368,10.208 7.989,26.818 7.524,47.059 C7.519,47.06 7.515,47.059 7.51,47.06 C3.29,47.55 0,51.15 0,55.5 C0,60.19 3.81,64 8.5,64 L87.5,64 C92.19,64 96,60.19 96,55.5 C96,51.15 92.71,47.55 88.49,47.06"></path>
        </g>
    </g>
</svg>