<?xml version="1.0" encoding="UTF-8"?>
<svg width="96px" height="96px" viewBox="0 0 96 96" version="1.1" xmlns="http://www.w3.org/2000/svg" xmlns:xlink="http://www.w3.org/1999/xlink">
    <!-- Generator: Sketch 49.3 (51167) - http://www.bohemiancoding.com/sketch -->
    <title>iACD campagne</title>
    <desc>Created with Sketch.</desc>
    <defs></defs>
    <g id="iACD-campagne" stroke="none" stroke-width="1" fill="none" fill-rule="evenodd">
        <g transform="translate(3.000000, 0.000000)" fill-rule="nonzero">
            <g id="globe" transform="translate(0.000000, 33.000000)" fill="#0B82C5">
                <path d="M36.4,2.1 L36.4,2.2 C36.9,1.8 37.4,1.5 37.9,1.2 L36.4,2.1 Z" id="Oval"></path>
                <path d="M52.3,7.8 L44.7,7.8 C44,7.8 43.4,7.9 42.7,8.2 C45.7,9.7 48.4,11.7 50.6,14.1 C48.9,14.7 47.2,15.2 45.2,15.6 C44,13.3 42.6,11.2 41,9.2 C40.8,9.3 40.7,9.5 40.6,9.6 L37.3,13.4 C38.1,14.4 38.8,15.4 39.4,16.4 C38,16.6 36.5,16.7 34.9,16.7 L34.9,15.1 C34.3,15.3 33.7,15.4 33.1,15.4 C31.9,15.4 30.7,15 29.7,14.2 C29.4,13.9 29.1,13.6 28.9,13.3 L28.9,16.8 C27,16.8 25.1,16.6 23.4,16.5 C24.6,14.4 26.2,12.5 28,10.8 C28,10.6 28,10.5 28,10.3 L28,0.2 C12.2,1.9 0,15.3 0,31.5 C0,48.9 14.1,63 31.5,63 C48.9,63 63,48.9 63,31.5 C63,22.1 58.8,13.6 52.3,7.8 Z M24.4,6.6 C21.6,9.3 19.3,12.3 17.6,15.7 C15.7,15.3 13.9,14.8 12.2,14.2 C15.4,10.7 19.6,8 24.4,6.6 Z M8.9,18.9 C11,19.7 13.2,20.4 15.6,20.9 C14.8,23.7 14.2,26.7 14.1,29.9 L5.7,29.9 C5.9,26 7,22.2 8.9,18.9 Z M8.8,43.9 C7.5,41.5 6.5,38.8 6,36 L14.1,36 C14.3,38.1 14.6,40.1 15,42 C12.8,42.5 10.7,43.1 8.8,43.9 Z M12.1,48.6 C13.5,48.1 15.1,47.7 16.8,47.4 C18,50.3 19.6,53 21.7,55.5 C17.9,53.9 14.7,51.5 12.1,48.6 Z M29,55 C26.2,52.5 24,49.7 22.4,46.4 C24.5,46.2 26.7,46.1 29,46 L29,55 Z M29,40.5 C26,40.5 23.2,40.7 20.5,41.1 C20.1,39.5 19.8,37.8 19.7,36 L29,36 L29,40.5 Z M29,30 L19.6,30 C19.8,27.1 20.3,24.4 21.1,21.9 C23.6,22.2 26.2,22.4 29,22.5 L29,30 Z M54,18.8 C55.9,22.1 57,25.9 57.3,30 L48.9,30 C48.7,26.8 48.2,23.7 47.4,20.9 C49.8,20.3 52,19.6 54,18.8 Z M35,22.4 C37.4,22.3 39.7,22.1 41.9,21.8 C42.7,24.3 43.2,27 43.4,29.9 L35,29.9 L35,22.4 Z M35,36 L43.3,36 C43.1,37.9 42.8,39.6 42.4,41.3 C40.1,40.9 37.6,40.7 35,40.6 L35,36 Z M35,54.1 L35,46.1 C36.9,46.2 38.8,46.3 40.5,46.6 C39.1,49.4 37.3,51.9 35,54.1 Z M41.4,55.4 C43.4,53 44.9,50.5 46.1,47.6 C47.7,48 49.1,48.4 50.5,49 C48,51.8 44.9,54 41.4,55.4 Z M53.9,44.4 C52,43.6 50,42.9 47.9,42.4 C48.4,40.4 48.7,38.2 48.9,36 L57,36 C56.4,39 55.4,41.8 53.9,44.4 Z" id="Shape"></path>
            </g>
            <g id="Rectangle-8" transform="translate(30.000000, 0.000000)">
                <g id="Group" fill="#0B82C5">
                    <path d="M52.7,32.4 L53.6,32.4 L53.6,31.5 C53.6,32 53.2,32.4 52.7,32.4 Z" id="path-1"></path>
                    <path d="M52.7,0 L7.3,0 C3.3,0 0,3.3 0,7.3 L0,43.3 C0,44.3 0.4,45.1 1.1,45.8 C2.2,46.8 3.8,46.8 5,46 C5.2,45.8 5.5,45.6 5.7,45.4 L6.1,44.9 L9.2,41.3 C9.4,41.1 9.6,40.9 9.8,40.7 C10,40.5 10.2,40.3 10.5,40.2 C11.7,39.3 13.2,38.8 14.8,38.8 L52.7,38.8 C56.7,38.8 60,35.5 60,31.5 L60,7.3 C60,3.3 56.7,0 52.7,0 Z M43.4,6.4 L40.5,8.4 L29.5,16.1 L18.5,8.4 L15.6,6.4 L43.4,6.4 Z M53.6,32.4 L14.7,32.4 C14.4,32.4 14.2,32.4 13.9,32.4 C13.8,32.4 13.7,32.4 13.6,32.4 C13.1,32.4 12.6,32.5 12.1,32.6 C12,32.6 12,32.6 11.9,32.6 C11.7,32.6 11.4,32.7 11.2,32.8 C10.9,32.9 10.6,33 10.4,33 C10.1,33.1 9.8,33.2 9.5,33.4 C9.4,33.4 9.3,33.5 9.1,33.6 C9,33.6 8.9,33.7 8.7,33.8 C8.7,33.8 8.7,33.8 8.6,33.8 C8.5,33.8 8.5,33.9 8.4,33.9 C8.3,33.9 8.2,34 8.1,34.1 C8,34.1 8,34.2 7.9,34.2 C7.4,34.5 6.9,34.8 6.4,35.2 L6.4,8.6 L8.4,10 L27.5,23.3 C28.1,23.7 28.8,23.9 29.5,23.9 C30.2,23.9 30.9,23.7 31.5,23.3 L51.5,9.3 L53.5,7.9 L53.5,32.4 L53.6,32.4 Z" id="Shape"></path>
                </g>
                <path d="M52.7,32.4 L53.6,32.4 L53.6,31.5 C53.6,32 53.2,32.4 52.7,32.4 Z M52.7,32.4 L53.6,32.4 L53.6,31.5 C53.6,32 53.2,32.4 52.7,32.4 Z M52.7,32.4 L53.6,32.4 L53.6,31.5 C53.6,32 53.2,32.4 52.7,32.4 Z" id="Shape" fill="#FFFFFF"></path>
            </g>
        </g>
    </g>
</svg>