<?xml version="1.0" encoding="UTF-8"?>
<svg width="96px" height="96px" viewBox="0 0 96 96" version="1.1" xmlns="http://www.w3.org/2000/svg" xmlns:xlink="http://www.w3.org/1999/xlink">
    <!-- Generator: Sketch 49.3 (51167) - http://www.bohemiancoding.com/sketch -->
    <title>iACD Geographic</title>
    <desc>Created with Sketch.</desc>
    <defs></defs>
    <g id="iACD-Geographic" stroke="none" stroke-width="1" fill="none" fill-rule="evenodd">
        <g transform="translate(0.000000, 8.000000)" fill="#0B82C5" fill-rule="nonzero" id="Oval-3-Copy-2">
            <g transform="translate(48.000000, 41.500000) scale(-1, 1) rotate(-180.000000) translate(-48.000000, -41.500000) ">
                <g id="Group">
                    <path d="M84.5,21 C90.8,21 96,26.2 96,32.5 C96,32.8 96,33 96,33.3 C96,33.4 96,33.6 96,33.7 C96,33.8 96,34 96,34.1 C96,34.2 96,34.4 95.9,34.5 C95.9,34.7 95.8,34.8 95.8,35 C95.7,35.7 95.5,36.3 95.2,36.9 C95.2,37 95.1,37.1 95.1,37.2 C95.1,37.3 95,37.4 94.9,37.5 C94.8,37.7 94.8,37.8 94.7,38 C94.6,38.2 94.5,38.3 94.4,38.5 C94.3,38.6 94.2,38.8 94.2,38.9 C93.6,39.8 92.9,40.6 92.1,41.3 C91.9,41.5 91.7,41.6 91.5,41.8 C91.5,41.8 91.5,41.8 91.5,41.8 C91.3,42 91,42.2 90.7,42.3 C90.4,42.4 90.2,42.6 89.9,42.8 C89.6,43 89.3,43.1 89,43.2 C88.7,43.3 88.4,43.4 88.1,43.5 C88.1,43.5 88.1,43.5 88.1,43.5 C87.8,43.6 87.5,43.7 87.2,43.7 C86.6,64.9 69.2,82 48,82 C26.8,82 9.4,64.9 9,43.7 C3.9,42.6 0,38 0,32.5 C0,26.2 5.2,21 11.5,21 C11.8,21 12.1,21 12.4,21 C9.9,15.8 8.5,10.1 8.5,4 C8.5,2.1 10.1,0.5 12,0.5 C13.9,0.5 15.5,2.1 15.5,4 C15.5,9.6 16.9,14.8 19.4,19.4 C21.5,18.7 23.7,18 26.1,17.5 C25.1,13.5 24.6,9.1 24.6,4.5 C24.6,2.6 26.2,1 28.1,1 C30,1 31.6,2.6 31.6,4.5 C31.6,8.8 32.1,12.7 33,16.3 C36.6,15.8 40.5,15.6 44.6,15.5 L44.6,4 C44.6,2.1 46.2,0.5 48.1,0.5 C50,0.5 51.6,2.1 51.6,4 L51.6,15.6 C55.7,15.8 59.5,16.1 63,16.8 C64,13.1 64.6,9 64.6,4.5 C64.6,2.6 66.2,1 68.1,1 C70,1 71.6,2.6 71.6,4.5 C71.6,9.4 71,14 69.9,18.2 C72.1,18.8 74.2,19.5 76.2,20.3 C79,15.5 80.6,9.9 80.6,3.9 C80.6,2 82.2,0.4 84.1,0.4 C86,0.4 87.6,2 87.6,3.9 C87.6,10 86.2,15.8 83.7,20.9 L83.8,20.9 C84,21 84.2,21 84.5,21 Z M11.5,28 C9,28 7,30 7,32.5 C7,35 9,37 11.5,37 C14,37 16,35 16,32.5 C16,30 14,28 11.5,28 Z M23.5,25.4 C26.3,28.6 29.8,31.3 33.7,33.2 C31.5,30.4 29.7,27.4 28.3,24.2 C26.6,24.5 25,24.9 23.5,25.4 Z M35.5,23 C37.6,27.3 40.6,31 44.5,34.2 L44.5,22.5 C41.3,22.6 38.3,22.7 35.5,23 Z M51.5,22.6 L51.5,34.2 C55.3,31.1 58.2,27.5 60.3,23.4 C57.6,23 54.6,22.8 51.5,22.6 Z M67.4,24.9 C66,27.9 64.3,30.7 62.3,33.2 C65.9,31.4 69.1,29.1 71.7,26.2 C70.3,25.7 68.9,25.2 67.4,24.9 Z M75.6,39.7 C75.5,39.5 75.3,39.4 75.2,39.2 C74.9,38.9 74.7,38.5 74.5,38.1 C74.4,38 74.4,37.9 74.3,37.8 C74.3,37.7 74.2,37.6 74.2,37.5 C73.8,36.7 73.5,35.9 73.3,35.1 C73.3,34.9 73.2,34.7 73.2,34.6 C73.2,34.6 73.2,34.6 73.2,34.5 C66.4,40.2 57.6,43.6 48,43.6 C38.4,43.6 29.7,40.2 22.8,34.5 C22.2,38 20,41 17,42.6 C17,42.7 17,42.9 17,43 C17,60.1 30.9,74 48,74 C65.1,74 79,60.1 79,43 C79,42.9 79,42.7 79,42.6 C77.7,41.9 76.5,40.9 75.6,39.7 Z M80,32.5 C80,35 82,37 84.5,37 C87,37 89,35 89,32.5 C89,30 87,28 84.5,28 C82,28 80,30 80,32.5 Z" id="Shape"></path>
                </g>
            </g>
        </g>
    </g>
</svg>