<?xml version="1.0" encoding="UTF-8"?>
<svg width="96px" height="96px" viewBox="0 0 96 96" version="1.1" xmlns="http://www.w3.org/2000/svg" xmlns:xlink="http://www.w3.org/1999/xlink">
    <!-- Generator: Sketch 49.3 (51167) - http://www.bohemiancoding.com/sketch -->
    <title>iACD PBX Extensions new</title>
    <desc>Created with Sketch.</desc>
    <defs></defs>
    <g id="iACD-PBX-Extensions-new" stroke="none" stroke-width="1" fill="none" fill-rule="evenodd">
        <g transform="translate(4.000000, 3.000000)" fill="#0B82C5" fill-rule="nonzero">
            <path d="M14,34 C12.5502525,34 11.375,35.1752525 11.375,36.625 L11.375,36.7559524 C11.375,38.2056999 12.5502525,39.3809524 14,39.3809524 C15.4497475,39.3809524 16.625,38.2056999 16.625,36.7559524 L16.625,36.625 C16.625,35.1752525 15.4497475,34 14,34 Z M14,27 C19.3157407,27 23.625,31.3092593 23.625,36.625 L23.625,36.7559524 C23.625,42.0716931 19.3157407,46.3809524 14,46.3809524 C8.68425928,46.3809524 4.375,42.0716931 4.375,36.7559524 L4.375,36.625 C4.375,31.3092593 8.68425928,27 14,27 Z" id="Combined-Shape-Copy-6"></path>
            <path d="M31.5,64 C31.5,65.9329966 29.9329966,67.5 28,67.5 C26.0670034,67.5 24.5,65.9329966 24.5,64 C24.5,59.5130457 19.7949858,55.1666667 13.9605491,55.1666667 C7.86637595,55.1666667 3.5,59.0092757 3.5,63.7454347 C3.5,65.6784313 1.93299662,67.2454347 0,67.2454347 C-1.93299662,67.2454347 -3.5,65.6784313 -3.5,63.7454347 C-3.5,54.9300832 4.18530426,48.1666667 13.9605491,48.1666667 C23.5424642,48.1666667 31.5,55.517647 31.5,64 Z" id="Oval-5"></path>
            <path d="M74,59 C72.5502525,59 71.375,60.1752525 71.375,61.625 L71.375,61.7559524 C71.375,63.2056999 72.5502525,64.3809524 74,64.3809524 C75.4497475,64.3809524 76.625,63.2056999 76.625,61.7559524 L76.625,61.625 C76.625,60.1752525 75.4497475,59 74,59 Z M74,52 C79.3157407,52 83.625,56.3092593 83.625,61.625 L83.625,61.7559524 C83.625,67.0716931 79.3157407,71.3809524 74,71.3809524 C68.6842593,71.3809524 64.375,67.0716931 64.375,61.7559524 L64.375,61.625 C64.375,56.3092593 68.6842593,52 74,52 Z" id="Combined-Shape-Copy-6"></path>
            <path d="M91.5,89 C91.5,90.9329966 89.9329966,92.5 88,92.5 C86.0670034,92.5 84.5,90.9329966 84.5,89 C84.5,84.5130457 79.7949858,80.1666667 73.9605491,80.1666667 C67.866376,80.1666667 63.5,84.0092757 63.5,88.7454347 C63.5,90.6784313 61.9329966,92.2454347 60,92.2454347 C58.0670034,92.2454347 56.5,90.6784313 56.5,88.7454347 C56.5,79.9300832 64.1853043,73.1666667 73.9605491,73.1666667 C83.5424642,73.1666667 91.5,80.517647 91.5,89 Z" id="Oval-5"></path>
            <path d="M35.9254155,67.330956 C34.0857793,66.7374794 33.0755673,64.7650517 33.669044,62.9254155 C34.2625206,61.0857793 36.2349483,60.0755673 38.0745845,60.669044 L57.7674556,67.0220713 C59.6070918,67.6155479 60.6173038,69.5879756 60.0238271,71.4276118 C59.4303505,73.267248 57.4579228,74.27746 55.6182866,73.6839833 L35.9254155,67.330956 Z" id="Line"></path>
            <path d="M31.532893,38.1464645 C29.7951486,38.993058 27.7001289,38.2706374 26.8535355,36.532893 C26.006942,34.7951486 26.7293626,32.7001289 28.467107,31.8535355 L47.967107,22.3535355 C49.7048514,21.506942 51.7998711,22.2293626 52.6464645,23.967107 C53.493058,25.7048514 52.7706374,27.7998711 51.032893,28.6464645 L31.532893,38.1464645 Z" id="Line-Copy"></path>
            <path d="M72,3 C70.7573593,3 69.75,4.00735931 69.75,5.25 L69.75,5.5119048 C69.75,6.75454549 70.7573593,7.7619048 72,7.7619048 C73.2426407,7.7619048 74.25,6.75454549 74.25,5.5119048 L74.25,5.25 C74.25,4.00735931 73.2426407,3 72,3 Z M72,-3 C76.5563492,-3 80.25,0.693650814 80.25,5.25 L80.25,5.5119048 C80.25,10.068254 76.5563492,13.7619048 72,13.7619048 C67.4436508,13.7619048 63.75,10.068254 63.75,5.5119048 L63.75,5.25 C63.75,0.693650814 67.4436508,-3 72,-3 Z" id="Combined-Shape-Copy-6"></path>
            <path d="M87,29 C87,30.6568542 85.6568542,32 84,32 C82.3431458,32 81,30.6568542 81,29 C81,25.0974799 76.9616419,21.3333333 71.966185,21.3333333 C66.7477122,21.3333333 63,24.6612032 63,28.7798355 C63,30.4366897 61.6568542,31.7798355 60,31.7798355 C58.3431458,31.7798355 57,30.4366897 57,28.7798355 C57,21.1782423 63.5822995,15.3333333 71.966185,15.3333333 C80.1847437,15.3333333 87,21.685822 87,29 Z" id="Oval-5"></path>
        </g>
    </g>
</svg>