<?xml version="1.0" encoding="UTF-8"?>
<svg width="96px" height="96px" viewBox="0 0 96 96" version="1.1" xmlns="http://www.w3.org/2000/svg" xmlns:xlink="http://www.w3.org/1999/xlink">
    <!-- Generator: Sketch 49.3 (51167) - http://www.bohemiancoding.com/sketch -->
    <title>iACD availability new</title>
    <desc>Created with Sketch.</desc>
    <defs></defs>
    <g id="iACD-availability-new" stroke="none" stroke-width="1" fill="none" fill-rule="evenodd">
        <g transform="translate(0.000000, 2.000000)" fill="#0B82C5" fill-rule="nonzero" id="Shape">
            <path d="M92.7,58.8 C92.1,57.9 91.5,57 90.8,56.2 C90.6,55.9 90.3,55.6 90.1,55.4 C89.6,54.9 89.1,54.4 88.6,53.9 C88.6,53.9 88.6,53.9 88.6,53.9 C87.5,52.9 86.4,52.1 85.1,51.3 C81.7,49.2 77.7,48 73.4,48 C69.1,48 65.1,49.2 61.7,51.3 C60.5,52.1 59.3,52.9 58.2,53.9 C58.2,53.9 58.2,53.9 58.2,53.9 C57.9,54.1 57.7,54.4 57.4,54.6 C57.1,54.8 56.9,55.1 56.7,55.4 C56.5,55.7 56.2,55.9 56,56.2 C55.3,57 54.7,57.9 54.1,58.8 C53.4,60 52.8,61.3 52.3,62.6 C51.2,62.6 50.1,63 49.1,63.6 L49,63.7 C45.7,65.6 41.5,64.4 39.6,61.1 L25.9,36.6 C24,33.2 25.1,29 28.4,27 C31.7,25 32.8,20.7 30.9,17.4 L23.3,4.1 C21.2,0.5 16.6,-0.9 12.8,0.9 C2.3,6.1 -1.6,17.5 1.2,34.8 C2.4,41.9 5.2,50.4 9,58 C15.1,70.3 23.3,79.9 33.4,86.6 C40.3,91.2 46.7,93.5 52.6,93.5 C56.4,93.5 60,92.5 63.4,90.6 C66.4,92.1 69.9,93 73.5,93 C77.8,93 81.8,91.8 85.2,89.7 C86.4,88.9 87.6,88.1 88.7,87.1 C88.7,87.1 88.7,87.1 88.7,87.1 C89,86.9 89.2,86.6 89.5,86.4 C89.8,86.2 90,85.9 90.2,85.6 C90.4,85.3 90.7,85.1 90.9,84.8 C91.6,84 92.2,83.1 92.8,82.2 C94.9,78.8 96.1,74.8 96.1,70.5 C96.1,66.2 94.8,62.2 92.7,58.8 Z M37.3,80.8 C28.3,74.8 20.9,66 15.3,54.9 C11.9,48 9.2,40 8.2,33.6 C5.8,19.6 8.4,10.9 16,7.2 C16.1,7.1 16.3,7.1 16.4,7.1 C16.8,7.1 17.1,7.3 17.3,7.6 L24.9,20.8 C24.9,20.8 24.9,20.9 24.9,20.9 C18.3,24.9 16.1,33.2 19.9,40 L33.8,64.5 C35.6,67.7 38.6,70 42.2,71 C45.2,71.8 48.4,71.6 51.2,70.5 C51.2,74.8 52.4,78.7 54.5,82.1 C55.1,83 55.7,83.9 56.4,84.7 C56.6,85 56.9,85.3 57.1,85.5 C57.2,85.6 57.2,85.6 57.3,85.7 C51.5,87.6 45,85.9 37.3,80.8 Z M73.5,86 C71.4,86 69.4,85.6 67.6,84.8 C62,82.5 58,77 58,70.5 C58,68.9 58.2,67.3 58.7,65.9 C60.7,59.6 66.5,55 73.5,55 C82,55 89,62 89,70.5 C89,79 82,86 73.5,86 Z"></path>
            <path d="M85.2,62.2 C83.7,61 81.5,61.3 80.3,62.8 L72.3,73 L67.3,68.8 C65.8,67.6 63.6,67.8 62.4,69.2 C62,69.7 61.8,70.2 61.7,70.7 C61.4,71.9 61.8,73.2 62.9,74.1 L64.5,75.4 L70.6,80.6 C71.2,81.1 72,81.4 72.8,81.4 C72.9,81.4 73,81.4 73.2,81.4 C74.1,81.3 75,80.8 75.6,80.1 L85.9,67.1 C86.9,65.7 86.7,63.5 85.2,62.2 Z"></path>
        </g>
    </g>
</svg>