<?xml version="1.0" encoding="UTF-8"?>
<svg width="96px" height="96px" viewBox="0 0 96 96" version="1.1" xmlns="http://www.w3.org/2000/svg" xmlns:xlink="http://www.w3.org/1999/xlink">
    <!-- Generator: Sketch 49.3 (51167) - http://www.bohemiancoding.com/sketch -->
    <title>iACD Behaviour</title>
    <desc>Created with Sketch.</desc>
    <defs></defs>
    <g id="iACD-Behaviour" stroke="none" stroke-width="1" fill="none" fill-rule="evenodd">
        <g fill="#0B82C5" fill-rule="nonzero" id="Oval-Copy-5">
            <g>
                <path d="M86.7,5.3 C83.5,2.5 78.7,2.7 75.7,5.7 L62.6,19 C61.1,20.5 60.3,22.5 60.4,24.6 C60.4,26.7 61.3,28.7 62.8,30.2 L62.9,30.3 C65.9,33.4 65.9,38.3 62.8,41.4 L58.8,45.4 L18.1,45.4 C15.6,45.4 13.6,43.4 13.6,40.9 L13.6,20.5 C15,20 16.2,19.2 17.2,18.2 C18,17.4 18.7,16.5 19.2,15.4 C19.8,14.1 20.2,12.6 20.2,11 C20.2,9.4 19.8,8 19.2,6.6 C18.7,5.6 18,4.6 17.2,3.8 C15.4,2 12.9,0.8 10.1,0.8 C7.3,1 4.8,2.1 3,4 C2.2,4.8 1.5,5.7 1,6.7 C0.4,8 0,9.5 0,11.1 C0,12.7 0.4,14.1 1,15.5 C1.5,16.5 2.2,17.5 3,18.3 C4,19.3 5.2,20.1 6.6,20.6 L6.6,40.9 C6.6,47.3 11.8,52.5 18.2,52.5 L51.7,52.5 L40,63.8 C36.9,66.9 31.9,66.9 28.7,63.8 C25.6,60.8 20.5,60.8 17.5,63.9 L4.5,76.9 C1.6,79.8 1.3,84.4 3.9,87.6 C8.9,93.9 15.5,97 23.7,97 C30,97 37.2,95.2 45.3,91.4 C52.8,88 61.2,82.4 68.5,75.9 C80.1,65.6 88.3,53.8 92.7,40.7 C97.9,25.2 95.9,13.2 86.7,5.3 Z M10.1,14.1 C8.4,14.1 7.1,12.7 7.1,11.1 C7.1,10.7 7.2,10.3 7.3,10 C7.7,8.8 8.8,8 10.1,8 C11.4,8 12.4,8.8 12.9,9.9 C13,10.3 13.1,10.6 13.1,11 C13.1,12.7 11.7,14.1 10.1,14.1 Z M86,38.5 C82,50.4 74.5,61.2 63.8,70.7 C57.1,76.6 49.1,82 42.3,85 C32.4,89.5 18.1,94.3 9.4,83.2 C9.1,82.8 9.1,82.2 9.5,81.9 L22.5,68.9 C22.9,68.5 23.5,68.5 23.9,68.9 C29.7,74.6 39.2,74.6 45,68.8 L67.8,46.3 C73.6,40.5 73.7,31.1 67.9,25.2 L67.7,25 C67.5,24.8 67.4,24.5 67.4,24.4 C67.4,24.2 67.4,24 67.7,23.8 L80.7,10.7 C81.1,10.3 81.7,10.3 82.1,10.7 C89.1,16.7 90.3,25.5 86,38.5 Z" id="Shape"></path>
            </g>
        </g>
    </g>
</svg>