<?xml version="1.0" encoding="UTF-8"?>
<svg width="96px" height="96px" viewBox="0 0 96 96" version="1.1" xmlns="http://www.w3.org/2000/svg" xmlns:xlink="http://www.w3.org/1999/xlink">
    <!-- Generator: Sketch 49.3 (51167) - http://www.bohemiancoding.com/sketch -->
    <title>iACD customer caller id new</title>
    <desc>Created with Sketch.</desc>
    <defs></defs>
    <g id="iACD-customer-caller-id-new" stroke="none" stroke-width="1" fill="none" fill-rule="evenodd">
        <path d="M24.6008756,36.8151398 C22.8801476,35.0877179 20.0966919,35.0449334 18.323685,36.7186539 C11.9280191,42.7561646 11.4643654,52.0154497 17.4788962,65.2369991 C19.8353248,70.4170603 24.0822953,77.1476922 29.5120385,83.2998941 C37.149174,91.9531946 46.2217487,98.5193258 56.680316,102.062771 C67.4261961,105.70356 75.2299506,104.748796 80.6301974,99.5014991 C80.6589121,99.4734311 80.6589121,99.4734311 80.6872908,99.4450235 C82.4385188,97.6815562 82.4285969,94.8323327 80.6651291,93.0811042 L70.8817319,83.3656048 C70.8666641,83.3507132 70.8666641,83.3507132 70.8514541,83.3359671 C69.6823642,82.2079681 67.8202057,82.2412788 66.6922067,83.4103687 C66.6309171,83.4738909 66.5687774,83.5365874 66.5058044,83.5984413 C62.6201592,87.4150326 56.3762627,87.3590534 52.5596714,83.4734081 L34.2757441,64.8586682 C30.4320278,60.9454072 30.4104349,54.68084 34.2270836,50.7411752 C35.3892053,49.5415966 35.3759173,47.6320979 34.1972136,46.4488088 L24.6008756,36.8151398 Z" id="Path-9" stroke="#0B82C5" stroke-width="7" transform="translate(47.740115, 69.740115) rotate(-45.000000) translate(-47.740115, -69.740115) "></path>
        <g id="Group-2" transform="translate(30.000000, 4.000000)">
            <path d="M2.48495456,26.9630849 C0.905916143,24.3026287 0,21.2005506 0,17.8881988 C0,8.00881938 8.0588745,0 18,0 C27.9411255,0 36,8.00881938 36,17.8881988 C36,18.7182897 35.943106,19.5351748 35.8329819,20.3352131 C35.5857337,25.6373261 29.6414064,34.097017 18,45.7142857 C10.2715541,38.1711879 5.09987231,31.9207876 2.48495456,26.9630849 Z" id="Combined-Shape" stroke="#0B82C5" stroke-width="7" stroke-linecap="round" stroke-linejoin="round"></path>
            <circle id="Oval-6" fill="#0B82C5" cx="18" cy="15" r="6"></circle>
            <circle id="Oval-6-Copy" fill="#0B82C5" cx="18" cy="58" r="4"></circle>
        </g>
    </g>
</svg>