<?xml version="1.0" encoding="UTF-8"?>
<svg width="96px" height="96px" viewBox="0 0 96 96" version="1.1" xmlns="http://www.w3.org/2000/svg" xmlns:xlink="http://www.w3.org/1999/xlink">
    <!-- Generator: Sketch 49.3 (51167) - http://www.bohemiancoding.com/sketch -->
    <title>iConnector Ad network</title>
    <desc>Created with Sketch.</desc>
    <defs></defs>
    <g id="iConnector-Ad-network" stroke="none" stroke-width="1" fill="none" fill-rule="evenodd">
        <g fill="#0B82C5" fill-rule="nonzero" id="Shape">
            <path d="M52,21.1 C52.7,22.7 54.5,23.5 56.1,22.8 C57.7,22.1 58.5,20.3 57.8,18.7 L55.5,13.1 C55.5,13.1 55.5,13.1 55.5,13.1 C60.8,15.2 65.6,18.5 69.5,22.8 C74.8,28.7 78,36 78.8,43.9 L78.8,44 C79.3,46.2 80.7,47 81.9,47 C82,47 82.1,47 82.2,47 C83.7,46.8 85,45.5 85,44 C85,36 80.7,26.1 74.1,18.7 C69.9,14 64.7,10.4 59,7.9 C59,7.9 59,7.9 59,7.9 L63.2,6.2 C64.8,5.5 65.6,3.7 64.9,2.1 C64.2,0.5 62.4,-0.3 60.8,0.4 L49,5.2 C47.4,5.9 46.6,7.7 47.3,9.3 L52,21.1 Z"></path>
            <path d="M34.1,74.3 C33.4,72.7 31.6,71.9 30,72.6 C28.4,73.3 27.6,75.1 28.3,76.7 L30.4,81.8 C24.9,79.8 19.9,76.4 15.9,72 C9.2,64.6 5.9,55 6.5,45.1 C7.1,35.1 11.5,26 19,19.2 C23.7,15 29.4,12 35.6,10.5 C37.2,10.1 38.3,8.4 37.9,6.8 C37.7,6 37.2,5.3 36.5,4.9 C35.8,4.5 35,4.3 34.2,4.5 C27,6.3 20.4,9.8 14.9,14.7 C5.2,23.4 0.3,35.4 0.3,47.4 C0.3,57.7 3.9,67.9 11.3,76.1 C15.8,81.1 21.4,84.9 27.6,87.3 C27.6,87.3 27.6,87.3 27.6,87.3 L23,89.1 C21.4,89.8 20.6,91.6 21.3,93.2 C22,94.8 23.8,95.6 25.4,94.9 L37.2,90.1 C38.8,89.4 39.6,87.6 38.9,86 L34.1,74.3 Z"></path>
            <path d="M92.9,63.6 C92.8,63.2 92.7,62.8 92.5,62.4 C92.5,62.4 92.5,62.4 92.5,62.4 C92.2,61.6 91.9,60.9 91.6,60.2 C90.7,58.4 89.6,56.7 88.4,55.1 C86.4,52.6 83.9,50.6 81,49 C79.9,48.4 78.8,47.9 77.7,47.5 C76.9,47.2 76.1,47 75.4,46.8 C73.4,46.3 71.3,46 69.2,46 C67.1,46 65,46.3 63,46.8 C62.2,47 61.4,47.2 60.7,47.5 C59.6,47.9 58.4,48.4 57.4,49 C57.3,49.1 57.1,49.2 57,49.2 C55.2,46.3 52,43.5 45.8,42.8 L45.8,32 C49.3,32.9 50.3,34.7 50.8,36.1 C51.4,37.9 53.4,38.9 55.2,38.3 C57,37.7 58,35.7 57.4,33.9 C56.2,30.4 53.3,26.1 45.8,24.8 L45.8,21.4 C45.8,19.5 44.2,17.9 42.3,17.9 C40.4,17.9 38.8,19.5 38.8,21.4 L38.8,24.6 C31.6,25.4 26.1,29.7 25.3,35.4 C24.8,39 25.8,42.2 27.9,44.6 C30.2,47.3 33.9,48.9 38.7,49.4 L38.7,61.1 C32.5,60.3 31.9,57.4 31.6,56.4 C31.2,54.5 29.3,53.3 27.4,53.7 C25.5,54.1 24.3,56 24.7,57.9 C25.7,62.1 28.9,67.1 38.6,68.1 L38.6,71.3 C38.6,73.2 40.2,74.8 42.1,74.8 C42.9,74.8 43.7,74.5 44.3,74 C44.3,74 44.3,74 44.3,74 C44.5,75.9 45,77.7 45.6,79.4 C45.9,80.2 46.2,80.9 46.5,81.6 C47.4,83.4 48.5,85.1 49.7,86.7 C51,88.2 52.4,89.6 54,90.8 C54.3,91 54.7,91.3 55,91.5 C55.7,92 56.3,92.4 57,92.7 C60.5,94.6 64.6,95.7 68.9,95.7 C73.2,95.7 77.3,94.6 80.8,92.7 C81.5,92.3 82.2,91.9 82.8,91.5 C83.1,91.3 83.5,91 83.8,90.8 C85.4,89.6 86.9,88.2 88.1,86.7 C89.4,85.1 90.5,83.5 91.3,81.6 C91.7,80.9 92,80.1 92.2,79.4 C93.2,76.7 93.7,73.8 93.7,70.8 C94,68.4 93.6,65.9 92.9,63.6 Z M51,53.6 C50.5,54.1 50.1,54.6 49.7,55.1 C48.4,56.7 47.3,58.3 46.5,60.2 C46.3,60.5 46.2,60.9 46,61.2 C45.9,61.2 45.7,61.3 45.5,61.3 L45.5,50 C48.9,50.5 50.4,51.9 51,53.6 Z M32.9,40.1 C32.1,39.2 31.8,37.9 32,36.4 C32.3,34.1 35,32.3 38.5,31.7 L38.5,42.5 C35.9,42.1 34,41.3 32.9,40.1 Z M69,90 C58.5,90 50,81.5 50,71 C50,69.7 50.1,68.5 50.4,67.3 C51.4,62.3 54.4,57.9 58.5,55.2 C61.5,53.2 65.1,52 69,52 C79.5,52 88,60.5 88,71 C88,81.5 79.5,90 69,90 Z"></path>
            <path d="M78.6,78.2 C78.5,78.2 78.3,78.2 78.2,78.2 L72.7,73.1 C72.9,72.6 73,72 73,71.4 C73,70.2 72.5,69 71.7,68.2 L73.9,60.5 C75.1,60 76,58.8 76,57.4 C76,55.5 74.5,54 72.6,54 C70.7,54 69.2,55.5 69.2,57.4 C69.2,58 69.4,58.6 69.6,59 L67.3,67 C65.8,67.4 64.7,68.5 64.2,69.9 L57.4,71.4 C56.8,70.9 56.1,70.6 55.3,70.6 C53.4,70.6 51.9,72.1 51.9,74 C51.9,75.9 53.4,77.4 55.3,77.4 C56.5,77.4 57.6,76.8 58.2,75.8 L65,74.3 C65.8,75.3 67.1,75.9 68.5,75.9 C68.7,75.9 68.9,75.9 69.1,75.9 L75.3,81.6 C75.3,83.5 76.8,85 78.7,85 C80.6,85 82.1,83.5 82.1,81.6 C82.1,79.7 80.5,78.2 78.6,78.2 Z"></path>
        </g>
    </g>
</svg>