<?xml version="1.0" encoding="UTF-8"?>
<svg width="96px" height="96px" viewBox="0 0 96 96" version="1.1" xmlns="http://www.w3.org/2000/svg" xmlns:xlink="http://www.w3.org/1999/xlink">
    <!-- Generator: Sketch 49.3 (51167) - http://www.bohemiancoding.com/sketch -->
    <title>iContactCentre</title>
    <desc>Created with Sketch.</desc>
    <defs></defs>
    <g id="iContactCentre" stroke="none" stroke-width="1" fill="none" fill-rule="evenodd">
        <g fill="#0B82C5" fill-rule="nonzero" id="Shape">
            <path d="M67,43.8 C66.4,36.5 60.4,30.8 53.2,30.8 C51.9,30.8 50.6,31 49.4,31.3 C45.8,24.4 39,20 31.3,20 C20,20 10.8,29.7 10.8,41.6 C10.8,42.1 10.8,42.5 10.8,43 C4.5,45.6 0.2,51.8 0.2,58.8 C0.2,68 7.3,75.5 16.5,75.9 C16.6,75.9 16.8,75.9 16.9,75.9 C16.9,75.9 26.2,75.9 26.2,75.9 L26.4,75.9 L29,75.9 C29.1,75.9 29.1,75.9 29.2,75.9 C31.2,75.8 32.8,74.1 32.8,72 L32.8,69.1 L32.8,66.6 L32.8,55.6 L33.8,55.6 C34.4,55.6 35.1,55.3 35.4,54.7 C35.8,54 35.7,53.2 35.3,52.5 L31,46 C30.7,45.5 30.1,45.2 29.4,45.1 C28.7,45.1 28.1,45.5 27.7,46 L23.4,52.5 C23,53 23,53.7 23.2,54.4 C23.5,55.1 24.3,55.5 25.1,55.5 L26,55.5 L26,68.5 C26,68.8 25.8,69 25.5,69 L16.8,69 C11.4,68.9 7,64.4 7,58.8 C7,54 10.5,49.7 15.2,48.7 C17,48.3 18.1,46.5 17.8,44.7 C17.6,43.7 17.5,42.6 17.5,41.6 C17.5,33.4 23.7,26.8 31.3,26.8 C37.3,26.8 42.5,30.9 44.4,36.9 C44.7,37.9 45.5,38.7 46.5,39.1 C47.5,39.5 48.6,39.3 49.5,38.8 C50.6,38.1 51.9,37.7 53.3,37.7 C57.2,37.7 60.4,41 60.4,45.1 C60.4,45.6 60.4,46 60.3,46.5 C60.1,47.5 60.4,48.6 61.1,49.4 C61.8,50.2 62.8,50.6 63.9,50.5 C64.2,50.5 64.4,50.5 64.7,50.5 C69.7,50.5 73.7,54.7 73.7,59.9 C73.7,63.2 71.9,66.4 69.1,68.1 C67.4,69.1 65.8,69.3 63.9,69.3 C59.4,69.4 54.9,69.3 50.4,69.3 C50.4,69.3 47.6,69.3 47.6,69.3 C45.5,69.3 43.8,71 43.8,73.2 L43.8,76.1 L43.8,77.6 L43.8,85.7 L42.9,85.7 C42.1,85.7 41.4,86.1 41,86.8 C40.7,87.4 40.8,88.1 41.2,88.7 L45.5,95.2 C45.9,95.8 46.5,96.2 47.2,96.1 C47.9,96.1 48.4,95.7 48.8,95.2 L53.1,88.7 C53.5,88 53.6,87.2 53.2,86.5 C52.8,85.9 52.2,85.6 51.6,85.6 L50.6,85.6 L50.6,77.5 L50.6,76.5 C50.6,76.2 50.8,76 51.1,76 C53.3,76 55.6,76 57.8,76 C59.4,76 61.1,76 62.7,76 C65.3,76 67.6,76 70.1,75.1 C72.1,74.4 74,73.2 75.6,71.8 C78.9,68.7 80.7,64.3 80.7,59.9 C80.4,51.7 74.6,44.9 67,43.8 Z"></path>
            <path d="M54.5,26.2 C58.3,25.6 62.2,26.5 65.3,28.8 C68.4,31.1 70.5,34.5 71.1,38.3 C71.4,40 72.8,41.2 74.4,41.2 C74.6,41.2 74.8,41.2 74.9,41.2 C76.7,40.9 78,39.2 77.7,37.3 C76.8,31.7 73.8,26.7 69.2,23.4 C64.6,20 59,18.7 53.4,19.5 C51.6,19.8 50.3,21.5 50.6,23.4 C50.9,25.3 52.6,26.5 54.5,26.2 Z"></path>
            <path d="M52.9,10.2 C51.1,10.5 49.8,12.2 50.1,14.1 C50.4,15.9 52.1,17.2 53.9,16.9 C65.6,15 78.4,24.3 80.2,36 C80.5,37.7 81.9,38.9 83.5,38.9 C83.7,38.9 83.9,38.9 84,38.9 C85.8,38.6 87.1,36.9 86.8,35 C84.4,19.5 68.2,7.7 52.9,10.2 Z"></path>
            <path d="M95.7,31.9 C92.5,11.8 72.6,-2.3 52.2,0.9 C50.4,1.2 49.1,2.9 49.4,4.8 C49.7,6.6 51.4,7.9 53.2,7.6 C70,4.9 86.4,16.6 89,33 C89.3,34.7 90.7,35.9 92.3,35.9 C92.5,35.9 92.7,35.9 92.8,35.9 C94.8,35.5 96,33.8 95.7,31.9 Z"></path>
        </g>
    </g>
</svg>