<?xml version="1.0" encoding="UTF-8"?>
<svg width="96px" height="96px" viewBox="0 0 96 96" version="1.1" xmlns="http://www.w3.org/2000/svg" xmlns:xlink="http://www.w3.org/1999/xlink">
    <!-- Generator: Sketch 49.3 (51167) - http://www.bohemiancoding.com/sketch -->
    <title>iConnector google duo</title>
    <desc>Created with Sketch.</desc>
    <defs></defs>
    <g id="iConnector-google-duo" stroke="none" stroke-width="1" fill="none" fill-rule="evenodd">
        <g transform="translate(0.000000, 7.000000)" fill="#0B82C5" fill-rule="nonzero" id="Shape">
            <path d="M94.4,50.1 C94,48.9 93.4,47.8 92.8,46.6 C92.6,46.2 92.4,45.9 92.2,45.5 C91.8,44.8 91.3,44.1 90.8,43.4 C90,42.4 89.2,41.5 88.3,40.6 C87.1,39.4 85.8,38.4 84.5,37.4 C84.2,37.2 83.8,36.9 83.5,36.7 L83.5,10 C83.5,4.8 79.2,0.5 74,0.5 L26,0.5 C20.8,0.5 16.5,4.8 16.5,10 L16.5,15 L5.2,10.7 C4.2,10.3 3,10.5 2,11.1 C1.1,11.8 0.5,12.8 0.5,14 L0.5,43 C0.5,44.1 1,45.2 2,45.8 C2.9,46.5 4.1,46.6 5.2,46.3 L16.6,42.5 L16.6,46 C16.6,51.2 20.9,55.5 26.1,55.5 L44.3,55.5 C44.1,56.7 44,57.8 44,59 C44,62.1 44.6,65.2 45.6,67.9 C46,69.1 46.6,70.2 47.2,71.4 C47.4,71.8 47.6,72.1 47.8,72.5 C48.2,73.2 48.7,73.9 49.2,74.6 C50,75.6 50.8,76.5 51.7,77.4 C52.9,78.6 54.2,79.6 55.5,80.6 C56.2,81.1 56.9,81.5 57.6,81.9 C61.3,83.9 65.5,85 70,85 C74.5,85 78.7,83.9 82.4,81.9 C83.1,81.5 83.9,81.1 84.5,80.6 C85.9,79.7 87.2,78.6 88.3,77.4 C89.2,76.5 90,75.6 90.8,74.6 C91.3,73.9 91.8,73.3 92.2,72.5 C92.4,72.1 92.6,71.8 92.8,71.4 C93.4,70.3 93.9,69.1 94.4,67.9 C95.4,65.1 96,62.1 96,59 C96,55.9 95.4,52.8 94.4,50.1 Z M26,48.5 C24.6,48.5 23.5,47.4 23.5,46 L23.5,37.7 C23.5,36.6 23,35.5 22,34.9 C21.4,34.5 20.7,34.2 20,34.2 C19.6,34.2 19.2,34.3 18.9,34.4 L7.5,38.1 L7.5,19.1 L18.7,23.4 C19.8,23.8 21,23.7 21.9,23 C22.8,22.3 23.4,21.3 23.4,20.1 L23.4,10 C23.4,8.6 24.5,7.5 25.9,7.5 L73.9,7.5 C75.3,7.5 76.4,8.6 76.4,10 L76.4,33.8 C74.4,33.3 72.2,33 70,33 C65.5,33 61.3,34.1 57.6,36.1 C56.9,36.5 56.1,36.9 55.5,37.4 C54.1,38.3 52.8,39.4 51.7,40.6 C50.8,41.5 50,42.4 49.2,43.4 C48.7,44.1 48.2,44.7 47.8,45.5 C47.6,45.9 47.4,46.2 47.2,46.6 C47.1,46.8 46.9,47.1 46.8,47.4 C46.7,47.6 46.6,47.8 46.5,48 C46.4,48.2 46.3,48.4 46.2,48.5 L26,48.5 Z M70,78 C59.5,78 51,69.5 51,59 C51,57.8 51.1,56.6 51.3,55.5 C51.8,53 52.8,50.6 54.1,48.5 C57.6,43.4 63.4,40 70,40 C72.3,40 74.5,40.4 76.5,41.1 C79.2,42.1 81.5,43.6 83.5,45.6 C86.9,49.1 89,53.8 89,59 C89,69.5 80.5,78 70,78 Z"></path>
            <path d="M79.6,66.2 C79.5,66.2 79.3,66.2 79.2,66.2 L73.7,61.1 C73.9,60.6 74,60 74,59.4 C74,58.2 73.5,57 72.7,56.2 L72.9,55.5 L74.9,48.5 C76.1,48 77,46.8 77,45.4 C77,44.7 76.8,44.2 76.5,43.6 C75.9,42.6 74.8,42 73.6,42 C71.7,42 70.2,43.5 70.2,45.4 C70.2,46 70.4,46.6 70.6,47 L70.2,48.5 L68.4,55 C68,55.1 67.6,55.3 67.2,55.5 C66.3,56 65.6,56.9 65.3,57.9 L58.5,59.4 C57.9,58.9 57.2,58.6 56.4,58.6 C54.5,58.6 53,60.1 53,62 C53,63.9 54.5,65.4 56.4,65.4 C57.6,65.4 58.7,64.8 59.3,63.8 L66.1,62.3 C66.9,63.3 68.2,63.9 69.6,63.9 C69.8,63.9 70,63.9 70.2,63.9 L76.4,69.6 C76.4,71.5 77.9,73 79.8,73 C81.7,73 83.2,71.5 83.2,69.6 C83.2,67.7 81.5,66.2 79.6,66.2 Z"></path>
        </g>
    </g>
</svg>