<?xml version="1.0" encoding="UTF-8"?>
<svg width="96px" height="96px" viewBox="0 0 96 96" version="1.1" xmlns="http://www.w3.org/2000/svg" xmlns:xlink="http://www.w3.org/1999/xlink">
    <!-- Generator: Sketch 49.3 (51167) - http://www.bohemiancoding.com/sketch -->
    <title>iConnector VOIP</title>
    <desc>Created with Sketch.</desc>
    <defs></defs>
    <g id="iConnector-VOIP" stroke="none" stroke-width="1" fill="none" fill-rule="evenodd">
        <g transform="translate(2.000000, 0.000000)" fill="#0B82C5" fill-rule="nonzero" id="Shape">
            <path d="M35.1,72.2474227 C35.1,71.5546392 34.8,70.9608247 34.6,70.3670103 C34.5,70.1690722 34.2,69.7731959 34.2,69.4762887 C33.7,68.585567 32.5,67.5958763 31.5,67.2 C29.6,66.3092784 27.1,67.2 25.5,65.6164948 C24.4,64.5278351 23.5,63.7360825 23,62.1525773 C22.8,61.5587629 22.8,60.7670103 22.7,60.1731959 C22.7,58.7876289 22.7,57.4020619 22.7,56.0164948 C22.7,51.1670103 22.7,46.4164948 22.7,41.5670103 C22.7,38.2020619 22,33.7484536 24.7,31.1752577 C25.4,30.4824742 26.3,29.9876289 27.2,29.6907216 C28.3,29.3938144 29.4,29.4927835 30.5,29.1958763 C32.3,28.7010309 33.8,27.414433 34.6,25.7319588 C35.4,24.0494845 35.1,22.0701031 35.1,20.1896907 C35.1,17.5175258 35.1,14.8453608 35.1,12.2721649 C35.1,10.0948454 35.3,7.22474227 33.6,5.54226804 C33.3,5.14639175 33.1,4.75051546 32.7,4.35463918 C30.7,2.27628866 27.6,2.07835052 24.8,2.4742268 C23.7,2.67216495 22.5,2.67216495 21.5,3.16701031 C20.2,3.66185567 18.9,4.2556701 17.7,4.94845361 C16.7,5.64123711 15.6,6.13608247 14.6,6.92783505 C13.2,8.01649485 11.7,9.50103093 10.7,10.985567 C10.6,11.0845361 10.3,11.7773196 10.1,11.7773196 C10.1,11.6783505 10.1,11.6783505 10.2,11.6783505 C9.9,11.9752577 9.7,12.4701031 9.5,12.8659794 C9.3,13.2618557 9,13.5587629 8.8,13.9546392 C8.1,15.043299 7.5,16.1319588 6.9,17.3195876 C6.5,18.1113402 6.2,18.8041237 5.8,19.5958763 C3,25.4350515 1.7,32.1649485 0.7,38.4989691 C0.3,41.7649485 0,45.228866 0,48.5938144 C0,51.9587629 0,55.4226804 0.6,58.7876289 C1.7,64.8247423 3,70.6639175 5.8,76.2061856 C8.7,82.0453608 12.4,87.8845361 18.3,91.2494845 C22.6,93.6247423 29.2,95.2082474 33.1,91.3484536 C33.6,90.8536082 34.2,90.2597938 34.5,89.5670103 C34.8,88.8742268 34.9,88.1814433 35.2,87.4886598 C35.2,82.4412371 35.1,77.2948454 35.1,72.2474227 Z M27.3,86.8948454 C18.9,86.5979381 14,78.185567 11.1,71.356701 C7.2,62.1525773 6.2,52.156701 7.2,42.2597938 C8.1,33.0556701 10.5,23.1587629 16,15.6371134 C18.5,12.2721649 21.9,9.40206186 26.3,9.20412371 C27.3,9.20412371 28.3,9.10515464 28.4,10.2927835 C28.5,11.0845361 28.4,11.9752577 28.4,12.7670103 C28.4,15.4391753 28.4,18.0123711 28.4,20.6845361 C28.4,20.9814433 28.6,22.1690722 28.4,22.3670103 C28.3,22.4659794 27.5,22.4659794 27.3,22.4659794 C26.8,22.5649485 26.3,22.6639175 25.8,22.7628866 C24.8,23.0597938 23.8,23.356701 22.9,23.8515464 C19.5,25.6329897 17,28.8989691 16.2,32.6597938 C15.9,34.243299 15.9,35.8268041 15.9,37.4103093 C15.9,39.6865979 15.9,41.9628866 15.8,44.2391753 C15.8,49.1876289 15.7,54.0371134 15.7,58.985567 C15.7,61.0639175 15.8,63.043299 16.5,65.0226804 C18,69.1793814 21.8,72.4453608 26.2,73.3360825 C26.6,73.4350515 28.2,73.4350515 28.4,73.6329897 C28.5,73.7319588 28.4,74.2268041 28.4,74.3257732 C28.4,75.414433 28.4,76.5030928 28.4,77.5917526 C28.4,80.0659794 28.4,82.5402062 28.5,85.014433 C28.5,85.9051546 28.5,86.8948454 27.3,86.8948454 C21.5,86.6969072 27.8,86.8948454 27.3,86.8948454 Z"></path>
            <path d="M91.4,70.3670103 C91.4,66.6061856 90.6,62.7463918 88.8,59.1835052 C88.4,58.2927835 87.8,57.4020619 87.3,56.6103093 C87.1,56.214433 86.6,55.8185567 86.7,55.4226804 C86.8,54.828866 87.2,54.2350515 87.5,53.6412371 C88.4,51.3649485 89.1,48.9896907 89.5,46.614433 C90.9,38.8948454 90,30.7793814 86.7,23.5546392 C80.7,10.2927835 67.5,1.28659794 52.9,0.296907216 C50.4,0.0989690722 47.9,0.197938144 45.4,0.395876289 C43.9,0.593814433 42.4,0.791752577 40.9,1.18762887 C39.9,1.38556701 38.9,1.7814433 38.2,2.57319588 C36.9,4.2556701 37.5,6.72989691 39.4,7.62061856 C40.3,8.11546392 41.2,8.01649485 42.2,7.8185567 C43.6,7.52164948 45,7.32371134 46.5,7.1257732 C46.5,11.6783505 46.5,16.1319588 46.5,20.6845361 C45,20.6845361 43.5,20.585567 41.9,20.585567 C40.7,20.585567 39.7,20.585567 38.7,21.3773196 C37,22.8618557 37,25.3360825 38.6,26.7216495 C40.6,28.5030928 43.6,27.3154639 45.9,27.8103093 C46.4,27.9092784 46.3,27.9092784 46.3,28.4041237 C46.3,28.9979381 46.3,29.5917526 46.3,30.185567 C46.3,31.571134 46.3,33.0556701 46.3,34.4412371 C46.3,34.6391753 46.4,35.4309278 46.3,35.628866 C46.2,35.7278351 46.1,35.628866 46,35.7278351 C45,35.9257732 43.8,35.7278351 42.8,35.7278351 C41.3,35.7278351 39.8,35.7278351 38.3,35.7278351 C36.1,35.7278351 33.1,35.2329897 31.8,37.4103093 C30.7,39.2907216 31.7,41.7649485 33.8,42.457732 C34.6,42.6556701 35.5,42.6556701 36.3,42.6556701 C39.1,42.6556701 41.8,42.6556701 44.6,42.6556701 C44.9,42.6556701 46.1,42.457732 46.3,42.6556701 C46.4,42.7546392 46.3,43.5463918 46.3,43.6453608 C46.3,44.3381443 46.3,45.0309278 46.3,45.8226804 C46.3,46.614433 46.3,47.5051546 46.3,48.2969072 C46.3,48.8907216 46.4,49.5835052 46.3,50.1773196 C46.3,50.2762887 46.4,50.4742268 46.3,50.5731959 C46.2,50.771134 44.7,50.5731959 44.4,50.6721649 C43,50.6721649 41.3,50.5731959 39.9,50.9690722 C37.6,51.5628866 36.7,54.3340206 38,56.214433 C38.7,57.2041237 39.8,57.6989691 40.9,57.6989691 C42.5,57.6989691 44.1,57.6 45.7,57.6 C45.3,57.6 43.8,60.9649485 43.7,61.3608247 C43.2,62.4494845 42.9,63.7360825 42.6,64.9237113 C42,67.5958763 41.8,70.3670103 42,73.1381443 C42.6,80.0659794 45.9,86.6969072 51.6,90.7546392 C62.5,98.6721649 79,95.7030928 86.7,84.7175258 C89.8,80.2639175 91.4,75.3154639 91.4,70.3670103 Z M78.1,22.5649485 C80.5,26.4247423 82.2,30.7793814 82.7,35.5298969 L72,35.5298969 C71.9,31.8680412 71.4,28.4041237 70.5,25.1381443 C73.2,24.4453608 75.7,23.5546392 78.1,22.5649485 Z M71.3,46.3175258 C71.5,45.0309278 71.7,43.7443299 71.8,42.457732 L82.8,42.457732 C82.5,45.228866 81.9,47.9010309 81,50.4742268 C80.2,49.8804124 79.3,49.385567 78.4,48.8907216 C78.1,48.7917526 77.9,48.5938144 77.6,48.4948454 C77.5,48.3958763 77.3,48.3958763 77.2,48.2969072 C77.2,48.2969072 77.2,48.2969072 77.1,48.2969072 C76.9,48.1979381 76.7,48.0989691 76.4,48 C76,47.8020619 75.5,47.6041237 75.1,47.5051546 C74.7,47.4061856 74.3,47.2082474 74,47.1092784 C73.9,47.1092784 73.8,47.0103093 73.7,47.0103093 C73.4,46.9113402 73.1,46.8123711 72.9,46.8123711 C72.6,46.7134021 72.2,46.614433 71.9,46.614433 C71.9,46.614433 71.9,46.614433 71.8,46.614433 L71.7,46.614433 C71.5,46.3175258 71.4,46.3175258 71.3,46.3175258 Z M73.6,16.9237113 C71.9,17.5175258 70.1,18.1113402 68.2,18.6061856 C66.7,15.3402062 64.7,12.2721649 62.4,9.50103093 C66.6,11.1835052 70.4,13.756701 73.6,16.9237113 Z M53.1,10.0948454 C56.5,12.9649485 59.1,16.2309278 61.1,19.9917526 C58.6,20.2886598 55.9,20.585567 53.1,20.6845361 L53.1,10.0948454 Z M53.1,27.5134021 C56.8,27.3154639 60.3,27.0185567 63.6,26.5237113 C64.4,29.2948454 64.8,32.3628866 64.9,35.5298969 L53.1,35.5298969 L53.1,27.5134021 Z M64.8,42.457732 C64.7,43.4474227 64.6,44.4371134 64.4,45.3278351 C64.4,45.5257732 64.3,45.8226804 64.4,46.0206186 C64.1,46.0206186 63.8,46.0206186 63.6,46.1195876 C63.5,46.1195876 63.3,46.1195876 63.2,46.1195876 C63.2,46.1195876 63.1,46.1195876 63,46.1195876 C62.9,46.1195876 62.7,46.1195876 62.6,46.2185567 C62.6,46.2185567 62.6,46.2185567 62.5,46.2185567 C62.3,46.2185567 62.2,46.2185567 62,46.3175258 C62,46.3175258 62,46.3175258 61.9,46.3175258 C61.7,46.3175258 61.5,46.4164948 61.3,46.4164948 C61,46.5154639 60.6,46.5154639 60.3,46.614433 C60,46.7134021 59.7,46.7134021 59.5,46.8123711 C59.4,46.8123711 59.3,46.9113402 59.2,46.9113402 C58.8,47.0103093 58.4,47.1092784 58.1,47.3072165 C57.7,47.5051546 57.2,47.6041237 56.8,47.8020619 C56.6,47.9010309 56.3,48 56.1,48.0989691 C56.1,48.0989691 56.1,48.0989691 56,48.0989691 C55.9,48.1979381 55.7,48.1979381 55.6,48.2969072 C55.3,48.3958763 55.1,48.5938144 54.8,48.6927835 C54.3,48.9896907 53.7,49.2865979 53.2,49.5835052 L53.2,42.2597938 L64.8,42.2597938 L64.8,42.457732 Z M66.5,89.0721649 C59.1,89.0721649 52.7,84.8164948 49.6,78.7793814 C48.6,76.8 48,74.7216495 47.7,72.4453608 C47.6,71.7525773 47.6,71.0597938 47.6,70.3670103 C47.6,66.7051546 48.7,63.2412371 50.5,60.371134 C51.2,59.1835052 52.1,58.1938144 53,57.2041237 C56.2,54.0371134 60.6,51.9587629 65.4,51.6618557 C65.7,51.6618557 66,51.6618557 66.4,51.6618557 C70.3,51.6618557 74,52.8494845 77,54.9278351 C77.4,55.2247423 77.8,55.5216495 78.2,55.8185567 C78.9,56.3134021 79.5,56.9072165 80.1,57.5010309 C81.2,58.5896907 82.1,59.8762887 82.9,61.2618557 C84.4,63.9340206 85.3,67.0020619 85.3,70.2680412 C85.4,80.7587629 77,89.0721649 66.5,89.0721649 Z"></path>
            <path d="M76.1,77.4927835 C76,77.4927835 75.8,77.4927835 75.7,77.4927835 L70.7,72.9402062 L70.2,72.4453608 C70.4,71.9505155 70.5,71.356701 70.5,70.7628866 C70.5,69.5752577 70,68.4865979 69.2,67.6948454 L69.9,65.1216495 L71.3,60.2721649 L71.3,60.1731959 C72.5,59.6783505 73.4,58.4907216 73.4,57.1051546 C73.4,55.2247423 71.9,53.7402062 70,53.7402062 C68.2,53.7402062 66.7,55.2247423 66.7,57.1051546 C66.7,57.6989691 66.8,58.2927835 67.1,58.6886598 L67,59.0845361 L65,66.5072165 C63.5,66.9030928 62.4,67.8927835 61.9,69.3773196 L55.2,70.8618557 C54.6,70.3670103 53.9,70.1690722 53.1,70.1690722 C51.8,70.1690722 50.7,70.9608247 50.1,72.0494845 C49.9,72.5443299 49.7,73.0391753 49.7,73.5340206 C49.7,75.414433 51.2,76.8989691 53.1,76.8989691 C54.3,76.8989691 55.4,76.3051546 55.9,75.3154639 L62.7,73.8309278 C63.5,74.8206186 64.7,75.414433 66.1,75.414433 C66.2,75.414433 66.3,75.414433 66.3,75.414433 C66.4,75.414433 66.5,75.414433 66.6,75.414433 L72.7,81.0556701 C72.7,82.9360825 74.2,84.4206186 76,84.4206186 C77.9,84.4206186 79.4,82.9360825 79.4,81.0556701 C79.5,78.9773196 78,77.4927835 76.1,77.4927835 Z"></path>
        </g>
    </g>
</svg>