<?xml version="1.0" encoding="UTF-8"?>
<svg width="96px" height="96px" viewBox="0 0 96 96" version="1.1" xmlns="http://www.w3.org/2000/svg" xmlns:xlink="http://www.w3.org/1999/xlink">
    <!-- Generator: Sketch 49.3 (51167) - http://www.bohemiancoding.com/sketch -->
    <title>iConnector Website</title>
    <desc>Created with Sketch.</desc>
    <defs></defs>
    <g id="iConnector-Website" stroke="none" stroke-width="1" fill="none" fill-rule="evenodd">
        <g fill="#0B82C5" fill-rule="nonzero" id="Shape">
            <path d="M94.9,63.6 C94.8,63.2 94.7,62.8 94.5,62.4 C94.5,62.4 94.5,62.4 94.5,62.4 C94.2,61.6 93.9,60.9 93.6,60.2 C92.7,58.4 91.6,56.7 90.4,55.1 C88.4,52.6 85.9,50.6 83,49 C82.2,48.6 81.3,48.1 80.4,47.8 C80.8,45.4 81.1,43 81.1,40.5 C81,18.2 62.8,0 40.5,0 C18.2,0 0,18.2 0,40.5 C0,62.8 18.2,81 40.5,81 C43,81 45.4,80.8 47.8,80.3 C48,80.8 48.2,81.3 48.5,81.8 C49.4,83.6 50.5,85.3 51.7,86.9 C53,88.4 54.4,89.8 56,91 C56.3,91.2 56.7,91.5 57,91.7 C57.7,92.2 58.3,92.6 59,92.9 C62.5,94.8 66.6,95.9 70.9,95.9 C75.2,95.9 79.3,94.8 82.8,92.9 C83.5,92.5 84.2,92.1 84.8,91.7 C85.1,91.5 85.5,91.2 85.8,91 C87.4,89.8 88.9,88.4 90.1,86.9 C91.4,85.3 92.5,83.7 93.3,81.8 C93.7,81.1 94,80.3 94.2,79.6 C95.2,76.9 95.7,74 95.7,71 C96,68.4 95.6,65.9 94.9,63.6 Z M6.1,38 C6.4,33.1 7.8,28.6 10,24.5 C13,25.7 16.2,26.8 19.8,27.5 C18.9,30.8 18.3,34.3 18.1,38 L6.1,38 Z M25.6,28.5 C29.4,29 33.6,29.3 38,29.4 L38,38 L24.1,38 C24.3,34.6 24.8,31.5 25.6,28.5 Z M71,24.4 C71,24.4 71,24.4 71,24.4 C73.2,28.5 74.6,33.1 74.9,38 L63.9,38 C63.7,34.2 63.1,30.6 62.2,27.2 C62.2,27.2 62.2,27.2 62.2,27.2 C65.4,26.5 68.3,25.5 71,24.4 Z M57.1,50.2 C55.4,51.3 53.9,52.7 52.5,54.1 C49.8,53.8 46.9,53.6 44,53.5 L44,44 L57.9,44 C57.9,44 57.9,44 57.9,44 C57.8,46.2 57.5,48.2 57.1,50.2 Z M47.5,62.4 C47.5,62.4 47.5,62.4 47.5,62.4 C47.4,62.8 47.2,63.2 47.1,63.6 C46.5,65.6 46.1,67.7 46,69.9 C45.3,70.5 44.7,71.1 44,71.6 L44,59.6 C45.6,59.6 47.1,59.7 48.7,59.8 C48.6,59.9 48.6,60 48.5,60.2 C48.5,60.2 48.5,60.2 48.5,60.2 C48.1,60.9 47.8,61.6 47.5,62.4 Z M56.3,28.4 C57.2,31.4 57.7,34.6 57.9,38 L44,38 L44,29.4 C48.4,29.3 52.5,29 56.3,28.4 C56.3,28.4 56.3,28.4 56.3,28.4 Z M44,23.4 L44,10.4 C48.4,13.9 51.8,17.9 54.1,22.6 C54.1,22.6 54.1,22.6 54.1,22.6 C50.9,23.1 47.6,23.3 44,23.4 Z M38,10.5 L38,23.5 C34.4,23.4 31,23.2 27.9,22.8 C30.2,18.1 33.6,14 38,10.5 Z M38,44 L38,53.5 C33.7,53.6 29.7,53.9 25.9,54.4 C24.9,51.2 24.3,47.7 24,44 L38,44 Z M38,59.5 L38,71.5 C33.9,68.2 30.6,64.4 28.3,60.1 C31.4,59.8 34.6,59.6 38,59.5 Z M63.7,47.1 C63.8,46.1 63.9,45 63.9,44 C63.9,44 63.9,44 63.9,44 L74.8,44 C74.8,44 74.8,44 74.8,44 C74.7,44.8 74.6,45.5 74.5,46.2 C73.4,46.1 72.2,46 71,46 C68.8,46 66.8,46.3 64.8,46.8 C64.4,46.9 64,47 63.7,47.1 Z M67.7,19.3 C65.4,20.2 62.9,21 60.2,21.6 C57.8,16.1 54.2,11.3 49.5,7.2 C56.8,9.1 63.1,13.5 67.7,19.3 Z M32.9,6.8 C32.9,6.8 32.9,6.8 32.9,6.8 C27.9,11 24.2,16 21.7,21.8 C18.6,21.2 15.8,20.3 13.2,19.3 C18.1,13.1 25,8.6 32.9,6.8 Z M6.2,44 L18.1,44 C18.3,48.1 19,51.9 20,55.4 C20,55.4 20,55.4 20,55.4 C16.7,56.1 13.7,57 10.9,58.1 C8.3,54 6.7,49.1 6.2,44 C6.2,44 6.2,44 6.2,44 Z M14.5,63.2 C16.8,62.4 19.4,61.7 22.1,61.1 C22.1,61.1 22.1,61.1 22.1,61.1 C24.3,65.8 27.4,70.1 31.4,73.8 C31.4,73.8 31.4,73.8 31.4,73.8 C24.8,72 18.9,68.2 14.5,63.2 Z M71,90 C63.3,90 56.7,85.4 53.7,78.8 C52.9,77 52.3,75 52.1,73 C52.1,72.8 52.1,72.6 52,72.4 C52,71.9 52,71.5 52,71 C52,67.1 53.2,63.5 55.2,60.5 C56.6,58.5 58.3,56.7 60.3,55.3 C61,54.8 61.7,54.4 62.4,54 C65,52.8 67.9,52 71,52 C71.7,52 72.3,52 73,52.1 C75,52.3 77,52.9 78.8,53.7 C85.4,56.7 90,63.3 90,71 C90,81.5 81.5,90 71,90 Z"></path>
            <path d="M80.6,78.2 C80.5,78.2 80.3,78.2 80.2,78.2 L74.7,73.1 C74.9,72.6 75,72 75,71.4 C75,70.2 74.5,69 73.7,68.2 L75.9,60.5 C77.1,60 78,58.8 78,57.4 C78,57 77.9,56.6 77.8,56.3 C77.3,55 76.1,54 74.6,54 C72.7,54 71.2,55.5 71.2,57.4 C71.2,57.9 71.3,58.4 71.5,58.9 C71.5,59 71.5,59 71.6,59.1 L70,64.8 L69.4,67 C67.9,67.4 66.8,68.5 66.3,69.9 L59.5,71.4 C58.9,70.9 58.2,70.6 57.4,70.6 C57.4,70.6 57.3,70.6 57.3,70.6 C56.3,70.6 55.3,71.1 54.7,71.9 C54.3,72.5 54,73.2 54,74 C54,75.8 55.4,77.3 57.1,77.4 C57.2,77.4 57.3,77.4 57.3,77.4 C58.5,77.4 59.5,76.8 60.1,75.8 C60.1,75.8 60.2,75.8 60.2,75.8 L66.9,74.3 C67.7,75.3 69,75.9 70.4,75.9 C70.6,75.9 70.8,75.9 71,75.9 L77.2,81.6 C77.2,83.5 78.7,85 80.6,85 C82.5,85 84,83.5 84,81.6 C84,79.7 82.5,78.2 80.6,78.2 Z"></path>
        </g>
    </g>
</svg>