<?xml version="1.0" encoding="UTF-8"?>
<svg width="96px" height="96px" viewBox="0 0 96 96" version="1.1" xmlns="http://www.w3.org/2000/svg" xmlns:xlink="http://www.w3.org/1999/xlink">
    <!-- Generator: Sketch 49.3 (51167) - http://www.bohemiancoding.com/sketch -->
    <title>iConnector SaaS </title>
    <desc>Created with Sketch.</desc>
    <defs></defs>
    <g id="iConnector-SaaS-" stroke="none" stroke-width="1" fill="none" fill-rule="evenodd">
        <g id="iConnector-SaaS" transform="translate(0.000000, 2.000000)" fill="#0B82C5" fill-rule="nonzero">
            <path d="M93.3,56.6 C95,53.8 96,50.5 96,47 C96,37.3 88.5,29.3 79,28.6 C78.5,20.2 71.5,13.5 63,13.5 C61.7,13.5 60.5,13.7 59.2,14 C55.1,5.8 46.7,0.5 37.5,0.5 C24,0.5 13,11.7 13,25.5 C13,25.9 13,26.3 13,26.7 C5.3,29.6 0,37 0,45.5 C0,56.3 8.4,65 19.1,65.5 C19.2,65.5 19.3,65.5 19.5,65.5 L43.5,65.5 C43.5,66 43.5,66.5 43.5,67 C43.5,70.1 44.1,73.2 45.1,75.9 C45.5,77.1 46.1,78.2 46.7,79.4 C46.9,79.8 47.1,80.1 47.3,80.5 C47.7,81.2 48.2,81.9 48.7,82.6 C49.5,83.6 50.3,84.5 51.2,85.4 C52.4,86.6 53.7,87.6 55,88.6 C55.7,89.1 56.4,89.5 57.1,89.9 C60.8,91.9 65,93 69.5,93 C74,93 78.2,91.9 81.9,89.9 C82.6,89.5 83.4,89.1 84,88.6 C85.4,87.7 86.7,86.6 87.8,85.4 C88.7,84.5 89.5,83.6 90.3,82.6 C90.8,81.9 91.3,81.3 91.7,80.5 C91.9,80.1 92.1,79.8 92.3,79.4 C92.9,78.3 93.4,77.1 93.9,75.9 C94.9,73.1 95.5,70.1 95.5,67 C95.5,63.9 94.9,60.8 93.9,58.1 C93.7,57.5 93.5,57 93.3,56.6 Z M19.7,58.5 C19.7,58.5 19.6,58.5 19.6,58.5 C12.5,58.3 7,52.6 7,45.5 C7,39.3 11.4,33.9 17.5,32.7 C19.4,32.3 20.6,30.5 20.3,28.7 C20.1,27.7 20,26.6 20,25.5 C20,15.6 27.8,7.5 37.5,7.5 C44.9,7.5 51.5,12.3 54,19.5 C54.3,20.5 55.1,21.2 56,21.6 C57,22 58,21.9 58.9,21.5 C60.2,20.9 61.6,20.5 63,20.5 C68,20.5 72,24.5 72,29.5 C72,30.2 71.9,30.8 71.8,31.4 C71.6,32.5 71.9,33.7 72.7,34.5 C73.5,35.3 74.7,35.7 75.8,35.6 C76.4,35.5 77,35.5 77.6,35.5 C83.8,35.5 89,40.7 89,47 C89,47.8 88.9,48.7 88.7,49.5 C88.4,49.2 88.1,48.9 87.9,48.6 C86.7,47.4 85.4,46.4 84.1,45.4 C83.4,44.9 82.7,44.5 82,44.1 C78.3,42.1 74.1,41 69.6,41 C65.1,41 60.9,42.1 57.2,44.1 C56.5,44.5 55.7,44.9 55.1,45.4 C53.7,46.3 52.4,47.4 51.3,48.6 C50.4,49.5 49.6,50.4 48.8,51.4 C48.3,52.1 47.8,52.7 47.4,53.5 C47.2,53.9 47,54.2 46.8,54.6 C46.2,55.7 45.7,56.9 45.2,58.1 C45.2,58.2 45.1,58.4 45,58.5 L19.7,58.5 Z M69.5,86 C59,86 50.5,77.5 50.5,67 C50.5,66.5 50.5,66 50.6,65.5 C50.8,63 51.5,60.6 52.6,58.5 C55.7,52.3 62.2,48 69.6,48 C75.9,48 81.5,51.1 85,55.8 C86.4,57.7 87.5,59.9 88,62.2 C88.4,63.7 88.6,65.3 88.6,66.9 C88.5,77.5 80,86 69.5,86 Z" id="Shape"></path>
            <path d="M79.1,74.2 C79,74.2 78.8,74.2 78.7,74.2 L73.2,69.1 C73.4,68.6 73.5,68 73.5,67.4 C73.5,66.7 73.4,66.1 73.1,65.5 C72.9,65 72.6,64.6 72.2,64.2 L73.8,58.5 L74.3,56.5 C75.5,56 76.4,54.8 76.4,53.4 C76.4,51.5 74.9,50 73,50 C71.1,50 69.6,51.5 69.6,53.4 C69.6,54 69.8,54.6 70,55 L69,58.5 L67.9,63 C66.6,63.3 65.5,64.3 64.9,65.5 C64.8,65.6 64.8,65.7 64.8,65.9 L58,67.4 C57.4,66.9 56.7,66.6 55.9,66.6 C54,66.6 52.5,68.1 52.5,70 C52.5,71.9 54,73.4 55.9,73.4 C57.1,73.4 58.2,72.8 58.8,71.8 L65.6,70.3 C66.4,71.3 67.7,71.9 69.1,71.9 C69.3,71.9 69.5,71.9 69.7,71.9 L75.9,77.6 C75.9,79.5 77.4,81 79.3,81 C81.2,81 82.7,79.5 82.7,77.6 C82.7,75.7 81,74.2 79.1,74.2 Z" id="Shape"></path>
        </g>
    </g>
</svg>