<?xml version="1.0" encoding="UTF-8"?>
<svg width="96px" height="96px" viewBox="0 0 96 96" version="1.1" xmlns="http://www.w3.org/2000/svg" xmlns:xlink="http://www.w3.org/1999/xlink">
    <!-- Generator: Sketch 49.3 (51167) - http://www.bohemiancoding.com/sketch -->
    <title>iConnector Email</title>
    <desc>Created with Sketch.</desc>
    <defs></defs>
    <g id="iConnector-Email" stroke="none" stroke-width="1" fill="none" fill-rule="evenodd">
        <g transform="translate(-1.000000, 6.000000)" fill="#0B82C5" fill-rule="nonzero" id="Shape">
            <path d="M94.4,51.1 C94,49.9 93.4,48.8 92.8,47.6 C92.6,47.2 92.4,46.9 92.2,46.5 C91.8,45.8 91.3,45.1 90.8,44.4 C90,43.4 89.2,42.5 88.3,41.6 C87.1,40.4 85.8,39.4 84.5,38.4 C83.8,37.9 83.1,37.5 82.4,37.1 C82,36.9 81.6,36.7 81.3,36.5 C81.1,36.4 80.8,36.3 80.5,36.2 L80.5,4 C80.5,2.1 78.9,0.5 77,0.5 L4,0.5 C3.1,0.5 2.3,0.8 1.7,1.4 C1.5,1.6 1.3,1.8 1.2,2 C0.8,2.5 0.6,3.1 0.6,3.7 C0.6,3.8 0.6,3.9 0.6,4.1 L0.6,56.1 C0.6,58 2.2,59.6 4.1,59.6 L44.1,59.6 C44.1,59.8 44.1,59.9 44.1,60.1 C44.1,63.2 44.7,66.3 45.7,69 C46.1,70.2 46.7,71.3 47.3,72.5 C47.5,72.9 47.7,73.2 47.9,73.6 C48.3,74.3 48.8,75 49.3,75.7 C50.1,76.7 50.9,77.6 51.8,78.5 C53,79.7 54.3,80.7 55.6,81.7 C56.3,82.2 57,82.6 57.7,83 C61.4,85 65.6,86.1 70.1,86.1 C74.6,86.1 78.8,85 82.5,83 C83.2,82.6 84,82.2 84.6,81.7 C86,80.8 87.3,79.7 88.4,78.5 C89.3,77.6 90.1,76.7 90.9,75.7 C91.4,75 91.9,74.4 92.3,73.6 C92.5,73.2 92.7,72.9 92.9,72.5 C93.5,71.4 94,70.2 94.5,69 C95.5,66.2 96.1,63.2 96.1,60.1 C96.1,57 95.4,53.8 94.4,51.1 Z M64.3,7.5 L39.4,23.8 L15.4,7.5 L64.3,7.5 Z M7.5,52.5 L7.5,10.6 L37.4,30.9 C38.6,31.7 40.1,31.7 41.3,30.9 L73.5,9.8 L73.5,34.2 C72.3,34.1 71.2,34 70,34 C65.5,34 61.3,35.1 57.6,37.1 C56.9,37.5 56.1,37.9 55.5,38.4 C54.1,39.3 52.8,40.4 51.7,41.6 C50.8,42.5 50,43.4 49.2,44.4 C48.7,45.1 48.2,45.7 47.8,46.5 C47.6,46.9 47.4,47.2 47.2,47.6 C46.6,48.7 46.1,49.9 45.6,51.1 C45.4,51.6 45.3,52.1 45.1,52.5 L7.5,52.5 Z M70,79 C59.5,79 51,70.5 51,60 C51,59.8 51,59.7 51,59.5 C51.1,57 51.6,54.7 52.5,52.5 C55.5,45.7 62.2,41 70,41 C71.2,41 72.4,41.1 73.5,41.3 C76,41.8 78.4,42.8 80.5,44.1 C85.6,47.6 89,53.4 89,60 C89,70.5 80.5,79 70,79 Z"></path>
            <path d="M79.6,67.2 C79.5,67.2 79.3,67.2 79.2,67.2 L73.7,62.1 C73.9,61.6 74,61 74,60.4 C74,60.1 74,59.8 73.9,59.5 C73.7,58.6 73.3,57.8 72.7,57.2 L74.9,49.5 C76.1,49 77,47.8 77,46.4 C77,44.5 75.5,43 73.6,43 C73.6,43 73.5,43 73.5,43 C71.7,43.1 70.3,44.5 70.3,46.4 C70.3,47 70.5,47.6 70.7,48 L69.4,52.5 L68.4,56 C66.9,56.4 65.8,57.5 65.3,58.9 L62.5,59.5 L58.6,60.4 C58.6,60.4 58.6,60.4 58.6,60.4 C58,59.9 57.3,59.6 56.5,59.6 C54.6,59.6 53.1,61.1 53.1,63 C53.1,64.9 54.6,66.4 56.5,66.4 C57.7,66.4 58.8,65.8 59.4,64.8 L66.2,63.3 C67,64.3 68.3,64.9 69.7,64.9 C69.9,64.9 70.1,64.9 70.3,64.9 L76.5,70.6 C76.5,72.5 78,74 79.9,74 C81.8,74 83.3,72.5 83.3,70.6 C83.3,68.7 81.5,67.2 79.6,67.2 Z"></path>
        </g>
    </g>
</svg>