<?xml version="1.0" encoding="UTF-8"?>
<svg width="96px" height="96px" viewBox="0 0 96 96" version="1.1" xmlns="http://www.w3.org/2000/svg" xmlns:xlink="http://www.w3.org/1999/xlink">
    <!-- Generator: Sketch 49.3 (51167) - http://www.bohemiancoding.com/sketch -->
    <title>iConnector facebook messanger</title>
    <desc>Created with Sketch.</desc>
    <defs></defs>
    <g id="iConnector-facebook-messanger" stroke="none" stroke-width="1" fill="none" fill-rule="evenodd">
        <g id="iConnector-facebook-messenger" fill="#0B82C5" fill-rule="nonzero">
            <path d="M48.8,49.1 C49.6,49.1 50.4,48.8 50.9,48.2 L63.8,35 C64.8,34 64.9,32.4 64.1,31.2 C63.3,30 61.8,29.6 60.5,30.1 L49.1,34.9 L39.8,28.5 C38.6,27.7 37,27.8 36,28.9 L23.9,41.2 C22.9,42.2 22.7,43.8 23.5,45 C24.3,46.2 25.8,46.7 27.1,46.2 L37.7,42 L47.1,48.6 C47.6,48.9 48.2,49.1 48.8,49.1 Z" id="Shape"></path>
            <path d="M94.4,61.1 C94,59.9 93.4,58.8 92.8,57.6 C92.6,57.2 92.4,56.9 92.2,56.5 C91.8,55.8 91.3,55.1 90.8,54.4 C90,53.4 89.2,52.5 88.3,51.6 C88.1,51.4 87.9,51.2 87.7,51 C87.3,50.6 86.9,50.3 86.5,49.9 C86.5,49.9 86.5,49.9 86.5,49.9 C86.3,49.7 86.1,49.6 85.9,49.4 C87.2,45.8 87.9,41.9 87.9,37.9 C88,17 68.3,0 44,0 C19.7,0 0,17 0,38 C0,49.2 5.7,59.7 15.5,67 L17.6,82.3 C18,85.1 21.3,86.3 23.4,84.5 L34.1,75.1 C37.3,75.7 40.6,76 43.9,76 C44.1,76 44.4,76 44.6,76 C44.6,76.2 44.7,76.3 44.7,76.5 C44.9,77.3 45.2,78.2 45.5,79 C45.9,80.2 46.5,81.3 47.1,82.5 C47.3,82.9 47.5,83.2 47.7,83.6 C48.1,84.3 48.6,85 49.1,85.7 C49.9,86.7 50.7,87.6 51.6,88.5 C52.8,89.7 54.1,90.7 55.4,91.7 C56.1,92.2 56.8,92.6 57.5,93 C61.2,95 65.4,96.1 69.9,96.1 C74.4,96.1 78.6,95 82.3,93 C83,92.6 83.8,92.2 84.4,91.7 C85.8,90.8 87.1,89.7 88.2,88.5 C89.1,87.6 89.9,86.7 90.7,85.7 C91.2,85 91.7,84.4 92.1,83.6 C92.3,83.2 92.5,82.9 92.7,82.5 C93.3,81.4 93.8,80.2 94.3,79 C95.3,76.2 95.9,73.2 95.9,70.1 C95.9,67 95.4,63.8 94.4,61.1 Z M35.5,68.5 L32.3,67.9 L24.9,74.3 C24.3,74.8 23.3,74.5 23.2,73.7 L21.7,63.3 L19.4,61.6 C11.3,55.6 6.7,47 6.7,38 C6.7,20.7 23.4,6.7 44,6.7 C64.6,6.7 81.3,20.7 81.3,38 C81.3,40.8 80.9,43.5 80.1,46 C77,44.7 73.6,44 70,44 C65.5,44 61.3,45.1 57.6,47.1 C56.9,47.5 56.1,47.9 55.5,48.4 C54.1,49.3 52.8,50.4 51.7,51.6 C50.8,52.5 50,53.4 49.2,54.4 C48.7,55.1 48.2,55.7 47.8,56.5 C47.6,56.9 47.4,57.2 47.2,57.6 C46.6,58.7 46.1,59.9 45.6,61.1 C44.6,63.7 44.1,66.5 44,69.4 C41.1,69.3 38.3,69.1 35.5,68.5 Z M70,89 C61.4,89 54.1,83.3 51.8,75.4 C51.3,73.7 51,71.9 51,70 C51,69.6 51,69.2 51,68.8 C51.7,58.9 59.9,51 70,51 C72.5,51 75,51.5 77.2,52.4 C79.3,53.2 81.2,54.5 82.8,55.9 C86.6,59.4 89,64.4 89,70 C89,80.5 80.5,89 70,89 Z" id="Shape"></path>
            <path d="M79.6,77.2 C79.5,77.2 79.3,77.2 79.2,77.2 L73.7,72.1 C73.9,71.6 74,71 74,70.4 C74,69.2 73.5,68 72.7,67.2 L72.9,66.6 L74.9,59.5 C76.1,59 77,57.8 77,56.4 C77,55.5 76.6,54.7 76.1,54 C75.5,53.4 74.6,53 73.6,53 C71.7,53 70.2,54.5 70.2,56.4 C70.2,57 70.4,57.6 70.6,58 L70,60.5 L68.4,66 C66.9,66.4 65.8,67.5 65.3,68.9 L58.5,70.4 C57.9,69.9 57.2,69.6 56.4,69.6 C54.5,69.6 53,71.1 53,73 C53,73.8 53.2,74.5 53.7,75 C54.3,75.8 55.3,76.4 56.4,76.4 C57.6,76.4 58.7,75.8 59.3,74.8 L66.1,73.3 C66.9,74.3 68.2,74.9 69.6,74.9 C69.8,74.9 70,74.9 70.2,74.9 L76.4,80.6 C76.4,82.5 77.9,84 79.8,84 C81.7,84 83.2,82.5 83.2,80.6 C83.2,78.7 81.5,77.2 79.6,77.2 Z" id="Shape"></path>
        </g>
    </g>
</svg>