<?xml version="1.0" encoding="UTF-8"?>
<svg width="96px" height="96px" viewBox="0 0 96 96" version="1.1" xmlns="http://www.w3.org/2000/svg" xmlns:xlink="http://www.w3.org/1999/xlink">
    <!-- Generator: Sketch 49.3 (51167) - http://www.bohemiancoding.com/sketch -->
    <title>iConnector IRC</title>
    <desc>Created with Sketch.</desc>
    <defs></defs>
    <g id="iConnector-IRC" stroke="none" stroke-width="1" fill="none" fill-rule="evenodd">
        <g fill="#0B82C5" fill-rule="nonzero" id="Shape">
            <path d="M90.9,63.6 C90.8,63.2 90.7,62.8 90.5,62.4 C90.5,62.4 90.5,62.4 90.5,62.4 C90.2,61.6 89.9,60.9 89.6,60.2 C88.7,58.4 87.6,56.7 86.4,55.1 C86.1,54.8 85.8,54.4 85.6,54.1 C85.3,53.8 85,53.5 84.7,53.2 C84.2,52.3 83.5,51.7 82.6,51.3 C81.8,50.7 80.9,50.1 80,49.5 C79.7,49.3 79.4,49.2 79.1,49 C78,48.4 76.9,47.9 75.8,47.5 C75.4,47.4 75,47.2 74.6,47.1 C74.2,47 73.8,46.9 73.4,46.8 C73.4,46.8 73.4,46.8 73.4,46.8 C73,46.7 72.7,46.6 72.3,46.5 L74.1,37.5 C74.2,37 74.6,36.7 75.1,36.7 L85.6,36.7 C87.5,36.7 89.2,35.3 89.5,33.5 L92,20.8 L92.1,20.4 L92.1,20.1 C92.1,17.9 90.3,16.1 88.1,16.1 L79.6,16.1 C79.5,16.1 79.5,16.1 79.4,16.1 C78.9,16 78.5,15.5 78.6,14.9 L80.6,4.7 L80.7,4.3 L80.7,4 C80.7,1.8 78.9,0 76.7,0 L64.8,0 C62.9,0 61.2,1.4 60.9,3.2 L58.5,15.3 C58.4,15.8 58,16.1 57.5,16.1 L45.8,16.1 C45.7,16.1 45.7,16.1 45.6,16.1 C45.1,16 44.7,15.5 44.8,14.9 L46.8,4.8 L46.9,4.4 L46.9,4 C46.9,1.8 45.1,0 42.9,0 L31.2,0 C29.3,0 27.7,1.3 27.3,3.2 L24.9,15.3 C24.8,15.8 24.4,16.1 23.9,16.1 L13.4,16.1 C11.5,16.1 9.9,17.5 9.5,19.3 L7,32 L6.9,32.4 L6.9,32.7 C6.9,34.9 8.7,36.7 10.9,36.7 L19.4,36.7 C19.5,36.7 19.5,36.7 19.6,36.7 C20.1,36.8 20.5,37.3 20.4,37.9 L18,50.3 C17.9,50.8 17.5,51.1 17,51.1 L6.5,51.1 C4.6,51.1 2.9,52.5 2.6,54.3 L0.1,66.9 L0,67.3 L0,67.6 C0,69.8 1.8,71.6 4,71.6 L12.5,71.6 C12.6,71.6 12.6,71.6 12.7,71.6 C13,71.7 13.2,71.9 13.3,72 C13.4,72.2 13.5,72.4 13.5,72.8 L11.8,81.2 L11.7,81.6 L11.7,82 C11.7,84.2 13.5,86 15.7,86 L27.4,86 C29.3,86 30.9,84.6 31.3,82.8 L33.3,72.5 C33.4,72 33.8,71.7 34.3,71.7 L42,71.7 C42.1,74.5 42.6,77.2 43.5,79.6 C43.8,80.4 44.1,81.1 44.4,81.8 C45.3,83.6 46.4,85.3 47.6,86.9 C47.9,87.3 48.2,87.7 48.6,88 C49.6,89.1 50.7,90.1 51.9,91 C52.2,91.2 52.6,91.5 52.9,91.7 C53.6,92.2 54.2,92.6 54.9,92.9 C58.4,94.8 62.5,95.9 66.8,95.9 C71.1,95.9 75.2,94.8 78.7,92.9 C79.4,92.5 80.1,92.1 80.7,91.7 C81,91.5 81.4,91.2 81.7,91 C82.9,90.1 84,89.1 85,88 C85.3,87.6 85.7,87.3 86,86.9 C87.3,85.3 88.4,83.7 89.2,81.8 C89.6,81.1 89.9,80.3 90.1,79.6 C91.1,76.9 91.6,74 91.6,71 C92,68.4 91.6,65.9 90.9,63.6 Z M29.3,66.5 C27.9,67.6 26.9,69.3 26.5,71.1 L25,79 L19.5,79 L20.5,74.2 C20.9,72.1 20.5,70 19.3,68.2 C18.1,66.4 16.3,65.2 14.2,64.8 C13.7,64.7 13.2,64.6 12.7,64.6 L7.7,64.6 L9,58 L17,58 C20.8,58 24.1,55.3 24.8,51.6 L27.2,39.3 C28.1,35 25.2,30.8 20.9,29.9 C20.4,29.8 19.9,29.7 19.3,29.7 L14.4,29.7 L15.7,23.1 L24,23.1 C27.8,23.1 31.1,20.4 31.8,16.7 L33.7,7 L39.2,7 L38,13.6 C37.1,17.9 40,22.1 44.3,23 C44.8,23.1 45.3,23.2 45.9,23.2 L57.6,23.2 C61.4,23.2 64.7,20.5 65.4,16.8 L67.3,7 L72.8,7 L71.5,13.6 C70.6,17.9 73.5,22.1 77.8,23 C78.3,23.1 78.8,23.2 79.4,23.2 L84.3,23.2 L83,29.7 L74.9,29.7 C71.1,29.7 67.8,32.4 67,36.1 L65,46 C63.5,46.1 62.1,46.3 60.7,46.7 C60.2,46.8 59.7,47 59.3,47.1 L60.6,40.4 C61.6,35.5 58.4,30.8 53.5,29.8 C52.9,29.7 52.3,29.6 51.8,29.6 L42.1,29.6 C37.8,29.6 34.1,32.7 33.3,36.8 L31.3,47.1 C30.8,49.5 31.3,51.9 32.6,53.9 C33.9,55.9 36,57.2 38.3,57.7 C38.9,57.8 39.5,57.9 40.1,57.9 L45.6,57.9 C45.2,58.6 44.8,59.3 44.5,60 C44.1,60.7 43.8,61.5 43.6,62.2 C43.6,62.2 43.6,62.2 43.6,62.2 C43.5,62.6 43.3,63 43.2,63.4 C43.1,63.8 43,64.1 42.9,64.5 L34.5,64.5 C32.5,64.7 30.7,65.3 29.3,66.5 Z M51.8,49.5 C51.6,50.4 50.8,51.1 49.8,51.1 L40.1,51.1 C40,51.1 39.8,51.1 39.7,51.1 C39.2,51 38.7,50.7 38.4,50.3 C38.1,49.8 38,49.3 38.1,48.8 L40.1,38.5 C40.3,37.6 41.1,36.9 42.1,36.9 L51.8,36.9 C51.9,36.9 52.1,36.9 52.2,36.9 C53.3,37.1 54,38.2 53.8,39.2 L51.8,49.5 Z M67,90 C62.6,90 58.6,88.5 55.4,86 C50.9,82.5 48,77.1 48,71 C48,69 48.3,67 48.9,65.2 C50,61.9 51.9,59 54.4,56.8 C55,56.4 55.6,56 56.1,55.5 C58.6,53.8 61.5,52.6 64.7,52.2 C65.5,52 66.2,52 67,52 C74.2,52 80.5,56 83.7,62 C85.2,64.7 86,67.8 86,71 C86,81.5 77.5,90 67,90 Z"></path>
            <path d="M76.6,78.2 C76.5,78.2 76.3,78.2 76.2,78.2 L70.7,73.1 C70.9,72.7 71,72.2 71,71.7 C71,71.6 71,71.5 71,71.4 C71,70.2 70.5,69 69.7,68.2 L70.7,64.6 L71.9,60.5 C72.9,60.1 73.7,59.2 73.9,58 C73.9,57.8 74,57.6 74,57.3 C74,55.4 72.5,53.9 70.6,53.9 C69.1,53.9 67.9,54.9 67.4,56.2 C67.3,56.6 67.2,56.9 67.2,57.3 C67.2,57.9 67.4,58.5 67.6,58.9 L66,64.9 L65.4,67 C63.9,67.4 62.8,68.5 62.3,69.9 L60.4,70.3 L55.5,71.4 C55,71 54.5,70.8 53.9,70.7 C53.7,70.7 53.6,70.7 53.4,70.7 C51.5,70.7 50,72.2 50,74.1 C50,76 51.5,77.5 53.3,77.5 C54.5,77.5 55.6,76.9 56.2,75.9 L59.3,75.2 L63,74.4 C63.8,75.4 65,76 66.3,76 C66.4,76 66.4,76 66.5,76 C66.7,76 66.9,76 67.1,76 L73.3,81.7 C73.3,83.6 74.8,85.1 76.7,85.1 C78.6,85.1 80.1,83.6 80.1,81.7 C80.1,79.8 78.5,78.2 76.6,78.2 Z"></path>
        </g>
    </g>
</svg>