<?xml version="1.0" encoding="UTF-8"?>
<svg width="96px" height="96px" viewBox="0 0 96 96" version="1.1" xmlns="http://www.w3.org/2000/svg" xmlns:xlink="http://www.w3.org/1999/xlink">
    <!-- Generator: Sketch 49.3 (51167) - http://www.bohemiancoding.com/sketch -->
    <title>iConnector Facetime</title>
    <desc>Created with Sketch.</desc>
    <defs></defs>
    <g id="iConnector-Facetime" stroke="none" stroke-width="1" fill="none" fill-rule="evenodd">
        <g transform="translate(0.000000, 7.000000)" fill="#0B82C5" fill-rule="nonzero" id="Shape">
            <path d="M94.4,51.1 C94,49.9 93.4,48.8 92.8,47.6 C92.6,47.2 92.4,46.9 92.2,46.5 C91.8,45.8 91.3,45.1 90.8,44.4 C90,43.4 89.2,42.5 88.3,41.6 C88,41.3 87.7,41 87.4,40.8 L87.4,10 C87.4,8.8 86.8,7.7 85.9,7.1 C84.9,6.4 83.7,6.3 82.6,6.8 L64.6,14.2 C63.3,14.7 62.4,16 62.4,17.4 L62.4,35.1 C61.7,35.3 61.1,35.5 60.4,35.8 L60.4,4 C60.4,2.1 58.8,0.5 56.9,0.5 L4,0.5 C2.1,0.5 0.5,2.1 0.5,4 L0.5,51 C0.5,52.9 2.1,54.5 4,54.5 L44.6,54.5 C44.2,56.3 44,58.1 44,60 C44,63.1 44.6,66.2 45.6,68.9 C46,70.1 46.6,71.2 47.2,72.4 C47.4,72.8 47.6,73.1 47.8,73.5 C48.2,74.2 48.7,74.9 49.2,75.6 C50,76.6 50.8,77.5 51.7,78.4 C52.9,79.6 54.2,80.6 55.5,81.6 C56.2,82.1 56.9,82.5 57.6,82.9 C61.3,84.9 65.5,86 70,86 C74.5,86 78.7,84.9 82.4,82.9 C83.1,82.5 83.9,82.1 84.5,81.6 C85.9,80.7 87.2,79.6 88.3,78.4 C89.2,77.5 90,76.6 90.8,75.6 C91.3,74.9 91.8,74.3 92.2,73.5 C92.4,73.1 92.6,72.8 92.8,72.4 C93.4,71.3 93.9,70.1 94.4,68.9 C95.4,66.1 96,63.1 96,60 C96,56.9 95.4,53.8 94.4,51.1 Z M69.5,19.7 L80.5,15.2 L80.5,36.2 C77.3,34.8 73.7,34 70,34 C69.8,34 69.7,34 69.5,34 L69.5,19.7 Z M7.5,47.5 L7.5,7.5 L53.5,7.5 L53.5,39.9 C53.2,40.2 52.8,40.4 52.5,40.7 C52.2,41 51.9,41.3 51.6,41.6 C50.7,42.5 49.9,43.4 49.1,44.4 C48.6,45.1 48.1,45.7 47.7,46.5 C47.5,46.8 47.3,47.1 47.1,47.5 L7.5,47.5 Z M70,79 C59.5,79 51,70.5 51,60 C51,58.1 51.3,56.2 51.8,54.5 C53.2,49.8 56.3,45.9 60.5,43.5 C61.8,42.7 63.2,42.2 64.7,41.7 C66.4,41.2 68.2,40.9 70,40.9 C76.1,40.9 81.5,43.8 85,48.2 C87.5,51.4 89,55.5 89,59.9 C89,70.5 80.5,79 70,79 Z"></path>
            <path d="M79.6,67.2 C79.5,67.2 79.3,67.2 79.2,67.2 L73.7,62.1 C73.9,61.6 74,61 74,60.4 C74,59.2 73.5,58 72.7,57.2 L74.9,49.5 C76.1,49 77,47.8 77,46.4 C77,46.3 77,46.3 77,46.2 C76.9,44.4 75.4,43 73.6,43 C72.6,43 71.7,43.4 71.1,44.1 C70.6,44.7 70.2,45.5 70.2,46.4 C70.2,47 70.4,47.6 70.6,48 L68.3,56 C66.8,56.4 65.7,57.5 65.2,58.9 L58.4,60.4 C57.8,59.9 57.1,59.6 56.3,59.6 C54.4,59.6 52.9,61.1 52.9,63 C52.9,64.9 54.4,66.4 56.3,66.4 C57.5,66.4 58.6,65.8 59.2,64.8 L66,63.3 C66.8,64.3 68.1,64.9 69.5,64.9 C69.7,64.9 69.9,64.9 70.1,64.9 L76.3,70.6 C76.3,72.5 77.8,74 79.7,74 C81.6,74 83.1,72.5 83.1,70.6 C83.1,68.7 81.5,67.2 79.6,67.2 Z"></path>
        </g>
    </g>
</svg>