<?xml version="1.0" encoding="UTF-8"?>
<svg width="96px" height="96px" viewBox="0 0 96 96" version="1.1" xmlns="http://www.w3.org/2000/svg" xmlns:xlink="http://www.w3.org/1999/xlink">
    <!-- Generator: Sketch 49.3 (51167) - http://www.bohemiancoding.com/sketch -->
    <title>iConnector SMS</title>
    <desc>Created with Sketch.</desc>
    <defs></defs>
    <g id="iConnector-SMS" stroke="none" stroke-width="1" fill="none" fill-rule="evenodd">
        <g fill="#0B82C5" fill-rule="nonzero">
            <ellipse id="Oval" cx="25" cy="36.6185567" rx="5" ry="4.94845361"></ellipse>
            <ellipse id="Oval" cx="44" cy="36.6185567" rx="5" ry="4.94845361"></ellipse>
            <ellipse id="Oval" cx="63" cy="36.6185567" rx="5" ry="4.94845361"></ellipse>
            <path d="M94.4,60.4701031 C94,59.2824742 93.4,58.1938144 92.8,57.0061856 C92.6,56.6103093 92.4,56.3134021 92.2,55.9175258 C91.8,55.2247423 91.3,54.5319588 90.8,53.8391753 C90,52.8494845 89.2,51.9587629 88.3,51.0680412 C88.1,50.8701031 87.9,50.6721649 87.7,50.4742268 C87.3,50.0783505 86.9,49.7814433 86.5,49.385567 C86.5,49.385567 86.5,49.385567 86.5,49.385567 C86.3,49.1876289 86.1,49.0886598 85.9,48.8907216 C87.2,45.3278351 87.9,41.4680412 87.9,37.5092784 C88,16.8247423 68.3,0 44,0 C19.7,0 0,16.8247423 0,37.6082474 C0,48.6927835 5.7,59.0845361 15.5,66.3092784 L17.6,81.1546392 C18,84.0247423 21.5,85.3113402 23.7,83.4309278 L34.2,74.3257732 C37.4,74.9195876 40.7,75.2164948 44,75.2164948 C44.2,75.2164948 44.5,75.2164948 44.7,75.2164948 C44.7,75.414433 44.8,75.5134021 44.8,75.7113402 C45,76.5030928 45.3,77.3938144 45.6,78.185567 C46,79.3731959 46.6,80.4618557 47.2,81.6494845 C47.4,82.0453608 47.6,82.342268 47.8,82.7381443 C48.2,83.4309278 48.7,84.1237113 49.2,84.8164948 C50,85.8061856 50.8,86.6969072 51.7,87.5876289 C52.9,88.7752577 54.2,89.7649485 55.5,90.7546392 C56.2,91.2494845 56.9,91.6453608 57.6,92.0412371 C61.3,94.0206186 65.5,95.1092784 70,95.1092784 C74.5,95.1092784 78.7,94.0206186 82.4,92.0412371 C83.1,91.6453608 83.9,91.2494845 84.5,90.7546392 C85.9,89.8639175 87.2,88.7752577 88.3,87.5876289 C89.2,86.6969072 90,85.8061856 90.8,84.8164948 C91.3,84.1237113 91.8,83.5298969 92.2,82.7381443 C92.4,82.342268 92.6,82.0453608 92.8,81.6494845 C93.4,80.5608247 93.9,79.3731959 94.4,78.185567 C95.4,75.414433 96,72.4453608 96,69.3773196 C96,66.3092784 95.4,63.142268 94.4,60.4701031 Z M35.5,67.7938144 L32.3,67.2 L24.8,73.6329897 C24.2,74.1278351 23.3,73.8309278 23.2,73.0391753 L21.7,62.5484536 L19.4,60.8659794 C11.3,55.0268041 6.7,46.5154639 6.7,37.6082474 C6.7,20.4865979 23.4,6.63092784 44,6.63092784 C64.6,6.63092784 81.3,20.4865979 81.3,37.6082474 C81.3,40.3793814 80.9,43.0515464 80.1,45.5257732 C77,44.2391753 73.6,43.5463918 70,43.5463918 C65.5,43.5463918 61.3,44.6350515 57.6,46.614433 C56.9,47.0103093 56.1,47.4061856 55.5,47.9010309 C54.1,48.7917526 52.8,49.8804124 51.7,51.0680412 C50.8,51.9587629 50,52.8494845 49.2,53.8391753 C48.7,54.5319588 48.2,55.1257732 47.8,55.9175258 C47.6,56.3134021 47.4,56.6103093 47.2,57.0061856 C46.6,58.0948454 46.1,59.2824742 45.6,60.4701031 C44.6,63.043299 44.1,65.814433 44,68.6845361 C41.1,68.585567 38.3,68.3876289 35.5,67.7938144 Z M70,88.0824742 C61.4,88.0824742 54.1,82.4412371 51.8,74.6226804 C51.3,72.9402062 51,71.1587629 51,69.2783505 C51,68.8824742 51,68.4865979 51,68.0907216 C51.7,58.2927835 59.9,50.4742268 70,50.4742268 C72.5,50.4742268 75,50.9690722 77.2,51.8597938 C79.3,52.6515464 81.2,53.9381443 82.8,55.3237113 C86.6,58.7876289 89,63.7360825 89,69.2783505 C89,79.6701031 80.5,88.0824742 70,88.0824742 Z" id="Shape"></path>
            <path d="M79.6,76.4041237 C79.5,76.4041237 79.3,76.4041237 79.2,76.4041237 L73.7,71.356701 C73.9,70.8618557 74,70.2680412 74,69.6742268 C74,68.4865979 73.5,67.2989691 72.7,66.5072165 L72.9,65.9134021 L74.9,58.8865979 C76.1,58.3917526 77,57.2041237 77,55.8185567 C77,54.9278351 76.6,54.1360825 76.1,53.443299 C75.5,52.8494845 74.6,52.4536082 73.6,52.4536082 C71.7,52.4536082 70.2,53.9381443 70.2,55.8185567 C70.2,56.4123711 70.4,57.0061856 70.6,57.4020619 L70,59.8762887 L68.4,65.3195876 C66.9,65.7154639 65.8,66.8041237 65.3,68.1896907 L58.5,69.6742268 C57.9,69.1793814 57.2,68.8824742 56.4,68.8824742 C54.5,68.8824742 53,70.3670103 53,72.2474227 C53,73.0391753 53.2,73.7319588 53.7,74.2268041 C54.3,75.0185567 55.3,75.6123711 56.4,75.6123711 C57.6,75.6123711 58.7,75.0185567 59.3,74.028866 L66.1,72.5443299 C66.9,73.5340206 68.2,74.1278351 69.6,74.1278351 C69.8,74.1278351 70,74.1278351 70.2,74.1278351 L76.4,79.7690722 C76.4,81.6494845 77.9,83.1340206 79.8,83.1340206 C81.7,83.1340206 83.2,81.6494845 83.2,79.7690722 C83.2,77.8886598 81.5,76.4041237 79.6,76.4041237 Z" id="Shape"></path>
        </g>
    </g>
</svg>