<?xml version="1.0" encoding="UTF-8"?>
<svg width="96px" height="96px" viewBox="0 0 96 96" version="1.1" xmlns="http://www.w3.org/2000/svg" xmlns:xlink="http://www.w3.org/1999/xlink">
    <!-- Generator: Sketch 49.3 (51167) - http://www.bohemiancoding.com/sketch -->
    <title>iConnector PSTN</title>
    <desc>Created with Sketch.</desc>
    <defs></defs>
    <g id="iConnector-PSTN" stroke="none" stroke-width="1" fill="none" fill-rule="evenodd">
        <g transform="translate(0.000000, 1.000000)" fill="#0B82C5" fill-rule="nonzero" id="Shape">
            <path d="M49,51 C49.6,50.4 50,49.5 50,48.5 C50,46.6 48.4,45 46.5,45 C45.5,45 44.7,45.4 44,46 C43.4,46.6 43,47.5 43,48.5 C43,49.5 43.4,50.3 44,51 C44.6,51.6 45.5,52 46.5,52 C47.5,52 48.3,51.6 49,51 Z"></path>
            <path d="M46.5,41 C47.5,41 48.3,40.6 49,40 C49.6,39.4 50,38.5 50,37.5 C50,35.6 48.4,34 46.5,34 C45.5,34 44.7,34.4 44,35 C43.4,35.6 43,36.5 43,37.5 C43,38.5 43.4,39.3 44,40 C44.7,40.6 45.5,41 46.5,41 Z"></path>
            <path d="M57.5,34 C56.5,34 55.7,34.4 55,35 C54.4,35.6 54,36.5 54,37.5 C54,38.5 54.4,39.3 55,40 C55.6,40.6 56.5,41 57.5,41 C58.5,41 59.3,40.6 60,40 C60.6,39.4 61,38.5 61,37.5 C61,35.6 59.4,34 57.5,34 Z"></path>
            <path d="M68.5,34 C67.5,34 66.7,34.4 66,35 C65.4,35.6 65,36.5 65,37.5 C65,38.5 65.4,39.3 66,40 C66.6,40.6 67.5,41 68.5,41 C69.5,41 70.3,40.6 71,40 C71.6,39.4 72,38.5 72,37.5 C72,35.6 70.4,34 68.5,34 Z"></path>
            <path d="M96,68 C96,67.8 96,67.6 96,67.5 C96,67.2 96,66.9 95.9,66.6 C95.9,66.6 95.9,66.5 95.9,66.5 C95.9,66.1 95.8,65.8 95.8,65.4 C95.8,65.3 95.8,65.2 95.8,65.2 C95.8,64.8 95.7,64.4 95.6,64.1 C95.5,63.7 95.4,63.3 95.3,62.9 C95.2,62.6 95.1,62.3 95.1,62 C95.1,61.9 95,61.8 95,61.7 C94.9,61.5 94.9,61.3 94.8,61.1 C94.7,60.9 94.7,60.7 94.6,60.5 C94.6,60.5 94.6,60.5 94.6,60.5 C94.3,59.7 94,59 93.7,58.3 C93.5,57.9 93.2,57.4 93,57 C92.8,56.6 92.5,56.2 92.3,55.8 C92.3,55.7 92.2,55.7 92.2,55.6 C92,55.2 91.7,54.9 91.4,54.5 C91.4,54.5 91.4,54.4 91.4,54.4 C91.1,54 90.8,53.6 90.5,53.2 C90.3,53 90.1,52.8 90,52.6 C89.8,52.4 89.6,52.2 89.5,52 C88.4,50.8 87.1,49.7 85.8,48.8 L85.8,13 C85.8,8.9 82.4,5.5 78.3,5.5 L38.6,5.5 C38.2,4.4 37.7,3.4 36.9,2.6 C36.6,2.2 36.2,1.9 35.8,1.6 C35.8,1.6 35.8,1.6 35.8,1.6 C35.4,1.3 34.9,1 34.5,0.8 C34.4,0.8 34.3,0.7 34.1,0.6 C33.9,0.5 33.6,0.4 33.4,0.3 C32.6,0.1 31.8,0 31,0 L20,0 C19.2,0 18.4,0.1 17.6,0.4 C17.4,0.5 17.1,0.6 16.9,0.7 C16.8,0.7 16.7,0.8 16.5,0.9 C16,1.1 15.6,1.4 15.2,1.7 C15.2,1.7 15.2,1.7 15.2,1.7 C14.8,2 14.4,2.3 14.1,2.7 C13.4,3.5 12.8,4.5 12.4,5.6 L8,5.6 C3.9,5.6 0.5,9 0.5,13.1 L0.5,74.1 C0.5,78.2 3.9,81.6 8,81.6 L49.3,81.6 C49.5,81.9 49.7,82.2 49.8,82.5 C50,82.8 50.2,83.1 50.4,83.4 C50.8,84 51.2,84.5 51.6,85.1 C51.9,85.5 52.2,85.9 52.6,86.2 C53.6,87.3 54.7,88.3 55.9,89.2 C56.2,89.4 56.6,89.7 56.9,89.9 C57.6,90.4 58.2,90.8 58.9,91.1 C59.2,91.3 59.5,91.4 59.9,91.6 C60.5,91.9 61.2,92.2 61.9,92.5 C62.1,92.6 62.3,92.6 62.4,92.7 C62.6,92.8 62.9,92.9 63.1,92.9 C63.3,93 63.6,93 63.8,93.1 C64.5,93.3 65.3,93.5 66.1,93.6 C66.4,93.7 66.7,93.7 67,93.8 C67.4,93.9 67.8,93.9 68.2,94 C68.5,94 68.8,94.1 69.2,94.1 C69.4,94.1 69.5,94.1 69.7,94.1 C70.1,94.1 70.5,94.1 70.8,94.1 C71.1,94.1 71.6,94.1 71.9,94.1 C72,94.1 72.2,94.1 72.4,94.1 C72.7,94.1 73,94.1 73.4,94 C73.8,94 74.2,93.9 74.6,93.8 C74.9,93.7 75.2,93.7 75.5,93.6 C76.3,93.5 77,93.3 77.8,93.1 C78,93 78.3,93 78.5,92.9 C78.7,92.8 79,92.7 79.2,92.7 C79.4,92.6 79.6,92.6 79.7,92.5 C80.4,92.3 81,92 81.7,91.6 C82,91.4 82.3,91.3 82.7,91.1 C83.4,90.7 84.1,90.3 84.7,89.9 C85,89.7 85.4,89.4 85.7,89.2 C86.9,88.3 88,87.3 89,86.2 C89.3,85.8 89.7,85.5 90,85.1 C90.3,84.7 90.6,84.3 90.9,83.9 C90.9,83.9 90.9,83.9 90.9,83.8 C91.2,83.4 91.4,83.1 91.7,82.7 C91.7,82.6 91.8,82.6 91.8,82.5 C92,82.1 92.3,81.7 92.5,81.3 C92.7,80.9 93,80.4 93.2,80 C93.6,79.3 93.9,78.5 94.1,77.8 C94.2,77.5 94.3,77.1 94.5,76.8 C94.6,76.5 94.7,76.3 94.7,76 C94.8,75.7 94.9,75.4 94.9,75.1 C95,74.9 95,74.7 95.1,74.4 C95.1,74.3 95.2,74.1 95.2,74 C95.3,73.7 95.3,73.4 95.3,73.1 C95.3,73 95.3,72.9 95.3,72.8 C95.3,72.5 95.4,72.2 95.4,71.9 C95.4,71.6 95.5,71.3 95.5,71 C95.5,70.7 95.5,70.5 95.5,70.2 C95.5,69.8 95.5,69.4 95.5,69.1 C96,68.7 96,68.3 96,68 Z M31.6,49.2 C31.8,49.4 32,49.7 32,50 L32,61 C32,61.5 31.5,62 31,62 L20,62 C19.5,62 19,61.5 19,61 L19,50 C19,49.7 19.1,49.4 19.4,49.2 L22,47.1 L22,21.9 L19.4,19.8 C19.1,19.6 19,19.3 19,19 L19,12.5 L19,8 C19,7.5 19.5,7 20,7 L31,7 C31.5,7 32,7.5 32,8 L32,12.5 L32,19 C32,19.3 31.9,19.6 31.6,19.8 L29,21.9 L29,47.1 L31.6,49.2 Z M8,74.5 C7.7,74.5 7.5,74.3 7.5,74 L7.5,13 C7.5,12.7 7.7,12.5 8,12.5 L12,12.5 L12,19 C12,20.1 12.2,21.2 12.6,22.1 C12.6,22.2 12.7,22.4 12.8,22.5 C12.9,22.8 13.1,23 13.2,23.3 C13.4,23.5 13.5,23.8 13.7,24 C13.9,24.2 14.1,24.4 14.3,24.6 C14.3,24.6 14.3,24.6 14.3,24.6 C14.5,24.8 14.7,25 15,25.2 L15,43.7 C14.8,43.9 14.6,44.1 14.3,44.3 C14.3,44.3 14.3,44.3 14.3,44.3 C14.1,44.5 13.9,44.7 13.7,44.9 C13.5,45.1 13.3,45.4 13.2,45.6 C13,45.8 12.9,46.1 12.8,46.4 C12.7,46.5 12.7,46.7 12.6,46.8 C12.2,47.8 12,48.8 12,49.9 L12,60.9 C12,63 12.8,64.9 14.1,66.3 C14.4,66.7 14.8,67 15.2,67.3 C15.2,67.3 15.2,67.3 15.2,67.3 C15.6,67.6 16.1,67.9 16.5,68.1 C16.6,68.1 16.7,68.2 16.9,68.3 C17.1,68.4 17.4,68.5 17.6,68.6 C18.4,68.8 19.1,69 20,69 L31,69 C31.8,69 32.6,68.9 33.4,68.6 C33.6,68.5 33.9,68.4 34.1,68.3 C34.2,68.3 34.3,68.2 34.5,68.1 C35,67.9 35.4,67.6 35.8,67.3 C35.8,67.3 35.8,67.3 35.8,67.3 C36.2,67 36.6,66.7 36.9,66.3 C38.2,65 39,63.1 39,61 L39,50 C39,48.9 38.8,47.8 38.4,46.9 C38.4,46.8 38.3,46.6 38.2,46.5 C38.1,46.2 37.9,46 37.8,45.7 C37.6,45.5 37.5,45.2 37.3,45 C37.1,44.8 36.9,44.6 36.7,44.4 C36.7,44.4 36.7,44.4 36.7,44.4 C36.5,44.2 36.4,44.1 36.2,44 C36.1,43.9 36.1,43.9 36,43.9 L36,25.2 C36,25.2 36.1,25.1 36.2,25.1 C36.4,25 36.5,24.8 36.7,24.7 C36.7,24.7 36.7,24.7 36.7,24.7 C36.9,24.5 37.1,24.3 37.3,24.1 C37.5,23.9 37.7,23.6 37.8,23.4 C38,23.2 38.1,22.9 38.2,22.6 C38.3,22.5 38.3,22.3 38.4,22.2 C38.8,21.2 39,20.2 39,19.1 L39,12.6 L78,12.6 C78.3,12.6 78.5,12.8 78.5,13.1 L78.5,45.2 C78.1,45.1 77.7,45 77.3,44.8 C77,44.7 76.6,44.6 76.3,44.6 C76.1,44.6 76,44.5 75.8,44.5 C75.5,44.4 75.2,44.4 74.9,44.3 C74.5,44.2 74.1,44.2 73.7,44.1 C73.4,44.1 73.1,44 72.7,44 C72.5,44 72.4,44 72.2,44 C71.8,44 71.4,44 71.1,44 C70.8,44 70.3,44 70,44 C69.9,44 69.7,44 69.5,44 C69.2,44 68.9,44 68.5,44.1 C68.1,44.1 67.7,44.2 67.3,44.3 C67,44.4 66.7,44.4 66.4,44.5 C66.2,44.5 66.1,44.6 65.9,44.6 C65.6,44.7 65.2,44.8 64.9,44.8 C64.5,44.9 64.1,45 63.7,45.1 C63.3,45.2 62.9,45.3 62.5,45.5 C62.1,45.7 61.6,45.8 61.2,46 C60.9,46.1 60.7,46.2 60.4,46.3 C60,46.5 59.6,46.7 59.2,46.9 C58.8,47.1 58.3,47.4 57.9,47.7 C56.6,48.5 55.4,49.4 54.3,50.4 C54.3,50.4 54.3,50.4 54.3,50.4 C53.7,50.9 53.1,51.5 52.6,52.1 C52.3,52.4 52.1,52.7 51.8,53 C51.5,53.4 51.2,53.8 50.9,54.2 C50.9,54.2 50.9,54.2 50.9,54.3 C50.6,54.7 50.4,55 50.1,55.4 C50.1,55.5 50,55.5 50,55.6 C49.8,56 49.5,56.4 49.3,56.8 C49.1,57.2 48.8,57.7 48.6,58.1 C48.2,58.8 47.9,59.6 47.7,60.3 C47.7,60.3 47.7,60.3 47.7,60.3 C47.6,60.5 47.6,60.7 47.5,60.9 C47.4,61.1 47.4,61.3 47.3,61.5 C47.3,61.6 47.2,61.7 47.2,61.8 C47.1,62.1 47,62.4 47,62.7 C46.9,63.1 46.8,63.5 46.7,63.9 C46.6,64.3 46.5,64.7 46.5,65 C46.5,65.1 46.5,65.1 46.5,65.2 C46.4,65.6 46.4,65.9 46.4,66.3 C46.4,66.3 46.4,66.4 46.4,66.4 C46.4,66.7 46.4,67 46.3,67.3 C46.3,67.5 46.3,67.6 46.3,67.8 C46.3,68.1 46.3,68.5 46.3,68.8 C46.3,69.3 46.3,69.7 46.3,70.2 C46.3,70.7 46.4,71.1 46.4,71.6 C46.5,72 46.5,72.5 46.6,72.9 C46.6,73 46.6,73 46.6,73.1 C46.7,73.5 46.8,73.9 46.8,74.3 L8,74.3 L8,74.5 Z M71,88 C65.3,88 60.2,85.5 56.7,81.5 C54.9,79.5 53.6,77.1 52.8,74.5 C52.3,72.8 52,70.9 52,69 C52,58.5 60.5,50 71,50 C73.7,50 76.2,50.5 78.5,51.5 C81.2,52.7 83.6,54.5 85.5,56.7 C88.3,60 90,64.3 90,69 C90,79.5 81.5,88 71,88 Z"></path>
            <path d="M80.6,76.2 C80.5,76.2 80.3,76.2 80.2,76.2 L78.3,74.4 L74.7,71.1 C74.9,70.6 75,70 75,69.4 C75,68.2 74.5,67 73.7,66.2 L75.9,58.5 C77.1,58 78,56.8 78,55.4 C78,53.5 76.5,52 74.6,52 C72.7,52 71.2,53.5 71.2,55.4 C71.2,56 71.4,56.6 71.6,57 L69.3,65 C67.8,65.4 66.7,66.5 66.2,67.9 L59.4,69.4 C58.8,68.9 58.1,68.6 57.3,68.6 C55.4,68.6 53.9,70.1 53.9,72 C53.9,73 54.3,73.8 54.9,74.5 C55.5,75.1 56.3,75.4 57.2,75.4 C58.1,75.4 58.9,75 59.5,74.5 C59.7,74.3 59.9,74.1 60,73.8 L66.8,72.3 C67.6,73.3 68.9,73.9 70.3,73.9 C70.5,73.9 70.7,73.9 70.9,73.9 L71.6,74.5 L77.1,79.6 C77.1,80.3 77.3,81 77.7,81.5 C78.3,82.4 79.3,83 80.5,83 C82.4,83 83.9,81.5 83.9,79.6 C83.9,79.3 83.9,79 83.8,78.7 C83.5,77.2 82.2,76.2 80.6,76.2 Z"></path>
            <path d="M46.5,26 L69.6,26 C71.5,26 73.1,24.4 73.1,22.5 C73.1,20.6 71.5,19 69.6,19 L46.5,19 C44.6,19 43,20.6 43,22.5 C43,24.4 44.6,26 46.5,26 Z"></path>
        </g>
    </g>
</svg>