<?xml version="1.0" encoding="utf-8"?>
<!-- Generator: Adobe Illustrator 20.1.0, SVG Export Plug-In . SVG Version: 6.00 Build 0)  -->
<svg version="1.1" id="Map_1" xmlns="http://www.w3.org/2000/svg" xmlns:xlink="http://www.w3.org/1999/xlink" x="0px" y="0px"
	 viewBox="0 0 96 96" style="enable-background:new 0 0 96 96;" xml:space="preserve">
<style type="text/css">
	.st0{fill:#0B82C5;}
</style>
<title>iConnector facebook messenger</title>
<desc>Created with Sketch.</desc>
<g>
	<path class="st0" d="M48.8,49.1c0.8,0,1.6-0.3,2.1-0.9l12.9-13.2c1-1,1.1-2.6,0.3-3.8c-0.8-1.2-2.3-1.6-3.6-1.1l-11.4,4.8l-9.3-6.4
		c-1.2-0.8-2.8-0.7-3.8,0.4L23.9,41.2c-1,1-1.2,2.6-0.4,3.8c0.8,1.2,2.3,1.7,3.6,1.2l10.6-4.2l9.4,6.6
		C47.6,48.9,48.2,49.1,48.8,49.1z"/>
	<path class="st0" d="M94.4,61.1c-0.4-1.2-1-2.3-1.6-3.5c-0.2-0.4-0.4-0.7-0.6-1.1c-0.4-0.7-0.9-1.4-1.4-2.1c-0.8-1-1.6-1.9-2.5-2.8
		c-0.2-0.2-0.4-0.4-0.6-0.6c-0.4-0.4-0.8-0.7-1.2-1.1c0,0,0,0,0,0c-0.2-0.2-0.4-0.3-0.6-0.5c1.3-3.6,2-7.5,2-11.5C88,17,68.3,0,44,0
		S0,17,0,38c0,11.2,5.7,21.7,15.5,29l2.1,15.3c0.4,2.8,3.7,4,5.8,2.2l10.7-9.4c3.2,0.6,6.5,0.9,9.8,0.9c0.2,0,0.5,0,0.7,0
		c0,0.2,0.1,0.3,0.1,0.5c0.2,0.8,0.5,1.7,0.8,2.5c0.4,1.2,1,2.3,1.6,3.5c0.2,0.4,0.4,0.7,0.6,1.1c0.4,0.7,0.9,1.4,1.4,2.1
		c0.8,1,1.6,1.9,2.5,2.8c1.2,1.2,2.5,2.2,3.8,3.2h0c0.7,0.5,1.4,0.9,2.1,1.3c3.7,2,7.9,3.1,12.4,3.1s8.7-1.1,12.4-3.1
		c0.7-0.4,1.5-0.8,2.1-1.3h0c1.4-0.9,2.7-2,3.8-3.2c0.9-0.9,1.7-1.8,2.5-2.8c0.5-0.7,1-1.3,1.4-2.1c0.2-0.4,0.4-0.7,0.6-1.1
		c0.6-1.1,1.1-2.3,1.6-3.5c1-2.8,1.6-5.8,1.6-8.9S95.4,63.8,94.4,61.1z M35.5,68.5l-3.2-0.6l-7.4,6.4c-0.6,0.5-1.6,0.2-1.7-0.6
		l-1.5-10.4l-2.3-1.7C11.3,55.6,6.7,47,6.7,38C6.7,20.7,23.4,6.7,44,6.7S81.3,20.7,81.3,38c0,2.8-0.4,5.5-1.2,8
		c-3.1-1.3-6.5-2-10.1-2c-4.5,0-8.7,1.1-12.4,3.1c-0.7,0.4-1.5,0.8-2.1,1.3h0c-1.4,0.9-2.7,2-3.8,3.2c-0.9,0.9-1.7,1.8-2.5,2.8
		c-0.5,0.7-1,1.3-1.4,2.1c-0.2,0.4-0.4,0.7-0.6,1.1c-0.6,1.1-1.1,2.3-1.6,3.5c-1,2.6-1.5,5.4-1.6,8.3h0
		C41.1,69.3,38.3,69.1,35.5,68.5z M70,89c-8.6,0-15.9-5.7-18.2-13.6C51.3,73.7,51,71.9,51,70c0-0.4,0-0.8,0-1.2
		C51.7,58.9,59.9,51,70,51c2.5,0,5,0.5,7.2,1.4c2.1,0.8,4,2.1,5.6,3.5C86.6,59.4,89,64.4,89,70C89,80.5,80.5,89,70,89z"/>
	<path class="st0" d="M79.6,77.2c-0.1,0-0.3,0-0.4,0l-5.5-5.1c0.2-0.5,0.3-1.1,0.3-1.7c0-1.2-0.5-2.4-1.3-3.2l0.2-0.6l2-7.1
		c1.2-0.5,2.1-1.7,2.1-3.1c0-0.9-0.4-1.7-0.9-2.4c-0.6-0.6-1.5-1-2.5-1c-1.9,0-3.4,1.5-3.4,3.4c0,0.6,0.2,1.2,0.4,1.6L70,60.5
		L68.4,66c-1.5,0.4-2.6,1.5-3.1,2.9l-6.8,1.5c-0.6-0.5-1.3-0.8-2.1-0.8c-1.9,0-3.4,1.5-3.4,3.4c0,0.8,0.2,1.5,0.7,2
		c0.6,0.8,1.6,1.4,2.7,1.4c1.2,0,2.3-0.6,2.9-1.6l6.8-1.5c0.8,1,2.1,1.6,3.5,1.6c0.2,0,0.4,0,0.6,0l6.2,5.7v0c0,1.9,1.5,3.4,3.4,3.4
		c1.9,0,3.4-1.5,3.4-3.4S81.5,77.2,79.6,77.2z"/>
</g>
</svg>
