<?xml version="1.0" encoding="UTF-8"?>
<svg width="96px" height="96px" viewBox="0 0 96 96" version="1.1" xmlns="http://www.w3.org/2000/svg" xmlns:xlink="http://www.w3.org/1999/xlink">
    <!-- Generator: Sketch 49.3 (51167) - http://www.bohemiancoding.com/sketch -->
    <title>iConnector overview</title>
    <desc>Created with Sketch.</desc>
    <defs></defs>
    <g id="iConnector-overview" stroke="none" stroke-width="1" fill="none" fill-rule="evenodd">
        <g transform="translate(1.000000, 0.000000)" fill="#0B82C5" id="Page-1">
            <g>
                <path d="M77.8288,39.6338 L70.3188,47.1338 L49.1088,25.9238 L56.6088,18.4138 C58.5288,16.4938 61.2588,15.5538 64.2888,15.7538 C67.5188,15.9738 70.6688,17.4738 73.1688,19.9638 L76.2788,23.0738 C81.2688,28.0638 81.9588,35.4938 77.8288,39.6338 M93.6888,1.0338 C92.3288,-0.3362 90.1088,-0.3462 88.7388,1.0138 L76.3388,13.3238 C76.3188,13.3438 76.2988,13.3638 76.2888,13.3838 C72.9188,10.6638 68.8988,9.0538 64.7588,8.7738 C64.3288,8.7438 63.8888,8.7338 63.4688,8.7338 C58.8888,8.7338 54.7388,10.3838 51.6588,13.4738 L41.9788,23.1538 C40.4188,24.7038 40.5788,27.2938 42.3188,29.0338 L67.2088,53.9238 C68.1088,54.8238 69.2888,55.3338 70.4488,55.3338 L70.4688,55.3338 C71.4788,55.3338 72.4088,54.9538 73.0888,54.2638 L82.7788,44.5838 C89.6088,37.7438 88.9588,25.9538 81.3388,18.2338 L93.6688,5.9838 C95.0388,4.6238 95.0488,2.4038 93.6888,1.0338" id="Fill-1"></path>
                <path d="M38.3888,79.0738 C34.2488,83.2038 27.5188,83.2038 23.3788,79.0738 L17.1688,72.8638 C13.0388,68.7238 13.0388,61.9938 17.1688,57.8538 L24.6788,50.3538 L45.8888,71.5638 L38.3888,79.0738 Z M54.5688,53.6938 C53.1988,52.3338 50.9788,52.3338 49.6188,53.6938 L43.7688,59.5438 L36.6988,52.4738 L42.5488,46.6238 C43.9088,45.2638 43.9088,43.0438 42.5488,41.6738 C41.1788,40.3138 38.9588,40.3138 37.5988,41.6738 L31.7488,47.5238 L27.5088,43.2838 C25.9488,41.7238 23.4088,41.7238 21.8488,43.2838 L12.2188,52.9038 C5.3588,59.7738 5.3588,70.9438 12.2188,77.8138 L12.5988,78.1938 L1.0288,89.7738 C-0.3412,91.1338 -0.3412,93.3538 1.0188,94.7138 C1.7088,95.4038 2.5988,95.7438 3.4988,95.7438 C4.3988,95.7438 5.2888,95.4038 5.9688,94.7138 L17.5488,83.1438 L18.4288,84.0238 C21.8588,87.4538 26.3688,89.1738 30.8788,89.1738 C35.3888,89.1738 39.8988,87.4538 43.3388,84.0238 L52.9588,74.3938 C54.5188,72.8338 54.5188,70.2938 52.9588,68.7338 L48.7188,64.4938 L54.5688,58.6438 C55.9288,57.2838 55.9288,55.0638 54.5688,53.6938 Z" id="Fill-3"></path>
            </g>
        </g>
    </g>
</svg>