<?xml version="1.0" encoding="UTF-8"?>
<svg width="96px" height="96px" viewBox="0 0 96 96" version="1.1" xmlns="http://www.w3.org/2000/svg" xmlns:xlink="http://www.w3.org/1999/xlink">
    <!-- Generator: Sketch 49.3 (51167) - http://www.bohemiancoding.com/sketch -->
    <title>iConnector Application</title>
    <desc>Created with Sketch.</desc>
    <defs></defs>
    <g id="iConnector-Application" stroke="none" stroke-width="1" fill="none" fill-rule="evenodd">
        <g fill="#0B82C5" fill-rule="nonzero" id="Shape">
            <path d="M14.5,16 C16.4,16 18,14.4 18,12.5 C18,11.5 17.6,10.7 17,10 C16.4,9.4 15.5,9 14.5,9 C13.5,9 12.7,9.4 12,10 C11.4,10.6 11,11.5 11,12.5 C11,13.5 11.4,14.3 12,15 C12.7,15.6 13.5,16 14.5,16 Z"></path>
            <path d="M23.5,16 C25.4,16 27,14.4 27,12.5 C27,11.5 26.6,10.7 26,10 C25.4,9.4 24.5,9 23.5,9 C22.5,9 21.7,9.4 21,10 C20.4,10.6 20,11.5 20,12.5 C20,13.5 20.4,14.3 21,15 C21.7,15.6 22.5,16 23.5,16 Z"></path>
            <path d="M32.5,16 C34.4,16 36,14.4 36,12.5 C36,11.5 35.6,10.7 35,10 C34.4,9.4 33.5,9 32.5,9 C31.5,9 30.7,9.4 30,10 C29.4,10.6 29,11.5 29,12.5 C29,13.5 29.4,14.3 30,15 C30.7,15.6 31.5,16 32.5,16 Z"></path>
            <path d="M94.4,61.1 C94,59.9 93.4,58.8 92.8,57.6 C92.6,57.2 92.4,56.9 92.2,56.5 C91.8,55.8 91.3,55.1 90.8,54.4 C90,53.4 89.2,52.5 88.3,51.6 C87.1,50.4 85.8,49.4 84.5,48.4 C83.8,47.9 83.1,47.5 82.4,47.1 C82,46.9 81.6,46.7 81.3,46.5 C81.1,46.4 80.8,46.3 80.5,46.2 L80.5,8 C80.5,3.9 77.1,0.5 73,0.5 L8,0.5 C3.9,0.5 0.5,3.9 0.5,8 L0.5,69 C0.5,73.1 3.9,76.5 8,76.5 L44.8,76.5 C45,77.3 45.3,78.2 45.6,78.9 C46,80.1 46.6,81.2 47.2,82.4 C47.4,82.8 47.6,83.1 47.8,83.5 C48.2,84.2 48.7,84.9 49.2,85.6 C50,86.6 50.8,87.5 51.7,88.4 C52.9,89.6 54.2,90.6 55.5,91.6 C56.2,92.1 56.9,92.5 57.6,92.9 C61.3,94.9 65.5,96 70,96 C74.5,96 78.7,94.9 82.4,92.9 C83.1,92.5 83.9,92.1 84.5,91.6 C85.9,90.7 87.2,89.6 88.3,88.4 C89.2,87.5 90,86.6 90.8,85.6 C91.3,84.9 91.8,84.3 92.2,83.5 C92.4,83.1 92.6,82.8 92.8,82.4 C93.4,81.3 93.9,80.1 94.4,78.9 C95.4,76.1 96,73.1 96,70 C96,66.9 95.4,63.8 94.4,61.1 Z M8,7.5 L73,7.5 C73.3,7.5 73.5,7.7 73.5,8 L73.5,18 L7.5,18 L7.5,8 C7.5,7.7 7.7,7.5 8,7.5 Z M7.5,69 L7.5,25 L73.5,25 L73.5,44.2 C72.3,44.1 71.2,44 70,44 C65.5,44 61.3,45.1 57.6,47.1 C56.9,47.5 56.1,47.9 55.5,48.4 C54.1,49.3 52.8,50.4 51.7,51.6 C50.8,52.5 50,53.4 49.2,54.4 C48.7,55.1 48.2,55.7 47.8,56.5 C47.6,56.9 47.4,57.2 47.2,57.6 C46.6,58.7 46.1,59.9 45.6,61.1 C44.6,63.7 44.1,66.6 44,69.5 L8,69.5 C7.7,69.5 7.5,69.3 7.5,69 Z M70,89 C61.8,89 54.8,83.8 52.1,76.5 C51.4,74.5 51,72.3 51,70 C51,69.8 51,69.7 51,69.5 C51.3,59.2 59.7,51 70,51 C71.2,51 72.4,51.1 73.5,51.3 C76,51.8 78.4,52.8 80.5,54.1 C85.6,57.6 89,63.4 89,70 C89,80.5 80.5,89 70,89 Z"></path>
            <path d="M79.6,77.2 C79.5,77.2 79.3,77.2 79.2,77.2 L77.1,75.2 L73.7,72 C73.9,71.5 74,70.9 74,70.3 C74,69.5 73.8,68.8 73.5,68.2 C73.3,67.8 73,67.4 72.7,67.1 L73.5,64.4 L74.9,59.4 C76.1,58.9 77,57.7 77,56.3 C77,54.4 75.5,52.9 73.6,52.9 C73.6,52.9 73.5,52.9 73.5,52.9 C71.7,53 70.3,54.4 70.3,56.3 C70.3,56.9 70.5,57.5 70.7,57.9 L68.4,65.9 C66.9,66.3 65.8,67.4 65.3,68.8 L62.5,69.4 L58.6,70.3 C58,69.8 57.3,69.5 56.5,69.5 C54.6,69.5 53.1,71 53.1,72.9 C53.1,74.8 54.6,76.3 56.5,76.3 C57.7,76.3 58.8,75.7 59.4,74.7 L66.2,73.2 C67,74.2 68.3,74.8 69.7,74.8 C69.9,74.8 70.1,74.8 70.3,74.8 L72,76.4 L76.4,80.5 C76.4,82.4 77.9,83.9 79.8,83.9 C81.7,83.9 83.2,82.4 83.2,80.5 C83.2,78.6 81.5,77.2 79.6,77.2 Z"></path>
        </g>
    </g>
</svg>