<?xml version="1.0" encoding="UTF-8"?>
<svg width="96px" height="96px" viewBox="0 0 96 96" version="1.1" xmlns="http://www.w3.org/2000/svg" xmlns:xlink="http://www.w3.org/1999/xlink">
    <!-- Generator: Sketch 49.3 (51167) - http://www.bohemiancoding.com/sketch -->
    <title>iConnector QR code</title>
    <desc>Created with Sketch.</desc>
    <defs></defs>
    <g id="iConnector-QR-code" stroke="none" stroke-width="1" fill="none" fill-rule="evenodd">
        <g id="iConnectro-QR-code" fill="#0B82C5" fill-rule="nonzero">
            <path d="M70,44 C55.7,44 44,55.7 44,70 C44,84.3 55.7,96 70,96 C84.3,96 96,84.3 96,70 C96,55.7 84.3,44 70,44 Z M70,89 C59.5,89 51,80.5 51,70 C51,59.5 59.5,51 70,51 C80.5,51 89,59.5 89,70 C89,80.5 80.5,89 70,89 Z" id="Shape"></path>
            <path d="M79.6,77.2 C79.5,77.2 79.3,77.2 79.2,77.2 L73.6,72 C73.8,71.5 73.9,70.9 73.9,70.3 C73.9,69.1 73.4,68 72.6,67.1 L74.8,59.4 C76,58.9 76.9,57.7 76.9,56.3 C76.9,54.4 75.4,52.9 73.5,52.9 C71.6,52.9 70.1,54.4 70.1,56.3 C70.1,56.9 70.3,57.4 70.5,57.9 L68.2,65.9 C66.7,66.3 65.6,67.3 65.1,68.8 L58.3,70.3 C57.7,69.8 57,69.5 56.2,69.5 C54.3,69.5 52.8,71 52.8,72.9 C52.8,74.8 54.3,76.3 56.2,76.3 C57.4,76.3 58.5,75.7 59.1,74.7 L65.9,73.2 C66.7,74.2 67.9,74.8 69.3,74.8 C69.5,74.8 69.7,74.8 69.9,74.7 L76.1,80.4 C76.1,82.3 77.6,83.8 79.5,83.8 C81.4,83.8 82.9,82.3 82.9,80.4 C83,78.7 81.5,77.2 79.6,77.2 Z" id="Shape"></path>
            <path d="M37,0.5 C37,0.5 37,0.5 37,0.5 L4,0.5 C2.1,0.5 0.5,2.1 0.5,4 L0.5,37 C0.5,38.9 2.1,40.5 4,40.5 L37,40.5 C38.9,40.5 40.5,38.9 40.5,37 L40.5,4 C40.5,3.1 40.1,2.2 39.5,1.5 C38.8,0.9 37.9,0.5 37,0.5 Z M33.5,33.5 L7.5,33.5 L7.5,7.5 L33.5,7.5 L33.5,33.5 Z" id="Shape"></path>
            <path d="M37,44.5 C37,44.5 37,44.5 37,44.5 L4,44.5 C2.1,44.5 0.5,46.1 0.5,48 L0.5,81 C0.5,82.9 2.1,84.5 4,84.5 L37,84.5 C38.9,84.5 40.5,82.9 40.5,81 L40.5,48 C40.5,47.1 40.1,46.2 39.5,45.5 C38.8,44.9 37.9,44.5 37,44.5 Z M33.5,77.5 L7.5,77.5 L7.5,51.5 L33.5,51.5 L33.5,77.5 Z" id="Shape"></path>
            <path d="M48,40.5 L81,40.5 C82.9,40.5 84.5,38.9 84.5,37 L84.5,4 C84.5,3.1 84.1,2.2 83.5,1.5 C82.9,0.8 82,0.5 81,0.5 L48,0.5 C46.1,0.5 44.5,2.1 44.5,4 L44.5,37 C44.5,38.9 46.1,40.5 48,40.5 Z M51.5,7.5 L77.5,7.5 L77.5,33.5 L51.5,33.5 L51.5,7.5 Z" id="Shape"></path>
            <path d="M19.5,29 L21.5,29 C25.6,29 29,25.6 29,21.5 L29,19.5 C29,15.4 25.6,12 21.5,12 L19.5,12 C15.4,12 12,15.4 12,19.5 L12,21.5 C12,25.6 15.4,29 19.5,29 Z M19,19.5 C19,19.2 19.2,19 19.5,19 L21.5,19 C21.8,19 22,19.2 22,19.5 L22,21.5 C22,21.8 21.8,22 21.5,22 L19.5,22 C19.2,22 19,21.8 19,21.5 L19,19.5 Z" id="Shape"></path>
            <path d="M19.5,73 L21.5,73 C25.6,73 29,69.6 29,65.5 L29,63.5 C29,59.4 25.6,56 21.5,56 L19.5,56 C15.4,56 12,59.4 12,63.5 L12,65.5 C12,69.6 15.4,73 19.5,73 Z M19,63.5 C19,63.2 19.2,63 19.5,63 L21.5,63 C21.8,63 22,63.2 22,63.5 L22,65.5 C22,65.8 21.8,66 21.5,66 L19.5,66 C19.2,66 19,65.8 19,65.5 L19,63.5 Z" id="Shape"></path>
            <path d="M65.5,12 L63.5,12 C59.4,12 56,15.4 56,19.5 L56,21.5 C56,25.6 59.4,29 63.5,29 L65.5,29 C69.6,29 73,25.6 73,21.5 L73,19.5 C73,15.4 69.6,12 65.5,12 Z M66,21.5 C66,21.8 65.8,22 65.5,22 L63.5,22 C63.2,22 63,21.8 63,21.5 L63,19.5 C63,19.2 63.2,19 63.5,19 L65.5,19 C65.8,19 66,19.2 66,19.5 L66,21.5 Z" id="Shape"></path>
        </g>
    </g>
</svg>