<?xml version="1.0" encoding="UTF-8"?>
<svg width="96px" height="96px" viewBox="0 0 96 96" version="1.1" xmlns="http://www.w3.org/2000/svg" xmlns:xlink="http://www.w3.org/1999/xlink">
    <!-- Generator: Sketch 49.3 (51167) - http://www.bohemiancoding.com/sketch -->
    <title>iConnector mobile app</title>
    <desc>Created with Sketch.</desc>
    <defs></defs>
    <g id="iConnector-mobile-app" stroke="none" stroke-width="1" fill="none" fill-rule="evenodd">
        <g id="iConnector-Mobile-App" transform="translate(2.000000, 0.000000)" fill="#0B82C5" fill-rule="nonzero">
            <path d="M32.5,80 C31.5,80 30.7,80.4 30,81 C29.4,81.6 29,82.5 29,83.5 C29,84.5 29.4,85.3 30,86 C30.6,86.6 31.5,87 32.5,87 C33.5,87 34.3,86.6 35,86 C35.6,85.4 36,84.5 36,83.5 C36,81.6 34.4,80 32.5,80 Z" id="Shape"></path>
            <path d="M90.9,63.6 C90.8,63.2 90.7,62.8 90.5,62.4 C90.5,62.4 90.5,62.4 90.5,62.4 C90.2,61.6 89.9,60.9 89.6,60.2 C88.7,58.4 87.6,56.7 86.4,55.1 C86.1,54.8 85.9,54.5 85.6,54.2 C85.1,53.6 84.5,53 83.9,52.5 C83.9,52.5 83.9,52.5 83.9,52.5 C83.6,52.3 83.3,52 83.1,51.8 C82.5,51.3 81.9,50.9 81.3,50.4 C81,50.2 80.7,50 80.4,49.8 C80,49.5 79.5,49.3 79.1,49 C78,48.4 76.9,47.9 75.8,47.5 C75.4,47.4 75,47.2 74.6,47.1 C74.2,47 73.8,46.9 73.4,46.8 C71.4,46.3 69.3,46 67.2,46 C66,46 64.8,46.1 63.7,46.2 L63.7,8 C63.7,3.9 60.3,0.5 56.2,0.5 L8,0.5 C3.9,0.5 0.5,3.9 0.5,8 L0.5,88 C0.5,92.1 3.9,95.5 8,95.5 L56,95.5 C57.2,95.5 58.2,95.2 59.2,94.8 C61.7,95.6 64.3,96 67,96 C71.3,96 75.4,94.9 78.9,93 C79.6,92.6 80.3,92.2 80.9,91.8 C81.2,91.6 81.6,91.3 81.9,91.1 C83.1,90.2 84.2,89.2 85.2,88.1 C85.5,87.7 85.9,87.4 86.2,87 C87.5,85.4 88.6,83.8 89.4,81.9 C89.8,81.2 90.1,80.4 90.3,79.7 C91.3,77 91.8,74.1 91.8,71.1 C92,68.4 91.6,65.9 90.9,63.6 Z M8,7.5 L56,7.5 C56.3,7.5 56.5,7.7 56.5,8 L56.5,48.3 C56,48.5 55.5,48.8 55.1,49 C54.7,49.2 54.2,49.5 53.8,49.8 C53.5,50 53.2,50.2 52.9,50.4 C52.3,50.8 51.7,51.3 51.1,51.8 C50.8,52 50.5,52.3 50.3,52.5 C50.3,52.5 50.3,52.5 50.3,52.5 C49.7,53 49.1,53.6 48.6,54.2 C48.3,54.5 48.1,54.8 47.8,55.1 C46.5,56.7 45.4,58.3 44.6,60.2 C44.2,60.9 43.9,61.7 43.7,62.4 C43.7,62.4 43.7,62.4 43.7,62.4 C43.6,62.8 43.4,63.2 43.3,63.6 C42.4,65.9 42,68.4 42,71 L7.5,71 L7.5,8 C7.5,7.7 7.7,7.5 8,7.5 Z M8,88.5 C7.7,88.5 7.5,88.3 7.5,88 L7.5,78 L43,78 C43.2,78.5 43.3,79.1 43.5,79.6 C43.8,80.4 44.1,81.1 44.4,81.8 C45.3,83.6 46.4,85.3 47.6,86.9 C48,87.5 48.5,88 49,88.5 L8,88.5 Z M67,90 C65.7,90 64.5,89.9 63.3,89.6 C60.8,89.1 58.5,88.1 56.5,86.8 C53.3,84.7 50.8,81.6 49.3,78 C48.4,75.8 48,73.5 48,71 C48,64.4 51.4,58.6 56.5,55.2 C58.6,53.8 61,52.8 63.5,52.4 C64.6,52.2 65.8,52.1 67,52.1 C77.5,52.1 86,60.6 86,71.1 C86,81.6 77.5,90 67,90 Z" id="Shape"></path>
            <path d="M76.6,78.2 C76.5,78.2 76.3,78.2 76.2,78.2 L70.7,73.1 C70.9,72.6 71,72 71,71.4 C71,70.2 70.5,69 69.7,68.2 L71.9,60.5 C73.1,60 74,58.8 74,57.4 C74,55.5 72.5,54 70.6,54 C68.7,54 67.2,55.5 67.2,57.4 C67.2,58 67.4,58.6 67.6,59 L65.3,67 C64.6,67.2 63.9,67.5 63.4,68 C62.8,68.5 62.4,69.1 62.2,69.8 L57,71 L56.5,71.1 L55.5,71.3 C55.3,71.2 55.1,71 54.9,70.9 C54.4,70.7 53.9,70.5 53.4,70.5 C52.8,70.5 52.3,70.6 51.9,70.9 C50.8,71.5 50.1,72.6 50.1,73.9 C50.1,75.8 51.6,77.3 53.5,77.3 C54.7,77.3 55.8,76.7 56.4,75.7 L56.7,75.6 L60,75 L63.1,74.3 C63.2,74.5 63.4,74.6 63.6,74.8 C64.4,75.5 65.4,76 66.6,76 C66.8,76 67,76 67.2,76 L73.4,81.7 C73.4,83.6 74.9,85.1 76.8,85.1 C78.7,85.1 80.2,83.6 80.2,81.7 C80.2,79.8 78.5,78.2 76.6,78.2 Z" id="Shape"></path>
        </g>
    </g>
</svg>