<?xml version="1.0" encoding="UTF-8"?>
<svg width="96px" height="96px" viewBox="0 0 96 96" version="1.1" xmlns="http://www.w3.org/2000/svg" xmlns:xlink="http://www.w3.org/1999/xlink">
    <!-- Generator: Sketch 49.3 (51167) - http://www.bohemiancoding.com/sketch -->
    <title>iConnector Skype</title>
    <desc>Created with Sketch.</desc>
    <defs></defs>
    <g id="iConnector-Skype" stroke="none" stroke-width="1" fill="none" fill-rule="evenodd">
        <g fill="#0B82C5" fill-rule="nonzero" id="Shape">
            <path d="M94.4,61.1 C94,59.9 93.4,58.8 92.8,57.6 C92.6,57.2 92.4,56.9 92.2,56.5 C91.8,55.8 91.3,55.1 90.8,54.4 C90,53.4 89.2,52.5 88.3,51.6 C88,51.3 87.7,51 87.4,50.8 C87.1,50.5 86.8,50.2 86.5,50 C86.7,48.5 86.8,46.9 86.8,45.3 C86.8,22.4 68.2,3.8 45.3,3.8 C42.3,3.8 39.4,4.1 36.5,4.7 C32.5,1.6 27.7,0 22.7,0 C10.2,0 0,10.2 0,22.7 C0,25.2 0.4,27.7 1.2,30 C2,32.3 3.2,34.5 4.7,36.5 C4.1,39.4 3.8,42.4 3.8,45.3 C3.8,68.2 22.4,86.8 45.3,86.8 C46.9,86.8 48.4,86.7 50,86.5 C50.2,86.8 50.5,87.1 50.8,87.4 C51.1,87.7 51.4,88 51.7,88.3 C52.9,89.5 54.2,90.5 55.5,91.5 C56.2,92 56.9,92.4 57.6,92.8 C61.3,94.8 65.5,95.9 70,95.9 C74.5,95.9 78.7,94.8 82.4,92.8 C83.1,92.4 83.9,92 84.5,91.5 C85.9,90.6 87.2,89.5 88.3,88.3 C89.2,87.4 90,86.5 90.8,85.5 C91.3,84.8 91.8,84.2 92.2,83.4 C92.4,83 92.6,82.7 92.8,82.3 C93.4,81.2 93.9,80 94.4,78.8 C95.4,76 96,73 96,69.9 C96,66.8 95.4,63.8 94.4,61.1 Z M70,89 C62.8,89 56.4,84.9 53.2,78.9 C51.8,76.3 51,73.2 51,70 C51,69.7 51,69.3 51,69 C51.4,61.7 56,55.4 62.4,52.6 C64.7,51.6 67.3,51 70,51 C73.2,51 76.3,51.8 78.9,53.2 C84.9,56.4 89,62.8 89,70 C89,80.5 80.5,89 70,89 Z M45.3,79.8 C26.3,79.8 10.8,64.3 10.8,45.3 C10.8,42.8 11.1,40.4 11.6,38 L12.3,34.8 L10.3,32.2 C8.1,29.5 7,26.2 7,22.7 C7,14 14,7 22.7,7 C26.2,7 29.5,8.1 32.3,10.2 L34.9,12.2 L38.1,11.5 C40.5,11 43,10.7 45.4,10.7 C64.4,10.7 79.9,26.2 79.9,45.2 C79.9,45.4 79.9,45.6 79.9,45.8 C76.9,44.6 73.5,43.9 70.1,43.9 C66.4,43.9 63,44.7 59.8,46 C56.8,41.9 51.7,39.6 45,39.6 C40.1,39.6 36.6,38.6 35,36.9 C34.7,36.6 33.8,35.6 34.1,33.2 C34.5,30.3 39.3,28.1 44.7,28.4 C52,28.9 53,31.9 53.4,33.1 C54.2,35.5 56.7,36.8 59.1,36 C61.5,35.2 62.8,32.7 62,30.3 C60.5,25.7 56.4,20.1 45.3,19.4 C34.9,18.7 26.3,24.2 25.3,32.1 C24.8,36.2 25.8,40 28.4,42.8 C31.8,46.6 37.4,48.6 45.1,48.6 C48.9,48.6 51.1,49.5 52.4,50.9 C52.2,51.1 52,51.3 51.8,51.5 C50.9,52.4 50.1,53.3 49.3,54.3 C48.8,55 48.3,55.6 47.9,56.4 C47.7,56.8 47.5,57.1 47.3,57.5 C47.1,58 46.8,58.4 46.6,58.9 C46.4,59.4 46.2,59.9 46,60.4 C45.7,60.4 45.4,60.4 45.1,60.4 C34.8,60.4 33.9,56.6 33.6,55.4 C33,53 30.6,51.5 28.2,52.1 C25.8,52.7 24.3,55.1 24.9,57.5 C26.2,62.8 30.6,69.1 44.3,69.4 C44.3,69.6 44.3,69.7 44.3,69.9 C44.3,73 44.9,76.1 45.9,78.8 C46,79 46,79.1 46.1,79.3 C46.1,79.4 46.2,79.6 46.3,79.7 C45.7,79.8 45.5,79.8 45.3,79.8 Z"></path>
            <path d="M80.5,77.3 C80.2,77.2 79.9,77.2 79.6,77.2 C79.5,77.2 79.3,77.2 79.2,77.2 L73.7,72.1 C73.9,71.6 74,71 74,70.4 C74,69.2 73.5,68 72.7,67.2 L74.9,59.5 C76.1,59 77,57.8 77,56.4 C77,54.5 75.5,53 73.6,53 C71.7,53 70.2,54.5 70.2,56.4 C70.2,57 70.4,57.6 70.6,58 L68.3,66 C66.8,66.4 65.7,67.5 65.2,68.9 L58.4,70.4 C57.8,69.9 57.1,69.6 56.3,69.6 C54.4,69.6 52.9,71.1 52.9,73 C52.9,74.9 54.4,76.4 56.3,76.4 C57.5,76.4 58.6,75.8 59.2,74.8 L66,73.3 C66.8,74.3 68.1,74.9 69.5,74.9 C69.7,74.9 69.9,74.9 70.1,74.9 L76.3,80.6 C76.3,80.8 76.3,81 76.4,81.2 C76.7,82.8 78.1,84 79.7,84 C81.6,84 83.1,82.5 83.1,80.6 C83,79 82,77.7 80.5,77.3 Z"></path>
        </g>
    </g>
</svg>