<?xml version="1.0" encoding="UTF-8"?>
<svg width="96px" height="96px" viewBox="0 0 96 96" version="1.1" xmlns="http://www.w3.org/2000/svg" xmlns:xlink="http://www.w3.org/1999/xlink">
    <!-- Generator: Sketch 49.3 (51167) - http://www.bohemiancoding.com/sketch -->
    <title>iConnector SIP</title>
    <desc>Created with Sketch.</desc>
    <defs></defs>
    <g id="iConnector-SIP" stroke="none" stroke-width="1" fill="none" fill-rule="evenodd">
        <g transform="translate(0.000000, 1.000000)" fill="#0B82C5" fill-rule="nonzero" id="Shape">
            <path d="M94.4,60.1 C94,58.9 93.4,57.8 92.8,56.6 C92.6,56.2 92.4,55.9 92.2,55.5 C91.8,54.8 91.3,54.1 90.8,53.4 C90,52.4 89.2,51.5 88.3,50.6 C87.1,49.4 85.8,48.4 84.5,47.4 C83.8,46.9 83.1,46.5 82.4,46.1 C78.7,44.1 74.5,43 70,43 C65.5,43 61.3,44.1 57.6,46.1 C56.9,46.5 56.1,46.9 55.5,47.4 C54.1,48.3 52.8,49.4 51.7,50.6 C50.8,51.5 50,52.4 49.2,53.4 C48.7,54.1 48.2,54.7 47.8,55.5 C47.6,55.9 47.4,56.2 47.2,56.6 C46.6,57.7 46.1,58.9 45.6,60.1 C45,61.6 44.6,63.2 44.4,64.9 C42.7,64.4 41.3,63.2 40.4,61.7 L26.4,37 C24.5,33.6 25.6,29.3 29,27.3 C32.3,25.3 33.5,21 31.5,17.6 L23.6,4 C21.5,0.4 17,-1 13.2,0.8 C2.4,6 -1.6,17.5 1.4,35 C2.6,42.2 5.5,50.8 9.4,58.4 C15.5,70.8 23.8,80.6 34,87.3 C41,91.9 47.5,94.3 53.4,94.3 C55.8,94.3 58.2,93.9 60.4,93.1 C63.4,94.3 66.6,94.9 70,94.9 C74.5,94.9 78.7,93.8 82.4,91.8 C83.1,91.4 83.9,91 84.5,90.5 C85.9,89.6 87.2,88.5 88.3,87.3 C89.2,86.4 90,85.5 90.8,84.5 C91.3,83.8 91.8,83.2 92.2,82.4 C92.4,82 92.6,81.7 92.8,81.3 C93.4,80.2 93.9,79 94.4,77.8 C95.4,75 96,72 96,68.9 C96,65.8 95.4,62.8 94.4,60.1 Z M37.9,81.5 C28.7,75.4 21.2,66.6 15.6,55.3 C12.1,48.3 9.4,40.3 8.3,33.8 C6.8,24.7 5.9,12 16.3,7.1 C16.4,7.1 16.5,7 16.7,7 C17,7 17.4,7.2 17.6,7.5 L25.3,21 C25.3,21.1 25.3,21.1 25.3,21.2 C18.7,25.1 16.5,33.7 20.2,40.4 L34.2,65.1 C36,68.3 39,70.7 42.6,71.7 C43.1,71.8 43.6,71.9 44.1,72 C44.3,74.1 44.8,76.1 45.5,78 C45.9,79.2 46.5,80.3 47.1,81.5 C47.3,81.9 47.5,82.2 47.7,82.6 C48.1,83.3 48.6,84 49.1,84.7 C49.8,85.6 50.6,86.5 51.4,87.4 C47.9,86.8 43.5,85.2 37.9,81.5 Z M70,88 C69.2,88 68.5,88 67.8,87.9 C65.2,87.6 62.7,86.8 60.6,85.5 C55.5,82.6 51.9,77.4 51.2,71.3 C51,70.5 51,69.8 51,69 C51,67 51.3,65.1 51.9,63.3 C54.3,55.6 61.5,50 70,50 C80.5,50 89,58.5 89,69 C89,79.5 80.5,88 70,88 Z"></path>
            <path d="M79.6,76.2 C79.5,76.2 79.3,76.2 79.2,76.2 L73.7,71.1 C73.9,70.6 74,70 74,69.4 C74,68.2 73.5,67 72.7,66.2 L74.9,58.5 C76.1,58 77,56.8 77,55.4 C77,53.5 75.5,52 73.6,52 C71.7,52 70.2,53.5 70.2,55.4 C70.2,56 70.4,56.6 70.6,57 L68.3,65 C66.8,65.4 65.7,66.5 65.2,67.9 L60.9,68.9 L58.5,69.4 C57.9,68.9 57.2,68.6 56.4,68.6 C55.2,68.6 54.2,69.2 53.6,70.1 C53.2,70.7 53,71.3 53,72 C53,73.9 54.5,75.4 56.4,75.4 C56.5,75.4 56.6,75.4 56.7,75.4 C57.8,75.3 58.7,74.7 59.3,73.8 L63.4,72.9 L66.1,72.3 C66.9,73.3 68.2,73.9 69.6,73.9 C69.8,73.9 70,73.9 70.2,73.9 L76.4,79.6 C76.4,81.5 77.9,83 79.8,83 C81.7,83 83.2,81.5 83.2,79.6 C83.2,77.7 81.5,76.2 79.6,76.2 Z"></path>
        </g>
    </g>
</svg>