<?xml version="1.0" encoding="UTF-8"?>
<svg width="96px" height="96px" viewBox="0 0 96 96" version="1.1" xmlns="http://www.w3.org/2000/svg" xmlns:xlink="http://www.w3.org/1999/xlink">
    <!-- Generator: Sketch 49.3 (51167) - http://www.bohemiancoding.com/sketch -->
    <title>iConnector CMS</title>
    <desc>Created with Sketch.</desc>
    <defs></defs>
    <g id="iConnector-CMS" stroke="none" stroke-width="1" fill="none" fill-rule="evenodd">
        <g fill="#0B82C5" fill-rule="nonzero" id="Shape">
            <path d="M24.2,39.6 C23.2,39.4 22.1,39.5 21.2,40.1 L2.5,51.4 C1.3,52.1 0.6,53.4 0.6,54.8 L0.6,91.7 C0.6,93.9 2.4,95.7 4.6,95.7 L23.3,95.7 C25.5,95.7 27.2,93.9 27.2,91.7 L27.2,43.4 C27.2,42.7 27,42 26.6,41.4 C26.1,40.5 25.3,39.9 24.2,39.6 Z M20.3,88.7 L7.5,88.7 L7.5,56.4 L20.3,48.6 L20.3,88.7 Z"></path>
            <path d="M90.4,26.6 C90.4,25.9 90.2,25.1 89.8,24.5 C88.7,22.7 86.2,22.1 84.4,23.2 L65.6,34.8 C64.4,35.5 63.7,36.8 63.7,38.2 L63.7,47.3 C62.8,47.6 61.9,47.9 61,48.3 C60.2,48.6 59.5,49 58.8,49.4 L58.8,42.9 C58.8,38.8 55.5,35.5 51.4,35.5 L39.6,35.5 C35.5,35.5 32.2,38.8 32.2,42.9 L32.2,88.3 C32.2,92.4 35.5,95.7 39.6,95.7 L51.4,95.7 C54.1,95.7 56.5,94.2 57.8,92.1 C58.6,92.6 59.4,93 60.2,93.4 C60.5,93.5 60.8,93.7 61,93.8 C62.5,94.4 64,94.9 65.6,95.2 C66.4,95.4 67.2,95.5 68,95.6 C68.8,95.7 69.7,95.7 70.5,95.7 C71.3,95.7 72.2,95.7 73,95.6 C73.8,95.5 74.6,95.4 75.4,95.2 C77,94.9 78.6,94.4 80,93.8 C80.5,93.6 81,93.3 81.5,93.1 C81.9,92.9 82.2,92.7 82.6,92.5 C82.8,92.4 83.1,92.2 83.3,92.1 C83.8,91.8 84.2,91.5 84.6,91.2 C85,90.9 85.5,90.6 85.9,90.2 C86.3,89.9 86.7,89.5 87.1,89.2 C87.3,89 87.5,88.8 87.7,88.6 C88.2,88.1 88.7,87.6 89.2,87 C89.6,86.6 89.9,86.2 90.2,85.7 C93.3,81.6 95.1,76.5 95.1,70.9 C95.1,65.4 93.3,60.2 90.2,56.1 L90.2,26.6 L90.4,26.6 Z M70.6,39.8 L83.4,31.9 L83.4,49.9 C82.6,49.4 81.8,49 81,48.6 C80.7,48.5 80.5,48.4 80.2,48.2 C78.7,47.6 77.2,47.1 75.6,46.8 C74.8,46.6 74,46.5 73.2,46.4 C72.4,46.3 71.5,46.3 70.7,46.3 L70.7,39.8 L70.6,39.8 Z M51.9,88.2 C51.9,88.5 51.7,88.7 51.4,88.7 L39.6,88.7 C39.3,88.7 39.1,88.5 39.1,88.2 L39.1,42.8 C39.1,42.5 39.3,42.3 39.6,42.3 L51.4,42.3 C51.7,42.3 51.9,42.5 51.9,42.8 L51.9,54.9 C51.5,55.4 51.1,55.9 50.7,56.4 C50.3,56.9 49.9,57.5 49.6,58 C49.4,58.4 49.2,58.8 49,59.1 C48.6,59.8 48.3,60.5 48,61.2 C47.4,62.7 46.9,64.2 46.6,65.8 C46.4,66.6 46.3,67.4 46.2,68.3 C46,69.3 46,70.1 46,71 C46,71.8 46,72.7 46.1,73.5 C46.2,74.3 46.3,75.1 46.5,76 C46.8,77.6 47.3,79.2 47.9,80.6 C48.2,81.3 48.6,82.1 48.9,82.8 C49.1,83.2 49.3,83.6 49.5,83.9 C49.8,84.4 50.2,85 50.6,85.5 C51,86 51.4,86.5 51.8,87 L51.8,88.2 L51.9,88.2 Z M70.6,89.7 C66.1,89.7 62,88.1 58.8,85.5 C54.6,82.1 51.9,76.8 51.9,71 C51.9,65.1 54.6,59.9 58.8,56.5 C60.3,55.3 61.9,54.3 63.7,53.6 C65.8,52.8 68.2,52.3 70.6,52.3 C75.6,52.3 80.1,54.2 83.4,57.4 C87,60.8 89.3,65.7 89.3,71 C89.3,76.8 86.7,82 82.5,85.4 C79.4,88.1 75.2,89.7 70.6,89.7 Z"></path>
            <path d="M92.3,0.4 L78.5,0.4 C76.6,0.4 75,1.9 75,3.9 C75,5.8 76.5,7.4 78.5,7.4 L83.8,7.4 L67.5,17.7 L26.7,17.7 C26,17.7 25.4,17.9 24.8,18.2 L1.7,33 C0.1,34 -0.4,36.2 0.6,37.8 C1.3,38.8 2.4,39.4 3.5,39.4 C4.1,39.4 4.8,39.2 5.3,38.9 L27.6,24.7 L68.4,24.7 C69.1,24.7 69.7,24.5 70.3,24.2 L88.8,12.4 L88.8,17.8 C88.8,19.7 90.3,21.3 92.3,21.3 C94.2,21.3 95.8,19.8 95.8,17.8 L95.8,3.9 C95.8,2 94.2,0.4 92.3,0.4 Z"></path>
            <path d="M81.7,78.5 C81.2,78.3 80.7,78.1 80.1,78.1 C80,78.1 79.8,78.1 79.7,78.1 L74.3,73 C74.5,72.5 74.6,71.9 74.6,71.3 C74.6,70.1 74.1,69 73.4,68.2 L75.6,60.6 C76.8,60.1 77.6,58.9 77.6,57.5 C77.6,55.7 76.1,54.1 74.3,54.1 C72.5,54.1 71,55.6 71,57.5 C71,58.1 71.1,58.6 71.4,59.1 L70.7,61.4 L69.1,67 C67.7,67.4 66.5,68.4 66,69.8 L63.8,70.3 L59.3,71.3 C59.2,71.2 59,71.1 58.8,71 C58.3,70.7 57.8,70.6 57.2,70.6 C55.4,70.6 53.9,72.1 53.9,74 C53.9,75.8 55.4,77.3 57.2,77.3 C57.8,77.3 58.3,77.1 58.8,76.9 C59.3,76.6 59.7,76.2 60,75.7 L63.7,74.9 L66.7,74.2 C67.5,75.2 68.7,75.8 70.1,75.8 C70.3,75.8 70.4,75.8 70.6,75.8 C70.6,75.8 70.7,75.8 70.7,75.8 L73.6,78.5 L76.8,81.5 C76.8,83.4 78.3,84.9 80.1,84.9 C81.9,84.9 83.4,83.4 83.4,81.5 C83.5,80.1 82.8,79 81.7,78.5 Z"></path>
        </g>
    </g>
</svg>