<?xml version="1.0" encoding="UTF-8"?>
<svg width="96px" height="96px" viewBox="0 0 96 96" version="1.1" xmlns="http://www.w3.org/2000/svg" xmlns:xlink="http://www.w3.org/1999/xlink">
    <!-- Generator: Sketch 49.3 (51167) - http://www.bohemiancoding.com/sketch -->
    <title>iConnector XMPP</title>
    <desc>Created with Sketch.</desc>
    <defs></defs>
    <g id="iConnector-XMPP" stroke="none" stroke-width="1" fill="none" fill-rule="evenodd">
        <g fill="#0B82C5" fill-rule="nonzero" id="Shape">
            <path d="M96,3.7 C96,1.6 94.2,0 92,0 L61.3,0 C59.1,0 57.3,1.6 57.3,3.7 L57.3,33.6 C57.3,41.5 55.1,49 51,56 C51,56 51,56.1 51,56.1 C50.2,57 49.6,58 49.1,59 C49.1,59 49.1,59.1 49,59.1 C48.7,59.6 48.3,60 48,60.5 C46,57.8 44.2,55 42.8,52 C42.6,51.6 42.4,51.2 42.2,50.7 C41.9,49.9 41.6,49.2 41.3,48.4 C41.2,48.1 41.1,47.9 41,47.6 C40.8,47.1 40.7,46.6 40.5,46.1 C40.4,45.6 40.2,45.2 40.1,44.7 C40.1,44.4 40,44.2 40,44 C39.9,43.5 39.8,43.1 39.7,42.6 C39.6,42.1 39.5,41.7 39.4,41.2 C39.4,41 39.3,40.8 39.3,40.6 C39.1,39.6 39,38.5 38.9,37.5 C38.9,37.3 38.9,37 38.9,36.8 C38.9,36.5 38.9,36.1 38.8,35.8 C38.8,35.6 38.8,35.4 38.8,35.3 C38.8,34.8 38.8,34.2 38.8,33.7 L38.8,4 C38.8,1.8 37,0 34.8,0 L4,0 C1.8,0 0,1.8 0,4 L0,33.7 C0,34.2 0,34.7 0,35.2 C0,35.6 0,36 0,36.4 C0,36.5 0,36.6 0,36.7 C0,37 0,37.4 0.1,37.7 C0.1,37.9 0.1,38.1 0.1,38.3 C0.1,38.6 0.2,39 0.2,39.3 C0.2,39.4 0.2,39.6 0.2,39.7 C0.2,40 0.3,40.3 0.3,40.6 C0.3,40.8 0.3,41 0.4,41.2 C0.4,41.5 0.5,41.9 0.6,42.2 C0.7,42.7 0.8,43.2 0.8,43.7 C0.9,44.2 1,44.6 1.1,45.1 C1.2,45.4 1.3,45.8 1.3,46.1 C1.5,46.8 1.6,47.5 1.8,48.1 C1.9,48.4 2,48.8 2.1,49.1 C2.1,49.1 2.1,49.1 2.1,49.1 C6,61.6 14.8,71.1 28.4,77.7 C26.1,79.1 23.6,80.5 21,81.7 C19.5,82.4 18.7,84.1 19.1,85.8 C19.5,87.3 20.9,88.4 22.5,88.4 C22.6,88.4 22.7,88.4 22.8,88.4 C32.1,87.6 40.4,86.3 48,84.5 C48.7,84.7 49.5,84.8 50.3,85 C50.3,85 50.3,85 50.3,85 C50.7,85.6 51.2,86.3 51.7,86.9 C52,87.3 52.3,87.7 52.7,88 C53.7,89.1 54.8,90.1 56,91 C56.3,91.2 56.7,91.5 57,91.7 C57.7,92.2 58.3,92.6 59,92.9 C62.5,94.8 66.6,95.9 70.9,95.9 C75.2,95.9 79.3,94.8 82.8,92.9 C83.5,92.5 84.2,92.1 84.8,91.7 C85.1,91.5 85.5,91.2 85.8,91 C86,90.8 86.2,90.7 86.4,90.5 C86.8,90.2 87.1,89.9 87.5,89.6 C87.5,89.6 87.5,89.6 87.5,89.6 C87.7,89.4 87.9,89.3 88,89.1 C88.6,88.6 89.1,88 89.6,87.5 C89.8,87.3 90,87.1 90.1,86.9 C91.4,85.3 92.5,83.7 93.3,81.8 C93.7,81.1 94,80.3 94.2,79.6 C95.2,76.9 95.7,74 95.7,71 C95.7,68.4 95.3,65.9 94.6,63.6 C94.5,63.2 94.4,62.8 94.2,62.4 C94.2,62.4 94.2,62.4 94.2,62.4 C93.9,61.6 93.6,60.9 93.3,60.2 C92.8,58.7 92,57.3 91,56 C91,56 91,56 91,56 C91,56 91,56 91,56 C94.3,49.5 96,42 96,33.6 L96,3.7 Z M89,33.7 C89,40 87.9,45.8 85.7,50.8 C85,50.3 84.3,49.9 83.6,49.4 C83.4,49.3 83.1,49.1 82.9,49 C81.8,48.4 80.7,47.9 79.6,47.5 C79.3,47.4 79,47.3 78.6,47.2 C78.4,47.1 78.2,47.1 77.9,47 C77.8,47 77.7,46.9 77.6,46.9 C79.1,42.2 80.1,37.1 80.4,31.6 L80.4,7 L89,7 L89,33.7 Z M64.3,33.7 L64.3,7 L73.4,7 L73.4,31.3 C73.1,36.6 72.2,41.5 70.6,46 C68.6,46 66.6,46.3 64.8,46.8 C64.4,46.9 64,47 63.6,47.1 C63.2,47.2 62.8,47.3 62.4,47.5 C62.4,47.5 62.3,47.5 62.3,47.5 C63.6,43.1 64.3,38.4 64.3,33.7 Z M43.3,66 C44.2,67.1 45.1,68.2 46,69.2 C46,69.5 46,69.8 46,70.2 C44.5,69.3 43.2,68.4 41.9,67.5 C29.7,58.7 23.3,46.7 22.5,31.4 L22.5,7 L31.7,7 L31.7,33.7 C31.7,45.3 35.8,56.3 43.3,66 Z M7,7 L15.5,7 L15.5,31.6 C16.4,48.6 23.4,62.1 36.5,72.1 C37.8,73.1 39.1,74 40.5,74.9 C40.4,75 40.3,75 40.2,75 C38.5,74.4 36.8,73.8 35.2,73.1 C35.2,73.1 35.2,73.1 35.2,73.1 C16.3,65.2 7,52.2 7,33.7 L7,7 Z M71,90 C67.2,90 63.7,88.9 60.7,86.9 C60.7,86.9 60.7,86.9 60.7,86.9 C58.9,85.8 57.4,84.4 56.1,82.7 C56,82.6 55.9,82.4 55.8,82.3 C54.9,81.2 54.2,79.9 53.6,78.6 C53.3,77.9 53,77.2 52.8,76.5 C52.7,76.3 52.7,76.2 52.7,76 C52.7,75.8 52.6,75.6 52.6,75.5 C52.4,74.8 52.3,74.2 52.2,73.5 C52,72.7 52,71.8 52,71 C52,70.2 52,69.5 52.1,68.7 C52.2,67.8 52.4,66.9 52.6,66 C52.6,66 52.6,66 52.6,65.9 C52.6,65.9 52.6,65.9 52.6,65.9 C52.6,65.9 52.6,65.9 52.6,65.9 C53.6,62.2 55.7,59 58.6,56.5 C61.1,54.4 64.2,52.9 67.6,52.3 C68.7,52.1 69.8,52 70.9,52 C72.4,52 73.9,52.2 75.3,52.5 C78.1,53.1 80.6,54.4 82.7,56.1 C84.6,57.6 86.2,59.5 87.4,61.6 C89,64.4 89.9,67.6 89.9,70.9 C89.9,76.6 87.4,81.8 83.3,85.2 C81.7,86.6 79.8,87.8 77.7,88.6 C75.7,89.5 73.4,90 71,90 Z"></path>
            <path d="M80.6,78.2 C80.5,78.2 80.3,78.2 80.2,78.2 L75,73.4 L74.6,73.1 C74.8,72.6 74.9,72 74.9,71.4 C74.9,70.2 74.4,69 73.6,68.2 L74.5,65.1 L75.8,60.5 C77,60 77.9,58.8 77.9,57.4 C77.9,55.5 76.4,54 74.6,54 C74.6,54 74.5,54 74.5,54 C72.6,54 71.1,55.5 71.1,57.4 C71.1,58 71.3,58.6 71.5,59 L71.4,59.3 L69.4,67 C67.9,67.4 66.8,68.5 66.3,69.9 L60.7,71.2 L59.6,71.4 C59.1,71 58.5,70.7 57.9,70.7 C57.9,70.7 57.8,70.7 57.8,70.7 C57.7,70.7 57.6,70.7 57.5,70.7 C55.6,70.7 54.1,72.2 54.1,74.1 C54.1,74.2 54.1,74.3 54.1,74.4 C54.1,74.8 54.2,75.2 54.4,75.6 C54.4,75.6 54.4,75.6 54.4,75.6 C55,76.7 56.1,77.5 57.4,77.5 C58.3,77.5 59,77.2 59.6,76.7 C59.8,76.5 60.1,76.2 60.2,75.9 L63.5,75.2 L63.6,75.2 L67.1,74.4 C67.9,75.4 69.2,76 70.6,76 C70.7,76 70.9,76 71,76 C71,76 71.1,76 71.2,76 L77.4,81.7 C77.4,82.2 77.5,82.6 77.7,83 C78.2,84.2 79.4,85.1 80.8,85.1 C81.3,85.1 81.7,85 82.1,84.9 C83.3,84.4 84.2,83.2 84.2,81.7 C84,79.7 82.5,78.2 80.6,78.2 Z"></path>
        </g>
    </g>
</svg>