<?xml version="1.0" encoding="UTF-8"?>
<svg width="96px" height="96px" viewBox="0 0 96 96" version="1.1" xmlns="http://www.w3.org/2000/svg" xmlns:xlink="http://www.w3.org/1999/xlink">
    <!-- Generator: Sketch 49.3 (51167) - http://www.bohemiancoding.com/sketch -->
    <title>iIntegrate service</title>
    <desc>Created with Sketch.</desc>
    <defs></defs>
    <g id="iIntegrate-service" stroke="none" stroke-width="1" fill="none" fill-rule="evenodd">
        <g transform="translate(3.000000, 3.000000)" fill="#0B82C5" fill-rule="nonzero">
            <path d="M11.2745948,25.4016413 C11.1630085,25.3027297 11.1630085,25.3027297 11.0588744,25.2010101 L6.8162345,20.9583701 C5.25413654,19.3962729 5.25413654,16.8636125 6.81623387,15.3015152 L15.3015152,6.81623387 C16.8636125,5.25413654 19.3962729,5.25413654 20.9583694,6.81623384 L25.2010228,11.0588871 C25.3027297,11.1630084 25.3027297,11.1630085 25.4016413,11.2745948 C28.413633,9.52049811 31.6428509,8.18090718 35.0104341,7.29114795 C35.0016701,7.14396861 35.0016701,7.14396861 35,7 L35,1 C35,-1.20913897 36.790861,-3 39,-3 L51,-3 C53.209139,-3 55,-1.20913897 55,1 L55,7 C54.9983299,7.14396861 54.9983299,7.14396861 54.9895659,7.29114791 C58.3571491,8.18090717 61.586367,9.52049811 64.5983587,11.2745948 C64.6972703,11.1630085 64.6972703,11.1630085 64.7989899,11.0588744 L69.0416299,6.8162345 C70.6037271,5.25413654 73.1363875,5.25413654 74.6984848,6.81623387 L83.1837661,15.3015152 C84.7458635,16.8636125 84.7458635,19.3962729 83.1837662,20.9583694 L78.9411129,25.2010228 C78.8369916,25.3027297 78.8369915,25.3027297 78.7254052,25.4016413 C80.4795019,28.413633 81.8190928,31.6428509 82.708852,35.0104341 C82.8560314,35.0016701 82.8560314,35.0016701 83,35 L89,35 C91.209139,35 93,36.790861 93,39 L93,51 C93,53.209139 91.209139,55 89,55 L83,55 C82.8560314,54.9983299 82.8560314,54.9983299 82.7088521,54.9895659 C81.8190928,58.3571491 80.4795019,61.586367 78.7254052,64.5983587 C78.8369915,64.6972703 78.8369915,64.6972703 78.9411256,64.7989899 L83.1837655,69.0416299 C84.7458635,70.6037271 84.7458635,73.1363875 83.1837661,74.6984848 L74.6984848,83.1837661 C73.1363875,84.7458635 70.6037271,84.7458635 69.0416306,83.1837662 L64.7989772,78.9411129 C64.6972703,78.8369916 64.6972703,78.8369915 64.5983587,78.7254052 C61.586367,80.4795019 58.3571491,81.8190928 54.9895659,82.708852 C54.9983299,82.8560314 54.9983299,82.8560314 55,83 L55,89 C55,91.209139 53.209139,93 51,93 L39,93 C36.790861,93 35,91.209139 35,89 L35,83 C35.0016701,82.8560314 35.0016701,82.8560314 35.0104341,82.7088521 C31.6428509,81.8190928 28.413633,80.4795019 25.4016413,78.7254052 C25.3027297,78.8369915 25.3027297,78.8369915 25.2010101,78.9411256 L20.9583701,83.1837655 C19.3962729,84.7458635 16.8636125,84.7458635 15.3015152,83.1837661 L6.81623387,74.6984848 C5.25413654,73.1363875 5.25413654,70.6037271 6.81623384,69.0416306 L11.0588871,64.7989772 C11.1630084,64.6972703 11.1630085,64.6972703 11.2745948,64.5983587 C9.52049811,61.586367 8.18090718,58.3571491 7.29114795,54.9895659 C7.14396861,54.9983299 7.14396861,54.9983299 7,55 L1,55 C-1.20913897,55 -3,53.209139 -3,51 L-3,39 C-3,36.790861 -1.20913897,35 1,35 L7,35 C7.14396861,35.0016701 7.14396861,35.0016701 7.29114791,35.0104341 C8.18090717,31.6428509 9.52049811,28.413633 11.2745948,25.4016413 Z M15.9332855,20.1759263 L20.2469816,23.9045663 L17.323579,28.9243945 C15.8854195,31.3938845 14.7878242,34.039748 14.0589091,36.7985643 L12.576633,42.4087205 L6.89465481,42 L4,42 L4,48 L6.89465481,48 L12.576633,47.5912795 L14.058909,53.2014356 C14.7878242,55.960252 15.8854195,58.6061155 17.323579,61.0756055 L20.2469816,66.0954337 L15.9332855,69.8240737 L13.8873016,71.8700577 L18.1299423,76.1126984 L20.1759263,74.0667145 L23.9045663,69.7530184 L28.9243945,72.676421 C31.3938845,74.1145805 34.039748,75.2121758 36.7985643,75.9410909 L42.4087205,77.423367 L42,83.1053452 L42,86 L48,86 L48,83.1053452 L47.5912795,77.423367 L53.2014356,75.941091 C55.960252,75.2121758 58.6061155,74.1145805 61.0756055,72.676421 L66.0954337,69.7530184 L69.8240737,74.0667145 L71.8700577,76.1126984 L76.1126984,71.8700577 L74.0667145,69.8240737 L69.7530184,66.0954337 L72.676421,61.0756055 C74.1145805,58.6061155 75.2121758,55.960252 75.9410909,53.2014357 L77.423367,47.5912795 L83.1053452,48 L86,48 L86,42 L83.1053452,42 L77.423367,42.4087205 L75.941091,36.7985644 C75.2121758,34.039748 74.1145805,31.3938845 72.676421,28.9243945 L69.7530184,23.9045663 L74.0667145,20.1759263 L76.1126984,18.1299423 L71.8700577,13.8873016 L69.8240737,15.9332855 L66.0954337,20.2469816 L61.0756055,17.323579 C58.6061155,15.8854195 55.960252,14.7878242 53.2014357,14.0589091 L47.5912795,12.576633 L48,6.89465481 L48,4 L42,4 L42,6.89465481 L42.4087205,12.576633 L36.7985644,14.058909 C34.039748,14.7878242 31.3938845,15.8854195 28.9243945,17.323579 L23.9045663,20.2469816 L20.1759263,15.9332855 L18.1299423,13.8873016 L13.8873016,18.1299423 L15.9332855,20.1759263 Z M83.211083,48.007606 C83.103229,48.001191 83.103229,48.001191 83,48 L83.1053452,48 L83.211083,48.007606 Z M16.0086093,20.25125 C15.9339558,20.1783183 15.9339558,20.1783183 15.8521807,20.1058215 L15.9332855,20.1759263 L16.0086093,20.25125 Z" id="Combined-Shape"></path>
            <path d="M45,27 C35.0588745,27 27,35.0588745 27,45 C27,54.9411255 35.0588745,63 45,63 C54.9411255,63 63,54.9411255 63,45 C63,35.0588745 54.9411255,27 45,27 Z M45,20 C58.8071187,20 70,31.1928813 70,45 C70,58.8071187 58.8071187,70 45,70 C31.1928813,70 20,58.8071187 20,45 C20,31.1928813 31.1928813,20 45,20 Z" id="Combined-Shape-Copy"></path>
            <path d="M52.2865322,36.789323 C53.5074554,35.2907162 55.7120701,35.0656091 57.210677,36.2865322 C58.7092838,37.5074554 58.9343909,39.7120701 57.7134678,41.210677 L46.3075916,55.210677 C45.0874385,56.7083386 42.884618,56.9342554 41.3858685,55.7154389 L32.7917447,48.7265061 C31.2920492,47.5069203 31.0649754,45.3025073 32.2845611,43.8028119 C33.5041469,42.3031164 35.7085599,42.0760426 37.2082553,43.2956283 L43.0893617,48.0782749 L52.2865322,36.789323 Z" id="Path-2"></path>
        </g>
    </g>
</svg>