<?xml version="1.0" encoding="utf-8"?>
<!-- Generator: Adobe Illustrator 20.1.0, SVG Export Plug-In . SVG Version: 6.00 Build 0)  -->
<svg version="1.1" id="Map_1" xmlns="http://www.w3.org/2000/svg" xmlns:xlink="http://www.w3.org/1999/xlink" x="0px" y="0px"
	 viewBox="0 0 96 96" style="enable-background:new 0 0 96 96;" xml:space="preserve">
<style type="text/css">
	.st0{fill:#0B82C5;}
</style>
<title>analitics</title>
<desc>Created with Sketch.</desc>
<g>
	<path class="st0" d="M19.7,20.9h-6.6c-6.6,0-12,5.4-12,12v41.7c0,6.6,5.4,12,12,12h18.8c-0.4,1-0.6,2.1-0.5,3.2
		c0.3,3.6,3.5,6.2,7,6.2H56c5.2,0,8.4-2.6,8.7-6.2c0.1-1.1-0.1-2.2-0.5-3.2h17.7c6.6,0,12-5.4,12-12V32.9c0-6.6-5.4-12-12-12h-7.6
		c-2,0-3.6,1.6-3.6,3.6v0c0,2,1.6,3.6,3.6,3.6h7.6c2.6,0,4.7,2.1,4.7,4.7v41.7c0,2.6-2.1,4.7-4.7,4.7H13.1c-2.6,0-4.7-2.1-4.7-4.7
		V32.9c0-2.6,2.1-4.7,4.7-4.7h6.6c2,0,3.6-1.6,3.6-3.6v0C23.3,22.5,21.7,20.9,19.7,20.9z"/>
	<path class="st0" d="M46.5,42.3c9.1,0,16.9-5.9,19.7-14.1c0.7-2.1,1.1-4.4,1.1-6.7c0-0.2,0-0.4-0.1-0.6c-0.1-0.8-0.5-1.5-1-2
		c-0.7-0.7-1.6-1.1-2.6-1.1H51V4.2c0-1.9-1.5-3.5-3.5-3.6c-0.4,0-0.7,0-1.1,0c-11.3,0-20.6,9.1-20.8,20.3c0,0.2,0,0.3,0,0.5
		c0,2.4,0.4,4.6,1.1,6.8C29.6,36.4,37.3,42.3,46.5,42.3z M43.7,20.9v0.6c0,2,1.6,3.6,3.6,3.6h12.1c-0.3,1.1-0.8,2.1-1.3,3.1
		c-2.3,4-6.7,6.8-11.7,6.8s-9.4-2.7-11.7-6.8c-1.2-2-1.8-4.3-1.8-6.8c0-0.2,0-0.4,0-0.5c0.2-6.3,4.8-11.5,10.8-12.7V20.9z"/>
	<path class="st0" d="M54.3,14.6h10.4c0.4,0,0.7-0.2,0.9-0.5c0.1-0.2,0.2-0.4,0.2-0.6v-0.1c-0.3-3.4-1.6-6.1-3.8-8.1
		c-2.1-1.9-4.5-3-7.3-3.3c-0.1,0-0.2,0-0.3,0h-0.1c-0.5,0-1,0.4-1.1,1v10.5C53.2,14.2,53.7,14.6,54.3,14.6z"/>
	<path class="st0" d="M19.9,56.8v9.4c0,2.6,2.1,4.7,4.7,4.7s4.7-2.1,4.7-4.7v-9.4c0-2.6-2.1-4.7-4.7-4.7S19.9,54.3,19.9,56.8z"/>
	<path class="st0" d="M51.1,56.8v9.4c0,2.6,2.1,4.7,4.7,4.7c2.6,0,4.7-2.1,4.7-4.7v-9.4c0-2.6-2.1-4.7-4.7-4.7
		C53.3,52.2,51.1,54.3,51.1,56.8z"/>
	<path class="st0" d="M35.5,52.7v13.5c0,2.6,2.1,4.7,4.7,4.7c2.6,0,4.7-2.1,4.7-4.7V52.7c0-2.6-2.1-4.7-4.7-4.7
		C37.6,48,35.5,50.1,35.5,52.7z"/>
	<path class="st0" d="M65.7,66.2c0,2.6,2.1,4.7,4.7,4.7c2.6,0,4.7-2.1,4.7-4.7V43.3c0-2.6-2.1-4.7-4.7-4.7c-2.6,0-4.7,2.1-4.7,4.7
		V66.2z"/>
</g>
</svg>
