<?xml version="1.0" encoding="UTF-8"?>
<svg width="96px" height="96px" viewBox="0 0 96 96" version="1.1" xmlns="http://www.w3.org/2000/svg" xmlns:xlink="http://www.w3.org/1999/xlink">
    <!-- Generator: Sketch 49.3 (51167) - http://www.bohemiancoding.com/sketch -->
    <title>iIntegrate Services overview</title>
    <desc>Created with Sketch.</desc>
    <defs></defs>
    <g id="iIntegrate-Services-overview" stroke="none" stroke-width="1" fill="none" fill-rule="evenodd">
        <g fill="#0B82C5" fill-rule="nonzero">
            <g id="Combined-Shape" transform="translate(0.000000, 19.000000)">
                <path d="M73.4,44.4 C73.4,44.4 72.5,44 71.6,43.7 C70.7,43.3 69.7,43 69.6,43 C70,40.1 70.1,37.2 69.7,34.2 C70.1,34.2 73.6,32.8 73.6,32.8 C74.6,32.4 75.5,31.6 75.9,30.5 C76.3,29.5 76.4,28.3 75.9,27.3 L73,20.1 C72.6,19.1 71.8,18.3 70.7,17.8 C69.7,17.4 68.5,17.3 67.5,17.8 C67.5,17.8 64.1,19.2 63.8,19.5 C62.1,17.2 60,15.1 57.7,13.3 C57.9,13 59.4,9.6 59.4,9.6 C60.3,7.5 59.3,5 57.2,4.1 L50,1.1 C47.9,0.2 45.4,1.2 44.5,3.3 C44.5,3.3 44.1,4.2 43.8,5.1 C43.3,5.9 43,6.8 43,7 C41.5,6.8 39.9,6.6 38.3,6.6 C36.9,6.6 35.6,6.7 34.2,6.9 C34.2,6.5 32.8,3 32.8,3 C32.4,2 31.6,1.1 30.5,0.7 C29.5,0.3 28.3,0.2 27.3,0.7 L20.1,3.6 C19.1,4 18.3,4.8 17.8,5.9 C17.4,6.9 17.3,8.1 17.8,9.1 C17.8,9.1 19.2,12.5 19.5,12.8 C17.1,14.6 15.1,16.6 13.3,18.9 C13,18.7 9.6,17.1 9.6,17.1 C7.5,16.2 5,17.2 4.1,19.3 L1.1,26.5 C0.7,27.5 0.7,28.7 1.1,29.7 C1.5,30.7 2.3,31.6 3.3,32 C3.3,32 4.2,32.3 5.1,32.7 C6,33.1 7,33.4 7.2,33.4 C7,34.9 6.8,36.5 6.8,38.1 C6.8,39.5 6.9,40.8 7.1,42.2 C6.7,42.2 3.2,43.6 3.2,43.6 C1,44.5 -3.10862447e-15,46.9 0.9,49.1 L3.8,56.3 C4.2,57.3 5,58.2 6.1,58.6 C7.1,59 8.3,59.1 9.3,58.6 C9.3,58.6 12.7,57.2 13,56.9 C14.8,59.3 16.8,61.4 19.1,63.1 C18.9,63.4 17.3,66.8 17.3,66.8 C16.4,68.9 17.4,71.4 19.5,72.3 L26.7,75.3 C27.7,75.7 28.9,75.8 29.9,75.3 C30.9,74.9 31.8,74.1 32.2,73 C32.2,73 33.6,69.6 33.6,69.2 C35.1,69.4 36.7,69.5 38.2,69.5 C39.6,69.5 40.9,69.4 42.3,69.2 C42.3,69.6 43.7,73.1 43.7,73.1 C44.1,74.1 44.9,75 45.9,75.4 C46.4,75.6 47,75.7 47.6,75.7 C48.1,75.7 48.7,75.6 49.2,75.4 L56.4,72.5 C58.6,71.6 59.6,69.2 58.7,67 C58.7,67 58.3,66.1 57.9,65.2 C57.5,64.3 57.1,63.4 57,63.2 C59.4,61.5 61.5,59.4 63.2,57.1 C63.5,57.3 66.9,58.9 66.9,58.9 C67.9,59.3 69.1,59.4 70.1,58.9 C71.1,58.5 72,57.7 72.4,56.7 L75.4,49.5 C76.5,47.8 75.5,45.3 73.4,44.4 Z M68,52.5 C67.9,52.8 67.5,52.9 67.2,52.7 L65.6,51.6 C63.8,50.2 61.2,50.5 59.9,52.3 L58.7,53.9 C57.2,55.8 55.5,57.5 53.6,58.9 L52,60.1 C50.2,61.4 49.8,64 51.2,65.8 L52.3,67.5 C52.5,67.8 52.4,68.2 52,68.3 L49.3,69.4 C49,69.5 48.6,69.3 48.6,69 L48.2,67 C48,64.7 45.9,63.1 43.7,63.4 L41.7,63.7 C39.4,64 37,64 34.6,63.6 L32.6,63.3 C30.4,63 28.3,64.5 28,66.8 L27.6,68.7 C27.5,69 27.2,69.2 26.9,69.1 L24.1,68 C23.8,67.9 23.7,67.5 23.9,67.2 L25,65.6 C26.4,63.8 26.1,61.2 24.3,59.9 L22.7,58.7 C20.8,57.3 19.2,55.6 17.7,53.7 L16.5,52 C15.1,50.2 12.6,49.8 10.8,51.2 L9.1,52.3 C8.8,52.5 8.4,52.4 8.3,52 L7.2,49.3 C7.1,49 7.3,48.6 7.6,48.6 L9.5,48.2 C11.8,48 13.4,45.9 13.1,43.7 L12.8,41.7 C12.5,39.3 12.5,37 12.9,34.6 L13.2,32.6 C13.5,30.4 12,28.3 9.7,28 L7.8,27.6 C7.5,27.5 7.3,27.2 7.4,26.9 L8.5,24.2 C8.6,23.9 9,23.8 9.3,24 L11,25 C12.8,26.4 15.4,26.1 16.8,24.3 L18,22.7 C19.5,20.8 21.1,19.2 23,17.7 L24.6,16.5 C26.4,15.1 26.8,12.6 25.4,10.8 L24.3,9.1 C24.1,8.8 24.2,8.4 24.6,8.3 L27.3,7.2 C27.6,7.1 28,7.3 28,7.6 L28.4,9.5 C28.6,11.8 30.7,13.4 32.9,13.1 L34.9,12.8 C37.2,12.5 39.6,12.5 42,12.9 L44,13.2 C46.2,13.5 48.3,12 48.6,9.7 L49,7.8 C49.1,7.5 49.4,7.3 49.7,7.4 L52.4,8.5 C52.7,8.6 52.8,9 52.6,9.3 L51.6,11 C50.2,12.8 50.5,15.4 52.3,16.8 L53.9,18 C55.8,19.4 57.4,21.1 58.9,23 L60.1,24.6 C61.5,26.4 64.1,26.8 65.8,25.4 L67.5,24.3 C67.8,24.1 68.2,24.2 68.3,24.6 L69.4,27.3 C69.5,27.6 69.3,28 69,28 L67,28.5 C64.7,28.7 63.1,30.8 63.4,33 L63.7,35 C64,37.4 64,39.7 63.6,42.1 L63.3,44.1 C63,46.3 64.5,48.4 66.8,48.7 L68.7,49.1 C69,49.2 69.2,49.5 69.1,49.8 L68,52.5 Z" id="Shape"></path>
            </g>
            <g id="Combined-Shape-Copy-2" transform="translate(59.000000, 0.000000)">
                <path d="M37,20.3 L37,16.7 C37,15.1 35.5,14 34,14.4 L33,14.7 C32.7,13.4 32.1,12.1 31.4,10.9 L32.3,10.4 C33.7,9.6 33.9,7.8 32.8,6.7 L30.3,4.2 C29.2,3.1 27.3,3.4 26.6,4.7 L26.1,5.6 C24.9,4.9 23.6,4.4 22.3,4 L22.6,3 C23,1.5 21.9,0 20.3,0 L16.7,0 C15.1,0 14,1.5 14.4,3 L14.7,3.9 C13.4,4.2 12.1,4.8 10.9,5.5 L10.4,4.6 C9.6,3.2 7.8,3 6.7,4.1 L4.2,6.6 C3.1,7.7 3.4,9.6 4.7,10.3 L5.6,10.8 C4.9,12 4.4,13.3 4,14.6 L3,14.3 C1.5,13.9 7.10542736e-15,15 7.10542736e-15,16.6 L7.10542736e-15,20.2 C7.10542736e-15,21.8 1.5,22.9 3,22.5 L3.8,22.3 L3.9,22.3 C4.2,23.6 4.8,24.9 5.5,26.1 L4.6,26.6 C3.2,27.4 3,29.2 4.1,30.3 L6.6,32.8 C7.7,33.9 9.6,33.6 10.3,32.3 L10.8,31.4 C12,32.1 13.3,32.6 14.6,33 L14.4,34 C14,35.5 15.1,37 16.7,37 L20.3,37 C21.9,37 23,35.5 22.6,34 L22.3,33.1 C23.6,32.8 24.9,32.2 26.1,31.5 C26.1,31.5 26.2,31.7 26.1,31.5 L26.6,32.3 C27.4,33.7 29.2,33.9 30.3,32.8 L32.8,30.3 C33.9,29.2 33.6,27.3 32.3,26.6 L31.4,26.1 C32.1,24.9 32.6,23.6 33,22.3 L34,22.6 C35.5,23 37,21.9 37,20.3 Z M25.8,20.2 C25.6,21 25.3,21.8 24.9,22.5 C24.3,23.5 23.5,24.3 22.5,24.9 C21.8,25.3 21.1,25.7 20.3,25.8 C19.8,25.9 19.2,26 18.6,26 C18,26 17.4,25.9 16.9,25.8 C16.1,25.6 15.3,25.3 14.7,24.9 C13.7,24.3 12.9,23.5 12.3,22.5 C11.9,21.8 11.5,21.1 11.4,20.2 C11.3,19.7 11.2,19.1 11.2,18.5 C11.2,17.9 11.3,17.3 11.4,16.8 C11.6,16 11.9,15.2 12.3,14.5 C12.9,13.5 13.7,12.7 14.7,12.1 C15.4,11.7 16.1,11.3 16.9,11.2 C17.4,11.1 18,11 18.6,11 C19.2,11 19.8,11.1 20.3,11.2 C21.1,11.4 21.9,11.7 22.5,12.1 C23.5,12.7 24.3,13.5 24.9,14.5 C25.3,15.2 25.7,15.9 25.8,16.8 C25.9,17.3 26,17.9 26,18.5 C26,19.1 25.9,19.7 25.8,20.2 Z" id="Shape"></path>
            </g>
            <g id="Combined-Shape-Copy" transform="translate(18.000000, 37.000000)">
                <path d="M35.9,7.6 C34.1,5.6 32,4 29.7,2.9 C27.4,1.8 24.8,1.1 22.1,1 C11,0.5 1.6,9 1,20 C0.5,31 9,40.4 20,41 C20.4,41 20.7,41 21.1,41 C26.1,41 30.8,39.2 34.5,35.9 C38.5,32.3 40.8,27.4 41.1,22.1 C41.3,16.7 39.5,11.6 35.9,7.6 Z M35,21.8 C34.6,29.5 28,35.5 20.3,35 C12.6,34.6 6.6,28 7.1,20.3 C7.4,12.8 13.6,7 21,7 C21.2,7 21.5,7 21.7,7 C29.5,7.4 35.4,14 35,21.8 Z" id="Shape"></path>
            </g>
        </g>
    </g>
</svg>