<?xml version="1.0" encoding="UTF-8"?>
<svg width="96px" height="96px" viewBox="0 0 96 96" version="1.1" xmlns="http://www.w3.org/2000/svg" xmlns:xlink="http://www.w3.org/1999/xlink">
    <!-- Generator: Sketch 49.3 (51167) - http://www.bohemiancoding.com/sketch -->
    <title>iIntegrate connection API</title>
    <desc>Created with Sketch.</desc>
    <defs>
        <polygon id="path-1" points="0 0.0003 95.701 0.0003 95.701 58.9883 0 58.9883"></polygon>
    </defs>
    <g id="iIntegrate-connection-API" stroke="none" stroke-width="1" fill="none" fill-rule="evenodd">
        <g transform="translate(0.000000, 19.000000)" id="Page-1">
            <g>
                <mask id="mask-2" fill="white">
                    <use xlink:href="#path-1"></use>
                </mask>
                <g id="Clip-2"></g>
                <path d="M94.6248,18.9014 L75.9478,0.9744 C74.9358,0.0044 73.4408,-0.2696 72.1518,0.2804 C70.8608,0.8304 70.0238,2.0974 70.0238,3.5004 L70.0238,9.0044 L28.1578,9.0134 C26.2258,9.0134 24.6588,10.5814 24.6588,12.5144 C24.6588,14.4474 26.2268,16.0134 28.1588,16.0134 L28.1598,16.0134 L73.5248,16.0034 C75.4578,16.0034 77.0238,14.4354 77.0238,12.5034 L77.0238,11.7114 L87.0808,21.3634 L77.6548,29.9754 C77.6748,29.8224 77.7008,29.6724 77.7008,29.5144 C77.7008,27.5814 76.1348,26.0134 74.2018,26.0134 L25.6768,26.0044 L25.6768,20.5004 C25.6768,19.0974 24.8398,17.8304 23.5488,17.2804 C22.2578,16.7304 20.7648,17.0044 19.7528,17.9744 L1.0758,35.9014 C0.3778,36.5724 -0.0122,37.5024 -0.0002,38.4694 C0.0118,39.4384 0.4248,40.3574 1.1388,41.0104 L19.8158,58.0724 C20.4738,58.6734 21.3198,58.9884 22.1778,58.9884 C22.6538,58.9884 23.1348,58.8904 23.5888,58.6904 C24.8568,58.1304 25.6768,56.8754 25.6768,55.4884 L25.6768,51.0564 L67.4098,51.0564 C69.3428,51.0564 70.9098,49.4894 70.9098,47.5564 C70.9098,45.6244 69.3428,44.0564 67.4098,44.0564 L22.1768,44.0564 C20.2458,44.0564 18.6798,45.6204 18.6768,47.5504 L8.6198,38.3634 L18.6768,28.7114 L18.6768,29.5034 C18.6768,31.4354 20.2428,33.0034 22.1758,33.0034 L70.0238,33.0124 L70.0238,38.4884 C70.0238,39.8754 70.8438,41.1304 72.1118,41.6904 C72.5658,41.8904 73.0468,41.9884 73.5228,41.9884 C74.3808,41.9884 75.2278,41.6724 75.8848,41.0724 L94.5618,24.0104 C95.2758,23.3574 95.6878,22.4384 95.7008,21.4694 C95.7128,20.5024 95.3228,19.5724 94.6248,18.9014" id="Fill-1" fill="#0B82C5" mask="url(#mask-2)"></path>
            </g>
        </g>
    </g>
</svg>