<?xml version="1.0" encoding="UTF-8"?>
<svg width="96px" height="96px" viewBox="0 0 96 96" version="1.1" xmlns="http://www.w3.org/2000/svg" xmlns:xlink="http://www.w3.org/1999/xlink">
    <!-- Generator: Sketch 49.3 (51167) - http://www.bohemiancoding.com/sketch -->
    <title>iIntegrate analytics</title>
    <desc>Created with Sketch.</desc>
    <defs></defs>
    <g id="iIntegrate-analytics" stroke="none" stroke-width="1" fill="none" fill-rule="evenodd">
        <g id="iIntegrate-analitics" transform="translate(1.000000, 0.000000)" fill="#0B82C5" fill-rule="nonzero">
            <path d="M18.7,20.9 L12.1,20.9 C5.5,20.9 0.1,26.3 0.1,32.9 L0.1,74.6 C0.1,81.2 5.5,86.6 12.1,86.6 L30.9,86.6 C30.5,87.6 30.3,88.7 30.4,89.8 C30.7,93.4 33.9,96 37.4,96 L55,96 C60.2,96 63.4,93.4 63.7,89.8 C63.8,88.7 63.6,87.6 63.2,86.6 L80.9,86.6 C87.5,86.6 92.9,81.2 92.9,74.6 L92.9,32.9 C92.9,26.3 87.5,20.9 80.9,20.9 L73.3,20.9 C71.3,20.9 69.7,22.5 69.7,24.5 C69.7,26.5 71.3,28.1 73.3,28.1 L80.9,28.1 C83.5,28.1 85.6,30.2 85.6,32.8 L85.6,74.5 C85.6,77.1 83.5,79.2 80.9,79.2 L12.1,79.2 C9.5,79.2 7.4,77.1 7.4,74.5 L7.4,32.9 C7.4,30.3 9.5,28.2 12.1,28.2 L18.7,28.2 C20.7,28.2 22.3,26.6 22.3,24.6 C22.3,22.5 20.7,20.9 18.7,20.9 Z" id="Shape"></path>
            <path d="M45.5,42.3 C54.6,42.3 62.4,36.4 65.2,28.2 C65.9,26.1 66.3,23.8 66.3,21.5 C66.3,21.3 66.3,21.1 66.2,20.9 C66.1,20.1 65.7,19.4 65.2,18.9 C64.5,18.2 63.6,17.8 62.6,17.8 L50,17.8 L50,4.2 C50,2.3 48.5,0.7 46.5,0.6 C46.1,0.6 45.8,0.6 45.4,0.6 C34.1,0.6 24.8,9.7 24.6,20.9 C24.6,21.1 24.6,21.2 24.6,21.4 C24.6,23.8 25,26 25.7,28.2 C28.6,36.4 36.3,42.3 45.5,42.3 Z M42.7,20.9 L42.7,21.5 C42.7,23.5 44.3,25.1 46.3,25.1 L58.4,25.1 C58.1,26.2 57.6,27.2 57.1,28.2 C54.8,32.2 50.4,35 45.4,35 C40.4,35 36,32.3 33.7,28.2 C32.5,26.2 31.9,23.9 31.9,21.4 C31.9,21.2 31.9,21 31.9,20.9 C32.1,14.6 36.7,9.4 42.7,8.2 L42.7,20.9 Z" id="Shape"></path>
            <path d="M53.3,14.6 L63.7,14.6 C64.1,14.6 64.4,14.4 64.6,14.1 C64.7,13.9 64.8,13.7 64.8,13.5 L64.8,13.4 C64.5,10 63.2,7.3 61,5.3 C58.9,3.4 56.5,2.3 53.7,2 C53.6,2 53.5,2 53.4,2 L53.3,2 C52.8,2 52.3,2.4 52.2,3 L52.2,13.5 C52.2,14.2 52.7,14.6 53.3,14.6 Z" id="Shape"></path>
            <path d="M18.9,56.8 L18.9,66.2 C18.9,68.8 21,70.9 23.6,70.9 C26.2,70.9 28.3,68.8 28.3,66.2 L28.3,56.8 C28.3,54.2 26.2,52.1 23.6,52.1 C21,52.1 18.9,54.3 18.9,56.8 Z" id="Shape"></path>
            <path d="M50.1,56.8 L50.1,66.2 C50.1,68.8 52.2,70.9 54.8,70.9 C57.4,70.9 59.5,68.8 59.5,66.2 L59.5,56.8 C59.5,54.2 57.4,52.1 54.8,52.1 C52.3,52.2 50.1,54.3 50.1,56.8 Z" id="Shape"></path>
            <path d="M34.5,52.7 L34.5,66.2 C34.5,68.8 36.6,70.9 39.2,70.9 C41.8,70.9 43.9,68.8 43.9,66.2 L43.9,52.7 C43.9,50.1 41.8,48 39.2,48 C36.6,48 34.5,50.1 34.5,52.7 Z" id="Shape"></path>
            <path d="M64.7,66.2 C64.7,68.8 66.8,70.9 69.4,70.9 C72,70.9 74.1,68.8 74.1,66.2 L74.1,43.3 C74.1,40.7 72,38.6 69.4,38.6 C66.8,38.6 64.7,40.7 64.7,43.3 L64.7,66.2 Z" id="Shape"></path>
        </g>
    </g>
</svg>