<?xml version="1.0" encoding="UTF-8"?>
<svg width="96px" height="96px" viewBox="0 0 96 96" version="1.1" xmlns="http://www.w3.org/2000/svg" xmlns:xlink="http://www.w3.org/1999/xlink">
    <!-- Generator: Sketch 49.3 (51167) - http://www.bohemiancoding.com/sketch -->
    <title>iIntegrate Billing API</title>
    <desc>Created with Sketch.</desc>
    <defs>
        <polygon id="path-1" points="0 0.0001 95.5 0.0001 95.5 92.0001 0 92.0001"></polygon>
    </defs>
    <g id="iIntegrate-Billing-API" stroke="none" stroke-width="1" fill="none" fill-rule="evenodd">
        <g transform="translate(0.000000, 2.000000)" id="Page-1">
            <g>
                <mask id="mask-2" fill="white">
                    <use xlink:href="#path-1"></use>
                </mask>
                <g id="Clip-2"></g>
                <path d="M83,49.5001 L78.5,49.5001 C76.29,49.5001 74.5,51.2901 74.5,53.5001 L74.5,60.5001 C74.5,62.7101 76.29,64.5001 78.5,64.5001 L83,64.5001 L83,84.5001 C83,84.7801 82.78,85.0001 82.5,85.0001 L7.5,85.0001 C7.22,85.0001 7,84.7801 7,84.5001 L7,29.5001 C7,29.2201 7.22,29.0001 7.5,29.0001 L82.5,29.0001 C82.78,29.0001 83,29.2201 83,29.5001 L83,49.5001 Z M42.48,8.3201 L46.28,12.7101 L31.13,17.2201 L42.48,8.3201 Z M67.75,13.6201 L70.09,22.0001 L39.62,22.0001 L67.75,13.6201 Z M91.5,49.5001 L90,49.5001 L90,29.5001 C90,25.3601 86.64,22.0001 82.5,22.0001 L77.35,22.0001 L73.53,8.3101 C73.28,7.4001 72.68,6.6401 71.85,6.1901 C71.03,5.7301 70.06,5.6301 69.16,5.9001 L53.63,10.5201 L45.6,1.2101 C44.38,-0.1999 42.26,-0.4099 40.79,0.7501 L13.71,22.0001 L7.5,22.0001 C3.36,22.0001 0,25.3601 0,29.5001 L0,84.5001 C0,88.6401 3.36,92.0001 7.5,92.0001 L82.5,92.0001 C86.64,92.0001 90,88.6401 90,84.5001 L90,64.5001 L91.5,64.5001 C93.71,64.5001 95.5,62.7101 95.5,60.5001 L95.5,53.5001 C95.5,51.2901 93.71,49.5001 91.5,49.5001 Z" id="Fill-1" fill="#0B82C5" mask="url(#mask-2)"></path>
            </g>
        </g>
    </g>
</svg>