<?xml version="1.0" encoding="UTF-8"?>
<svg width="96px" height="96px" viewBox="0 0 96 96" version="1.1" xmlns="http://www.w3.org/2000/svg" xmlns:xlink="http://www.w3.org/1999/xlink">
    <!-- Generator: Sketch 49.3 (51167) - http://www.bohemiancoding.com/sketch -->
    <title>iKnowledge Campagne</title>
    <desc>Created with Sketch.</desc>
    <defs></defs>
    <g id="iKnowledge-Campagne" stroke="none" stroke-width="1" fill="none" fill-rule="evenodd">
        <g transform="translate(-1.000000, 4.000000)" fill="#0B82C5" fill-rule="nonzero" id="Shape">
            <path d="M92.1,10.3 L61.8,10.3 C61.1,10.3 60.4,10.1 59.8,9.8 L44.1,0.6 C43.5,0.3 42.8,0.1 42.1,0.1 L19.1,0.1 C16.9,0.1 15.1,1.9 15.1,4.1 L15.1,13.1 L4.1,13.1 C1.9,13.1 0.1,14.9 0.1,17.1 L0.1,79.6 C0.1,80 0.2,80.4 0.3,80.8 C0.4,81 0.5,81.3 0.6,81.5 C0.7,81.6 0.7,81.7 0.8,81.8 C0.9,82 1.1,82.2 1.3,82.4 C2,83.1 3,83.5 4.1,83.5 L77.2,83.8 C77.7,83.8 78.3,83.7 78.7,83.5 C79.2,83.3 79.6,83 80,82.6 C80.7,81.9 81.2,80.9 81.2,79.8 L81.2,70.8 L92.2,70.8 C94.4,70.8 96.2,69 96.2,66.8 L96.2,14.3 C96.1,12 94.3,10.3 92.1,10.3 Z M7.1,20 L26.4,20 L41.3,28.7 C43,29.7 44.9,30.2 46.8,30.2 L74.1,30.2 L74.1,39 L7.1,39 L7.1,20 Z M74.1,76.8 L7.1,76.6 L7.1,46 L74.2,46 L74.2,76.8 L74.1,76.8 Z M89.1,63.8 L81.1,63.8 L81.1,27.2 C81.1,25 79.3,23.2 77.1,23.2 L46.8,23.2 C46.1,23.2 45.4,23 44.8,22.7 L29.2,13.6 C28.6,13.3 27.9,13.1 27.2,13.1 L22,13.1 L22,7.1 L41.3,7.1 L56.2,15.8 C57.9,16.8 59.8,17.3 61.7,17.3 L89,17.3 L89,63.8 L89.1,63.8 Z"></path>
        </g>
    </g>
</svg>