<?xml version="1.0" encoding="UTF-8"?>
<svg width="96px" height="96px" viewBox="0 0 96 96" version="1.1" xmlns="http://www.w3.org/2000/svg" xmlns:xlink="http://www.w3.org/1999/xlink">
    <!-- Generator: Sketch 49.3 (51167) - http://www.bohemiancoding.com/sketch -->
    <title>iKnowledge services</title>
    <desc>Created with Sketch.</desc>
    <defs></defs>
    <g id="iKnowledge-services" stroke="none" stroke-width="1" fill="none" fill-rule="evenodd">
        <g fill="#0B82C5" id="Page-1">
            <g>
                <path d="M88.87,88.81 C88.87,89.08 88.65,89.31 88.37,89.31 L7.5,89.31 C7.22,89.31 7,89.08 7,88.81 L7,26.13 C9.06,27.32 11.45,28 14,28 L88.37,28 C88.65,28 88.87,28.22 88.87,28.5 L88.87,88.81 Z M88.37,21 L14,21 C10.13,21 7,17.87 7,14 C7,10.13 10.13,7 14,7 L92.5,7 C94.43,7 96,5.43 96,3.5 C96,2.22 95.3,1.11 94.28,0.5 C93.75,0.19 93.15,0 92.5,0 L14,0 C12.73,0 11.51,0.18 10.34,0.5 C5.56,1.8 1.8,5.57 0.5,10.44 C0.18,11.63 0,12.87 0,14.17 L0,88.81 C0,89.75 0.18,90.65 0.5,91.48 C1.58,94.3 4.3,96.31 7.5,96.31 L88.37,96.31 C92.51,96.31 95.87,92.95 95.87,88.81 L95.87,28.5 C95.87,24.36 92.51,21 88.37,21 Z" id="Fill-1"></path>
                <path d="M87.17,14 C87.17,15.93 85.6,17.5 83.67,17.5 L23,17.5 C21.07,17.5 19.5,15.93 19.5,14 C19.5,12.07 21.07,10.5 23,10.5 L83.67,10.5 C85.6,10.5 87.17,12.07 87.17,14" id="Fill-3"></path>
                <path d="M43.02,60.5 L48.58,47.95 L54.45,60.5 L43.02,60.5 Z M69.58,76.35 L51.67,38.02 C50.4,35.3 46.52,35.34 45.3,38.08 L28.3,76.41 C27.52,78.18 28.31,80.25 30.08,81.03 C31.85,81.82 33.92,81.02 34.7,79.25 L39.91,67.5 L57.72,67.5 L63.24,79.31 C64.06,81.07 66.14,81.82 67.89,81 C69.64,80.19 70.4,78.1 69.58,76.35 Z" id="Fill-5"></path>
            </g>
        </g>
    </g>
</svg>