<?xml version="1.0" encoding="UTF-8"?>
<svg width="96px" height="96px" viewBox="0 0 96 96" version="1.1" xmlns="http://www.w3.org/2000/svg" xmlns:xlink="http://www.w3.org/1999/xlink">
    <!-- Generator: Sketch 49.3 (51167) - http://www.bohemiancoding.com/sketch -->
    <title>iKnowledge Survey</title>
    <desc>Created with Sketch.</desc>
    <defs></defs>
    <g id="iKnowledge-Survey" stroke="none" stroke-width="1" fill="none" fill-rule="evenodd">
        <g transform="translate(-41.000000, -29.000000)" fill="#0B82C5" fill-rule="nonzero">
            <g id="Rectangle-4-Copy" transform="translate(76.738070, 76.904960) rotate(45.000000) translate(-76.738070, -76.904960) translate(22.238070, 22.904960)">
                <g id="Group">
                    <path d="M89,4 C88.9,3.9 88.8,3.9 88.7,3.8 C88,3.4 87.3,3.1 86.5,3.1 L69.8,3.1 C67.6,3.1 65.8,4.9 65.8,7.1 L65.8,15.4 L53,2.6 C50.1,-0.3 45.3,-0.3 42.4,2.6 L2.8,42.2 C-0.1,45.1 -0.1,49.9 2.8,52.8 L55.8,105.8 C58.7,108.7 63.5,108.7 66.4,105.8 L106,66.3 C108.9,63.4 108.9,58.6 106,55.7 L90.5,40.2 L90.5,7.2 C90.5,6.4 90.3,5.6 89.8,5 C89.7,4.9 89.7,4.8 89.6,4.7 C89.5,4.6 89.4,4.5 89.3,4.4 C89.3,4.2 89.1,4.1 89,4 Z M101.1,60.6 C101.3,60.8 101.3,61.1 101.1,61.3 L61.5,100.9 C61.3,101.1 61,101.1 60.8,100.9 L7.8,47.9 C7.6,47.7 7.6,47.4 7.8,47.2 L47.4,7.6 C47.6,7.4 47.9,7.4 48.1,7.6 L65.9,25.4 L65.9,55.9 C65.9,56.9 66.3,57.9 67,58.6 L75.9,68.3 L76,68.4 C77.2,69.5 79,69.5 80.2,68.4 L89.5,58.7 C90.2,58 90.6,57 90.6,55.9 L90.6,50.1 L101.1,60.6 Z M83.5,33.2 L83.5,54.7 L78,60.4 L72.8,54.8 L72.8,10.2 L83.5,10.2 L83.5,33.2 Z" id="Shape"></path>
                </g>
            </g>
            <g id="Path-2" transform="translate(52.000000, 45.000000)">
                <path d="M21.7,6.2 L13.1,16.7 C12.4,17.5 11.4,18 10.4,18 C9.6,18 8.9,17.7 8.2,17.2 L1.8,12 C0.3,10.8 0.1,8.6 1.3,7.1 C2.5,5.6 4.7,5.4 6.2,6.6 L9.9,9.6 L16.2,1.8 C17.4,0.3 19.6,0.1 21.1,1.3 C22.7,2.5 22.9,4.7 21.7,6.2 Z" id="Shape"></path>
            </g>
            <g id="Path-2-Copy" transform="translate(52.000000, 66.000000)">
                <path d="M21.7,6.2 L13.1,16.7 C12.4,17.5 11.4,18 10.4,18 C9.6,18 8.9,17.7 8.2,17.2 L1.8,12 C0.3,10.8 0.1,8.6 1.3,7.1 C2.5,5.6 4.7,5.4 6.2,6.6 L9.9,9.6 L16.2,1.8 C17.4,0.3 19.6,0.1 21.1,1.3 C22.7,2.5 22.9,4.7 21.7,6.2 Z" id="Shape"></path>
            </g>
            <g id="Path-2-Copy-2" transform="translate(52.000000, 87.000000)">
                <path d="M21.7,6.2 L13.1,16.7 C12.4,17.5 11.4,18 10.4,18 C9.6,18 8.9,17.7 8.2,17.2 L1.8,12 C0.3,10.8 0.1,8.6 1.3,7.1 C2.5,5.6 4.7,5.4 6.2,6.6 L9.9,9.6 L16.2,1.8 C17.4,0.3 19.6,0.1 21.1,1.3 C22.7,2.5 22.9,4.7 21.7,6.2 Z" id="Shape"></path>
            </g>
        </g>
    </g>
</svg>