<?xml version="1.0" encoding="UTF-8"?>
<svg width="96px" height="96px" viewBox="0 0 96 96" version="1.1" xmlns="http://www.w3.org/2000/svg" xmlns:xlink="http://www.w3.org/1999/xlink">
    <!-- Generator: Sketch 49.3 (51167) - http://www.bohemiancoding.com/sketch -->
    <title>iKnowledge transponder</title>
    <desc>Created with Sketch.</desc>
    <defs></defs>
    <g id="iKnowledge-transponder" stroke="none" stroke-width="1" fill="none" fill-rule="evenodd">
        <g fill="#0B82C5" fill-rule="nonzero">
            <path d="M45,20.6617536 C31.2234139,22.1564204 20.5,33.8259165 20.5,48 C20.5,63.1878306 32.8121694,75.5 48,75.5 C63.1878306,75.5 75.5,63.1878306 75.5,48 C75.5,46.0670034 77.0670034,44.5 79,44.5 C80.9329966,44.5 82.5,46.0670034 82.5,48 C82.5,67.0538238 67.0538238,82.5 48,82.5 C28.9461762,82.5 13.5,67.0538238 13.5,48 C13.5,29.9569169 27.3509063,15.1488863 45,13.6286268 L45,2 L52,2 L52,45.9995125 C52.6279105,46.8352566 53,47.8741752 53,49 C53,51.7614237 50.7614237,54 48,54 C45.2385763,54 43,51.7614237 43,49 C43,47.3641822 43.7855533,45.9118401 45,44.9996338 L45,33.8106784 C38.4312896,35.1924627 33.4998005,41.0203258 33.4998005,48 C33.4998005,56.0081289 39.9916716,62.5 47.9998005,62.5 C52.6144447,62.5 56.8626995,60.3339766 59.5890157,56.7160824 C60.7523322,55.1723303 62.946845,54.8639264 64.4905971,56.027243 C66.0343492,57.1905595 66.3427531,59.3850723 65.1794365,60.9288244 C61.1442792,66.2835857 54.8358766,69.5 47.9998005,69.5 C36.1256784,69.5 26.4998005,59.8741221 26.4998005,48 C26.4998005,37.1438861 34.5459131,28.1670426 45,26.7076075 L45,20.6617536 Z M48,96 C21.490332,96 0,74.509668 0,48 C0,21.490332 21.490332,0 48,0 C74.509668,0 96,21.490332 96,48 C96,74.509668 74.509668,96 48,96 Z M48,89 C70.6436747,89 89,70.6436747 89,48 C89,25.3563253 70.6436747,7 48,7 C25.3563253,7 7,25.3563253 7,48 C7,70.6436747 25.3563253,89 48,89 Z" id="Oval"></path>
            <circle id="Oval-2-Copy" cx="69" cy="28" r="5"></circle>
        </g>
    </g>
</svg>