<?xml version="1.0" encoding="UTF-8"?>
<svg width="96px" height="96px" viewBox="0 0 96 96" version="1.1" xmlns="http://www.w3.org/2000/svg" xmlns:xlink="http://www.w3.org/1999/xlink">
    <!-- Generator: Sketch 49.3 (51167) - http://www.bohemiancoding.com/sketch -->
    <title>iKnowledge History</title>
    <desc>Created with Sketch.</desc>
    <defs></defs>
    <g id="iKnowledge-History" stroke="none" stroke-width="1" fill="none" fill-rule="evenodd">
        <g id="Group" transform="translate(40.266624, 58.361742) scale(1, -1) rotate(12.000000) translate(-40.266624, -58.361742) translate(-4.733376, 12.861742)" fill="#0B82C5">
            <path d="M47.9948537,83.0093955 C46.0677679,83.1604463 44.3831054,81.7206855 44.2320546,79.7935997 C44.0810038,77.8665139 45.5207646,76.1818514 47.4478504,76.0308006 C63.3270701,74.7861395 75.6692054,61.531143 75.6692054,45.5529615 C75.6692054,28.6699588 61.9436515,14.9799019 45.0077974,14.9799019 C28.0719433,14.9799019 14.3463894,28.6699588 14.3463894,45.5529615 C14.3463894,57.6123803 21.411698,68.3921115 32.2110355,73.3450804 C33.968053,74.1509125 34.7391411,76.2285126 33.933309,77.9855301 C33.1274769,79.7425476 31.0498767,80.5136358 29.2928592,79.7078036 C16.0301615,73.6250482 7.34638939,60.3759838 7.34638939,45.5529615 C7.34638939,24.7999019 24.2100021,7.97990195 45.0077974,7.97990195 C65.8055927,7.97990195 82.6692054,24.7999019 82.6692054,45.5529615 C82.6692054,65.1955945 67.506264,81.4800324 47.9948537,83.0093955 Z" id="Oval-Copy" fill-rule="nonzero" transform="translate(45.007797, 45.500088) rotate(74.000000) translate(-45.007797, -45.500088) "></path>
            <path d="M6.87781147,51.7523149 L6.87781147,62.1546581 C6.87781147,63.004327 7.56660417,63.6931197 8.41627301,63.6931197 C8.71482924,63.6931197 9.00693519,63.6062496 9.25697263,63.4431022 L17.2282128,58.2419306 C17.9398008,57.777625 18.1402628,56.8243749 17.6759572,56.1127869 C17.55937,55.934107 17.4068927,55.7816297 17.2282128,55.6650425 L9.25697263,50.4638709 C8.54538464,49.9995653 7.59213455,50.2000273 7.12782897,50.9116153 C6.9646815,51.1616527 6.87781147,51.4537587 6.87781147,51.7523149 Z" id="Path-6-Copy" transform="translate(12.401982, 56.953398) rotate(-116.000000) translate(-12.401982, -56.953398) "></path>
        </g>
        <path d="M51,7.5 C49.0670034,7.5 47.5,5.93299662 47.5,4 C47.5,2.06700338 49.0670034,0.5 51,0.5 L92.1981209,0.5 C94.1311175,0.5 95.6981209,2.06700338 95.6981209,4 C95.6981209,5.93299662 94.1311175,7.5 92.1981209,7.5 L51,7.5 Z" id="Line" fill="#0B82C5" fill-rule="nonzero"></path>
        <path d="M51,19.5 C49.0670034,19.5 47.5,17.9329966 47.5,16 C47.5,14.0670034 49.0670034,12.5 51,12.5 L92.1981209,12.5 C94.1311175,12.5 95.6981209,14.0670034 95.6981209,16 C95.6981209,17.9329966 94.1311175,19.5 92.1981209,19.5 L51,19.5 Z" id="Line-Copy" fill="#0B82C5" fill-rule="nonzero"></path>
        <path d="M70.448214,31.5 C68.5152174,31.5 66.948214,29.9329966 66.948214,28 C66.948214,26.0670034 68.5152174,24.5 70.448214,24.5 L92.1981209,24.5 C94.1311175,24.5 95.6981209,26.0670034 95.6981209,28 C95.6981209,29.9329966 94.1311175,31.5 92.1981209,31.5 L70.448214,31.5 Z" id="Line-Copy-2" fill="#0B82C5" fill-rule="nonzero"></path>
        <path d="M52.4384049,68.4891872 C53.8250872,69.8358822 53.8575034,72.0517224 52.5108086,73.4384048 C51.1641137,74.8250872 48.9482737,74.8575035 47.5615913,73.5108085 L36.5615928,62.8280138 C35.8829478,62.1689386 35.5,61.2632153 35.5,60.3172031 L35.5,39.9999998 C35.5,38.0670033 37.0670032,36.5 38.9999995,36.5 C40.9329959,36.5 42.4999991,38.0670033 42.4999991,39.9999998 L42.4999991,58.8373724 L52.4384049,68.4891872 Z" id="Path-4" fill="#0B82C5" fill-rule="nonzero"></path>
    </g>
</svg>