<?xml version="1.0" encoding="UTF-8"?>
<svg width="96px" height="96px" viewBox="0 0 96 96" version="1.1" xmlns="http://www.w3.org/2000/svg" xmlns:xlink="http://www.w3.org/1999/xlink">
    <!-- Generator: Sketch 49.3 (51167) - http://www.bohemiancoding.com/sketch -->
    <title>iKnowledge FAQ</title>
    <desc>Created with Sketch.</desc>
    <defs></defs>
    <g id="iKnowledge-FAQ" stroke="none" stroke-width="1" fill="none" fill-rule="evenodd">
        <g transform="translate(3.000000, 3.000000)" fill="#0B82C5" fill-rule="nonzero">
            <path d="M45,93 C18.490332,93 -3,71.509668 -3,45 C-3,18.490332 18.490332,-3 45,-3 C71.509668,-3 93,18.490332 93,45 C93,71.509668 71.509668,93 45,93 Z M45,86 C67.6436747,86 86,67.6436747 86,45 C86,22.3563253 67.6436747,4 45,4 C22.3563253,4 4,22.3563253 4,45 C4,67.6436747 22.3563253,86 45,86 Z" id="Oval"></path>
            <path d="M48.4978644,58.1222486 C48.4303483,60.0540658 46.8095685,61.5653804 44.8777514,61.4978644 C42.9459342,61.4303483 41.4346196,59.8095685 41.5021356,57.8777514 C41.725748,51.4795972 44.2954115,48.1155863 50.3883117,43.5224983 C50.4938386,43.4429477 50.6682597,43.3116587 50.9430642,43.1047465 C55.2817992,39.8352671 56.5,38.2406624 56.5,35.0438529 C56.5,28.6660755 51.3489837,23.5 45,23.5 C38.6510163,23.5 33.5,28.6660754 33.5,35.0438529 C33.5,36.9768495 31.9329966,38.5438529 30,38.5438529 C28.0670034,38.5438529 26.5,36.9768495 26.5,35.0438529 C26.5,24.8046493 34.7804412,16.5 45,16.5 C55.2195588,16.5 63.5,24.8046493 63.5,35.0438529 C63.5,41.0741764 61.0997331,44.216086 55.155776,48.6951901 C54.8767879,48.9052532 54.705034,49.0345345 54.6020457,49.1121715 C50.0422279,52.5495565 48.6279179,54.4010652 48.4978644,58.1222486 Z" id="Oval-2"></path>
            <circle id="Oval-3" cx="45" cy="72" r="4"></circle>
        </g>
    </g>
</svg>