<?xml version="1.0" encoding="UTF-8"?>
<svg width="96px" height="96px" viewBox="0 0 96 96" version="1.1" xmlns="http://www.w3.org/2000/svg" xmlns:xlink="http://www.w3.org/1999/xlink">
    <!-- Generator: Sketch 49.3 (51167) - http://www.bohemiancoding.com/sketch -->
    <title>iKnowledge interaction notes</title>
    <desc>Created with Sketch.</desc>
    <defs></defs>
    <g id="iKnowledge-interaction-notes" stroke="none" stroke-width="1" fill="none" fill-rule="evenodd">
        <g transform="translate(0.000000, 5.000000)" fill="#0B82C5" fill-rule="nonzero">
            <g id="Rectangle-4-Copy-2">
                <path d="M91.0515464,17 L74.8206186,17 L75.1175258,15.5 C75.5134021,13.5 74.2268041,11.6 72.2474227,11.2 L15.4391753,0.1 C14.4494845,-0.1 13.4597938,0.1 12.6680412,0.7 C11.8762887,1.2 11.2824742,2 11.0845361,3 L0.0989690722,60.4 C-0.296907216,62.4 0.989690722,64.4 2.96907216,64.7 L29.6907216,70 L29.6907216,79 C29.6907216,81.2 31.4721649,83 33.6494845,83 L91.0515464,83 C93.228866,83 95.0103093,81.2 95.0103093,79 L95.0103093,21 C95.0103093,18.8 93.228866,17 91.0515464,17 Z M7.52164948,58.5 L17.3195876,7.6 L65.3195876,17 L33.6494845,17 C31.4721649,17 29.6907216,18.8 29.6907216,21 L29.6907216,62.8 L7.52164948,58.5 Z M88.0824742,75.5 C88.0824742,75.8 87.8845361,76 87.5876289,76 L37.1134021,76 C36.8164948,76 36.6185567,75.8 36.6185567,75.5 L36.6185567,24.5 C36.6185567,24.2 36.8164948,24 37.1134021,24 L87.5876289,24 C87.8845361,24 88.0824742,24.2 88.0824742,24.5 L88.0824742,75.5 Z" id="Shape"></path>
            </g>
            <g id="Line-Copy-4" transform="translate(41.567010, 32.000000)">
                <path d="M42.6556701,3.5 C42.6556701,5.4 41.0721649,7 39.1917526,7 L4.35463918,7 C2.4742268,7 0.890721649,5.4 0.890721649,3.5 C0.890721649,1.6 2.4742268,0 4.35463918,0 L39.0927835,0 C41.0721649,0 42.6556701,1.6 42.6556701,3.5 Z" id="Shape"></path>
            </g>
            <g id="Line-Copy-5" transform="translate(41.567010, 56.000000)">
                <path d="M26.9195876,3.5 C26.9195876,5.1 25.9298969,6.4 24.4453608,6.8 C24.1484536,7 23.7525773,7 23.4556701,7 L4.35463918,7 C2.4742268,7 0.890721649,5.4 0.890721649,3.5 C0.890721649,1.6 2.4742268,0 4.35463918,0 L23.356701,0 C24.1484536,0 24.9402062,0.3 25.5340206,0.8 C26.4247423,1.4 26.9195876,2.4 26.9195876,3.5 Z" id="Shape"></path>
            </g>
            <g id="Line-Copy-6" transform="translate(41.567010, 44.000000)">
                <path d="M42.6556701,3.5 C42.6556701,5.4 41.0721649,7 39.1917526,7 L4.35463918,7 C2.4742268,7 0.890721649,5.4 0.890721649,3.5 C0.890721649,1.6 2.4742268,0 4.35463918,0 L39.1917526,0 C41.0721649,0 42.6556701,1.6 42.6556701,3.5 Z" id="Shape"></path>
            </g>
        </g>
    </g>
</svg>