<?xml version="1.0" encoding="UTF-8"?>
<svg width="96px" height="96px" viewBox="0 0 96 96" version="1.1" xmlns="http://www.w3.org/2000/svg" xmlns:xlink="http://www.w3.org/1999/xlink">
    <!-- Generator: Sketch 49.3 (51167) - http://www.bohemiancoding.com/sketch -->
    <title>iLive Chat Bot</title>
    <desc>Created with Sketch.</desc>
    <defs></defs>
    <g id="iLive-Chat-Bot" stroke="none" stroke-width="1" fill="none" fill-rule="evenodd">
        <g fill="#0B82C5" id="Fill-5">
            <path d="M29,57 C26.791,57 25,55.209 25,53 C25,50.791 26.791,49 29,49 C31.209,49 33,50.791 33,53 C33,55.209 31.209,57 29,57 Z M67,69 C69.209,69 71,70.791 71,73 C71,75.209 69.209,77 67,77 L29,77 C26.791,77 25,75.209 25,73 C25,70.791 26.791,69 29,69 L67,69 Z M67,49 C69.209,49 71,50.791 71,53 C71,55.209 69.209,57 67,57 C64.791,57 63,55.209 63,53 C63,50.791 64.791,49 67,49 Z M89,88 C89,88.55 88.55,89 88,89 L8,89 C7.45,89 7,88.55 7,88 L7,32 C7,31.45 7.45,31 8,31 L88,31 C88.55,31 89,31.45 89,32 L89,88 Z M88,24 L86,24 L86,10.46 C87.22,9.36 88,7.77 88,6 C88,2.69 85.31,0 82,0 C78.69,0 76,2.69 76,6 C76,7.77 76.78,9.36 78,10.46 L78,24 L18,24 L18,10.46 C19.22,9.36 20,7.77 20,6 C20,2.69 17.31,0 14,0 C10.69,0 8,2.69 8,6 C8,7.77 8.78,9.36 10,10.46 L10,24 L8,24 C3.58,24 0,27.58 0,32 L0,88 C0,92.42 3.58,96 8,96 L88,96 C92.42,96 96,92.42 96,88 L96,32 C96,27.58 92.42,24 88,24 Z"></path>
        </g>
    </g>
</svg>