<?xml version="1.0" encoding="UTF-8"?>
<svg width="96px" height="96px" viewBox="0 0 96 96" version="1.1" xmlns="http://www.w3.org/2000/svg" xmlns:xlink="http://www.w3.org/1999/xlink">
    <!-- Generator: Sketch 49.3 (51167) - http://www.bohemiancoding.com/sketch -->
    <title>iLive site</title>
    <desc>Created with Sketch.</desc>
    <defs></defs>
    <g id="iLive-site" stroke="none" stroke-width="1" fill="none" fill-rule="evenodd">
        <g transform="translate(0.000000, 1.000000)" fill="#0B82C5" id="Page-1">
            <path d="M89,61.5 C89,64.81 86.31,67.5 83,67.5 C79.69,67.5 77,64.81 77,61.5 L77,46.5 C77,43.19 79.69,40.5 83,40.5 C86.31,40.5 89,43.19 89,46.5 L89,61.5 Z M53,87.5 C51.9,87.5 51,86.6 51,85.5 C51,84.4 51.9,83.5 53,83.5 C54.1,83.5 55,84.4 55,85.5 C55,86.6 54.1,87.5 53,87.5 Z M19,46.5 L19,61.5 C19,64.81 16.31,67.5 13,67.5 C9.69,67.5 7,64.81 7,61.5 L7,46.5 C7,43.19 9.69,40.5 13,40.5 C16.31,40.5 19,43.19 19,46.5 Z M86.4,33.96 C85.06,14.97 68.81,0 49,0 C29.32,0 13.16,14.77 11.63,33.57 C5.09,34.26 0,39.78 0,46.5 L0,61.5 C0,68.68 5.82,74.5 13,74.5 C20.18,74.5 26,68.68 26,61.5 L26,46.5 C26,41.31 22.95,36.85 18.56,34.76 C19.49,19.3 32.74,7 49,7 C65,7 78.08,18.91 79.38,34.02 C73.97,35.59 70,40.58 70,46.5 L70,61.5 C70,66.28 72.58,70.44 76.42,72.7 C72.92,78.31 68.14,81.27 61.33,82.1 C59.99,78.82 56.77,76.5 53,76.5 C48.03,76.5 44,80.53 44,85.5 C44,90.47 48.03,94.5 53,94.5 C56.67,94.5 59.82,92.3 61.22,89.15 C71.39,88.15 78.63,83.41 83.47,74.48 C90.43,74.23 96,68.52 96,61.5 L96,46.5 C96,40.5 91.93,35.46 86.4,33.96 Z"></path>
        </g>
    </g>
</svg>