<?xml version="1.0" encoding="UTF-8"?>
<svg width="96px" height="96px" viewBox="0 0 96 96" version="1.1" xmlns="http://www.w3.org/2000/svg" xmlns:xlink="http://www.w3.org/1999/xlink">
    <!-- Generator: Sketch 49.3 (51167) - http://www.bohemiancoding.com/sketch -->
    <title>improved reporting copy</title>
    <desc>Created with Sketch.</desc>
    <defs></defs>
    <g id="improved-reporting-copy" stroke="none" stroke-width="1" fill="none" fill-rule="evenodd">
        <g fill="#1182C5">
            <path d="M56.2197,18.2541526 L18.9067,18.2541526 C16.9737,18.2541526 15.4067,19.8049979 15.4067,21.7180701 C15.4067,23.6311423 16.9737,25.1819876 18.9067,25.1819876 L56.2197,25.1819876 C58.1527,25.1819876 59.7197,23.6311423 59.7197,21.7180701 C59.7197,19.8049979 58.1527,18.2541526 56.2197,18.2541526" id="Fill-1"></path>
            <path d="M56.2197,41.0170392 L18.9067,41.0170392 C16.9737,41.0170392 15.4067,42.5678845 15.4067,44.4809567 C15.4067,46.3940289 16.9737,47.9448742 18.9067,47.9448742 L56.2197,47.9448742 C58.1527,47.9448742 59.7197,46.3940289 59.7197,44.4809567 C59.7197,42.5678845 58.1527,41.0170392 56.2197,41.0170392" id="Fill-3"></path>
            <path d="M34.6143,51.9036371 L18.9063,51.9036371 C16.9733,51.9036371 15.4063,53.4544825 15.4063,55.3675546 C15.4063,57.2806268 16.9733,58.8314722 18.9063,58.8314722 L34.6143,58.8314722 C36.5473,58.8314722 38.1143,57.2806268 38.1143,55.3675546 C38.1143,53.4544825 36.5473,51.9036371 34.6143,51.9036371" id="Fill-5"></path>
            <path d="M56.2197,29.1407505 L18.9067,29.1407505 C16.9737,29.1407505 15.4067,30.6915959 15.4067,32.604668 C15.4067,34.5177402 16.9737,36.0685856 18.9067,36.0685856 L56.2197,36.0685856 C58.1527,36.0685856 59.7197,34.5177402 59.7197,32.604668 C59.7197,30.6915959 58.1527,29.1407505 56.2197,29.1407505" id="Fill-7"></path>
            <path d="M79.7744,65.0991835 L71.5304,74.8901938 L66.3434,70.8106887 C64.8314,69.6200907 62.6294,69.8685031 61.4254,71.3668948 C60.2234,72.8652866 60.4754,75.0435959 61.9884,76.2341938 L69.8514,82.4187711 C70.4954,82.9245031 71.2634,83.1709361 72.0274,83.1709361 C73.0314,83.1709361 74.0264,82.7453691 74.7174,81.9249155 L85.1514,69.5349773 C86.3884,68.0652866 86.1884,65.8810392 84.7044,64.6567918 C83.2184,63.4305649 81.0114,63.6314722 79.7744,65.0991835" id="Fill-9"></path>
            <path d="M72.4814,88.5221938 C63.6594,88.5221938 56.4814,81.4181938 56.4814,72.6871423 C56.4814,63.9560907 63.6594,56.8520907 72.4814,56.8520907 C81.3034,56.8520907 88.4814,63.9560907 88.4814,72.6871423 C88.4814,81.4181938 81.3034,88.5221938 72.4814,88.5221938 M49.4814,72.6871423 C49.4814,74.2429361 49.6404,75.763101 49.9424,77.2327918 L7.3514,77.2327918 C7.1574,77.2327918 7.0004,77.0764206 7.0004,76.8844206 L7.0004,8.26520412 C7.0004,8.07419381 7.1574,7.91782268 7.3514,7.91782268 L67.0554,7.91782268 C67.2504,7.91782268 67.4074,8.07419381 67.4074,8.26520412 L67.4074,50.4893691 C57.1594,52.7824825 49.4814,61.8609155 49.4814,72.6871423 M74.4074,50.0103588 L74.4074,8.26520412 C74.4074,4.25398763 71.1094,0.989987629 67.0554,0.989987629 L7.3514,0.989987629 C3.2974,0.989987629 0.0004,4.25398763 0.0004,8.26520412 L0.0004,76.8844206 C0.0004,80.8966268 3.2974,84.1606268 7.3514,84.1606268 L52.6284,84.1606268 C56.6244,90.9073485 64.0244,95.4500289 72.4814,95.4500289 C85.1644,95.4500289 95.4814,85.2393897 95.4814,72.6871423 C95.4814,60.7772041 86.1914,50.9822351 74.4074,50.0103588" id="Fill-11"></path>
        </g>
    </g>
</svg>