<?xml version="1.0" encoding="UTF-8"?>
<svg width="96px" height="96px" viewBox="0 0 96 96" version="1.1" xmlns="http://www.w3.org/2000/svg" xmlns:xlink="http://www.w3.org/1999/xlink">
    <!-- Generator: Sketch 49.3 (51167) - http://www.bohemiancoding.com/sketch -->
    <title>inbound call tracking</title>
    <desc>Created with Sketch.</desc>
    <defs></defs>
    <g id="inbound-call-tracking" stroke="none" stroke-width="1" fill="none" fill-rule="evenodd">
        <g fill="#0B82C5" fill-rule="nonzero">
            <path d="M92,88.5 C93.9329966,88.5 95.5,90.0670034 95.5,92 C95.5,93.9329966 93.9329966,95.5 92,95.5 L8,95.5 C3.85786438,95.5 0.5,92.1421356 0.5,88 L0.5,4 C0.5,2.06700338 2.06700338,0.5 4,0.5 C5.93299662,0.5 7.5,2.06700338 7.5,4 L7.5,88 C7.5,88.2761424 7.72385762,88.5 8,88.5 L92,88.5 Z" id="Path-8"></path>
            <path d="M23.5,26 C22.1192881,26 21,27.1192881 21,28.5 L21,72.5 C21,73.8807119 22.1192881,75 23.5,75 C24.8807119,75 26,73.8807119 26,72.5 L26,28.5 C26,27.1192881 24.8807119,26 23.5,26 Z M23.5,19 C28.7467051,19 33,23.2532949 33,28.5 L33,72.5 C33,77.7467051 28.7467051,82 23.5,82 C18.2532949,82 14,77.7467051 14,72.5 L14,28.5 C14,23.2532949 18.2532949,19 23.5,19 Z" id="Rectangle-2-Copy-3"></path>
            <path d="M49.5,63 C48.1192881,63 47,64.1192881 47,65.5 L47,72.5 C47,73.8807119 48.1192881,75 49.5,75 C50.8807119,75 52,73.8807119 52,72.5 L52,65.5 C52,64.1192881 50.8807119,63 49.5,63 Z M49.5,56 C54.7467051,56 59,60.2532949 59,65.5 L59,72.5 C59,77.7467051 54.7467051,82 49.5,82 C44.2532949,82 40,77.7467051 40,72.5 L40,65.5 C40,60.2532949 44.2532949,56 49.5,56 Z" id="Rectangle-2-Copy-4"></path>
            <path d="M75.5,41 C74.1192881,41 73,42.1192881 73,43.5 L73,72.5 C73,73.8807119 74.1192881,75 75.5,75 C76.8807119,75 78,73.8807119 78,72.5 L78,43.5 C78,42.1192881 76.8807119,41 75.5,41 Z M75.5,34 C80.7467051,34 85,38.2532949 85,43.5 L85,72.5 C85,77.7467051 80.7467051,82 75.5,82 C70.2532949,82 66,77.7467051 66,72.5 L66,43.5 C66,38.2532949 70.2532949,34 75.5,34 Z" id="Rectangle-2-Copy-5"></path>
        </g>
    </g>
</svg>