<?xml version="1.0" encoding="UTF-8"?>
<svg width="96px" height="96px" viewBox="0 0 96 96" version="1.1" xmlns="http://www.w3.org/2000/svg" xmlns:xlink="http://www.w3.org/1999/xlink">
    <!-- Generator: Sketch 49.3 (51167) - http://www.bohemiancoding.com/sketch -->
    <title>increase customer satisfaction</title>
    <desc>Created with Sketch.</desc>
    <defs></defs>
    <g id="increase-customer-satisfaction" stroke="none" stroke-width="1" fill="none" fill-rule="evenodd">
        <g id="iProfile-Subscriber" fill="#0B82C5" fill-rule="nonzero">
            <path d="M63.6684602,53.9075553 C65.3676888,54.8290204 65.9981907,56.9535124 65.0767256,58.6527411 C64.1552605,60.3519697 62.0307685,60.9824716 60.3315398,60.0610065 C56.4486366,57.9553689 52.2277216,56.5663333 47.8283136,55.9710222 C46.2005815,55.7507638 44.5516535,55.6395349 42.8882246,55.6395349 C26.8294816,55.6395349 12.7030749,66.127998 7.53822345,81.472583 C6.92158738,83.3045863 4.93657301,84.289836 3.10456976,83.6732 C1.27256651,83.0565639 0.287316739,81.0715495 0.903952807,79.2395463 C7.0138602,61.0872344 23.7790684,48.6395349 42.8882246,48.6395349 C44.865846,48.6395349 46.8283654,48.7719171 48.7669722,49.034242 C54.0119301,49.7439696 59.0447526,51.400191 63.6684602,53.9075553 Z" id="Oval-2"></path>
            <path d="M39.3684211,46.2209302 C26.6849594,46.2209302 16.3947368,35.9905346 16.3947368,23.3604651 C16.3947368,10.7303957 26.6849594,0.5 39.3684211,0.5 C52.0518827,0.5 62.3421053,10.7303957 62.3421053,23.3604651 C62.3421053,35.9905346 52.0518827,46.2209302 39.3684211,46.2209302 Z M39.3684211,39.2209302 C48.194997,39.2209302 55.3421053,32.1153749 55.3421053,23.3604651 C55.3421053,14.6055553 48.194997,7.5 39.3684211,7.5 C30.5418451,7.5 23.3947368,14.6055553 23.3947368,23.3604651 C23.3947368,32.1153749 30.5418451,39.2209302 39.3684211,39.2209302 Z" id="Oval-4"></path>
        </g>
        <path d="M79.4904009,12.3588415 L75.4748737,16.3743687 C74.1080387,17.7412037 71.8919613,17.7412037 70.5251263,16.3743687 C69.1582912,15.0075336 69.1582912,12.7914562 70.5251263,11.4246212 L80.4246212,1.52512627 C81.7914562,0.158291245 84.0075336,0.158291245 85.3743687,1.52512627 L95.2738636,11.4246212 C96.6406986,12.7914562 96.6406986,15.0075336 95.2738636,16.3743687 C93.9070286,17.7412037 91.6909512,17.7412037 90.3241161,16.3743687 L86.4890362,12.5392888 C85.9989113,69.706834 58.0863241,97.9602793 3.86771665,95.9096086 C1.93610114,95.8365506 0.429442655,94.2114415 0.502500734,92.279826 C0.575558814,90.3482105 2.20066785,88.841552 4.13228335,88.9146101 C54.332801,90.8133075 79.0794828,65.7587333 79.4904009,12.3588415 Z" id="Combined-Shape" fill="#0B82C5" fill-rule="nonzero"></path>
        <path d="M30.322198,30.85337 C29.29861,29.9267455 29.2200055,28.3457859 30.14663,27.322198 C31.0732545,26.29861 32.6542141,26.2200055 33.677802,27.14663 C38.2332174,31.2705152 42.2902063,31.2705152 46.8456216,27.14663 C47.8692096,26.2200055 49.4501692,26.29861 50.3767937,27.322198 C51.3034181,28.3457859 51.2248137,29.9267455 50.2012257,30.85337 C43.7410252,36.7016019 36.7823984,36.7016019 30.322198,30.85337 Z" id="Path-3" fill="#0B82C5" fill-rule="nonzero"></path>
    </g>
</svg>