<?xml version="1.0" encoding="UTF-8"?>
<svg width="96px" height="96px" viewBox="0 0 96 96" version="1.1" xmlns="http://www.w3.org/2000/svg" xmlns:xlink="http://www.w3.org/1999/xlink">
    <!-- Generator: Sketch 49.3 (51167) - http://www.bohemiancoding.com/sketch -->
    <title>iProfile Customer</title>
    <desc>Created with Sketch.</desc>
    <defs></defs>
    <g id="iProfile-Customer" stroke="none" stroke-width="1" fill="none" fill-rule="evenodd">
        <g transform="translate(5.000000, 1.000000)" fill="#0B82C5">
            <path d="M63,68.675 C63,70.575 64.6,72.175 66.5,72.175 C68.4,72.175 70,70.575 70,68.675 L70,68.575 C70,66.675 68.4,65.075 66.5,65.075 C64.6,65.075 63,66.775 63,68.675" id="Fill-19"></path>
            <path d="M70,84.5149 L70,76.5749 C70,74.6749 68.4,73.0749 66.5,73.0749 C64.6,73.0749 63,74.6749 63,76.5749 L63,84.5149 C58.39,83.0149 55,78.6549 55,73.5749 C55,71.4549 55.59,69.4549 56.62,67.7349 C56.69,67.6049 56.78,67.4749 56.86,67.3449 C57.79,65.9249 59.02,64.7249 60.46,63.8149 C61.01,63.4649 61.58,63.1749 62.19,62.9249 C62.34,62.8649 62.5,62.8049 62.66,62.7449 C62.82,62.6849 62.98,62.6349 63.14,62.5849 C63.29,62.5349 63.45,62.4949 63.6,62.4549 C63.63,62.4449 63.67,62.4349 63.71,62.4249 C64.01,62.3449 64.32,62.2849 64.63,62.2349 C64.66,62.2249 64.69,62.2249 64.72,62.2149 C64.65,62.2149 64.58,62.2249 64.51,62.2449 C64.66,62.2049 64.81,62.1849 64.96,62.1749 L64.97,62.1749 C65.08,62.1549 65.18,62.1449 65.29,62.1349 C65.35,62.1249 65.42,62.1249 65.48,62.1149 C65.59,62.1049 65.7,62.0949 65.81,62.0949 C66.01,62.0749 66.2,62.0749 66.4,62.0749 L66.5,62.0749 C66.8,62.0749 67.09,62.0849 67.39,62.1149 C67.54,62.1249 67.7,62.1449 67.86,62.1649 C68.01,62.1749 68.17,62.2049 68.32,62.2349 C68.33,62.2249 68.34,62.2349 68.35,62.2349 C68.58,62.2749 68.81,62.3149 69.04,62.3749 C69.06,62.3749 69.07,62.3849 69.09,62.3849 C69.1,62.3849 69.12,62.3949 69.13,62.3949 C69.23,62.4149 69.32,62.4449 69.42,62.4749 C69.47,62.4849 69.51,62.4949 69.55,62.5049 C69.74,62.5549 69.93,62.6149 70.11,62.6749 C70.19,62.6949 70.26,62.7249 70.33,62.7549 C70.63,62.8649 70.93,62.9849 71.22,63.1149 C71.32,63.1549 71.41,63.2049 71.5,63.2549 C71.79,63.3949 72.06,63.5349 72.33,63.6949 C72.4,63.7349 72.46,63.7749 72.53,63.8249 C73.68,64.5349 74.69,65.4449 75.53,66.5049 C77.07,68.4649 78,70.9149 78,73.5749 C78,78.6549 74.61,83.0149 70,84.5149 Z M48,73.5749 C48,74.2349 48.04,74.8849 48.1,75.5249 C48.14,75.9049 48.21,76.2749 48.28,76.6549 C48.32,76.8949 48.35,77.1349 48.4,77.3749 C48.49,77.8349 48.62,78.2949 48.75,78.7349 C48.79,78.8749 48.82,79.0149 48.86,79.1449 C49.03,79.6649 49.21,80.1749 49.42,80.6649 C49.44,80.7149 49.45,80.7549 49.47,80.8049 C49.55,80.9949 49.61,81.1849 49.7,81.3749 L42,87.1749 L23.04,72.7649 C23.46,62.3449 31.76,54.0749 41.9,54.0749 C46.64,54.0749 51.21,56.0049 54.7,59.3449 C50.61,62.7349 48,67.8549 48,73.5749 Z M7,60.5749 L7,12.8749 L41.4,7.0749 L77,12.9749 L77,58.3749 C76.77,58.2149 76.53,58.0649 76.29,57.9049 L76.28,57.9049 C76.14,57.8249 76.01,57.7349 75.87,57.6549 C75.74,57.5849 75.6,57.5049 75.46,57.4349 C75.27,57.3249 75.09,57.2249 74.9,57.1349 C74.61,56.9849 74.31,56.8349 74.02,56.7049 C73.67,56.5549 73.31,56.4049 72.95,56.2749 C72.73,56.1849 72.51,56.1049 72.29,56.0249 C72.07,55.9449 71.84,55.8849 71.62,55.8149 C71.35,55.7349 71.08,55.6649 70.8,55.5949 C70.74,55.5849 70.69,55.5649 70.63,55.5549 C70.32,55.4849 69.99,55.4249 69.67,55.3649 C69.4,55.3149 69.12,55.2749 68.85,55.2449 C68.62,55.2149 68.38,55.1849 68.15,55.1549 C67.61,55.1149 67.06,55.0749 66.5,55.0749 C64.6,55.0749 62.76,55.3649 61.03,55.9049 C56.14,50.2449 49.17,47.0749 41.8,47.0749 C29.5,47.0749 19.16,56.0049 16.61,67.8749 L7,60.5749 Z M82.78,64.8049 C83.49,64.1249 83.9,63.2449 83.9,62.2749 L83.9,9.9749 C83.9,8.1749 82.7,6.7749 81,6.4749 L41.8,0.0749 C41.5,-0.0251 41.1,-0.0251 40.7,0.0749 L2.9,6.4749 C1.2,6.7749 0,8.2749 0,9.9749 L0,62.2749 C0,63.3749 0.5,64.3749 1.4,65.0749 L39.9,94.3749 C40.5,94.8749 41.3,95.0749 42,95.0749 C42.7,95.0749 43.5,94.8749 44,94.3749 L53.78,86.9749 C57.1,90.1249 61.57,92.0749 66.5,92.0749 C76.7,92.0749 85,83.7749 85,73.5749 C85,70.4049 84.2,67.4149 82.78,64.8049 Z" id="Fill-23"></path>
            <path d="M42,23.075 C45.9,23.075 49,26.175 49,30.075 C49,33.975 45.9,37.075 42,37.075 C38.1,37.075 35,33.975 35,30.075 C35,26.175 38.1,23.075 42,23.075 M56,30.075 C56,22.375 49.7,16.075 42,16.075 C34.3,16.075 28,22.375 28,30.075 C28,37.775 34.3,44.075 42,44.075 C49.7,44.075 56,37.775 56,30.075" id="Fill-26"></path>
        </g>
    </g>
</svg>