<?xml version="1.0" encoding="UTF-8"?>
<svg width="96px" height="96px" viewBox="0 0 96 96" version="1.1" xmlns="http://www.w3.org/2000/svg" xmlns:xlink="http://www.w3.org/1999/xlink">
    <!-- Generator: Sketch 49.3 (51167) - http://www.bohemiancoding.com/sketch -->
    <title>iProfile Subscriber</title>
    <desc>Created with Sketch.</desc>
    <defs>
        <polygon id="path-1" points="0.3364 0.007 45.4604 0.007 45.4604 44.7228 0.3364 44.7228"></polygon>
        <polygon id="path-3" points="0.0004 0.958 87.484 0.958 87.484 48 0.0004 48"></polygon>
    </defs>
    <g id="iProfile-Subscriber" stroke="none" stroke-width="1" fill="none" fill-rule="evenodd">
        <g transform="translate(4.000000, 0.000000)" id="Page-1">
            <g>
                <g id="Group-3" transform="translate(19.000000, 0.993200)">
                    <mask id="mask-2" fill="white">
                        <use xlink:href="#path-1"></use>
                    </mask>
                    <g id="Clip-2"></g>
                    <path d="M22.8984,7.0068 C31.4794,7.0068 38.4614,13.8968 38.4614,22.3638 C38.4614,30.8328 31.4794,37.7228 22.8984,37.7228 C14.3174,37.7228 7.3364,30.8328 7.3364,22.3638 C7.3364,13.8968 14.3174,7.0068 22.8984,7.0068 M22.8984,44.7228 C35.3394,44.7228 45.4604,34.6928 45.4604,22.3638 C45.4604,10.0358 35.3394,0.0068 22.8984,0.0068 C10.4584,0.0068 0.3364,10.0358 0.3364,22.3638 C0.3364,34.6928 10.4584,44.7228 22.8984,44.7228" id="Fill-1" fill="#0B82C5" mask="url(#mask-2)"></path>
                </g>
                <g id="Group-6" transform="translate(0.000000, 47.993200)">
                    <mask id="mask-4" fill="white">
                        <use xlink:href="#path-3"></use>
                    </mask>
                    <g id="Clip-5"></g>
                    <path d="M80.4844,34.5 C80.4844,38.084 77.5684,41 73.9844,41 L58.9844,41 C55.4004,41 52.4844,38.084 52.4844,34.5 L52.4844,19.5 C52.4844,15.916 55.4004,13 58.9844,13 L73.9844,13 C77.5684,13 80.4844,15.916 80.4844,19.5 L80.4844,34.5 Z M73.9844,6 L62.0654,6 C62.0074,5.965 61.9594,5.921 61.8994,5.889 C57.4764,3.524 52.7164,1.989 47.7534,1.328 C45.9164,1.082 44.0394,0.958 42.1724,0.958 C18.9194,0.958 0.0004,20.038 0.0004,43.491 C0.0004,45.424 1.5674,46.991 3.5004,46.991 C5.4324,46.991 7.0004,45.424 7.0004,43.491 C7.0004,23.898 22.7784,7.958 42.1724,7.958 C43.7304,7.958 45.2964,8.062 46.8264,8.267 C48.0834,8.434 49.3234,8.677 50.5464,8.979 C47.4644,11.455 45.4844,15.248 45.4844,19.5 L45.4844,34.5 C45.4844,41.944 51.5404,48 58.9844,48 L73.9844,48 C81.4284,48 87.4844,41.944 87.4844,34.5 L87.4844,19.5 C87.4844,12.056 81.4284,6 73.9844,6 Z" id="Fill-4" fill="#0B82C5" mask="url(#mask-4)"></path>
                </g>
                <path d="M72.291,68.2588 L65.359,76.6138 L61.169,73.2678 C59.658,72.0608 57.456,72.3058 56.25,73.8178 C55.043,75.3278 55.29,77.5298 56.8,78.7368 L63.675,84.2278 C64.319,84.7428 65.091,84.9928 65.857,84.9928 C66.863,84.9928 67.861,84.5618 68.553,83.7278 L77.678,72.7278 C78.912,71.2398 78.707,69.0328 77.219,67.7998 C75.73,66.5648 73.522,66.7708 72.291,68.2588" id="Fill-7" fill="#0B82C5"></path>
            </g>
        </g>
    </g>
</svg>