<?xml version="1.0" encoding="UTF-8"?>
<svg width="96px" height="96px" viewBox="0 0 96 96" version="1.1" xmlns="http://www.w3.org/2000/svg" xmlns:xlink="http://www.w3.org/1999/xlink">
    <!-- Generator: Sketch 49.3 (51167) - http://www.bohemiancoding.com/sketch -->
    <title>iProfile</title>
    <desc>Created with Sketch.</desc>
    <defs>
        <polygon id="path-1" points="0.0001 0.0001 96 0.0001 96 96 0.0001 96"></polygon>
    </defs>
    <g id="iProfile" stroke="none" stroke-width="1" fill="none" fill-rule="evenodd">
        <g id="Page-1">
            <g>
                <g id="Group-3">
                    <mask id="mask-2" fill="white">
                        <use xlink:href="#path-1"></use>
                    </mask>
                    <g id="Clip-2"></g>
                    <path d="M23.2341,80.6471 C28.4091,71.3711 38.2521,65.5001 49.0001,65.5001 C59.2661,65.5001 68.8001,70.9391 74.1261,79.5731 C67.0271,85.4571 57.9201,89.0001 48.0001,89.0001 C38.7011,89.0001 30.1201,85.8831 23.2341,80.6471 M7.0001,48.0001 C7.0001,25.3921 25.3931,7.0001 48.0001,7.0001 C70.6071,7.0001 89.0001,25.3921 89.0001,48.0001 C89.0001,58.1171 85.3091,67.3831 79.2131,74.5411 C72.4851,64.6541 61.1521,58.5001 49.0001,58.5001 C36.2491,58.5001 24.5291,65.1791 17.9411,75.8441 C11.1571,68.5261 7.0001,58.7411 7.0001,48.0001 M48.0001,0.0001 C21.5331,0.0001 0.0001,21.5331 0.0001,48.0001 C0.0001,74.4671 21.5331,96.0001 48.0001,96.0001 C74.4671,96.0001 96.0001,74.4671 96.0001,48.0001 C96.0001,21.5331 74.4671,0.0001 48.0001,0.0001" id="Fill-1" fill="#0B82C5" mask="url(#mask-2)"></path>
                </g>
                <path d="M48.5,23 C54.841,23 60,28.159 60,34.5 C60,40.841 54.841,46 48.5,46 C42.159,46 37,40.841 37,34.5 C37,28.159 42.159,23 48.5,23 M48.5,53 C58.701,53 67,44.701 67,34.5 C67,24.299 58.701,16 48.5,16 C38.299,16 30,24.299 30,34.5 C30,44.701 38.299,53 48.5,53" id="Fill-4" fill="#0B82C5"></path>
            </g>
        </g>
    </g>
</svg>