<?xml version="1.0" encoding="UTF-8"?>
<svg width="96px" height="96px" viewBox="0 0 96 96" version="1.1" xmlns="http://www.w3.org/2000/svg" xmlns:xlink="http://www.w3.org/1999/xlink">
    <!-- Generator: Sketch 49.3 (51167) - http://www.bohemiancoding.com/sketch -->
    <title>iQueque manager</title>
    <desc>Created with Sketch.</desc>
    <defs>
        <polygon id="path-1" points="0 0.219 93.1106747 0.219 93.1106747 92.9996 0 92.9996"></polygon>
    </defs>
    <g id="iQueque-manager" stroke="none" stroke-width="1" fill="none" fill-rule="evenodd">
        <g transform="translate(1.000000, 1.000000)" id="Page-1">
            <g>
                <path d="M57.9665,40.3625 L77.9665,40.3625 C79.8995,40.3625 81.4665,38.7955 81.4665,36.8625 C81.4665,34.9295 79.8995,33.3625 77.9665,33.3625 L66.4165,33.3625 L87.9415,11.8375 C89.3085,10.4705 89.3085,8.2545 87.9415,6.8875 C86.5735,5.5215 84.3595,5.5205 82.9915,6.8875 L61.4665,28.4135 L61.4665,16.8625 C61.4665,14.9295 59.8995,13.3625 57.9665,13.3625 C56.0335,13.3625 54.4665,14.9295 54.4665,16.8625 L54.4665,36.8625 C54.4665,38.7955 56.0335,40.3625 57.9665,40.3625" id="Fill-1" fill="#0B82C5"></path>
                <g id="Group-5" transform="translate(0.000000, 0.781400)">
                    <mask id="mask-2" fill="white">
                        <use xlink:href="#path-1"></use>
                    </mask>
                    <g id="Clip-4"></g>
                    <path d="M85.8766,79.6836 C79.8546,86.6546 71.0386,87.8716 58.1366,83.5166 C46.3316,79.5296 35.5666,72.1106 26.1406,61.4656 C20.2896,54.8606 14.9636,46.8996 11.8926,40.1706 C7.3856,30.2986 2.6686,16.1636 13.6876,7.4346 C13.8696,7.2906 14.0886,7.2196 14.3076,7.2196 C14.5636,7.2196 14.8196,7.3176 15.0146,7.5126 L27.8976,20.4016 C28.2716,20.7746 28.2746,21.3856 27.8906,21.7816 C22.2466,27.5866 22.2796,37.0006 27.9626,42.7666 L50.3006,65.4306 C53.0716,68.2426 56.7716,69.8066 60.7196,69.8346 C64.6786,69.8576 68.3896,68.3536 71.2086,65.5736 L71.4436,65.3366 C71.7806,64.9886 72.3366,64.9796 72.6896,65.3236 L85.8226,78.3196 C86.1946,78.6876 86.2186,79.2876 85.8766,79.6836 M90.7466,73.3446 L77.5526,60.2876 C74.4326,57.2656 69.4376,57.3466 66.4256,60.4556 L66.2866,60.5966 C64.8206,62.0416 62.8846,62.8356 60.8276,62.8356 C60.8086,62.8356 60.7886,62.8346 60.7706,62.8346 C58.6916,62.8196 56.7446,61.9966 55.2866,60.5166 L32.9476,37.8526 C29.9166,34.7776 29.8996,29.7566 32.9276,26.6426 C35.9466,23.5376 35.9116,18.5176 32.8496,15.4536 L19.9656,2.5636 C17.0926,-0.3104 12.5236,-0.5754 9.3406,1.9486 C-1.6694,10.6686 -2.9524,24.5066 5.5246,43.0776 C8.9176,50.5116 14.5216,58.9056 20.8996,66.1066 C31.1466,77.6776 42.9206,85.7666 55.8976,90.1476 C61.5306,92.0506 66.6846,92.9996 71.3416,92.9996 C79.5046,92.9996 86.1456,90.0816 91.1746,84.2596 C93.9126,81.0866 93.7256,76.2926 90.7466,73.3446" id="Fill-3" fill="#0B82C5" mask="url(#mask-2)"></path>
                </g>
            </g>
        </g>
    </g>
</svg>