<?xml version="1.0" encoding="UTF-8"?>
<svg width="96px" height="96px" viewBox="0 0 96 96" version="1.1" xmlns="http://www.w3.org/2000/svg" xmlns:xlink="http://www.w3.org/1999/xlink">
    <!-- Generator: Sketch 49.3 (51167) - http://www.bohemiancoding.com/sketch -->
    <title>iShare Alert SMS Event Notification</title>
    <desc>Created with Sketch.</desc>
    <defs>
        <polygon id="path-1" points="0.15 0.18 1.15 0.18 1.15 1 0.15 1"></polygon>
    </defs>
    <g id="iShare-Alert-SMS-Event-Notification" stroke="none" stroke-width="1" fill="none" fill-rule="evenodd">
        <g transform="translate(1.000000, 3.000000)" id="Page-1">
            <g>
                <path d="M33.3,35.27 C33.3,37.98 31.11,40.17 28.41,40.17 C25.7,40.17 23.51,37.98 23.51,35.27 C23.51,32.57 25.7,30.37 28.41,30.37 C31.11,30.37 33.3,32.57 33.3,35.27" id="Fill-1" fill="#1082C5"></path>
                <path d="M51.92,35.27 C51.92,37.98 49.72,40.17 47.02,40.17 C44.32,40.17 42.12,37.98 42.12,35.27 C42.12,32.57 44.32,30.37 47.02,30.37 C49.72,30.37 51.92,32.57 51.92,35.27" id="Fill-3" fill="#1082C5"></path>
                <path d="M70.53,35.27 C70.53,37.98 68.34,40.17 65.63,40.17 C62.93,40.17 60.73,37.98 60.73,35.27 C60.73,32.57 62.93,30.37 65.63,30.37 C68.34,30.37 70.53,32.57 70.53,35.27" id="Fill-5" fill="#1082C5"></path>
                <path d="M94.08,7.84 L94.08,60.54 C94.08,61.66 93.84,62.73 93.42,63.69 C92.3,59.51 90.08,55.79 87.08,52.84 L87.08,7.84 C87.08,7.38 86.71,7.01 86.24,7.01 L7.84,7.01 C7.37,7.01 7,7.38 7,7.84 L7,60.72 C7,61.18 7.37,61.55 7.84,61.55 L18.48,61.55 C22.88,61.55 26.46,65.13 26.46,69.53 L26.46,76.14 L37.63,63.96 C39.15,62.32 41.29,61.38 43.51,61.38 L47.87,61.38 C47.66,61.93 47.47,62.49 47.3,63.06 C47.13,63.63 46.98,64.2 46.86,64.79 C46.6,65.95 46.43,67.15 46.35,68.38 L43.51,68.38 C43.24,68.38 42.98,68.5 42.79,68.7 L26.27,86.71 C24.8,88.31 22.33,88.41 20.73,86.95 C19.92,86.21 19.46,85.16 19.46,84.06 L19.46,69.53 C19.46,68.99 19.02,68.55 18.48,68.55 L7.84,68.55 C3.51,68.55 0,65.04 0,60.72 L0,7.84 C0,3.51 3.51,-1.42108547e-14 7.84,-1.42108547e-14 L86.24,-1.42108547e-14 C90.57,-1.42108547e-14 94.08,3.51 94.08,7.84" id="Fill-7" fill="#1082C5"></path>
                <path d="M75.64,72.47 C75.49,72.66 75.21,72.74 74.85,72.74 C73.4,72.74 70.63,71.43 69.85,70.84 C69.07,70.25 68.81,69.25 69.1,68.38 C69.18,68.16 69.28,67.95 69.43,67.75 C69.86,67.18 70.52,66.88 71.19,66.88 C71.65,66.88 72.12,67.03 72.52,67.33 C72.77,67.52 73.16,67.91 73.58,68.38 C74.76,69.7 76.18,71.75 75.64,72.47" id="Fill-9" fill="#1182C5"></path>
                <g id="Group-13" transform="translate(74.000000, 88.850000)">
                    <mask id="mask-2" fill="white">
                        <use xlink:href="#path-1"></use>
                    </mask>
                    <g id="Clip-12"></g>
                    <path d="M0.95,0.18 C0.68,0.24 0.42,0.31 0.15,0.35 L0.15,0.18 L0.95,0.18 Z" id="Fill-11" fill="#1182C5" mask="url(#mask-2)"></path>
                </g>
                <path d="M89.92,69.65 C89.92,71.53 89.67,73.35 89.2,75.08 C87.3,82.09 81.81,87.5 74.95,89.03 L74.15,89.03 L74.15,78.78 C76.89,78.78 79.22,77.45 80.78,75.38 C81.97,73.81 82.71,71.82 82.87,69.65 C82.9,69.22 82.91,68.8 82.91,68.38 C82.91,65.86 82.43,63.5 81.67,61.38 C79.26,54.55 74.15,50.09 74.15,50.09 C79.61,51.05 84.27,54.47 87.08,59.21 C88.54,61.67 89.5,64.49 89.81,67.52 C89.88,68.22 89.92,68.93 89.92,69.65" id="Fill-14" fill="#1182C5"></path>
                <path d="M64.1141,76.4896 C63.5371,75.9706 63.0171,75.3836 62.5851,74.7296 C62.5651,74.6906 62.5461,74.6526 62.5171,74.6136 C62.2291,74.1616 61.9791,73.6906 61.7771,73.1996 C61.6231,72.8446 61.5071,72.4786 61.4021,72.0936 C61.1901,71.3246 61.0741,70.5166 61.0741,69.6696 C61.0741,69.2656 61.1031,68.8716 61.1611,68.4776 C61.3251,67.1976 61.7571,66.0056 62.3921,64.9476 C63.9991,62.2726 66.9231,60.4836 70.2701,60.4836 L70.2701,49.9896 L68.7791,49.9896 C67.1631,49.9996 66.1341,51.0096 66.1151,52.6356 C66.1051,53.5776 66.1151,54.5296 66.1151,55.4436 C65.2301,55.8096 64.3931,56.1266 63.5851,56.5206 C63.4411,56.5976 63.3161,56.6266 63.2101,56.6266 C63.0371,56.6266 62.8921,56.5406 62.7291,56.3676 C62.1811,55.7896 61.6131,55.2226 61.0361,54.6836 C60.9591,54.6066 60.8721,54.5496 60.7861,54.4816 C60.2861,54.0876 59.7371,53.8756 59.1891,53.8756 C58.5541,53.8756 57.9291,54.1356 57.3711,54.6646 C56.6111,55.3856 55.8611,56.1366 55.1401,56.9056 C54.8131,57.2426 54.6111,57.6176 54.4861,58.0026 C54.2261,58.8396 54.4471,59.7336 55.1691,60.4836 C55.1881,60.5036 55.2171,60.5226 55.2361,60.5516 C55.7841,61.1096 56.3611,61.6576 56.9001,62.2346 C57.0441,62.3986 57.1691,62.7056 57.1121,62.8786 C56.7651,63.7736 56.3521,64.6586 55.9381,65.5916 C55.3511,65.5916 54.7551,65.5816 54.1591,65.5816 C53.7931,65.5816 53.4281,65.5816 53.0621,65.6016 L53.0431,65.6016 C52.7731,65.6016 52.5231,65.6496 52.2931,65.7166 C51.3111,65.9956 50.6671,66.7556 50.5321,67.8136 C50.5031,68.0346 50.4941,68.2556 50.5131,68.5056 C50.5521,69.0346 50.5611,69.5646 50.5521,70.0836 C50.5421,70.3816 50.5321,70.6796 50.5131,70.9776 C50.4841,71.2666 50.5131,71.5356 50.5521,71.7856 L50.5801,71.8146 C50.5711,71.8146 50.5711,71.8146 50.5611,71.8246 C50.6091,72.0746 50.6771,72.3056 50.7821,72.5266 C51.1861,73.3446 51.9941,73.8636 53.0521,73.8826 C53.0811,73.8926 53.1101,73.8826 53.1391,73.8926 L53.4951,73.8926 C53.8411,73.8926 54.1871,73.8826 54.5431,73.8826 C55.0051,73.8826 55.4761,73.8926 55.9381,73.9506 C56.4091,74.7106 56.6311,75.6046 57.0351,76.4026 C57.1601,76.6436 57.1691,76.8266 57.0921,76.9896 C57.0441,77.1056 56.9671,77.2016 56.8521,77.3166 C56.3131,77.8166 55.8031,78.3366 55.2941,78.8746 C55.2741,78.8946 55.2451,78.9236 55.2261,78.9516 C55.0941,79.0916 54.9621,79.2316 54.8321,79.3736 C54.0901,80.1816 54.0971,81.4106 54.8291,82.2276 C54.8331,82.2326 54.8371,82.2366 54.8421,82.2416 C54.9381,82.3376 55.0241,82.4436 55.1201,82.5496 C55.5631,83.0206 56.0051,83.4726 56.4671,83.9246 C56.8041,84.2616 57.1401,84.5986 57.4871,84.9256 C57.5351,84.9736 57.5831,85.0026 57.6311,85.0406 C58.0931,85.4156 58.6311,85.6086 59.1801,85.6086 C59.7281,85.6086 60.2761,85.4066 60.7471,85.0406 C60.8241,84.9826 60.9011,84.9256 60.9691,84.8576 C61.4021,84.4536 61.8631,84.0696 62.2191,83.5976 C62.2381,83.5686 62.2671,83.5496 62.2861,83.5206 C62.3441,83.4536 62.4021,83.3866 62.4501,83.3286 C62.7191,83.0596 62.9891,82.9146 63.2961,82.9146 C63.5661,82.9146 63.8641,83.0206 64.2011,83.2416 C64.4701,83.4246 64.8261,83.5306 65.1621,83.6556 C65.3451,83.7136 65.5181,83.7806 65.6721,83.8676 C65.8261,83.9446 65.9511,84.0496 66.0281,84.1746 C66.1721,84.4056 66.2111,84.7136 66.2011,85.0406 C66.2011,85.4446 66.1341,85.8966 66.1051,86.2906 C65.9611,88.1376 66.8651,89.3306 69.0201,89.8496 L70.2701,89.8496 L70.2701,78.8656 C69.7701,78.8656 69.2991,78.8176 68.8271,78.7406 C67.0281,78.4516 65.4121,77.6536 64.1141,76.4896" id="Fill-16" fill="#1182C5"></path>
            </g>
        </g>
    </g>
</svg>