<?xml version="1.0" encoding="UTF-8"?>
<svg width="96px" height="96px" viewBox="0 0 96 96" version="1.1" xmlns="http://www.w3.org/2000/svg" xmlns:xlink="http://www.w3.org/1999/xlink">
    <!-- Generator: Sketch 49.3 (51167) - http://www.bohemiancoding.com/sketch -->
    <title>iShare</title>
    <desc>Created with Sketch.</desc>
    <defs></defs>
    <g id="iShare" stroke="none" stroke-width="1" fill="none" fill-rule="evenodd">
        <g transform="translate(0.000000, 1.000000)" fill="#0B82C5">
            <path d="M17.84,36.6439 C15.46,36.6439 13.52,34.7139 13.52,32.2539 C13.52,29.8739 15.46,27.9339 17.84,27.9339 C20.22,27.9339 22.15,29.8739 22.15,32.3339 C22.15,34.7139 20.22,36.6439 17.84,36.6439 M17.84,20.4739 C11.34,20.4739 6.06,25.7539 6.06,32.3339 C6.06,38.8239 11.34,44.1139 17.84,44.1139 C24.33,44.1139 29.62,38.8239 29.62,32.2539 C29.62,25.7539 24.33,20.4739 17.84,20.4739" id="Fill-1"></path>
            <path d="M7.46,65.0139 L7.46,62.2939 C7.46,57.8739 11.06,54.2739 15.48,54.2739 L19.52,54.2739 C23.94,54.2739 27.54,57.8739 27.54,62.2939 L27.54,65.0139 L7.46,65.0139 Z M19.52,46.8139 L15.48,46.8139 C9.7,46.8139 4.66,50.0039 2,54.7039 C0.73,56.9539 0,59.5339 0,62.2939 L0,72.4739 L35,72.4739 L35,62.2939 C35,53.7539 28.06,46.8139 19.52,46.8139 Z" id="Fill-3"></path>
            <path d="M88.54,65.0139 L68.46,65.0139 L68.46,62.2939 C68.46,57.8739 72.06,54.2739 76.48,54.2739 L80.52,54.2739 C84.94,54.2739 88.54,57.8739 88.54,62.2939 L88.54,65.0139 Z M80.52,46.8139 L76.48,46.8139 C67.94,46.8139 61,53.7539 61,62.2939 L61,72.4739 L96,72.4739 L96,62.2939 C96,53.7539 89.06,46.8139 80.52,46.8139 Z" id="Fill-5"></path>
            <path d="M78.84,36.6439 C76.46,36.6439 74.52,34.7139 74.52,32.2539 C74.52,30.5939 75.47,29.1639 76.85,28.4439 C77.45,28.1339 78.12,27.9339 78.84,27.9339 C79.25,27.9339 79.64,28.0139 80.01,28.1239 C81.82,28.6439 83.15,30.2939 83.15,32.3339 C83.15,34.7139 81.22,36.6439 78.84,36.6439 M84.15,21.7539 C82.55,20.9439 80.75,20.4739 78.84,20.4739 C75.47,20.4739 72.44,21.9039 70.29,24.1839 C68.29,26.3039 67.06,29.1639 67.06,32.3339 C67.06,38.8239 72.34,44.1139 78.84,44.1139 C85.33,44.1139 90.62,38.8239 90.62,32.2539 C90.62,27.6739 87.98,23.7039 84.15,21.7539" id="Fill-7"></path>
            <path d="M81.84,15.5239 C81.85,16.6239 80.95,17.5239 79.85,17.5339 L69.88,17.5639 C69.49,17.5639 69.11,17.4539 68.78,17.2439 C67.85,16.6439 67.59,15.4039 68.19,14.4739 L69.16,12.9839 C67.72,12.1039 66.24,11.3239 64.72,10.6339 C51.15,4.4839 34.99,6.1739 22.94,15.4139 C22.3,15.9039 21.55,16.1439 20.81,16.1439 C19.76,16.1439 18.72,15.6739 18.03,14.7739 C16.86,13.2439 17.14,11.0439 18.68,9.8639 C33.07,-1.1761 52.49,-3.0261 68.58,4.7039 C70.07,5.4239 71.54,6.2239 72.97,7.1139 L74.14,5.3139 C74.35,4.9939 74.65,4.7339 75.01,4.5739 C76.02,4.1339 77.2,4.5839 77.65,5.5939 L81.67,14.7239 C81.78,14.9739 81.84,15.2439 81.84,15.5239" id="Fill-9"></path>
            <path d="M79.32,84.0839 C70.79,90.6339 60.48,93.9539 50.15,93.9539 C43.07,93.9539 35.97,92.3839 29.43,89.2439 C27.93,88.5239 26.46,87.7239 25.03,86.8339 L23.86,88.6339 C23.65,88.9539 23.35,89.2139 22.99,89.3739 C21.98,89.8139 20.8,89.3639 20.35,88.3439 L16.33,79.2239 C16.22,78.9739 16.16,78.6939 16.16,78.4239 C16.15,77.3139 17.05,76.4239 18.15,76.4139 L28.13,76.3839 C28.51,76.3839 28.9,76.4939 29.22,76.7039 C30.15,77.3039 30.41,78.5439 29.81,79.4739 L28.84,80.9639 C30.28,81.8439 31.76,82.6239 33.28,83.3139 C46.85,89.4639 63.02,87.7739 75.06,78.5339 C76.59,77.3539 78.79,77.6439 79.97,79.1739 C81.15,80.7039 80.86,82.9039 79.32,84.0839" id="Fill-11"></path>
        </g>
    </g>
</svg>