<?xml version="1.0" encoding="UTF-8"?>
<svg width="96px" height="96px" viewBox="0 0 96 96" version="1.1" xmlns="http://www.w3.org/2000/svg" xmlns:xlink="http://www.w3.org/1999/xlink">
    <!-- Generator: Sketch 49.3 (51167) - http://www.bohemiancoding.com/sketch -->
    <title>iShare content push</title>
    <desc>Created with Sketch.</desc>
    <defs></defs>
    <g id="iShare-content-push" stroke="none" stroke-width="1" fill="none" fill-rule="evenodd">
        <g fill-rule="nonzero">
            <g id="Path-29-Copy-5" transform="translate(19.000000, 53.000000)" fill="#0B84C7">
                <path d="M58,3.5 C58,5.4 56.4,7 54.5,7 L3.8,7 C1.9,7 0.3,5.4 0.3,3.5 C0.3,1.6 1.9,0 3.8,0 L54.5,0 C56.4,0 58,1.6 58,3.5 Z" id="Shape"></path>
            </g>
            <g id="Path-29-Copy-7" transform="translate(19.000000, 40.000000)" fill="#0B84C7">
                <path d="M34,3.5 C34,5.4 32.4,7 30.5,7 L3.8,7 C1.9,7 0.3,5.4 0.3,3.5 C0.3,1.6 1.9,0 3.8,0 L30.5,0 C32.4,0 34,1.6 34,3.5 Z" id="Shape"></path>
            </g>
            <g id="Path-29-Copy-6" transform="translate(19.000000, 66.000000)" fill="#0B84C7">
                <path d="M58,3.5 C58,5.4 56.4,7 54.5,7 L3.8,7 C1.9,7 0.3,5.4 0.3,3.5 C0.3,1.6 1.9,0 3.8,0 L54.5,0 C56.4,0 58,1.6 58,3.5 Z" id="Shape"></path>
            </g>
            <path d="M84.5,16 L83,16 L83,8.7 C83,7.2 82.7,5.7 81.9,4.4 C81.8,4.2 80,1.8 77.9,0.8 C77.8,0.8 77.7,0.7 77.7,0.7 C77.7,0.7 77.7,0.7 77.7,0.7 C76,-0.1 74.1,-0.1 72.2,0.3 C70.1,0.8 68.5,2.2 67.2,3.8 C66.3,4.9 65.8,6.3 65.8,7.8 L65.8,16 C65.8,18.3 65.8,20.7 65.8,23 L65.8,25 C65.8,26.3 65.8,27.6 65.8,28.9 L65.8,29.2 C65.9,30.9 67.3,32.3 69,32.3 C70.8,32.3 72.2,30.9 72.2,29.2 L72.2,29 C72.2,27.7 72.2,26.4 72.2,25.1 L72.2,8.7 C72.2,7.5 72.6,6.9 73.7,6.7 C74.6,6.5 75.6,7.1 75.6,8 C75.7,9.6 75.7,11.3 75.7,12.9 L75.7,34.1 C75.7,35.3 75.7,36.5 75.1,37.6 C74.5,38.7 73.8,39.7 72.6,40.5 C71,41.6 69.2,42.1 67.3,41.7 C65.3,41.3 63.7,40.4 62.7,38.5 C62,37.3 61.8,36 61.8,34.6 C61.8,31.3 61.8,28.1 61.8,24.8 L61.8,7.4 C61.7,5.6 60.2,4.1 58.4,4.1 C56.5,4.1 55,5.6 55,7.4 L55,7.6 C55,10.4 55,13.1 55,15.9 L11.5,15.9 C5.2,16 0,21.2 0,27.5 L0,84.5 C0,90.8 5.2,96 11.5,96 L84.5,96 C90.8,96 96,90.8 96,84.5 L96,27.5 C96,21.2 90.8,16 84.5,16 Z M89,84.5 C89,87 87,89 84.5,89 L11.5,89 C9,89 7,87 7,84.5 L7,27.5 C7,25 9,23 11.5,23 L55,23 C55,27 55,30.9 55,34.9 C55,37.1 55.5,39.1 56.4,41.1 C56.4,41.2 56.5,41.3 56.6,41.4 C56.8,41.6 58.9,44.7 61.3,46.4 C65.1,49 69.2,49.6 73.7,48.1 C74.7,47.8 75.6,47.3 76.4,46.8 C76.7,46.5 79,44.7 80.4,43 C81.3,41.8 82,40.5 82.4,39.1 C82.8,37.7 83,36.3 83,34.8 C83,30.8 83,26.9 83,22.9 L84.5,22.9 C87,22.9 89,24.9 89,27.4 L89,84.5 Z" id="Shape" fill="#0B82C5"></path>
        </g>
    </g>
</svg>