<?xml version="1.0" encoding="UTF-8"?>
<svg width="96px" height="96px" viewBox="0 0 96 96" version="1.1" xmlns="http://www.w3.org/2000/svg" xmlns:xlink="http://www.w3.org/1999/xlink">
    <!-- Generator: Sketch 49.3 (51167) - http://www.bohemiancoding.com/sketch -->
    <title>iShare Alert PSTN Event Notification</title>
    <desc>Created with Sketch.</desc>
    <defs></defs>
    <g id="iShare-Alert-PSTN-Event-Notification" stroke="none" stroke-width="1" fill="none" fill-rule="evenodd">
        <g transform="translate(0.000000, 1.000000)" id="Page-1">
            <g>
                <path d="M52.173913,50.6086957 C52.173913,52.3513043 50.9426087,53.8121739 49.3043478,54.1669565 C49.053913,54.2295652 48.7930435,54.2608696 48.5217391,54.2608696 C46.5078261,54.2608696 44.8695652,52.6226087 44.8695652,50.6086957 C44.8695652,49.586087 45.2973913,48.6678261 45.9756522,48 C46.6330435,47.3530435 47.5304348,46.9565217 48.5217391,46.9565217 C48.8869565,46.9565217 49.2313043,47.0295652 49.5652174,47.1234783 C49.7426087,47.1756522 49.92,47.2382609 50.0869565,47.3217391 C50.4521739,47.4991304 50.786087,47.7182609 51.0678261,48 C51.0886957,48.0208696 51.1095652,48.0417391 51.1304348,48.0626087 C51.7773913,48.72 52.173913,49.6173913 52.173913,50.6086957" id="Fill-1" fill="#1082C5"></path>
                <path d="M52.173913,39.1304348 C52.173913,40.1530435 51.746087,41.0713043 51.0678261,41.7391304 C50.786087,42.0208696 50.4521739,42.24 50.0869565,42.4173913 C49.92,42.5008696 49.7426087,42.5634783 49.5652174,42.6156522 C49.2313043,42.7095652 48.8869565,42.7826087 48.5217391,42.7826087 C47.5304348,42.7826087 46.6330435,42.386087 45.9756522,41.7391304 C45.2973913,41.0713043 44.8695652,40.1530435 44.8695652,39.1304348 C44.8695652,37.1165217 46.5078261,35.4782609 48.5217391,35.4782609 C48.8869565,35.4782609 49.2313043,35.5513043 49.5652174,35.6452174 C49.7426087,35.6973913 49.92,35.76 50.0869565,35.8434783 C51.3182609,36.4278261 52.173913,37.68 52.173913,39.1304348" id="Fill-3" fill="#1082C5"></path>
                <path d="M62.6086957,39.1304348 C62.6086957,40.1217391 62.2121739,41.0191304 61.5652174,41.6765217 C61.4086957,41.8434783 61.2313043,41.9895652 61.0434783,42.1252174 C60.4486957,42.5321739 59.7286957,42.7826087 58.9565217,42.7826087 C58.5913043,42.7826087 58.2469565,42.7095652 57.9130435,42.6156522 C57.7356522,42.5634783 57.5582609,42.5008696 57.3913043,42.4173913 C57.026087,42.24 56.6921739,42.0208696 56.4104348,41.7391304 C56.1808696,41.52 55.9930435,41.2591304 55.826087,40.9878261 C55.5026087,40.4347826 55.3043478,39.8086957 55.3043478,39.1304348 C55.3043478,38.4521739 55.5026087,37.826087 55.826087,37.2730435 C56.1913043,36.6573913 56.733913,36.1565217 57.3913043,35.8434783 C57.5582609,35.76 57.7356522,35.6973913 57.9130435,35.6452174 C58.2469565,35.5513043 58.5913043,35.4782609 58.9565217,35.4782609 C59.7286957,35.4782609 60.4486957,35.7286957 61.0434783,36.1356522 C61.2313043,36.2713043 61.4086957,36.4173913 61.5652174,36.5843478 C62.2121739,37.2417391 62.6086957,38.1391304 62.6086957,39.1304348" id="Fill-5" fill="#1082C5"></path>
                <path d="M74.0869565,39.1304348 C74.0869565,41.1443478 72.4486957,42.7826087 70.4347826,42.7826087 C69.6521739,42.7826087 68.9426087,42.5321739 68.3478261,42.1252174 C68.16,41.9895652 67.9826087,41.8434783 67.826087,41.6765217 C67.1791304,41.0191304 66.7826087,40.1217391 66.7826087,39.1304348 C66.7826087,38.1391304 67.1791304,37.2417391 67.826087,36.5843478 C67.9826087,36.4173913 68.16,36.2713043 68.3478261,36.1356522 C68.9426087,35.7286957 69.6521739,35.4782609 70.4347826,35.4782609 C72.4486957,35.4782609 74.0869565,37.1165217 74.0869565,39.1304348" id="Fill-7" fill="#1082C5"></path>
                <path d="M33.3913043,19.826087 C33.3913043,20.2643478 33.1408696,20.5252174 32.9947826,20.64 C31.2626087,22.0278261 30.2608696,24.1252174 30.2608696,26.3478261 L30.2608696,45.6626087 C30.2608696,47.8747826 31.2626087,49.9721739 32.9947826,51.36 C33.1408696,51.4747826 33.3913043,51.7356522 33.3913043,52.173913 L33.3913043,63.6521739 C33.3913043,64.226087 32.9217391,64.6956522 32.3478261,64.6956522 L20.8695652,64.6956522 C20.2956522,64.6956522 19.826087,64.226087 19.826087,63.6521739 L19.826087,52.173913 C19.826087,51.7356522 20.0765217,51.4747826 20.2226087,51.36 C21.9443478,49.9721739 22.9565217,47.8747826 22.9565217,45.6626087 L22.9565217,26.3478261 C22.9565217,24.1252174 21.9443478,22.0278261 20.2226087,20.64 C20.0765217,20.5252174 19.826087,20.2643478 19.826087,19.826087 L19.826087,8.34782609 C19.826087,7.77391304 20.2956522,7.30434783 20.8695652,7.30434783 L32.3478261,7.30434783 C32.9217391,7.30434783 33.3913043,7.77391304 33.3913043,8.34782609 L33.3913043,19.826087 Z M79.8782609,5.73913043 L40.2782609,5.73913043 C39.1721739,2.41043478 36.0417391,0 32.3478261,0 L20.8695652,0 C18.5634783,0 16.4765217,0.939130435 14.9634783,2.44173913 C14.0556522,3.36 13.3565217,4.48695652 12.9391304,5.73913043 L7.77391304,5.73913043 C3.48521739,5.73913043 0,9.24521739 0,13.5652174 L0,77.2173913 C0,81.5373913 3.48521739,85.0434783 7.77391304,85.0434783 L51.9652174,85.0434783 C50.8486957,82.7791304 50.0556522,80.3269565 49.6382609,77.7391304 L7.77391304,77.7391304 C7.51304348,77.7391304 7.30434783,77.5095652 7.30434783,77.2173913 L7.30434783,13.5652174 C7.30434783,13.2730435 7.51304348,13.0434783 7.77391304,13.0434783 L12.5217391,13.0434783 L12.5217391,19.826087 C12.5217391,22.2156522 13.5234783,24.3547826 15.1304348,25.8782609 C15.2973913,26.0347826 15.4643478,26.1913043 15.6521739,26.3478261 L15.6521739,45.6626087 C15.4643478,45.8086957 15.2973913,45.9652174 15.1304348,46.1217391 C13.5234783,47.6452174 12.5217391,49.7947826 12.5217391,52.173913 L12.5217391,63.6521739 C12.5217391,66.72 14.1808696,69.3913043 16.6434783,70.8417391 C16.7269565,70.893913 16.8104348,70.946087 16.893913,70.9878261 C16.893913,70.9982609 16.9043478,70.9982609 16.9147826,71.0086957 C17.853913,71.5095652 18.9078261,71.8434783 20.013913,71.9582609 C20.2956522,71.9895652 20.5773913,72 20.8695652,72 L32.3478261,72 C32.9217391,72 33.4852174,71.9373913 34.0278261,71.8330435 C37.8365217,71.0504348 40.6956522,67.6904348 40.6956522,63.6521739 L40.6956522,52.173913 C40.6956522,50.7130435 40.3095652,49.346087 39.6521739,48.1565217 C39.6208696,48.1043478 39.5895652,48.0521739 39.5686957,48 C39.4330435,47.7704348 39.2869565,47.5408696 39.1304348,47.3321739 C38.9947826,47.1443478 38.8591304,46.9669565 38.7130435,46.8 C38.6504348,46.7165217 38.5878261,46.6434783 38.5147826,46.5704348 C38.4417391,46.4869565 38.3686957,46.4034783 38.2956522,46.3304348 C38.2017391,46.226087 38.0973913,46.1321739 37.9930435,46.0382609 C37.8573913,45.9026087 37.7113043,45.7773913 37.5652174,45.6626087 L37.5652174,26.3478261 C39.4747826,24.813913 40.6956522,22.466087 40.6956522,19.826087 L40.6956522,13.0434783 L79.8782609,13.0434783 C80.1391304,13.0434783 80.3478261,13.2730435 80.3478261,13.5652174 L80.3478261,48.813913 C80.4208696,48.8347826 80.5043478,48.8452174 80.5878261,48.866087 C80.9843478,48.9704348 81.3808696,49.0852174 81.7669565,49.2104348 C83.8643478,49.8782609 85.8365217,50.8173913 87.6521739,51.986087 L87.6521739,13.5652174 C87.6521739,9.24521739 84.1669565,5.73913043 79.8782609,5.73913043 Z" id="Fill-9" fill="#1082C5"></path>
                <path d="M64.3826087,72.1981565 C64.32,72.6155478 64.2886957,73.0329391 64.2886957,73.4712 C64.2886957,74.3685913 64.413913,75.2346783 64.6434783,76.0485913 C64.7478261,76.4555478 64.8730435,76.8520696 65.04,77.2277217 C65.2591304,77.7494609 65.52,78.2503304 65.8330435,78.7303304 C65.8643478,78.7720696 65.8747826,78.8138087 65.8956522,78.8555478 C66.3652174,79.5546783 66.9182609,80.1807652 67.533913,80.7338087 C68.9113043,81.9755478 70.6330435,82.8207652 72.5530435,83.1338087 C73.053913,83.2068522 73.5547826,83.2590261 74.0869565,83.2590261 L74.0869565,94.9668522 L72.7513043,94.9668522 C70.4556522,94.4138087 69.4956522,93.1407652 69.6521739,91.1685913 C69.6834783,90.7512 69.7565217,90.2712 69.7565217,89.8433739 C69.7669565,89.4885913 69.7252174,89.165113 69.5686957,88.9146783 C69.4852174,88.7894609 69.3495652,88.6746783 69.1930435,88.5912 C69.026087,88.497287 68.8382609,88.4242435 68.6504348,88.3616348 C68.2852174,88.2364174 67.9095652,88.1216348 67.6173913,87.9233739 C67.2626087,87.6938087 66.9495652,87.5790261 66.6573913,87.5790261 C66.333913,87.5790261 66.0417391,87.725113 65.76,88.017287 C65.7078261,88.0798957 65.6452174,88.1529391 65.5826087,88.2259826 C65.5617391,88.257287 65.5304348,88.2781565 65.5095652,88.2990261 C65.133913,88.8103304 64.6434783,89.217287 64.173913,89.645113 C64.1113043,89.7181565 64.0278261,89.7807652 63.9443478,89.8433739 C63.4434783,90.2294609 62.8591304,90.4485913 62.2747826,90.4485913 C61.6904348,90.4485913 61.1165217,90.2398957 60.626087,89.8433739 C60.573913,89.8016348 60.5217391,89.7703304 60.4695652,89.7181565 C60.1043478,89.3738087 59.7391304,89.0085913 59.3843478,88.6538087 C58.893913,88.1738087 58.4243478,87.6938087 57.9547826,87.1825043 C57.8504348,87.0781565 57.7565217,86.9633739 57.6521739,86.8590261 L57.6417391,86.8485913 C57.1721739,86.3164174 56.9843478,85.6381565 57.0782609,84.9912 C57.1408696,84.5633739 57.3286957,84.1459826 57.6417391,83.8016348 C57.7773913,83.6555478 57.9234783,83.4990261 58.0591304,83.3529391 C58.08,83.3216348 58.1113043,83.2903304 58.1321739,83.2694609 C58.6747826,82.6955478 59.2173913,82.1425043 59.7913043,81.6103304 C59.9165217,81.4955478 60,81.3912 60.0521739,81.2659826 C60.1356522,81.0885913 60.1252174,80.9007652 59.9895652,80.6398957 C59.7286957,80.1390261 59.5408696,79.5964174 59.3217391,79.0642435 C59.1756522,78.7094609 59.0191304,78.3546783 58.8208696,78.0312 C58.466087,77.9790261 58.1008696,77.9685913 57.746087,77.9581565 L57.3391304,77.9581565 C56.9530435,77.9581565 56.5878261,77.9685913 56.2226087,77.9685913 L55.826087,77.9685913 C55.7947826,77.9581565 55.773913,77.9685913 55.7426087,77.9581565 C55.3669565,77.9477217 55.0226087,77.8642435 54.7095652,77.7390261 C54.093913,77.4990261 53.613913,77.0816348 53.3321739,76.5077217 C53.2173913,76.2781565 53.1443478,76.0277217 53.0921739,75.7668522 C53.1026087,75.7564174 53.1026087,75.7564174 53.1130435,75.7564174 L53.0817391,75.725113 C53.04,75.4538087 53.0086957,75.1720696 53.04,74.8590261 C53.0608696,74.5459826 53.0713043,74.2225043 53.0817391,73.9094609 C53.0921739,73.3564174 53.0817391,72.7929391 53.04,72.2294609 C53.0191304,71.9581565 53.0295652,71.7285913 53.0608696,71.4885913 C53.2069565,70.3616348 53.8956522,69.5581565 54.9391304,69.2555478 C55.1791304,69.1825043 55.4504348,69.1303304 55.7321739,69.1303304 L55.7530435,69.1303304 L55.826087,69.1303304 C56.1913043,69.1198957 56.5565217,69.1094609 56.9217391,69.1094609 C57.5582609,69.1094609 58.1947826,69.1198957 58.8208696,69.1198957 C59.2591304,68.1285913 59.6973913,67.1894609 60.0730435,66.2398957 C60.1356522,66.0520696 60,65.7181565 59.8434783,65.5512 C59.2695652,64.9355478 58.653913,64.3512 58.0695652,63.7564174 C58.0486957,63.725113 58.0173913,63.7042435 57.9965217,63.6833739 C57.2347826,62.8798957 56.9947826,61.9303304 57.2765217,61.0433739 C57.4017391,60.6259826 57.6208696,60.2294609 57.9652174,59.8746783 C58.7373913,59.0503304 59.5408696,58.257287 60.3443478,57.485113 C60.9391304,56.9216348 61.6069565,56.6398957 62.2852174,56.6398957 C62.8695652,56.6398957 63.453913,56.8694609 63.986087,57.2868522 C64.08,57.3598957 64.1634783,57.4225043 64.2469565,57.5059826 C64.8626087,58.0798957 65.4678261,58.685113 66.0521739,59.3007652 C66.2295652,59.4781565 66.386087,59.5720696 66.5634783,59.5720696 C66.6782609,59.5720696 66.813913,59.5407652 66.9704348,59.4677217 C67.826087,59.0398957 68.7130435,58.7059826 69.6626087,58.3198957 C69.6626087,57.3390261 69.6521739,56.3268522 69.6626087,55.325113 C69.6834783,53.5929391 70.7791304,52.5181565 72.5008696,52.5077217 L74.0869565,52.5077217 L74.0869565,63.6833739 C70.5182609,63.6833739 67.4086957,65.5929391 65.6973913,68.4416348 C65.0191304,69.5685913 64.56,70.8312 64.3826087,72.1981565" id="Fill-11" fill="#1182C5"></path>
                <path d="M76.173913,24 C76.173913,26.013913 74.5356522,27.6521739 72.5217391,27.6521739 L48.5217391,27.6521739 C46.5078261,27.6521739 44.8695652,26.013913 44.8695652,24 C44.8695652,21.986087 46.5078261,20.3478261 48.5217391,20.3478261 L72.5217391,20.3478261 C74.5356522,20.3478261 76.173913,21.986087 76.173913,24" id="Fill-13" fill="#1082C5"></path>
                <path d="M79.533913,76.3094609 C79.3773913,76.5077217 79.0747826,76.6016348 78.6991304,76.6016348 C77.1443478,76.6016348 74.1913043,75.2033739 73.3669565,74.577287 C72.333913,73.7946783 72.1356522,72.3129391 72.9182609,71.2798957 C73.3773913,70.6746783 74.0765217,70.3512 74.786087,70.3512 C75.2869565,70.3512 75.7773913,70.5077217 76.2052174,70.8312 C77.2382609,71.6138087 80.3165217,75.2764174 79.533913,76.3094609" id="Fill-15" fill="#1182C5"></path>
                <path d="M94.7478261,73.3043478 C94.7478261,83.7704348 87.4852174,92.4626087 77.9478261,94.1321739 L77.9478261,83.0295652 C83.0713043,83.0295652 86.8591304,78.6573913 87.2347826,73.3043478 C87.5165217,69.1304348 86.493913,65.3530435 85.0226087,62.1808696 C83.6034783,59.133913 81.7878261,56.6608696 80.3478261,54.9704348 C78.9808696,53.3634783 77.9478261,52.466087 77.9478261,52.466087 C78.7721739,52.6121739 79.5652174,52.8313043 80.3478261,53.0713043 C83.0608696,53.9165217 85.5443478,55.346087 87.6521739,57.2243478 C91.9930435,61.0956522 94.7478261,66.8556522 94.7478261,73.3043478" id="Fill-17" fill="#1182C5"></path>
            </g>
        </g>
    </g>
</svg>