<?xml version="1.0" encoding="UTF-8"?>
<svg width="96px" height="96px" viewBox="0 0 96 96" version="1.1" xmlns="http://www.w3.org/2000/svg" xmlns:xlink="http://www.w3.org/1999/xlink">
    <!-- Generator: Sketch 49.3 (51167) - http://www.bohemiancoding.com/sketch -->
    <title>iShare alert email event notification</title>
    <desc>Created with Sketch.</desc>
    <defs></defs>
    <g id="iShare-alert-email-event-notification" stroke="none" stroke-width="1" fill="none" fill-rule="evenodd">
        <g transform="translate(0.000000, 3.000000)" fill="#1182C5" id="Page-1">
            <g>
                <path d="M46.52,28.98 L14.79,7 L80.35,7 L46.52,28.98 Z M91.84,0 L3.46,0 C1.55,0 0,1.57 0,3.5 L0,67.23 C0,69.16 1.55,70.73 3.46,70.73 L44.46,70.73 C46.37,70.73 47.92,69.16 47.92,67.23 C47.92,65.29 46.37,63.73 44.46,63.73 L6.93,63.73 L6.93,10.04 L44.5,36.07 C45.65,36.86 47.16,36.88 48.34,36.12 L88.38,10.11 L88.38,55.62 C88.38,57.55 89.93,59.12 91.84,59.12 C93.75,59.12 95.3,57.55 95.3,55.62 L95.3,3.5 C95.3,1.57 93.75,0 91.84,0 Z" id="Fill-1"></path>
                <path d="M70.6562,92.26 L70.6562,81.038 L70.6562,80.89 C65.5542,80.89 61.4192,76.712 61.4192,71.557 C61.4192,66.402 65.5542,62.223 70.6562,62.223 L70.6562,51.568 L69.1622,51.568 C67.5362,51.574 66.5062,52.603 66.4872,54.251 C66.4762,55.214 66.4842,56.178 66.4842,57.104 C65.5982,57.482 64.7532,57.802 63.9472,58.201 C63.7992,58.274 63.6762,58.31 63.5652,58.31 C63.3912,58.31 63.2442,58.222 63.0802,58.047 C62.5312,57.459 61.9662,56.882 61.3822,56.33 C60.8112,55.789 60.1672,55.517 59.5282,55.517 C58.8942,55.517 58.2642,55.782 57.7072,56.314 C56.9362,57.048 56.1902,57.809 55.4612,58.587 C54.4162,59.705 54.4342,61.125 55.4882,62.22 C56.0642,62.82 56.6692,63.391 57.2272,64.006 C57.3692,64.164 57.5032,64.485 57.4392,64.652 C57.0892,65.569 56.6772,66.462 56.2642,67.412 C55.6772,67.412 55.0772,67.403 54.4732,67.403 C54.1012,67.403 53.7282,67.407 53.3552,67.418 C51.7142,67.464 50.6812,68.655 50.8132,70.368 C50.8762,71.204 50.8812,72.047 50.8142,72.882 C50.6732,74.588 51.7382,75.799 53.3622,75.835 C53.5112,75.839 53.6592,75.839 53.8072,75.839 C54.1592,75.839 54.5092,75.833 54.8602,75.833 C55.3302,75.833 55.7992,75.844 56.2662,75.897 C56.7372,76.673 56.9562,77.578 57.3622,78.386 C57.5702,78.801 57.4872,79.03 57.1802,79.32 C56.2062,80.238 55.2842,81.215 54.4252,82.236 C54.1172,82.602 54.1202,83.149 54.4312,83.512 C55.4912,84.752 56.6322,85.927 57.8212,87.046 C58.3162,87.511 58.9152,87.74 59.5182,87.74 C60.1552,87.74 60.7962,87.484 61.3182,86.981 C61.7492,86.566 62.2152,86.175 62.5702,85.701 C62.9142,85.24 63.2572,85.003 63.6552,85.003 C63.9252,85.003 64.2212,85.113 64.5602,85.339 C65.1402,85.727 66.0932,85.782 66.4002,86.285 C66.7252,86.815 66.5302,87.706 66.4742,88.432 C66.3052,90.635 67.5672,91.936 70.6562,92.26" id="Fill-3"></path>
                <path d="M72.9279,69.2652 C72.5259,68.9562 72.0529,68.8072 71.5839,68.8072 C70.9099,68.8072 70.2449,69.1142 69.8079,69.6982 C69.0629,70.6882 69.2539,72.1002 70.2359,72.8512 C71.0209,73.4532 73.8229,74.7902 75.2879,74.7902 C75.6539,74.7902 75.9359,74.7072 76.0839,74.5102 C76.8279,73.5202 73.9089,70.0172 72.9279,69.2652" id="Fill-5"></path>
                <path d="M90.5169,71.6316 C90.5169,61.5986 83.6249,53.2736 74.5819,51.6666 C74.5819,51.6666 84.1749,60.1296 83.3839,71.6306 C83.0309,76.7656 79.4429,80.9526 74.5819,80.9526 L74.5819,91.5966 C83.6249,89.9896 90.5169,81.6656 90.5169,71.6316" id="Fill-7"></path>
            </g>
        </g>
    </g>
</svg>