<?xml version="1.0" encoding="UTF-8"?>
<svg width="96px" height="96px" viewBox="0 0 96 96" version="1.1" xmlns="http://www.w3.org/2000/svg" xmlns:xlink="http://www.w3.org/1999/xlink">
    <!-- Generator: Sketch 49.3 (51167) - http://www.bohemiancoding.com/sketch -->
    <title>iShare Screenshot</title>
    <desc>Created with Sketch.</desc>
    <defs></defs>
    <g id="iShare-Screenshot" stroke="none" stroke-width="1" fill="none" fill-rule="evenodd">
        <g fill="#0B82C5">
            <path d="M5,15 L3.5,15 C1.56700338,15 0,13.4329966 0,11.5 C0,9.56700338 1.56700338,8 3.5,8 L5,8 L5,15 Z" id="Combined-Shape-path"></path>
            <path d="M80.2908465,91 L87.2908465,91 L87.2908465,91.9546966 C87.2908465,93.8876933 85.7238432,95.4546966 83.7908465,95.4546966 C81.8578499,95.4546966 80.2908465,93.8876933 80.2908465,91.9546966 L80.2908465,91 Z" id="Combined-Shape-path"></path>
            <path d="M14.1370599,8 L75.7908465,8 C82.1421212,8 87.2908465,13.1487254 87.2908465,19.5 L87.2908465,82.336291 L92.4314701,82.336291 C94.4023147,82.336291 96,83.9399419 96,85.9181455 C96,87.8963491 94.4023147,89.5 92.4314701,89.5 L18.7251698,89.5 C12.2495373,89.5 7,84.2308614 7,77.7310495 L7,3.58185451 C7,1.60365089 8.59768528,0 10.5685299,0 C12.5393746,0 14.1370599,1.60365089 14.1370599,3.58185451 L14.1370599,8 Z M14.1370599,15 L14.1370599,77.7310495 C14.1370599,80.2744541 16.1912267,82.336291 18.7251698,82.336291 L80.2908465,82.336291 L80.2908465,19.5 C80.2908465,17.0147186 78.2761279,15 75.7908465,15 L14.1370599,15 Z" id="Combined-Shape" fill-rule="nonzero"></path>
        </g>
    </g>
</svg>