<?xml version="1.0" encoding="UTF-8"?>
<svg width="96px" height="96px" viewBox="0 0 96 96" version="1.1" xmlns="http://www.w3.org/2000/svg" xmlns:xlink="http://www.w3.org/1999/xlink">
    <!-- Generator: Sketch 49.3 (51167) - http://www.bohemiancoding.com/sketch -->
    <title>iShare Co-form fill</title>
    <desc>Created with Sketch.</desc>
    <defs></defs>
    <g id="iShare-Co-form-fill" stroke="none" stroke-width="1" fill="none" fill-rule="evenodd">
        <g transform="translate(4.000000, 9.000000)" fill-rule="nonzero">
            <path d="M52.5,35 C50.5670034,35 49,33.4329966 49,31.5 C49,29.5670034 50.5670034,28 52.5,28 L88.5,28 C90.4329966,28 92,29.5670034 92,31.5 C92,33.4329966 90.4329966,35 88.5,35 L52.5,35 Z" id="Path-29" fill="#0B84C7"></path>
            <path d="M40.7260113,49 C38.7930147,49 37.2260113,47.4329966 37.2260113,45.5 C37.2260113,43.5670034 38.7930147,42 40.7260113,42 L88.5288462,42 C90.4618428,42 92.0288462,43.5670034 92.0288462,45.5 C92.0288462,47.4329966 90.4618428,49 88.5288462,49 L40.7260113,49 Z" id="Path-29-Copy" fill="#0B84C7"></path>
            <path d="M40.7260113,63 C38.7930147,63 37.2260113,61.4329966 37.2260113,59.5 C37.2260113,57.5670034 38.7930147,56 40.7260113,56 L88.5288462,56 C90.4618428,56 92.0288462,57.5670034 92.0288462,59.5 C92.0288462,61.4329966 90.4618428,63 88.5288462,63 L40.7260113,63 Z" id="Path-29-Copy-3" fill="#0B84C7"></path>
            <path d="M40.7260113,77 C38.7930147,77 37.2260113,75.4329966 37.2260113,73.5 C37.2260113,71.5670034 38.7930147,70 40.7260113,70 L88.5288462,70 C90.4618428,70 92.0288462,71.5670034 92.0288462,73.5 C92.0288462,75.4329966 90.4618428,77 88.5288462,77 L40.7260113,77 Z" id="Path-29-Copy-2" fill="#0B84C7"></path>
            <g id="Group" fill="#0B82C5">
                <path d="M25.4978847,56.1216672 C25.4306897,58.0534956 23.8101611,59.5650796 21.8783328,59.4978847 C19.9465044,59.4306897 18.4349204,57.8101611 18.5021153,55.8783328 C18.6715296,51.0077389 20.1493583,46.970128 22.8231804,43.4530123 C24.7967127,40.8570501 26.8547169,39.0421331 30.8796506,35.9934489 C31.0338304,35.8766655 31.5820962,35.4620045 31.6930487,35.3779955 C38.434876,30.2733438 40.5,27.5571966 40.5,22.1698884 C40.5,11.8527924 32.2112152,3.5 22,3.5 C11.7887848,3.5 3.5,11.8527924 3.5,22.1698884 C3.5,24.102885 1.93299662,25.6698884 4.4408921e-16,25.6698884 C-1.93299662,25.6698884 -3.5,24.102885 -3.5,22.1698884 C-3.5,7.99880187 7.91068626,-3.5 22,-3.5 C36.0893137,-3.5 47.5,7.99880187 47.5,22.1698884 C47.5,26.7191257 46.1762471,30.5134347 43.6464232,33.8407767 C41.7924237,36.2792432 39.8562246,37.9773231 35.9185834,40.9587533 C35.8054263,41.0444314 35.2578493,41.4585715 35.1062069,41.5734329 C28.0572971,46.9126265 25.7108456,49.9991224 25.4978847,56.1216672 Z" id="Oval-2"></path>
                <circle id="Oval-3" cx="22.5" cy="73.5" r="4.5"></circle>
            </g>
        </g>
    </g>
</svg>