<?xml version="1.0" encoding="UTF-8"?>
<svg width="96px" height="96px" viewBox="0 0 96 96" version="1.1" xmlns="http://www.w3.org/2000/svg" xmlns:xlink="http://www.w3.org/1999/xlink">
    <!-- Generator: Sketch 49.3 (51167) - http://www.bohemiancoding.com/sketch -->
    <title>iShare Co-Browse</title>
    <desc>Created with Sketch.</desc>
    <defs></defs>
    <g id="iShare-Co-Browse" stroke="none" stroke-width="1" fill="none" fill-rule="evenodd">
        <path d="M18.2070312,10 L71,10 C75.418278,10 79,13.581722 79,18 L79,45.8139648 L79,61 C79,65.418278 75.418278,69 71,69 L58.2167969,69 L12,69 C7.581722,69 4,65.418278 4,61 L4,24.6894531" id="Rectangle" stroke="#0B82C5" stroke-width="7" stroke-linecap="round" transform="translate(41.500000, 39.500000) scale(-1, -1) translate(-41.500000, -39.500000) "></path>
        <path d="M41.5,69 L41.5,88.2608667" id="Path-2" stroke="#0B82C5" stroke-width="7"></path>
        <path d="M23,85.5 L58.9000816,85.5" id="Path-3" stroke="#0B82C5" stroke-width="7" stroke-linecap="round" stroke-linejoin="round"></path>
        <path d="M75.1133355,80.0558095 L76.2405711,78.9242172 C77.7439711,77.4150069 80.1861744,77.4102966 81.6953847,78.9136966 C81.6975343,78.9158379 81.6996813,78.9179817 81.7018257,78.920128 L84.5600851,81.7845114 C85.7311528,82.9565893 87.6306475,82.9574083 88.8027254,81.7863406 C88.8033354,81.7857311 88.8039451,81.7851214 88.8045546,81.7845114 L91.7860612,78.793113 C92.9564149,77.6217497 92.9564149,75.7236651 91.7860612,74.5523018 L88.8924677,71.647843 C87.3877273,70.1418045 87.3877273,67.7014101 88.8924677,66.1953716 L89.9806275,65.1015654 C91.1516952,63.9294876 91.1508762,62.0299928 89.9787983,60.8589252 C89.677035,60.5574219 89.3144427,60.3237394 88.9152134,60.1734686 L65.0568207,51.1931213 C63.5061756,50.6094554 61.7759747,51.3933468 61.1923088,52.9439919 C60.9361941,53.6244204 60.9358879,54.3747041 61.1914472,55.0553414 L70.1793749,78.9931132 C70.761775,80.5442341 72.4913356,81.3295374 74.0424565,80.7471373 C74.4448157,80.5960632 74.8100174,80.3602998 75.1133355,80.0558095 Z" id="Path-11" stroke="#0B82C5" stroke-width="7" stroke-linejoin="round"></path>
    </g>
</svg>