<?xml version="1.0" encoding="UTF-8"?>
<svg width="96px" height="96px" viewBox="0 0 96 96" version="1.1" xmlns="http://www.w3.org/2000/svg" xmlns:xlink="http://www.w3.org/1999/xlink">
    <!-- Generator: Sketch 49.3 (51167) - http://www.bohemiancoding.com/sketch -->
    <title>iShare Alert XMPP Event Notification</title>
    <desc>Created with Sketch.</desc>
    <defs></defs>
    <g id="iShare-Alert-XMPP-Event-Notification" stroke="none" stroke-width="1" fill="none" fill-rule="evenodd">
        <g transform="translate(1.000000, 1.000000)" fill="#1182C5" id="Page-1">
            <g>
                <path d="M31.26,66.46 C32.86,68 34.57,69.47 36.41,70.87 C37.6,71.77 38.84,72.65 40.13,73.5 C40.77,73.91 41.42,74.33 42.08,74.73 C42.71,75.11 43.36,75.48 44.01,75.85 C43.19,75.62 42.39,75.37 41.6,75.12 C40.59,74.8 39.61,74.47 38.64,74.13 C37.16,73.6 35.73,73.04 34.35,72.46 C31.94,71.43 29.68,70.32 27.59,69.12 C13.62,61.12 6.72,49.24 6.72,33.35 L6.72,6.78 L15.74,6.78 L15.74,30.92 L15.75,31.09 C16.48,45.4 21.68,57.21 31.26,66.46 M93.01,1.04 C92.33,0.52 91.47,0.19 90.53,0.19 L60.35,0.19 C58.18,0.19 56.42,1.83 56.42,3.86 L56.42,33.35 C56.42,37.87 55.7,42.18 54.36,46.29 C53.53,48.83 52.46,51.29 51.17,53.66 C50.04,55.75 48.74,57.77 47.29,59.71 C46.49,58.64 45.72,57.55 45.01,56.43 C44.45,55.54 43.92,54.63 43.42,53.71 C41.64,50.45 40.26,47.01 39.35,43.42 C38.53,40.14 38.08,36.75 38.08,33.23 L38.08,3.95 C38.08,3.72 38.05,3.5 38.02,3.29 C37.93,2.78 37.75,2.3 37.49,1.88 C36.79,0.75 35.56,0 34.15,0 L3.93,0 C1.8,0 0.08,1.7 0.01,3.82 C0.01,3.86 0,3.9 0,3.95 L0,33.23 C0,33.4 0.01,33.56 0.01,33.72 C0.05,38.77 0.7,43.47 1.95,47.81 C2.27,48.91 2.62,49.99 3.01,51.04 C6.33,59.96 12.41,67.27 21.26,72.97 C23.35,74.32 25.61,75.58 28.01,76.74 C27.85,76.84 27.69,76.94 27.53,77.03 C25.47,78.28 23.33,79.44 21.12,80.54 C18.1,82.03 14.97,83.38 11.74,84.58 C9.9,85.27 10.44,88 12.4,87.91 C19.85,87.6 26.77,86.99 33.2,86.08 C37.34,85.5 41.29,84.81 45.01,83.98 C45.52,83.87 46.01,83.75 46.51,83.63 L47.29,83.45 C47.57,83.38 47.86,83.32 48.14,83.25 C47.65,82.15 47.23,81 46.89,79.83 C46.7,79.16 46.53,78.49 46.4,77.81 C46.35,77.57 46.31,77.32 46.26,77.08 C46.24,77.06 46.21,77.05 46.18,77.03 C46.21,77.03 46.23,77.02 46.25,77.02 C46.22,76.83 46.19,76.64 46.16,76.46 C45.98,75.22 45.88,73.96 45.88,72.68 C45.88,72.19 45.9,71.7 45.93,71.22 C45.94,71.03 45.96,70.84 45.97,70.66 C46,70.27 46.04,69.88 46.09,69.49 C45.72,69.28 45.37,69.05 45.01,68.83 C43.76,68.06 42.55,67.26 41.4,66.43 C39.55,65.09 37.83,63.67 36.25,62.18 C27.6,54.03 23,43.64 22.33,30.84 L22.33,6.78 L31.61,6.78 L31.61,33.35 C31.61,42.48 34.16,51.24 39.08,59.28 C40.24,61.17 41.55,63.02 42.97,64.83 C43.62,65.66 44.3,66.48 45.01,67.29 C45.4,67.74 45.79,68.2 46.2,68.64 C46.4,67.38 46.68,66.15 47.05,64.95 C47.39,63.86 47.81,62.8 48.29,61.77 C48.36,61.61 48.43,61.45 48.51,61.29 C49.55,59.17 50.88,57.21 52.43,55.46 C52.92,54.91 53.43,54.38 53.96,53.87 C55.82,52.11 57.93,50.62 60.24,49.47 C60.61,48.42 60.94,47.36 61.23,46.29 C62.4,42.09 63.01,37.76 63.01,33.35 L63.01,6.78 L71.72,6.78 L71.72,31.04 C71.42,36.57 70.38,41.64 68.6,46.29 C68.53,46.48 68.46,46.67 68.38,46.87 C69.67,46.66 70.99,46.56 72.34,46.56 C73.38,46.56 74.41,46.63 75.43,46.75 C75.48,46.6 75.53,46.44 75.58,46.29 C77.11,41.64 78.02,36.64 78.3,31.29 L78.3,6.78 L87.87,6.78 L87.87,33.35 C87.87,38.01 87.28,42.32 86.09,46.29 C85.73,47.51 85.3,48.69 84.82,49.85 C86.82,50.98 88.65,52.37 90.27,53.98 C91.38,51.55 92.27,48.98 92.94,46.29 C92.96,46.2 92.99,46.11 93.01,46.02 C93.96,42.07 94.46,37.86 94.46,33.35 L94.46,3.86 C94.46,2.72 93.89,1.71 93.01,1.04" id="Fill-1"></path>
                <path d="M66.4,79.4 C65.8,78.86 65.26,78.25 64.81,77.57 C64.79,77.53 64.77,77.49 64.74,77.45 C64.44,76.98 64.18,76.49 63.97,75.98 C63.81,75.61 63.69,75.23 63.58,74.83 C63.36,74.03 63.24,73.19 63.24,72.31 C63.24,71.89 63.27,71.48 63.33,71.07 C63.5,69.74 63.95,68.5 64.61,67.4 C66.28,64.62 69.32,62.76 72.8,62.76 L72.8,51.85 L71.25,51.85 C69.57,51.86 68.5,52.91 68.48,54.6 C68.47,55.58 68.48,56.57 68.48,57.52 C67.56,57.9 66.69,58.23 65.85,58.64 C65.7,58.72 65.57,58.75 65.46,58.75 C65.28,58.75 65.13,58.66 64.96,58.48 C64.39,57.88 63.8,57.29 63.2,56.73 C63.12,56.65 63.03,56.59 62.94,56.52 C62.42,56.11 61.85,55.89 61.28,55.89 C60.62,55.89 59.97,56.16 59.39,56.71 C58.6,57.46 57.82,58.24 57.07,59.04 C56.73,59.39 56.52,59.78 56.39,60.18 C56.12,61.05 56.35,61.98 57.1,62.76 C57.12,62.78 57.15,62.8 57.17,62.83 C57.74,63.41 58.34,63.98 58.9,64.58 C59.05,64.75 59.18,65.07 59.12,65.25 C58.76,66.18 58.33,67.1 57.9,68.07 C57.29,68.07 56.67,68.06 56.05,68.06 C55.67,68.06 55.29,68.06 54.91,68.08 L54.89,68.08 C54.61,68.08 54.35,68.13 54.11,68.2 C53.09,68.49 52.42,69.28 52.28,70.38 C52.25,70.61 52.24,70.84 52.26,71.1 C52.3,71.65 52.31,72.2 52.3,72.74 C52.29,73.05 52.28,73.36 52.26,73.67 C52.23,73.97 52.26,74.25 52.3,74.51 L52.33,74.54 C52.32,74.54 52.32,74.54 52.31,74.55 C52.36,74.81 52.43,75.05 52.54,75.28 C52.96,76.13 53.8,76.67 54.9,76.69 C54.93,76.7 54.96,76.69 54.99,76.7 L55.36,76.7 C55.72,76.7 56.08,76.69 56.45,76.69 C56.93,76.69 57.42,76.7 57.9,76.76 C58.39,77.55 58.62,78.48 59.04,79.31 C59.17,79.56 59.18,79.75 59.1,79.92 C59.05,80.04 58.97,80.14 58.85,80.26 C58.29,80.78 57.76,81.32 57.23,81.88 C57.21,81.9 57.18,81.93 57.16,81.96 C57.022,82.105 56.885,82.251 56.75,82.398 C55.979,83.238 55.986,84.516 56.747,85.366 L56.76,85.38 C56.86,85.48 56.95,85.59 57.05,85.7 C57.51,86.19 57.97,86.66 58.45,87.13 C58.8,87.48 59.15,87.83 59.51,88.17 C59.56,88.22 59.61,88.25 59.66,88.29 C60.14,88.68 60.7,88.88 61.27,88.88 C61.84,88.88 62.41,88.67 62.9,88.29 C62.98,88.23 63.06,88.17 63.13,88.1 C63.58,87.68 64.06,87.28 64.43,86.79 C64.45,86.76 64.48,86.74 64.5,86.71 C64.56,86.64 64.62,86.57 64.67,86.51 C64.95,86.23 65.23,86.08 65.55,86.08 C65.83,86.08 66.14,86.19 66.49,86.42 C66.77,86.61 67.14,86.72 67.49,86.85 C67.68,86.91 67.86,86.98 68.02,87.07 C68.18,87.15 68.31,87.26 68.39,87.39 C68.54,87.63 68.58,87.95 68.57,88.29 C68.57,88.71 68.5,89.18 68.47,89.59 C68.32,91.51 69.26,92.75 71.5,93.29 L72.8,93.29 L72.8,81.87 C72.28,81.87 71.79,81.82 71.3,81.74 C69.43,81.44 67.75,80.61 66.4,79.4" id="Fill-3"></path>
                <path d="M71.92,70.41 C71.59,70.85 71.44,71.37 71.46,71.88 C71.48,72.52 71.77,73.15 72.3,73.58 C72.32,73.6 72.34,73.62 72.36,73.64 C73.17,74.26 76.07,75.62 77.59,75.62 C77.88,75.62 78.1,75.55 78.26,75.44 C78.31,75.41 78.38,75.39 78.42,75.34 C78.99,74.58 77.43,72.35 76.18,70.97 C75.77,70.52 75.4,70.16 75.15,69.97 C74.73,69.65 74.24,69.5 73.76,69.5 C73.06,69.5 72.37,69.81 71.92,70.41" id="Fill-5"></path>
                <path d="M91.83,64.45 C90.91,62.14 89.62,60.05 88.01,58.25 C86.5,56.56 84.73,55.14 82.76,54.05 C80.94,53.05 78.96,52.32 76.86,51.95 C76.86,51.95 78.89,53.72 81.04,56.75 C82.28,58.5 83.56,60.67 84.51,63.16 C85.44,65.58 86.06,68.32 86.02,71.26 C86.01,71.64 86,72.01 85.97,72.39 C85.83,74.46 85.16,76.38 84.09,77.95 C82.46,80.36 79.91,81.93 76.86,81.93 L76.86,92.83 C80.4,92.21 83.62,90.6 86.26,88.29 C86.33,88.23 86.39,88.16 86.45,88.1 C86.47,88.08 86.49,88.07 86.51,88.05 C86.93,87.66 87.34,87.26 87.73,86.84 C87.87,86.69 88,86.54 88.13,86.39 L88.14,86.39 C89.63,84.68 90.85,82.72 91.73,80.57 C92.3,79.19 92.74,77.75 93.01,76.24 C93.23,74.99 93.35,73.71 93.35,72.39 C93.35,71.07 93.23,69.79 93.01,68.54 C92.75,67.12 92.35,65.75 91.83,64.45" id="Fill-7"></path>
            </g>
        </g>
    </g>
</svg>