<?xml version="1.0" encoding="UTF-8"?>
<svg width="96px" height="96px" viewBox="0 0 96 96" version="1.1" xmlns="http://www.w3.org/2000/svg" xmlns:xlink="http://www.w3.org/1999/xlink">
    <!-- Generator: Sketch 49.3 (51167) - http://www.bohemiancoding.com/sketch -->
    <title>iShare Alert</title>
    <desc>Created with Sketch.</desc>
    <defs>
        <polygon id="path-1" points="0 0.921 50.3088 0.921 50.3088 94.9995 0 94.9995"></polygon>
    </defs>
    <g id="iShare-Alert" stroke="none" stroke-width="1" fill="none" fill-rule="evenodd">
        <g transform="translate(1.000000, 0.000000)" id="Page-1">
            <g>
                <g id="Group-3" transform="translate(0.000000, 0.079100)">
                    <mask id="mask-2" fill="white">
                        <use xlink:href="#path-1"></use>
                    </mask>
                    <g id="Clip-2"></g>
                    <path d="M14.8618,31.5605 C14.8618,31.5615 14.8618,31.5615 14.8618,31.5615 C14.8618,31.5615 14.8618,31.5615 14.8618,31.5605 Z M12.8928,59.6265 C12.8938,59.6285 12.8948,59.6315 12.8968,59.6345 C12.8958,59.6315 12.8938,59.6285 12.8928,59.6265 Z M42.6888,88.4725 L43.7348,88.4725 L43.7818,71.2375 C43.7818,71.2115 43.7638,71.2035 43.7638,71.2035 C32.1618,69.5845 23.4168,59.5245 23.4168,47.7995 C23.4168,35.9745 32.1348,26.0035 43.7818,24.3965 L43.7638,7.4505 C41.9548,7.4575 41.1398,8.2685 41.1178,10.0795 C41.0998,11.5225 41.1048,12.9655 41.1098,14.3805 L41.1128,18.4335 L39.1158,19.2745 C38.5278,19.5225 37.9468,19.7595 37.3748,19.9935 C36.0688,20.5255 34.8368,21.0285 33.6808,21.5955 C31.7578,22.5375 29.4418,22.1185 27.9708,20.5615 C26.7028,19.2215 25.5248,18.0425 24.3678,16.9575 C23.1098,15.7815 21.9548,15.7655 20.7378,16.9145 C19.1578,18.4065 17.5808,19.9855 15.9188,21.7435 C15.0118,22.7025 15.0268,24.2075 15.9468,25.1555 C16.4258,25.6495 16.9148,26.1335 17.4028,26.6185 C18.2078,27.4165 19.0398,28.2435 19.8438,29.1205 C20.6188,29.9645 21.7198,31.9215 20.9528,33.9105 C20.3528,35.4665 19.6678,37.0025 19.0058,38.4875 C18.7738,39.0075 18.5398,39.5335 18.3058,40.0675 C17.7858,41.2535 16.6118,42.0205 15.3168,42.0205 C14.6688,42.0205 14.0138,42.0165 13.3538,42.0115 C11.9178,42.0005 10.4348,41.9895 8.9938,42.0315 C7.6278,42.0715 6.5438,43.2025 6.5368,44.5685 C6.5258,46.8325 6.5258,49.0985 6.5378,51.3625 C6.5448,52.7015 7.6498,53.8405 8.9878,53.8715 C9.6678,53.8865 10.3478,53.8805 11.0288,53.8725 C12.1788,53.8645 13.3708,53.8535 14.5978,53.9325 C16.3108,54.0445 17.9798,55.1755 18.7508,56.7475 C19.1618,57.5815 19.4798,58.4015 19.7878,59.1945 C20.0718,59.9275 20.3408,60.6205 20.6478,61.2265 C21.2758,62.4605 21.9728,64.8755 19.5628,67.1255 C18.2988,68.3055 17.0518,69.5555 15.8578,70.8425 C15.0078,71.7575 14.9838,73.1645 15.8018,74.0465 C17.3888,75.7545 19.1288,77.4905 20.9718,79.2045 C21.9298,80.0955 23.1988,80.0515 24.2068,79.0915 C24.4418,78.8685 24.6808,78.6475 24.9198,78.4265 C25.5738,77.8235 26.1908,77.2535 26.6128,76.6955 C28.9678,73.5725 32.1728,73.0085 35.4058,75.1505 C35.5748,75.2625 36.1188,75.4475 36.4788,75.5705 C37.7218,75.9935 39.4238,76.5725 40.4408,78.2185 C41.6038,80.1025 41.3628,82.2545 41.1698,83.9845 C41.1358,84.2875 41.1018,84.5855 41.0798,84.8725 C40.9408,86.6835 41.3838,87.7165 42.6888,88.4725 Z M43.7348,94.9995 L41.2168,94.9995 L40.5798,94.7135 C36.3388,92.8105 34.2048,89.1365 34.5708,84.3705 C34.5988,84.0115 34.6398,83.6375 34.6828,83.2585 C34.7258,82.8745 34.7878,82.3175 34.8018,81.8975 C34.6548,81.8445 34.5018,81.7925 34.3748,81.7495 C33.6268,81.4955 32.6968,81.1785 31.8338,80.6145 C31.8298,80.6185 31.8268,80.6235 31.8238,80.6265 C31.0488,81.6555 30.1438,82.4895 29.3458,83.2245 C29.1328,83.4215 28.9198,83.6185 28.7108,83.8165 C25.2288,87.1355 19.9898,87.2075 16.5258,83.9835 C14.5678,82.1635 12.7138,80.3145 11.0188,78.4895 C7.8878,75.1165 7.9118,69.8075 11.0728,66.4015 C12.1258,65.2675 13.2148,64.1605 14.3218,63.0975 C14.0958,62.5735 13.8968,62.0585 13.7008,61.5555 C13.5468,61.1575 13.3978,60.7715 13.2438,60.4065 C12.5488,60.3885 11.8328,60.3935 11.0868,60.4015 C10.3408,60.4075 9.5938,60.4135 8.8488,60.3985 C3.9998,60.2945 0.0348,56.2675 0.0088,51.4205 C-0.0032,49.1225 -0.0032,46.8215 0.0088,44.5215 C0.0358,39.3565 3.6558,35.6495 8.8138,35.5055 C10.2988,35.4635 11.7708,35.4735 13.1988,35.4825 C13.6038,34.5725 13.9938,33.6905 14.3578,32.8155 C13.8608,32.2995 13.3418,31.7865 12.8038,31.2515 C12.2868,30.7385 11.7698,30.2245 11.2618,29.7025 C7.7268,26.0605 7.6908,20.9435 11.1758,17.2575 C12.9248,15.4095 14.5868,13.7445 16.2578,12.1665 C19.9958,8.6415 25.0478,8.6525 28.8298,12.1935 C29.8308,13.1305 30.8408,14.1275 31.8978,15.2215 C32.7958,14.8165 33.6968,14.4445 34.5798,14.0825 C34.5758,12.7375 34.5738,11.3695 34.5908,10.0005 C34.6548,4.5915 38.3308,0.9435 43.7378,0.9225 L44.4288,0.9205 L44.4348,0.9205 C45.9998,0.9205 47.4738,1.5315 48.5848,2.6405 C49.6968,3.7515 50.3088,5.2295 50.3088,6.8025 L50.3088,24.9825 C50.3088,27.9575 48.0478,30.4655 45.0488,30.8155 C36.4378,31.8155 29.9448,39.1165 29.9448,47.7995 C29.9448,56.2855 36.2708,63.5665 44.6598,64.7365 C47.8808,65.1835 50.3088,67.9785 50.3088,71.2375 L50.3088,88.4255 C50.3088,92.0505 47.3598,94.9995 43.7348,94.9995 Z" id="Fill-1" fill="#1182C5" mask="url(#mask-2)"></path>
                </g>
                <path d="M49.0903,44.1025 C48.2763,44.1025 47.4713,44.4685 46.9423,45.1655 C46.5083,45.7385 46.3223,46.4455 46.4203,47.1575 C46.5183,47.8695 46.8873,48.5005 47.4593,48.9345 C49.3633,50.3815 54.6733,52.5395 56.9023,52.7225 C56.1253,50.6265 52.6173,46.0935 50.7123,44.6475 C50.2283,44.2805 49.6563,44.1025 49.0903,44.1025 M57.2383,57.1605 C55.5173,57.1605 53.5953,56.5885 52.0213,56.0345 C49.2973,55.0725 46.1823,53.5405 44.7753,52.4725 C43.2583,51.3225 42.2793,49.6485 42.0203,47.7615 C41.7613,45.8735 42.2533,43.9985 43.4043,42.4815 C45.7823,39.3485 50.2653,38.7365 53.3973,41.1095 C54.5363,41.9745 64.0953,51.2975 60.7803,55.6655 C59.9433,56.7715 58.6583,57.1605 57.2383,57.1605" id="Fill-4" fill="#1182C5"></path>
                <path d="M58.8959,71.3379 L58.8959,87.5959 C75.6559,82.8039 87.6339,66.4789 87.6339,48.0429 C87.6339,32.4019 78.9939,18.2589 66.1269,11.4139 C72.2049,19.5899 79.3739,32.7309 78.2929,48.2619 C77.4579,60.2709 69.3979,69.7459 58.8959,71.3379 M57.3989,94.4199 C56.3019,94.4199 55.2319,94.0509 54.3519,93.3519 C53.1789,92.4179 52.5049,91.0239 52.5049,89.5249 L52.5049,69.9969 C52.5049,67.4799 54.4689,65.3429 56.9749,65.1329 C64.9839,64.4639 71.2669,57.1819 71.9179,47.8179 C73.2849,28.1809 59.3439,12.5779 55.0399,8.2639 C53.8199,7.0429 53.5649,5.2069 54.4049,3.6959 C55.2479,2.1819 56.9429,1.4259 58.6339,1.8219 C79.1419,6.6259 94.0249,26.0649 94.0249,48.0429 C94.0249,70.0839 79.0899,89.5339 58.5149,94.2919 C58.1439,94.3769 57.7699,94.4199 57.3989,94.4199" id="Fill-6" fill="#1182C5"></path>
            </g>
        </g>
    </g>
</svg>