<?xml version="1.0" encoding="UTF-8"?>
<svg width="96px" height="96px" viewBox="0 0 96 96" version="1.1" xmlns="http://www.w3.org/2000/svg" xmlns:xlink="http://www.w3.org/1999/xlink">
    <!-- Generator: Sketch 49.3 (51167) - http://www.bohemiancoding.com/sketch -->
    <title>iSupport personal</title>
    <desc>Created with Sketch.</desc>
    <defs></defs>
    <g id="iSupport-personal" stroke="none" stroke-width="1" fill="none" fill-rule="evenodd">
        <g transform="translate(-1.000000, 0.000000)" fill-rule="nonzero">
            <g id="iProfile-Subscriber" transform="translate(19.000000, 0.000000)" fill="#0B82C5">
                <g id="Oval-2" transform="translate(37.000000, 57.000000)">
                    <path d="M1.6,0.6 C1.3,0.9 1.1,1.1 0.8,1.4 C1.1,1.1 1.3,0.8 1.6,0.6 Z" id="Shape"></path>
                </g>
                <g id="Oval-4">
                    <path d="M22.9,0.5 C10.5,0.5 0.3,10.5 0.3,22.8 C0.3,35.1 10.4,45.2 22.9,45.2 C35.4,45.2 45.5,35.2 45.5,22.8 C45.5,10.5 35.4,0.5 22.9,0.5 Z M22.9,38.2 C14.3,38.2 7.3,31.3 7.3,22.8 C7.3,14.3 14.3,7.5 22.9,7.5 C31.5,7.5 38.5,14.4 38.5,22.8 C38.5,31.3 31.5,38.2 22.9,38.2 Z" id="Shape"></path>
                </g>
            </g>
            <g id="Combined-Shape-Copy-2" transform="translate(0.000000, 48.000000)">
                <g id="Group" transform="translate(54.000000, 6.000000)" fill="#FFFFFF">
                    <path d="M17,13 C16.4,12.4 16,11.5 16,10.5 C16,9.5 16.4,8.7 17,8 C17.6,7.4 18.5,7 19.5,7 C21.4,7 23,8.6 23,10.5 C23,11.5 22.6,12.3 22,13 C21.4,13.6 20.5,14 19.5,14 C18.5,14 17.7,13.6 17,13 Z" id="Shape"></path>
                    <path d="M24,20 L24,29 C24,31.2 22.2,33 20,33 C17.8,33 16,31.2 16,29 L16,20 C16,17.8 17.8,16 20,16 C22.2,16 24,17.8 24,20 Z" id="Shape"></path>
                    <path d="M36.9,5.2 C37.6,6 38.2,6.9 38.8,7.8 C38.2,6.9 37.5,6 36.9,5.2 Z M38.7,31.2 C38.1,32.1 37.5,33 36.8,33.8 C37.5,33 38.2,32.1 38.7,31.2 Z M35.4,35.4 C35.6,35.2 35.9,34.9 36.1,34.6 C35.9,34.9 35.7,35.2 35.4,35.4 Z M34.6,2.8 C33.5,1.8 32.4,1 31.1,0.2 C32.4,1 33.6,1.9 34.6,2.8 Z M34.6,36.2 C33.5,37.2 32.4,38 31.1,38.8 C32.4,38 33.6,37.1 34.6,36.2 Z M7.8,38.7 C6.6,37.9 5.4,37.1 4.3,36.1 C5.4,37.1 6.6,38 7.8,38.7 Z M2.8,4.4 C3,4.1 3.3,3.9 3.6,3.6 C3.3,3.8 3.1,4.1 2.8,4.4 Z M3.6,35.4 C3.4,35.1 3.1,34.9 2.9,34.6 C3.1,34.9 3.3,35.2 3.6,35.4 Z M2.1,5.2 C2.3,5 2.4,4.8 2.6,4.6 C2.5,4.8 2.3,5 2.1,5.2 Z M2.1,5.2 C1.4,6 0.8,6.9 0.2,7.8 C0.8,6.9 1.5,6 2.1,5.2 Z M2.1,33.8 C1.4,33 0.8,32.1 0.2,31.2 C0.8,32.1 1.5,33 2.1,33.8 Z" id="Shape"></path>
                </g>
                <path d="M92.7,13.8 C92.1,12.9 91.5,12 90.8,11.2 C90.6,10.9 90.3,10.6 90.1,10.4 C89.9,10.1 89.6,9.9 89.3,9.6 C89.1,9.4 88.8,9.1 88.5,8.9 C88.5,8.9 88.5,8.9 88.5,8.9 C87.4,7.9 86.3,7.1 85,6.3 C81.6,4.2 77.6,3 73.3,3 C69.3,3 65.6,4 62.4,5.8 C62.2,5.6 62,5.5 61.8,5.3 C57.4,2.9 52.6,1.4 47.7,0.7 C45.9,0.5 44,0.3 42.1,0.3 C18.9,0.5 0,19.5 0,43 C0,44.9 1.6,46.5 3.5,46.5 C5.5,46.5 7,44.9 7,43 C7,23.4 22.8,7.5 42.2,7.5 C43.8,7.5 45.3,7.6 46.9,7.8 C50.3,8.2 53.6,9.2 56.7,10.6 C56.5,10.8 56.4,11 56.2,11.2 C55.5,12 54.9,12.9 54.3,13.8 C52.2,17.2 51,21.2 51,25.5 C51,29.8 52.2,33.8 54.3,37.2 C54.9,38.1 55.5,39 56.2,39.8 C56.4,40.1 56.7,40.4 56.9,40.6 C57.1,40.9 57.4,41.1 57.7,41.4 C57.9,41.6 58.2,41.9 58.5,42.1 C58.5,42.1 58.5,42.1 58.5,42.1 C59.6,43.1 60.7,43.9 62,44.7 C65.4,46.8 69.4,48 73.7,48 C78,48 82,46.8 85.4,44.7 C86.6,43.9 87.8,43.1 88.9,42.1 C88.9,42.1 88.9,42.1 88.9,42.1 C89.2,41.9 89.4,41.6 89.7,41.4 C90,41.1 90.2,40.9 90.5,40.6 C90.7,40.3 91,40.1 91.2,39.8 C91.9,39 92.5,38.1 93.1,37.2 C95.2,33.8 96.4,29.8 96.4,25.5 C96.4,21.2 94.8,17.2 92.7,13.8 Z M57.6,9.6 C57.4,9.9 57.1,10.1 56.9,10.4 C57.1,10.1 57.3,9.8 57.6,9.6 Z M73.5,41 C65,41 58,34 58,25.5 C58,17 65,10 73.5,10 C82,10 89,17 89,25.5 C89,34 82,41 73.5,41 Z" id="Shape" fill="#0B82C5"></path>
            </g>
            <path d="M77,64.5 C77,65.5 76.6,66.3 76,67 C75.4,67.6 74.5,68 73.5,68 C72.5,68 71.7,67.6 71,67 C70.4,66.4 70,65.5 70,64.5 C70,63.5 70.4,62.7 71,62 C71.6,61.4 72.5,61 73.5,61 C75.4,61 77,62.6 77,64.5 Z" id="Shape" fill="#0B82C5"></path>
            <g id="Rectangle-Copy-2" transform="translate(70.000000, 70.000000)" fill="#0B82C5">
                <path d="M8,4 L8,13 C8,15.2 6.2,17 4,17 C1.8,17 0,15.2 0,13 L0,4 C0,1.8 1.8,0 4,0 C6.2,0 8,1.8 8,4 Z" id="Shape"></path>
            </g>
        </g>
    </g>
</svg>