<?xml version="1.0" encoding="UTF-8"?>
<svg width="96px" height="96px" viewBox="0 0 96 96" version="1.1" xmlns="http://www.w3.org/2000/svg" xmlns:xlink="http://www.w3.org/1999/xlink">
    <!-- Generator: Sketch 49.3 (51167) - http://www.bohemiancoding.com/sketch -->
    <title>iSupport bussines</title>
    <desc>Created with Sketch.</desc>
    <defs></defs>
    <g id="iSupport-bussines" stroke="none" stroke-width="1" fill="none" fill-rule="evenodd">
        <g transform="translate(-1.000000, 0.000000)" fill-rule="nonzero">
            <g id="Rectangle-7">
                <path d="M57.6,57.6 C57.5,57.7 57.3,57.9 57.2,58 C57.3,57.8 57.5,57.7 57.6,57.6 Z" id="Shape" fill="#FFFFFF"></path>
                <g id="Group" fill="#0B82C5">
                    <path d="M92.7,61.8 C92.1,60.9 91.5,60 90.8,59.2 C90.6,58.9 90.3,58.6 90.1,58.4 C90,58.3 89.9,58.1 89.7,58 C89.6,57.9 89.5,57.7 89.3,57.6 C89.1,57.4 88.8,57.1 88.5,56.9 C88.5,56.9 88.5,56.9 88.5,56.9 C87.4,55.9 86.3,55.1 85,54.3 C82.3,52.6 79.2,51.5 75.8,51.2 L75.8,21 C75.8,18.8 74,17 71.8,17 L58,17 C56.6,11.3 52.9,6.2 47.3,3.3 C37,-2.2 24.1,1.7 18.6,12.1 C17.8,13.7 17.1,15.3 16.7,17 L4,17 C1.8,17 0,18.8 0,21 L0,74 C0,76.2 1.8,78 4,78 L51.5,78 C52,80.6 53,83 54.3,85.2 C54.9,86.1 55.5,87 56.2,87.8 C56.4,88.1 56.7,88.4 56.9,88.6 C57,88.7 57.1,88.9 57.3,89 C57.5,89.1 57.5,89.3 57.7,89.4 C57.9,89.6 58.2,89.9 58.5,90.1 C58.5,90.1 58.5,90.1 58.5,90.1 C59.6,91.1 60.7,91.9 62,92.7 C65.4,94.8 69.4,96 73.7,96 C78,96 82,94.8 85.4,92.7 C86.6,91.9 87.8,91.1 88.9,90.1 C88.9,90.1 88.9,90.1 88.9,90.1 C89.2,89.9 89.4,89.6 89.7,89.4 C89.8,89.3 90,89.1 90.1,89 C90.2,88.9 90.3,88.7 90.5,88.6 C90.7,88.3 91,88.1 91.2,87.8 C91.9,87 92.5,86.1 93.1,85.2 C95.2,81.8 96.4,77.8 96.4,73.5 C96.4,69.2 94.8,65.2 92.7,61.8 Z M24.8,15.3 C28.5,8.3 37.2,5.7 44.1,9.4 C47.3,11.1 49.6,13.8 50.7,17 L24,17 C24.2,16.4 24.5,15.9 24.8,15.3 Z M7,24.5 C7,24.2 7.2,24 7.5,24 L68.5,24 C68.8,24 69,24.2 69,24.5 L69,38.4 C60.2,41.3 51.1,42.9 42,43.2 L42,43 C42,40.8 40.2,39 38,39 C35.8,39 34,40.8 34,43 L34,43.1 C25.2,42.7 16.2,41.1 7,38.3 L7,24.5 Z M57.2,58 C57.1,58.1 57,58.3 56.8,58.4 C56.6,58.7 56.3,58.9 56.1,59.2 C55.4,60 54.8,60.9 54.2,61.8 C52.5,64.5 51.4,67.6 51.1,71 L7.5,71 C7.2,71 7,70.8 7,70.5 L7,45.6 C16.1,48.2 25.2,49.8 34,50.2 L34,51 C34,52.1 34.5,53.1 35.2,53.8 C35.9,54.5 36.9,55 38,55 C40.2,55 42,53.2 42,51 L42,50.2 C51.1,49.9 60.1,48.4 69,45.7 L69,51.5 C66.4,52 64,53 61.8,54.3 C60.6,55.1 59.4,55.9 58.3,56.9 C58.3,56.9 58.3,56.9 58.3,56.9 C58,57.1 57.8,57.4 57.5,57.6 C57.5,57.7 57.3,57.8 57.2,58 Z M73.5,89 C66.5,89 60.6,84.4 58.7,78 C58.3,76.6 58,75.1 58,73.5 C58,72.7 58.1,71.8 58.2,71 C59.2,65.1 63.4,60.4 69,58.7 C70.4,58.3 71.9,58 73.5,58 C74.4,58 75.2,58.1 76,58.2 C83.4,59.4 89,65.8 89,73.5 C89,82 82,89 73.5,89 Z" id="Shape"></path>
                    <path d="M77,64.5 C77,65.5 76.6,66.3 76,66.9 C76,66.9 76,66.9 76,66.9 C75.4,67.5 74.5,67.9 73.5,67.9 C72.5,67.9 71.7,67.5 71,66.9 C70.4,66.3 70,65.4 70,64.4 C70,63.4 70.4,62.6 71,61.9 C71.6,61.3 72.5,60.9 73.5,60.9 C74.5,60.9 75.4,61.3 76,62 C76.6,62.7 77,63.5 77,64.5 Z" id="Shape"></path>
                </g>
            </g>
            <g id="Combined-Shape-Copy" transform="translate(57.000000, 57.000000)" fill="#FFFFFF">
                <path d="M33.9,2.2 C34.6,3 35.2,3.9 35.8,4.8 C35.2,3.9 34.5,3 33.9,2.2 Z M33.9,30.8 C34.6,30 35.2,29.1 35.8,28.2 C35.2,29.1 34.5,30 33.9,30.8 Z M32.4,32.4 C32.5,32.3 32.7,32.1 32.8,32 C32.7,32.2 32.5,32.3 32.4,32.4 Z M0.6,0.6 C0.5,0.7 0.4,0.9 0.2,1 C0.3,0.8 0.5,0.7 0.6,0.6 Z M0.2,32 C0.3,32.1 0.4,32.3 0.6,32.4 C0.5,32.3 0.3,32.2 0.2,32 Z" id="Shape"></path>
            </g>
            <g id="Rectangle-Copy_1_" transform="translate(70.000000, 70.000000)" fill="#0B82C5">
                <path d="M8,4 L8,13 C8,15.2 6.2,17 4,17 C1.8,17 0,15.2 0,13 L0,4 C0,1.8 1.8,0 4,0 C4.7,0 5.4,0.2 6,0.5 C7.2,1.2 8,2.5 8,4 Z" id="Shape"></path>
            </g>
        </g>
    </g>
</svg>