<?xml version="1.0" encoding="UTF-8"?>
<svg width="96px" height="96px" viewBox="0 0 96 96" version="1.1" xmlns="http://www.w3.org/2000/svg" xmlns:xlink="http://www.w3.org/1999/xlink">
    <!-- Generator: Sketch 49.3 (51167) - http://www.bohemiancoding.com/sketch -->
    <title>iSupport</title>
    <desc>Created with Sketch.</desc>
    <defs></defs>
    <g id="iSupport" stroke="none" stroke-width="1" fill="none" fill-rule="evenodd">
        <g transform="translate(3.000000, 3.000000)" fill="#0B82C5" fill-rule="nonzero">
            <path d="M45,4 C22.3563253,4 4,22.3563253 4,45 C4,67.6436747 22.3563253,86 45,86 C67.6436747,86 86,67.6436747 86,45 C86,22.3563253 67.6436747,4 45,4 Z M45,-3 C71.509668,-3 93,18.490332 93,45 C93,71.509668 71.509668,93 45,93 C18.490332,93 -3,71.509668 -3,45 C-3,18.490332 18.490332,-3 45,-3 Z" id="Combined-Shape"></path>
            <path d="M45,19 C43.3431458,19 42,20.3431458 42,22 C42,23.6568542 43.3431458,25 45,25 C46.6568542,25 48,23.6568542 48,22 C48,20.3431458 46.6568542,19 45,19 Z M45,12 C50.5228475,12 55,16.4771525 55,22 C55,27.5228475 50.5228475,32 45,32 C39.4771525,32 35,27.5228475 35,22 C35,16.4771525 39.4771525,12 45,12 Z" id="Combined-Shape-Copy-2"></path>
            <path d="M45,44 C43.3431458,44 42,45.3431458 42,47 L42,69 C42,70.6568542 43.3431458,72 45,72 C46.6568542,72 48,70.6568542 48,69 L48,47 C48,45.3431458 46.6568542,44 45,44 Z M45,37 C50.5228475,37 55,41.4771525 55,47 L55,69 C55,74.5228475 50.5228475,79 45,79 C39.4771525,79 35,74.5228475 35,69 L35,47 C35,41.4771525 39.4771525,37 45,37 Z" id="Rectangle"></path>
        </g>
    </g>
</svg>