<?xml version="1.0" encoding="UTF-8"?>
<svg width="96px" height="96px" viewBox="0 0 96 96" version="1.1" xmlns="http://www.w3.org/2000/svg" xmlns:xlink="http://www.w3.org/1999/xlink">
    <!-- Generator: Sketch 49.3 (51167) - http://www.bohemiancoding.com/sketch -->
    <title>iSupport overview</title>
    <desc>Created with Sketch.</desc>
    <defs></defs>
    <g id="iSupport-overview" stroke="none" stroke-width="1" fill="none" fill-rule="evenodd">
        <g transform="translate(6.000000, 0.000000)" fill="#0B82C5" fill-rule="nonzero">
            <path d="M14.4,96 C12.8,96 11.5,95 11,93.5 C10.6,92.1 11,90.2 12.8,89.1 L13.3,88.8 C19.4,85.1 24.4,84.8 24.6,84.8 L44.1,84.5 C74.8,62.8 74.9,62.8 74.9,62.8 C76.1,62 76.4,60.4 75.7,59.2 C75.2,58.4 74.4,57.9 73.4,58 C73.1,58 72.7,58.2 72.3,58.4 C70.2,59.8 62.3,64.6 56.6,68.2 C53.2,70.3 50.4,72 49.9,72.4 C49.8,72.4 49.7,72.5 49.6,72.5 L27.3,72.5 C26.4,72.5 25.7,72.1 25.2,71.3 C24.5,70.2 24.5,68.7 25.1,67.6 C25.7,66.5 26.9,65.7 28.3,65.7 L38.3,65.7 C39.7,65.7 40.8,64.5 40.8,63.1 C40.8,61.7 39.7,60.5 38.3,60.5 C25.4,60.5 18.1,60.5 16.8,60.6 L7,70.5 C5.8,71.8 4,72.2 2.5,71.6 C1.2,71.1 0.4,69.8 0.4,68.3 C0.4,67.6 0.6,67 1,66.7 L11.9,55.5 C12,55.4 12.1,55.3 12.2,55.2 C13.4,54 15,53.4 16.7,53.4 L38.4,53.4 C43.6,53.4 47.9,57.7 47.9,63 C47.9,64.1 47.7,65.2 47.4,66.2 L68.8,52.6 C70.9,51.2 73.5,50.8 75.9,51.4 C78.4,52 80.5,53.5 81.8,55.7 C84.5,60.1 83.2,66 78.9,68.8 L47.3,90.8 C46.8,91.2 46.2,91.4 45.5,91.4 C45.2,91.4 45,91.4 44.8,91.4 L24.9,91.7 C24.9,91.7 21.6,92.1 16.9,94.7 C16,95.2 15.5,95.5 14.6,95.9 C14.5,96 14.5,96 14.4,96 Z" id="Shape"></path>
            <path d="M42,52 C27.7,52 16,40.3 16,26 C16,11.7 27.7,0 42,0 C56.3,0 68,11.7 68,26 C68,40.3 56.3,52 42,52 Z M42,7 C31.5,7 23,15.5 23,26 C23,36.5 31.5,45 42,45 C52.5,45 61,36.5 61,26 C61,15.5 52.5,7 42,7 Z" id="Shape"></path>
            <path d="M42,10 C44.2,10 46,11.8 46,14 C46,16.2 44.2,18 42,18 C39.8,18 38,16.2 38,14 C38,11.8 39.8,10 42,10 Z" id="Combined-Shape-Copy-2"></path>
            <path d="M42,42 C39.8,42 38,40.2 38,38 L38,25 C38,22.8 39.8,21 42,21 C44.2,21 46,22.8 46,25 L46,38 C46,40.2 44.2,42 42,42 Z" id="Shape"></path>
        </g>
    </g>
</svg>