<?xml version="1.0" encoding="UTF-8"?>
<svg width="96px" height="96px" viewBox="0 0 96 96" version="1.1" xmlns="http://www.w3.org/2000/svg" xmlns:xlink="http://www.w3.org/1999/xlink">
    <!-- Generator: Sketch 49.3 (51167) - http://www.bohemiancoding.com/sketch -->
    <title>iSupport enterprise</title>
    <desc>Created with Sketch.</desc>
    <defs></defs>
    <g id="iSupport-enterprise" stroke="none" stroke-width="1" fill="none" fill-rule="evenodd">
        <g fill-rule="nonzero">
            <g id="Rectangle-8" transform="translate(61.000000, 54.000000)" fill="#0B82C5">
                <path d="M0.8,0.2 C0.9,0.2 1,0.1 1.1,0 C1,0 0.9,0.1 0.8,0.2 Z" id="Shape"></path>
            </g>
            <path d="M32.4,15 C34.3,15 35.9,16.6 35.9,18.5 C35.9,20.4 34.3,22 32.4,22 C30.5,22 28.9,20.4 28.9,18.5 C28.9,16.6 30.5,15 32.4,15 Z" id="Rectangle-2" fill="#0B82C5"></path>
            <path d="M32.4,37 C34.3,37 35.9,38.6 35.9,40.5 C35.9,42.4 34.3,44 32.4,44 C30.5,44 28.9,42.4 28.9,40.5 C28.9,38.6 30.5,37 32.4,37 Z" id="Rectangle-2-Copy-6" fill="#0B82C5"></path>
            <path d="M32.4,26 C34.3,26 35.9,27.6 35.9,29.5 C35.9,31.4 34.3,33 32.4,33 C30.5,33 28.9,31.4 28.9,29.5 C28.9,27.6 30.5,26 32.4,26 Z" id="Rectangle-2-Copy" fill="#0B82C5"></path>
            <path d="M32.4,48 C34.3,48 35.9,49.6 35.9,51.5 C35.9,53.4 34.3,55 32.4,55 C30.5,55 28.9,53.4 28.9,51.5 C28.9,49.6 30.5,48 32.4,48 Z" id="Rectangle-2-Copy-7" fill="#0B82C5"></path>
            <path d="M54.3,15 C56.2,15 57.8,16.6 57.8,18.5 C57.8,20.4 56.2,22 54.3,22 C52.4,22 50.8,20.4 50.8,18.5 C50.8,16.6 52.4,15 54.3,15 Z" id="Rectangle-2-Copy-2" fill="#0B82C5"></path>
            <path d="M54.3,37 C56.2,37 57.8,38.6 57.8,40.5 C57.8,42.4 56.2,44 54.3,44 C52.4,44 50.8,42.4 50.8,40.5 C50.8,38.6 52.4,37 54.3,37 Z" id="Rectangle-2-Copy-8" fill="#0B82C5"></path>
            <path d="M54.3,26 C56.2,26 57.8,27.6 57.8,29.5 C57.8,31.4 56.2,33 54.3,33 C52.4,33 50.8,31.4 50.8,29.5 C50.8,27.6 52.4,26 54.3,26 Z" id="Rectangle-2-Copy-4" fill="#0B82C5"></path>
            <path d="M54.3,48 C56.2,48 57.8,49.6 57.8,51.5 C57.8,53.4 56.2,55 54.3,55 C52.4,55 50.8,53.4 50.8,51.5 C50.8,49.6 52.4,48 54.3,48 Z" id="Rectangle-2-Copy-9" fill="#0B82C5"></path>
            <path d="M43.4,15 C45.3,15 46.9,16.6 46.9,18.5 C46.9,20.4 45.3,22 43.4,22 C41.5,22 39.9,20.4 39.9,18.5 C39.9,16.6 41.5,15 43.4,15 Z" id="Rectangle-2-Copy-3" fill="#0B82C5"></path>
            <path d="M43.4,37 C45.3,37 46.9,38.6 46.9,40.5 C46.9,42.4 45.3,44 43.4,44 C41.5,44 39.9,42.4 39.9,40.5 C39.9,38.6 41.5,37 43.4,37 Z" id="Rectangle-2-Copy-10" fill="#0B82C5"></path>
            <path d="M43.4,26 C45.3,26 46.9,27.6 46.9,29.5 C46.9,31.4 45.3,33 43.4,33 C41.5,33 39.9,31.4 39.9,29.5 C39.9,27.6 41.5,26 43.4,26 Z" id="Rectangle-2-Copy-5" fill="#0B82C5"></path>
            <path d="M43.4,48 C45.3,48 46.9,49.6 46.9,51.5 C46.9,53.4 45.3,55 43.4,55 C41.5,55 39.9,53.4 39.9,51.5 C39.9,49.6 41.5,48 43.4,48 Z" id="Rectangle-2-Copy-11" fill="#0B82C5"></path>
            <g id="Rectangle-8-Copy-2" transform="translate(61.000000, 54.000000)" fill="#0B82C5">
                <path d="M0.8,0.2 C0.9,0.2 1,0.1 1.1,0 C1,0 0.9,0.1 0.8,0.2 Z" id="Shape"></path>
            </g>
            <g id="Combined-Shape">
                <g id="Group" transform="translate(54.000000, 53.000000)" fill="#FFFFFF">
                    <path d="M22.8,11.5 C22.8,12.5 22.4,13.3 21.8,14 C21.2,14.6 20.3,15 19.3,15 C18.3,15 17.5,14.6 16.8,14 C16.2,13.4 15.8,12.5 15.8,11.5 C15.8,10.5 16.2,9.7 16.8,9 C17.4,8.4 18.3,8 19.3,8 C21.2,8 22.8,9.6 22.8,11.5 Z" id="Shape"></path>
                    <path d="M36.6,6.2 C37.3,7 37.9,7.9 38.5,8.8 C37.9,7.9 37.2,7 36.6,6.2 Z M36.6,34.8 C37.3,34 37.9,33.1 38.5,32.2 C37.9,33.1 37.2,34 36.6,34.8 Z M35.1,36.4 C35.2,36.3 35.4,36.1 35.5,36 C35.4,36.2 35.2,36.3 35.1,36.4 Z M30.9,1.3 C32.1,2.1 33.3,2.9 34.3,3.9 C33.3,2.9 32.1,2 30.9,1.3 Z M30.9,39.7 C32.1,38.9 33.3,38.1 34.3,37.1 C33.3,38.1 32.1,39 30.9,39.7 Z M29.7,0.6 C29.8,0.6 29.8,0.7 29.9,0.7 C29.9,0.7 29.8,0.6 29.7,0.6 Z M7.8,1.2 C7.9,1.2 8,1.1 8.1,1 C8,1 7.9,1.1 7.8,1.2 Z M4.2,3.8 C5.3,2.8 6.4,2 7.7,1.2 C6.4,2 5.2,2.9 4.2,3.8 Z M4.2,37.2 C5.3,38.2 6.4,39 7.7,39.8 C6.4,39 5.2,38.1 4.2,37.2 Z M3.4,4.6 C3.3,4.7 3.2,4.9 3,5 C3.1,4.8 3.3,4.7 3.4,4.6 Z M3,36 C3.1,36.1 3.2,36.3 3.4,36.4 C3.3,36.3 3.1,36.2 3,36 Z M0.1,8.8 C0.7,7.9 1.3,7 2,6.2 C1.3,7 0.6,7.9 0.1,8.8 Z M0.1,32.2 C0.7,33.1 1.3,34 2,34.8 C1.3,34 0.6,33.1 0.1,32.2 Z" id="Shape"></path>
                </g>
                <path d="M92.4,61.8 C91.8,60.9 91.2,60 90.5,59.2 C90.3,58.9 90,58.6 89.8,58.4 C89.6,58.1 89.3,57.9 89,57.6 C88.8,57.4 88.5,57.1 88.2,56.9 C87.1,55.9 86,55.1 84.8,54.3 C84.5,54.1 84.2,53.9 83.8,53.8 C83.7,53.8 83.6,53.7 83.6,53.7 L83.6,30 C83.6,27.8 81.8,26 79.6,26 L68.8,26 L68.8,4 C68.8,1.8 67,0 64.8,0 L21.9,0 C19.7,0 17.9,1.8 17.9,4 L17.9,15 L4,15 C1.8,15 0,16.8 0,19 L0,77 C0,79.2 1.8,81 4,81 L52.1,81 C52.6,82.5 53.3,83.9 54.1,85.2 C54.7,86.1 55.3,87 56,87.8 C56.2,88.1 56.5,88.4 56.7,88.6 C56.8,88.7 56.9,88.9 57.1,89 C57.3,89.1 57.3,89.3 57.5,89.4 C57.7,89.6 58,89.9 58.3,90.1 C59.4,91.1 60.5,91.9 61.8,92.7 C65.2,94.8 69.2,96 73.5,96 C77.8,96 81.8,94.8 85.2,92.7 C86.4,91.9 87.6,91.1 88.6,90.1 C88.9,89.9 89.1,89.6 89.4,89.4 C89.5,89.3 89.7,89.1 89.8,89 C89.9,88.9 90,88.7 90.2,88.6 C90.4,88.3 90.7,88.1 90.9,87.8 C91.6,87 92.2,86.1 92.8,85.2 C94.9,81.8 96.1,77.8 96.1,73.5 C96.1,69.2 94.5,65.2 92.4,61.8 Z M17.9,74 L7,74 L7,22 L18,22 L18,74 L17.9,74 Z M76.8,33 L76.8,51.3 C75.7,51.1 74.5,51 73.3,51 C71.8,51 70.3,51.2 68.8,51.5 L68.8,33 L76.8,33 Z M57,58 C56.9,58.1 56.8,58.3 56.6,58.4 C56.4,58.7 56.1,58.9 55.9,59.2 C55.2,60 54.6,60.9 54,61.8 C51.9,65.2 50.7,69.2 50.7,73.5 C50.7,73.7 50.7,73.8 50.7,74 L47.7,74 C47.7,73.8 47.7,73.7 47.7,73.5 L47.7,63.5 C47.7,61 45.7,59 43.2,59 C40.7,59 38.8,61 38.8,63.5 L38.8,73.5 C38.8,73.7 38.8,73.8 38.8,74 L24.8,74 L24.8,7 L61.7,7 L61.7,54.2 C61.8,54.1 61.9,54.1 62,54 C61.9,54.1 61.8,54.1 61.7,54.2 C61.6,54.2 61.6,54.3 61.5,54.3 C60.3,55.1 59.1,55.9 58,56.9 C57.7,57.1 57.5,57.4 57.2,57.6 C57.3,57.7 57.1,57.8 57,58 Z M73.3,89 C67.5,89 62.4,85.8 59.7,81 C58.5,78.9 57.9,76.5 57.8,74 C57.8,73.8 57.8,73.7 57.8,73.5 C57.8,69.5 59.3,65.9 61.8,63.1 C63.7,61 66.1,59.5 68.8,58.7 C70.2,58.3 71.7,58 73.3,58 C74.5,58 75.7,58.1 76.8,58.4 C79.5,59 81.9,60.3 83.8,62.1 C86.9,64.9 88.8,69 88.8,73.5 C88.7,82 81.7,89 73.3,89 Z" id="Shape" fill="#0B82C5"></path>
            </g>
            <path d="M76.8,64.5 C76.8,65.5 76.4,66.3 75.8,67 C75.2,67.6 74.3,68 73.3,68 C72.3,68 71.5,67.6 70.8,67 C70.2,66.4 69.8,65.5 69.8,64.5 C69.8,63.5 70.2,62.7 70.8,62 C71.4,61.4 72.3,61 73.3,61 C75.2,61 76.8,62.6 76.8,64.5 Z" id="Shape" fill="#0B82C5"></path>
            <g id="Rectangle" transform="translate(69.000000, 70.000000)" fill="#0B82C5">
                <path d="M8.8,4 L8.8,13 C8.8,15.2 7,17 4.8,17 C2.6,17 0.8,15.2 0.8,13 L0.8,4 C0.8,1.8 2.6,0 4.8,0 C6,0 7.1,0.5 7.8,1.3 C8.4,2 8.8,3 8.8,4 Z" id="Shape"></path>
            </g>
        </g>
    </g>
</svg>