<?xml version="1.0" encoding="UTF-8"?>
<svg width="96px" height="96px" viewBox="0 0 96 96" version="1.1" xmlns="http://www.w3.org/2000/svg" xmlns:xlink="http://www.w3.org/1999/xlink">
    <!-- Generator: Sketch 49.3 (51167) - http://www.bohemiancoding.com/sketch -->
    <title>iText bot</title>
    <desc>Created with Sketch.</desc>
    <defs></defs>
    <g id="iText-bot" stroke="none" stroke-width="1" fill="none" fill-rule="evenodd">
        <g transform="translate(2.000000, 0.000000)" fill="#0B82C5" id="Page-1">
            <g>
                <path d="M82,13 C82,13.36 81.93,13.69 81.83,14 C81.43,15.18 80.34,16 79,16 L55,16 C53.66,16 52.57,15.18 52.17,14 C52.07,13.69 52,13.36 52,13 C52,11.3 53.3,10 55,10 L79,10 C80.7,10 82,11.3 82,13" id="Fill-1"></path>
                <path d="M82,22 C82,23.7 80.7,25 79,25 L55,25 C53.3,25 52,23.7 52,22 C52,21.64 52.07,21.31 52.17,21 C52.57,19.82 53.66,19 55,19 L79,19 C80.34,19 81.43,19.82 81.83,21 C81.93,21.31 82,21.64 82,22" id="Fill-3"></path>
                <path d="M86,29.5 L67.4,29.5 C66.5,29.5 65.66,29.68 64.87,30 C64.17,30.29 63.51,30.68 62.9,31.2 L56.8,36.6 L56.8,36.2 C56.8,33.4 55.08,31 52.63,30 C51.85,29.68 51,29.5 50.1,29.5 L48,29.5 L48,6 L86,6 L86,29.5 Z M86.5,0 L47.5,0 C44.4,0 42,2.4 42,5.5 L42,31.2 C42,33.6 44,35.6 46.4,35.6 L50.1,35.6 C50.3,35.6 50.5,35.7 50.6,35.8 C50.7,35.9 50.7,35.9 50.7,36 L50.7,44 C50.7,44.7 50.9,45.3 51.4,45.8 C52.4,46.9 54.1,47 55.3,46 L66.8,35.6 C66.9,35.5 67.1,35.4 67.3,35.4 L86.5,35.4 C89.5,35.4 92,33 92,29.9 L92,5.5 C92,2.4 89.6,0 86.5,0 Z" id="Fill-5"></path>
                <path d="M55.2,89 L8.8,89 C7.8,89 7,88.2 7,87.2 L7,56.8 C7,55.8 7.8,55 8.8,55 L55.1,55 C56.1,55 56.9,55.8 56.9,56.8 L56.9,87.2 L57,87.2 C57,88.2 56.2,89 55.2,89 M62.3,51.69 C60.71,49.47 58.1,48 55.2,48 L12.8,48 L12.8,39.6 C13.7,38.7 14.3,37.4 14.3,36.1 C14.3,33.3 12.1,31.1 9.3,31.1 C8,31 6.7,31.6 5.8,32.5 C4.9,33.4 4.3,34.6 4.3,36 C4.3,37.4 4.9,38.6 5.8,39.5 L5.8,48.5 C2.4,49.8 0,53 0,56.8 L0,87.1 C0,92 4,96 8.8,96 L55.1,96 C60,96 63.9,92 63.9,87.2 L63.9,56.8 C63.94,54.91 63.33,53.14 62.3,51.69" id="Fill-7"></path>
                <path d="M23.7,67.2 C23.7,69.1 22.1,70.7 20.2,70.7 C18.3,70.7 16.7,69.1 16.7,67.2 C16.7,65.2 18.2,63.7 20.2,63.7 C22.1,63.7 23.7,65.3 23.7,67.2" id="Fill-9"></path>
                <path d="M47.4,79.5 C47.4,81.4 45.8,83 43.9,83 L20.2,83 C18.3,83 16.7,81.4 16.7,79.5 C16.7,77.6 18.2,76 20.2,76 L43.9,76 C45.8,76 47.4,77.6 47.4,79.5" id="Fill-11"></path>
                <path d="M47,67.2 C47,69.1 45.4,70.7 43.5,70.7 C41.6,70.7 40,69.1 40,67.2 C40,65.2 41.6,63.7 43.5,63.7 C45.4,63.7 47,65.3 47,67.2" id="Fill-13"></path>
            </g>
        </g>
    </g>
</svg>