<?xml version="1.0" encoding="UTF-8"?>
<svg width="96px" height="96px" viewBox="0 0 96 96" version="1.1" xmlns="http://www.w3.org/2000/svg" xmlns:xlink="http://www.w3.org/1999/xlink">
    <!-- Generator: Sketch 49.3 (51167) - http://www.bohemiancoding.com/sketch -->
    <title>iText Auto Translation</title>
    <desc>Created with Sketch.</desc>
    <defs></defs>
    <g id="iText-Auto-Translation" stroke="none" stroke-width="1" fill="none" fill-rule="evenodd">
        <g fill="#1182C5">
            <path d="M96,44.28 L96,92.64 C96,94.49 94.5,96 92.64,96 L44.28,96 C42.43,96 40.92,94.49 40.92,92.64 C40.92,90.79 42.43,89.29 44.28,89.29 L89.29,89.29 L89.29,47.63 L47.63,47.63 L47.63,63.57 C47.63,64.49 47.26,65.33 46.65,65.94 C46.04,66.55 45.2,66.92 44.28,66.92 C42.43,66.92 40.92,65.42 40.92,63.57 L40.92,55.07 L32.42,55.07 C30.57,55.07 29.07,53.57 29.07,51.72 C29.07,49.87 30.57,48.36 32.42,48.36 L40.92,48.36 L40.92,44.28 C40.92,42.43 42.43,40.92 44.28,40.92 L48.37,40.92 L48.37,6.71 L6.71,6.71 L6.71,51.72 C6.71,53.57 5.2,55.07 3.35,55.07 C1.5,55.07 0,53.57 0,51.72 L0,3.35 C0,1.5 1.5,0 3.35,0 L51.72,0 C53.57,0 55.07,1.5 55.07,3.35 L55.07,40.92 L92.64,40.92 C94.5,40.92 96,42.43 96,44.28" id="Fill-1"></path>
            <path d="M49.5,79.85 L44.28,85.08 L44.22,85.13 C43.57,85.79 42.71,86.11 41.85,86.11 C40.99,86.11 40.13,85.79 39.48,85.13 C38.31,83.96 38.19,82.15 39.11,80.84 L18.51,80.84 C16.66,80.84 15.16,79.34 15.16,77.48 L15.16,56.88 C13.85,57.8 12.03,57.69 10.86,56.52 C9.55,55.21 9.55,53.08 10.86,51.78 L16.14,46.5 C17.4,45.24 19.62,45.24 20.88,46.5 L26.16,51.78 C27.47,53.08 27.47,55.21 26.16,56.52 C25.5,57.17 24.65,57.5 23.79,57.5 C23.11,57.5 22.44,57.29 21.86,56.88 L21.86,74.13 L39.11,74.13 C38.19,72.82 38.31,71.01 39.48,69.84 C40.79,68.52 42.91,68.53 44.22,69.84 L44.28,69.89 L49.5,75.11 C50.81,76.42 50.81,78.55 49.5,79.85" id="Fill-5"></path>
            <path d="M44.17,18.77 C44.17,20.52 42.75,21.93 41.01,21.93 L38.08,21.93 C37.17,24.75 35.22,29.46 31.4,33.96 C32.29,34.44 33.23,34.88 34.2,35.28 C35.82,35.93 36.59,37.78 35.94,39.39 C35.44,40.62 34.26,41.36 33.01,41.36 C32.61,41.36 32.21,41.28 31.82,41.13 C29.97,40.37 28.25,39.47 26.66,38.52 C24.7,40.06 22.43,41.46 19.81,42.62 C19.39,42.8 18.96,42.88 18.54,42.88 C17.32,42.88 16.17,42.18 15.65,41 C14.94,39.4 15.67,37.54 17.26,36.84 C18.72,36.19 20.04,35.45 21.25,34.65 C18.11,32.04 16.24,29.81 16.1,29.64 C14.99,28.29 15.18,26.3 16.53,25.2 C17.87,24.09 19.86,24.28 20.97,25.62 C21,25.66 22.92,27.94 26.1,30.44 C28.78,27.46 30.42,24.3 31.38,21.93 L14.06,21.93 C12.32,21.93 10.9,20.52 10.9,18.77 C10.9,17.03 12.32,15.62 14.06,15.62 L24.04,15.62 L24.04,13.73 C24.04,11.98 25.46,10.57 27.2,10.57 C28.94,10.57 30.36,11.98 30.36,13.73 L30.36,15.62 L41.01,15.62 C42.75,15.62 44.17,17.03 44.17,18.77" id="Fill-7"></path>
            <path d="M81.84,78.88 L78.33,70.85 L78.32,70.82 L70.5,52.88 C70.47,52.82 70.43,52.76 70.4,52.7 C70.34,52.59 70.29,52.49 70.23,52.39 C70.17,52.31 70.11,52.24 70.05,52.16 C69.98,52.08 69.91,51.99 69.84,51.92 C69.77,51.85 69.69,51.78 69.61,51.72 C69.53,51.65 69.45,51.59 69.36,51.53 C69.27,51.47 69.17,51.42 69.08,51.37 C68.99,51.32 68.91,51.27 68.81,51.23 C68.71,51.19 68.61,51.17 68.51,51.13 C68.41,51.11 68.32,51.07 68.22,51.05 C68.12,51.03 68.03,51.03 67.94,51.02 C67.83,51.01 67.72,50.99 67.61,50.99 C67.52,50.99 67.43,51.01 67.34,51.01 C67.23,51.02 67.11,51.03 67,51.05 C66.91,51.07 66.83,51.1 66.75,51.12 C66.63,51.15 66.52,51.19 66.4,51.23 C66.32,51.27 66.24,51.31 66.16,51.35 C66.06,51.41 65.95,51.46 65.86,51.52 C65.77,51.58 65.7,51.64 65.62,51.71 C65.54,51.77 65.46,51.84 65.38,51.91 C65.31,51.99 65.24,52.07 65.18,52.15 C65.11,52.23 65.05,52.3 64.99,52.38 C64.93,52.48 64.88,52.58 64.82,52.69 C64.79,52.75 64.75,52.81 64.72,52.87 L56.81,70.83 L56.8,70.84 L53.27,78.87 C52.56,80.47 53.29,82.33 54.88,83.03 C55.3,83.21 55.73,83.3 56.15,83.3 C57.37,83.3 58.52,82.6 59.04,81.42 L61.77,75.22 L73.35,75.22 L76.05,81.4 C76.57,82.59 77.73,83.3 78.94,83.3 C79.37,83.3 79.79,83.22 80.2,83.04 C81.8,82.34 82.53,80.48 81.84,78.88 Z M64.55,68.91 L67.59,62.01 L70.6,68.91 L64.55,68.91 Z" id="Fill-9"></path>
        </g>
    </g>
</svg>