<?xml version="1.0" encoding="UTF-8"?>
<svg width="96px" height="96px" viewBox="0 0 96 96" version="1.1" xmlns="http://www.w3.org/2000/svg" xmlns:xlink="http://www.w3.org/1999/xlink">
    <!-- Generator: Sketch 49.3 (51167) - http://www.bohemiancoding.com/sketch -->
    <title>iText chat</title>
    <desc>Created with Sketch.</desc>
    <defs></defs>
    <g id="iText-chat" stroke="none" stroke-width="1" fill="none" fill-rule="evenodd">
        <g fill="#0B82C5" id="Page-1">
            <g>
                <path d="M67.5,29.5 L67.5,35.5 L67.5,45.5 L67.5,47.3 L64.6,47.3 C60.9,47.3 57.9,50.3 57.9,54 L57.9,55.6 L50.6,48.9 C49.4,47.8 47.8,47.2 46.1,47.2 L25.5,47.2 L25.5,45.5 L25.5,35.5 L25.5,29.5 L25.5,19.5 L67.5,19.5 L67.5,29.5 Z M68,13.5 L24.9,13.5 C21.9,13.5 19.4,15.9 19.4,19 L19.4,47.8 C19.4,50.8 21.8,53.3 24.9,53.3 L46.1,53.3 C46.3,53.3 46.4,53.4 46.6,53.5 L59.4,65 C60.5,66 62.2,65.9 63.2,64.8 C63.7,64.3 63.9,63.6 63.9,63 L63.9,54 C63.9,53.6 64.2,53.3 64.6,53.3 L68.7,53.3 C71.3,53.3 73.5,51.2 73.5,48.5 L73.5,19 C73.5,15.9 71.1,13.5 68,13.5 Z" id="Fill-1"></path>
                <path d="M7,63.1 L7,12.9 C7,9.7 9.6,7 12.9,7 L82.1,7 C85.3,7 88,9.6 88,12.9 L88,64.5 C88,67 86,69 83.5,69 L64,69 L64,69.2 L63.9,69.1 L63.9,69.2 L63.7,69 L12.9,69 C9.7,69 7,66.4 7,63.1 M70.1,92 C70.1,90.1 68.5,88.5 66.6,88.5 L50.5,88.5 L50.5,76 L83.5,76 C89.8,76 95,70.8 95,64.5 L95,12.9 C95,5.8 89.2,0 82.1,0 L12.9,0 C5.8,0 0,5.8 0,12.9 L0,63.2 C0,70.3 5.8,76.1 12.9,76.1 L43.5,76.1 L43.5,88.5 L25.5,88.5 C23.6,88.5 22,90.1 22,92 C22,93.9 23.6,95.5 25.5,95.5 L66.6,95.5 C68.5,95.5 70.1,93.9 70.1,92" id="Fill-3"></path>
                <path d="M33.5,30.5 L59.5,30.5 C61.2,30.5 62.5,29.2 62.5,27.5 C62.5,25.8 61.2,24.5 59.5,24.5 L33.5,24.5 C31.8,24.5 30.5,25.8 30.5,27.5 C30.5,29.2 31.8,30.5 33.5,30.5" id="Fill-5"></path>
                <path d="M59.5,34.5 L33.5,34.5 C31.8,34.5 30.5,35.8 30.5,37.5 C30.5,39.2 31.8,40.5 33.5,40.5 L59.5,40.5 C61.2,40.5 62.5,39.2 62.5,37.5 C62.5,35.8 61.2,34.5 59.5,34.5" id="Fill-7"></path>
            </g>
        </g>
    </g>
</svg>