<?xml version="1.0" encoding="UTF-8"?>
<svg width="96px" height="96px" viewBox="0 0 96 96" version="1.1" xmlns="http://www.w3.org/2000/svg" xmlns:xlink="http://www.w3.org/1999/xlink">
    <!-- Generator: Sketch 49.3 (51167) - http://www.bohemiancoding.com/sketch -->
    <title>iText sms</title>
    <desc>Created with Sketch.</desc>
    <defs></defs>
    <g id="iText-sms" stroke="none" stroke-width="1" fill="none" fill-rule="evenodd">
        <g transform="translate(1.000000, 1.000000)" fill="#0B82C5" id="Page-1">
            <g>
                <path d="M53.45,87.5 C53.45,87.8 53.25,88 52.95,88 L7.43,88 C7.13,88 6.93,87.8 6.93,87.5 L6.93,77.5 L53.45,77.5 L53.45,87.5 Z M56.91,58.6 C56.62,58.6 56.22,58.6 55.92,58.8 C54.93,59.1 54.24,59.7 53.75,60.6 C53.55,61.1 53.45,61.6 53.45,62.1 L53.45,70.5 L6.93,70.5 L6.93,7.5 C6.93,7.2 7.13,7 7.43,7 L54.64,7 C56.52,7 58.1,5.4 58.1,3.5 C58.1,1.6 56.52,0 54.64,0 L7.43,0 C3.37,0 0,3.4 0,7.5 L0,87.5 C0,91.6 3.37,95 7.43,95 L52.95,95 C57.01,95 60.38,91.6 60.38,87.5 L60.38,62.1 C60.38,60.1 58.79,58.6 56.91,58.6 Z" id="Fill-1"></path>
                <path d="M30.6852,79.5 C29.6952,79.5 28.8052,79.9 28.2112,80.5 C27.6172,81.2 27.2212,82 27.2212,83 C27.2212,84 27.6172,84.9 28.2112,85.5 C28.9042,86.1 29.6952,86.5 30.6852,86.5 C31.6752,86.5 32.5652,86.1 33.1592,85.5 C33.7532,84.8 34.1492,84 34.1492,83 C34.1492,81.1 32.5652,79.5 30.6852,79.5" id="Fill-3"></path>
                <path d="M88.58,40 L70.17,40 C68.49,40 67.01,40.6 65.72,41.7 L59.68,47.1 L59.68,46.7 C59.68,43 56.71,40 53.05,40 L50.97,40 L50.97,15.5 L88.58,15.5 L88.58,40 Z M89.08,9.5 L50.48,9.5 C47.41,9.5 45.04,11.9 45.04,15 L45.04,41.7 C45.04,44.1 47.02,46.1 49.39,46.1 L53.15,46.1 C53.35,46.1 53.55,46.2 53.65,46.3 C53.75,46.4 53.75,46.4 53.75,46.5 L53.75,54.5 C53.75,55.2 53.94,55.8 54.44,56.3 C55.43,57.4 57.11,57.5 58.3,56.5 L69.68,46.1 C69.78,46 69.98,45.9 70.17,45.9 L89.18,45.9 C92.15,45.9 94.62,43.5 94.62,40.4 L94.62,15 C94.52,11.9 92.15,9.5 89.08,9.5 Z" id="Fill-5"></path>
                <path d="M84.62,22.5 C84.62,24.2 83.34,25.5 81.65,25.5 L57.9,25.5 C56.22,25.5 54.93,24.2 54.93,22.5 C54.93,20.8 56.22,19.5 57.9,19.5 L81.65,19.5 C83.34,19.5 84.62,20.8 84.62,22.5" id="Fill-7"></path>
                <path d="M84.62,31.5 C84.62,33.2 83.34,34.5 81.65,34.5 L57.9,34.5 C56.22,34.5 54.93,33.2 54.93,31.5 C54.93,29.8 56.22,28.5 57.9,28.5 L81.65,28.5 C83.34,28.5 84.62,29.8 84.62,31.5" id="Fill-9"></path>
            </g>
        </g>
    </g>
</svg>