<?xml version="1.0" encoding="UTF-8"?>
<svg width="96px" height="96px" viewBox="0 0 96 96" version="1.1" xmlns="http://www.w3.org/2000/svg" xmlns:xlink="http://www.w3.org/1999/xlink">
    <!-- Generator: Sketch 49.3 (51167) - http://www.bohemiancoding.com/sketch -->
    <title>iText IM</title>
    <desc>Created with Sketch.</desc>
    <defs></defs>
    <g id="iText-IM" stroke="none" stroke-width="1" fill="none" fill-rule="evenodd">
        <g transform="translate(0.000000, 7.000000)" fill="#0B82C5" fill-rule="nonzero">
            <g id="Path-12-Copy-2">
                <path d="M90.1,26 L73,26 L73,5.5 C73,2.5 70.6,0 67.5,0 L5.5,0 C2.4,0 0,2.4 0,5.5 L0,48.4 C0,51.4 2.4,53.9 5.5,53.9 L12.3,53.9 C12.7,53.9 13,54.2 13,54.6 L13,67.3 C13,68 13.3,68.7 13.8,69.3 C14.9,70.3 16.6,70.3 17.6,69.2 L32.4,54 C32.5,53.9 32.7,53.8 32.9,53.8 L33,53.8 L33,66.7 C33,69.7 35.4,72.1 38.5,72.1 L67.4,72.1 C67.6,72.1 67.8,72.2 67.9,72.3 L79.9,84.7 C80.9,85.7 82.6,85.7 83.7,84.7 C84.2,84.2 84.5,83.5 84.5,82.8 L84.5,73 C84.5,72.6 84.8,72.3 85.2,72.3 L90.1,72.3 C90.5,72.3 90.8,72.3 91.2,72.2 C91.6,72.1 91.9,72 92.2,71.9 C92.5,71.8 92.8,71.6 93.1,71.4 C93.4,71.2 93.7,71 93.9,70.7 C94.9,69.7 95.5,68.4 95.5,66.9 L95.5,31.5 C95.5,28.4 93.1,26 90.1,26 Z M32.9,47.7 C31.1,47.7 29.4,48.4 28.1,49.7 L18.9,59.1 L18.9,54.5 C18.9,50.8 15.9,47.8 12.2,47.8 L6,47.8 L6,6 L67,6 L67,47.7 L32.9,47.7 Z M89.5,66.1 L85.1,66.1 C81.4,66.1 78.4,69.1 78.4,72.8 L78.4,74.6 L72.1,68 C70.9,66.7 69.1,66 67.3,66 L39,66 L39,53.7 L67.5,53.7 C70.5,53.7 73,51.3 73,48.2 L73,32 L89.5,32 L89.5,66.1 Z" id="Shape"></path>
            </g>
            <g id="Path-7" transform="translate(23.000000, 10.000000)">
                <path d="M24.5,18.5 L22.2,22 L16,31.4 L15.5,32.2 C14.9,33 14,33.5 13,33.5 C12.4,33.5 11.9,33.3 11.4,33 C10.6,32.5 10.1,31.6 10.1,30.7 L10.1,30.4 C10.1,29.9 10.3,29.4 10.6,28.9 L16.5,19.9 L4,19.9 C2.9,19.9 1.9,19.3 1.3,18.3 C0.8,17.3 0.8,16.1 1.5,15.2 L10.9,1.4 C11.8,2.44249065e-15 13.7,-0.3 15.1,0.6 C16.5,1.5 16.8,3.4 15.9,4.8 L9.7,14 L22,14 C23.1,14 24.1,14.6 24.7,15.6 C24.8,15.8 24.9,16 24.9,16.2 C25.1,16.8 25,17.8 24.5,18.5 Z" id="Shape"></path>
            </g>
        </g>
    </g>
</svg>