<?xml version="1.0" encoding="UTF-8"?>
<svg width="96px" height="96px" viewBox="0 0 96 96" version="1.1" xmlns="http://www.w3.org/2000/svg" xmlns:xlink="http://www.w3.org/1999/xlink">
    <!-- Generator: Sketch 49.3 (51167) - http://www.bohemiancoding.com/sketch -->
    <title>iText</title>
    <desc>Created with Sketch.</desc>
    <defs></defs>
    <g id="iText" stroke="none" stroke-width="1" fill="none" fill-rule="evenodd">
        <g transform="translate(0.000000, 2.000000)" fill="#0B82C5" fill-rule="nonzero" id="Shape">
            <path d="M67,31.2 L67,5.5 C67,2.5 64.6,0 61.5,0 L5.5,0 C2.4,0 0,2.4 0,5.5 L0,43.8 C0,46.8 2.4,49.3 5.5,49.3 L11.2,49.3 C11.6,49.3 11.9,49.6 11.9,50 L11.9,60.6 C11.9,61.4 12.2,62.1 12.8,62.6 C13.9,63.6 15.6,63.5 16.6,62.4 L17.6,61.3 C17.6,61.3 17.6,61.3 17.6,61.3 L28.4,49.4 C28.5,49.3 28.7,49.2 28.9,49.2 L31.6,49.2 C30.5,51.7 30,54.5 30,57.3 C30,71.7 44.8,83.5 63,83.5 C64.4,83.5 65.7,83.4 67.1,83.3 L79.1,92.8 C79.7,93.3 80.4,93.5 81.2,93.5 C81.7,93.5 82.2,93.4 82.6,93.2 C83.8,92.7 84.5,91.5 84.5,90.2 L84.5,77 C91.8,72 96,64.8 96,57.1 C96,43.8 83.3,32.8 67,31.2 Z M29,42.4 C26.9,42.4 25,43.3 23.6,44.8 L18.6,50.3 L18.6,49.9 C18.6,45.9 15.3,42.6 11.2,42.6 L6.7,42.6 L6.7,6.7 L60.4,6.7 L60.4,42.4 L29,42.4 Z M80.7,71.5 L79.2,72.5 C78.3,73.1 77.7,74.1 77.7,75.3 L77.7,83.2 L70,77.1 C69.4,76.6 68.7,76.4 67.9,76.4 C67.8,76.4 67.7,76.4 67.6,76.4 L66.3,76.5 C65.2,76.6 64,76.7 62.9,76.7 C48.4,76.7 36.6,67.9 36.6,57.2 C36.6,54.3 37.4,51.6 39,49.1 L61.5,49.1 C64.5,49.1 67,46.7 67,43.6 L67,37.9 C79.6,39.3 89.3,47.4 89.3,57.2 C89.3,62.6 86.2,67.8 80.7,71.5 Z"></path>
        </g>
    </g>
</svg>