<?xml version="1.0" encoding="UTF-8"?>
<svg width="96px" height="96px" viewBox="0 0 96 96" version="1.1" xmlns="http://www.w3.org/2000/svg" xmlns:xlink="http://www.w3.org/1999/xlink">
    <!-- Generator: Sketch 49.3 (51167) - http://www.bohemiancoding.com/sketch -->
    <title>iText email</title>
    <desc>Created with Sketch.</desc>
    <defs></defs>
    <g id="iText-email" stroke="none" stroke-width="1" fill="none" fill-rule="evenodd">
        <g transform="translate(0.000000, 11.000000)" fill-rule="nonzero">
            <g id="Combined-Shape-Copy">
                <g id="Group" transform="translate(52.000000, 32.000000)" fill="#FFFFFF">
                    <polygon id="Shape" points="21.5 20.4 21.5 20.5 21.4 20.5"></polygon>
                    <path d="M2.3,31.2 C2.9,32.1 3.5,33 4.2,33.8 C3.5,33 2.8,32.1 2.3,31.2 Z M5.2,35 C5.3,35.1 5.4,35.3 5.6,35.4 C5.5,35.3 5.3,35.2 5.2,35 Z M6.4,36.2 C7.5,37.2 8.6,38 9.9,38.8 C8.6,38 7.4,37.1 6.4,36.2 Z M6.4,2.8 C7.5,1.8 8.6,1 9.9,0.2 C8.6,1 7.4,1.9 6.4,2.8 Z M5.2,4 C5.3,3.9 5.4,3.7 5.6,3.6 C5.5,3.7 5.3,3.8 5.2,4 Z M4.1,5.2 C3.4,6 2.8,6.9 2.2,7.8 C2.8,6.9 3.5,6 4.1,5.2 Z M0.5,27.5 C0.5,27.6 0.6,27.7 0.6,27.8 C0.5,27.7 0.5,27.6 0.5,27.5 Z M33.2,38.7 C34.4,37.9 35.6,37.1 36.7,36.1 C35.6,37.1 34.4,38 33.2,38.7 Z M33.2,0.3 C34.4,1.1 35.6,1.9 36.7,2.9 C35.6,1.9 34.4,1 33.2,0.3 Z M37.4,35.4 C37.5,35.3 37.7,35.1 37.8,35 C37.7,35.2 37.5,35.3 37.4,35.4 Z M38.9,33.8 C39.6,33 40.2,32.1 40.8,31.2 C40.2,32.1 39.5,33 38.9,33.8 Z M38.9,5.2 C39.6,6 40.2,6.9 40.8,7.8 C40.2,6.9 39.5,6 38.9,5.2 Z" id="Shape"></path>
                </g>
                <path d="M92.7,39.8 C92.1,38.9 91.5,38 90.8,37.2 C90.6,36.9 90.3,36.6 90.1,36.4 C89.9,36.1 89.6,35.9 89.3,35.6 C89.1,35.4 88.8,35.1 88.5,34.9 C88.5,34.9 88.5,34.9 88.5,34.9 C87.4,33.9 86.3,33.1 85,32.3 C83.5,31.4 82,30.7 80.3,30.2 L80.3,4 C80.3,2.1 78.7,0.5 76.8,0.5 L4,0.5 C3.1,0.5 2.3,0.8 1.7,1.4 C1.5,1.6 1.3,1.8 1.2,2 C0.8,2.5 0.6,3.1 0.6,3.7 C0.6,3.8 0.6,3.9 0.6,4.1 L0.6,56.1 C0.6,58 2.2,59.6 4.1,59.6 L52.6,59.6 C52.6,59.7 52.7,59.8 52.7,59.9 C52.8,60 52.8,60.2 52.9,60.3 C53.3,61.3 53.8,62.3 54.4,63.2 C55,64.1 55.6,65 56.3,65.8 C56.5,66.1 56.8,66.4 57,66.6 C57.1,66.7 57.2,66.9 57.4,67 C57.5,67.1 57.6,67.3 57.8,67.4 C58,67.6 58.3,67.9 58.6,68.1 C58.6,68.1 58.6,68.1 58.6,68.1 C59.7,69.1 60.8,69.9 62.1,70.7 C65.5,72.8 69.5,74 73.8,74 C78.1,74 82.1,72.8 85.5,70.7 C86.7,69.9 87.9,69.1 89,68.1 C89,68.1 89,68.1 89,68.1 C89.3,67.9 89.5,67.6 89.8,67.4 C89.9,67.3 90.1,67.1 90.2,67 C90.3,66.9 90.4,66.7 90.6,66.6 C90.8,66.3 91.1,66.1 91.3,65.8 C92,65 92.6,64.1 93.2,63.2 C95.3,59.8 96.5,55.8 96.5,51.5 C96.5,47.2 94.8,43.2 92.7,39.8 Z M64.3,7.5 L39.4,23.8 L15.4,7.5 L64.3,7.5 Z M7.5,52.5 L7.5,10.6 L37.4,30.9 C38.6,31.7 40.1,31.7 41.3,30.9 L73.5,9.8 L73.5,29 C69.2,29 65.2,30.2 61.8,32.3 C60.6,33.1 59.4,33.9 58.3,34.9 C58.3,34.9 58.3,34.9 58.3,34.9 C58,35.1 57.8,35.4 57.5,35.6 C57.4,35.7 57.2,35.9 57.1,36 C57,36.1 56.9,36.3 56.7,36.4 C56.5,36.7 56.2,36.9 56,37.2 C55.3,38 54.7,38.9 54.1,39.8 C52,43.2 50.8,47.2 50.8,51.5 C50.8,51.8 50.8,52.2 50.8,52.5 L7.5,52.5 Z M73.5,67 C67.9,67 63,64 60.2,59.5 C59,57.4 58.2,55 58,52.5 C58,52.2 58,51.8 58,51.5 C58,43 65,36 73.5,36 C76,36 78.4,36.6 80.5,37.7 C85.5,40.3 89,45.5 89,51.5 C89,60 82,67 73.5,67 Z" id="Shape" fill="#0B82C5"></path>
            </g>
            <g id="Path-2" transform="translate(61.000000, 42.000000)" fill="#0B82C5">
                <path d="M24.8,6.2 L19.6,12.9 L15.9,17.6 L14.6,19.3 C14,20 13.2,20.5 12.2,20.6 C12.1,20.6 12,20.6 11.8,20.6 C11,20.6 10.2,20.3 9.6,19.8 L7,17.6 L1.9,13.3 C1.1,12.6 0.7,11.6 0.7,10.6 C0.7,9.8 1,9 1.5,8.4 C2.7,6.9 5,6.7 6.4,8 L9.6,10.7 L11.4,12.2 L12.6,10.7 L12.7,10.7 L12.7,10.6 L19.5,2.1 C19.6,2 19.7,1.9 19.7,1.8 C20.9,0.5 22.9,0.4 24.4,1.5 C25.7,2.5 25.9,4.7 24.8,6.2 Z" id="Shape"></path>
                <polygon id="Shape" points="12.5 10.4 12.5 10.5 12.4 10.5"></polygon>
            </g>
        </g>
    </g>
</svg>