<?xml version="1.0" encoding="UTF-8"?>
<svg width="96px" height="96px" viewBox="0 0 96 96" version="1.1" xmlns="http://www.w3.org/2000/svg" xmlns:xlink="http://www.w3.org/1999/xlink">
    <!-- Generator: Sketch 49.3 (51167) - http://www.bohemiancoding.com/sketch -->
    <title>iVoice Conferencing</title>
    <desc>Created with Sketch.</desc>
    <defs></defs>
    <g id="iVoice-Conferencing" stroke="none" stroke-width="1" fill="none" fill-rule="evenodd">
        <g transform="translate(5.000000, 0.000000)" fill="#0B82C5" fill-rule="nonzero">
            <g id="Group" transform="translate(21.000000, 44.000000)">
                <g id="Oval-2" transform="translate(0.000000, 26.000000)">
                    <path d="M40,25.5 C38.1,25.5 36.5,23.9 36.5,22 C36.5,13.9 30,7.3 22,7.3 C14,7.3 7.5,13.9 7.5,22 C7.5,23.9 5.9,25.5 4,25.5 C2.1,25.5 0.5,23.9 0.5,22 C0.5,10 10.1,0.3 22,0.3 C33.9,0.3 43.5,10 43.5,22 C43.5,23.9 41.9,25.5 40,25.5 Z" id="Shape"></path>
                </g>
                <g id="Oval-4" transform="translate(10.000000, 0.000000)">
                    <path d="M12.4,24 C5.7,24 0.3,18.8 0.3,12.3 C0.3,5.8 5.7,0.5 12.4,0.5 C19.1,0.5 24.5,5.8 24.5,12.3 C24.5,18.8 19.1,24 12.4,24 Z M12.4,7.5 C9.6,7.5 7.3,9.6 7.3,12.3 C7.3,15 9.6,17.1 12.4,17.1 C15.2,17.1 17.5,15 17.5,12.3 C17.5,9.6 15.2,7.5 12.4,7.5 Z" id="Shape"></path>
                </g>
            </g>
            <g id="Group-Copy" transform="translate(54.000000, 50.000000)">
                <g id="Oval-2_1_" transform="translate(0.000000, 21.000000)">
                    <path d="M28.2,21.5 C26.3,21.5 24.7,19.9 24.7,18 C24.7,12.2 20.1,7.4 14.4,7.4 C9.1,7.4 6.8,11.4 6.7,11.5 C5.8,13.2 3.6,13.8 2,12.9 C0.3,12 -0.3,9.9 0.6,8.2 C0.8,7.9 4.9,0.4 14.5,0.4 C24,0.4 31.8,8.3 31.8,18 C31.7,19.9 30.1,21.5 28.2,21.5 Z" id="Shape"></path>
                </g>
                <g id="Oval-4_1_" transform="translate(4.000000, 0.000000)">
                    <path d="M10.4,19.8 C4.9,19.8 0.4,15.4 0.4,10.1 C0.4,4.8 4.9,0.4 10.4,0.4 C15.9,0.4 20.4,4.8 20.4,10.1 C20.4,15.4 15.9,19.8 10.4,19.8 Z M10.4,7.4 C8.8,7.4 7.4,8.6 7.4,10.1 C7.4,11.6 8.7,12.8 10.4,12.8 C12.1,12.8 13.4,11.6 13.4,10.1 C13.3,8.6 12,7.4 10.4,7.4 Z" id="Shape"></path>
                </g>
            </g>
            <g id="Group-Copy-2" transform="translate(16.000000, 71.500000) scale(-1, 1) translate(-16.000000, -71.500000) translate(0.000000, 50.000000)">
                <g id="Oval-2_2_" transform="translate(0.000000, 21.000000)">
                    <path d="M28.2,21.5 C30.1,21.5 31.7,19.9 31.7,18 C31.7,8.3 23.9,0.4 14.4,0.4 C4.8,0.4 0.7,7.9 0.5,8.2 C-0.4,10 0.2,12.1 1.9,13 C3.6,13.9 5.7,13.3 6.6,11.6 C6.7,11.5 9,7.5 14.3,7.5 C20,7.5 24.6,12.2 24.6,18.1 C24.7,19.9 26.2,21.5 28.2,21.5 Z" id="Shape"></path>
                </g>
                <g id="Oval-4_2_" transform="translate(4.000000, 0.000000)">
                    <path d="M10.4,19.8 C15.9,19.8 20.4,15.4 20.4,10.1 C20.4,4.8 15.9,0.4 10.4,0.4 C4.9,0.4 0.4,4.8 0.4,10.1 C0.4,15.4 4.8,19.8 10.4,19.8 Z M10.4,7.4 C12,7.4 13.4,8.6 13.4,10.1 C13.4,11.6 12.1,12.8 10.4,12.8 C8.7,12.8 7.4,11.6 7.4,10.1 C7.4,8.6 8.7,7.4 10.4,7.4 Z" id="Shape"></path>
                </g>
            </g>
            <g id="Path-11" transform="translate(1.000000, 0.000000)">
                <path d="M72.1,51.3 C70.9,51.3 69.7,50.6 69.1,49.5 L59.2,32.2 L51.8,32.2 L45.1,43.6 C44.5,44.7 43.3,45.3 42.1,45.3 C40.9,45.3 39.7,44.7 39.1,43.6 L32.1,31.9 L24.9,31.9 L14.7,49.3 C13.9,50.7 12.3,51.3 10.8,50.9 C9.3,50.5 8.2,49.1 8.2,47.5 L8.2,31.9 C3.6,31.5 1.77635684e-15,27.6 1.77635684e-15,22.9 L1.77635684e-15,9 C1.77635684e-15,4 4,0 9,0 L75,0 C79.9,0 84,4 84,9 L84.1,23.3 C84.1,28.1 80.4,32 75.6,32.3 L75.6,47.8 C75.6,49.4 74.5,50.8 73,51.2 C72.7,51.2 72.4,51.3 72.1,51.3 Z M22.9,25 L34.1,25 C35.3,25 36.5,25.6 37.1,26.7 L42.1,35 L46.8,27 C47.4,25.9 48.6,25.3 49.8,25.3 L61.2,25.3 C62.5,25.3 63.6,26 64.2,27.1 L68.6,34.7 L68.6,28.9 C68.6,27 70.2,25.4 72.1,25.4 L75.1,25.4 C76.2,25.4 77.1,24.5 77.1,23.4 L77,9 C77,7.9 76.1,7 75,7 L9,7 C7.9,7 7,7.9 7,9 L7,22.9 C7,24 7.9,24.9 9,24.9 L11.7,24.9 C13.6,24.9 15.2,26.5 15.2,28.4 L15.2,34.7 L19.9,26.7 C20.5,25.6 21.7,25 22.9,25 Z" id="Shape"></path>
            </g>
            <g id="Path-8-Copy" transform="translate(39.000000, 12.000000)">
                <path d="M4,7.6 C2.1,7.6 0.5,6 0.5,4.1 C0.5,2.2 2.1,0.6 4,0.6 C5.9,0.6 7.5,2.1 7.5,4.1 L7.5,4.2 C7.5,6 5.9,7.6 4,7.6 Z" id="Shape"></path>
            </g>
            <g id="Path-8-Copy_1_" transform="translate(20.000000, 12.000000)">
                <path d="M4,7.6 C2.1,7.6 0.5,6 0.5,4.1 C0.5,2.2 2.1,0.6 4,0.6 C5.9,0.6 7.5,2.1 7.5,4.1 L7.5,4.2 C7.5,6 5.9,7.6 4,7.6 Z" id="Shape"></path>
            </g>
            <g id="Path-8-Copy_2_" transform="translate(58.000000, 12.000000)">
                <path d="M4,7.6 C2.1,7.6 0.5,6 0.5,4.1 C0.5,2.2 2.1,0.6 4,0.6 C5.9,0.6 7.5,2.1 7.5,4.1 L7.5,4.2 C7.5,6 5.9,7.6 4,7.6 Z" id="Shape"></path>
            </g>
        </g>
    </g>
</svg>