<?xml version="1.0" encoding="UTF-8"?>
<svg width="96px" height="96px" viewBox="0 0 96 96" version="1.1" xmlns="http://www.w3.org/2000/svg" xmlns:xlink="http://www.w3.org/1999/xlink">
    <!-- Generator: Sketch 49.3 (51167) - http://www.bohemiancoding.com/sketch -->
    <title>iVoice</title>
    <desc>Created with Sketch.</desc>
    <defs></defs>
    <g id="iVoice" stroke="none" stroke-width="1" fill="none" fill-rule="evenodd">
        <g transform="translate(8.000000, 4.000000)" fill="#0B82C5" fill-rule="nonzero">
            <path d="M36.5,4.4408921e-16 C36.5,-1.93299662 38.0670034,-3.5 40,-3.5 C41.9329966,-3.5 43.5,-1.93299662 43.5,4.4408921e-16 L43.5,88.5068359 C43.5,90.4398325 41.9329966,92.0068359 40,92.0068359 C38.0670034,92.0068359 36.5,90.4398325 36.5,88.5068359 L36.5,4.4408921e-16 Z" id="Line-2-Copy"></path>
            <path d="M50.5,16.5 C50.5,14.5670034 52.0670034,13 54,13 C55.9329966,13 57.5,14.5670034 57.5,16.5 L57.5,72.5068359 C57.5,74.4398325 55.9329966,76.0068359 54,76.0068359 C52.0670034,76.0068359 50.5,74.4398325 50.5,72.5068359 L50.5,16.5 Z" id="Line-2-Copy-2"></path>
            <path d="M9.5,22.4971596 C9.5,20.564163 11.0670034,18.9971596 13,18.9971596 C14.9329966,18.9971596 16.5,20.564163 16.5,22.4971596 L16.5,66.5068359 C16.5,68.4398325 14.9329966,70.0068359 13,70.0068359 C11.0670034,70.0068359 9.5,68.4398325 9.5,66.5068359 L9.5,22.4971596 Z" id="Line-2-Copy-5"></path>
            <path d="M63.5,27.5 C63.5,25.5670034 65.0670034,24 67,24 C68.9329966,24 70.5,25.5670034 70.5,27.5 L70.5,61.5 C70.5,63.4329966 68.9329966,65 67,65 C65.0670034,65 63.5,63.4329966 63.5,61.5 L63.5,27.5 Z" id="Line-2-Copy-3"></path>
            <path d="M23.5,27.5 C23.5,25.5670034 25.0670034,24 27,24 C28.9329966,24 30.5,25.5670034 30.5,27.5 L30.5,61.5 C30.5,63.4329966 28.9329966,65 27,65 C25.0670034,65 23.5,63.4329966 23.5,61.5 L23.5,27.5 Z" id="Line-2-Copy-4"></path>
            <path d="M-3.5,39.5 C-3.5,37.5670034 -1.93299662,36 0,36 C1.93299662,36 3.5,37.5670034 3.5,39.5 L3.5,48.5 C3.5,50.4329966 1.93299662,52 0,52 C-1.93299662,52 -3.5,50.4329966 -3.5,48.5 L-3.5,39.5 Z" id="Line-2-Copy-6"></path>
            <path d="M76.5,39.5 C76.5,37.5670034 78.0670034,36 80,36 C81.9329966,36 83.5,37.5670034 83.5,39.5 L83.5,48.5 C83.5,50.4329966 81.9329966,52 80,52 C78.0670034,52 76.5,50.4329966 76.5,48.5 L76.5,39.5 Z" id="Line-2-Copy-7"></path>
        </g>
    </g>
</svg>