<?xml version="1.0" encoding="UTF-8"?>
<svg width="96px" height="96px" viewBox="0 0 96 96" version="1.1" xmlns="http://www.w3.org/2000/svg" xmlns:xlink="http://www.w3.org/1999/xlink">
    <!-- Generator: Sketch 49.3 (51167) - http://www.bohemiancoding.com/sketch -->
    <title>iVoice Text to Speech</title>
    <desc>Created with Sketch.</desc>
    <defs></defs>
    <g id="iVoice-Text-to-Speech" stroke="none" stroke-width="1" fill="none" fill-rule="evenodd">
        <g transform="translate(1.000000, 6.000000)" fill="#0B82C5">
            <path d="M50.43,69.24 L50.43,77.85 L59.45,77.85 C61.38,77.85 62.95,79.42 62.95,81.35 C62.95,83.28 61.38,84.85 59.45,84.85 L33.5,84.85 C31.57,84.85 30,83.28 30,81.35 C30,79.42 31.57,77.85 33.5,77.85 L43.43,77.85 L43.43,69.13 C33.51,67.31 26,58.64 26,48.26 L26,35 C26,33.07 27.57,31.5 29.5,31.5 C31.43,31.5 33,33.07 33,35 L33,48.26 C33,56.09 39.37,62.48 47.2,62.5 C55.04,62.5 61.38,56.16 61.38,48.37 L61.38,35 C61.38,33.07 62.95,31.5 64.88,31.5 C66.81,31.5 68.38,33.07 68.38,35 L68.38,48.37 C68.38,58.94 60.57,67.69 50.43,69.24" id="Fill-1"></path>
            <path d="M52.34,47.66 C52.34,50.33 50.17,52.5 47.5,52.5 C44.83,52.5 42.66,50.33 42.66,47.66 L42.66,11.84 C42.66,9.17 44.83,7 47.5,7 C50.17,7 52.34,9.17 52.34,11.84 L52.34,47.66 Z M47.5,0 C40.97,0 35.66,5.31 35.66,11.84 L35.66,47.66 C35.66,54.19 40.97,59.5 47.5,59.5 C54.03,59.5 59.34,54.19 59.34,47.66 L59.34,11.84 C59.34,5.31 54.03,0 47.5,0 Z" id="Fill-3"></path>
            <path d="M20,22 L20,66.01 C20,67.94 18.43,69.51 16.5,69.51 C14.57,69.51 13,67.94 13,66.01 L13,22 C13,20.06 14.57,18.5 16.5,18.5 C18.43,18.5 20,20.06 20,22" id="Fill-5"></path>
            <path d="M7,39 L7,48 C7,49.93 5.43,51.5 3.5,51.5 C1.57,51.5 0,49.93 0,48 L0,39 C0,37.07 1.57,35.5 3.5,35.5 C5.43,35.5 7,37.07 7,39" id="Fill-7"></path>
            <path d="M82,27 L82,61 C82,62.93 80.43,64.5 78.5,64.5 C76.57,64.5 75,62.93 75,61 L75,27 C75,25.07 76.57,23.5 78.5,23.5 C80.43,23.5 82,25.07 82,27" id="Fill-9"></path>
            <path d="M95,39 L95,48 C95,49.93 93.43,51.5 91.5,51.5 C89.57,51.5 88,49.93 88,48 L88,39 C88,37.07 89.57,35.5 91.5,35.5 C93.43,35.5 95,37.07 95,39" id="Fill-11"></path>
        </g>
    </g>
</svg>