<?xml version="1.0" encoding="UTF-8"?>
<svg width="96px" height="96px" viewBox="0 0 96 96" version="1.1" xmlns="http://www.w3.org/2000/svg" xmlns:xlink="http://www.w3.org/1999/xlink">
    <!-- Generator: Sketch 49.3 (51167) - http://www.bohemiancoding.com/sketch -->
    <title>iVoice Callback</title>
    <desc>Created with Sketch.</desc>
    <defs></defs>
    <g id="iVoice-Callback" stroke="none" stroke-width="1" fill="none" fill-rule="evenodd">
        <g transform="translate(2.000000, 0.000000)" fill="#0B82C5">
            <path d="M69.2847,85.1516 C69.2407,85.3186 69.1147,85.6306 68.7637,85.8356 C68.7317,85.8536 68.6997,85.8706 68.6587,85.8886 C64.1977,87.8846 58.7627,86.6806 52.0377,82.2046 C44.6187,77.2636 38.5427,70.1236 33.9777,60.9786 C31.1337,55.2826 28.9097,48.7526 28.0287,43.5096 C26.2737,33.0656 27.7857,26.4776 32.6487,23.3696 C32.8337,23.2516 33.0407,23.1946 33.2457,23.1946 C33.6167,23.1946 33.9837,23.3806 34.2077,23.7286 L39.4077,32.7396 C34.1067,36.5386 32.4107,43.8996 35.6817,49.6616 L47.3167,70.1556 C49.0007,73.1216 51.7377,75.2536 55.0247,76.1606 C58.0327,76.9876 61.1657,76.7026 63.9437,75.3626 L69.1677,84.3016 C69.3717,84.6506 69.3287,84.9836 69.2847,85.1516 Z M69.4717,70.9466 L69.3897,70.8076 C68.5887,69.4696 67.3137,68.5236 65.8007,68.1446 C64.2897,67.7686 62.7197,67.9976 61.3797,68.8006 L61.2637,68.8676 C59.9257,69.6286 58.3707,69.8206 56.8867,69.4116 C55.4007,69.0026 54.1647,68.0396 53.4047,66.7006 L41.7697,46.2056 C40.1837,43.4136 41.1387,39.8046 43.8957,38.1606 C46.6527,36.5156 47.5917,32.9166 45.9867,30.1336 L40.2917,20.2656 C40.2237,20.1476 40.1547,20.0336 40.0947,19.9406 C37.6837,16.1686 32.6547,15.0586 28.8797,17.4706 C21.4957,22.1906 18.8867,31.3406 21.1257,44.6706 C22.1297,50.6456 24.5317,57.7296 27.7147,64.1056 C32.8317,74.3556 39.7107,82.4056 48.1587,88.0306 C53.9457,91.8836 59.3387,93.8156 64.2717,93.8156 C66.8097,93.8156 69.2267,93.3046 71.5137,92.2806 C71.7817,92.1616 72.0447,92.0256 72.2977,91.8786 C76.1627,89.6196 77.4707,84.6366 75.2117,80.7706 L69.4717,70.9466 Z" id="Fill-1"></path>
            <path d="M92.3189,65.7893 C91.6749,63.9683 89.6789,63.0093 87.8529,63.6553 L86.3589,64.1833 C95.6279,43.2313 87.3809,18.1363 66.7939,6.7243 C56.2509,0.8813 44.0789,-0.5467 32.5239,2.7083 C20.9579,5.9673 11.3929,13.5243 5.5919,23.9893 C-0.2081,34.4543 -1.5491,46.5703 1.8169,58.1063 C5.1789,69.6303 12.8389,79.1953 23.3819,85.0413 C23.9209,85.3393 24.5029,85.4803 25.0769,85.4803 C26.3069,85.4803 27.5019,84.8293 28.1409,83.6773 C29.0779,81.9853 28.4669,79.8553 26.7769,78.9183 C17.8559,73.9743 11.3789,65.8873 8.5369,56.1453 C5.6979,46.4173 6.8269,36.2023 11.7149,27.3833 C16.6029,18.5643 24.6679,12.1943 34.4229,9.4463 C44.1909,6.6943 54.4809,7.9033 63.3999,12.8473 C80.9439,22.5713 87.8909,44.0333 79.7539,61.7983 L79.0549,58.6583 C78.6349,56.7723 76.7699,55.5753 74.8789,56.0023 C72.9919,56.4213 71.8019,58.2913 72.2219,60.1783 L74.7519,71.5493 C74.9679,72.5263 75.5939,73.3643 76.4699,73.8513 C76.9959,74.1423 77.5809,74.2893 78.1679,74.2893 C78.5609,74.2893 78.9549,74.2233 79.3339,74.0893 L90.1849,70.2553 C92.0069,69.6113 92.9639,67.6113 92.3189,65.7893" id="Fill-3"></path>
        </g>
    </g>
</svg>