<?xml version="1.0" encoding="UTF-8"?>
<svg width="96px" height="96px" viewBox="0 0 96 96" version="1.1" xmlns="http://www.w3.org/2000/svg" xmlns:xlink="http://www.w3.org/1999/xlink">
    <!-- Generator: Sketch 49.3 (51167) - http://www.bohemiancoding.com/sketch -->
    <title>iVoice Recording</title>
    <desc>Created with Sketch.</desc>
    <defs></defs>
    <g id="iVoice-Recording" stroke="none" stroke-width="1" fill="none" fill-rule="evenodd">
        <g transform="translate(5.000000, 2.000000)">
            <path d="M46.43,86.85 L55.45,86.85 C57.38,86.85 58.95,88.42 58.95,90.35 C58.95,92.28 57.38,93.85 55.45,93.85 L29.5,93.85 C27.57,93.85 26,92.28 26,90.35 C26,88.42 27.57,86.85 29.5,86.85 L39.43,86.85 L39.43,78.13 C29.51,76.31 22,67.64 22,57.26 L22,48 C22,46.07 23.57,44.5 25.5,44.5 C27.43,44.5 29,46.07 29,48 L29,57.26 C29,65.09 35.37,71.48 43.2,71.5 C51.04,71.5 57.38,65.16 57.38,57.37 L57.38,48 C57.38,46.07 58.95,44.5 60.88,44.5 C62.81,44.5 64.38,46.07 64.38,48 L64.38,57.37 C64.38,63.063597 62.1139238,68.2291199 58.4382486,72.0257207 C55.2901379,75.2774008 51.1080252,77.5249172 46.43,78.24 L46.43,86.85 Z" id="Fill-1" fill="#0B82C5"></path>
            <path d="M48.34,56.66 C48.34,59.33 46.17,61.5 43.5,61.5 C40.83,61.5 38.66,59.33 38.66,56.66 L38.66,11.84 C38.66,9.17 40.83,7 43.5,7 C46.17,7 48.34,9.17 48.34,11.84 L48.34,56.66 Z M31.66,11.84 L31.66,56.66 C31.66,63.19 36.97,68.5 43.5,68.5 C50.03,68.5 55.34,63.19 55.34,56.66 L55.34,11.84 C55.34,5.31 50.03,0 43.5,0 C36.97,0 31.66,5.31 31.66,11.84 Z" id="Fill-3" fill="#0B82C5"></path>
            <path d="M69.3564014,6.03456136 C70.8025252,4.76358926 73.0051665,4.90557771 74.2761386,6.35170144 C75.5471107,7.79782517 75.4051223,10.0004665 73.9589986,11.2714386 C69.7276925,14.9902573 67.2607,20.3181129 67.2607,26.052 C67.2607,31.7867687 69.7276088,37.1146691 73.9589986,40.8335614 C75.4051223,42.1045335 75.5471107,44.3071748 74.2761386,45.7532986 C73.0051665,47.1994223 70.8025252,47.3414107 69.3564014,46.0704386 C63.6352473,41.0422193 60.2887,33.8145218 60.2887,26.052 C60.2887,18.2903174 63.6353606,11.0626811 69.3564014,6.03456136 Z" id="Stroke-9" fill="#1082C5" fill-rule="nonzero"></path>
            <path d="M76.1624073,14.7343925 C77.6086795,13.4635894 79.8113043,13.6058351 81.0821075,15.0521073 C82.3529106,16.4983795 82.2106649,18.7010043 80.7643927,19.9718075 C79.021568,21.5031838 78.0084,23.6914933 78.0084,26.0521 C78.0084,28.4127067 79.021568,30.6010162 80.7643927,32.1323925 C82.2106649,33.4031957 82.3529106,35.6058205 81.0821075,37.0520927 C79.8113043,38.4983649 77.6086795,38.6406106 76.1624073,37.3698075 C72.9293063,34.5289626 71.0364,30.4405342 71.0364,26.0521 C71.0364,21.6636658 72.9293063,17.5752374 76.1624073,14.7343925 Z" id="Stroke-11" fill="#1082C5" fill-rule="nonzero"></path>
            <path d="M84.4447603,20.4071581 C85.8911068,19.1364395 88.0937232,19.2788139 89.3644419,20.7251603 C90.6351605,22.1715068 90.4927861,24.3741232 89.0464397,25.6448419 C88.9271597,25.7496379 88.8616,25.8913848 88.8616,26.052 C88.8616,26.2129737 88.9275213,26.3555372 89.0481976,26.4617036 C90.4936905,27.7333932 90.6345859,29.9361048 89.3628964,31.3815976 C88.0912068,32.8270905 85.8884952,32.9679859 84.4430024,31.6962964 C82.8336387,30.2804395 81.8896,28.2388315 81.8896,26.052 C81.8896,23.864531 82.8342436,21.8221121 84.4447603,20.4071581 Z" id="Stroke-13" fill="#1082C5" fill-rule="nonzero"></path>
            <path d="M17.8759986,46.0702386 C16.4298748,47.3412107 14.2272335,47.1992223 12.9562614,45.7530986 C11.6852893,44.3069748 11.8272777,42.1043335 13.2734014,40.8333614 C17.5042262,37.1149657 19.9707,31.787256 19.9707,26.0528 C19.9707,20.3174623 17.50431,14.9897079 13.2734014,11.2712386 C11.8272777,10.0002665 11.6852893,7.79762517 12.9562614,6.35150144 C14.2272335,4.90537771 16.4298748,4.76338926 17.8759986,6.03436136 C23.5967992,11.06227 26.9427,18.2898931 26.9427,26.0528 C26.9427,33.8148677 23.5966859,41.0424296 17.8759986,46.0702386 Z" id="Stroke-15" fill="#1082C5" fill-rule="nonzero"></path>
            <path d="M11.0700927,37.3703075 C9.62382045,38.6411106 7.42119568,38.4988649 6.15039253,37.0525927 C4.87958938,35.6063205 5.02183515,33.4036957 6.46810735,32.1328925 C8.21038692,30.6019951 9.2231,28.4138678 9.2231,26.0526 C9.2231,23.6913322 8.21038692,21.5032049 6.46810735,19.9723075 C5.02183515,18.7015043 4.87958938,16.4988795 6.15039253,15.0526073 C7.42119568,13.6063351 9.62382045,13.4640894 11.0700927,14.7348925 C14.3029043,17.5754831 16.1951,21.6638723 16.1951,26.0526 C16.1951,30.4413277 14.3029043,34.5297169 11.0700927,37.3703075 Z" id="Stroke-17" fill="#1082C5" fill-rule="nonzero"></path>
            <path d="M2.78673966,31.6975419 C1.34039322,32.9682605 -0.862223234,32.8258861 -2.13294189,31.3795397 C-3.40366055,29.9331932 -3.2612861,27.7305768 -1.81493966,26.4598581 C-1.69487503,26.3543728 -1.6291,26.2123098 -1.6291,26.0527 C-1.6291,25.8927322 -1.69523688,25.7498529 -1.81669762,25.6429964 C-3.26219048,24.3713068 -3.4030859,22.1685952 -2.13139635,20.7231024 C-0.859706799,19.2776095 1.34300476,19.1367141 2.78849762,20.4084036 C4.39791152,21.8243047 5.3429,23.8658177 5.3429,26.0527 C5.3429,28.2402196 4.39730538,30.2825449 2.78673966,31.6975419 Z" id="Stroke-19" fill="#1082C5" fill-rule="nonzero"></path>
        </g>
    </g>
</svg>