<?xml version="1.0" encoding="UTF-8"?>
<svg width="96px" height="96px" viewBox="0 0 96 96" version="1.1" xmlns="http://www.w3.org/2000/svg" xmlns:xlink="http://www.w3.org/1999/xlink">
    <!-- Generator: Sketch 49.3 (51167) - http://www.bohemiancoding.com/sketch -->
    <title>iVoice PSTN Address</title>
    <desc>Created with Sketch.</desc>
    <defs></defs>
    <g id="iVoice-PSTN-Address" stroke="none" stroke-width="1" fill="none" fill-rule="evenodd">
        <g transform="translate(3.000000, 0.000000)" fill="#0B82C5">
            <path d="M89.9092,53.834 C87.8392,77.444 68.0992,95.304 45.0192,95.304 C43.7192,95.304 42.4092,95.244 41.0892,95.134 C29.0992,94.084 18.2392,88.384 10.5092,79.104 C2.7892,69.814 -0.8808,58.054 0.1792,45.984 C0.7092,39.884 2.4192,34.074 5.2392,28.704 C10.3592,18.974 18.6992,11.554 28.6992,7.624 L26.7592,6.584 C25.0492,5.674 24.4092,3.554 25.3292,1.844 C26.2392,0.144 28.3592,-0.496 30.0692,0.414 L39.9892,5.744 C40.8392,6.194 41.4692,6.984 41.7192,7.924 C41.9692,8.854 41.8192,9.844 41.3092,10.674 L35.3092,20.354 C34.6392,21.424 33.4992,22.014 32.3292,22.014 C31.6992,22.014 31.0592,21.844 30.4892,21.494 C28.8492,20.474 28.3392,18.314 29.3592,16.674 L30.8092,14.324 C22.5592,17.684 15.6892,23.884 11.4392,31.964 C9.0492,36.504 7.5992,41.434 7.1492,46.594 C6.2592,56.814 9.3592,66.774 15.8892,74.624 C22.4192,82.464 31.5792,87.274 41.6992,88.154 C62.5992,89.974 81.0892,74.314 82.9392,53.224 C84.6492,33.624 71.5392,16.004 52.4392,12.234 C50.5392,11.864 49.2992,10.024 49.6792,8.124 C50.0492,6.234 51.8992,4.994 53.7892,5.374 C76.4092,9.824 91.9392,30.664 89.9092,53.834" id="Fill-1"></path>
            <path d="M44.9205424,39.6313459 C44.077919,39.6313459 43.3948378,40.3144271 43.3948378,41.1570504 C43.3948378,41.9996738 44.077919,42.682755 44.9205424,42.682755 C45.7631657,42.682755 46.4462469,41.9996738 46.4462469,41.1570504 C46.4462469,40.3144271 45.7631657,39.6313459 44.9205424,39.6313459 Z M44.9205424,47.7684367 C41.2691745,47.7684367 38.3091561,44.8084183 38.3091561,41.1570504 C38.3091561,37.5056826 41.2691745,34.5456641 44.9205424,34.5456641 C48.5719102,34.5456641 51.5319287,37.5056826 51.5319287,41.1570504 C51.5319287,44.8084183 48.5719102,47.7684367 44.9205424,47.7684367 Z" id="Oval-3" fill-rule="nonzero"></path>
            <path d="M40.851997,78.2825273 C40.851997,76.3164062 42.4458531,74.7225501 44.4119742,74.7225501 C46.3780953,74.7225501 47.9719514,76.3164062 47.9719514,78.2825273 L47.9719514,78.3753385 C47.9719514,80.3414597 46.3780953,81.9353158 44.4119742,81.9353158 C42.4458531,81.9353158 40.851997,80.3414597 40.851997,78.3753385 L40.851997,78.2825273 Z" id="Path-8-Copy" fill-rule="nonzero"></path>
            <path d="M57.8593536,45.2469075 C57.8642787,45.140631 57.8739655,45.0346286 57.8883847,44.9292197 C57.9695883,44.3355986 58.010645,43.733387 58.010645,43.1249882 C58.010645,35.8588883 52.1203072,29.9685505 44.8542074,29.9685505 C37.5881075,29.9685505 31.6977698,35.8588883 31.6977698,43.1249882 C31.6977698,45.5091921 32.3296279,47.792441 33.5118644,49.7967915 L33.5986179,49.9526704 C35.5395396,53.6555225 39.2885392,58.3846932 44.8282028,64.0615646 C53.3597235,55.1548494 57.7009166,48.6657432 57.8593536,45.2469075 Z M24.5778153,43.1249882 C24.5778153,31.926646 33.6558653,22.8485961 44.8542074,22.8485961 C56.0525495,22.8485961 65.1305995,31.926646 65.1305995,43.1249882 C65.1305995,44.0055742 65.0742537,44.8800883 64.9625381,45.7446211 C64.5789853,51.9007483 58.7138354,60.2560261 47.3767156,71.6403492 C45.9961567,73.0266562 43.7555959,73.0390904 42.3597356,71.6681915 C34.9791077,64.4195475 29.9788769,58.347473 27.333312,53.3358007 C25.5385552,50.2616912 24.5778153,46.7594032 24.5778153,43.1249882 Z" id="Combined-Shape" fill-rule="nonzero"></path>
        </g>
    </g>
</svg>