<?xml version="1.0" encoding="UTF-8"?>
<svg width="96px" height="96px" viewBox="0 0 96 96" version="1.1" xmlns="http://www.w3.org/2000/svg" xmlns:xlink="http://www.w3.org/1999/xlink">
    <!-- Generator: Sketch 49.3 (51167) - http://www.bohemiancoding.com/sketch -->
    <title>iVoice mail</title>
    <desc>Created with Sketch.</desc>
    <defs></defs>
    <g id="iVoice-mail" stroke="none" stroke-width="1" fill="none" fill-rule="evenodd">
        <g transform="translate(0.000000, 10.000000)" fill="#0B82C5" fill-rule="nonzero">
            <g id="Oval-Copy">
                <path d="M68.5,0.5 C53.6,0.5 41.5,12.6 41.5,27.5 L4,27.5 C4,27.5 4,27.5 4,27.5 C4,27.5 4,27.5 4,27.5 C3.1,27.5 2.3,27.8 1.7,28.4 C1.7,28.4 1.7,28.4 1.7,28.4 C1.5,28.6 1.3,28.7 1.2,29 C0.8,29.5 0.6,30.1 0.6,30.7 C0.6,30.8 0.6,30.9 0.6,31.1 L0.6,73.1 C0.6,75 2.2,76.6 4.1,76.6 L63.1,76.6 C65,76.6 66.6,75 66.6,73.1 L66.6,54.4 C67.3,54.5 67.9,54.5 68.6,54.5 C83.5,54.5 95.6,42.4 95.6,27.5 C95.6,12.6 83.4,0.5 68.5,0.5 Z M68.5,47.5 C67.8,47.5 67.2,47.5 66.5,47.4 C64,47.2 61.6,46.4 59.5,45.4 C57.1,44.2 55,42.5 53.3,40.5 C50.3,37 48.5,32.5 48.5,27.6 C48.5,16.6 57.5,7.6 68.5,7.6 C79.5,7.6 88.5,16.6 88.5,27.6 C88.5,38.6 79.5,47.5 68.5,47.5 Z M42.4,34.5 C42.7,35.7 43.1,36.9 43.6,38.1 L32.4,44.9 L16.1,34.5 L42.4,34.5 Z M59.5,69.5 L7.5,69.5 L7.5,37.3 L30.6,52 C31.7,52.7 33.2,52.7 34.3,52 L47.2,44.1 C50.3,48.1 54.6,51.2 59.5,53 L59.5,69.5 Z" id="Shape"></path>
            </g>
            <g id="Group" transform="translate(52.000000, 17.000000)">
                <g id="Oval-Copy-9">
                    <path d="M27,7 C24,7 21.6,9.2 21.1,12 L18.7,12 C18.9,11.2 19,10.4 19,9.5 C19,4.3 14.7,0 9.5,0 C4.3,0 0,4.3 0,9.5 C0,9.8 0,10.2 0,10.5 C0.5,15.3 4.6,19 9.5,19 C9.7,19 9.8,19 10,19 L27,19 C30.3,19 33,16.3 33,13 C33,9.7 30.3,7 27,7 Z M9.5,12 C8.5,12 7.6,11.4 7.2,10.5 C7.1,10.2 7,9.9 7,9.5 C7,8.1 8.1,7 9.5,7 C10.9,7 12,8.1 12,9.5 C12,9.9 11.9,10.3 11.8,10.6 C11.3,11.4 10.5,12 9.5,12 Z" id="Shape"></path>
                </g>
            </g>
        </g>
    </g>
</svg>