<?xml version="1.0" encoding="UTF-8"?>
<svg width="96px" height="96px" viewBox="0 0 96 96" version="1.1" xmlns="http://www.w3.org/2000/svg" xmlns:xlink="http://www.w3.org/1999/xlink">
    <!-- Generator: Sketch 49.3 (51167) - http://www.bohemiancoding.com/sketch -->
    <title>iVoice VOIP address</title>
    <desc>Created with Sketch.</desc>
    <defs></defs>
    <g id="iVoice-VOIP-address" stroke="none" stroke-width="1" fill="none" fill-rule="evenodd">
        <g fill="#0B82C5" fill-rule="nonzero">
            <g id="Path-9" transform="translate(0.000000, 38.000000)">
                <path d="M47,57.9 C44,57.9 40.6,57.3 37,56.2 C28.6,53.5 21,48.6 14.3,41.5 C10.2,37.1 6.5,31.9 4.3,27.4 C-1.5,15.4 -0.3,6.7 8,1.4 C9.6,0.4 11.6,0.6 12.9,1.9 L22,10.5 C23.9,12.3 24,15.3 22.2,17.2 L22.1,17.3 C21.1,18.2 20.6,19.4 20.6,20.7 C20.6,22 21.1,23.2 22,24.1 L22.1,24.2 L36.6,38 C38.6,39.9 41.8,39.9 43.8,38 C45.8,36 49,36 51,37.9 L60.1,46.4 C61.6,47.8 61.8,50.2 60.4,51.9 C57.1,55.9 52.6,57.9 47,57.9 Z M9.9,8.6 C7.4,11.1 6.2,15.3 10.6,24.3 C12.5,28.2 15.8,32.8 19.4,36.7 C25.2,42.9 31.8,47.2 39.1,49.5 C46.5,51.9 50.5,50.9 53,49.3 L47.4,44.1 C42.7,47.6 36.1,47.3 31.7,43.1 L17.2,29.2 C17.1,29.1 17,29 16.9,28.9 C14.7,26.7 13.5,23.7 13.6,20.5 C13.6,18.1 14.3,15.9 15.7,14 L9.9,8.6 Z" id="Shape"></path>
            </g>
            <g id="Group-2" transform="translate(61.000000, 0.000000)">
                <g id="Path-8-Copy" transform="translate(14.000000, 43.000000)">
                    <path d="M3.9,7.4 C2,7.4 0.4,5.8 0.4,3.9 C0.4,2 2,0.4 3.9,0.4 C5.8,0.4 7.4,1.9 7.4,3.9 L7.4,4 C7.4,5.8 5.8,7.4 3.9,7.4 Z" id="Shape"></path>
                </g>
                <g id="Combined-Shape">
                    <path d="M17.5,41.8 C16.6,41.8 15.7,41.5 15.1,40.8 C9,34.9 5,30 2.8,25.9 C1.3,23.3 0.5,20.4 0.5,17.4 C0.5,8.1 8.1,0.5 17.5,0.5 C26.9,0.5 34.5,8.1 34.5,17.4 C34.5,18.1 34.5,18.8 34.4,19.6 C34.1,24.6 29.5,31.3 20,40.8 C19.3,41.4 18.4,41.8 17.5,41.8 Z M17.5,7.5 C12,7.5 7.5,11.9 7.5,17.4 C7.5,19.2 8,20.9 8.9,22.4 C8.9,22.5 9,22.5 9,22.6 C10.5,25.4 13.4,29 17.5,33.3 C26.2,24.2 27.3,20.4 27.4,19.1 C27.4,19 27.4,18.9 27.4,18.8 C27.5,18.3 27.5,17.9 27.5,17.4 C27.5,11.9 23,7.5 17.5,7.5 Z" id="Shape"></path>
                </g>
                <g id="Oval-6" transform="translate(13.000000, 11.000000)">
                    <circle id="Oval" cx="4.5" cy="4.5" r="4.5"></circle>
                </g>
            </g>
            <g id="Path-14" transform="translate(29.000000, 39.000000)">
                <path d="M22.5,27.5 L4,27.5 C2.1,27.5 0.5,25.9 0.5,24 C0.5,22.1 2.1,20.5 4,20.5 L22.5,20.5 C23.4,20.5 24.1,19.8 24.1,18.9 C24.1,18 23.4,17.3 22.5,17.3 L19.7,17.3 C15,17.3 11.3,13.5 11.3,8.9 C11.3,4.2 15.1,0.5 19.7,0.5 L36.7,0.5 C38.6,0.5 40.2,2.1 40.2,4 C40.2,5.9 38.6,7.5 36.7,7.5 L19.7,7.5 C18.9,7.5 18.3,8.1 18.3,8.9 C18.3,9.7 18.9,10.3 19.7,10.3 L22.5,10.3 C27.2,10.3 31.1,14.1 31.1,18.9 C31.1,23.7 27.2,27.5 22.5,27.5 Z" id="Shape"></path>
            </g>
        </g>
    </g>
</svg>