<?xml version="1.0" encoding="UTF-8"?>
<svg width="96px" height="96px" viewBox="0 0 96 96" version="1.1" xmlns="http://www.w3.org/2000/svg" xmlns:xlink="http://www.w3.org/1999/xlink">
    <!-- Generator: Sketch 49.3 (51167) - http://www.bohemiancoding.com/sketch -->
    <title>launch support</title>
    <desc>Created with Sketch.</desc>
    <defs></defs>
    <g id="launch-support" stroke="none" stroke-width="1" fill="none" fill-rule="evenodd">
        <g transform="translate(0.000000, 1.000000)" fill="#0B82C5" fill-rule="nonzero" id="Shape">
            <path d="M73,64.7 C73,65.7 72.6,66.5 72,67.2 C71.4,67.8 70.7,68.1 69.9,68.2 C69.8,68.2 69.7,68.2 69.6,68.2 C68.6,68.2 67.8,67.8 67.1,67.2 C66.5,66.6 66.1,65.7 66.1,64.7 C66.1,63.7 66.5,62.9 67.1,62.2 C67.7,61.6 68.6,61.2 69.6,61.2 C69.7,61.2 69.8,61.2 69.9,61.2 C71.6,61.4 73,62.9 73,64.7 Z"></path>
            <path d="M74,74.1 L74,83 C74,85.2 72.2,87 70,87 C67.8,87 66,85.2 66,83 L66,74.1 C66,72 67.7,70.2 69.8,70.1 C69.9,70.1 69.9,70.1 70,70.1 C72.2,70.2 74,71.9 74,74.1 Z"></path>
            <path d="M43.5,96 C41.6,96 40,94.4 40,92.5 L40,84.5 C40,82.6 41.6,81 43.5,81 C45.4,81 47,82.6 47,84.5 L47,92.5 C47,94.4 45.4,96 43.5,96 Z"></path>
            <path d="M32.5,92 C30.6,92 29,90.4 29,88.5 L29,84.5 C29,82.6 30.6,81 32.5,81 C34.4,81 36,82.6 36,84.5 L36,88.5 C36,90.5 34.4,92 32.5,92 Z"></path>
            <path d="M88.7,62 C88.1,61.1 87.5,60.2 86.8,59.4 C86.6,59.1 86.3,58.8 86.1,58.6 C85.9,58.4 85.6,58.1 85.3,57.8 C85.1,57.6 84.8,57.3 84.5,57.1 C84.5,57.1 84.5,57.1 84.5,57.1 C83.7,56.4 82.8,55.7 82,55.1 C81.7,54.9 81.4,54.7 81.1,54.5 C77.8,52.5 73.9,51.3 69.8,51.3 L69.8,42.4 C69.8,25.4 61.8,11.4 46,0.7 C44.9,-0.1 43.4,-0.1 42.2,0.6 C34,5.7 28,12 24,19.5 C20.3,26.4 18.5,34.3 18.5,43.1 L18.5,47.4 C6.3,55.4 0.1,68.9 0.1,87.5 C0.1,88.8 0.8,90 2,90.6 C2.5,90.9 3.1,91 3.6,91 C4.3,91 5,90.8 5.6,90.4 L21.5,79.3 C21.7,79.3 21.8,79.3 22,79.3 L47.8,79.3 C48.4,81.4 49.2,83.4 50.3,85.2 C50.9,86.1 51.5,87 52.2,87.8 C52.4,88.1 52.7,88.4 52.9,88.6 C53,88.7 53.1,88.8 53.3,89 C53.4,89.1 53.5,89.3 53.7,89.4 C53.9,89.6 54.2,89.9 54.5,90.1 C54.5,90.1 54.5,90.1 54.5,90.1 C55.6,91.1 56.7,91.9 58,92.7 C61.4,94.8 65.4,95.9 69.7,95.9 C74,95.9 78,94.7 81.4,92.7 C82.6,91.9 83.8,91.1 84.9,90.1 C84.9,90.1 84.9,90.1 84.9,90.1 C85.2,89.9 85.4,89.6 85.7,89.4 C85.8,89.3 86,89.1 86.1,89 C86.2,88.9 86.3,88.8 86.5,88.6 C86.7,88.3 87,88.1 87.2,87.8 C87.9,87 88.5,86.1 89.1,85.2 C91.2,81.8 92.4,77.8 92.4,73.6 C92.4,69.4 90.8,65.4 88.7,62 Z M18.5,73 L7.4,80.7 C8.5,70 12.1,61.9 18.5,56.2 L18.5,73 Z M44,7.8 C48.9,11.4 52.9,15.2 55.8,19.5 L32.1,19.5 C35,15.1 39,11.2 44,7.8 Z M53.2,58.2 C53.1,58.3 53,58.4 52.8,58.6 C52.6,58.9 52.3,59.1 52.1,59.4 C51.4,60.2 50.8,61.1 50.2,62 C48.3,65.1 47.2,68.6 47,72.4 L25.5,72.4 L25.5,43.1 C25.5,37 26.5,31.4 28.5,26.4 L59.8,26.4 C61.9,31.3 62.9,36.6 62.9,42.3 L62.9,52.2 C61.1,52.7 59.5,53.5 57.9,54.4 C57.6,54.6 57.3,54.8 57,55 C56.1,55.6 55.3,56.3 54.5,57 C54.5,57 54.5,57 54.5,57 C54.2,57.2 54,57.5 53.7,57.7 C53.5,58 53.3,58.1 53.2,58.2 Z M69.5,89 C63,89 57.4,85 55.1,79.3 C54.4,77.5 54,75.6 54,73.6 C54,73.2 54,72.8 54,72.4 C54.4,66.8 57.9,62 62.8,59.7 C64.8,58.7 67.1,58.2 69.5,58.2 C69.6,58.2 69.7,58.2 69.8,58.2 C78.2,58.4 85,65.2 85,73.6 C85,82.1 78,89 69.5,89 Z"></path>
            <path d="M57,42.7 C57,42.5 57,42.3 57,42.1 C57,41.9 57,41.8 56.9,41.6 C56.9,41.5 56.9,41.3 56.8,41.2 C56.8,41 56.7,40.8 56.7,40.5 C56.7,40.4 56.6,40.2 56.6,40.1 C56.6,39.9 56.5,39.7 56.4,39.6 C56.3,39.4 56.3,39.2 56.2,39 C55.9,38.2 55.5,37.5 55.1,36.7 C55,36.6 55,36.5 54.9,36.4 C54.8,36.3 54.8,36.2 54.7,36.1 C54,35.1 53.2,34.3 52.3,33.5 C52,33.2 51.6,33 51.3,32.8 C50.9,32.6 50.6,32.4 50.2,32.1 C49.9,32 49.6,31.8 49.3,31.7 C49,31.6 48.7,31.5 48.4,31.4 C48.2,31.3 48,31.3 47.8,31.2 C47.6,31.1 47.4,31.1 47.2,31 C47,30.9 46.7,30.9 46.4,30.8 C46.2,30.8 46,30.7 45.8,30.7 C45.6,30.7 45.4,30.7 45.3,30.6 C44.8,30.5 44.4,30.5 43.9,30.5 C43.4,30.5 43,30.5 42.5,30.6 C42.3,30.6 42.1,30.6 42,30.7 C41.8,30.7 41.6,30.8 41.4,30.8 C41.2,30.8 40.9,30.9 40.6,31 C40.4,31 40.2,31.1 40,31.2 C39.8,31.3 39.6,31.3 39.4,31.4 C39.1,31.5 38.8,31.6 38.5,31.7 C38.2,31.8 37.9,32 37.6,32.1 C37.2,32.3 36.9,32.5 36.5,32.8 C36.2,33 35.8,33.3 35.5,33.5 C34.8,34.1 34,35 33.3,36 C33.2,36.1 33.1,36.2 33.1,36.3 C33,36.4 33,36.5 32.9,36.6 C32.5,37.3 32.1,38.1 31.8,38.9 C31.7,39.1 31.7,39.3 31.6,39.5 C31.5,39.7 31.5,39.9 31.4,40 C31.4,40.1 31.3,40.3 31.3,40.4 C31.3,40.6 31.2,40.8 31.2,41.1 C31.2,41.2 31.2,41.3 31.1,41.5 C31.1,41.7 31.1,41.8 31,42 C31,42.2 31,42.4 31,42.6 C31,42.8 31,43.1 31,43.3 C31,43.5 31,43.7 31,44 C31,44.2 31,44.4 31,44.7 C31,44.9 31,45 31.1,45.2 C31.1,45.3 31.1,45.5 31.2,45.6 C31.2,45.8 31.3,46 31.3,46.2 C31.3,46.4 31.4,46.5 31.4,46.7 C31.4,46.9 31.5,47.1 31.6,47.2 C32,48.6 32.7,49.9 33.6,51.1 C33.7,51.3 33.8,51.4 34,51.6 C34.1,51.8 34.3,51.9 34.4,52.1 C34.5,52.3 34.7,52.4 34.8,52.6 C35,52.7 35.1,52.9 35.3,53 C35.4,53.1 35.6,53.3 35.8,53.4 C36,53.5 36.1,53.6 36.3,53.8 C36.5,53.9 36.6,54 36.8,54.2 C37.2,54.4 37.5,54.6 37.9,54.9 C38.1,55 38.3,55.1 38.5,55.2 C38.6,55.3 38.8,55.3 38.9,55.4 C39.1,55.5 39.4,55.6 39.6,55.7 C40,55.8 40.4,56 40.8,56.1 C41,56.2 41.3,56.2 41.6,56.3 C41.8,56.3 42,56.4 42.2,56.4 C42.4,56.4 42.6,56.4 42.7,56.5 C43.2,56.6 43.6,56.6 44.1,56.6 C44.6,56.6 45,56.6 45.5,56.5 C45.7,56.5 45.9,56.5 46,56.4 C46.2,56.4 46.4,56.3 46.6,56.3 C46.8,56.3 47.1,56.2 47.4,56.1 C47.8,56 48.2,55.9 48.6,55.7 C48.8,55.6 49.1,55.5 49.3,55.4 C49.4,55.3 49.6,55.3 49.7,55.2 C49.9,55.1 50.1,55 50.3,54.9 C50.7,54.7 51,54.5 51.4,54.2 C51.6,54.1 51.7,54 51.9,53.8 C52.1,53.7 52.2,53.6 52.4,53.4 C52.6,53.3 52.7,53.1 52.9,53 C53.1,52.9 53.2,52.7 53.4,52.6 C53.6,52.4 53.7,52.3 53.8,52.1 C53.9,51.9 54.1,51.8 54.2,51.6 C54.3,51.5 54.5,51.3 54.6,51.1 C55.5,49.9 56.2,48.6 56.6,47.2 C56.7,47 56.7,46.8 56.8,46.7 C56.8,46.5 56.9,46.4 56.9,46.2 C56.9,46 57,45.8 57,45.6 C57,45.5 57,45.3 57.1,45.2 C57.1,45 57.1,44.9 57.2,44.7 C57.2,44.5 57.2,44.3 57.2,44 C57.2,43.8 57.2,43.6 57.2,43.3 C57,43.1 57,42.9 57,42.7 Z M44,49.3 C40.7,49.3 38,46.6 38,43.3 C38,40 40.7,37.3 44,37.3 C47.3,37.3 50,40 50,43.3 C50,46.6 47.3,49.3 44,49.3 Z"></path>
        </g>
    </g>
</svg>