<?xml version="1.0" encoding="UTF-8"?>
<svg width="96px" height="96px" viewBox="0 0 96 96" version="1.1" xmlns="http://www.w3.org/2000/svg" xmlns:xlink="http://www.w3.org/1999/xlink">
    <!-- Generator: Sketch 49.3 (51167) - http://www.bohemiancoding.com/sketch -->
    <title>no harware</title>
    <desc>Created with Sketch.</desc>
    <defs></defs>
    <g id="no-harware" stroke="none" stroke-width="1" fill="none" fill-rule="evenodd">
        <g id="no-hardware" transform="translate(0.000000, 4.000000)" fill="#0B82C5" fill-rule="nonzero">
            <path d="M83,50.8 C83,50.4 83,50 83,49.6 C83,43 80.5,37 76.4,32.6 C76.1,32 75.6,31.6 75.1,31.2 C72.8,29.1 70.2,27.4 67.2,26.2 C66.7,25 66.1,23.9 65.5,22.7 C65.8,22.5 66,22.3 66.3,22.1 L68.6,19.8 C69.4,19 69.8,18 69.8,17 C69.8,16 69.4,14.9 68.6,14.2 L62.9,8.5 C61.4,7 58.7,7 57.2,8.5 L55,10.7 C54.8,10.9 54.5,11.2 54.4,11.5 C51.9,10 49.3,8.9 46.5,8.2 L46.5,8.1 C46.6,7.8 46.6,7.5 46.6,7.2 L46.6,4 C46.6,1.8 44.8,0 42.6,0 L34.6,0 C32.4,0 30.6,1.8 30.6,4 L30.6,7.2 C30.6,7.5 30.6,7.9 30.7,8.2 C27.9,8.9 25.3,10 22.8,11.5 C22.6,11.2 22.4,11 22.2,10.7 L19.9,8.4 C19,7.7 18,7.3 17,7.3 C16,7.3 14.9,7.7 14.2,8.5 L8.5,14.2 C7.7,15 7.3,16 7.3,17 C7.3,18 7.7,19.1 8.5,19.8 L10.8,22.1 C11,22.3 11.3,22.6 11.6,22.7 C10,25.2 9,27.8 8.2,30.6 C7.9,30.5 7.5,30.5 7.2,30.5 L4,30.5 C1.8,30.5 0,32.3 0,34.5 L0,42.5 C0,44.7 1.8,46.5 4,46.5 L7.2,46.5 C7.5,46.5 7.9,46.5 8.2,46.4 L8.2,46.5 C8.9,49.1 9.9,51.7 11.3,54 C5.2,56.6 0.7,62.5 0.1,69.4 C-0.7,78.9 5.8,87.4 15.1,89.2 C15.6,89.4 16.1,89.5 16.6,89.5 L76.6,89.5 C76.7,89.5 76.8,89.5 77,89.5 C87.7,89 96,80.3 96,69.5 C96,61 90.7,53.6 83,50.8 Z M76.3,82.5 L17.5,82.5 C17.3,82.5 17.2,82.4 17,82.4 C10.9,81.6 6.6,76.1 7.1,70 C7.3,67.7 8.2,65.7 9.5,63.9 C10.8,62.3 12.4,61 14.4,60.3 C15.4,59.9 16.5,59.7 17.6,59.5 C18.2,59.4 18.8,59.4 19.3,59.5 C19.7,59.5 20,59.5 20.4,59.6 C21.4,59.8 22.5,59.4 23.2,58.8 C23.3,58.7 23.4,58.6 23.4,58.6 C24.2,57.8 24.5,56.6 24.3,55.5 C24.1,54.5 24.1,53.6 24.1,52.6 C24.1,52.6 24.1,52.5 24.1,52.5 C24.4,50 25.8,47.7 27.9,46.3 C29.1,45.4 30.5,44.9 32.1,44.7 C33.9,44.5 35.6,44.8 37.2,45.6 C38.1,46.1 39.2,46.1 40.1,45.7 C41,45.3 41.8,44.6 42.1,43.6 C43.6,39.3 46.6,35.8 50.3,33.8 C52.3,32.7 54.6,31.9 57,31.7 C57.5,31.7 58.1,31.6 58.6,31.6 C60.1,31.6 61.6,31.8 63,32.2 C65.9,33 68.5,34.5 70.7,36.6 C70.8,36.7 71,36.9 71.1,37 C73.4,39.3 75,42.3 75.7,45.7 C76,47 76.1,48.3 76.1,49.7 C76.1,50.8 76,51.9 75.8,52.9 C75.5,54.8 76.7,56.6 78.6,56.9 C84.6,57.9 89,63.3 89,69.5 C89,76.6 83.5,82.3 76.4,82.5 C76.4,82.5 76.4,82.5 76.3,82.5 Z M25,38 C25,30.8 30.8,25 38,25 C41.1,25 44,26.1 46.2,27.9 C42.3,30.3 39,33.7 36.8,37.9 C35,37.5 33.2,37.4 31.3,37.5 C29.1,37.7 26.9,38.4 25.1,39.5 C25,39.1 25,38.5 25,38 Z M7,40.5 L6,40.5 L6,36.5 L7,36.5 C10.1,37.1 13.2,35.3 14,32.2 L14,32.1 C14.6,29.9 15.5,27.7 16.7,25.7 C18.3,22.9 17.5,19.4 14.8,17.6 L14.1,17 L17,14.1 L17.7,14.8 C19.4,17.5 23,18.3 25.8,16.7 C27.8,15.5 30,14.6 32.2,14.1 L32.3,14.1 C35.4,13.3 37.2,10.2 36.6,7.1 L36.6,6.1 L40.6,6.1 L40.6,7.1 C40,10.2 41.8,13.3 44.9,14.1 L45,14.1 C47.2,14.7 49.4,15.6 51.4,16.8 C54.2,18.4 57.7,17.6 59.5,14.9 L60.2,14.2 L63.1,17.1 L62.4,17.8 C60.1,19.3 59.2,22.2 60,24.7 C59.6,24.7 59.2,24.7 58.8,24.7 C57,24.7 55.2,24.9 53.5,25.3 C49.6,20.8 44.1,18 38,18 C27,18 18,27 18,38 C18,40.5 18.5,43 19.3,45.2 C18.1,47.1 17.3,49.4 17.1,51.7 C17.1,51.8 17.1,52 17.1,52.1 C17,51.8 16.9,51.5 16.7,51.2 C15.5,49.2 14.6,47 14.1,44.8 L14.1,44.7 C13.2,41.8 10.1,39.9 7,40.5 Z" id="Shape"></path>
        </g>
    </g>
</svg>