<?xml version="1.0" encoding="UTF-8"?>
<svg width="96px" height="96px" viewBox="0 0 96 96" version="1.1" xmlns="http://www.w3.org/2000/svg" xmlns:xlink="http://www.w3.org/1999/xlink">
    <!-- Generator: Sketch 49.3 (51167) - http://www.bohemiancoding.com/sketch -->
    <title>No IVR Menus</title>
    <desc>Created with Sketch.</desc>
    <defs></defs>
    <g id="No-IVR-Menus" stroke="none" stroke-width="1" fill="none" fill-rule="evenodd">
        <g transform="translate(-28.000000, -6.000000)" fill="#0B82C5">
            <path d="M43.5131803,28.3455987 C46.0340405,30.8813467 46.0624779,34.9680001 43.577149,37.5385859 C41.0749338,40.1266373 41.0889477,44.1925895 43.5818872,46.7357302 L61.8463913,65.3680323 C64.2973395,67.8683361 68.3111223,67.9083466 70.811426,65.4573984 C73.3991724,62.7738052 77.4627186,62.6970415 80.0222865,65.1617133 C80.055613,65.1942332 83.6592833,68.7797319 90.8332972,75.9182093 C93.2721601,78.3450085 93.4267296,82.2419979 91.1877379,84.8543377 C84.6526148,92.479182 74.9990144,94.0076537 62.3457706,89.7120269 C51.6213067,86.0711981 42.014738,79.3449568 33.7491156,69.9607409 C28.4439691,63.9376443 23.8761165,56.9662181 21.1861909,51.0411681 C14.2994207,35.8718051 15.1755307,24.5629868 24.2491807,17.2941896 C26.8700069,15.1946771 30.6520086,15.4084708 33.0195265,17.7899709 L43.5131803,28.3455987 Z M75.2622173,69.4892208 C75.1798878,69.5747208 75.0963287,69.6590287 75.0115662,69.7421181 C70.1448771,74.5127397 62.3322931,74.4348616 57.5616716,69.5681724 L39.2971676,50.9358703 C34.5284401,46.0711135 34.501633,38.2933809 39.2367151,33.3958661 C39.4777923,33.1465189 39.4753413,32.7942875 39.2580667,32.5757298 L28.7644129,22.020102 C28.5581863,21.8126575 28.2287483,21.7940346 28.0004576,21.9769155 C21.4277291,27.2422531 20.7780794,35.6279235 26.6495281,48.5608564 C29.0892129,53.9347054 33.3308235,60.4082233 38.2516087,65.9949426 C45.8523558,74.6243052 54.5915348,80.7432253 64.2745802,84.0305048 C74.8055306,87.605638 81.8886119,86.4841612 86.6320632,80.9497471 C86.8270928,80.7221966 86.8136289,80.3827454 86.6011879,80.1713553 L75.8653723,69.4886216 C75.6879512,69.3175298 75.4227172,69.3225403 75.2622173,69.4892208 Z" id="Path-9" fill-rule="nonzero" transform="translate(54.705593, 53.962967) rotate(45.000000) translate(-54.705593, -53.962967) "></path>
            <path d="M55.8154,48.0560941 C54.6798506,46.8495728 54.7373847,44.9509494 55.9439059,43.8154 C57.1504272,42.6798506 59.0490506,42.7373847 60.1846,43.9439059 L76.1846,60.9439059 C77.3201494,62.1504272 77.2626153,64.0490506 76.0560941,65.1846 C74.8495728,66.3201494 72.9509494,66.2626153 71.8154,65.0560941 L55.8154,48.0560941 Z" id="Line" fill-rule="nonzero"></path>
            <path d="M60.1846,65.0560941 C59.0490506,66.2626153 57.1504272,66.3201494 55.9439059,65.1846 C54.7373847,64.0490506 54.6798506,62.1504272 55.8154,60.9439059 L71.8154,43.9439059 C72.9509494,42.7373847 74.8495728,42.6798506 76.0560941,43.8154 C77.2626153,44.9509494 77.3201494,46.8495728 76.1846,48.0560941 L60.1846,65.0560941 Z" id="Line-Copy" fill-rule="nonzero"></path>
            <polygon id="Line-3" fill-rule="nonzero" points="63.9952982 57.5 63.9952982 51.5 96.5831892 51.5 96.5831892 57.5"></polygon>
            <path d="M107,46 C104.238576,46 102,48.2385763 102,51 L102,57 C102,59.7614237 104.238576,62 107,62 L113,62 C115.761424,62 118,59.7614237 118,57 L118,51 C118,48.2385763 115.761424,46 113,46 L107,46 Z M107,40 L113,40 C119.075132,40 124,44.9248678 124,51 L124,57 C124,63.0751322 119.075132,68 113,68 L107,68 C100.924868,68 96,63.0751322 96,57 L96,51 C96,44.9248678 100.924868,40 107,40 Z" id="Combined-Shape-Copy-3" fill-rule="nonzero"></path>
            <path d="M107,12 C104.238576,12 102,14.2385763 102,17 L102,23 C102,25.7614237 104.238576,28 107,28 L113,28 C115.761424,28 118,25.7614237 118,23 L118,17 C118,14.2385763 115.761424,12 113,12 L107,12 Z M107,6 L113,6 C119.075132,6 124,10.9248678 124,17 L124,23 C124,29.0751322 119.075132,34 113,34 L107,34 C100.924868,34 96,29.0751322 96,23 L96,17 C96,10.9248678 100.924868,6 107,6 Z" id="Combined-Shape-Copy-4" fill-rule="nonzero"></path>
            <path d="M107,80 C104.238576,80 102,82.2385763 102,85 L102,91 C102,93.7614237 104.238576,96 107,96 L113,96 C115.761424,96 118,93.7614237 118,91 L118,85 C118,82.2385763 115.761424,80 113,80 L107,80 Z M107,74 L113,74 C119.075132,74 124,78.9248678 124,85 L124,91 C124,97.0751322 119.075132,102 113,102 L107,102 C100.924868,102 96,97.0751322 96,91 L96,85 C96,78.9248678 100.924868,74 107,74 Z" id="Combined-Shape-Copy-5" fill-rule="nonzero"></path>
            <path d="M109.394,23.95 L109.394,18.63 L107.588,18.63 C107.126,18.63 106.874,18.462 106.874,17.888 C106.874,17.37 107.154,17.23 107.882,17.09 L108.4,16.978 C109.954,16.642 109.52,15.046 110.71,15.046 C111.158,15.046 111.522,15.242 111.522,15.998 L111.522,23.95 C111.522,24.678 111.242,25.182 110.458,25.182 C109.674,25.182 109.394,24.678 109.394,23.95 Z" id="1"></path>
            <path d="M108.091168,57.236 L112.291168,57.236 C112.823168,57.236 113.215168,57.488 113.215168,58.118 C113.215168,58.748 112.823168,59 112.179168,59 L106.929168,59 C106.117168,59 105.781168,58.454 105.781168,57.964 C105.781168,56.97 106.663168,55.864 108.413168,54.758 C110.359168,53.526 111.031168,53.274 111.031168,52.14 C111.031168,51.23 110.331168,50.726 109.561168,50.726 C108.665168,50.726 108.063168,51.09 107.755168,52.21 C107.615168,52.728 107.433168,52.994 106.873168,52.994 C106.299168,52.994 105.851168,52.756 105.851168,52.056 C105.851168,50.348 107.531168,49.046 109.589168,49.046 C111.829168,49.046 113.159168,50.516 113.159168,51.804 C113.159168,53.666 112.305168,54.394 110.821168,55.234 C109.239168,56.13 108.273168,56.704 108.091168,57.236 Z" id="2"></path>
            <path d="M106.620523,90.76 C106.620523,90.186 107.040523,89.78 107.614523,89.78 C108.860523,89.78 108.188523,91.502 110.120523,91.502 C111.170523,91.502 111.730523,90.858 111.730523,89.99 C111.730523,89.318 111.436523,88.828 110.470523,88.73 C110.078523,88.688 109.308523,88.618 109.308523,87.974 C109.308523,87.246 109.728523,87.092 110.526523,87.05 C111.226523,87.008 111.590523,86.602 111.590523,85.958 C111.590523,85.118 110.932523,84.726 110.190523,84.726 C108.496523,84.726 108.888523,86.322 107.782523,86.322 C107.306523,86.322 106.844523,86.112 106.844523,85.482 C106.844523,83.774 108.874523,83.046 110.232523,83.046 C112.654523,83.046 113.550523,84.404 113.550523,85.762 C113.550523,86.658 113.144523,87.302 112.360523,87.722 C113.410523,88.016 113.858523,88.856 113.858523,89.906 C113.858523,92.118 112.150523,93.182 110.078523,93.182 C107.446523,93.182 106.620523,91.544 106.620523,90.76 Z" id="3"></path>
            <path d="M97.5653744,85 C99.2222286,85 100.565374,86.3431458 100.565374,88 C100.565374,89.6568542 99.2222286,91 97.5653744,91 L89,91 C85.1340068,91 82,87.8659932 82,84 L82,21 C82,17.1340068 85.1340068,14 89,14 L97.5653744,14 C99.2222286,14 100.565374,15.3431458 100.565374,17 C100.565374,18.6568542 99.2222286,20 97.5653744,20 L89,20 C88.4477152,20 88,20.4477152 88,21 L88,84 C88,84.5522848 88.4477152,85 89,85 L97.5653744,85 Z" id="Path-7-Copy" fill-rule="nonzero"></path>
        </g>
    </g>
</svg>