<?xml version="1.0" encoding="UTF-8"?>
<svg width="96px" height="77px" viewBox="0 0 96 77" version="1.1" xmlns="http://www.w3.org/2000/svg" xmlns:xlink="http://www.w3.org/1999/xlink">
    <!-- Generator: Sketch 49.3 (51167) - http://www.bohemiancoding.com/sketch -->
    <title>No Skils to Anwer Query</title>
    <desc>Created with Sketch.</desc>
    <defs></defs>
    <g id="Page-1" stroke="none" stroke-width="1" fill="none" fill-rule="evenodd">
        <g id="No-Skils-to-Anwer-Query" transform="translate(4.000000, 4.000000)" fill="#0B82C5" fill-rule="nonzero">
            <path d="M76.6653309,8.13227459 L85.3114543,-2.24091989 C86.5490802,-3.72576269 88.7560771,-3.92617159 90.2409199,-2.68854571 C91.7257627,-1.45091983 91.9261716,0.756077096 90.6885457,2.24091989 L79.8529633,15.2409199 C78.6356181,16.7014309 76.4749444,16.9229643 74.9865512,15.7398719 L66.8221336,9.25014858 C65.3089442,8.0473462 65.0573257,5.84559977 66.2601281,4.3324103 C67.4629305,2.81922083 69.6646769,2.56760239 71.1778664,3.77040478 L76.6653309,8.13227459 Z" id="Path-2-Copy-2"></path>
            <path d="M85.3114543,25.7590801 C86.5490802,24.2742373 88.7560771,24.0738284 90.2409199,25.3114543 C91.7257627,26.5490802 91.9261716,28.7560771 90.6885457,30.2409199 L79.8529633,43.2409199 C78.6356181,44.7014309 76.4749444,44.9229643 74.9865512,43.7398719 L66.8221336,37.2501486 C65.3089442,36.0473462 65.0573257,33.8455998 66.2601281,32.3324103 C67.4629305,30.8192209 69.6646769,30.5676024 71.1778664,31.7704048 L76.6653309,36.1322746 L85.3114543,25.7590801 Z" id="Path-2-Copy-3"></path>
            <path d="M85.3114543,53.7590801 C86.5490802,52.2742373 88.7560771,52.0738284 90.2409199,53.3114543 C91.7257627,54.5490802 91.9261716,56.7560771 90.6885457,58.2409199 L79.8529633,71.2409199 C78.6356181,72.7014309 76.4749444,72.9229643 74.9865512,71.7398719 L66.8221336,65.2501486 C65.3089442,64.0473462 65.0573257,61.8455998 66.2601281,60.3324103 C67.4629305,58.8192209 69.6646769,58.5676024 71.1778664,59.7704048 L76.6653309,64.1322746 L85.3114543,53.7590801 Z" id="Path-2-Copy-4"></path>
            <path d="M28.5,35 C18.2827321,35 10,26.7172679 10,16.5 C10,6.28273213 18.2827321,-2 28.5,-2 C38.7172679,-2 47,6.28273213 47,16.5 C47,26.7172679 38.7172679,35 28.5,35 Z M28.5,29 C35.4035594,29 41,23.4035594 41,16.5 C41,9.59644063 35.4035594,4 28.5,4 C21.5964406,4 16,9.59644063 16,16.5 C16,23.4035594 21.5964406,29 28.5,29 Z" id="Oval-4-Copy"></path>
            <path d="M59.45531,68.4424759 C59.763222,70.3507909 58.4658391,72.1473979 56.5575241,72.45531 C54.6492091,72.763222 52.8526021,71.4658391 52.54469,69.5575241 C50.2471264,55.3181497 41.3162229,46.5 27.9210982,46.5 C14.7343627,46.5 6.96041201,54.2031137 3.4064814,69.2670183 C2.96262707,71.148366 1.07767837,72.3136846 -0.80366936,71.8698303 C-2.68501709,71.425976 -3.85033574,69.5410273 -3.4064814,67.6596795 C0.831426545,49.6966274 11.1218209,39.5 27.9210982,39.5 C44.9891266,39.5 56.6418159,51.0055726 59.45531,68.4424759 Z" id="Oval-5-Copy"></path>
        </g>
    </g>
</svg>