<?xml version="1.0" encoding="UTF-8"?>
<svg width="96px" height="96px" viewBox="0 0 96 96" version="1.1" xmlns="http://www.w3.org/2000/svg" xmlns:xlink="http://www.w3.org/1999/xlink">
    <!-- Generator: Sketch 49.3 (51167) - http://www.bohemiancoding.com/sketch -->
    <title>(ISU-93) Open Calculator Image</title>
    <desc>Created with Sketch.</desc>
    <defs>
        <polygon id="path-1" points="0 0.194 78.8646 0.194 78.8646 95.9999 0 95.9999"></polygon>
    </defs>
    <g id="(ISU-93)-Open-Calculator-Image" stroke="none" stroke-width="1" fill="none" fill-rule="evenodd">
        <g id="Page-1" transform="translate(9.000000, -1.000000)">
            <g id="Group-3" transform="translate(0.000000, 0.805700)">
                <mask id="mask-2" fill="white">
                    <use xlink:href="#path-1"></use>
                </mask>
                <g id="Clip-2"></g>
                <path d="M72.7886,86.4189 C72.7886,88.3519 71.2166,89.9239 69.2836,89.9239 L9.5806,89.9239 C7.6476,89.9239 6.0766,88.3519 6.0766,86.4189 L6.0766,9.7749 C6.0766,7.8419 7.6476,6.2709 9.5806,6.2709 L69.2836,6.2709 C71.2166,6.2709 72.7886,7.8419 72.7886,9.7749 L72.7886,86.4189 Z M69.2836,0.1939 L9.5806,0.1939 C4.2976,0.1939 -0.0004,4.4919 -0.0004,9.7749 L-0.0004,86.4189 C-0.0004,91.7019 4.2976,95.9999 9.5806,95.9999 L69.2836,95.9999 C74.5666,95.9999 78.8646,91.7019 78.8646,86.4189 L78.8646,9.7749 C78.8646,4.4919 74.5666,0.1939 69.2836,0.1939 Z" id="Fill-1" fill="#1182C5" mask="url(#mask-2)"></path>
            </g>
            <path d="M60.4565,32.4517 C60.4565,32.6397 60.3035,32.7937 60.1145,32.7937 L18.5735,32.7937 C18.3855,32.7937 18.2315,32.6397 18.2315,32.4517 L18.2315,16.5207 C18.2315,16.3327 18.3855,16.1797 18.5735,16.1797 L60.1145,16.1797 C60.3035,16.1797 60.4565,16.3327 60.4565,16.5207 L60.4565,32.4517 Z M60.1145,10.8237 L18.5735,10.8237 C15.4325,10.8237 12.8765,13.3797 12.8765,16.5207 L12.8765,32.4517 C12.8765,35.5937 15.4325,38.1487 18.5735,38.1487 L60.1145,38.1487 C63.2565,38.1487 65.8115,35.5937 65.8115,32.4517 L65.8115,16.5207 C65.8115,13.3797 63.2565,10.8237 60.1145,10.8237 Z" id="Fill-4" fill="#1182C5"></path>
            <path d="M20.6274,40.7427 L16.6344,40.7427 C14.9074,40.7427 13.5074,42.1427 13.5074,43.8697 L13.5074,47.8627 C13.5074,48.7267 13.8564,49.5087 14.4234,50.0747 C14.9894,50.6397 15.7714,50.9907 16.6344,50.9907 L20.6274,50.9907 C22.3544,50.9907 23.7544,49.5897 23.7544,47.8627 L23.7544,43.8697 C23.7544,43.0067 23.4044,42.2247 22.8384,41.6587 C22.2734,41.0927 21.4904,40.7427 20.6274,40.7427" id="Fill-6" fill="#1182C5"></path>
            <path d="M41.1216,40.7427 L37.1296,40.7427 C36.2656,40.7427 35.4836,41.0927 34.9176,41.6587 C34.3516,42.2247 34.0016,43.0067 34.0016,43.8697 L34.0016,47.8627 C34.0016,49.5897 35.4026,50.9907 37.1296,50.9907 L41.1216,50.9907 C42.8496,50.9907 44.2496,49.5897 44.2496,47.8627 L44.2496,43.8697 C44.2496,43.0067 43.8986,42.2247 43.3336,41.6587 C42.7676,41.0927 41.9856,40.7427 41.1216,40.7427" id="Fill-8" fill="#1182C5"></path>
            <path d="M61.6167,40.7427 L57.6247,40.7427 C56.7607,40.7427 55.9787,41.0927 55.4127,41.6587 C54.8467,42.2247 54.4967,43.0067 54.4967,43.8697 L54.4967,47.8627 C54.4967,49.5897 55.8967,50.9907 57.6247,50.9907 L61.6167,50.9907 C62.4807,50.9907 63.2627,50.6397 63.8287,50.0747 C64.3937,49.5087 64.7447,48.7267 64.7447,47.8627 L64.7447,43.8697 C64.7447,43.0067 64.3937,42.2247 63.8287,41.6587 C63.2627,41.0927 62.4807,40.7427 61.6167,40.7427" id="Fill-10" fill="#1182C5"></path>
            <path d="M20.6274,56.6114 L16.6344,56.6114 C15.7714,56.6114 14.9894,56.9624 14.4234,57.5274 C13.8564,58.0934 13.5074,58.8754 13.5074,59.7394 L13.5074,63.7314 C13.5074,64.5944 13.8564,65.3774 14.4234,65.9434 C14.9894,66.5084 15.7714,66.8594 16.6344,66.8594 L20.6274,66.8594 C21.4904,66.8594 22.2734,66.5084 22.8384,65.9434 C23.4044,65.3774 23.7544,64.5944 23.7544,63.7314 L23.7544,59.7394 C23.7544,58.0114 22.3544,56.6114 20.6274,56.6114" id="Fill-12" fill="#1182C5"></path>
            <path d="M41.1216,56.6114 L37.1296,56.6114 C35.4026,56.6114 34.0016,58.0114 34.0016,59.7394 L34.0016,63.7314 C34.0016,64.5944 34.3516,65.3774 34.9176,65.9434 C35.4836,66.5084 36.2656,66.8594 37.1296,66.8594 L41.1216,66.8594 C41.9856,66.8594 42.7676,66.5084 43.3336,65.9434 C43.8986,65.3774 44.2496,64.5944 44.2496,63.7314 L44.2496,59.7394 C44.2496,58.0114 42.8496,56.6114 41.1216,56.6114" id="Fill-14" fill="#1182C5"></path>
            <path d="M61.6167,56.6114 L57.6247,56.6114 C55.8967,56.6114 54.4967,58.0114 54.4967,59.7394 L54.4967,79.6004 C54.4967,79.8164 54.5187,80.0274 54.5597,80.2304 C54.6017,80.4344 54.6637,80.6314 54.7427,80.8174 C54.9007,81.1914 55.1297,81.5294 55.4127,81.8114 C55.9787,82.3784 56.7607,82.7274 57.6247,82.7274 L61.6167,82.7274 C62.4807,82.7274 63.2627,82.3784 63.8287,81.8114 C64.3937,81.2464 64.7447,80.4644 64.7447,79.6004 L64.7447,59.7394 C64.7447,58.8754 64.3937,58.0934 63.8287,57.5274 C63.2627,56.9624 62.4807,56.6114 61.6167,56.6114" id="Fill-16" fill="#1182C5"></path>
            <path d="M20.6274,72.4805 L16.6344,72.4805 C15.7714,72.4805 14.9894,72.8305 14.4234,73.3965 C13.8564,73.9615 13.5074,74.7445 13.5074,75.6075 L13.5074,79.6005 C13.5074,80.4635 13.8564,81.2465 14.4234,81.8115 C14.9894,82.3775 15.7714,82.7275 16.6344,82.7275 L20.6274,82.7275 C22.3544,82.7275 23.7544,81.3285 23.7544,79.6005 L23.7544,75.6075 C23.7544,73.8805 22.3544,72.4805 20.6274,72.4805" id="Fill-18" fill="#1182C5"></path>
            <path d="M41.1216,72.4805 L37.1296,72.4805 C35.4026,72.4805 34.0016,73.8805 34.0016,75.6075 L34.0016,79.6005 C34.0016,81.3285 35.4026,82.7275 37.1296,82.7275 L41.1216,82.7275 C42.8496,82.7275 44.2496,81.3285 44.2496,79.6005 L44.2496,75.6075 C44.2496,73.8805 42.8496,72.4805 41.1216,72.4805" id="Fill-20" fill="#1182C5"></path>
        </g>
    </g>
</svg>