<?xml version="1.0" encoding="UTF-8"?>
<svg width="96px" height="96px" viewBox="0 0 96 96" version="1.1" xmlns="http://www.w3.org/2000/svg" xmlns:xlink="http://www.w3.org/1999/xlink">
    <!-- Generator: Sketch 49.3 (51167) - http://www.bohemiancoding.com/sketch -->
    <title>payment plan</title>
    <desc>Created with Sketch.</desc>
    <defs></defs>
    <g id="payment-plan" stroke="none" stroke-width="1" fill="none" fill-rule="evenodd">
        <g transform="translate(-16.000000, -5.000000)" fill="#0B82C5" fill-rule="nonzero">
            <path d="M64.3530939,55.7391852 C52.2505621,55.7391852 45.9634238,49.9736577 47.053191,41.4779079 C47.9738853,34.3002391 55.8077161,29.9868493 64.5767033,30.5482328 C72.119717,31.0311305 77.2309221,34.1662746 79.1194159,39.9747 C79.7170944,41.8129753 78.7113921,43.7877062 76.8731167,44.3853848 C75.0348414,44.9830633 73.0601105,43.977361 72.4624319,42.1390856 C71.5690523,39.3913248 69.0550376,37.8492621 64.1294845,37.5339322 C58.6247721,37.1815249 54.3604711,39.5294939 53.996304,42.3685153 C53.4927603,46.294107 56.1590463,48.7391852 64.3530939,48.7391852 C73.5918272,48.7391852 79.4006538,52.8045048 80.4677939,60.6164349 L80.5,60.8521972 L80.5,61.0901491 C80.5,69.8424488 74.5560545,74.5 64.3530939,74.5 C54.468891,74.5 48.1494969,71.1312761 46.5839038,64.1104609 C46.1631922,62.2238031 47.3515764,60.3533106 49.2382343,59.932599 C51.1248921,59.5118874 52.9953846,60.7002716 53.4160962,62.5869295 C54.1254203,65.7678541 57.3747554,67.5 64.3530939,67.5 C70.8918946,67.5 73.4084059,65.6210388 73.4975355,61.3303829 C72.8825063,57.5028427 70.2462596,55.7391852 64.3530939,55.7391852 Z" id="Path-8-Copy"></path>
            <path d="M60.5,27.455653 C60.5,25.5226564 62.0670034,23.955653 64,23.955653 C65.9329966,23.955653 67.5,25.5226564 67.5,27.455653 L67.5,77.5277778 C67.5,79.4607744 65.9329966,81.0277778 64,81.0277778 C62.0670034,81.0277778 60.5,79.4607744 60.5,77.5277778 L60.5,27.455653 Z" id="Line-2"></path>
            <path d="M57.3960682,84.432952 L57.3960682,84.932952 C33.5950887,84.932952 14.2352984,65.3084216 14.2352984,41.1885262 C14.2352984,33.8153 16.0857343,26.51875 19.5867136,20.0869068 C20.3985654,18.5944411 22.2569353,18.0509295 23.7331106,18.8760705 C25.204584,19.6994646 25.7378121,21.5721503 24.9278158,23.0612046 C21.9214443,28.5830765 20.3322516,34.851529 20.3322516,41.1885262 C20.3322516,61.909565 36.9612946,78.7661776 57.3960682,78.7661776 C63.6435811,78.7661776 69.8243642,77.1559383 75.2697915,74.1094046 C76.7458679,73.2852035 78.604045,73.8289322 79.4158493,75.3213107 C80.2256796,76.8109398 79.6924363,78.6836791 78.2208961,79.506229 C71.8727899,83.0565332 64.6725966,84.932952 57.3960682,84.932952 L57.3960682,84.432952 Z" id="Fill-1" transform="translate(47.014649, 51.711774) rotate(45.000000) translate(-47.014649, -51.711774) "></path>
            <path d="M40.0744033,85.7807176 C38.4352804,85.1841256 37.590142,83.3717206 38.186734,81.7325977 C38.7833259,80.0934748 40.5957309,79.2483365 42.2348539,79.8449284 L54.226753,84.2096227 C55.8658759,84.8062147 56.7110142,86.6186197 56.1144223,88.2577426 L51.7472681,100.2564 C51.1506762,101.895523 49.3382712,102.740661 47.6991483,102.144069 C46.0600253,101.547477 45.214887,99.7350723 45.811479,98.0959494 L49.0984078,89.0651866 L40.0744033,85.7807176 Z" id="Path-11-Copy-2" transform="translate(47.150578, 90.994499) rotate(48.000000) translate(-47.150578, -90.994499) "></path>
            <path d="M91.307527,86.0240051 L91.307527,86.5240051 C67.5065474,86.5240051 48.1467571,66.8994747 48.1467571,42.7795793 C48.1467571,35.4063531 49.9971931,28.1098031 53.4981723,21.6779599 C54.3100242,20.1854942 56.168394,19.6419826 57.6445694,20.4671236 C59.1160427,21.2905177 59.6492708,23.1632034 58.8392745,24.6522577 C55.8329031,30.1741296 54.2437103,36.4425821 54.2437103,42.7795793 C54.2437103,63.500618 70.8727534,80.3572307 91.307527,80.3572307 C97.5550398,80.3572307 103.735823,78.7469913 109.18125,75.7004577 C110.657327,74.8762566 112.515504,75.4199852 113.327308,76.9123638 C114.137138,78.4019929 113.603895,80.2747322 112.132355,81.0972821 C105.784249,84.6475863 98.5840553,86.5240051 91.307527,86.5240051 L91.307527,86.0240051 Z" id="Fill-1" transform="translate(80.926108, 53.302827) rotate(225.000000) translate(-80.926108, -53.302827) "></path>
            <path d="M73.713933,9.80641982 C72.0748101,9.20982782 71.2296717,7.39742282 71.8262637,5.75829992 C72.4228556,4.11917702 74.2352606,3.27403872 75.8743836,3.87063062 L87.8662827,8.23532492 C89.5054056,8.83191692 90.3505439,10.6443219 89.753952,12.2834448 L85.3867978,24.2821022 C84.7902059,25.9212251 82.9778009,26.7663635 81.338678,26.1697715 C79.699555,25.5731796 78.8544167,23.7607745 79.4510087,22.1216516 L82.7379375,13.0908888 L73.713933,9.80641982 Z" id="Path-11-Copy-2" transform="translate(80.790108, 15.020201) rotate(-132.000000) translate(-80.790108, -15.020201) "></path>
            <circle id="Oval" cx="55" cy="12" r="5"></circle>
            <circle id="Oval-Copy" cx="73" cy="93" r="5"></circle>
        </g>
    </g>
</svg>