<?xml version="1.0" encoding="UTF-8"?>
<svg width="96px" height="96px" viewBox="0 0 96 96" version="1.1" xmlns="http://www.w3.org/2000/svg" xmlns:xlink="http://www.w3.org/1999/xlink">
    <!-- Generator: Sketch 49.3 (51167) - http://www.bohemiancoding.com/sketch -->
    <title>Artboard Copy 7</title>
    <desc>Created with Sketch.</desc>
    <defs></defs>
    <g id="Artboard-Copy-7" stroke="none" stroke-width="1" fill="none" fill-rule="evenodd">
        <g id="Profanity-filter" transform="translate(-1.000000, 3.000000)" fill="#0B82C5" fill-rule="nonzero">
            <g id="iText">
                <g id="Path-12">
                    <path d="M91.4,0 L6.4,0 C3.4,0 0.9,2.4 0.9,5.5 L0.9,63.6 C0.9,66.6 3.3,69.1 6.4,69.1 L17.3,69.1 C17.7,69 18,69.3 18,69.7 L18,87.8 C18,88.6 18.3,89.3 18.9,89.8 C20,90.8 21.7,90.8 22.8,89.7 L41.9,69 C42,68.9 42.2,68.8 42.4,68.8 L91.6,68.8 C94.6,68.8 97.1,66.4 97.1,63.3 L97.1,5.5 C96.9,2.4 94.6,0 91.4,0 Z M90.2,62.2 L42.4,62.2 C40.4,62.2 38.4,63.1 37,64.5 L24.7,77.8 L24.7,69.7 C24.7,65.7 21.4,62.4 17.4,62.4 L7.8,62.4 L7.8,6.7 L90.5,6.7 L90.5,62.2 L90.2,62.2 Z" id="Shape"></path>
                </g>
            </g>
            <g id="Group" transform="translate(19.000000, 24.000000)">
                <path d="M14.4,9.7 C15.4,9.7 15.8,9 15.8,8.3 C15.8,7.6 15.4,6.9 14.4,6.9 L13.3,6.9 L13.8,3 C13.9,2.4 13.9,2.1 13.9,2 C13.9,1.2 13.3,0.8 12.5,0.8 C11.3,0.8 10.9,1.5 10.8,2.4 L10.2,7 L7.6,7 L8.1,3.1 C8.2,2.5 8.2,2.2 8.2,2.1 C8.2,1.3 7.6,0.9 6.8,0.9 C5.6,0.9 5.2,1.6 5.1,2.5 L4.5,7.1 L2.9,7.1 C1.8,7.1 1.5,7.8 1.5,8.5 C1.5,9.2 1.9,9.9 2.9,9.9 L4,9.9 L3.5,13.5 L2,13.5 C1,13.5 0.6,14.2 0.6,14.9 C0.6,15.6 1,16.3 2,16.3 L3.1,16.3 L2.6,20.2 C2.5,20.8 2.5,21.1 2.5,21.2 C2.5,22 3.1,22.4 3.9,22.4 C5.1,22.4 5.5,21.7 5.6,20.8 L6.2,16.2 L8.8,16.2 L8.3,20.1 C8.2,20.7 8.2,21 8.2,21.1 C8.2,21.9 8.8,22.3 9.6,22.3 C10.8,22.3 11.2,21.6 11.3,20.7 L11.9,16.1 L13.5,16.1 C14.5,16.1 14.9,15.4 14.9,14.7 C14.9,14 14.5,13.3 13.5,13.3 L12.4,13.3 L12.9,9.7 C12.9,9.7 14.4,9.7 14.4,9.7 Z M9.2,13.3 L6.6,13.3 L7.1,9.7 L9.7,9.7 L9.2,13.3 Z" id="Shape"></path>
                <path d="M22,17.3 C20.7,17.3 19.5,18.4 19.5,19.8 C19.5,21.2 20.6,22.3 22,22.3 C23.4,22.3 24.5,21.2 24.5,19.8 C24.5,18.4 23.5,17.3 22,17.3 Z M22,0 C20.5,0 19.6,0.8 19.6,2.3 L19.6,5.8 C19.6,6.3 19.7,6.7 19.7,7.2 L20.6,14.2 C20.7,15.1 21.1,15.3 21.9,15.3 C22.7,15.3 23.1,15.1 23.2,14.2 L24.1,7.2 C24.2,6.7 24.2,6.2 24.2,5.8 L24.2,2.3 C24.5,0.8 23.5,0 22,0 Z" id="Shape"></path>
                <path d="M44.7,17 C45.8,16 46.9,14 46.9,13 C46.9,12 45.9,11.3 44.9,11.3 C44.3,11.3 43.8,11.7 43.3,12.2 C42.9,12.7 42.5,13.6 42.1,14.4 L39.1,10.9 C41.3,9.9 42.9,7.9 42.9,5.5 C42.9,3.3 41.4,0.3 36.7,0.3 C33.5,0.3 30.7,2.2 30.7,5.6 C30.7,7.4 31.7,8.7 32.8,9.9 C30.2,11.2 28.1,13.3 28.1,16.5 C28.1,19.4 30.1,22.5 34.8,22.5 C37.5,22.5 39.8,21.8 41.8,19.9 L43.2,21.5 C43.6,22 44,22.3 44.7,22.3 C46.1,22.3 46.9,21.3 46.9,20.4 C46.9,19.9 46.7,19.5 46.5,19.2 L44.7,17 Z M37,3.2 C38.3,3.2 39.2,4.1 39.2,5.2 C39.2,6.9 37.7,7.7 36.7,8.3 C35.6,7.4 34.7,6.6 34.7,5.1 C34.8,4.1 35.7,3.2 37,3.2 Z M35.5,19 C33.7,19 32.6,17.8 32.6,16.1 C32.6,14.6 33.8,13.5 35.6,12.5 L39.5,17.2 C38.5,18 37.2,19 35.5,19 Z" id="Shape"></path>
                <path d="M59.2,3 C59,3 58.7,3.1 58.4,3.2 L56.1,4 L56.1,1.3 C56.1,0.4 55.6,0 54.8,0 C54,0 53.5,0.5 53.5,1.3 L53.5,4 L51.2,3.2 C51,3.1 50.6,3 50.4,3 C50,3 49.2,3.4 49.2,4.3 C49.2,4.9 49.5,5.3 50.2,5.5 L52.8,6.3 L51,8.6 C50.8,8.9 50.6,9.1 50.6,9.5 C50.6,10.5 51.6,10.8 51.9,10.8 C52.3,10.8 52.7,10.6 52.9,10.3 L54.6,7.8 L56.3,10.3 C56.5,10.6 56.9,10.8 57.3,10.8 C57.7,10.8 58.6,10.6 58.6,9.5 C58.6,9.2 58.4,8.9 58.2,8.6 L56.4,6.3 L59,5.5 C59.7,5.3 60.1,4.9 60.1,4.3 C60.4,3.4 59.6,3 59.2,3 Z" id="Shape"></path>
            </g>
        </g>
    </g>
</svg>