<?xml version="1.0" encoding="UTF-8"?>
<svg width="96px" height="96px" viewBox="0 0 96 96" version="1.1" xmlns="http://www.w3.org/2000/svg" xmlns:xlink="http://www.w3.org/1999/xlink">
    <!-- Generator: Sketch 49.3 (51167) - http://www.bohemiancoding.com/sketch -->
    <title>Reduce cart abandonment</title>
    <desc>Created with Sketch.</desc>
    <defs></defs>
    <g id="Reduce-cart-abandonment" stroke="none" stroke-width="1" fill="none" fill-rule="evenodd">
        <g id="Reduce-Cart-Abandonment" transform="translate(0.000000, 1.000000)" fill="#1082C5">
            <g id="Page-1">
                <path d="M46.52,89.79 C46.52,92.27 44.5,94.29 42.02,94.29 C39.54,94.29 37.52,92.27 37.52,89.79 C37.52,87.3 39.54,85.29 42.02,85.29 C44.5,85.29 46.52,87.3 46.52,89.79" id="Fill-1"></path>
                <path d="M72.02,87.29 C62.91,87.29 55.52,79.9 55.52,70.79 C55.52,61.68 62.91,54.29 72.02,54.29 C81.13,54.29 88.52,61.68 88.52,70.79 C88.52,79.9 81.13,87.29 72.02,87.29 Z M51.27,59.76 L33.33,59.76 L24.95,29.69 L78.13,29.69 L73.01,47.31 C72.68,47.3 72.35,47.29 72.02,47.29 C63.03,47.29 55.22,52.34 51.27,59.76 Z M38.09,76.86 L35.28,66.76 L48.87,66.76 C48.64,68.07 48.52,69.41 48.52,70.79 C48.52,72.89 48.8,74.92 49.31,76.86 L38.09,76.86 Z M33.52,21.29 C33.52,20.74 33.97,20.29 34.52,20.29 L45.52,20.29 C46.07,20.29 46.52,20.74 46.52,21.29 L46.52,22.69 L33.52,22.69 L33.52,21.29 Z M43.52,7 C43.52,6.45 43.97,6 44.52,6 L63.82,6 C64.34,6 64.78,6.4 64.82,6.92 L65,9.29 L64.52,9.29 C60.65,9.29 57.52,12.42 57.52,16.29 L57.52,22.69 L52.52,22.69 L52.52,21.29 C52.52,17.42 49.39,14.29 45.52,14.29 L43.52,14.29 L43.52,7 Z M73.52,16.29 L73.52,22.69 L63.52,22.69 L63.52,16.29 C63.52,15.74 63.97,15.29 64.52,15.29 L72.52,15.29 C73.07,15.29 73.52,15.74 73.52,16.29 Z M79.91,48.65 L86.15,27.16 C86.8,24.93 85.12,22.69 82.79,22.69 L79.52,22.69 L79.52,16.29 C79.52,12.42 76.39,9.29 72.52,9.29 L71.02,9.29 L70.8,6.45 C70.51,2.81 67.47,0 63.82,0 L44.52,0 C40.65,0 37.52,3.13 37.52,7 L37.52,14.29 L34.52,14.29 C30.65,14.29 27.52,17.42 27.52,21.29 L27.52,22.69 L23,22.69 L18.45,6.35 C18.03,4.84 16.65,3.79 15.08,3.79 L3.5,3.79 C1.57,3.79 0,5.36 0,7.29 C0,9.22 1.57,10.79 3.5,10.79 L12.42,10.79 L32.06,81.29 C32.16,81.66 32.32,81.99 32.52,82.29 C33.16,83.25 34.24,83.86 35.43,83.86 L52.49,83.86 C56.7,90.15 63.88,94.29 72.02,94.29 C85,94.29 95.52,83.77 95.52,70.79 C95.52,60.58 89.01,51.9 79.91,48.65 Z" id="Fill-3"></path>
                <path d="M78.8314,63.0479 L70.1854,73.4209 L64.6974,69.0599 C63.1844,67.8569 60.9824,68.1089 59.7804,69.6219 C58.5774,71.1349 58.8294,73.3369 60.3424,74.5399 L68.5074,81.0289 C69.9954,82.2119 72.1564,81.9899 73.3734,80.5299 L84.2084,67.5299 C85.4464,66.0449 85.2454,63.8379 83.7604,62.5999 C82.2764,61.3629 80.0694,61.5629 78.8314,63.0479" id="Fill-5"></path>
            </g>
        </g>
    </g>
</svg>