<?xml version="1.0" encoding="UTF-8"?>
<svg width="96px" height="96px" viewBox="0 0 96 96" version="1.1" xmlns="http://www.w3.org/2000/svg" xmlns:xlink="http://www.w3.org/1999/xlink">
    <!-- Generator: Sketch 49.3 (51167) - http://www.bohemiancoding.com/sketch -->
    <title>Reduce Friction in the journey</title>
    <desc>Created with Sketch.</desc>
    <defs>
        <polygon id="path-1" points="0 0.500011211 95.88 0.500011211 95.88 16.1181 0 16.1181"></polygon>
    </defs>
    <g id="Reduce-Friction-in-the-journey" stroke="none" stroke-width="1" fill="none" fill-rule="evenodd">
        <g id="Page-1">
            <g>
                <path d="M88,58 L62.481,58 C58.346,58 54.981,61.364 54.981,65.5 L54.981,74.627 C54.981,76.56 56.549,78.127 58.481,78.127 C60.414,78.127 61.981,76.56 61.981,74.627 L61.981,65.5 C61.981,65.225 62.206,65 62.481,65 L88,65 C88.275,65 88.5,65.225 88.5,65.5 L88.5,83.5 C88.5,85.981 86.481,88 84,88 L40,88 L40,61.934 C40,60.001 38.433,58.434 36.5,58.434 C34.567,58.434 33,60.001 33,61.934 L33,71.5 L21.5,71.5 C19.567,71.5 18,73.067 18,75 C18,76.933 19.567,78.5 21.5,78.5 L33,78.5 L33,88 L12,88 C9.519,88 7.5,85.981 7.5,83.5 L7.5,61.5 C7.5,59.567 5.933,58 4,58 C2.067,58 0.5,59.567 0.5,61.5 L0.5,83.5 C0.5,89.841 5.659,95 12,95 L84,95 C90.341,95 95.5,89.841 95.5,83.5 L95.5,65.5 C95.5,61.364 92.136,58 88,58" id="Fill-1" fill="#0B82C5"></path>
                <path d="M84,0 L12,0 C5.659,0 0.5,5.159 0.5,11.5 L0.5,33.5 C0.5,35.433 2.067,37 4,37 C5.933,37 7.5,35.433 7.5,33.5 L7.5,24.5 L16.5,24.5 C16.775,24.5 17,24.724 17,25 L17,29.5 C17,33.636 20.364,37 24.5,37 L37.109,37 C39.042,37 40.609,35.433 40.609,33.5 C40.609,31.567 39.042,30 37.109,30 L24.5,30 C24.225,30 24,29.776 24,29.5 L24,25 C24,20.864 20.636,17.5 16.5,17.5 L7.5,17.5 L7.5,11.5 C7.5,9.019 9.519,7 12,7 L33,7 L33,19 C33,20.933 34.567,22.5 36.5,22.5 C38.433,22.5 40,20.933 40,19 L40,7 L64,7 L64,30.5 L57.5,30.5 C55.567,30.5 54,32.067 54,34 C54,35.933 55.567,37.5 57.5,37.5 L77.5,37.5 C79.433,37.5 81,35.933 81,34 C81,32.067 79.433,30.5 77.5,30.5 L71,30.5 L71,7 L84,7 C86.481,7 88.5,9.019 88.5,11.5 L88.5,33.5 C88.5,35.433 90.067,37 92,37 C93.933,37 95.5,35.433 95.5,33.5 L95.5,11.5 C95.5,5.159 90.341,0 84,0" id="Fill-3" fill="#0B82C5"></path>
                <g id="Group-7" transform="translate(0.000000, 39.000000)">
                    <mask id="mask-2" fill="white">
                        <use xlink:href="#path-1"></use>
                    </mask>
                    <g id="Clip-6"></g>
                    <path d="M95.5535,7.2141 C95.4025,6.9831 95.2055,6.7861 94.9745,6.6351 L86.0945,0.8261 C85.1705,0.2221 83.9305,0.4811 83.3265,1.4051 C83.1135,1.7311 82.9995,2.1111 82.9995,2.5001 L82.9995,4.5001 L3.4995,4.5001 C1.5675,4.5001 -0.0005,6.0671 -0.0005,8.0001 C-0.0005,9.9331 1.5675,11.5001 3.4995,11.5001 L82.9995,11.5001 L82.9995,14.1181 C82.9995,15.2221 83.8955,16.1181 84.9995,16.1181 C85.3885,16.1181 85.7695,16.0041 86.0945,15.7911 L94.9745,9.9831 C95.8995,9.3781 96.1585,8.1381 95.5535,7.2141" id="Fill-5" fill="#0B82C5" mask="url(#mask-2)"></path>
                </g>
            </g>
        </g>
    </g>
</svg>