<?xml version="1.0" encoding="UTF-8"?>
<svg width="96px" height="96px" viewBox="0 0 96 96" version="1.1" xmlns="http://www.w3.org/2000/svg" xmlns:xlink="http://www.w3.org/1999/xlink">
    <!-- Generator: Sketch 49.3 (51167) - http://www.bohemiancoding.com/sketch -->
    <title>reduce customer acquisition coct</title>
    <desc>Created with Sketch.</desc>
    <defs></defs>
    <g id="reduce-customer-acquisition-coct" stroke="none" stroke-width="1" fill="none" fill-rule="evenodd">
        <rect id="Combined-Shape-Copy" stroke="#0B82C5" stroke-width="7" x="3.5" y="51.5" width="41" height="41" rx="20.5"></rect>
        <path d="M30.4178522,66.433083 C29.748142,64.3518485 27.9124409,63.2141495 24.9107489,63.0199861 C21.5794968,62.8045051 18.5708827,64.3478748 18.2526562,66.8545354 C17.9344297,69.361196 19.4036456,71.8731171 24.9107489,71.8731171 C28.5821511,71.8731171 30.6119015,73.3084086 31,76.1789914 C31,79.3929971 28.9702496,81 24.9107489,81 C20.8512482,81 18.5476652,79.7592479 18,77.2777436" id="Path-8-Copy" stroke="#0B82C5" stroke-width="4.43099976" stroke-linecap="round"></path>
        <path d="M24.5,60.2233593 L24.5,84.7685185" id="Line-2" stroke="#0B82C5" stroke-width="4.43099976" stroke-linecap="round"></path>
        <polyline id="Path-6" stroke="#0B82C5" stroke-width="7" stroke-linecap="round" stroke-linejoin="round" points="4 49.6621094 4 27 24.6039785 27 24.6039785 42.1415645"></polyline>
        <polyline id="Path-6-Copy" stroke="#0B82C5" stroke-width="7" stroke-linecap="round" stroke-linejoin="round" points="39 48 58.1923574 48 58.1923574 92.2785539 47.4827172 92.2785539"></polyline>
        <polygon id="Path-6-Copy-2" stroke="#0B82C5" stroke-width="7" stroke-linecap="round" stroke-linejoin="round" points="71 91.9309085 71 68 91.6039785 68 91.6039785 92"></polygon>
        <path d="M3.30273438,3.4453125 L89.3027344,55.4453125" id="Line" stroke="#0B82C5" stroke-width="7" stroke-linecap="round" stroke-linejoin="round"></path>
        <path d="M83.0416322,50.1740554 L83.0416322,61.7915584 C83.0416322,62.8961279 83.9370627,63.7915584 85.0416322,63.7915584 C85.4305467,63.7915584 85.8110238,63.6781668 86.136488,63.4652641 L95.0163245,57.6565126 C95.9406867,57.0518404 96.1998466,55.8123132 95.5951744,54.8879511 C95.4441987,54.6571545 95.2471211,54.460077 95.0163245,54.3091012 L86.136488,48.5003497 C85.2121258,47.8956775 83.9725986,48.1548374 83.3679265,49.0791996 C83.1550238,49.4046638 83.0416322,49.7851409 83.0416322,50.1740554 Z" id="Path-6-Copy" fill="#0B82C5" transform="translate(89.481665, 55.982693) rotate(30.000000) translate(-89.481665, -55.982693) "></path>
    </g>
</svg>