<?xml version="1.0" encoding="UTF-8"?>
<svg width="96px" height="96px" viewBox="0 0 96 96" version="1.1" xmlns="http://www.w3.org/2000/svg" xmlns:xlink="http://www.w3.org/1999/xlink">
    <!-- Generator: Sketch 49.3 (51167) - http://www.bohemiancoding.com/sketch -->
    <title>Reduce Acquisition Costs</title>
    <desc>Created with Sketch.</desc>
    <defs>
        <polygon id="path-1" points="0 0.995 95.328 0.995 95.328 61.7927348 0 61.7927348"></polygon>
    </defs>
    <g id="Reduce-Acquisition-Costs" stroke="none" stroke-width="1" fill="none" fill-rule="evenodd">
        <g transform="translate(0.000000, -1.000000)" id="Page-1">
            <g>
                <path d="M24.0051,90.0051 C14.6151,90.0051 7.0051,82.3951 7.0051,73.0051 C7.0051,63.6151 14.6151,56.0051 24.0051,56.0051 C33.3951,56.0051 41.0051,63.6151 41.0051,73.0051 C41.0051,82.3951 33.3951,90.0051 24.0051,90.0051 M24.0051,49.0051 C10.7551,49.0051 0.0051,59.7551 0.0051,73.0051 C0.0051,86.2551 10.7551,97.0051 24.0051,97.0051 C37.2551,97.0051 48.0051,86.2551 48.0051,73.0051 C48.0051,59.7551 37.2551,49.0051 24.0051,49.0051" id="Fill-1" fill="#0B82C5"></path>
                <path d="M26.7251,79.6551 L26.7251,75.2651 C27.9951,75.5551 28.5951,76.2151 28.7851,77.3351 C28.7451,78.6451 28.1951,79.3751 26.7251,79.6551 Z M22.2851,70.4151 C20.7651,70.0351 20.3151,69.2451 20.4551,68.1351 C20.5351,67.4951 21.2251,66.8751 22.2851,66.5251 L22.2851,70.4151 Z M33.2051,76.8851 C32.7251,73.3551 30.3851,71.2851 26.7251,70.7851 L26.7251,66.5851 C27.5951,66.9051 28.0851,67.4151 28.3151,68.1151 C28.6851,69.2851 29.9351,69.9251 31.1051,69.5451 C32.2651,69.1751 32.9051,67.9251 32.5351,66.7551 C31.7051,64.1751 29.6551,62.6051 26.7251,62.0351 L26.7251,61.2251 C26.7251,60.0051 25.7251,59.0151 24.5051,59.0151 C23.2851,59.0151 22.2851,60.0051 22.2851,61.2251 L22.2851,61.9751 C19.0251,62.5651 16.4351,64.5851 16.0551,67.5851 C15.5851,71.3551 17.8751,74.1051 22.2851,74.8751 L22.2851,79.5351 C20.9951,79.2251 20.3551,78.6351 20.1651,77.8051 C19.9051,76.6151 18.7251,75.8551 17.5251,76.1151 C16.3351,76.3851 15.5751,77.5651 15.8451,78.7651 C16.5051,81.7651 18.7851,83.4851 22.2851,84.0351 L22.2851,85.7751 C22.2851,86.9951 23.2851,87.9851 24.5051,87.9851 C25.7251,87.9851 26.7251,86.9951 26.7251,85.7751 L26.7251,84.1051 C30.8151,83.5851 33.2251,81.1951 33.2251,77.1851 L33.2251,77.0351 L33.2051,76.8851 Z" id="Fill-3" fill="#0B82C5"></path>
                <path d="M24.6091,47.2013 C26.5421,47.2013 28.1091,45.6343 28.1091,43.7013 L28.1091,28.5593 C28.1091,26.6263 26.5421,25.0593 24.6091,25.0593 L4.0051,25.0593 C2.0721,25.0593 0.5051,26.6263 0.5051,28.5593 L0.5051,51.2223 C0.5051,53.1553 2.0721,54.7223 4.0051,54.7223 C5.9381,54.7223 7.5051,53.1553 7.5051,51.2223 L7.5051,32.0593 L21.1091,32.0593 L21.1091,43.7013 C21.1091,45.6343 22.6761,47.2013 24.6091,47.2013" id="Fill-5" fill="#0B82C5"></path>
                <path d="M58.6091,96.7836 C60.5421,96.7836 62.1091,95.2166 62.1091,93.2836 L62.1091,49.0046 C62.1091,47.0716 60.5421,45.5046 58.6091,45.5046 L39.4171,45.5046 C37.4841,45.5046 35.9171,47.0716 35.9171,49.0046 C35.9171,50.9376 37.4841,52.5046 39.4171,52.5046 L55.1091,52.5046 L55.1091,89.7836 L47.8991,89.7836 C45.9661,89.7836 44.3991,91.3506 44.3991,93.2836 C44.3991,95.2166 45.9661,96.7836 47.8991,96.7836 L58.6091,96.7836 Z" id="Fill-7" fill="#0B82C5"></path>
                <path d="M88.1091,89.7719 L74.5051,89.7259 L74.5051,72.7839 L88.1091,72.7839 L88.1091,89.7719 Z M91.6091,65.7839 L71.0051,65.7839 C69.0721,65.7839 67.5051,67.3509 67.5051,69.2839 L67.5051,93.2149 C67.5051,95.1429 69.0651,96.7079 70.9931,96.7149 L91.5971,96.7839 C93.5351,96.7899 95.1091,95.2209 95.1091,93.2839 L95.1091,69.2839 C95.1091,67.3509 93.5421,65.7839 91.6091,65.7839 Z" id="Fill-9" fill="#0B82C5"></path>
                <g id="Group-13" transform="translate(0.000000, 0.005100)">
                    <mask id="mask-2" fill="white">
                        <use xlink:href="#path-1"></use>
                    </mask>
                    <g id="Clip-12"></g>
                    <path d="M95.3251,59.09 C95.3851,60.19 94.5451,61.14 93.4451,61.2 L82.8451,61.79 C82.4651,61.81 82.0751,61.72 81.7351,61.53 C80.7851,60.97 80.4551,59.75 81.0051,58.79 L82.4351,56.32 L1.6951,7.5 C0.0351,6.49 -0.4949,4.34 0.5051,2.69 C1.5151,1.03 3.6651,0.5 5.3151,1.5 L85.9351,50.25 L86.8151,48.73 C87.0051,48.4 87.2951,48.12 87.6451,47.95 C88.6251,47.45 89.8351,47.84 90.3351,48.83 L95.1151,58.3 C95.2451,58.55 95.3151,58.82 95.3251,59.09" id="Fill-11" fill="#0B82C5" mask="url(#mask-2)"></path>
                </g>
            </g>
        </g>
    </g>
</svg>