<?xml version="1.0" encoding="UTF-8"?>
<svg width="96px" height="96px" viewBox="0 0 96 96" version="1.1" xmlns="http://www.w3.org/2000/svg" xmlns:xlink="http://www.w3.org/1999/xlink">
    <!-- Generator: Sketch 49.3 (51167) - http://www.bohemiancoding.com/sketch -->
    <title>reliability</title>
    <desc>Created with Sketch.</desc>
    <defs></defs>
    <g id="reliability" stroke="none" stroke-width="1" fill="none" fill-rule="evenodd">
        <g transform="translate(9.000000, 4.000000)" fill="#0B82C5" fill-rule="nonzero">
            <path d="M53.27429,29.5058621 C54.4273987,27.9544703 56.6198294,27.6315981 58.1712212,28.7847067 C59.722613,29.9378154 60.0454852,32.1302461 58.8923766,33.6816379 L40.2873075,58.7128879 C39.0296678,60.4049157 36.5725872,60.6092646 35.052716,59.1482352 L22.0536185,46.6523977 C20.6600742,45.3128045 20.6163382,43.0971587 21.9559315,41.7036143 C23.2955247,40.31007 25.5111705,40.266334 26.9047149,41.6059273 L37.0394114,51.3482591 L53.27429,29.5058621 Z" id="Path-2"></path>
            <path d="M7.47916667,14.4686311 L7.47916667,56.0394411 C7.47916667,57.2518047 8.03178649,58.3980552 8.98030804,59.1531263 L37.68597,82.0042818 C38.4550288,82.6164913 39.5449712,82.6164913 40.3140299,82.0042818 L69.0196919,59.1531263 C69.9682135,58.3980552 70.5208333,57.2518047 70.5208333,56.0394411 L70.5208333,14.4962083 C70.5208333,13.468271 69.7800248,12.5899454 68.7668114,12.4165853 L39.4170037,7.39485418 C38.7528986,7.28122626 38.0741552,7.28318065 37.4107155,7.40063113 L9.22121827,12.3910917 C8.21353822,12.569484 7.47916667,13.4452822 7.47916667,14.4686311 Z M36.1904613,0.507810248 C37.647796,0.249814467 39.138747,0.245521384 40.5975433,0.495120382 L69.947351,5.51685147 C74.3221846,6.26538237 77.5208333,10.0578 77.5208333,14.4962083 L77.5208333,56.0394411 C77.5208333,59.3842139 75.9962183,62.5465884 73.3793555,64.6297433 L44.6736934,87.4808988 C41.3530662,90.1242857 36.6469338,90.1242857 33.3263065,87.4808988 L4.62064445,64.6297433 C2.0037817,62.5465883 0.47916667,59.3842139 0.47916667,56.0394411 L0.47916667,14.4686311 C0.47916667,10.0500348 3.65002227,6.26852947 8.00096413,5.49827083 L36.1904613,0.507810248 Z" id="Path-7-Copy"></path>
        </g>
    </g>
</svg>