<?xml version="1.0" encoding="UTF-8"?>
<svg width="96px" height="96px" viewBox="0 0 96 96" version="1.1" xmlns="http://www.w3.org/2000/svg" xmlns:xlink="http://www.w3.org/1999/xlink">
    <!-- Generator: Sketch 49.3 (51167) - http://www.bohemiancoding.com/sketch -->
    <title>Remove Hold Times</title>
    <desc>Created with Sketch.</desc>
    <defs></defs>
    <g id="Remove-Hold-Times" stroke="none" stroke-width="1" fill="none" fill-rule="evenodd">
        <g transform="translate(0.000000, 2.000000)" fill="#0B82C5">
            <path d="M33.7243076,15.3830392 C36.7945861,18.4714502 36.8292215,23.4487844 33.8022198,26.5796247 C30.7546485,29.7317401 30.7717167,34.6838613 33.8079893,37.7812763 L56.0532185,60.4744647 C59.0383478,63.5197065 63.9269294,63.5684373 66.9721736,60.5833056 C70.1239135,57.3148292 75.0731044,57.2213348 78.1902239,60.2228862 C78.230882,60.2625572 82.6200686,64.6296082 91.3577835,73.3240393 C94.3281934,76.2797561 94.516451,81.0260893 91.789474,84.2077855 C83.8331354,93.4908306 72.0774584,95.3577589 56.6614369,90.1242017 C43.599995,85.6899965 31.8999561,77.4984077 21.8321777,66.0681482 C15.3703871,58.731878 9.80719139,50.2410899 6.53117965,43.0250788 C-1.85972351,24.5425899 -0.784246153,10.7718062 10.2617441,1.92298976 C13.4537759,-0.634108908 18.0600601,-0.373719145 20.9435755,2.52682586 L33.7243076,15.3830392 Z M72.171362,65.280441 C72.0731402,65.382445 71.9734532,65.4830253 71.8723347,65.5821476 C66.06631,71.2735625 56.7457938,71.1806529 51.0543789,65.3746282 L28.8091497,42.6814398 C23.1177913,36.8754727 23.0857977,27.5929409 28.7369997,21.7478795 C29.1470883,21.3237232 29.1427705,20.7032146 28.7600085,20.3181921 L15.9792763,7.46197874 C15.6172675,7.09783199 15.0389743,7.06514151 14.6382339,7.38616988 C6.508092,13.8991335 5.69902203,24.2587449 12.9050731,40.1313818 C15.8891528,46.7043594 21.0717385,54.6142443 27.0850863,61.4413836 C36.3771446,71.9909441 47.0651947,79.4740056 58.9117149,83.4957593 C71.8510301,87.888504 80.6073848,86.4979004 86.4745201,79.6524298 C86.8168748,79.252988 86.7932403,78.657116 86.4203227,78.286043 L73.3443508,65.2747243 C73.0025424,64.9452378 72.484716,64.95502 72.171362,65.280441 Z" id="Path-9" fill-rule="nonzero"></path>
            <path d="M80.0008,38 C83.0388,38 85.5008,35.538 85.5008,32.5 L85.5008,19.163 L92.5658,15.63 C94.2948,14.766 94.9958,12.664 94.1318,10.935 C93.2668,9.206 91.1648,8.505 89.4358,9.369 L85.5008,11.337 L85.5008,10.5 C85.5008,7.462 83.0388,5 80.0008,5 C76.9628,5 74.5008,7.462 74.5008,10.5 L74.5008,16.836 L70.5008,18.836 L70.5008,10.5 C70.5008,7.462 68.0388,5 65.0008,5 C61.9628,5 59.5008,7.462 59.5008,10.5 L59.5008,24.336 L52.9358,27.618 C51.2068,28.483 50.5058,30.585 51.3698,32.314 C52.2348,34.043 54.3368,34.744 56.0658,33.88 L59.5008,32.162 L59.5008,32.5 C59.5008,35.538 61.9628,38 65.0008,38 C68.0388,38 70.5008,35.538 70.5008,32.5 L70.5008,26.662 L74.5008,24.663 L74.5008,32.5 C74.5008,35.538 76.9628,38 80.0008,38" id="Fill-1"></path>
        </g>
    </g>
</svg>