<?xml version="1.0" encoding="UTF-8"?>
<svg width="96px" height="96px" viewBox="0 0 96 96" version="1.1" xmlns="http://www.w3.org/2000/svg" xmlns:xlink="http://www.w3.org/1999/xlink">
    <!-- Generator: Sketch 49.3 (51167) - http://www.bohemiancoding.com/sketch -->
    <title>Remove Call Transfers</title>
    <desc>Created with Sketch.</desc>
    <defs></defs>
    <g id="Remove-Call-Transfers" stroke="none" stroke-width="1" fill="none" fill-rule="evenodd">
        <g fill="#0B82C5">
            <path d="M29.4951,72.8701 C29.6151,72.8801 29.7351,72.8701 29.8451,72.8701 C30.2151,72.8701 30.5251,73.1601 30.5251,73.5501 L30.5651,88.6901 C30.5651,89.1201 30.2351,89.4801 29.8051,89.5101 C22.4251,90.0801 16.5351,85.8101 11.5751,75.7401 C7.0351,66.5301 5.1751,55.9801 5.9051,44.4601 C6.3751,37.0101 7.9551,29.4101 10.0451,23.8601 C15.0751,10.4601 21.5551,4.9201 30.0551,5.8601 C30.4751,5.9001 30.7851,6.2601 30.7851,6.6801 L30.7451,21.5601 C30.7451,22.0101 30.3851,22.3701 29.9051,22.3801 C23.2251,22.4901 17.8551,27.9001 17.7851,34.5701 L17.5251,60.6601 C17.4651,67.3401 22.8251,72.8101 29.4951,72.8701 M30.0351,28.1201 C33.6151,28.0601 36.4851,25.1501 36.4951,21.5801 L36.5351,6.6901 C36.5451,3.3401 34.0251,0.5101 30.6851,0.1401 C19.1351,-1.1299 10.5151,6.2401 4.6551,21.8401 C2.3751,27.9301 0.6751,36.0901 0.1651,44.1001 C-0.6249,56.5801 1.4151,68.1301 6.4151,78.2901 C12.3351,90.2801 20.2351,96.0201 30.2451,95.2501 C33.6751,94.9801 36.3251,92.1201 36.3151,88.6801 C36.2951,78.5601 36.2751,73.4701 36.2751,73.4301 C36.2151,69.8701 33.2851,67.0601 29.5551,67.1201 C26.0551,67.0901 23.2451,64.2201 23.2751,60.7201 L23.5351,34.6301 C23.5751,31.0701 26.4451,28.1901 30.0351,28.1201" id="Fill-1"></path>
            <path d="M95.345,72.9401 C95.345,74.8701 93.775,76.4401 91.845,76.4401 L56.435,76.4401 C50.085,76.4401 44.935,71.2901 44.935,64.9401 L44.935,56.9601 L40.315,61.7301 C38.965,63.1101 36.755,63.1501 35.365,61.8001 C33.975,60.4601 33.945,58.2401 35.285,56.8501 L42.985,48.9101 L35.285,40.9801 C33.945,39.5901 33.975,37.3701 35.365,36.0301 C36.755,34.6801 38.965,34.7201 40.315,36.1001 L44.935,40.8701 L44.935,32.4901 C44.935,26.1401 50.085,20.9901 56.435,20.9901 L82.435,20.9901 L82.435,18.4901 C82.435,18.1001 82.545,17.7201 82.765,17.4001 C83.365,16.4701 84.605,16.2101 85.525,16.8201 L94.405,22.6301 C94.645,22.7801 94.835,22.9701 94.985,23.2001 C95.595,24.1301 95.335,25.3701 94.405,25.9701 L85.525,31.7801 C85.205,31.9901 84.825,32.1101 84.435,32.1101 C83.335,32.1101 82.435,31.2101 82.435,30.1101 L82.435,27.9901 L56.435,27.9901 C53.945,27.9901 51.935,30.0001 51.935,32.4901 L51.935,39.6801 L55.405,36.1001 C56.755,34.7201 58.965,34.6801 60.355,36.0301 C61.745,37.3701 61.775,39.5901 60.435,40.9801 L52.735,48.9101 L60.435,56.8501 C61.775,58.2401 61.745,60.4601 60.355,61.8001 C58.965,63.1501 56.755,63.1101 55.405,61.7301 L51.935,58.1501 L51.935,64.9401 C51.935,67.4201 53.945,69.4401 56.435,69.4401 L91.845,69.4401 C93.775,69.4401 95.345,71.0001 95.345,72.9401" id="Fill-3"></path>
        </g>
    </g>
</svg>