<?xml version="1.0" encoding="UTF-8"?>
<svg width="96px" height="96px" viewBox="0 0 96 96" version="1.1" xmlns="http://www.w3.org/2000/svg" xmlns:xlink="http://www.w3.org/1999/xlink">
    <!-- Generator: Sketch 49.3 (51167) - http://www.bohemiancoding.com/sketch -->
    <title>Report Creator</title>
    <desc>Created with Sketch.</desc>
    <defs>
        <path d="M60.638,59 C60.59,59 60.55,59.011 60.5,59.021 C59.46,59.091 58.639,59.951 58.639,60.999 L58.639,62.401 C58.639,62.592 58.67,62.781 58.719,62.951 C57.95,63.15 57.21,63.411 56.5,63.721 C55.94,63.971 55.4,64.24 54.88,64.539 C54.79,64.381 54.679,64.231 54.54,64.101 L53.55,63.111 C52.77,62.331 51.509,62.331 50.73,63.111 L49.5,64.341 L48.099,65.731 C47.32,66.511 47.32,67.781 48.099,68.561 L49.09,69.551 C49.21,69.67 49.349,69.771 49.5,69.851 C49.509,69.861 49.52,69.881 49.54,69.881 C49.52,69.91 49.509,69.931 49.5,69.96 C48.82,71.121 48.29,72.391 47.94,73.731 C47.769,73.681 47.58,73.651 47.389,73.651 L46,73.651 C45.32,73.651 44.718,73.991 44.36,74.499 C44.13,74.831 44,75.221 44,75.651 L44,79.361 C44,80.459 44.888,81.361 46,81.361 L47.389,81.361 C47.58,81.361 47.769,81.331 47.94,81.281 C47.96,81.361 47.99,81.431 48.009,81.5 C48.299,82.551 48.7,83.561 49.2,84.499 C49.309,84.709 49.42,84.921 49.54,85.12 C49.38,85.21 49.231,85.321 49.09,85.46 L48.099,86.451 C47.32,87.231 47.32,88.491 48.099,89.271 L50.73,91.901 C51.509,92.681 52.77,92.681 53.55,91.901 L53.951,91.5 C53.951,91.5 54.598,90.801 54.929,90.481 C55.33,90.731 56.7,91.371 56.7,91.371 C57.349,91.651 58.019,91.88 58.719,92.061 C58.67,92.231 58.639,92.42 58.639,92.611 L58.639,94 C58.639,95.111 59.54,96 60.638,96 L64.348,96 C65.46,96 66.349,95.111 66.349,94 L66.349,92.611 C66.349,92.42 66.32,92.231 66.27,92.061 C67.639,91.7 68.928,91.16 70.12,90.459 C70.2,90.62 70.321,90.771 70.45,90.911 L71.44,91.901 C72.219,92.681 73.49,92.681 74.27,91.901 L76.889,89.271 C77.67,88.491 77.67,87.231 76.889,86.451 L75.901,85.46 C75.769,85.321 75.62,85.21 75.46,85.12 C76.16,83.941 76.7,82.651 77.05,81.281 C77.219,81.331 77.41,81.361 77.599,81.361 L79,81.361 C80.098,81.361 81,80.459 81,79.361 L81,75.651 C81,74.54 80.098,73.651 79,73.651 L77.599,73.651 C77.41,73.651 77.219,73.681 77.05,73.731 C76.7,72.361 76.16,71.07 75.46,69.881 C75.62,69.801 75.769,69.681 75.901,69.551 L76.889,68.561 C77.67,67.781 77.67,66.511 76.889,65.731 L74.27,63.111 C73.49,62.331 72.219,62.331 71.44,63.111 L70.45,64.101 C70.321,64.231 70.2,64.381 70.12,64.539 C69.29,64.061 68.41,63.651 67.5,63.331 C67.099,63.191 66.69,63.061 66.27,62.951 C66.32,62.781 66.349,62.592 66.349,62.401 L66.349,60.999 C66.349,59.901 65.46,59 64.348,59 L60.638,59 Z M58.08,83.552 C56.848,82.651 55.901,81.391 55.4,79.91 C55.139,79.161 55,78.352 55,77.499 C55,75.821 55.56,74.271 56.5,73.021 C57.48,71.71 58.88,70.731 60.5,70.281 C61.13,70.101 61.799,69.999 62.5,69.999 C64.42,69.999 66.17,70.741 67.5,71.931 C69.03,73.302 70,75.29 70,77.499 C70,80.151 68.611,82.481 66.531,83.811 C65.37,84.561 63.98,85 62.5,85 C60.849,85 59.32,84.46 58.08,83.552 Z" id="path-1"></path>
    </defs>
    <g id="Report-Creator" stroke="none" stroke-width="1" fill="none" fill-rule="evenodd">
        <g transform="translate(9.000000, 0.000000)">
            <path d="M69,14.0005 L69,53.4395 C69,55.1005 67.66,56.4395 66,56.4395 C65.17,56.4395 64.42,56.1095 63.88,55.5605 C63.34,55.0205 63,54.2705 63,53.4395 L63,14.0005 C63,13.4495 62.84,12.9395 62.58,12.5005 C62.32,12.0505 61.95,11.6805 61.5,11.4205 C61.06,11.1605 60.55,11.0005 60,11.0005 L45,11.0005 L45,15.0005 L55,15.0005 C57.21,15.0005 59,16.7905 59,19.0005 L59,53.4395 C59,54.2705 58.66,55.0205 58.12,55.5605 C57.58,56.1095 56.83,56.4395 56,56.4395 C54.34,56.4395 53,55.1005 53,53.4395 L53,21.0005 L16,21.0005 L16,75.0005 L36.92,75.0005 C37.74,75.0005 38.5,75.3305 39.04,75.8805 C39.58,76.4205 39.92,77.1705 39.92,78.0005 C39.92,79.6605 38.57,81.0005 36.92,81.0005 L14,81.0005 C11.79,81.0005 10,79.2105 10,77.0005 L10,19.0005 C10,16.7905 11.79,15.0005 14,15.0005 L24,15.0005 L24,11.0005 L9,11.0005 C8.45,11.0005 7.94,11.1605 7.5,11.4205 C7.05,11.6805 6.68,12.0505 6.42,12.5005 C6.16,12.9395 6,13.4495 6,14.0005 L6,82.0005 C6,82.5505 6.16,83.0605 6.42,83.5005 C6.68,83.9495 7.05,84.3195 7.5,84.5805 C7.94,84.8405 8.45,85.0005 9,85.0005 L40.92,85.0005 C42.57,85.0005 43.92,86.3405 43.92,88.0005 C43.92,88.8305 43.58,89.5805 43.04,90.1205 C42.5,90.6705 41.74,91.0005 40.92,91.0005 L9,91.0005 C4.03,91.0005 0,86.9705 0,82.0005 L0,14.0005 C0,9.0295 4.03,5.0005 9,5.0005 L24,5.0005 L24,4.0005 C24,1.7905 25.79,0.0005 28,0.0005 L41,0.0005 C43.21,0.0005 45,1.7905 45,4.0005 L45,5.0005 L60,5.0005 C64.97,5.0005 69,9.0295 69,14.0005" id="Fill-7" fill="#0B82C5" fill-rule="nonzero"></path>
            <path d="M46.1211,31.9996 L23.0001,31.9996 C21.3431,31.9996 20.0001,30.6566 20.0001,28.9996 C20.0001,27.3426 21.3431,25.9996 23.0001,25.9996 L46.1211,25.9996 C47.7781,25.9996 49.1211,27.3426 49.1211,28.9996 C49.1211,30.6566 47.7781,31.9996 46.1211,31.9996" id="Fill-9" fill="#0B82C5" fill-rule="nonzero"></path>
            <path d="M46.1211,41.9996 L23.0001,41.9996 C21.3431,41.9996 20.0001,40.6566 20.0001,38.9996 C20.0001,37.3426 21.3431,35.9996 23.0001,35.9996 L46.1211,35.9996 C47.7781,35.9996 49.1211,37.3426 49.1211,38.9996 C49.1211,40.6566 47.7781,41.9996 46.1211,41.9996" id="Fill-11" fill="#0B82C5" fill-rule="nonzero"></path>
            <path d="M37.6445,51.9996 L22.9995,51.9996 C21.3425,51.9996 19.9995,50.6566 19.9995,48.9996 C19.9995,47.3426 21.3425,45.9996 22.9995,45.9996 L37.6445,45.9996 C39.3015,45.9996 40.6445,47.3426 40.6445,48.9996 C40.6445,50.6566 39.3015,51.9996 37.6445,51.9996" id="Fill-13" fill="#0B82C5" fill-rule="nonzero"></path>
            <mask id="mask-2" fill="white">
                <use xlink:href="#path-1"></use>
            </mask>
            <use id="path-1" fill="#0B82C5" xlink:href="#path-1"></use>
        </g>
    </g>
</svg>