<?xml version="1.0" encoding="UTF-8"?>
<svg width="120px" height="121px" viewBox="0 0 120 121" version="1.1" xmlns="http://www.w3.org/2000/svg" xmlns:xlink="http://www.w3.org/1999/xlink">
    <!-- Generator: Sketch 49.3 (51167) - http://www.bohemiancoding.com/sketch -->
    <title>request a call back button</title>
    <desc>Created with Sketch.</desc>
    <defs></defs>
    <g id="request-a-call-back-button" stroke="none" stroke-width="1" fill="none" fill-rule="evenodd">
        <g id="Page-1">
            <g>
                <path d="M60,120 C93.137,120 120,93.137 120,60 C120,26.863 93.137,0 60,0 C26.863,0 0,26.863 0,60 C0,93.137 26.863,120 60,120" id="Fill-1" fill="#0B82C5"></path>
                <polygon id="Fill-3" fill="#FFFFFF" points="91.1656 32.6528 97.8696 24.7118 100.7496 27.1428 101.8416 25.8488 94.5166 19.6638 93.4236 20.9578 96.2776 23.3678 89.5736 31.3088"></polygon>
                <path d="M80.0049,20.0648 C79.6739,20.7468 79.5679,21.4338 79.6849,22.1238 C79.8029,22.8138 80.1209,23.4648 80.6389,24.0758 C81.1579,24.6868 81.8109,25.1828 82.5969,25.5648 C83.7879,26.1408 84.8599,26.3308 85.8139,26.1318 C86.7679,25.9328 87.4649,25.3808 87.9039,24.4738 C88.1739,23.9168 88.2909,23.3718 88.2529,22.8398 C88.2159,22.3088 88.0179,21.7578 87.6609,21.1878 C87.3039,20.6178 86.7629,20.0028 86.0379,19.3408 C85.3129,18.6788 84.8309,18.1258 84.5919,17.6808 C84.3529,17.2358 84.3299,16.8138 84.5229,16.4158 C84.7519,15.9418 85.1009,15.6568 85.5699,15.5578 C86.0389,15.4588 86.5819,15.5598 87.1999,15.8588 C87.8619,16.1798 88.2939,16.5868 88.4939,17.0808 C88.6939,17.5748 88.6569,18.1058 88.3819,18.6728 L90.2639,19.5858 C90.5679,18.9578 90.6759,18.3048 90.5869,17.6248 C90.4979,16.9458 90.2249,16.3228 89.7679,15.7568 C89.3099,15.1908 88.7029,14.7238 87.9459,14.3568 C86.8059,13.8048 85.7409,13.6388 84.7509,13.8598 C83.7609,14.0818 83.0539,14.6308 82.6289,15.5068 C82.1439,16.5078 82.2459,17.5598 82.9349,18.6628 C83.2959,19.2368 83.8509,19.8688 84.5999,20.5578 C85.3479,21.2458 85.8279,21.8018 86.0379,22.2238 C86.2489,22.6458 86.2389,23.0948 86.0069,23.5728 C85.7939,24.0118 85.4579,24.2838 84.9979,24.3898 C84.5379,24.4958 83.9789,24.3888 83.3209,24.0708 C82.5599,23.7008 82.0559,23.2488 81.8119,22.7118 C81.5679,22.1748 81.5959,21.5978 81.8949,20.9808 L80.0049,20.0648 Z" id="Fill-5" fill="#FFFFFF"></path>
                <polygon id="Fill-7" fill="#FFFFFF" points="44.4528 19.2068 39.5858 22.3658 37.5608 19.2468 41.7248 16.5438 40.8208 15.1518 36.6568 17.8538 34.8408 15.0548 39.6588 11.9278 38.7368 10.5078 32.1568 14.7778 38.7368 24.9158 45.3658 20.6128"></polygon>
                <path d="M28.6484,24.1068 L27.1964,25.7038 L24.1994,22.9798 L25.6904,21.3388 C26.1894,20.8058 26.6944,20.5228 27.2034,20.4888 C27.7134,20.4548 28.2074,20.6548 28.6864,21.0908 C29.1454,21.5078 29.3724,21.9828 29.3684,22.5178 C29.3654,23.0528 29.1244,23.5828 28.6484,24.1068 M31.1394,21.2728 C30.9994,20.6178 30.6294,20.0188 30.0314,19.4748 C29.1554,18.6788 28.2304,18.3508 27.2584,18.4908 C26.2854,18.6318 25.3304,19.2178 24.3924,20.2498 L21.5334,23.3948 L30.4774,31.5238 L31.8904,29.9698 L28.4434,26.8368 L30.0184,25.1048 L35.0944,26.4438 L36.6074,24.7788 L36.5274,24.7058 L30.9734,23.3258 C31.2254,22.6128 31.2804,21.9288 31.1394,21.2728" id="Fill-9" fill="#FFFFFF"></path>
                <path d="M46.6358,11.2097 C46.8808,10.3687 47.4288,9.7977 48.2788,9.4967 C49.1558,9.1867 49.9508,9.2777 50.6658,9.7707 C51.3798,10.2627 51.9638,11.1507 52.4188,12.4337 L52.6288,13.0287 C53.0828,14.3117 53.1928,15.3707 52.9568,16.2057 C52.7208,17.0407 52.1618,17.6147 51.2808,17.9267 C50.4098,18.2347 49.6098,18.1277 48.8818,17.6047 C48.1538,17.0817 47.5718,16.2047 47.1358,14.9727 L46.9008,14.3077 C46.4788,13.0837 46.3908,12.0507 46.6358,11.2097 M49.1558,19.7487 C50.0388,19.9437 50.9388,19.8787 51.8568,19.5537 C52.2218,19.4247 52.5518,19.2697 52.8458,19.0897 L55.9498,20.1477 L56.8238,18.5357 L54.3268,17.7017 C54.7788,17.0197 55.0348,16.2237 55.0968,15.3117 C55.1588,14.4007 54.9988,13.4047 54.6168,12.3257 L54.3918,11.6917 C53.9938,10.5817 53.4508,9.6777 52.7628,8.9797 C52.0758,8.2807 51.2938,7.8347 50.4188,7.6427 C49.5438,7.4507 48.6368,7.5207 47.6978,7.8537 C46.7738,8.1797 46.0338,8.6957 45.4758,9.4017 C44.9188,10.1067 44.5938,10.9537 44.5008,11.9437 C44.4078,12.9337 44.5578,13.9837 44.9508,15.0947 L45.1778,15.7367 C45.5688,16.8247 46.1098,17.7167 46.7988,18.4117 C47.4878,19.1077 48.2738,19.5527 49.1558,19.7487" id="Fill-11" fill="#FFFFFF"></path>
                <polygon id="Fill-13" fill="#FFFFFF" points="69.9936 20.2075 77.7136 21.8945 78.0716 20.2565 72.4036 19.0175 73.1966 15.3845 78.0466 16.4445 78.4006 14.8225 73.5516 13.7625 74.2636 10.5025 79.8756 11.7295 80.2376 10.0745 72.5736 8.4005"></polygon>
                <path d="M63.2573,17.2555 C62.4613,17.2975 61.8483,17.1165 61.4163,16.7135 C60.9853,16.3095 60.7473,15.7045 60.7053,14.8975 L60.2763,6.8235 L58.1873,6.9345 L58.6153,14.9915 C58.6843,16.3015 59.1453,17.3035 59.9963,17.9975 C60.8483,18.6925 61.9643,19.0035 63.3463,18.9295 C64.7113,18.8575 65.7843,18.4255 66.5653,17.6325 C67.3463,16.8405 67.7023,15.8035 67.6343,14.5215 L67.2063,6.4555 L65.1173,6.5665 L65.5423,14.5735 C65.6323,16.2765 64.8713,17.1695 63.2573,17.2555" id="Fill-15" fill="#FFFFFF"></path>
                <path d="M84.1664,101.9302 L83.7944,96.6322 L87.3844,100.5462 L84.1664,101.9302 Z M90.6144,104.0632 L92.6274,103.1972 L83.6494,93.9022 L81.9184,94.6472 L82.5014,107.5532 L84.5064,106.6902 L84.2944,103.7182 L88.5944,101.8682 L90.6144,104.0632 Z" id="Fill-17" fill="#FFFFFF"></path>
                <path d="M76.8114,106.5793 C76.9034,107.1533 76.7924,107.6303 76.4784,108.0113 C76.1644,108.3933 75.6814,108.6353 75.0314,108.7403 L72.7284,109.1103 L72.1294,105.3813 L74.6044,104.9833 C75.8764,104.8073 76.6124,105.3393 76.8114,106.5793 Z M71.3454,100.5053 L73.3614,100.1813 C74.0714,100.0673 74.6164,100.1143 74.9944,100.3223 C75.3724,100.5303 75.6084,100.9293 75.7034,101.5193 C75.7904,102.0553 75.6744,102.4983 75.3584,102.8493 C75.0424,103.1993 74.5614,103.4263 73.9164,103.5303 L71.8844,103.8573 L71.3454,100.5053 Z M77.5454,102.6193 C77.7704,102.1343 77.8384,101.6193 77.7504,101.0733 C77.5784,100.0023 77.0964,99.2523 76.3044,98.8253 C75.5134,98.3973 74.4424,98.2923 73.0924,98.5093 L69.0034,99.1663 L70.9214,111.0993 L75.2734,110.3993 C76.6114,110.1843 77.5924,109.7183 78.2144,109.0023 C78.8354,108.2853 79.0564,107.3673 78.8764,106.2473 C78.7674,105.5693 78.4984,105.0173 78.0684,104.5903 C77.6384,104.1643 77.0864,103.9153 76.4134,103.8433 C76.9434,103.5123 77.3204,103.1033 77.5454,102.6193 Z" id="Fill-19" fill="#FFFFFF"></path>
                <polygon id="Fill-21" fill="#FFFFFF" points="110.1113 82.3779 101.8783 82.0949 100.3243 75.2819 98.7893 77.3069 100.0273 82.6819 100.4703 84.4749 95.9513 81.0509 94.6833 82.7239 104.3143 90.0249 105.5833 88.3509 102.5803 86.0749 102.2493 84.1059 108.6073 84.3619"></polygon>
                <polygon id="Fill-23" fill="#FFFFFF" points="54.8574 99.3723 52.5664 111.2393 60.0164 112.6773 60.3344 111.0303 54.9464 109.9913 56.9194 99.7703"></polygon>
                <path d="M96.2467,98.3017 C97.1057,98.2087 97.9137,97.8647 98.6707,97.2707 C99.7557,96.4197 100.4007,95.4547 100.6087,94.3737 C100.8157,93.2937 100.5697,92.2087 99.8697,91.1187 L98.2237,92.4097 C98.6697,93.1567 98.8437,93.8047 98.7457,94.3527 C98.6477,94.9007 98.2747,95.4287 97.6257,95.9377 C96.9167,96.4947 96.1657,96.6477 95.3747,96.3957 C94.5827,96.1447 93.7837,95.5057 92.9777,94.4777 L92.3177,93.6347 C91.5307,92.6137 91.1237,91.6897 91.0977,90.8627 C91.0707,90.0357 91.4177,89.3407 92.1357,88.7767 C92.7537,88.2917 93.3417,88.0757 93.8987,88.1267 C94.4567,88.1787 95.0427,88.5157 95.6577,89.1377 L97.3027,87.8467 C96.3827,86.8877 95.3777,86.3747 94.2907,86.3057 C93.2027,86.2377 92.1347,86.6147 91.0857,87.4377 C90.3057,88.0497 89.7647,88.7737 89.4607,89.6097 C89.1567,90.4457 89.1137,91.3307 89.3317,92.2637 C89.5497,93.1967 90.0107,94.1117 90.7147,95.0087 L91.4117,95.8967 C92.1107,96.7617 92.8767,97.4017 93.7097,97.8177 C94.5427,98.2337 95.3877,98.3947 96.2467,98.3017" id="Fill-25" fill="#FFFFFF"></path>
                <polygon id="Fill-27" fill="#FFFFFF" points="46.1767 96.9619 41.3537 108.0439 48.3097 111.0719 48.9797 109.5339 43.9487 107.3449 48.1027 97.7999"></polygon>
                <path d="M17.5286,80.9752 L16.4466,77.6442 L21.7556,77.7602 L17.5286,80.9752 Z M23.9056,76.0752 L10.9996,75.4682 L11.6746,77.5442 L14.6536,77.6062 L16.1006,82.0592 L13.7296,83.8682 L14.4066,85.9522 L24.4876,77.8672 L23.9056,76.0752 Z" id="Fill-29" fill="#FFFFFF"></path>
                <path d="M25.1495,89.7853 L26.0065,89.1433 C27.0445,88.3783 27.9775,87.9923 28.8055,87.9843 C29.6325,87.9763 30.3195,88.3373 30.8675,89.0683 C31.3385,89.6973 31.5425,90.2893 31.4785,90.8453 C31.4145,91.4023 31.0655,91.9803 30.4295,92.5813 L31.6845,94.2553 C32.6625,93.3553 33.1985,92.3633 33.2905,91.2773 C33.3825,90.1913 33.0285,89.1153 32.2295,88.0483 C31.6355,87.2553 30.9235,86.6973 30.0935,86.3753 C29.2645,86.0533 28.3805,85.9903 27.4435,86.1883 C26.5055,86.3863 25.5815,86.8273 24.6685,87.5103 L23.7655,88.1873 C22.8855,88.8683 22.2285,89.6203 21.7945,90.4433 C21.3605,91.2663 21.1805,92.1083 21.2545,92.9693 C21.3295,93.8293 21.6545,94.6453 22.2325,95.4153 C23.0585,96.5183 24.0095,97.1853 25.0855,97.4163 C26.1615,97.6473 27.2515,97.4253 28.3565,96.7493 L27.1015,95.0753 C26.3445,95.5043 25.6935,95.6643 25.1475,95.5543 C24.6025,95.4443 24.0815,95.0603 23.5875,94.4003 C23.0465,93.6783 22.9105,92.9243 23.1785,92.1383 C23.4475,91.3533 24.1045,90.5683 25.1495,89.7853" id="Fill-31" fill="#FFFFFF"></path>
                <path d="M34.2628,99.3548 L38.7488,96.5128 L37.0088,101.5298 L34.2628,99.3548 Z M37.1638,107.4028 L41.0838,95.0898 L39.6068,93.9198 L28.5228,100.5578 L30.2338,101.9138 L32.7488,100.3158 L36.4188,103.2238 L35.4458,106.0428 L37.1638,107.4028 Z" id="Fill-33" fill="#FFFFFF"></path>
                <path d="M48.1173,55.9175 C46.9453,49.0455 48.0753,44.8805 51.2763,42.8675 C51.8653,42.4965 52.6523,42.6665 53.0553,43.2895 L56.5663,49.2815 C53.1003,51.4225 51.9413,55.8965 53.9773,59.4275 L61.3403,72.1945 C63.3973,75.7605 67.9843,77.0055 71.5963,74.9865 L75.1643,81.0005 C75.5013,81.5695 75.3073,82.2985 74.7183,82.6375 C74.6813,82.6585 74.6413,82.6785 74.5973,82.6985 C71.6423,84.0015 68.0413,83.3125 63.5363,80.3595 C58.7193,77.2025 54.8303,72.6615 51.9273,66.9385 C50.0473,63.2295 48.6673,59.1415 48.1173,55.9175 M61.7043,83.1535 C67.0723,86.6715 71.8103,87.5775 75.9443,85.7545 C76.0953,85.6885 76.2403,85.6155 76.3833,85.5335 C78.5823,84.2685 79.3283,81.4715 78.0363,79.2955 C75.5703,75.1415 74.3353,73.0615 74.3313,73.0555 C73.4593,71.6215 71.5363,71.1475 69.9583,72.0755 C67.9443,73.2015 65.3753,72.5035 64.2333,70.5255 L56.8713,57.7585 C55.7253,55.7715 56.4023,53.2495 58.4073,52.0725 C59.9153,51.1875 60.4253,49.2585 59.5413,47.7495 L55.9293,41.5885 C55.8823,41.5095 55.8583,41.4705 55.8213,41.4145 C54.4583,39.3115 51.6283,38.6985 49.4973,40.0395 C44.9443,42.9035 43.4483,48.4145 44.8243,56.4795 C45.4323,60.0415 46.9193,64.4475 48.9483,68.4485 C52.1043,74.6725 56.3773,79.6615 61.7043,83.1535" id="Fill-35" fill="#FFFFFF"></path>
                <path d="M45.9405,81.46 C46.7505,81.91 47.7605,81.61 48.2105,80.8 C48.6505,80 48.3605,78.98 47.5505,78.54 C35.5305,71.93 31.1405,57 37.7305,45.21 C44.3305,33.4 59.4205,29.18 71.4505,35.8 C83.3205,42.33 87.7405,56.97 81.4905,68.69 L80.6305,64.65 C80.4405,63.75 79.5505,63.17 78.6505,63.37 C77.7505,63.56 77.1705,64.45 77.3705,65.35 L79.0705,73.35 C79.2805,74.34 80.3205,74.92 81.2805,74.57 L88.5805,71.87 C89.4405,71.55 89.8905,70.59 89.5705,69.72 C89.2505,68.86 88.2905,68.42 87.4205,68.74 L84.7205,69.73 C91.4205,56.48 86.3505,40.18 73.0605,32.87 C59.4305,25.38 42.3105,30.16 34.8205,43.58 C27.3205,57 32.3105,73.96 45.9405,81.46" id="Fill-37" fill="#FFFFFF"></path>
            </g>
        </g>
    </g>
</svg>