<?xml version="1.0" encoding="UTF-8"?>
<svg width="96px" height="96px" viewBox="0 0 96 96" version="1.1" xmlns="http://www.w3.org/2000/svg" xmlns:xlink="http://www.w3.org/1999/xlink">
    <!-- Generator: Sketch 49.3 (51167) - http://www.bohemiancoding.com/sketch -->
    <title>roi guarantee</title>
    <desc>Created with Sketch.</desc>
    <defs></defs>
    <g id="roi-guarantee" stroke="none" stroke-width="1" fill="none" fill-rule="evenodd">
        <g transform="translate(9.000000, 9.000000)" fill="#FFFFFF" fill-rule="nonzero" id="Shape">
            <path d="M18.9,29.1 C19.2,29.1 19.6,29 19.9,28.8 L30.6,22 L50.2,22 C50.5,22 50.9,21.9 51.2,21.7 L60.2,16 L60.2,18 C60.2,19 61,19.8 62,19.8 C63,19.8 63.8,19 63.8,18 L63.8,11.5 C63.8,10.5 63,9.7 62,9.7 L55.4,9.7 C54.4,9.7 53.6,10.5 53.6,11.5 C53.6,12.5 54.4,13.3 55.4,13.3 L57.7,13.3 L49.6,18.4 L30,18.4 C29.7,18.4 29.3,18.5 29,18.7 L17.8,25.8 C17,26.3 16.7,27.5 17.2,28.3 C17.7,28.8 18.3,29.1 18.9,29.1 Z"></path>
            <path d="M26,45 L26,30.2 C26,29.7 25.7,29.2 25.2,28.9 C24.7,28.6 24.1,28.7 23.7,28.9 L18.1,32.4 C17.7,32.7 17.4,33.2 17.4,33.7 L17.4,45 C17.4,45.8 18.1,46.5 18.9,46.5 L24.5,46.5 C25.3,46.5 26,45.8 26,45 Z M23,43.5 L20.4,43.5 L20.4,34.6 L23,33 L23,43.5 Z"></path>
            <path d="M33.9,46.5 C34.7,46.5 35.4,45.8 35.4,45 L35.4,25.9 C35.4,25.1 34.7,24.4 33.9,24.4 L31.1,24.4 C30.8,24.4 30.5,24.5 30.3,24.7 L27.5,26.6 C27.1,26.9 26.9,27.3 26.9,27.8 L26.9,45 C26.9,45.8 27.6,46.5 28.4,46.5 L33.9,46.5 Z M29.7,28.6 L31.5,27.4 L32.3,27.4 L32.3,43.5 L29.7,43.5 L29.7,28.6 Z"></path>
            <path d="M54.1,45 L54.1,24.8 C54.1,24.3 53.8,23.8 53.4,23.5 C52.9,23.2 52.4,23.2 51.9,23.5 L50.5,24.3 L47,24.3 C46.2,24.3 45.5,25 45.5,25.8 L45.5,45 C45.5,45.8 46.2,46.5 47,46.5 L52.6,46.5 C53.4,46.5 54.1,45.8 54.1,45 Z M51.1,43.5 L48.5,43.5 L48.5,27.3 L50.9,27.3 C51,27.3 51.1,27.3 51.1,27.3 L51.1,43.5 Z"></path>
            <path d="M37.6,24.4 C36.8,24.4 36.1,25.1 36.1,25.9 L36.1,45 C36.1,45.8 36.8,46.5 37.6,46.5 L43.2,46.5 C44,46.5 44.7,45.8 44.7,45 L44.7,25.9 C44.7,25.1 44,24.4 43.2,24.4 L37.6,24.4 Z M41.7,43.5 L39.1,43.5 L39.1,27.4 L41.7,27.4 L41.7,43.5 Z"></path>
            <path d="M63.4,45 L63.4,23.7 C63.4,22.9 62.7,22.2 61.9,22.2 L56.3,22.2 C55.5,22.2 54.8,22.9 54.8,23.7 L54.8,45 C54.8,45.8 55.5,46.5 56.3,46.5 L61.9,46.5 C62.8,46.5 63.4,45.8 63.4,45 Z M60.4,43.5 L57.8,43.5 L57.8,25.2 L60.4,25.2 L60.4,43.5 Z"></path>
            <path d="M18.9,23.1 C19.7,23.1 20.4,22.4 20.4,21.6 L20.4,3.5 L60.6,3.5 L60.6,6.8 C60.6,7.6 61.3,8.3 62.1,8.3 C62.9,8.3 63.6,7.6 63.6,6.8 L63.6,2 C63.6,1.2 62.9,0.5 62.1,0.5 L18.9,0.5 C18.1,0.5 17.4,1.2 17.4,2 L17.4,21.6 C17.4,22.5 18.1,23.1 18.9,23.1 Z"></path>
            <path d="M35.9,59.8 C35.9,58.7 35.3,57.4 32.9,57.4 L29.6,57.4 C28.9,57.4 28.4,57.7 28.4,58.6 L28.4,65.3 C28.4,65.9 28.8,66.3 29.4,66.3 C30,66.3 30.4,65.9 30.4,65.3 L30.4,62.8 L32.3,62.8 C33.4,62.8 33.7,63.4 33.7,64.9 C33.7,65.2 33.8,66.3 34.9,66.3 C35.4,66.3 35.8,66 35.8,65.5 C35.8,65.1 35.5,64.7 35.5,63.7 C35.5,62.8 35.3,62.1 34.3,61.9 C35.4,61.6 35.9,60.7 35.9,59.8 Z M32.5,61.2 L30.5,61.2 L30.5,58.9 L32.5,58.9 C33.4,58.9 33.9,59.1 33.9,60.1 C34,61 33.2,61.2 32.5,61.2 Z"></path>
            <path d="M41.4,57.2 C38.6,57.2 37,59.1 37,61.6 C37,64.2 38.3,66.2 41.4,66.2 C44.4,66.2 45.8,64 45.8,61.6 C45.8,59 44.3,57.2 41.4,57.2 Z M41.4,64.6 C39.6,64.6 39,63.2 39,61.6 C39,60 39.8,58.8 41.4,58.8 C43,58.8 43.8,60 43.8,61.6 C43.8,63.2 43.2,64.6 41.4,64.6 Z"></path>
            <path d="M49.2,65.2 L49.2,58.2 C49.2,57.6 48.8,57.2 48.2,57.2 C47.6,57.2 47.2,57.6 47.2,58.2 L47.2,65.2 C47.2,65.8 47.6,66.2 48.2,66.2 C48.8,66.2 49.2,65.8 49.2,65.2 Z"></path>
            <path d="M8.1,76.4 L5.7,76.4 C5.2,76.4 4.9,76.7 4.9,77.2 C4.9,77.8 5.4,78 5.8,78 L7.1,78 C7,79.1 6.1,79.8 5,79.8 C3.4,79.8 2.6,78.6 2.6,76.9 C2.6,74.7 3.7,73.8 5,73.8 C6.9,73.8 6.6,75.2 7.5,75.2 C7.9,75.2 8.4,75 8.4,74.3 C8.4,73.5 7.2,72.2 5.1,72.2 C2.4,72.2 0.6,73.8 0.6,76.7 C0.6,79.1 1.8,81.2 4.8,81.2 C6,81.2 6.8,80.7 7.4,80 C7.5,80.8 7.7,81.1 8.2,81.1 C8.6,81.1 8.9,80.8 8.9,80.4 L8.9,77.2 C8.9,76.7 8.7,76.4 8.1,76.4 Z"></path>
            <path d="M17.2,72.2 C16.6,72.2 16.2,72.6 16.2,73.2 L16.2,77.9 C16.2,79.1 15.5,79.6 14.4,79.6 C13.3,79.6 12.6,79.1 12.6,77.9 L12.6,73.2 C12.6,72.6 12.2,72.2 11.6,72.2 C11,72.2 10.6,72.6 10.6,73.2 L10.6,77.8 C10.6,80.2 12.1,81.2 14.4,81.2 C16.7,81.2 18.2,80.1 18.2,77.8 L18.2,73.2 C18.2,72.6 17.8,72.2 17.2,72.2 Z"></path>
            <path d="M24.4,72.9 C24.2,72.3 23.8,72.2 23.3,72.2 L22.8,72.2 C22.3,72.2 22,72.4 21.8,72.8 L19.3,79.5 C19.2,79.7 19.1,80 19.1,80.3 C19.1,80.8 19.5,81.2 20,81.2 C20.5,81.2 20.7,81 20.9,80.7 L21.4,79.3 L24.6,79.3 L25.1,80.7 C25.2,81.1 25.6,81.2 26,81.2 C26.5,81.2 26.9,80.8 26.9,80.3 C26.9,80.1 26.8,79.7 26.7,79.5 L24.4,72.9 Z M21.9,77.8 L23.1,74.3 L24.2,77.8 L21.9,77.8 Z"></path>
            <path d="M35.4,74.8 C35.4,73.7 34.8,72.4 32.4,72.4 L29.1,72.4 C28.4,72.4 27.9,72.7 27.9,73.6 L27.9,80.3 C27.9,80.9 28.3,81.3 28.9,81.3 C29.5,81.3 29.9,80.9 29.9,80.3 L29.9,77.8 L31.8,77.8 C32.9,77.8 33.2,78.4 33.2,79.9 C33.2,80.2 33.3,81.3 34.4,81.3 C34.9,81.3 35.3,81 35.3,80.5 C35.3,80.1 35,79.7 35,78.7 C35,77.8 34.8,77.1 33.8,76.9 C34.8,76.6 35.4,75.7 35.4,74.8 Z M31.9,76.2 L29.9,76.2 L29.9,73.9 L31.9,73.9 C32.8,73.9 33.3,74.1 33.3,75.1 C33.4,76 32.7,76.2 31.9,76.2 Z"></path>
            <path d="M41.3,72.9 C41.1,72.3 40.7,72.2 40.2,72.2 L39.7,72.2 C39.2,72.2 38.9,72.4 38.7,72.8 L36.2,79.5 C36.1,79.7 36,80 36,80.3 C36,80.8 36.4,81.2 36.9,81.2 C37.4,81.2 37.6,81 37.8,80.7 L38.3,79.3 L41.5,79.3 L42,80.7 C42.1,81.1 42.5,81.2 42.9,81.2 C43.4,81.2 43.8,80.8 43.8,80.3 C43.8,80.1 43.7,79.7 43.6,79.5 L41.3,72.9 Z M38.8,77.8 L40,74.3 L41.1,77.8 L38.8,77.8 Z"></path>
            <path d="M51.5,72.2 C50.9,72.2 50.6,72.5 50.6,73.1 L50.6,78.2 L47.2,72.6 C47,72.2 46.6,72.1 46.2,72.1 C45.4,72.1 45,72.4 45,73.3 L45,80.1 C45,80.7 45.4,81 45.9,81 C46.4,81 46.8,80.7 46.8,80.1 L46.8,75.1 L50.2,80.5 C50.5,80.9 50.7,81 51.3,81 C52.1,81 52.5,80.6 52.5,79.8 L52.5,73 C52.4,72.5 52.1,72.2 51.5,72.2 Z"></path>
            <path d="M60.2,72.4 L54.5,72.4 C53.9,72.4 53.5,72.7 53.5,73.2 C53.5,73.7 54,74 54.5,74 L56.4,74 L56.4,80.2 C56.4,80.8 56.8,81.2 57.4,81.2 C58,81.2 58.4,80.8 58.4,80.2 L58.4,74 L60.3,74 C60.9,74 61.3,73.7 61.3,73.2 C61.3,72.7 60.7,72.4 60.2,72.4 Z"></path>
            <path d="M68.2,79.4 L64.3,79.4 L64.3,77.3 L67.6,77.3 C68.1,77.3 68.5,77.2 68.5,76.5 C68.5,75.9 68.1,75.7 67.6,75.7 L64.3,75.7 L64.3,73.8 L68.1,73.8 C68.7,73.8 69.1,73.6 69.1,73 C69.1,72.4 68.7,72.2 68.1,72.2 L63.5,72.2 C62.8,72.2 62.3,72.5 62.3,73.4 L62.3,79.7 C62.3,80.6 62.8,80.9 63.5,80.9 L68.2,80.9 C68.8,80.9 69.2,80.7 69.2,80.1 C69.2,79.6 68.7,79.4 68.2,79.4 Z"></path>
            <path d="M76.4,79.4 L72.5,79.4 L72.5,77.3 L75.8,77.3 C76.3,77.3 76.7,77.2 76.7,76.5 C76.7,75.9 76.3,75.7 75.8,75.7 L72.5,75.7 L72.5,73.8 L76.3,73.8 C76.9,73.8 77.3,73.6 77.3,73 C77.3,72.4 76.9,72.2 76.3,72.2 L71.7,72.2 C71,72.2 70.5,72.5 70.5,73.4 L70.5,79.7 C70.5,80.6 71,80.9 71.7,80.9 L76.4,80.9 C77,80.9 77.4,80.7 77.4,80.1 C77.4,79.6 77,79.4 76.4,79.4 Z"></path>
        </g>
    </g>
</svg>