<?xml version="1.0" encoding="UTF-8"?>
<svg width="96px" height="96px" viewBox="0 0 96 96" version="1.1" xmlns="http://www.w3.org/2000/svg" xmlns:xlink="http://www.w3.org/1999/xlink">
    <!-- Generator: Sketch 49.3 (51167) - http://www.bohemiancoding.com/sketch -->
    <title>sales collateral warehouse</title>
    <desc>Created with Sketch.</desc>
    <defs></defs>
    <g id="sales-collateral-warehouse" stroke="none" stroke-width="1" fill="none" fill-rule="evenodd">
        <g fill="#0B82C5">
            <path d="M47.8362,8.0743 C48.0082,7.9703 48.2922,7.9693 48.4202,8.0473 L87.7542,33.0943 L48.4662,58.1143 C48.2922,58.2213 48.0092,58.2213 47.8802,58.1423 L8.5462,33.0953 L47.8362,8.0743 Z M2.8202,37.7463 L44.1662,64.0753 C45.3702,64.8163 46.7502,65.1893 48.1362,65.1893 C49.5352,65.1893 50.9412,64.8093 52.1802,64.0473 L93.4032,37.7953 C94.0302,37.4263 94.4322,36.9563 94.6752,36.6693 C94.8782,36.4673 95.0552,36.2403 95.2022,35.9943 C96.7412,33.4273 96.0112,30.1273 93.4802,28.4423 L52.1362,2.1153 C49.7172,0.6243 46.5872,0.6233 44.1202,2.1423 L2.8202,28.4423 C2.6062,28.5793 2.4052,28.7393 2.2262,28.9203 L1.6252,29.5193 C1.4222,29.7213 1.2452,29.9483 1.0982,30.1943 C-0.4408,32.7613 0.2892,36.0613 2.8202,37.7463 Z" id="Fill-1"></path>
            <path d="M90.4192,46.3429 L48.2662,73.2139 C48.0922,73.3199 47.8082,73.3199 47.6782,73.2409 L5.3782,46.3409 C3.7492,45.3019 1.5852,45.7839 0.5472,47.4159 C-0.4898,49.0469 -0.0098,51.2099 1.6222,52.2469 L43.9662,79.1749 C45.1702,79.9159 46.5492,80.2879 47.9362,80.2879 C49.3352,80.2879 50.7412,79.9089 51.9812,79.1459 L94.1812,52.2449 C95.8122,51.2059 96.2902,49.0429 95.2512,47.4129 C94.2132,45.7809 92.0452,45.3049 90.4192,46.3429" id="Fill-4"></path>
            <path d="M90.4192,61.3429 L48.2662,88.2139 C48.0922,88.3189 47.8082,88.3189 47.6782,88.2409 L5.3782,61.3409 C3.7492,60.3019 1.5852,60.7849 0.5472,62.4159 C-0.4898,64.0469 -0.0098,66.2099 1.6222,67.2469 L43.9662,94.1749 C45.1702,94.9159 46.5492,95.2879 47.9362,95.2879 C49.3352,95.2879 50.7412,94.9089 51.9812,94.1459 L94.1812,67.2449 C95.8122,66.2059 96.2902,64.0429 95.2512,62.4129 C94.2132,60.7809 92.0452,60.3039 90.4192,61.3429" id="Fill-7"></path>
            <path d="M52.7588,27.1385 L70.3718,38.5655 L70.5068,38.6485 C71.1548,39.0285 71.8848,39.2145 72.5968,39.2145 C73.3138,39.2145 74.0128,39.0265 74.5918,38.6545 L79.8998,35.4315 C80.9508,34.7935 80.9758,33.2775 79.9458,32.6055 L62.2068,21.0425 L62.0728,20.9585 C60.7608,20.1855 59.1188,20.2055 57.8908,21.0055 L52.7588,24.3375 C51.7438,24.9955 51.7448,26.4805 52.7588,27.1385" id="Fill-10"></path>
            <path d="M68.1795,39.6484 L57.4445,33.0674 C56.1595,32.3104 54.5605,32.3144 53.3385,33.0664 L48.0485,36.2704 C46.9785,36.9174 46.9745,38.4684 48.0405,39.1214 L58.7775,45.7034 C59.4205,46.0824 60.1405,46.2694 60.8525,46.2694 C61.5675,46.2694 62.2755,46.0804 62.8875,45.7024 L68.1725,42.4994 C69.2415,41.8514 69.2455,40.3014 68.1795,39.6484" id="Fill-12"></path>
            <path d="M50.7835,53.3234 L56.0255,50.1714 C57.1405,49.5004 57.0945,47.8694 55.9435,47.2634 L50.1005,44.1884 L49.6245,44.0884 C48.5985,43.8714 47.6425,44.0044 46.7865,44.4854 L41.5615,47.1084 C40.3995,47.6914 40.3205,49.3194 41.4195,50.0124 L46.5845,53.2694 L46.6815,53.3284 C47.3425,53.7154 48.0525,53.9084 48.7535,53.9084 C49.4595,53.9084 50.1555,53.7134 50.7835,53.3234" id="Fill-14"></path>
            <path d="M49.9404,20.1699 L50.8324,21.0619 C51.8094,22.0379 53.3914,22.0379 54.3674,21.0619 C55.3444,20.0849 55.3444,18.5029 54.3674,17.5269 L49.3674,12.5269 C48.4304,11.5889 46.7694,11.5889 45.8324,12.5269 L40.7324,17.6269 C39.7564,18.6039 39.7564,20.1869 40.7324,21.1619 C41.2214,21.6509 41.8604,21.8949 42.5004,21.8949 C43.1404,21.8949 43.7794,21.6509 44.2684,21.1619 L44.9464,20.4839 C44.9084,28.2609 41.3624,34.8729 34.6174,39.6839 C34.2984,39.9109 34.1224,40.0369 33.9334,40.2269 C32.9564,41.2029 32.9564,42.7849 33.9334,43.7619 C34.4214,44.2499 35.0604,44.4939 35.7004,44.4939 C36.2764,44.4939 36.8534,44.2959 37.3184,43.8999 L37.5204,43.7549 C45.6234,37.9749 49.9874,29.6459 49.9404,20.1699" id="Fill-16"></path>
        </g>
    </g>
</svg>