<?xml version="1.0" encoding="UTF-8"?>
<svg width="96px" height="96px" viewBox="0 0 96 96" version="1.1" xmlns="http://www.w3.org/2000/svg" xmlns:xlink="http://www.w3.org/1999/xlink">
    <!-- Generator: Sketch 49.3 (51167) - http://www.bohemiancoding.com/sketch -->
    <title>Scalable</title>
    <desc>Created with Sketch.</desc>
    <defs></defs>
    <g id="Scalable" stroke="none" stroke-width="1" fill="none" fill-rule="evenodd">
        <g id="Page-1" transform="translate(0.000000, -1.000000)" fill="#0B82C5">
            <g id="Group-3" transform="translate(0.000000, 49.499500)">
                <path d="M43.5,27.6914 C41.567,27.6914 40,29.2584 40,31.1914 L40,39.5004 C40,39.7754 39.776,40.0004 39.5,40.0004 L7.5,40.0004 C7.224,40.0004 7,39.7754 7,39.5004 L7,7.5004 C7,7.2244 7.224,7.0004 7.5,7.0004 L16.733,7.0004 C18.667,7.0004 20.233,5.4324 20.233,3.5004 C20.233,1.5674 18.667,0.0004 16.733,0.0004 L7.5,0.0004 C3.364,0.0004 0,3.3644 0,7.5004 L0,39.5004 C0,43.6354 3.364,47.0004 7.5,47.0004 L39.5,47.0004 C43.636,47.0004 47,43.6354 47,39.5004 L47,31.1914 C47,29.2584 45.433,27.6914 43.5,27.6914" id="Fill-1"></path>
            </g>
            <path d="M88.5,63.4995 C88.5,65.9805 86.481,67.9995 84,67.9995 L33,67.9995 C30.519,67.9995 28.5,65.9805 28.5,63.4995 L28.5,12.4995 C28.5,10.0185 30.519,7.9995 33,7.9995 L84,7.9995 C86.481,7.9995 88.5,10.0185 88.5,12.4995 L88.5,63.4995 Z M84,0.9995 L33,0.9995 C26.659,0.9995 21.5,6.1585 21.5,12.4995 L21.5,63.4995 C21.5,69.8405 26.659,74.9995 33,74.9995 L84,74.9995 C90.341,74.9995 95.5,69.8405 95.5,63.4995 L95.5,12.4995 C95.5,6.1585 90.341,0.9995 84,0.9995 Z" id="Fill-4"></path>
            <path d="M78.5,14.5 L58.5,14.5 C56.567,14.5 55,16.067 55,18 C55,19.933 56.567,21.5 58.5,21.5 L70.049,21.5 L48.525,43.024 C47.158,44.391 47.158,46.608 48.525,47.974 C49.208,48.658 50.104,49 51,49 C51.896,49 52.792,48.658 53.475,47.974 L75,26.45 L75,38 C75,39.933 76.567,41.5 78.5,41.5 C80.433,41.5 82,39.933 82,38 L82,18 C82,16.067 80.433,14.5 78.5,14.5" id="Fill-6"></path>
            <path d="M39.5,49.4995 L33.5,49.4995 C31.567,49.4995 30,51.0665 30,52.9995 C30,54.9325 31.567,56.4995 33.5,56.4995 L39.5,56.4995 C39.776,56.4995 40,56.7245 40,56.9995 L40,62.9995 C40,64.9325 41.567,66.4995 43.5,66.4995 C45.433,66.4995 47,64.9325 47,62.9995 L47,56.9995 C47,52.8635 43.636,49.4995 39.5,49.4995" id="Fill-8"></path>
        </g>
    </g>
</svg>