<?xml version="1.0" encoding="UTF-8"?>
<svg width="96px" height="96px" viewBox="0 0 96 96" version="1.1" xmlns="http://www.w3.org/2000/svg" xmlns:xlink="http://www.w3.org/1999/xlink">
    <!-- Generator: Sketch 49.3 (51167) - http://www.bohemiancoding.com/sketch -->
    <title>Service Abuse Manager Control</title>
    <desc>Created with Sketch.</desc>
    <defs>
        <polygon id="path-1" points="0.0002 0 96 0 96 96 0.0002 96"></polygon>
    </defs>
    <g id="Service-Abuse-Manager-Control" stroke="none" stroke-width="1" fill="none" fill-rule="evenodd">
        <g id="Page-1">
            <path d="M40.4201,37.1699 C35.7701,37.1699 32.0001,33.3999 32.0001,28.7499 C32.0001,24.0999 35.7701,20.3299 40.4201,20.3299 C45.0701,20.3299 48.8301,24.0999 48.8301,28.7499 C48.8301,33.3999 45.0701,37.1699 40.4201,37.1699 M40.4201,13.3299 C31.9001,13.3299 25.0001,20.2399 25.0001,28.7499 C25.0001,37.2599 31.9001,44.1699 40.4201,44.1699 C48.9301,44.1699 55.8301,37.2599 55.8301,28.7499 C55.8301,20.2399 48.9301,13.3299 40.4201,13.3299" id="Fill-1" fill="#0B82C5"></path>
            <g id="Group-5">
                <mask id="mask-2" fill="white">
                    <use xlink:href="#path-1"></use>
                </mask>
                <g id="Clip-4"></g>
                <path d="M89.0002,88 C89.0002,88.55 88.5502,89 88.0002,89 L57.0002,89 C56.4502,89 56.0002,88.55 56.0002,88 L56.0002,67 C56.0002,66.45 56.4502,66 57.0002,66 L88.0002,66 C88.5502,66 89.0002,66.45 89.0002,67 L89.0002,88 Z M49.0002,67 L49.0002,71.75 C46.1402,72.56 43.1202,73 40.0002,73 C32.6702,73 25.8902,70.6 20.4202,66.56 C24.7202,59.59 32.3702,55.17 40.8302,55.17 C45.8302,55.17 50.5402,56.72 54.4602,59.42 C51.2902,60.48 49.0002,63.47 49.0002,67 Z M15.2002,61.76 C10.1002,55.95 7.0002,48.34 7.0002,40 C7.0002,21.77 21.7702,7 40.0002,7 C58.2302,7 73.0002,21.77 73.0002,40 C73.0002,41.88 72.8402,43.71 72.5302,45.5 L72.5002,45.5 C66.5702,45.5 61.5102,49.19 59.4702,54.4 C54.2202,50.45 47.7402,48.17 40.8302,48.17 C30.3702,48.17 20.8702,53.41 15.2002,61.76 Z M79.4702,59 L65.5302,59 C65.7302,56.08 67.7202,53.65 70.4202,52.81 C71.0802,52.61 71.7802,52.5 72.5002,52.5 C74.3602,52.5 76.0502,53.23 77.3102,54.42 C78.5402,55.59 79.3502,57.2 79.4702,59 Z M88.0002,59 L86.4702,59 C86.3002,53.96 83.4702,49.6 79.3302,47.28 C79.7602,44.92 80.0002,42.49 80.0002,40 C80.0002,17.91 62.0902,0 40.0002,0 C17.9102,0 0.0002,17.91 0.0002,40 C0.0002,62.09 17.9102,80 40.0002,80 C43.1002,80 46.1102,79.64 49.0002,78.97 L49.0002,88 C49.0002,92.42 52.5802,96 57.0002,96 L88.0002,96 C92.4202,96 96.0002,92.42 96.0002,88 L96.0002,67 C96.0002,62.58 92.4202,59 88.0002,59 Z" id="Fill-3" fill="#0B82C5" mask="url(#mask-2)"></path>
            </g>
            <path d="M74.9499,76 C74.9799,76.16 74.9999,76.33 74.9999,76.5 L74.9999,82.5 C74.9999,83.88 73.8799,85 72.4999,85 C71.1199,85 69.9999,83.88 69.9999,82.5 L69.9999,76.5 C69.9999,76.33 70.0199,76.16 70.0499,76 C69.3999,75.36 68.9999,74.48 68.9999,73.5 C68.9999,71.57 70.5699,70 72.4999,70 C74.4299,70 75.9999,71.57 75.9999,73.5 C75.9999,74.48 75.5999,75.36 74.9499,76" id="Fill-6" fill="#0B82C5"></path>
        </g>
    </g>
</svg>