<?xml version="1.0" encoding="UTF-8"?>
<svg width="96px" height="96px" viewBox="0 0 96 96" version="1.1" xmlns="http://www.w3.org/2000/svg" xmlns:xlink="http://www.w3.org/1999/xlink">
    <!-- Generator: Sketch 49.3 (51167) - http://www.bohemiancoding.com/sketch -->
    <title>SMS chat</title>
    <desc>Created with Sketch.</desc>
    <defs></defs>
    <g id="SMS-chat" stroke="none" stroke-width="1" fill="none" fill-rule="evenodd">
        <g transform="translate(3.000000, 8.000000)" fill="#0B82C5" fill-rule="nonzero">
            <rect id="Rectangle" x="21" y="28" width="10" height="10" rx="5"></rect>
            <rect id="Rectangle-2-Copy" x="40" y="28" width="10" height="10" rx="5"></rect>
            <rect id="Rectangle-2-Copy-2" x="59" y="28" width="10" height="10" rx="5"></rect>
            <path d="M16.8666984,82.807117 L16.8666984,67.9766784 C16.8666984,67.4243936 16.4189832,66.9766784 15.8666984,66.9766784 L5,66.9766784 C0.581721999,66.9766784 -3,63.3949564 -3,58.9766784 L-3,5 C-3,0.581721982 0.581721999,-3 5,-3 L85.0412961,-3 C89.4595741,-3 93.0412961,0.581721976 93.0412961,5 L93.0412961,58.7980427 C93.0412961,63.2163207 89.4595741,66.7980427 85.0412961,66.7980427 L41.421548,66.7980427 C41.1413824,66.7980427 40.8740655,66.9155713 40.6846672,67.1220201 L23.8142222,85.5112071 C22.3207941,87.13908 19.7904799,87.2480684 18.162608,85.7546406 C17.3368133,84.9970474 16.8666984,83.9277797 16.8666984,82.807117 Z M23.8666984,75.0993245 L35.5265015,62.3898613 C37.0416881,60.7382719 39.180223,59.7980427 41.421548,59.7980427 L85.0412961,59.7980427 C85.5935809,59.7980427 86.0412961,59.3503275 86.0412961,58.7980427 L86.0412961,5 C86.0412961,4.44771522 85.5935809,4 85.0412961,4 L5,4 C4.44771524,4 4,4.44771524 4,5 L4,58.9766784 C4,59.5289632 4.44771524,59.9766784 5,59.9766784 L15.8666984,59.9766784 C20.2849764,59.9766784 23.8666984,63.5584004 23.8666984,67.9766784 L23.8666984,75.0993245 Z" id="Path-12"></path>
        </g>
    </g>
</svg>