<?xml version="1.0" encoding="UTF-8"?>
<svg width="96px" height="96px" viewBox="0 0 96 96" version="1.1" xmlns="http://www.w3.org/2000/svg" xmlns:xlink="http://www.w3.org/1999/xlink">
    <!-- Generator: Sketch 49.3 (51167) - http://www.bohemiancoding.com/sketch -->
    <title>social media chat</title>
    <desc>Created with Sketch.</desc>
    <defs></defs>
    <g id="social-media-chat" stroke="none" stroke-width="1" fill="none" fill-rule="evenodd">
        <g transform="translate(0.000000, 1.000000)" fill="#0B82C5" id="Fill-1">
            <path d="M74.957,58.0042 C76.639,55.8412 78.035,53.5052 79.153,51.0052 C80.405,51.3292 81.586,51.7052 82.722,52.1122 C80.514,54.5082 77.886,56.5092 74.957,58.0042 Z M71.49,65.7752 L71.49,73.8762 L35.806,73.8762 C33.936,73.8762 32.137,74.6632 30.864,76.0362 L22.029,85.5932 L22.029,80.7482 C22.029,77.0382 19.011,74.0192 15.301,74.0192 L6,74.0192 L6,30.0002 L29.182,30.0002 C29.18,30.0132 29.18,30.0272 29.178,30.0402 C29.168,30.1422 29.162,30.2452 29.153,30.3472 C29.113,30.7682 29.08,31.1902 29.056,31.6132 C29.046,31.7982 29.041,31.9832 29.034,32.1682 C29.02,32.5182 29.01,32.8682 29.007,33.2192 C29.006,33.3132 29,33.4062 29,33.5002 C29,33.6052 29.007,33.7082 29.008,33.8132 C29.011,34.1702 29.021,34.5272 29.035,34.8842 C29.042,35.0572 29.048,35.2292 29.057,35.4012 C29.063,35.5012 29.064,35.6002 29.07,35.7002 C29.089,35.9942 29.12,36.2862 29.147,36.5782 C29.161,36.7242 29.17,36.8712 29.186,37.0172 C29.228,37.4202 29.282,37.8202 29.339,38.2202 C29.359,38.3632 29.375,38.5082 29.397,38.6502 C29.411,38.7442 29.431,38.8352 29.447,38.9282 C31.443,51.1262 40.049,61.1242 51.456,65.1202 C51.563,65.1582 51.671,65.1932 51.779,65.2302 C52.109,65.3422 52.44,65.4532 52.775,65.5552 C53.124,65.6632 53.478,65.7602 53.832,65.8562 C53.95,65.8882 54.066,65.9242 54.184,65.9542 C55.659,66.3362 57.171,66.6192 58.714,66.7902 C58.796,66.7992 58.878,66.8032 58.959,66.8112 C59.151,66.8312 59.344,66.8442 59.536,66.8612 C59.877,66.8912 60.219,66.9202 60.56,66.9392 C60.828,66.9552 61.098,66.9622 61.367,66.9712 C61.64,66.9802 61.913,66.9892 62.186,66.9922 C62.291,66.9932 62.395,67.0002 62.5,67.0002 C62.708,67.0002 62.914,66.9882 63.121,66.9842 C63.351,66.9802 63.581,66.9752 63.811,66.9662 C64.154,66.9532 64.494,66.9332 64.834,66.9092 C65.031,66.8962 65.229,66.8812 65.426,66.8642 C65.782,66.8332 66.137,66.7962 66.49,66.7542 C66.676,66.7322 66.862,66.7082 67.048,66.6832 C67.398,66.6352 67.746,66.5822 68.093,66.5242 C68.292,66.4902 68.491,66.4542 68.69,66.4172 C69.011,66.3572 69.33,66.2932 69.648,66.2242 C69.887,66.1722 70.126,66.1162 70.364,66.0582 C70.633,65.9942 70.901,65.9282 71.167,65.8562 C71.274,65.8282 71.383,65.8052 71.49,65.7752 Z M53.876,7.3932 C50.955,10.3042 48.65,13.5942 46.949,17.2412 C45.029,16.8182 43.231,16.3062 41.561,15.7022 C44.795,11.9042 49.039,8.9952 53.876,7.3932 Z M83.292,15.5322 C81.876,16.0662 80.387,16.5492 78.785,16.9492 C77.19,13.6142 75.077,10.5852 72.451,7.8712 C76.667,9.5142 80.379,12.1662 83.292,15.5322 Z M82.401,36.9352 L89.778,36.9352 C89.321,40.5842 88.148,44.0112 86.401,47.0742 C84.754,46.4052 82.987,45.8322 81.128,45.3322 C81.814,42.6832 82.248,39.8882 82.401,36.9352 Z M65.936,43.1932 L65.936,36.9352 L76.386,36.9352 C76.238,39.4712 75.866,41.8572 75.267,44.0992 C72.351,43.6312 69.25,43.3192 65.936,43.1932 Z M65.936,58.7802 L65.936,49.1922 C68.463,49.2942 70.846,49.5092 73.099,49.8222 C71.381,53.2022 68.995,56.1772 65.936,58.7802 Z M59.936,43.1642 C56.621,43.2392 53.478,43.4652 50.546,43.8702 C49.983,41.6942 49.627,39.3862 49.484,36.9352 L59.936,36.9352 L59.936,43.1642 Z M52.689,49.6552 C54.97,49.3882 57.387,49.2232 59.936,49.1622 L59.936,58.7812 C56.826,56.1352 54.413,53.1042 52.689,49.6552 Z M42.184,51.9122 C43.558,51.4422 45.034,51.0462 46.572,50.6952 C47.819,53.5602 49.443,56.2042 51.423,58.6302 C47.899,57.0522 44.756,54.7492 42.184,51.9122 Z M43.469,36.9352 C43.615,39.7612 44.02,42.4412 44.655,44.9882 C42.478,45.5112 40.438,46.1442 38.534,46.8862 C36.96,44.1032 35.855,41.0362 35.339,37.8012 C35.335,37.7752 35.329,37.7502 35.325,37.7252 C35.284,37.4652 35.271,37.1972 35.238,36.9352 L43.469,36.9352 Z M59.936,24.6862 L59.936,30.9352 L49.548,30.9352 C49.744,28.4862 50.148,26.1752 50.776,24.0062 C53.642,24.3932 56.706,24.6132 59.936,24.6862 Z M59.936,9.9582 L59.936,18.6882 C57.554,18.6312 55.289,18.4832 53.14,18.2452 C54.826,15.1442 57.083,12.3862 59.936,9.9582 Z M65.936,18.6582 L65.936,9.9592 C68.742,12.3482 70.972,15.0562 72.648,18.0962 C70.53,18.3752 68.292,18.5632 65.936,18.6582 Z M76.322,30.9352 L65.936,30.9352 L65.936,24.6572 C69.158,24.5342 72.18,24.2362 75.026,23.7912 C75.69,26.0232 76.119,28.4042 76.322,30.9352 Z M82.334,30.9352 C82.127,27.9992 81.662,25.2082 80.917,22.5792 C83.004,22.0282 84.96,21.3722 86.782,20.6102 C88.452,23.7422 89.532,27.2332 89.876,30.9352 L82.334,30.9352 Z M35.305,29.4152 C35.384,28.8822 35.481,28.3532 35.592,27.8262 C36.114,25.3462 36.975,22.9912 38.118,20.8052 C40.199,21.6422 42.454,22.3422 44.869,22.9122 C44.176,25.4442 43.735,28.1212 43.536,30.9352 L35.131,30.9352 C35.165,30.5732 35.202,30.2112 35.249,29.8512 C35.269,29.7062 35.283,29.5592 35.305,29.4152 Z M96,33.5002 C96,15.0282 80.972,0.0002 62.5,0.0002 C47.328,0.0002 34.487,10.1422 30.38,24.0002 L5.831,24.0002 C2.616,24.0002 0,26.6162 0,29.8312 L0,74.1882 C0,77.4032 2.616,80.0192 5.831,80.0192 L15.301,80.0192 C15.702,80.0192 16.029,80.3462 16.029,80.7482 L16.029,89.7242 C16.029,91.5422 17.123,93.1432 18.815,93.8052 C19.341,94.0112 19.885,94.1112 20.423,94.1112 C21.618,94.1112 22.78,93.6192 23.63,92.7002 L35.269,80.1112 C35.407,79.9622 35.603,79.8762 35.806,79.8762 L71.659,79.8762 C74.874,79.8762 77.49,77.2592 77.49,74.0452 L77.49,63.4452 C88.454,57.9342 96,46.5852 96,33.5002 Z"></path>
        </g>
    </g>
</svg>