<?xml version="1.0" encoding="UTF-8"?>
<svg width="96px" height="96px" viewBox="0 0 96 96" version="1.1" xmlns="http://www.w3.org/2000/svg" xmlns:xlink="http://www.w3.org/1999/xlink">
    <!-- Generator: Sketch 49.3 (51167) - http://www.bohemiancoding.com/sketch -->
    <title>sovereign identity</title>
    <desc>Created with Sketch.</desc>
    <defs></defs>
    <g id="sovereign-identity" stroke="none" stroke-width="1" fill="none" fill-rule="evenodd">
        <g id="Page-1" transform="translate(12.000000, 8.000000)" fill="#FFFFFF">
            <path d="M50.9077,15.998 C50.9607,14.925 51.4297,13.935 52.2267,13.215 C53.0317,12.487 54.0727,12.121 55.1557,12.184 C57.3427,12.31 59.0367,14.181 58.9467,16.36 L58.8837,32.702 C58.8817,32.975 58.8047,33.244 58.6627,33.478 C58.6107,33.563 58.5567,33.643 58.4957,33.728 L53.7307,40.746 C53.6337,40.928 53.4777,41.302 53.3297,41.776 C53.1007,42.502 52.9237,43.339 52.8237,44.278 C52.7827,44.67 52.7477,44.906 52.6707,45.351 C51.7147,46.751 49.7457,45.936 49.8617,44.337 L49.8807,44.074 C49.9847,42.768 50.2487,41.596 50.6177,40.571 C50.8497,39.924 51.0837,39.441 51.2557,39.16 L55.9307,32.27 C55.9757,20.901 55.9947,16.31 55.9957,16.291 C56.0257,15.696 55.5557,15.181 54.9487,15.145 C54.5507,15.123 54.1897,15.312 53.9817,15.66 C53.9057,15.788 53.8647,15.946 53.8557,16.133 C53.8207,16.832 53.7107,18.648 53.5257,21.599 C53.4707,22.477 53.3027,25.164 53.2927,25.317 C53.2167,26.525 53.1787,27.144 53.1697,27.326 L47.6707,35.237 C47.1367,35.998 45.8877,35.698 45.4137,34.815 C45.1527,34.33 45.2137,33.717 45.5467,33.242 L47.9957,29.743 C48.3317,29.264 48.2017,28.586 47.6987,28.234 C47.1967,27.883 46.5157,27.992 46.1797,28.472 C43.0157,32.991 41.2587,35.522 40.9407,36.014 L42.0387,41.851 C42.3207,43.355 40.8987,44.495 39.6727,43.636 C39.4327,43.468 39.2847,43.271 39.2417,43.044 C39.2167,42.907 39.2087,42.865 39.1997,42.818 C38.8147,40.757 38.8147,40.757 38.0287,36.544 C38.0157,36.485 38.0047,36.424 37.9947,36.357 C37.8917,35.652 38.0597,34.944 38.4677,34.362 L43.7717,26.786 C45.0527,24.958 47.5807,24.514 49.4087,25.793 C49.7857,26.058 50.1097,26.379 50.3727,26.745 L50.9077,15.998 Z" id="Fill-1"></path>
            <path d="M21.3364,15.998 C21.2824,14.925 20.8144,13.935 20.0174,13.215 C19.2114,12.487 18.1704,12.121 17.0874,12.184 C14.9004,12.31 13.2064,14.181 13.2974,16.36 L13.3604,32.702 C13.3614,32.975 13.4384,33.244 13.5804,33.478 C13.6324,33.563 13.6864,33.643 13.7484,33.728 L18.5124,40.746 C18.6094,40.928 18.7654,41.302 18.9134,41.776 C19.1424,42.502 19.3204,43.339 19.4194,44.278 C19.4614,44.67 19.4954,44.906 19.5734,45.351 C20.5284,46.751 22.4974,45.936 22.3824,44.337 L22.3624,44.074 C22.2594,42.768 21.9954,41.596 21.6264,40.571 C21.3944,39.924 21.1594,39.441 20.9874,39.16 L16.3124,32.27 C16.2674,20.901 16.2484,16.31 16.2474,16.291 C16.2184,15.696 16.6884,15.18 17.2944,15.145 C17.6924,15.123 18.0544,15.312 18.2614,15.66 C18.3374,15.788 18.3784,15.946 18.3884,16.133 C18.4224,16.832 18.5324,18.648 18.7174,21.599 C18.7734,22.477 18.9414,25.164 18.9504,25.317 C19.0264,26.525 19.0654,27.144 19.0744,27.326 L24.5734,35.237 C25.1074,35.998 26.3554,35.698 26.8294,34.815 C27.0914,34.33 27.0294,33.717 26.6964,33.242 L24.2474,29.743 C23.9114,29.264 24.0424,28.586 24.5444,28.234 C25.0464,27.883 25.7274,27.992 26.0634,28.472 C29.2274,32.991 30.9854,35.522 31.3024,36.014 L30.2054,41.851 C29.9224,43.355 31.3454,44.495 32.5704,43.636 C32.8114,43.468 32.9584,43.271 33.0014,43.044 C33.0274,42.907 33.0354,42.865 33.0434,42.818 C33.4284,40.757 33.4284,40.757 34.2144,36.544 C34.2284,36.485 34.2384,36.424 34.2484,36.357 C34.3514,35.652 34.1834,34.944 33.7754,34.362 L28.4714,26.786 C27.1914,24.958 24.6634,24.514 22.8354,25.793 C22.4574,26.058 22.1334,26.379 21.8704,26.745 L21.3364,15.998 Z" id="Fill-3"></path>
            <path d="M36.1128,-0.0001 C43.1528,-0.0001 48.8608,5.6649 48.8608,12.6529 C48.8608,19.6409 43.1528,25.3059 36.1128,25.3059 C29.0718,25.3059 23.3638,19.6409 23.3638,12.6529 C23.3638,5.6649 29.0718,-0.0001 36.1128,-0.0001 M36.1128,3.4069 C30.9668,3.4069 26.7968,7.5459 26.7968,12.6529 C26.7968,17.7589 30.9668,21.8989 36.1128,21.8989 C41.2578,21.8989 45.4278,17.7589 45.4278,12.6529 C45.4278,7.5459 41.2578,3.4069 36.1128,3.4069" id="Fill-5"></path>
            <path d="M36.1128,4.8666 C37.1958,4.8666 38.0738,5.7386 38.0738,6.8126 C38.0738,7.8876 37.1958,8.7596 36.1128,8.7596 C35.0288,8.7596 34.1508,7.8876 34.1508,6.8126 C34.1508,5.7386 35.0288,4.8666 36.1128,4.8666" id="Fill-8"></path>
            <path d="M36.1128,10.2196 C37.1958,10.2196 38.0738,11.0916 38.0738,12.1656 L38.0738,18.4926 C38.0738,19.5676 37.1958,20.4386 36.1128,20.4386 C35.0288,20.4386 34.1508,19.5676 34.1508,18.4926 L34.1508,12.1656 C34.1508,11.0916 35.0288,10.2196 36.1128,10.2196" id="Fill-10"></path>
            <path d="M60.5337,80.1742 L60.5337,77.6302 L58.1217,73.6222 C58.0257,73.4662 57.9537,73.2862 57.9537,73.1072 C57.9537,72.4352 58.5657,72.2062 58.9497,72.2062 C59.4187,72.2062 59.6347,72.3992 59.8387,72.7822 L61.5547,75.9392 L63.2587,72.7822 C63.4857,72.3512 63.7017,72.2062 64.1097,72.2062 C64.4707,72.2062 65.0817,72.4352 65.0817,73.1072 C65.0817,73.2862 65.0107,73.4662 64.9137,73.6222 L62.5027,77.6302 L62.5027,80.1742 C62.5027,80.7622 62.1177,81.1582 61.5177,81.1582 C60.9187,81.1582 60.5337,80.7622 60.5337,80.1742 Z M52.8537,80.1742 L52.8537,74.0192 L50.9937,74.0192 C50.4297,74.0192 49.9737,73.7312 49.9737,73.1912 C49.9737,72.6512 50.4297,72.3622 50.9937,72.3622 L56.6817,72.3622 C57.2457,72.3622 57.7017,72.6512 57.7017,73.1912 C57.7017,73.7312 57.2457,74.0192 56.6817,74.0192 L54.8217,74.0192 L54.8217,80.1742 C54.8217,80.7622 54.4377,81.1582 53.8387,81.1582 C53.2377,81.1582 52.8537,80.7622 52.8537,80.1742 Z M46.9497,80.1742 L46.9497,73.1912 C46.9497,72.6032 47.3347,72.2062 47.9337,72.2062 C48.5337,72.2062 48.9187,72.6032 48.9187,73.1912 L48.9187,80.1742 C48.9187,80.7622 48.5337,81.1582 47.9337,81.1582 C47.3347,81.1582 46.9497,80.7622 46.9497,80.1742 Z M41.0467,80.1742 L41.0467,74.0192 L39.1857,74.0192 C38.6217,74.0192 38.1657,73.7312 38.1657,73.1912 C38.1657,72.6512 38.6217,72.3622 39.1857,72.3622 L44.8737,72.3622 C45.4377,72.3622 45.8937,72.6512 45.8937,73.1912 C45.8937,73.7312 45.4377,74.0192 44.8737,74.0192 L43.0137,74.0192 L43.0137,80.1742 C43.0137,80.7622 42.6307,81.1582 42.0297,81.1582 C41.4297,81.1582 41.0467,80.7622 41.0467,80.1742 Z M29.5617,80.2102 L29.5617,73.3592 C29.5617,72.5422 29.9587,72.2062 30.7987,72.2062 C31.2057,72.2062 31.5657,72.3622 31.7817,72.7222 L35.2257,78.2782 L35.2507,78.2782 L35.2507,73.1542 C35.2507,72.5192 35.6097,72.2062 36.1977,72.2062 C36.7857,72.2062 37.1457,72.5192 37.1457,73.1542 L37.1457,79.9352 C37.1457,80.7142 36.8097,81.1582 35.9817,81.1582 C35.3577,81.1582 35.1537,81.0272 34.9017,80.6302 L31.4817,75.2312 L31.4587,75.2312 L31.4587,80.2102 C31.4587,80.8462 31.0977,81.1582 30.5107,81.1582 C29.9227,81.1582 29.5617,80.8462 29.5617,80.2102 Z M21.4267,79.8512 L21.4267,73.5142 C21.4267,72.6382 21.8827,72.3622 22.5777,72.3622 L27.1977,72.3622 C27.7737,72.3622 28.1937,72.5302 28.1937,73.1542 C28.1937,73.7782 27.7737,73.9462 27.1977,73.9462 L23.3937,73.9462 L23.3937,75.8192 L26.7297,75.8192 C27.2457,75.8192 27.6537,75.9622 27.6537,76.5742 C27.6537,77.1872 27.2457,77.3302 26.7297,77.3302 L23.3937,77.3302 L23.3937,79.4182 L27.2947,79.4182 C27.8697,79.4182 28.2897,79.5862 28.2897,80.2102 C28.2897,80.8342 27.8697,81.0022 27.2947,81.0022 L22.5777,81.0022 C21.8827,81.0022 21.4267,80.7272 21.4267,79.8512 Z M14.2377,73.9462 L14.2377,79.4182 L15.8937,79.4182 C17.4667,79.4182 17.9707,78.0142 17.9707,76.6822 C17.9707,74.9792 17.3217,73.9462 15.8827,73.9462 L14.2377,73.9462 Z M12.2697,79.8512 L12.2697,73.5142 C12.2697,72.6382 12.7257,72.3622 13.4227,72.3622 L15.8217,72.3622 C17.9707,72.3622 19.9377,73.2982 19.9377,76.6822 C19.9377,79.4182 18.4137,81.0022 15.7857,81.0022 L13.4227,81.0022 C12.7257,81.0022 12.2697,80.7272 12.2697,79.8512 Z M8.4777,80.1742 L8.4777,73.1912 C8.4777,72.6032 8.8617,72.2062 9.4627,72.2062 C10.0617,72.2062 10.4457,72.6032 10.4457,73.1912 L10.4457,80.1742 C10.4457,80.7622 10.0617,81.1582 9.4627,81.1582 C8.8617,81.1582 8.4777,80.7622 8.4777,80.1742 Z M64.8237,65.2102 L64.8237,58.3592 C64.8237,57.5422 65.2207,57.2062 66.0597,57.2062 C66.4687,57.2062 66.8277,57.3622 67.0447,57.7222 L70.4877,63.2782 L70.5127,63.2782 L70.5127,58.1542 C70.5127,57.5192 70.8717,57.2062 71.4607,57.2062 C72.0487,57.2062 72.4077,57.5192 72.4077,58.1542 L72.4077,64.9352 C72.4077,65.7142 72.0717,66.1582 71.2437,66.1582 C70.6197,66.1582 70.4167,66.0272 70.1637,65.6302 L66.7437,60.2312 L66.7207,60.2312 L66.7207,65.2102 C66.7207,65.8462 66.3597,66.1582 65.7717,66.1582 C65.1837,66.1582 64.8237,65.8462 64.8237,65.2102 Z M63.0967,62.2462 L63.0967,65.4982 C63.0967,65.8592 62.8197,66.1582 62.4247,66.1582 C61.8597,66.1582 61.7037,65.8112 61.5847,65.0422 C61.0197,65.7502 60.2397,66.2062 59.0157,66.2062 C55.9687,66.2062 54.8047,64.1072 54.8047,61.6822 C54.8047,58.7662 56.6287,57.1582 59.3047,57.1582 C61.4877,57.1582 62.6517,58.4662 62.6517,59.2352 C62.6517,59.9182 62.1477,60.0982 61.7277,60.0982 C60.7567,60.0982 61.1157,58.7422 59.1957,58.7422 C57.8407,58.7422 56.7717,59.6302 56.7717,61.8152 C56.7717,63.5192 57.6117,64.6952 59.2207,64.6952 C60.2637,64.6952 61.1767,63.9872 61.2717,62.9302 L59.9877,62.9302 C59.5677,62.9302 59.0997,62.7752 59.0997,62.1742 C59.0997,61.6952 59.3767,61.4182 59.8677,61.4182 L62.2927,61.4182 C62.8677,61.4182 63.0967,61.7062 63.0967,62.2462 Z M51.2877,65.1742 L51.2877,58.1912 C51.2877,57.6032 51.6727,57.2062 52.2717,57.2062 C52.8717,57.2062 53.2567,57.6032 53.2567,58.1912 L53.2567,65.1742 C53.2567,65.7622 52.8717,66.1582 52.2717,66.1582 C51.6727,66.1582 51.2877,65.7622 51.2877,65.1742 Z M43.1157,64.8512 L43.1157,58.5142 C43.1157,57.6382 43.5717,57.3622 44.2677,57.3622 L48.8877,57.3622 C49.4647,57.3622 49.8847,57.5302 49.8847,58.1542 C49.8847,58.7782 49.4647,58.9462 48.8877,58.9462 L45.0847,58.9462 L45.0847,60.8192 L48.4207,60.8192 C48.9357,60.8192 49.3447,60.9622 49.3447,61.5742 C49.3447,62.1872 48.9357,62.3302 48.4207,62.3302 L45.0847,62.3302 L45.0847,64.4182 L48.9837,64.4182 C49.5597,64.4182 49.9797,64.5862 49.9797,65.2102 C49.9797,65.8342 49.5597,66.0022 48.9837,66.0022 L44.2677,66.0022 C43.5717,66.0022 43.1157,65.7272 43.1157,64.8512 Z M36.1437,58.8742 L36.1437,61.2022 L38.1117,61.2022 C38.8557,61.2022 39.5997,61.0102 39.5997,60.0382 C39.5997,59.1142 39.0357,58.8742 38.1727,58.8742 L36.1437,58.8742 Z M34.1767,65.1742 L34.1767,58.5142 C34.1767,57.6382 34.6327,57.3622 35.3277,57.3622 L38.6037,57.3622 C40.9437,57.3622 41.5677,58.6472 41.5677,59.7622 C41.5677,60.6982 41.0157,61.6222 40.0797,61.8382 L40.0797,61.8622 C41.0887,62.0062 41.2677,62.7382 41.2677,63.6142 C41.2677,64.6112 41.5317,64.9832 41.5317,65.3902 C41.5317,65.8462 41.0637,66.1582 40.6077,66.1582 C39.5277,66.1582 39.4437,65.1142 39.4437,64.7662 C39.4437,63.2542 39.1687,62.6432 38.0887,62.6432 L36.1437,62.6432 L36.1437,65.1742 C36.1437,65.7622 35.7607,66.1582 35.1597,66.1582 C34.5597,66.1582 34.1767,65.7622 34.1767,65.1742 Z M26.0047,64.8512 L26.0047,58.5142 C26.0047,57.6382 26.4607,57.3622 27.1557,57.3622 L31.7757,57.3622 C32.3517,57.3622 32.7717,57.5302 32.7717,58.1542 C32.7717,58.7782 32.3517,58.9462 31.7757,58.9462 L27.9717,58.9462 L27.9717,60.8192 L31.3077,60.8192 C31.8237,60.8192 32.2317,60.9622 32.2317,61.5742 C32.2317,62.1872 31.8237,62.3302 31.3077,62.3302 L27.9717,62.3302 L27.9717,64.4182 L31.8717,64.4182 C32.4477,64.4182 32.8677,64.5862 32.8677,65.2102 C32.8677,65.8342 32.4477,66.0022 31.8717,66.0022 L27.1557,66.0022 C26.4607,66.0022 26.0047,65.7272 26.0047,64.8512 Z M24.8157,58.6582 L22.3197,65.4742 C22.1157,66.0382 21.7317,66.1582 21.1197,66.1582 C20.5087,66.1582 20.1237,66.0382 19.9207,65.4742 L17.4957,58.6582 C17.4117,58.4302 17.3767,58.2382 17.3767,58.0822 C17.3767,57.4222 17.8807,57.2062 18.3717,57.2062 C18.8997,57.2062 19.1877,57.4832 19.3677,58.0702 L21.1437,63.9502 L21.1687,63.9502 L23.0157,58.0702 C23.1957,57.4832 23.4837,57.2062 23.9397,57.2062 C24.4317,57.2062 24.9357,57.4222 24.9357,58.0822 C24.9357,58.2382 24.8997,58.4302 24.8157,58.6582 Z M10.1877,61.5742 C10.1877,63.2312 10.7397,64.6222 12.5887,64.6222 C14.3767,64.6222 14.9877,63.2312 14.9877,61.5742 C14.9877,59.9182 14.1957,58.7422 12.5887,58.7422 C10.9797,58.7422 10.1877,59.9182 10.1877,61.5742 Z M8.2207,61.5742 C8.2207,59.0422 9.7567,57.1582 12.5887,57.1582 C15.4207,57.1582 16.9557,59.0422 16.9557,61.5742 C16.9557,64.0102 15.5397,66.2062 12.5887,66.2062 C9.4917,66.2062 8.2207,64.1912 8.2207,61.5742 Z M3.2637,60.6262 L4.9077,60.9982 C6.7087,61.4062 7.1637,62.4742 7.1637,63.4832 C7.1637,65.0422 5.9877,66.2062 3.6117,66.2062 C1.1157,66.2062 0.0007,64.9582 0.0007,64.0232 C0.0007,63.5422 0.3477,63.2062 0.8277,63.2062 C1.8957,63.2062 1.6197,64.7662 3.6117,64.7662 C4.6327,64.7662 5.1957,64.2022 5.1957,63.6262 C5.1957,63.2782 5.0277,62.8952 4.3557,62.7272 L2.1367,62.1622 C0.3477,61.7062 0.0237,60.7222 0.0237,59.7982 C0.0237,57.8782 1.8007,57.1582 3.4687,57.1582 C5.0047,57.1582 6.8157,58.0232 6.8157,59.1742 C6.8157,59.6662 6.3957,59.9542 5.9167,59.9542 C5.0047,59.9542 5.1727,58.6702 3.3367,58.6702 C2.4247,58.6702 1.9207,59.0902 1.9207,59.6912 C1.9207,60.2902 2.6397,60.4832 3.2637,60.6262 Z" id="Fill-12"></path>
        </g>
    </g>
</svg>