<?xml version="1.0" encoding="UTF-8"?>
<svg width="96px" height="96px" viewBox="0 0 96 96" version="1.1" xmlns="http://www.w3.org/2000/svg" xmlns:xlink="http://www.w3.org/1999/xlink">
    <!-- Generator: Sketch 49.3 (51167) - http://www.bohemiancoding.com/sketch -->
    <title>speed to answer</title>
    <desc>Created with Sketch.</desc>
    <defs></defs>
    <g id="speed-to-answer" stroke="none" stroke-width="1" fill="none" fill-rule="evenodd">
        <g transform="translate(1.000000, 3.000000)" fill="#0B82C5">
            <path d="M91.9697,35.6533 C89.2017,28.8013 85.1677,23.2773 80.0777,19.1823 L81.7007,16.8993 L84.4207,18.8783 C84.9977,19.2983 85.6657,19.5003 86.3287,19.5003 C87.3337,19.5003 88.3237,19.0363 88.9597,18.1613 C90.0167,16.7103 89.6957,14.6773 88.2427,13.6223 L77.2427,5.6223 C75.7907,4.5653 73.7597,4.8863 72.7037,6.3393 C71.6477,7.7903 71.9687,9.8223 73.4207,10.8783 L76.4427,13.0753 L74.6627,15.5803 C69.4157,12.7443 63.3367,11.1463 56.5817,10.8563 L56.5817,7.5003 L63.3317,7.5003 C65.1267,7.5003 66.5817,6.0453 66.5817,4.2503 C66.5817,2.4553 65.1267,1.0003 63.3317,1.0003 L42.3317,1.0003 C40.5367,1.0003 39.0817,2.4553 39.0817,4.2503 C39.0817,6.0453 40.5367,7.5003 42.3317,7.5003 L50.0817,7.5003 L50.0817,10.7863 L15.7877,10.7863 C13.8557,10.7863 12.2877,12.3533 12.2877,14.2863 C12.2877,16.2183 13.8557,17.7863 15.7877,17.7863 L54.3487,17.7863 C69.2987,17.7863 80.0637,24.8713 85.4797,38.2763 C92.2337,54.9933 83.9797,74.1493 67.0787,80.9773 C51.1927,87.3953 32.8147,80.5613 25.2477,65.4143 C24.6567,64.2273 23.4437,63.4773 22.1167,63.4773 L3.4997,63.4773 C1.5677,63.4773 -0.0003,65.0453 -0.0003,66.9773 C-0.0003,68.9103 1.5677,70.4773 3.4997,70.4773 L20.0227,70.4773 C27.1997,83.0253 40.6947,90.3793 54.7267,90.3793 C59.7377,90.3793 64.8167,89.4413 69.7017,87.4673 C90.1807,79.1933 100.1697,55.9503 91.9697,35.6533" id="Fill-1"></path>
            <path d="M11.332,30.75 L32.332,30.75 C34.265,30.75 35.832,29.183 35.832,27.25 C35.832,25.317 34.265,23.75 32.332,23.75 L11.332,23.75 C9.399,23.75 7.832,25.317 7.832,27.25 C7.832,29.183 9.399,30.75 11.332,30.75" id="Fill-4"></path>
            <path d="M8.332,44.75 L26.332,44.75 C28.265,44.75 29.832,43.183 29.832,41.25 C29.832,39.317 28.265,37.75 26.332,37.75 L8.332,37.75 C6.399,37.75 4.832,39.317 4.832,41.25 C4.832,43.183 6.399,44.75 8.332,44.75" id="Fill-6"></path>
            <path d="M5.332,56.75 L21.332,56.75 C23.265,56.75 24.832,55.183 24.832,53.25 C24.832,51.317 23.265,49.75 21.332,49.75 L5.332,49.75 C3.399,49.75 1.832,51.317 1.832,53.25 C1.832,55.183 3.399,56.75 5.332,56.75" id="Fill-8"></path>
            <path d="M37.332,56.75 L55.332,56.75 C57.265,56.75 58.832,55.183 58.832,53.25 L58.832,35.25 C58.832,33.317 57.265,31.75 55.332,31.75 C53.399,31.75 51.832,33.317 51.832,35.25 L51.832,49.75 L37.332,49.75 C35.399,49.75 33.832,51.317 33.832,53.25 C33.832,55.183 35.399,56.75 37.332,56.75" id="Fill-10"></path>
        </g>
    </g>
</svg>