<?xml version="1.0" encoding="UTF-8"?>
<svg width="96px" height="96px" viewBox="0 0 96 96" version="1.1" xmlns="http://www.w3.org/2000/svg" xmlns:xlink="http://www.w3.org/1999/xlink">
    <!-- Generator: Sketch 49.3 (51167) - http://www.bohemiancoding.com/sketch -->
    <title>transfer</title>
    <desc>Created with Sketch.</desc>
    <defs></defs>
    <g id="transfer" stroke="none" stroke-width="1" fill="none" fill-rule="evenodd">
        <g transform="translate(0.000000, 2.000000)" fill="#0B82C5" id="Page-1">
            <g>
                <path d="M88.5773196,63.1999 L40.9731959,63.1999 C38.9938144,63.1999 37.014433,64.0999 35.628866,65.4999 L35.1736082,65.9999 L23.4556701,78.7999 L23.4556701,70.6999 C23.4556701,68.9199 22.8024742,67.2699 21.7336082,65.9999 C20.4074227,64.4199 18.4280412,63.3999 16.2309278,63.3999 L6.72989691,63.3999 L6.72989691,7.6999 L88.5773196,7.6999 L88.5773196,63.1999 Z M89.5670103,0.9999 L5.44329897,0.9999 C3.61237113,0.9999 1.97938144,1.9099 0.989690722,3.3299 C0.366185567,4.2199 0,5.3099 0,6.4999 L0,64.5999 C0,65.7699 0.366185567,66.8599 0.989690722,67.7599 C1.95958763,69.1699 3.57278351,70.0999 5.44329897,70.0999 L16.1319588,70.0999 C16.5278351,69.9999 16.8247423,70.2999 16.8247423,70.6999 L16.8247423,88.7999 C16.8247423,89.5999 17.1216495,90.2999 17.7154639,90.7999 C18.8041237,91.7999 20.4865979,91.7999 21.5752577,90.6999 L40.4783505,69.9999 C40.5773196,69.8999 40.7752577,69.7999 40.9731959,69.7999 L89.6659794,69.7999 C92.6350515,69.7999 95.1092784,67.3999 95.1092784,64.2999 L95.1092784,6.4999 C95.0103093,3.3999 92.6350515,0.9999 89.5670103,0.9999 Z" id="Fill-1"></path>
                <path d="M81.1546392,29.3999 C81.1546392,30.1999 80.7587629,30.9999 80.1649485,31.5999 L64.3298969,46.1999 C63.7360825,46.6999 63.043299,46.9999 62.3505155,46.9999 C61.9546392,46.9999 61.5587629,46.8999 61.1628866,46.6999 C60.0742268,46.2999 59.3814433,45.1999 59.3814433,43.9999 L59.3814433,38.6999 L32.6597938,38.6999 C31.8680412,38.6999 31.0762887,38.3999 30.5814433,37.7999 C30.0865979,37.1999 29.6907216,36.4999 29.6907216,35.6999 L29.6907216,34.9999 L21.1793814,43.2999 L29.6907216,51.1999 C29.6907216,49.5999 30.9773196,48.1999 32.6597938,48.1999 L55.3237113,48.1999 C57.0061856,48.1999 58.2927835,49.4999 58.2927835,51.1999 C58.2927835,52.8999 57.0061856,54.1999 55.3237113,54.1999 L35.628866,54.1999 L35.628866,57.9999 C35.628866,59.1999 34.9360825,60.2999 33.8474227,60.7999 C33.4515464,60.8999 33.0556701,60.9999 32.6597938,60.9999 C31.9670103,60.9999 31.1752577,60.6999 30.6804124,60.1999 L14.8453608,45.5999 C14.2515464,44.9999 13.8556701,44.2999 13.8556701,43.3999 C13.8556701,42.5999 14.1525773,41.7999 14.7463918,41.1999 L30.5814433,25.7999 C31.4721649,24.9999 32.7587629,24.6999 33.8474227,25.1999 C34.9360825,25.6999 35.628866,26.7999 35.628866,27.9999 L35.628866,32.6999 L62.3505155,32.6999 C63.142268,32.6999 63.9340206,32.9999 64.428866,33.5999 C64.9237113,34.0999 65.3195876,34.8999 65.3195876,35.6999 C65.3195876,35.9999 65.3195876,36.1999 65.2206186,36.4999 C65.3195876,36.6999 65.3195876,36.9999 65.3195876,37.1999 L73.8309278,29.2999 L65.3195876,20.9999 L65.3195876,21.6999 C65.3195876,23.3999 64.0329897,24.6999 62.3505155,24.6999 L39.5876289,24.6999 C38.7958763,24.6999 38.0041237,24.3999 37.5092784,23.7999 C36.9154639,23.2999 36.6185567,22.5999 36.6185567,21.6999 C36.6185567,19.9999 37.9051546,18.6999 39.5876289,18.6999 L59.3814433,18.6999 L59.3814433,13.9999 C59.3814433,12.7999 60.0742268,11.6999 61.1628866,11.1999 C62.2515464,10.6999 63.5381443,10.9999 64.428866,11.7999 L80.2639175,27.1999 C80.857732,27.7999 81.1546392,28.5999 81.1546392,29.3999" id="Fill-4"></path>
            </g>
        </g>
    </g>
</svg>