<?xml version="1.0" encoding="UTF-8"?>
<svg width="96px" height="96px" viewBox="0 0 96 96" version="1.1" xmlns="http://www.w3.org/2000/svg" xmlns:xlink="http://www.w3.org/1999/xlink">
    <!-- Generator: Sketch 49.3 (51167) - http://www.bohemiancoding.com/sketch -->
    <title>Artboard</title>
    <desc>Created with Sketch.</desc>
    <defs></defs>
    <g id="Artboard" stroke="none" stroke-width="1" fill="none" fill-rule="evenodd">
        <g id="Trouble-ticket" transform="translate(0.500000, 0.500000)" fill-rule="nonzero">
            <g id="Line" fill="#0B82C5">
                <path d="M37.4103093,22.4659794 L26.8206186,22.4659794 C24.742268,22.4659794 23.0597938,24.1484536 23.0597938,26.2268041 C23.0597938,28.3051546 24.742268,29.9876289 26.8206186,29.9876289 L37.5092784,29.9876289 C39.5876289,29.9876289 41.2701031,28.3051546 41.2701031,26.2268041 C41.2701031,24.1484536 39.4886598,22.4659794 37.4103093,22.4659794 Z" id="Shape"></path>
                <path d="M91.7443299,61.1628866 C91.1505155,60.2721649 90.556701,59.3814433 89.8639175,58.5896907 C89.6659794,58.2927835 89.3690722,57.9958763 89.171134,57.7979381 C88.9731959,57.5010309 88.6762887,57.3030928 88.3793814,57.0061856 C88.1814433,56.8082474 87.8845361,56.5113402 87.5876289,56.3134021 C87.5876289,56.3134021 87.5876289,56.3134021 87.5876289,56.3134021 C86.4989691,55.3237113 85.4103093,54.5319588 84.1237113,53.7402062 C80.7587629,51.6618557 76.8,50.4742268 72.5443299,50.4742268 C69.5752577,50.4742268 66.7051546,51.0680412 64.1319588,52.156701 L64.1319588,4.2556701 C64.3298969,1.88041237 62.4494845,0 60.0742268,0 L48,0 C46.2185567,0 44.7340206,0.989690722 44.0412371,2.67216495 C42.0618557,7.42268041 38.1030928,9.79793814 32.0659794,9.79793814 C26.9195876,9.79793814 23.356701,7.32371134 21.2783505,2.57319588 C20.7835052,0.989690722 19.2,0 17.5175258,0 L4.2556701,0 C1.88041237,0 0,1.88041237 0,4.2556701 L0,78.8783505 C0,81.2536082 1.88041237,83.1340206 4.2556701,83.1340206 L17.6164948,83.1340206 C19.2989691,83.1340206 20.7835052,82.1443299 21.4762887,80.6597938 C23.6536082,75.8103093 27.3154639,73.3360825 32.1649485,73.3360825 C38.1030928,73.3360825 42.1608247,75.7113402 44.1402062,80.5608247 C44.8329897,82.1443299 46.3175258,83.2329897 48.0989691,83.2329897 L53.1463918,83.2329897 C53.3443299,83.628866 53.542268,84.0247423 53.8391753,84.4206186 C54.4329897,85.3113402 55.0268041,86.2020619 55.7195876,86.9938144 C55.9175258,87.2907216 56.214433,87.5876289 56.4123711,87.785567 C56.5113402,87.8845361 56.6103093,88.0824742 56.8082474,88.1814433 C56.9072165,88.2804124 57.0061856,88.4783505 57.2041237,88.5773196 C57.4020619,88.7752577 57.6989691,89.0721649 57.9958763,89.2701031 C57.9958763,89.2701031 57.9958763,89.2701031 57.9958763,89.2701031 C59.0845361,90.2597938 60.1731959,91.0515464 61.4597938,91.843299 C64.8247423,93.9216495 68.7835052,95.1092784 73.0391753,95.1092784 C77.2948454,95.1092784 81.2536082,93.9216495 84.6185567,91.843299 C85.8061856,91.0515464 86.9938144,90.2597938 88.0824742,89.2701031 C88.0824742,89.2701031 88.0824742,89.2701031 88.0824742,89.2701031 C88.3793814,89.0721649 88.5773196,88.7752577 88.8742268,88.5773196 C88.9731959,88.4783505 89.171134,88.2804124 89.2701031,88.1814433 C89.3690722,88.0824742 89.4680412,87.8845361 89.6659794,87.785567 C89.8639175,87.4886598 90.1608247,87.2907216 90.3587629,86.9938144 C91.0515464,86.2020619 91.6453608,85.3113402 92.2391753,84.4206186 C94.3175258,81.0556701 95.5051546,77.0969072 95.5051546,72.8412371 C95.5051546,68.585567 93.8226804,64.5278351 91.7443299,61.1628866 Z M56.214433,57.7979381 C56.0164948,58.0948454 55.7195876,58.2927835 55.5216495,58.5896907 C54.828866,59.3814433 54.2350515,60.2721649 53.6412371,61.1628866 C51.5628866,64.5278351 50.3752577,68.4865979 50.3752577,72.742268 C50.3752577,73.7319588 50.4742268,74.7216495 50.5731959,75.7113402 L49.9793814,75.7113402 C46.614433,69.3773196 40.2804124,65.9134021 32.0659794,65.9134021 C24.9402062,65.9134021 19.1010309,69.3773196 15.5381443,75.7113402 L7.42268041,75.7113402 L7.42268041,29.9876289 L16.1319588,29.9876289 C18.2103093,29.9876289 19.8927835,28.3051546 19.8927835,26.2268041 C19.8927835,24.1484536 18.2103093,22.4659794 16.1319588,22.4659794 L7.42268041,22.4659794 L7.42268041,7.42268041 L15.4391753,7.42268041 C18.9030928,13.756701 24.742268,17.2206186 32.0659794,17.2206186 C40.2804124,17.2206186 46.614433,13.756701 49.9793814,7.42268041 L56.8082474,7.42268041 L56.8082474,22.4659794 L48.0989691,22.4659794 C46.0206186,22.4659794 44.3381443,24.1484536 44.3381443,26.2268041 C44.3381443,28.3051546 46.0206186,29.9876289 48.0989691,29.9876289 L56.8082474,29.9876289 L56.8082474,57.2041237 C56.6103093,57.4020619 56.5113402,57.6 56.214433,57.7979381 Z M72.742268,88.0824742 C68.1896907,88.0824742 64.1319588,86.1030928 61.2618557,82.9360825 C58.7876289,80.2639175 57.4020619,76.6020619 57.4020619,72.742268 C57.4020619,67.3979381 60.1731959,62.6474227 64.3298969,59.8762887 C66.7051546,58.2927835 69.6742268,57.4020619 72.742268,57.4020619 C81.1546392,57.4020619 88.0824742,64.3298969 88.0824742,72.742268 C88.0824742,81.1546392 81.1546392,88.0824742 72.742268,88.0824742 Z" id="Shape"></path>
            </g>
            <g id="Rectangle" transform="translate(12.865979, 36.618557)" fill="#0B82C5">
                <path d="M30.5814433,0 L8.01649485,0 C3.5628866,0 1.77635684e-15,3.5628866 1.77635684e-15,8.01649485 L1.77635684e-15,16.7257732 C1.77635684e-15,21.1793814 3.5628866,24.742268 8.01649485,24.742268 L30.5814433,24.742268 C35.0350515,24.742268 38.5979381,21.1793814 38.5979381,16.7257732 L38.5979381,8.01649485 C38.5979381,3.5628866 35.0350515,0 30.5814433,0 Z M31.1752577,16.7257732 C31.1752577,17.0226804 30.9773196,17.2206186 30.6804124,17.2206186 L8.01649485,17.2206186 C7.71958763,17.2206186 7.52164948,17.0226804 7.52164948,16.7257732 L7.52164948,8.01649485 C7.52164948,7.71958763 7.71958763,7.52164948 8.01649485,7.52164948 L30.5814433,7.52164948 C30.8783505,7.52164948 31.0762887,7.71958763 31.0762887,8.01649485 L31.0762887,16.7257732 L31.1752577,16.7257732 Z" id="Shape"></path>
            </g>
            <g id="Combined-Shape-Copy-2" transform="translate(53.443299, 53.443299)" fill="#FFFFFF">
                <g id="Group">
                    <path d="M22.7628866,29.1958763 C22.7628866,30.185567 22.3670103,30.9773196 21.7731959,31.6701031 C21.1793814,32.2639175 20.2886598,32.6597938 19.2989691,32.6597938 C18.3092784,32.6597938 17.5175258,32.2639175 16.8247423,31.6701031 C16.2309278,31.0762887 15.8350515,30.185567 15.8350515,29.1958763 C15.8350515,28.2061856 16.2309278,27.414433 16.8247423,26.7216495 C17.4185567,26.1278351 18.3092784,25.7319588 19.2989691,25.7319588 C21.1793814,25.7319588 22.7628866,27.3154639 22.7628866,29.1958763 Z" id="Shape"></path>
                    <path d="M23.7525773,10.8865979 L23.7525773,19.7938144 C23.7525773,21.971134 21.971134,23.7525773 19.7938144,23.7525773 C17.6164948,23.7525773 15.8350515,21.971134 15.8350515,19.7938144 L15.8350515,10.8865979 C15.8350515,8.70927835 17.6164948,6.92783505 19.7938144,6.92783505 C21.971134,6.92783505 23.7525773,8.70927835 23.7525773,10.8865979 Z" id="Shape"></path>
                    <path d="M36.5195876,5.14639175 C37.2123711,5.93814433 37.8061856,6.82886598 38.4,7.71958763 C37.8061856,6.82886598 37.1134021,5.93814433 36.5195876,5.14639175 Z M36.5195876,33.4515464 C37.2123711,32.6597938 37.8061856,31.7690722 38.4,30.8783505 C37.8061856,31.7690722 37.1134021,32.6597938 36.5195876,33.4515464 Z M35.0350515,35.0350515 C35.1340206,34.9360825 35.3319588,34.7381443 35.4309278,34.6391753 C35.3319588,34.8371134 35.1340206,34.9360825 35.0350515,35.0350515 Z M30.8783505,0.296907216 C32.0659794,1.08865979 33.2536082,1.88041237 34.342268,2.87010309 C33.2536082,1.88041237 32.0659794,0.989690722 30.8783505,0.296907216 Z M30.8783505,38.3010309 C32.0659794,37.5092784 33.2536082,36.7175258 34.342268,35.7278351 C33.2536082,36.7175258 32.0659794,37.6082474 30.8783505,38.3010309 Z M4.35463918,35.8268041 C5.44329897,36.8164948 6.53195876,37.6082474 7.8185567,38.4 C6.53195876,37.6082474 5.3443299,36.7175258 4.35463918,35.8268041 Z M2.77113402,4.35463918 C2.96907216,4.15670103 3.16701031,3.95876289 3.36494845,3.76082474 C3.16701031,3.85979381 2.96907216,4.15670103 2.77113402,4.35463918 Z M3.16701031,34.6391753 C3.26597938,34.7381443 3.36494845,34.9360825 3.5628866,35.0350515 C3.46391753,34.9360825 3.26597938,34.8371134 3.16701031,34.6391753 Z M0.296907216,7.71958763 C0.890721649,6.82886598 1.48453608,5.93814433 2.17731959,5.14639175 C1.48453608,5.93814433 0.791752577,6.82886598 0.296907216,7.71958763 Z M0.296907216,30.8783505 C0.890721649,31.7690722 1.48453608,32.6597938 2.17731959,33.4515464 C1.48453608,32.6597938 0.791752577,31.7690722 0.296907216,30.8783505 Z" id="Shape"></path>
                </g>
            </g>
            <path d="M76.2061856,82.6391753 C76.2061856,83.628866 75.8103093,84.4206186 75.2164948,85.1134021 C74.6226804,85.7072165 73.7319588,86.1030928 72.742268,86.1030928 C71.7525773,86.1030928 70.9608247,85.7072165 70.2680412,85.1134021 C69.6742268,84.5195876 69.2783505,83.628866 69.2783505,82.6391753 C69.2783505,81.6494845 69.6742268,80.857732 70.2680412,80.1649485 C70.8618557,79.571134 71.7525773,79.1752577 72.742268,79.1752577 C74.6226804,79.1752577 76.2061856,80.7587629 76.2061856,82.6391753 Z" id="Shape" fill="#0B82C5"></path>
            <g id="Rectangle-Copy-2" transform="translate(69.278351, 60.371134)" fill="#0B82C5">
                <path d="M7.91752577,3.95876289 L7.91752577,12.8659794 C7.91752577,15.043299 6.13608247,16.8247423 3.95876289,16.8247423 C1.7814433,16.8247423 0,15.043299 0,12.8659794 L0,3.95876289 C0,1.7814433 1.7814433,0 3.95876289,0 C6.13608247,0 7.91752577,1.7814433 7.91752577,3.95876289 Z" id="Shape"></path>
            </g>
        </g>
    </g>
</svg>