<?xml version="1.0" encoding="UTF-8"?>
<svg width="96px" height="96px" viewBox="0 0 96 96" version="1.1" xmlns="http://www.w3.org/2000/svg" xmlns:xlink="http://www.w3.org/1999/xlink">
    <!-- Generator: Sketch 49.3 (51167) - http://www.bohemiancoding.com/sketch -->
    <title>trust by design</title>
    <desc>Created with Sketch.</desc>
    <defs></defs>
    <g id="trust-by-design" stroke="none" stroke-width="1" fill="none" fill-rule="evenodd">
        <g transform="translate(-19.000000, 1.000000)" fill="#0B82C5">
            <path d="M122.895378,44.4295075 C124.750116,43.2541981 126.952814,42.8773216 129.088848,43.3699606 C131.245721,43.8679738 133.075214,45.1879218 134.237651,47.0844191 C136.584832,50.9140836 135.44114,55.9721289 131.69513,58.387817 L104.319107,77.5420178 C103.86146,77.8621812 103.323786,78.0503262 102.764236,78.0865614 C102.561942,78.0994285 102.365956,78.1027457 102.151378,78.0992031 L84.8540782,78.3505838 C84.434403,78.401747 83.6290538,78.5817135 82.6642735,78.8888463 C81.1831819,79.3603443 79.5758592,80.0478131 77.8921826,80.9869807 C77.1885271,81.3794851 76.7540837,81.5994846 75.9192283,81.9932289 C72.4629451,82.0350825 71.5219284,77.75966 74.3274802,76.0707239 L74.7909734,75.7916304 C77.0925502,74.428846 79.3597188,73.4908398 81.5046609,72.9028511 C82.8560794,72.5323894 83.9368599,72.3576829 84.607376,72.3151219 L101.58792,72.0654972 C120.633312,58.7412503 128.325895,53.3602071 128.357764,53.3402634 C129.387032,52.6884851 129.699224,51.2904404 129.047155,50.2272109 C128.619442,49.5293524 127.88079,49.1459533 127.056473,49.2066739 C126.753514,49.2290179 126.440975,49.3465293 126.117975,49.551629 C124.910611,50.3160482 121.747846,52.270683 116.601,55.438658 C115.070294,56.3808244 110.38408,59.2634287 110.116776,59.4279081 C108.0098,60.7243888 106.930584,61.3900317 106.616148,61.5878551 L86.967845,61.6551304 C85.0711175,61.6551304 84.113471,59.2000427 85.0318477,57.3609898 C85.5371399,56.349058 86.6331862,55.7292904 87.8164253,55.7292904 L96.5266338,55.7292904 C97.7207966,55.7292904 98.6997145,54.7110489 98.6997145,53.4513711 C98.6997145,52.1925102 97.7208793,51.1749276 96.5266338,51.1749276 C85.2756598,51.1749276 78.9901218,51.1989583 77.7980396,51.245325 L69.3304979,59.9712167 C67.1484282,62.219786 63.5807459,61.1684145 63.5807459,58.0935391 C63.5807459,57.4914637 63.7362497,57.0100264 64.0654407,56.6708093 C64.2648749,56.4653008 64.3262722,56.4021882 64.3936542,56.3332298 C67.3862894,53.2573261 67.3862894,53.2573261 73.5050104,46.9682219 C73.5891656,46.8762261 73.6786378,46.7852216 73.7785686,46.6893947 C74.8351549,45.6865904 76.2157951,45.1339854 77.6646704,45.1339854 L96.5266338,45.1339854 C101.076955,45.1339854 104.77727,48.8659093 104.77727,53.4513711 C104.77727,54.3985753 104.619207,55.3236173 104.316089,56.1960102 L122.895378,44.4295075 Z" id="Fill-1-path" fill-rule="nonzero" transform="translate(99.519087, 62.576258) rotate(-55.000000) translate(-99.519087, -62.576258) "></path>
            <path d="M59.8953782,44.4295076 C61.7501159,43.2541982 63.9528141,42.8773217 66.0888476,43.3699607 C68.2457208,43.8679739 70.0752134,45.1879219 71.2376506,47.0844192 C73.5848317,50.9140837 72.4411396,55.972129 68.69513,58.3878171 L41.3191067,77.5420179 C40.8614597,77.8621813 40.3237859,78.0503263 39.7642353,78.0865615 C39.5619423,78.0994286 39.3659554,78.1027458 39.1513774,78.0992032 L21.8540784,78.3505839 C21.4344032,78.4017471 20.629054,78.5817136 19.6642737,78.8888464 C18.1831821,79.3603444 16.5758594,80.0478132 14.8921828,80.9869808 C14.1885273,81.3794852 13.7540839,81.5994847 12.9192285,81.993229 C9.4629453,82.0350826 8.52192863,77.7596601 11.3274804,76.070724 L11.7909736,75.7916305 C14.0925504,74.4288461 16.359719,73.4908399 18.5046611,72.9028512 C19.8560796,72.5323895 20.9368601,72.357683 21.6073762,72.315122 L38.58792,72.0654973 C57.6333121,58.7412504 65.3258943,53.3602072 65.3577641,53.3402635 C66.3870319,52.6884852 66.6992242,51.2904405 66.0471548,50.227211 C65.6194414,49.5293525 64.8807902,49.1459534 64.056473,49.206674 C63.7535138,49.229018 63.4409747,49.3465294 63.1179743,49.5516291 C61.9106112,50.3160483 58.7478455,52.2706831 53.6009996,55.4386581 C52.0702938,56.3808245 47.3840796,59.2634288 47.1167757,59.4279082 C45.0097997,60.7243889 43.9305839,61.3900318 43.6161475,61.5878552 L23.9678452,61.6551305 C22.0711177,61.6551305 21.1134712,59.2000428 22.0318479,57.3609899 C22.5371401,56.3490581 23.6331864,55.7292905 24.8164255,55.7292905 L33.526634,55.7292905 C34.7207968,55.7292905 35.6997147,54.711049 35.6997147,53.4513712 C35.6997147,52.1925103 34.7208795,51.1749277 33.526634,51.1749277 C22.27566,51.1749277 15.990122,51.1989584 14.7980398,51.2453251 L6.3304981,59.9712168 C4.14842842,62.2197861 0.58074607,61.1684146 0.58074607,58.0935392 C0.58074607,57.4914638 0.736249852,57.0100265 1.06544086,56.6708094 C1.26487514,56.4653009 1.32627238,56.4021883 1.39365438,56.3332299 C4.38628961,53.2573262 4.38628961,53.2573262 10.5050106,46.968222 C10.5891658,46.8762262 10.678638,46.7852217 10.7785688,46.6893948 C11.8351551,45.6865905 13.2157953,45.1339855 14.6646706,45.1339855 L33.526634,45.1339855 C38.076955,45.1339855 41.77727,48.8659094 41.77727,53.4513712 C41.77727,54.3985754 41.6192066,55.3236174 41.3160892,56.1960103 L59.8953782,44.4295076 Z" id="Fill-1-path-Copy" fill-rule="nonzero" transform="translate(36.519087, 62.576258) scale(-1, 1) rotate(-55.000000) translate(-36.519087, -62.576258) "></path>
            <path d="M68,7 C57.5065898,7 49,15.5065898 49,26 C49,36.4934102 57.5065898,45 68,45 C78.4934102,45 87,36.4934102 87,26 C87,15.5065898 78.4934102,7 68,7 Z M68,0 C82.3594035,-2.66453526e-15 94,11.6405965 94,26 C94,40.3594035 82.3594035,52 68,52 C53.6405965,52 42,40.3594035 42,26 C42,11.6405965 53.6405965,2.66453526e-15 68,0 Z" id="Combined-Shape" fill-rule="nonzero"></path>
            <circle id="Oval" cx="68" cy="14" r="4"></circle>
            <path d="M68,21 C70.209139,21 72,22.790861 72,25 L72,38 C72,40.209139 70.209139,42 68,42 C65.790861,42 64,40.209139 64,38 L64,25 C64,22.790861 65.790861,21 68,21 Z" id="Rectangle" fill-rule="nonzero"></path>
        </g>
    </g>
</svg>