<?xml version="1.0" encoding="UTF-8"?>
<svg width="96px" height="96px" viewBox="0 0 96 96" version="1.1" xmlns="http://www.w3.org/2000/svg" xmlns:xlink="http://www.w3.org/1999/xlink">
    <!-- Generator: Sketch 49.3 (51167) - http://www.bohemiancoding.com/sketch -->
    <title>trust by design_1</title>
    <desc>Created with Sketch.</desc>
    <defs></defs>
    <g id="trust-by-design_1" stroke="none" stroke-width="1" fill="none" fill-rule="evenodd">
        <g transform="translate(17.000000, 8.000000)" fill="#FFFFFF" fill-rule="nonzero">
            <path d="M50.4,13.8 C49.2,13.7 48.1,14.1 47.2,14.9 C46.3,15.7 45.8,16.8 45.8,17.9 L45.3,29 C45,28.7 44.8,28.4 44.4,28.2 C43.4,27.5 42.3,27.3 41.1,27.5 C39.9,27.7 38.9,28.3 38.2,29.3 L32.6,37.3 C32.2,37.9 32,38.7 32.1,39.5 C32.1,39.6 32.1,39.6 32.1,39.7 L33.4,46.6 C33.5,46.9 33.6,47.1 33.9,47.3 C34.5,47.7 35.2,47.8 35.8,47.4 C36.5,47 36.8,46.2 36.6,45.3 L35.4,39.1 C35.7,38.6 37,36.8 40.9,31.1 C41.2,30.6 41.9,30.5 42.4,30.9 C42.9,31.2 43,31.9 42.7,32.3 L40.1,36 C39.7,36.5 39.7,37.2 40,37.8 C40.3,38.3 40.9,38.7 41.5,38.8 C42,38.8 42.4,38.6 42.6,38.3 L48.4,30 C48.4,29.9 48.5,29.9 48.5,29.8 C48.5,29.5 48.6,28.1 48.7,26.3 C48.9,23.2 49.1,19.1 49.2,17.9 C49.2,17.7 49.2,17.6 49.3,17.4 C49.5,17.1 49.8,16.9 50.2,16.9 C50.8,16.9 51.2,17.4 51.2,18 L51.2,35 L46.2,42.3 C46.1,42.5 45,44.4 44.7,47.6 L44.7,47.9 C44.6,48.8 45.1,49.5 45.9,49.8 C46.1,49.9 46.3,49.9 46.5,49.9 C47,49.9 47.5,49.6 47.9,49.2 C47.9,49.2 47.9,49.1 48,49.1 C48.1,48.7 48.1,48.4 48.2,47.9 C48.4,45.5 49.1,44.2 49.1,44.2 C49.1,44.2 49.1,44.2 49.1,44.2 L54.2,36.7 C54.3,36.6 54.3,36.5 54.4,36.4 C54.6,36.1 54.6,35.8 54.6,35.5 L54.6,18.1 C54.7,16 52.8,13.9 50.4,13.8 Z" id="Shape"></path>
            <path d="M14.7,42.5 L9.8,35.2 L9.8,26.7 C9.8,18.2 9.8,18.2 9.8,18.2 C9.8,17.6 10.2,17.1 10.8,17.1 C11.2,17.1 11.5,17.3 11.7,17.6 C11.8,17.7 11.8,17.9 11.8,18.1 C11.9,19.2 12.1,23.2 12.3,26.2 C12.4,28.1 12.5,29.7 12.5,30 C12.5,30.1 12.5,30.1 12.6,30.2 L18.4,38.5 C18.6,38.8 19,39 19.5,39 C20.1,39 20.7,38.6 21,38 C21.3,37.5 21.2,36.8 20.9,36.2 L18.3,32.5 C18.1,32.3 18.1,32 18.1,31.7 C18.2,31.4 18.3,31.2 18.6,31 C18.8,30.8 19.1,30.8 19.4,30.8 C19.7,30.8 19.9,31 20.1,31.2 C24.1,36.9 25.3,38.7 25.6,39.2 L24.4,45.4 C24.2,46.2 24.6,47.1 25.2,47.5 C25.8,47.9 26.5,47.8 27.1,47.4 C27.4,47.2 27.6,47 27.6,46.7 L28.9,39.8 C28.9,39.7 28.9,39.7 28.9,39.6 C29,38.8 28.8,38 28.4,37.4 L22.8,29.4 C21.4,27.4 18.6,26.9 16.6,28.3 C16.3,28.5 16,28.8 15.7,29.1 L15.2,18 C15.1,16.8 14.6,15.7 13.8,15 C12.9,14.2 11.8,13.8 10.6,13.9 C8.2,14 6.3,16.1 6.4,18.5 L6.4,35.9 C6.4,36.2 6.5,36.5 6.6,36.8 C6.7,36.9 6.7,37 6.8,37.1 L11.9,44.5 C11.9,44.5 12.6,45.8 12.8,48.2 C12.8,48.7 12.9,48.9 13,49.4 C13,49.4 13,49.5 13.1,49.5 C13.4,50 13.9,50.2 14.5,50.2 C14.7,50.2 14.9,50.2 15.1,50.1 C15.9,49.8 16.4,49.1 16.3,48.2 L16.3,47.9 C16,44.6 14.9,42.7 14.7,42.5 Z" id="Shape"></path>
            <path d="M30.5,27.1 C38,27.1 44,21 44,13.5 C44,6 38,0 30.5,0 C23,0 17,6.1 17,13.5 C17,20.9 23,27.1 30.5,27.1 Z M30.5,3.6 C36,3.6 40.4,8 40.4,13.5 C40.4,19 36,23.4 30.5,23.4 C25,23.4 20.6,19 20.6,13.5 C20.6,8 25,3.6 30.5,3.6 Z" id="Shape"></path>
            <circle id="Oval" cx="30.5" cy="7.3" r="2.1"></circle>
            <path d="M30.7,21.9 C32,21.9 33,20.9 33,19.6 L33,13.3 C33,12 32,11 30.7,11 C29.4,11 28.4,12 28.4,13.3 L28.4,19.6 C28.4,20.8 29.4,21.9 30.7,21.9 Z" id="Shape"></path>
            <path d="M6.8,58.4 L1.1,58.4 C0.5,58.4 0.1,58.7 0.1,59.2 C0.1,59.7 0.6,60 1.1,60 L3,60 L3,66.2 C3,66.8 3.4,67.2 4,67.2 C4.6,67.2 5,66.8 5,66.2 L5,60 L6.9,60 C7.5,60 7.9,59.7 7.9,59.2 C7.9,58.7 7.3,58.4 6.8,58.4 Z" id="Shape"></path>
            <path d="M16.2,60.8 C16.2,59.7 15.6,58.4 13.2,58.4 L10,58.4 C9.3,58.4 8.8,58.7 8.8,59.6 L8.8,66.3 C8.8,66.9 9.2,67.3 9.8,67.3 C10.4,67.3 10.8,66.9 10.8,66.3 L10.8,63.8 L12.7,63.8 C13.8,63.8 14.1,64.4 14.1,65.9 C14.1,66.2 14.2,67.3 15.3,67.3 C15.8,67.3 16.2,67 16.2,66.5 C16.2,66.1 15.9,65.7 15.9,64.7 C15.9,63.8 15.7,63.1 14.7,62.9 C15.7,62.6 16.2,61.7 16.2,60.8 Z M12.8,62.2 L10.8,62.2 L10.8,59.9 L12.8,59.9 C13.7,59.9 14.2,60.1 14.2,61.1 C14.3,62 13.5,62.2 12.8,62.2 Z" id="Shape"></path>
            <path d="M25.2,59.2 C25.2,58.6 24.8,58.2 24.2,58.2 C23.6,58.2 23.2,58.6 23.2,59.2 L23.2,63.9 C23.2,65.1 22.5,65.6 21.4,65.6 C20.3,65.6 19.6,65.1 19.6,63.9 L19.6,59.2 C19.6,58.6 19.2,58.2 18.6,58.2 C18,58.2 17.6,58.6 17.6,59.2 L17.6,63.8 C17.6,66.2 19.1,67.2 21.4,67.2 C23.7,67.2 25.2,66.1 25.2,63.8 L25.2,59.2 Z" id="Shape"></path>
            <path d="M31.6,62 L30,61.6 C29.4,61.5 28.7,61.3 28.7,60.7 C28.7,60.1 29.2,59.7 30.1,59.7 C31.9,59.7 31.8,61 32.7,61 C33.2,61 33.6,60.7 33.6,60.2 C33.6,59 31.8,58.2 30.3,58.2 C28.6,58.2 26.9,58.9 26.9,60.8 C26.9,61.7 27.2,62.7 29,63.2 L31.2,63.8 C31.9,64 32,64.4 32,64.7 C32,65.3 31.4,65.8 30.4,65.8 C28.4,65.8 28.7,64.2 27.6,64.2 C27.1,64.2 26.8,64.5 26.8,65 C26.8,65.9 27.9,67.2 30.4,67.2 C32.8,67.2 33.9,66 33.9,64.5 C33.8,63.5 33.4,62.4 31.6,62 Z" id="Shape"></path>
            <path d="M37.4,66.2 C37.4,66.8 37.8,67.2 38.4,67.2 C39,67.2 39.4,66.8 39.4,66.2 L39.4,60 L41.3,60 C41.9,60 42.3,59.7 42.3,59.2 C42.3,58.7 41.8,58.4 41.3,58.4 L35.6,58.4 C35,58.4 34.6,58.7 34.6,59.2 C34.6,59.7 35.1,60 35.6,60 L37.5,60 L37.5,66.2 L37.4,66.2 Z" id="Shape"></path>
            <path d="M53.9,60.6 C53.9,58.7 52.2,58.4 50.7,58.4 L48.1,58.4 C47.4,58.4 46.9,58.7 46.9,59.6 L46.9,65.9 C46.9,66.8 47.4,67.1 48.1,67.1 L51,67.1 C52.7,67.1 54.2,66.4 54.2,64.5 C54.2,63.3 53.6,62.7 52.7,62.4 C53.5,62 53.9,61.3 53.9,60.6 Z M48.9,59.8 L50.5,59.8 C51.2,59.8 51.9,60 51.9,60.9 C51.9,61.6 51.5,62 50.5,62 L48.9,62 L48.9,59.8 Z M50.6,65.5 L48.9,65.5 L48.9,63.2 L50.3,63.2 C51.3,63.2 52.2,63.3 52.2,64.4 C52.2,65.3 51.4,65.5 50.6,65.5 Z" id="Shape"></path>
            <path d="M61,58.2 C60.6,58.2 60.4,58.3 60.1,58.8 L58.4,62 L56.7,58.8 C56.5,58.4 56.3,58.2 55.8,58.2 C55.4,58.2 54.8,58.4 54.8,59.1 C54.8,59.3 54.9,59.5 55,59.6 L57.4,63.6 L57.4,66.1 C57.4,66.7 57.8,67.1 58.4,67.1 C59,67.1 59.4,66.7 59.4,66.1 L59.4,63.6 L61.8,59.6 C61.9,59.4 62,59.3 62,59.1 C62,58.4 61.3,58.2 61,58.2 Z" id="Shape"></path>
            <path d="M11.2,73.4 L8.8,73.4 C8.1,73.4 7.6,73.7 7.6,74.6 L7.6,80.9 C7.6,81.8 8.1,82.1 8.8,82.1 L11.2,82.1 C13.8,82.1 15.3,80.5 15.3,77.8 C15.3,74.3 13.4,73.4 11.2,73.4 Z M11.3,80.4 L9.6,80.4 L9.6,74.9 L11.2,74.9 C12.6,74.9 13.3,75.9 13.3,77.6 C13.4,79 12.9,80.4 11.3,80.4 Z" id="Shape"></path>
            <path d="M22.7,80.4 L18.8,80.4 L18.8,78.3 L22.1,78.3 C22.6,78.3 23,78.2 23,77.5 C23,76.9 22.6,76.7 22.1,76.7 L18.8,76.7 L18.8,74.8 L22.6,74.8 C23.2,74.8 23.6,74.6 23.6,74 C23.6,73.4 23.2,73.2 22.6,73.2 L18,73.2 C17.3,73.2 16.8,73.5 16.8,74.4 L16.8,80.7 C16.8,81.6 17.3,81.9 18,81.9 L22.7,81.9 C23.3,81.9 23.7,81.7 23.7,81.1 C23.7,80.6 23.3,80.4 22.7,80.4 Z" id="Shape"></path>
            <path d="M29.5,77 L27.9,76.6 C27.3,76.5 26.6,76.3 26.6,75.7 C26.6,75.1 27.1,74.7 28,74.7 C29.8,74.7 29.7,76 30.6,76 C31.1,76 31.5,75.7 31.5,75.2 C31.5,74 29.7,73.2 28.2,73.2 C26.5,73.2 24.8,73.9 24.8,75.8 C24.8,76.7 25.1,77.7 26.9,78.2 L29.1,78.8 C29.8,79 29.9,79.4 29.9,79.7 C29.9,80.3 29.3,80.8 28.3,80.8 C26.3,80.8 26.6,79.2 25.5,79.2 C25,79.2 24.7,79.5 24.7,80 C24.7,80.9 25.8,82.2 28.3,82.2 C30.7,82.2 31.8,81 31.8,79.5 C31.8,78.5 31.3,77.4 29.5,77 Z" id="Shape"></path>
            <path d="M34.2,73.2 C33.6,73.2 33.2,73.6 33.2,74.2 L33.2,81.2 C33.2,81.8 33.6,82.2 34.2,82.2 C34.8,82.2 35.2,81.8 35.2,81.2 L35.2,74.2 C35.2,73.6 34.8,73.2 34.2,73.2 Z" id="Shape"></path>
            <path d="M44.2,77.4 L41.8,77.4 C41.3,77.4 41,77.7 41,78.2 C41,78.8 41.5,79 41.9,79 L43.2,79 C43.1,80.1 42.2,80.8 41.1,80.8 C39.5,80.8 38.7,79.6 38.7,77.9 C38.7,75.7 39.8,74.8 41.1,74.8 C43,74.8 42.7,76.2 43.6,76.2 C44,76.2 44.5,76 44.5,75.3 C44.5,74.5 43.3,73.2 41.2,73.2 C38.5,73.2 36.7,74.8 36.7,77.7 C36.7,80.1 37.9,82.2 40.9,82.2 C42.1,82.2 42.9,81.7 43.5,81 C43.6,81.8 43.8,82.1 44.3,82.1 C44.7,82.1 45,81.8 45,81.4 L45,78.2 C45,77.7 44.8,77.4 44.2,77.4 Z" id="Shape"></path>
            <path d="M53.4,73.2 C52.8,73.2 52.5,73.5 52.5,74.1 L52.5,79.2 L49,73.7 C48.8,73.3 48.4,73.2 48,73.2 C47.2,73.2 46.8,73.5 46.8,74.4 L46.8,81.2 C46.8,81.8 47.2,82.1 47.7,82.1 C48.3,82.1 48.6,81.8 48.6,81.2 L48.6,76.2 L52,81.6 C52.3,82 52.5,82.1 53.1,82.1 C53.9,82.1 54.3,81.7 54.3,80.9 L54.3,74.1 C54.3,73.5 54,73.2 53.4,73.2 Z" id="Shape"></path>
        </g>
    </g>
</svg>