<?xml version="1.0" encoding="UTF-8"?>
<svg width="96px" height="96px" viewBox="0 0 96 96" version="1.1" xmlns="http://www.w3.org/2000/svg" xmlns:xlink="http://www.w3.org/1999/xlink">
    <!-- Generator: Sketch 49.3 (51167) - http://www.bohemiancoding.com/sketch -->
    <title>unified channels</title>
    <desc>Created with Sketch.</desc>
    <defs></defs>
    <g id="unified-channels" stroke="none" stroke-width="1" fill="none" fill-rule="evenodd">
        <g transform="translate(0.000000, 7.000000)" fill="#0B82C5" id="Page-1">
            <g>
                <path d="M94.6,43.28 L80.16,57.72 C79.48,58.41 78.58,58.75 77.69,58.75 C76.79,58.75 75.9,58.41 75.21,57.72 C73.84,56.36 73.84,54.14 75.21,52.77 L83.8,44.19 L72.71,44.19 C72.63,44.28 72.57,44.38 72.48,44.47 L53.98,63.06 C45.8,71.28 34.57,76.11 23,76.47 C22.54,76.48 22.09,76.5 21.63,76.5 L17.29,76.5 C15.93,79.73 12.73,82 9,82 C4.03,82 0,77.97 0,73 C0,68.03 4.03,64 9,64 C12.73,64 15.93,66.27 17.29,69.5 L21.63,69.5 C22.09,69.5 22.54,69.48 23,69.47 C32.72,69.11 42.14,65.03 49.02,58.12 L62.89,44.19 L17.41,44.19 C16.12,47.58 12.85,50 9,50 C4.03,50 0,45.97 0,41 C0,36.03 4.03,32 9,32 C12.61,32 15.71,34.12 17.14,37.19 L62.26,37.19 L49.02,23.88 C42.14,16.97 32.72,12.89 23,12.53 C22.54,12.52 22.09,12.5 21.63,12.5 L17.29,12.5 C15.93,15.73 12.73,18 9,18 C4.03,18 0,13.97 0,9 C0,4.03 4.03,0 9,0 C12.73,0 15.93,2.27 17.29,5.5 L21.63,5.5 C22.09,5.5 22.54,5.52 23,5.53 C34.57,5.89 45.8,10.72 53.98,18.94 L72.14,37.19 L83.55,37.19 L74.96,28.6 C73.6,27.23 73.6,25.02 74.96,23.65 C76.33,22.28 78.55,22.28 79.91,23.65 L94.6,38.34 C95.97,39.7 95.97,41.92 94.6,43.28" id="Fill-1"></path>
            </g>
        </g>
    </g>
</svg>