<?xml version="1.0" encoding="UTF-8"?>
<svg width="96px" height="96px" viewBox="0 0 96 96" version="1.1" xmlns="http://www.w3.org/2000/svg" xmlns:xlink="http://www.w3.org/1999/xlink">
    <!-- Generator: Sketch 49.3 (51167) - http://www.bohemiancoding.com/sketch -->
    <title>Utilization - Connections and Minutes</title>
    <desc>Created with Sketch.</desc>
    <defs>
        <polygon id="path-1" points="0 0.662 96.0059656 0.662 96.0059656 94 0 94"></polygon>
    </defs>
    <g id="Utilization---Connections-and-Minutes" stroke="none" stroke-width="1" fill="none" fill-rule="evenodd">
        <g id="Page-1">
            <path d="M69.3199,53.9703 L69.2899,53.9703 C69.2899,53.9593 69.2999,53.9403 69.2999,53.9193 C69.2999,53.9403 69.3099,53.9493 69.3199,53.9703" id="Fill-1" fill="#0B82C5"></path>
            <g id="Group-5" transform="translate(0.000000, 0.338300)">
                <mask id="mask-2" fill="white">
                    <use xlink:href="#path-1"></use>
                </mask>
                <g id="Clip-4"></g>
                <path d="M88.1803,49.3117 C87.3903,50.1917 86.3693,50.3617 85.8403,50.3817 C84.8503,50.4017 83.8803,50.0617 83.1103,49.3617 C82.3403,48.6717 81.8803,47.7517 81.8203,46.7517 C81.7803,46.2217 81.8403,45.2017 82.6303,44.3217 C83.4303,43.4417 84.4403,43.2717 84.9703,43.2517 L85.1103,43.2517 C86.0603,43.2517 86.9703,43.6117 87.7003,44.2717 C88.4703,44.9617 88.9303,45.8917 88.9993,46.8817 C89.0303,47.4117 88.9703,48.4317 88.1803,49.3117 M44.1903,60.6617 C37.8503,60.6617 32.6903,55.5017 32.6903,49.1617 C32.6903,42.8217 37.8503,37.6617 44.1903,37.6617 C50.5303,37.6617 55.6903,42.8217 55.6903,49.1617 C55.6903,55.5017 50.5303,60.6617 44.1903,60.6617 M57.4403,7.6617 C59.3293,7.6617 60.8693,9.2017 60.8693,11.0917 C60.8693,12.9817 59.3293,14.5217 57.4403,14.5217 C55.5393,14.5217 53.9993,12.9817 53.9993,11.0917 C53.9993,9.2017 55.5393,7.6617 57.4403,7.6617 M61.4803,82.7017 C61.6903,81.7617 62.2493,80.9717 63.0503,80.4717 C63.3903,80.2517 64.0303,79.9417 64.8603,79.9417 C65.0903,79.9417 65.3503,79.9617 65.6103,80.0317 C66.8003,80.3017 67.4503,81.1017 67.7303,81.5517 C68.2203,82.3517 68.3803,83.3117 68.1593,84.2417 C67.7203,86.1417 65.8603,87.3417 64.0203,86.9117 C62.8293,86.6417 62.1903,85.8417 61.9093,85.3917 C61.4093,84.5917 61.2603,83.6317 61.4803,82.7017 M11.3203,76.5917 C10.1503,76.8817 9.2093,76.4617 8.7603,76.1817 C7.9403,75.6817 7.3603,74.8717 7.1193,73.9117 C6.8803,72.9517 7.0103,71.9617 7.4993,71.1317 C7.7703,70.6717 8.4003,69.8617 9.5703,69.5717 C9.8503,69.5017 10.1103,69.4717 10.3603,69.4717 C11.1593,69.4717 11.7803,69.7717 12.1303,69.9817 C12.9503,70.4817 13.5303,71.2907 13.7703,72.2517 C14.2603,74.1817 13.1503,76.1317 11.3203,76.5917 M16.3203,34.0407 C16.1103,34.9817 15.5503,35.7717 14.7493,36.2717 C14.3003,36.5617 13.3693,36.9917 12.1903,36.7217 C10.6103,36.3517 9.5503,34.9217 9.5503,33.3217 C9.5503,33.0517 9.5793,32.7817 9.6403,32.5017 C10.0203,30.8617 11.4503,29.7417 13.0203,29.7417 C13.2703,29.7417 13.5203,29.7717 13.7803,29.8317 C14.9593,30.1017 15.6103,30.9017 15.8903,31.3517 C16.3803,32.1517 16.5393,33.1117 16.3203,34.0407 M92.3903,39.0617 C87.9803,35.1017 81.2893,35.3517 77.4303,39.6417 C75.8903,41.3517 75.0503,43.4417 74.8603,45.5917 L69.5503,46.4917 L67.8293,46.7817 L62.6103,47.6617 C62.1503,41.9117 59.0703,36.8917 54.5503,33.8317 L56.0303,28.4517 L56.4803,26.8217 L57.9503,21.4917 C63.4703,21.2217 67.8693,16.6817 67.8693,11.0917 C67.8693,5.3317 63.2003,0.6617 57.4403,0.6617 C51.6703,0.6617 46.9993,5.3317 46.9993,11.0917 C46.9993,14.5317 48.6803,17.5717 51.2493,19.4717 L49.9093,24.3117 L49.3103,26.5017 L48.0503,31.0717 C46.8003,30.8017 45.5103,30.6617 44.1903,30.6617 C38.4403,30.6617 33.3003,33.2907 29.9003,37.4117 C29.6103,37.7617 29.3503,38.1317 29.0903,38.5017 L23.2003,35.3217 L22.9003,35.1517 C23.0393,34.9417 23.1903,34.7217 23.3403,34.5117 C23.9903,29.2317 20.6003,24.2217 15.3503,23.0117 C9.7403,21.7117 4.1303,25.2617 2.8203,30.9217 C1.5103,36.5917 4.9993,42.2417 10.6103,43.5407 C13.9093,44.3017 17.2003,43.3817 19.6303,41.3417 C19.7703,41.2317 19.9093,41.1217 20.0393,40.9917 C19.9803,41.1617 19.9303,41.3217 19.8693,41.4817 L26.0703,44.8217 C26.1503,44.7417 26.2203,44.6417 26.2893,44.5517 C26.2603,44.6717 26.2303,44.7817 26.2003,44.8917 C25.8803,46.2717 25.6903,47.6917 25.6903,49.1617 C25.6903,52.4117 26.5303,55.4517 27.9993,58.1017 L23.2003,61.1417 L22.0903,61.8517 L17.1193,65.0017 C14.6403,62.8817 11.2493,61.9417 7.8803,62.7817 C2.2893,64.1717 -1.0907,69.9117 0.3203,75.6017 C1.7403,81.2907 7.4203,84.7717 13.0103,83.3817 C18.4403,82.0317 21.7703,76.5717 20.6593,71.0407 L26.4003,67.4017 L26.8293,67.1317 L32.5303,63.5217 C35.7093,66.1017 39.7703,67.6617 44.1903,67.6617 C46.1403,67.6617 48.0203,67.3517 49.7803,66.7907 L52.6403,70.9717 L53.8503,72.7517 L56.6903,76.9117 C55.7403,78.1117 55.0203,79.5317 54.6503,81.1217 C53.3503,86.7907 56.8293,92.4417 62.4503,93.7317 C68.0603,95.0317 73.6703,91.4817 74.9803,85.8217 C76.2893,80.1517 72.8003,74.5017 67.1903,73.2017 C65.6403,72.8517 64.0903,72.8717 62.6303,73.1917 L59.9093,69.2117 L58.4993,67.1517 L55.9593,63.4317 C58.6403,61.2217 60.6703,58.2717 61.7703,54.9017 L69.2893,53.6317 C69.2893,53.6217 69.3003,53.6017 69.3003,53.5817 C69.3003,53.6017 69.3103,53.6117 69.3203,53.6317 L76.5793,52.4017 C77.0903,53.1817 77.7003,53.9117 78.4303,54.5717 C82.8293,58.5317 89.5303,58.2817 93.3803,54.0017 C97.2403,49.7117 96.7893,43.0317 92.3903,39.0617" id="Fill-3" fill="#0F81C5" mask="url(#mask-2)"></path>
            </g>
            <path d="M51.0397,43.1696 C49.4207,41.7206 47.4097,40.7096 45.1707,40.3296 C45.1197,40.3196 45.0797,40.3196 45.0397,40.3296 C44.8997,40.3506 44.7897,40.4706 44.7607,40.6296 L43.2897,50.9596 C43.2397,51.3006 43.6497,51.4996 43.8807,51.2496 L51.1097,43.7096 C51.2397,43.5696 51.2397,43.3406 51.0907,43.2096 C51.0697,43.1996 51.0607,43.1806 51.0397,43.1696" id="Fill-6" fill="#0F81C5"></path>
        </g>
    </g>
</svg>